<svg id="圖層_1" data-name="圖層 1" xmlns="http://www.w3.org/2000/svg" viewBox="0 0 190 190"><defs><style>.cls-1{fill:none;stroke:#55469b;stroke-linecap:round;stroke-miterlimit:10;stroke-width:2px;}</style></defs><path class="cls-1" d="M164.58,122.49c-3.62,6.87-6.74,12.8-6.74,18.34v27.43"/><path class="cls-1" d="M38.44,161.29c-.58-5.52-2.66-19.31-3.54-24.57a44.81,44.81,0,0,0-4.42-.82c-5.11-.8-10.91-1.69-12.32-7-1.6-6,2-12.78,5.84-19.92,2.47-4.61,5.27-9.83,5.31-12.85.61-52.73,28.07-84.21,73.48-84.21"/><path class="cls-1" d="M146.84,140.83c0-8.26,3.89-15.65,8-23.46,4.85-9.22,9.88-18.75,9.88-31.41,0-14.75-6-30.53-16-42.21-8.14-9.49-22.72-20.81-45.93-20.81"/></svg>