<svg id="圖層_1" data-name="圖層 1" xmlns="http://www.w3.org/2000/svg" viewBox="0 0 190 190"><defs><style>.cls-1{fill:#b1c425;}.cls-2{fill:none;stroke:#fff;stroke-linecap:round;stroke-miterlimit:10;stroke-width:2px;}</style></defs><path class="cls-1" d="M123.5,69.2l1,.76.41.3c17.07,12.33,37.93,13.4,50.21,1.12v0c.15-.14.31-.28.47-.44.36-.37.72-.74,1.06-1.13l.27-.31c.27-.3.53-.62.79-.93l.22-.28c.32-.41.63-.82.92-1.24l.06-.09c.25-.37.5-.74.73-1.12.12-.19.24-.38.35-.57s.21-.36.31-.55a30.37,30.37,0,0,0,2.87-6.91l-51-51a30.87,30.87,0,0,0-6.92,2.86l-.54.31-.58.35c-.37.24-.75.48-1.11.74l-.09.06c-.42.29-.84.6-1.24.92l-.28.22c-.32.25-.63.52-.94.78l-.31.28c-.38.34-.76.69-1.13,1.06-.15.15-.29.31-.44.47h0C106.34,27.15,107.42,48,119.74,65.08l.31.41c.25.34.49.68.75,1,.39.51.79,1,1.2,1.51h0C122.5,68.42,123,68.82,123.5,69.2Z"/><path class="cls-1" d="M68.79,116.75l-.41-.3c-17.08-12.33-37.93-13.4-50.22-1.12h0l-.47.44c-.37.37-.72.75-1.07,1.14l-.27.3c-.27.31-.53.62-.78.94-.07.09-.15.18-.22.28-.32.41-.63.82-.93,1.24l0,.09c-.26.37-.5.74-.74,1.11l-.35.58L13,122a30.87,30.87,0,0,0-2.86,6.92l51,51A30.79,30.79,0,0,0,68,177l.54-.32c.2-.11.39-.23.58-.35.38-.23.75-.47,1.12-.73l.09-.06c.42-.29.83-.6,1.24-.92l.28-.22.93-.79.31-.27c.38-.34.76-.69,1.13-1.06l.44-.47h0C87,159.56,85.89,138.7,73.56,121.63l-.3-.41-.76-1c-.38-.5-.78-1-1.19-1.5s-1-.81-1.51-1.2Z"/><path class="cls-1" d="M74.62,60.38c-.19.1-.37.2-.54.31L73.5,61l-1.12.73-.09.06c-.42.3-.83.61-1.24.93l-.28.22c-.31.25-.63.51-.93.78l-.31.27c-.39.35-.76.7-1.13,1.07s-.72.75-1.07,1.13l-.27.31q-.41.46-.78.93l-.23.28c-.31.41-.62.82-.92,1.24l-.06.09c-.25.37-.5.74-.73,1.12-.12.19-.24.38-.35.58s-.21.36-.31.54C56.11,84.64,59,103.68,71.31,118.7c15,12.33,34.05,15.2,47.38,7.63l.54-.31.58-.35c.38-.24.75-.48,1.11-.74l.09-.05c.42-.3.84-.61,1.25-.93l.27-.22c.32-.25.63-.51.94-.78l.31-.27c.38-.35.76-.7,1.13-1.07s.72-.75,1.06-1.13c.1-.1.19-.21.28-.31.26-.31.53-.62.78-.94l.22-.27c.32-.41.63-.82.92-1.25a.47.47,0,0,0,.06-.09c.26-.36.5-.73.74-1.11l.35-.58.31-.54C137.2,102.07,134.33,83,122,68,107,55.68,87.94,52.81,74.62,60.38Z"/><line class="cls-2" x1="78.8" y1="75.5" x2="114.5" y2="111.21"/><line class="cls-2" x1="96.76" y1="70.45" x2="119.55" y2="93.25"/><line class="cls-2" x1="73.75" y1="93.46" x2="96.55" y2="116.26"/><line class="cls-2" x1="129.03" y1="25.27" x2="164.74" y2="60.97"/><line class="cls-2" x1="123.98" y1="43.22" x2="146.78" y2="66.02"/><line class="cls-2" x1="28.57" y1="125.73" x2="64.27" y2="161.44"/><line class="cls-2" x1="46.52" y1="120.68" x2="69.32" y2="143.48"/></svg>