<?xml version="1.0" encoding="utf-8"?>
<!-- Generator: Adobe Illustrator 25.4.1, SVG Export Plug-In . SVG Version: 6.00 Build 0)  -->
<svg version="1.1" id="圖層_1" xmlns="http://www.w3.org/2000/svg" xmlns:xlink="http://www.w3.org/1999/xlink" x="0px" y="0px"
	 viewBox="0 0 190 190" style="enable-background:new 0 0 190 190;" xml:space="preserve">
<style type="text/css">
	.st0{fill:#B1C425;}
	.st1{fill:none;stroke:#FFFFFF;stroke-width:2;stroke-linecap:round;stroke-miterlimit:10;}
</style>
<path class="st0" d="M91.6,89.3c0-0.6,0.4-1,1-1h44.8l-2.5-45.6h-104l-5.6,103.1c-0.6,10.8,7.7,20,18.5,20.6c0.3,0,0.7,0,1,0h43.8
	L91.6,89.3z"/>
<path class="st0" d="M167.8,90.8H94.1l-2.9,77.1c-0.1,1.9,1.4,3.6,3.4,3.6c0,0,0.1,0,0.1,0h72.5c1.9,0,3.5-1.6,3.5-3.5
	c0,0,0-0.1,0-0.1L167.8,90.8z"/>
<path class="st1" d="M109.3,103.3v5.5c0.3,12,10.2,21.5,22.2,21.3c11.7-0.2,21-9.6,21.3-21.3v-5.5"/>
</svg>
