<svg id="圖層_1" data-name="圖層 1" xmlns="http://www.w3.org/2000/svg" viewBox="0 0 190 190"><defs><style>.cls-1{fill:none;stroke:#55469b;stroke-linecap:round;stroke-miterlimit:10;stroke-width:2px;}</style></defs><path class="cls-1" d="M89.31,128.51c13.26,4.08,26.75,1.94,35.6-6.9,13-13,10.73-34.9-3.17-53.34-6.43-8.52-10.36-17.8-11.44-26.6"/><path class="cls-1" d="M83,155.12c1.77-11.61-2.34-25.07-11.66-36.42C56.89,101.14,55.4,78.1,68.4,65.1c9.07-9.08,22.49-10.71,36-6.14"/><path class="cls-1" d="M115.88,67.84c-14-19.46-14.31-42.64-.61-56.33l.19-.18c.09-.09.17-.19.27-.28.42-.43.86-.83,1.31-1.23l.36-.32c.36-.32.72-.62,1.08-.91l.32-.25c.49-.39,1-.75,1.46-1.09l.18-.12c.35-.25.79-.53,1.23-.81l.57-.34.11-.07.63-.36"/><path class="cls-1" d="M184.45,67.05l-.36.61q-.21.36-.42.69c-.26.43-.55.86-.84,1.29l-.12.17c-.29.42-.66.91-1,1.39l-.2.24c-.35.45-.66.81-1,1.17l-.3.36c-.41.44-.82.88-1.25,1.31l-.28.27-.17.19c-8.56,8.56-20.82,11.67-33.57,9.36"/><path class="cls-1" d="M5.55,127.64a35.68,35.68,0,0,1,3.31-8l.42-.72.35-.58c.26-.42.54-.85.83-1.27l.07-.09c.36-.53.72-1,1.09-1.49l.26-.32c.3-.37.6-.73.91-1.09l.32-.36c.4-.45.81-.89,1.24-1.31l.28-.27c.06-.06.11-.13.18-.19,10.86-10.87,27.7-13,43.92-6.32"/><path class="cls-1" d="M77.42,118.86c14.06,19.47,14.31,42.64.61,56.34l-.18.18-.27.27c-.43.43-.87.84-1.31,1.24l-.29.26c-.43.37-.79.68-1.16,1l-.34.27c-.46.36-1,.73-1.44,1.07l-.16.11c-.37.25-.8.54-1.24.81l-.67.41-.63.36a35.57,35.57,0,0,1-8,3.3"/></svg>