<svg id="圖層_1" data-name="圖層 1" xmlns="http://www.w3.org/2000/svg" viewBox="0 0 190 190"><defs><style>.cls-1{fill:#b1c425;}.cls-2{fill:none;stroke:#fff;stroke-linecap:round;stroke-miterlimit:10;stroke-width:2px;}</style></defs><path class="cls-1" d="M95.47,159.77c-2.85,6.41-8.62,12-15.34,12H54.32c-6.29,0-9.54-2.79-10.41-11C43.22,154.15,40.58,137,40,134c-.85-4.43-15.52-2.74-16.53-6.54-2-7.47,11.22-22,11.33-31.29.54-46.94,23.2-78.77,68-78.77,43.7,0,67.44,37.77,67.44,68.52,0,25.09-17.89,39.23-17.89,54.87v37.23H89.17a1.36,1.36,0,0,1-.82-2.45c4.4-2.78,8.05-7.51,9.06-15.34C97.8,157.22,97,156.4,95.47,159.77Z"/><circle class="cls-2" cx="97.06" cy="119.01" r="8.3"/><circle class="cls-2" cx="59.99" cy="88.67" r="8.3"/><circle class="cls-2" cx="83.92" cy="53.2" r="8.3"/><circle class="cls-2" cx="134.29" cy="63.18" r="8.3"/><circle class="cls-2" cx="129.99" cy="101.08" r="8.3"/><line class="cls-2" x1="68.14" y1="87.07" x2="90.3" y2="82.71"/><circle class="cls-2" cx="98.45" cy="81.1" r="8.3"/><line class="cls-2" x1="87.76" y1="60.56" x2="94.61" y2="73.74"/><line class="cls-2" x1="122.98" y1="96.64" x2="105.46" y2="85.55"/><line class="cls-2" x1="126.86" y1="66.9" x2="105.87" y2="77.39"/><line class="cls-2" x1="122.7" y1="105.05" x2="104.35" y2="115.04"/></svg>