<?xml version="1.0" encoding="utf-8"?>
<!-- Generator: Adobe Illustrator 27.6.1, SVG Export Plug-In . SVG Version: 6.00 Build 0)  -->
<svg version="1.1" id="圖層_1" xmlns="http://www.w3.org/2000/svg" xmlns:xlink="http://www.w3.org/1999/xlink" x="0px" y="0px"
	 viewBox="0 0 162 57.3" style="enable-background:new 0 0 162 57.3;" xml:space="preserve">
<style type="text/css">
	.st0{fill:#FFFFFF;}
</style>
<g>
	<rect y="0" width="57.3" height="57.3"/>
	<path class="st0" d="M14.3,28H43v1.4H14.3V28z M25.1,23.7h-4.4l5.2-17h5.3l0,0.1l5.2,16.9h-4.4l-0.9-3.3H26L25.1,23.7z M27,16.9
		h3.3l-1.6-6L27,16.9z M44.4,6.6v3.6h2.7v36.9h-2.7v3.6h6.3V6.6H44.4z M6.6,6.6v44.1h6.3v-3.6h-2.7V10.2h2.7V6.6H6.6z M35.2,37.3
		v1.5c0,1.5-0.9,2.6-2.2,3c1.3,0.4,2.2,1.6,2.2,3v1.7c0,2.4-1.4,4.2-4.8,4.2h-8v-17H31C33.7,33.7,35.2,35.1,35.2,37.3 M26.2,40.6
		h3.7c1,0,1.6-0.6,1.6-1.5v-1c0-1.1-0.9-1.4-2.1-1.4h-3.2V40.6z M31.4,45.4c0-0.9-0.5-1.5-1.6-1.5h-3.7v3.9h3.2
		c1.2,0,2.1-0.2,2.1-1.4V45.4z"/>
</g>
<g>
	<path d="M75.8,20.8v18.1h-1.4v-4.2c-1.8,0.3-3.5,0.6-5,0.9L69,34.1c0.4-0.1,0.9-0.1,1.4-0.2V20.8h-1.1v-1.5h7.4v1.5H75.8z
		 M74.3,20.8h-2.5v3.2h2.5V20.8z M74.3,25.4h-2.5v3.2h2.5V25.4z M74.3,33.3V30h-2.5v3.7L74.3,33.3z M81.8,25.2
		c0.5,1.2,0.9,2.8,1.1,3.7l-1.1,0.4c-0.1-0.3-0.2-0.7-0.3-1.2c-3.9,0.5-4.5,0.6-4.8,0.8c-0.1-0.4-0.2-1.1-0.4-1.5
		c0.4-0.1,0.8-0.5,1.3-1.1c0.3-0.3,0.9-1.1,1.6-2c-1.7,0.1-2,0.2-2.3,0.4c-0.1-0.4-0.3-1.1-0.4-1.6c0.3,0,0.6-0.4,0.9-0.8
		c0.3-0.4,1.5-2.1,2.1-3.8l1.3,0.6c-0.7,1.5-1.6,3-2.5,4.1L80,23c0.4-0.6,0.8-1.3,1.1-2l1.2,0.6c-1.2,2-2.6,4-4,5.5l2.9-0.3
		c-0.2-0.5-0.3-1-0.5-1.5L81.8,25.2z M80.8,29.4h1.4v3.5c0,2.2-0.7,4.6-3.9,6.2c-0.2-0.3-0.7-0.9-0.9-1.1c2.1-1,2.9-2.3,3.2-3.6
		h-3.1v-5h1.4v3.5h1.9v-0.1V29.4z M88.3,24.9c0.5,1.2,1.2,2.8,1.5,3.8l-1.1,0.4c-0.1-0.3-0.2-0.8-0.4-1.2c-3.9,0.5-4.5,0.7-4.9,0.9
		c0-0.3-0.2-1.1-0.4-1.5c0.4-0.1,0.7-0.5,1.2-1.1c0.2-0.3,0.8-1.1,1.4-2.1c-1.8,0.2-2.2,0.2-2.4,0.4c-0.1-0.3-0.3-1.1-0.4-1.4
		c0.3-0.1,0.6-0.3,0.9-0.7c0.3-0.4,1.4-2.1,2-3.7l1.2,0.5c-0.7,1.4-1.5,2.8-2.3,3.9l1.8-0.1c0.3-0.6,0.7-1.2,0.9-1.8l1.2,0.6
		c-1,2-2.3,3.9-3.5,5.4l2.9-0.3c-0.2-0.5-0.4-1.1-0.6-1.6L88.3,24.9z M87.2,29.5h1.4v5.6h-1.4v-0.9h-1.9v4.6h-1.5v-9.6h1.5v3.5h1.9
		V29.5z"/>
	<path d="M97.3,25.8v13.1h-1.6V25.8h-2.8v-1.6h2.8v-5.9h1.6v5.9h2.4v1.6H97.3z M113.4,33.7h-3.3v3.4c0,0.9-0.2,1.3-0.8,1.5
		c-0.7,0.2-1.7,0.2-3.3,0.2c-0.1-0.4-0.3-1-0.5-1.4c1.3,0,2.4,0,2.7,0c0.4,0,0.4-0.1,0.4-0.4v-3.4h-6c1.1,0.8,2.5,1.8,3.2,2.4
		l-1.1,1.1c-0.8-0.7-2.3-1.9-3.4-2.7l0.9-0.9h-3.1v-1.4h9.5v-1.1h1.5v1.1h3.3V33.7z M105.7,22.1h-5.9v-1.4h5.9v-2.4h1.6v2.4h3.9
		c-0.9-0.5-2-1-2.8-1.5l0.8-0.9c1.1,0.5,2.6,1.2,3.4,1.7l-0.5,0.8h1.3v1.4h-5.9v1.1h5v6.5c0,0.7-0.1,1-0.7,1.1
		c-0.5,0.2-1.2,0.2-2.4,0.2c-0.1-0.4-0.3-0.8-0.5-1.1c0.8,0,1.5,0,1.7,0c0.2,0,0.3-0.1,0.3-0.3V29h-3.5v1.7h-1.6V29h-3.4v2h-1.5
		v-7.8h4.9V22.1z M102.3,24.4v1.3h3.4v-1.3H102.3z M105.7,27.9v-1.2h-3.4v1.2H105.7z M107.2,24.4v1.3h3.5v-1.3H107.2z M110.8,27.9
		v-1.2h-3.5v1.2H110.8z"/>
	<path d="M122.2,30.4v6.3c0,0.9-0.2,1.4-0.8,1.6c-0.6,0.3-1.5,0.3-3,0.3c-0.1-0.4-0.3-1.1-0.5-1.6c1.1,0,2.1,0,2.3,0
		c0.3,0,0.4-0.1,0.4-0.4v-5.8l-2.8,0.8l-0.5-1.6c0.9-0.2,2.1-0.5,3.3-0.9v-4.8h-3.1v-1.6h3.1v-4.5h1.6v4.5h2.8v1.6h-2.8v4.4l2.1-0.6
		l0.2,1.5L122.2,30.4z M136.3,28.6c-0.9,2.7-2.5,4.8-4.4,6.4c1.7,1.1,3.7,1.9,6,2.3c-0.4,0.4-0.8,1.1-1.1,1.5
		c-2.4-0.6-4.6-1.5-6.3-2.8c-2,1.3-4.2,2.2-6.6,2.8c-0.2-0.5-0.5-1.2-0.8-1.5c2.2-0.5,4.3-1.3,6.1-2.4c-1.5-1.4-2.8-3.2-3.7-5.2
		l0.2-0.1h-0.9v-1.6h10.1l0.3-0.1L136.3,28.6z M128.6,21.6c0,2-0.6,4.4-3.4,6c-0.2-0.3-0.8-1-1.1-1.2c2.5-1.4,2.9-3.2,2.9-4.8v-2.5
		h7.1v5.2c0,0.6,0.1,0.9,0.4,0.9h1.7c0.3,0,0.8,0,1.1-0.1c0,0.4,0.1,1.1,0.1,1.4c-0.3,0.1-0.8,0.1-1.2,0.1h-1.9
		c-1.6,0-1.9-0.7-1.9-2.3v-3.6h-3.9V21.6z M127.1,29.8c0.8,1.6,2,3.1,3.4,4.3c1.5-1.2,2.7-2.6,3.5-4.3H127.1z"/>
	<path d="M148,18.8c-0.5,1.5-1.2,3-1.9,4.4v15.7h-1.6V26c-0.7,1.1-1.4,2-2.1,2.9c-0.2-0.4-0.6-1.2-0.9-1.6c2-2.2,3.9-5.5,5-8.9
		L148,18.8z M162,22v1.4h-14.3V22H162z M149,31.6h11.4v7.2H159V38h-8.4v0.9H149V31.6z M160.2,26.6h-10.9v-1.4h10.9V26.6z
		 M149.4,28.4h10.9v1.4h-10.9V28.4z M150.5,33v3.6h8.4V33H150.5z M154.5,21.9c-0.3-0.8-1-2.1-1.6-3l1.4-0.6c0.7,0.9,1.3,2.1,1.6,2.9
		L154.5,21.9z"/>
</g>
</svg>
