<?xml version="1.0" encoding="UTF-8"?>
<svg width="72px" height="36px" viewBox="0 0 72 36" version="1.1" xmlns="http://www.w3.org/2000/svg" xmlns:xlink="http://www.w3.org/1999/xlink">
    <!-- Generator: Sketch 53.2 (72643) - https://sketchapp.com -->
    <title>playbtn</title>
    <desc>Created with Sketch.</desc>
    <g id="playbtn" stroke="none" stroke-width="1" fill="none" fill-rule="evenodd">
        <g id="Group-4">
            <rect id="Rectangle" fill="#D8D8D8" opacity="0" x="0" y="0" width="36" height="36"></rect>
            <g id="play" transform="translate(2.000000, 2.000000)" fill="#222222">
                <path d="M12.3111111,11.2707756 L12.3111111,22.3311074 L21.3604735,16.8009415 L12.3111111,11.2707756 Z M12.0239811,9.68897239 L22.8239811,16.2889724 C23.2068211,16.5229302 23.2068211,17.0789528 22.8239811,17.3129106 L12.0239811,23.9129106 C11.6241692,24.15724 11.1111111,23.8694993 11.1111111,23.4009415 L11.1111111,10.2009415 C11.1111111,9.73238364 11.6241692,9.44464289 12.0239811,9.68897239 Z" id="Shape"></path>
                <path d="M25.1459659,2.87012894 C25.334173,3.00152963 25.3802237,3.26062295 25.248823,3.44883005 C25.1174223,3.63703716 24.858329,3.68308785 24.6701219,3.55168716 C22.1281086,1.77585051 19.1008657,0.825960114 15.9999948,0.831168562 C7.62233519,0.831168562 0.831168562,7.62233519 0.831168562,15.9999948 C0.831168562,24.3776544 7.62233519,31.1688211 15.9999948,31.1688211 C24.3776544,31.1688211 31.1688211,24.3776544 31.1688211,15.9999948 C31.1711385,14.1517593 30.8348522,12.3187349 30.1766136,10.5916849 C30.1187868,10.4519901 30.141388,10.2919113 30.2356299,10.1736867 C30.3298717,10.0554622 30.4808845,9.99774582 30.6299547,10.0229776 C30.7790249,10.0482093 30.9026318,10.1524081 30.9527172,10.2950616 C31.6472629,12.1167959 32.002212,14.0503526 31.9999896,15.9999948 C31.9999896,24.8363556 24.8363556,31.9999896 15.9999948,31.9999896 C7.16363404,31.9999896 0,24.8363556 0,15.9999948 C0,7.16363404 7.16363404,0 15.9999948,0 C19.3168769,0 22.4831096,1.01194772 25.1459659,2.87012894 Z" id="c" stroke="#222222" stroke-width="0.5" fill-rule="nonzero"></path>
            </g>
            <rect id="Rectangle" fill="#D8D8D8" opacity="0" x="36" y="0" width="36" height="36"></rect>
            <g id="stop" transform="translate(38.000000, 2.000000)" stroke="#222222">
                <path d="M25.1459659,2.87012894 C25.334173,3.00152963 25.3802237,3.26062295 25.248823,3.44883005 C25.1174223,3.63703716 24.858329,3.68308785 24.6701219,3.55168716 C22.1281086,1.77585051 19.1008657,0.825960114 15.9999948,0.831168562 C7.62233519,0.831168562 0.831168562,7.62233519 0.831168562,15.9999948 C0.831168562,24.3776544 7.62233519,31.1688211 15.9999948,31.1688211 C24.3776544,31.1688211 31.1688211,24.3776544 31.1688211,15.9999948 C31.1711385,14.1517593 30.8348522,12.3187349 30.1766136,10.5916849 C30.1187868,10.4519901 30.141388,10.2919113 30.2356299,10.1736867 C30.3298717,10.0554622 30.4808845,9.99774582 30.6299547,10.0229776 C30.7790249,10.0482093 30.9026318,10.1524081 30.9527172,10.2950616 C31.6472629,12.1167959 32.002212,14.0503526 31.9999896,15.9999948 C31.9999896,24.8363556 24.8363556,31.9999896 15.9999948,31.9999896 C7.16363404,31.9999896 0,24.8363556 0,15.9999948 C0,7.16363404 7.16363404,0 15.9999948,0 C19.3168769,0 22.4831096,1.01194772 25.1459659,2.87012894 Z" id="c" stroke-width="0.5" fill="#222222" fill-rule="nonzero"></path>
                <rect id="Rectangle" stroke-width="1.5" x="10.6666667" y="10.6666667" width="11.5555556" height="11.5555556" rx="2"></rect>
            </g>
        </g>
    </g>
</svg>