<?xml version="1.0" encoding="utf-8"?>
<!-- Generator: Adobe Illustrator 27.5.0, SVG Export Plug-In . SVG Version: 6.00 Build 0)  -->
<svg version="1.1" id="圖層_1" xmlns="http://www.w3.org/2000/svg" xmlns:xlink="http://www.w3.org/1999/xlink" x="0px" y="0px"
	 viewBox="0 0 92 92" style="enable-background:new 0 0 92 92;" xml:space="preserve">
<style type="text/css">
	.st0{fill:none;stroke:#1E9BD7;stroke-width:3;}
</style>
<g id="icon_x5F_Q_x2F_2">
	<g id="Group-5" transform="translate(2.000000, 2.000000)">
		<path id="Stroke-1" class="st0" d="M37.6,22.3c0-5.3-3.4-8.6-11.1-8.6S15.4,17,15.4,22.3v25.9c0,5.3,3.4,8.6,11.1,8.6
			s11.1-3.3,11.1-8.6V22.3z M22,70.3C6.1,68.8,0,59.1,0,49.5V21C0,10.6,7.2,0,26.5,0S53,10.6,53,21v28.6c0,8-4.3,16.1-15.2,19.4
			l5.4,12.7l-14,5.9L22,70.3z"/>
		<path id="Stroke-3" class="st0" d="M75,60h13.5v8.3H61.8v-8.1c4.8-4.9,5.6-5.7,9.6-10.2c6.5-7.4,7.2-7.8,7.2-12.3v-1.2
			c0-2.3-1.5-3.1-5.2-3.1c-3.2,0-8.1,0.5-10.9,1.3l-1.3-8c4.1-1,8.8-1.7,12.6-1.7c10.2,0,14.3,3.2,14.3,10.4v1.7
			c0,6.3-0.1,7.5-6.1,14.7C78.9,55.6,76.9,58,75,60z"/>
	</g>
</g>
</svg>
