<?xml version="1.0" encoding="utf-8"?>
<!-- Generator: Adobe Illustrator 27.5.0, SVG Export Plug-In . SVG Version: 6.00 Build 0)  -->
<svg version="1.1" id="圖層_1" xmlns="http://www.w3.org/2000/svg" xmlns:xlink="http://www.w3.org/1999/xlink" x="0px" y="0px"
	 viewBox="0 0 92 92" style="enable-background:new 0 0 92 92;" xml:space="preserve">
<style type="text/css">
	.st0{fill:none;stroke:#1E9BD7;stroke-width:3;}
</style>
<g id="icon_x5F_Q_x2F_3">
	<g id="Group-5" transform="translate(2.000000, 2.000000)">
		<path id="Stroke-1" class="st0" d="M37.6,22.3c0-5.3-3.4-8.6-11.1-8.6S15.4,17,15.4,22.3v25.9c0,5.3,3.4,8.6,11.1,8.6
			s11.1-3.3,11.1-8.6V22.3z M22,70.3C6.1,68.8,0,59.1,0,49.5V21C0,10.6,7.2,0,26.5,0S53,10.6,53,21v28.6c0,8-4.3,16.1-15.2,19.4
			l5.4,12.7l-14,5.9L22,70.3z"/>
		<path id="Stroke-3" class="st0" d="M71.7,42.9c4.2,0,5.4-1.2,5.4-4.1v-2.7c0-2.8-1.2-3.4-5.3-3.4c-2.9,0-5.8,0.3-9.1,0.9l-1-7.5
			c3.8-0.8,7.1-1.2,11-1.2c11,0,14,3.3,14,9.9V38c0,3.9-1.3,6.9-4.4,8.8c3.7,1.6,5.2,4,5.2,8.1v3.4c0,6.5-3,10.7-15,10.7
			c-4,0-7.4-0.3-10.8-1.5l1-7.3c3.2,0.6,5.7,0.9,9.5,0.9c4.6,0,5.9-0.9,5.9-3.5v-3c0-2.4-1.5-3.5-4.8-3.5h-8.7V43L71.7,42.9
			L71.7,42.9z"/>
	</g>
</g>
</svg>
