<svg id="CIRCLE" xmlns="http://www.w3.org/2000/svg" width="112" height="112" viewBox="0 0 112 112">
  <g id="Path_306" data-name="Path 306" fill="none">
    <path d="M56,0A56,56,0,1,1,0,56,56,56,0,0,1,56,0Z" stroke="none"/>
    <path d="M 56.00000381469727 2.000007629394531 C 48.70917129516602 2.000007629394531 41.63748931884766 3.427474975585938 34.98138427734375 6.242774963378906 C 31.78208923339844 7.595954895019531 28.69622039794922 9.27093505859375 25.80948638916016 11.22116851806641 C 22.94965362548828 13.15322113037109 20.26033782958984 15.37212371826172 17.81623840332031 17.81623840332031 C 15.37212371826172 20.26033782958984 13.15322113037109 22.94965362548828 11.22116851806641 25.80948638916016 C 9.27093505859375 28.69620513916016 7.595954895019531 31.78208923339844 6.242767333984375 34.98136901855469 C 3.427467346191406 41.63747406005859 2.000007629394531 48.70915603637695 2.000007629394531 55.9999885559082 C 2.000007629394531 63.29082107543945 3.427467346191406 70.36250305175781 6.242767333984375 77.01860046386719 C 7.595954895019531 80.21788787841797 9.27093505859375 83.30377197265625 11.22116851806641 86.19049072265625 C 13.15322113037109 89.05032348632812 15.37212371826172 91.73963928222656 17.81623840332031 94.18373870849609 C 20.26033782958984 96.62785339355469 22.94965362548828 98.84675598144531 25.80948638916016 100.77880859375 C 28.69622039794922 102.7290344238281 31.78208923339844 104.4040222167969 34.98138427734375 105.7572021484375 C 41.63748931884766 108.5725021362305 48.70917129516602 109.9999694824219 56.00000381469727 109.9999694824219 C 63.29083633422852 109.9999694824219 70.36251831054688 108.5725021362305 77.01861572265625 105.7572021484375 C 80.21791839599609 104.4040222167969 83.30378723144531 102.7290344238281 86.19052124023438 100.77880859375 C 89.05035400390625 98.84675598144531 91.73966979980469 96.62785339355469 94.18376922607422 94.18373870849609 C 96.62788391113281 91.73963928222656 98.84678649902344 89.05032348632812 100.7788391113281 86.19049072265625 C 102.7290725708008 83.30377197265625 104.404052734375 80.21788787841797 105.7572402954102 77.01860046386719 C 108.5725402832031 70.36250305175781 110 63.29082107543945 110 55.9999885559082 C 110 48.70915603637695 108.5725402832031 41.63747406005859 105.7572402954102 34.98136901855469 C 104.404052734375 31.78208923339844 102.7290725708008 28.69620513916016 100.7788391113281 25.80948638916016 C 98.84678649902344 22.94965362548828 96.62788391113281 20.26033782958984 94.18376922607422 17.81623840332031 C 91.73966979980469 15.37212371826172 89.05035400390625 13.15322113037109 86.19052124023438 11.22116851806641 C 83.30378723144531 9.27093505859375 80.21791839599609 7.595954895019531 77.01861572265625 6.242774963378906 C 70.36251831054688 3.427474975585938 63.29083633422852 2.000007629394531 56.00000381469727 2.000007629394531 M 56.00000381469727 7.62939453125e-06 C 86.92795562744141 7.62939453125e-06 112 25.07205200195312 112 55.9999885559082 C 112 86.92791748046875 86.92795562744141 111.9999694824219 56.00000381469727 111.9999694824219 C 25.07205200195312 111.9999694824219 7.62939453125e-06 86.92791748046875 7.62939453125e-06 55.9999885559082 C 7.62939453125e-06 25.07205200195312 25.07205200195312 7.62939453125e-06 56.00000381469727 7.62939453125e-06 Z" stroke="none" fill="#5949a7"/>
  </g>
  <g id="Asset_Management" data-name="Asset Management" transform="translate(-1328.348 -1661.936) rotate(45)">
    <circle id="Ellipse_1969" data-name="Ellipse 1969" cx="6.626" cy="6.626" r="6.626" transform="translate(2187.02 206.064)" fill="none" stroke="#5949a7" stroke-linecap="round" stroke-linejoin="round" stroke-width="2"/>
    <circle id="Ellipse_1970" data-name="Ellipse 1970" cx="6.626" cy="6.626" r="6.626" transform="translate(2163.827 206.064)" fill="none" stroke="#5949a7" stroke-linecap="round" stroke-linejoin="round" stroke-width="2"/>
    <circle id="Ellipse_1971" data-name="Ellipse 1971" cx="6.626" cy="6.626" r="6.626" transform="translate(2210.212 206.064)" fill="none" stroke="#5949a7" stroke-linecap="round" stroke-linejoin="round" stroke-width="2"/>
    <circle id="Ellipse_1972" data-name="Ellipse 1972" cx="6.626" cy="6.626" r="6.626" transform="translate(2187.02 229.257)" fill="none" stroke="#5949a7" stroke-linecap="round" stroke-linejoin="round" stroke-width="2"/>
    <circle id="Ellipse_1973" data-name="Ellipse 1973" cx="6.626" cy="6.626" r="6.626" transform="translate(2163.827 229.257)" fill="none" stroke="#5949a7" stroke-linecap="round" stroke-linejoin="round" stroke-width="2"/>
    <circle id="Ellipse_1974" data-name="Ellipse 1974" cx="6.626" cy="6.626" r="6.626" transform="translate(2210.212 229.257)" fill="none" stroke="#5949a7" stroke-linecap="round" stroke-linejoin="round" stroke-width="2"/>
    <circle id="Ellipse_1975" data-name="Ellipse 1975" cx="6.626" cy="6.626" r="6.626" transform="translate(2187.02 252.449)" fill="none" stroke="#5949a7" stroke-linecap="round" stroke-linejoin="round" stroke-width="2"/>
    <circle id="Ellipse_1976" data-name="Ellipse 1976" cx="6.626" cy="6.626" r="6.626" transform="translate(2163.827 252.449)" fill="none" stroke="#5949a7" stroke-linecap="round" stroke-linejoin="round" stroke-width="2"/>
    <circle id="Ellipse_1977" data-name="Ellipse 1977" cx="6.626" cy="6.626" r="6.626" transform="translate(2210.212 252.449)" fill="none" stroke="#5949a7" stroke-linecap="round" stroke-linejoin="round" stroke-width="2"/>
  </g>
</svg>
