<svg xmlns="http://www.w3.org/2000/svg" width="82" height="82" viewBox="0 0 82 82">
  <g id="Icon-Home-TopLeftYellow" transform="translate(25.502 -815)">
    <g id="CIRCLE" transform="translate(-24.502 816)">
      <g id="Group_756" data-name="Group 756">
        <path id="Path_306" data-name="Path 306" d="M40,0A40,40,0,1,1,0,40,40,40,0,0,1,40,0Z" fill="none" stroke="#1cd8c0" stroke-width="2"/>
      </g>
    </g>
    <g id="Group_6908" data-name="Group 6908" transform="translate(-1223.414 -1193.504)">
      <path id="Path_14259" data-name="Path 14259" d="M1224.117,2045.078a3.318,3.318,0,1,0-4.725,4.143" fill="none" stroke="#1cd8c0" stroke-linecap="round" stroke-linejoin="round" stroke-width="2"/>
      <path id="Path_14260" data-name="Path 14260" d="M1211.732,2061.092l1.313-3.171,2.451,1.015a7.527,7.527,0,0,1,1.762-1.759l-1.016-2.453,3.17-1.313,1.016,2.453a7.535,7.535,0,0,1,2.49,0l1.015-2.451,3.17,1.313-1.015,2.451a7.524,7.524,0,0,1,1.759,1.762l2.453-1.016,1.313,3.17-2.452,1.016a7.539,7.539,0,0,1,0,2.49l2.451,1.015-1.313,3.17-2.451-1.015a7.55,7.55,0,0,1-1.762,1.76l1.016,2.452-3.17,1.314-1.016-2.453a7.542,7.542,0,0,1-2.49,0l-1.015,2.451-3.17-1.313,1.015-2.451a7.554,7.554,0,0,1-1.76-1.762l-2.452,1.016-1.313-3.17,2.452-1.016a7.565,7.565,0,0,1,0-2.49Z" fill="none" stroke="#1cd8c0" stroke-linecap="round" stroke-linejoin="round" stroke-width="2"/>
      <path id="Path_14261" data-name="Path 14261" d="M1215.253,2050.969l-2.347,1.142-1.476-3.035,2.348-1.141a7.4,7.4,0,0,1-.149-2.444l-2.465-.852,1.1-3.189,2.465.852a7.441,7.441,0,0,1,1.626-1.831l-1.141-2.347,3.034-1.476,1.141,2.347a7.427,7.427,0,0,1,2.444-.148l.852-2.465,3.189,1.1-.852,2.465" fill="none" stroke="#1cd8c0" stroke-linecap="round" stroke-linejoin="round" stroke-width="2"/>
      <path id="Path_14262" data-name="Path 14262" d="M1218.593,2062.076a3.333,3.333,0,1,0,4.355-1.8A3.333,3.333,0,0,0,1218.593,2062.076Z" fill="none" stroke="#1cd8c0" stroke-linecap="round" stroke-linejoin="round" stroke-width="2"/>
      <g id="Group_6749" data-name="Group 6749">
        <path id="Path_18312" data-name="Path 18312" d="M1622.273,400.256l-1.8-4.357-1.24-.567-2.139.712-1.1-.346a15.7,15.7,0,0,0-2.664-2.659l-.346-1.105.713-2.141-.566-1.24-4.358-1.805-1.277.476-1.01,2.018-1.026.537a15.693,15.693,0,0,0-3.764,0l-1.026-.536-1.008-2.016-1.277-.476-4.358,1.805-.566,1.24.712,2.138-.347,1.105a15.66,15.66,0,0,0-2.659,2.664l-1.1.346-2.141-.713-1.24.566-1.805,4.357.477,1.277,2.018,1.01c.2.379.338.648.536,1.026a15.7,15.7,0,0,0,0,3.764l-.536,1.026-2.016,1.009-.476,1.277,1.805,4.357,1.24.567,2.139-.712,1.1.346a15.662,15.662,0,0,0,2.664,2.659l.346,1.105-.713,2.141.566,1.24,4.358,1.805,1.276-.476,1.01-2.018,1.026-.537a15.7,15.7,0,0,0,3.765,0l1.025.536,1.009,2.016,1.277.476,4.358-1.805.566-1.24-.712-2.138c.128-.407.219-.7.346-1.105a15.661,15.661,0,0,0,2.66-2.663l1.1-.347,2.141.713,1.24-.566,1.8-4.357c-.184-.492-.293-.786-.477-1.277l-2.018-1.01-.537-1.026a15.642,15.642,0,0,0,0-3.764l.535-1.026,2.016-1.009C1621.98,401.042,1622.089,400.748,1622.273,400.256Z" transform="translate(-355.612 1638.969)" fill="none" stroke="#1cd8c0" stroke-linecap="round" stroke-linejoin="round" stroke-width="2"/>
        <g id="Group_6748" data-name="Group 6748" transform="translate(-355.612 1638.969)">
          <path id="Path_18710" data-name="Path 18710" d="M4128.831,2664.457c-3.163-.731-5.017-4.182-4.714-6.166.809-5.308,5.95-6.389,7.8-10.392,3.575,1.938,6.209,6.292,5.122,10.734-.732,2.99-4.4,4.529-5.9,5.02" transform="translate(-2526.81 -2252.922)" fill="none" stroke="#1cd8c0" stroke-linecap="round" stroke-linejoin="round" stroke-width="2"/>
          <path id="Path_18711" data-name="Path 18711" d="M4129.719,2667.824c-2.785-5.767.037-10.708,1.507-14.847" transform="translate(-2526.555 -2251.949)" fill="none" stroke="#1cd8c0" stroke-linecap="round" stroke-linejoin="round" stroke-width="2"/>
        </g>
      </g>
    </g>
  </g>
</svg>
