<svg xmlns="http://www.w3.org/2000/svg" width="104.965" height="104.965" viewBox="0 0 104.965 104.965">
  <g id="Group_130" data-name="Group 130" transform="translate(1 1)">
    <g id="Group_129" data-name="Group 129" transform="translate(0 0)">
      <circle id="Ellipse_17" data-name="Ellipse 17" cx="51.483" cy="51.483" r="51.483" transform="translate(0 0)" fill="none" stroke="#ffbf27" stroke-linecap="round" stroke-linejoin="round" stroke-width="2"/>
      <g id="Group_4636" data-name="Group 4636" transform="translate(-3971.462 -2450.86)">
        <path id="Path_10728" data-name="Path 10728" d="M4012.121,2505.993c1.72,1.551,4.857,1.415,5.7-.784,1.791.866,4.149-.259,4.149-1.865a3.1,3.1,0,0,0,3.792-2.215,3.173,3.173,0,0,0,.1-.595c2.8-.367,2.824-2.915,1.427-4.462" transform="translate(7.937 12.327)" fill="none" stroke="#ffbf27" stroke-linecap="round" stroke-linejoin="round" stroke-width="2"/>
        <path id="Path_10729" data-name="Path 10729" d="M4002.863,2490.876l2.915,2.915a4.358,4.358,0,0,0,1.3,4.847" transform="translate(3.703 9.951)" fill="none" stroke="#ffbf27" stroke-linecap="round" stroke-linejoin="round" stroke-width="2"/>
        <line id="Line_9463" data-name="Line 9463" x1="4.678" y1="4.592" transform="translate(4014.75 2492.638)" fill="none" stroke="#ffbf27" stroke-linecap="round" stroke-linejoin="round" stroke-width="2"/>
        <path id="Path_10730" data-name="Path 10730" d="M4024.991,2485.357a16.291,16.291,0,0,1-3.805,2.142c-2,.453-2.986-.49-4.325,0s-8.212,5.316-8.212,5.316,1.933,3.177,4.3,2.56c2.769-.729,5.089-1.31,7.578-1.981l8.346,7.564a8.488,8.488,0,0,0,2.333-5.656l1.8-1.931" transform="translate(6.349 7.427)" fill="none" stroke="#ffbf27" stroke-linecap="round" stroke-linejoin="round" stroke-width="2"/>
        <path id="Path_10731" data-name="Path 10731" d="M4022.96,2469.115c-2.74,3.789-21.021,11.561-28.194,11.561v27.457c0,12.907,26.613,27.03,28.178,27.437,1.566-.407,28.179-15.514,28.179-25.993v-28.9C4043.3,2480.674,4025.7,2472.9,4022.96,2469.115Z" fill="none" stroke="#ffbf27" stroke-linecap="round" stroke-linejoin="round" stroke-width="2"/>
        <path id="Path_10732" data-name="Path 10732" d="M4005.44,2499.384a1.555,1.555,0,0,1,0-2.2l.67-.67a3.2,3.2,0,0,1,4.532-.074l.008,0,5.023,5.025a3.222,3.222,0,0,1-.063,4.548l-.666.667a1.56,1.56,0,0,1-2.2,0h0Z" transform="translate(4.673 12.083)" fill="none" stroke="#ffbf27" stroke-linecap="round" stroke-linejoin="round" stroke-width="2"/>
        <rect id="Rectangle_1189" data-name="Rectangle 1189" width="7.03" height="14.924" transform="translate(4029.788 2491.245) rotate(-45.001)" fill="none" stroke="#ffbf27" stroke-linecap="round" stroke-linejoin="round" stroke-width="2"/>
        <rect id="Rectangle_1190" data-name="Rectangle 1190" width="14.924" height="7.03" transform="translate(4000.618 2496.828) rotate(-44.999)" fill="none" stroke="#ffbf27" stroke-linecap="round" stroke-linejoin="round" stroke-width="2"/>
      </g>
    </g>
  </g>
</svg>
