<svg xmlns="http://www.w3.org/2000/svg" width="82" height="82" viewBox="0 0 82 82">
  <g id="Icon-Home-TopLeftYellow" transform="translate(25.502 -815)">
    <g id="CIRCLE" transform="translate(-24.502 816)">
      <g id="Group_756" data-name="Group 756">
        <path id="Path_306" data-name="Path 306" d="M40,0A40,40,0,1,1,0,40,40,40,0,0,1,40,0Z" fill="none" stroke="#1e9bd7" stroke-width="2"/>
      </g>
    </g>
    <g id="Group_6087" data-name="Group 6087" transform="translate(-4033.579 -1724.723)">
      <path id="Path_16383" data-name="Path 16383" d="M4042.085,2596.67a2.374,2.374,0,0,1,2-1h14c1.111,0,7.222-6.128,8-7a53.422,53.422,0,0,0,5-8,4,4,0,0,0-4-1c-1.768.411-2.808,1.681-4,4l-4.585,2.38" fill="none" stroke="#1e9bd7" stroke-linecap="round" stroke-linejoin="round" stroke-width="2"/>
      <path id="Path_16384" data-name="Path 16384" d="M4048.085,2589.67h8c4,0,4-5,0-5H4050.8c-.833,0-2.4-2-3.716-2h-5a7,7,0,0,0-4,2l-4,4" fill="none" stroke="#1e9bd7" stroke-linecap="round" stroke-linejoin="round" stroke-width="2"/>
      <rect id="Rectangle_1727" data-name="Rectangle 1727" width="7.071" height="16.971" transform="translate(4027.085 2591.67) rotate(-45)" fill="none" stroke="#1e9bd7" stroke-linecap="round" stroke-linejoin="round" stroke-width="2"/>
      <line id="Line_13659" data-name="Line 13659" x2="2" y2="2" transform="translate(4032.084 2591.67)" fill="none" stroke="#1e9bd7" stroke-linecap="round" stroke-linejoin="round" stroke-width="2"/>
      <path id="Path_16385" data-name="Path 16385" d="M4064.084,2581.67l-2-2h-3l-3-2h-2l-2-1-2,2h-3l-3,2v2" fill="none" stroke="#1e9bd7" stroke-linecap="round" stroke-linejoin="round" stroke-width="2"/>
      <path id="Path_16386" data-name="Path 16386" d="M4046.131,2568.226c2.628,1.526,2.954,5.444,2.954,5.444s-3.753,1.485-6.381-.041-5.619-6.959-5.619-6.959S4043.5,2566.7,4046.131,2568.226Z" fill="none" stroke="#1e9bd7" stroke-linecap="round" stroke-linejoin="round" stroke-width="2"/>
      <path id="Path_16387" data-name="Path 16387" d="M4053.669,2573.291c-2.438-2.51-2.134-6.908-.722-8.657,3.777-4.682,8.955-3.313,13.058-5.964,2.146,3.7.988,9.7-2.543,13.386-2.377,2.48-5.61,2.149-7.244,1.771" fill="none" stroke="#1e9bd7" stroke-linecap="round" stroke-linejoin="round" stroke-width="2"/>
      <path id="Path_16388" data-name="Path 16388" d="M4052.085,2577.67c.828-7.5,6.636-10.323,10.511-13.64" fill="none" stroke="#1e9bd7" stroke-linecap="round" stroke-linejoin="round" stroke-width="2"/>
    </g>
  </g>
</svg>
