<svg xmlns="http://www.w3.org/2000/svg" xmlns:xlink="http://www.w3.org/1999/xlink" width="112" height="112" viewBox="0 0 112 112">
  <defs>
    <clipPath id="clip-path">
      <rect id="Rectangle_3517" data-name="Rectangle 3517" width="112" height="112" fill="#fff"/>
    </clipPath>
  </defs>
  <g id="Group_18365" data-name="Group 18365" transform="translate(-198.357 -155.722)">
    <g id="Path_22484" data-name="Path 22484" transform="translate(198.357 155.722)" fill="none">
      <path d="M56,0A56,56,0,1,1,0,56,56,56,0,0,1,56,0Z" stroke="none"/>
      <path d="M 56 2 C 48.70916748046875 2 41.63748168945312 3.427467346191406 34.98138427734375 6.242767333984375 C 31.78208160400391 7.595947265625 28.69622039794922 9.27093505859375 25.80948638916016 11.22116851806641 C 22.94966888427734 13.15323638916016 20.26035308837891 15.37213134765625 17.81623077392578 17.81623077392578 C 15.37213134765625 20.26035308837891 13.15323638916016 22.94966888427734 11.22116851806641 25.80948638916016 C 9.27093505859375 28.69622039794922 7.595947265625 31.78208160400391 6.242767333984375 34.98138427734375 C 3.427467346191406 41.63748168945312 2 48.70916748046875 2 56 C 2 63.29083251953125 3.427467346191406 70.36251831054688 6.242767333984375 77.01861572265625 C 7.595947265625 80.21791839599609 9.27093505859375 83.30378723144531 11.22116851806641 86.19052124023438 C 13.15323638916016 89.05033111572266 15.37213134765625 91.73965454101562 17.81623077392578 94.18376922607422 C 20.26035308837891 96.62786865234375 22.94966888427734 98.84676361083984 25.80948638916016 100.7788314819336 C 28.69622039794922 102.7290649414062 31.78208160400391 104.404052734375 34.98138427734375 105.7572326660156 C 41.63748168945312 108.5725326538086 48.70916748046875 110 56 110 C 63.29083251953125 110 70.36251831054688 108.5725326538086 77.01861572265625 105.7572326660156 C 80.21791839599609 104.404052734375 83.30378723144531 102.7290649414062 86.19052124023438 100.7788314819336 C 89.05033111572266 98.84676361083984 91.73965454101562 96.62786865234375 94.18376922607422 94.18376922607422 C 96.62786865234375 91.73965454101562 98.84676361083984 89.05033111572266 100.7788314819336 86.19052124023438 C 102.7290649414062 83.30378723144531 104.404052734375 80.21791839599609 105.7572326660156 77.01861572265625 C 108.5725326538086 70.36251831054688 110 63.29083251953125 110 56 C 110 48.70916748046875 108.5725326538086 41.63748168945312 105.7572326660156 34.98138427734375 C 104.404052734375 31.78208160400391 102.7290649414062 28.69622039794922 100.7788314819336 25.80948638916016 C 98.84676361083984 22.94966888427734 96.62786865234375 20.26035308837891 94.18376922607422 17.81623077392578 C 91.73965454101562 15.37213134765625 89.05033111572266 13.15323638916016 86.19052124023438 11.22116851806641 C 83.30378723144531 9.27093505859375 80.21791839599609 7.595947265625 77.01861572265625 6.242767333984375 C 70.36251831054688 3.427467346191406 63.29083251953125 2 56 2 M 56 0 C 86.92793273925781 0 112 25.07206726074219 112 56 C 112 86.92793273925781 86.92793273925781 112 56 112 C 25.07206726074219 112 0 86.92793273925781 0 56 C 0 25.07206726074219 25.07206726074219 0 56 0 Z" stroke="none" fill="#1cd8c0"/>
    </g>
    <g id="Group_7037" data-name="Group 7037" transform="translate(-319.851 -200.343)">
      <path id="Path_17040" data-name="Path 17040" d="M554.08,411.7a5.2,5.2,0,0,0,5.08-5.442v-1.816a5.092,5.092,0,1,0-10.159,0v1.816A5.2,5.2,0,0,0,554.08,411.7Z" transform="translate(1.08 4.589)" fill="none" stroke="#1cd8c0" stroke-linecap="round" stroke-miterlimit="10" stroke-width="2"/>
      <path id="Path_17041" data-name="Path 17041" d="M564.81,382h30.478a3.809,3.809,0,0,1,3.81,3.81v22.859a5.08,5.08,0,0,1-5.08,5.08H574.969l-5.334,7.112a1.27,1.27,0,0,1-2.286-.762v-6.35h-2.54a3.81,3.81,0,0,1-3.81-3.81V385.81A3.81,3.81,0,0,1,564.81,382Z" transform="translate(4.319)" fill="none" stroke="#1cd8c0" stroke-linecap="round" stroke-linejoin="round" stroke-width="2"/>
      <path id="Path_17042" data-name="Path 17042" d="M555.162,429.186l-4.289-.872a3.862,3.862,0,0,1-3.153-2.144l-1.085-2.391c-.955-2.1-1.636-3-1.636-4.713,0-3.581,1.83-7.066,5.865-7.066h7.32c2.347.1,3.787.505,5.068,2.051s2.483,3,2.483,3" transform="translate(0 8.098)" fill="none" stroke="#1cd8c0" stroke-linecap="round" stroke-linejoin="round" stroke-width="2"/>
      <path id="Path_17043" data-name="Path 17043" d="M549.737,417.284l1.148,2.87a3.047,3.047,0,0,0,2.081,1.991l2.955,1.05" transform="translate(1.279 9.524)" fill="none" stroke="#1cd8c0" stroke-linecap="round" stroke-linejoin="round" stroke-width="2"/>
      <path id="Path_17044" data-name="Path 17044" d="M564.5,425.08h-4.484c-.243-3.016,2.382-5.08,2.382-5.08h4.029a1.268,1.268,0,0,1,1.066,1.838l-.862,1.838A2.371,2.371,0,0,1,564.5,425.08Z" transform="translate(4.049 10.257)" fill="none" stroke="#1cd8c0" stroke-linecap="round" stroke-linejoin="round" stroke-width="2"/>
      <path id="Path_17045" data-name="Path 17045" d="M567.8,421.085l1.671-3.419a1.166,1.166,0,0,0-1.025-1.688h-8.9a1.145,1.145,0,0,0-1.025.645L552.8,428.287a1.165,1.165,0,0,0,1.025,1.688h8.9a1.144,1.144,0,0,0,1.025-.645l1.554-3.165" transform="translate(2.072 9.172)" fill="none" stroke="#1cd8c0" stroke-linecap="round" stroke-linejoin="round" stroke-width="2"/>
      <line id="Line_14209" data-name="Line 14209" y2="5.43" transform="translate(550.08 436.256)" fill="none" stroke="#1cd8c0" stroke-linecap="round" stroke-linejoin="round" stroke-width="2"/>
      <line id="Line_14210" data-name="Line 14210" y2="2" transform="translate(563.208 439.343)" fill="none" stroke="#1cd8c0" stroke-linecap="round" stroke-linejoin="round" stroke-width="2"/>
      <path id="Path_17046" data-name="Path 17046" d="M582.162,406.319h8.087a1.258,1.258,0,0,0,.937-1.97l-11.55-17.82a1.094,1.094,0,0,0-1.874,0l-11.55,17.82a1.258,1.258,0,0,0,.937,1.97h8.087" transform="translate(5.668 1.08)" fill="none" stroke="#1cd8c0" stroke-linecap="round" stroke-linejoin="round" stroke-width="2"/>
      <line id="Line_14211" data-name="Line 14211" y2="9" transform="translate(584.208 394.343)" fill="none" stroke="#1cd8c0" stroke-linecap="round" stroke-linejoin="round" stroke-width="2"/>
      <line id="Line_14212" data-name="Line 14212" y2="2" transform="translate(584.208 406.343)" fill="none" stroke="#1cd8c0" stroke-linecap="round" stroke-linejoin="round" stroke-width="2"/>
    </g>
  </g>
</svg>
