<svg xmlns="http://www.w3.org/2000/svg" xmlns:xlink="http://www.w3.org/1999/xlink" width="112" height="112" viewBox="0 0 112 112">
  <defs>
    <clipPath id="clip-path">
      <rect id="Rectangle_3517" data-name="Rectangle 3517" width="112" height="112" fill="#fff"/>
    </clipPath>
    <clipPath id="clip-path-2">
      <rect id="Rectangle_3520" data-name="Rectangle 3520" width="66" height="66" transform="translate(549.841 3294.529)" fill="#fff"/>
    </clipPath>
  </defs>
  <g id="Group_18367" data-name="Group 18367" transform="translate(-198.357 -155.722)">
    <g id="Path_22484" data-name="Path 22484" transform="translate(198.357 155.722)" fill="none">
      <path d="M56,0A56,56,0,1,1,0,56,56,56,0,0,1,56,0Z" stroke="none"/>
      <path d="M 56 2 C 48.70916748046875 2 41.63748168945312 3.427467346191406 34.98138427734375 6.242767333984375 C 31.78208160400391 7.595947265625 28.69622039794922 9.27093505859375 25.80948638916016 11.22116851806641 C 22.94966888427734 13.15323638916016 20.26035308837891 15.37213134765625 17.81623077392578 17.81623077392578 C 15.37213134765625 20.26035308837891 13.15323638916016 22.94966888427734 11.22116851806641 25.80948638916016 C 9.27093505859375 28.69622039794922 7.595947265625 31.78208160400391 6.242767333984375 34.98138427734375 C 3.427467346191406 41.63748168945312 2 48.70916748046875 2 56 C 2 63.29083251953125 3.427467346191406 70.36251831054688 6.242767333984375 77.01861572265625 C 7.595947265625 80.21791839599609 9.27093505859375 83.30378723144531 11.22116851806641 86.19052124023438 C 13.15323638916016 89.05033111572266 15.37213134765625 91.73965454101562 17.81623077392578 94.18376922607422 C 20.26035308837891 96.62786865234375 22.94966888427734 98.84676361083984 25.80948638916016 100.7788314819336 C 28.69622039794922 102.7290649414062 31.78208160400391 104.404052734375 34.98138427734375 105.7572326660156 C 41.63748168945312 108.5725326538086 48.70916748046875 110 56 110 C 63.29083251953125 110 70.36251831054688 108.5725326538086 77.01861572265625 105.7572326660156 C 80.21791839599609 104.404052734375 83.30378723144531 102.7290649414062 86.19052124023438 100.7788314819336 C 89.05033111572266 98.84676361083984 91.73965454101562 96.62786865234375 94.18376922607422 94.18376922607422 C 96.62786865234375 91.73965454101562 98.84676361083984 89.05033111572266 100.7788314819336 86.19052124023438 C 102.7290649414062 83.30378723144531 104.404052734375 80.21791839599609 105.7572326660156 77.01861572265625 C 108.5725326538086 70.36251831054688 110 63.29083251953125 110 56 C 110 48.70916748046875 108.5725326538086 41.63748168945312 105.7572326660156 34.98138427734375 C 104.404052734375 31.78208160400391 102.7290649414062 28.69622039794922 100.7788314819336 25.80948638916016 C 98.84676361083984 22.94966888427734 96.62786865234375 20.26035308837891 94.18376922607422 17.81623077392578 C 91.73965454101562 15.37213134765625 89.05033111572266 13.15323638916016 86.19052124023438 11.22116851806641 C 83.30378723144531 9.27093505859375 80.21791839599609 7.595947265625 77.01861572265625 6.242767333984375 C 70.36251831054688 3.427467346191406 63.29083251953125 2 56 2 M 56 0 C 86.92793273925781 0 112 25.07206726074219 112 56 C 112 86.92793273925781 86.92793273925781 112 56 112 C 25.07206726074219 112 0 86.92793273925781 0 56 C 0 25.07206726074219 25.07206726074219 0 56 0 Z" stroke="none" fill="#1cd8c0"/>
    </g>
    <g id="Mask_Group_73" data-name="Mask Group 73" transform="translate(-328.326 -3119.529)" clip-path="url(#clip-path-2)">
      <g id="Earth" transform="translate(550.924 3297.066)">
        <g id="Group_18369" data-name="Group 18369" transform="translate(0 0)">
          <path id="Path_22490" data-name="Path 22490" d="M982.118,1692.286a15.127,15.127,0,0,1-5.551,1" transform="translate(-929.385 -1682.181)" fill="none" stroke="#1cd8c0" stroke-linecap="round" stroke-linejoin="round" stroke-width="2"/>
          <path id="Path_22491" data-name="Path 22491" d="M985.995,1705.527v-10.42c2.514-1,4.163-2.667,4.163-4.552,0-3.067-4.349-5.551-9.714-5.551s-9.714,2.484-9.714,5.551c0,1.885,1.649,3.548,4.163,4.552v10.42c0,2.657-1.793,4.464-4.337,5.392-2.467.9-3.99,2.534-3.99,4.284v7.806c0,3.536,6.213,6.4,13.877,6.4s13.877-2.866,13.877-6.4V1715.2c0-1.75-1.524-3.382-3.991-4.284C987.788,1709.991,985.995,1708.184,985.995,1705.527Z" transform="translate(-933.262 -1685.004)" fill="none" stroke="#1cd8c0" stroke-linecap="round" stroke-linejoin="round" stroke-width="2"/>
          <path id="Path_22492" data-name="Path 22492" d="M969.722,1712.062a22.869,22.869,0,0,0,9.5,1.88c7.664,0,13.877-3.107,13.877-6.938" transform="translate(-932.039 -1676.475)" fill="none" stroke="#1cd8c0" stroke-linecap="round" stroke-linejoin="round" stroke-width="2"/>
          <path id="Path_22493" data-name="Path 22493" d="M977.259,1692H954.622l-12.055,44.406H1006.4l-5.115-15.667" transform="translate(-942.567 -1675.64)" fill="none" stroke="#1cd8c0" stroke-linecap="round" stroke-linejoin="round" stroke-width="2"/>
          <line id="Line_15658" data-name="Line 15658" x2="15.442" transform="translate(16.476 23.514)" fill="none" stroke="#1cd8c0" stroke-linecap="round" stroke-linejoin="round" stroke-width="2"/>
          <line id="Line_15659" data-name="Line 15659" x2="15.442" transform="translate(15.072 28.834)" fill="none" stroke="#1cd8c0" stroke-linecap="round" stroke-linejoin="round" stroke-width="2"/>
        </g>
      </g>
    </g>
  </g>
</svg>
