<svg xmlns="http://www.w3.org/2000/svg" width="82" height="82" viewBox="0 0 82 82">
  <g id="Icon-Home-TopLeftYellow" transform="translate(25.502 -815)">
    <g id="CIRCLE" transform="translate(-24.502 816)">
      <g id="Group_756" data-name="Group 756">
        <path id="Path_306" data-name="Path 306" d="M40,0A40,40,0,1,1,0,40,40,40,0,0,1,40,0Z" fill="none" stroke="#1e9bd7" stroke-width="2"/>
      </g>
    </g>
    <g id="Group_5353" data-name="Group 5353" transform="translate(-2731.879 -66.327)">
      <path id="Path_13352" data-name="Path 13352" d="M2763.222,931.67h3.4V904.492H2729.25V931.67h3.4" transform="translate(-0.102)" fill="none" stroke="#1e9bd7" stroke-linecap="round" stroke-linejoin="round" stroke-width="2"/>
      <line id="Line_11629" data-name="Line 11629" x2="38.98" transform="translate(2728.386 940.163)" fill="none" stroke="#1e9bd7" stroke-linecap="round" stroke-linejoin="round" stroke-width="2"/>
      <path id="Path_13353" data-name="Path 13353" d="M2762.743,932.437v-2.548a3.4,3.4,0,0,0-3.4-3.4h-1.7a3.4,3.4,0,0,0-3.4,3.4v2.548" transform="translate(-3.869 -3.315)" fill="none" stroke="#1e9bd7" stroke-linecap="round" stroke-linejoin="round" stroke-width="2"/>
      <path id="Path_13354" data-name="Path 13354" d="M2744.743,939.739v-.763c0-2.393-1.875-3.484-4.246-3.484s-4.247,1.09-4.247,3.484v.763" transform="translate(-1.156 -4.672)" fill="none" stroke="#1e9bd7" stroke-linecap="round" stroke-linejoin="round" stroke-width="2"/>
      <path id="Path_13355" data-name="Path 13355" d="M2754.743,939.739v-.763c0-2.393-1.875-3.484-4.246-3.484s-4.247,1.09-4.247,3.484v.763" transform="translate(-2.663 -4.672)" fill="none" stroke="#1e9bd7" stroke-linecap="round" stroke-linejoin="round" stroke-width="2"/>
      <path id="Path_13356" data-name="Path 13356" d="M2764.743,939.739v-.763c0-2.393-1.875-3.484-4.246-3.484s-4.246,1.09-4.246,3.484v.763" transform="translate(-4.171 -4.672)" fill="none" stroke="#1e9bd7" stroke-linecap="round" stroke-linejoin="round" stroke-width="2"/>
      <path id="Path_13357" data-name="Path 13357" d="M2739.743,945.588v-1.612c0-2.393-1.875-3.484-4.246-3.484s-4.247,1.09-4.247,3.484v1.612" transform="translate(-0.403 -5.425)" fill="none" stroke="#1e9bd7" stroke-linecap="round" stroke-linejoin="round" stroke-width="2"/>
      <path id="Path_13358" data-name="Path 13358" d="M2749.743,945.588v-1.612c0-2.393-1.875-3.484-4.246-3.484s-4.247,1.09-4.247,3.484v1.612" transform="translate(-1.91 -5.425)" fill="none" stroke="#1e9bd7" stroke-linecap="round" stroke-linejoin="round" stroke-width="2"/>
      <path id="Path_13359" data-name="Path 13359" d="M2759.743,945.588v-1.612c0-2.393-1.875-3.484-4.246-3.484s-4.246,1.09-4.246,3.484v1.612" transform="translate(-3.417 -5.425)" fill="none" stroke="#1e9bd7" stroke-linecap="round" stroke-linejoin="round" stroke-width="2"/>
      <path id="Path_13360" data-name="Path 13360" d="M2769.743,945.588v-1.612c0-2.393-1.875-3.484-4.246-3.484s-4.246,1.09-4.246,3.484v1.612" transform="translate(-4.924 -5.425)" fill="none" stroke="#1e9bd7" stroke-linecap="round" stroke-linejoin="round" stroke-width="2"/>
      <path id="Path_13361" data-name="Path 13361" d="M2758.8,922.437a2.538,2.538,0,0,0,2.548-2.548v-.849a2.548,2.548,0,1,0-5.1,0v.849A2.538,2.538,0,0,0,2758.8,922.437Z" transform="translate(-4.171 -1.808)" fill="none" stroke="#1e9bd7" stroke-linecap="round" stroke-linejoin="round" stroke-width="2"/>
    </g>
  </g>
</svg>
