<svg xmlns="http://www.w3.org/2000/svg" width="104.965" height="104.965" viewBox="0 0 104.965 104.965">
  <g id="Group_130" data-name="Group 130" transform="translate(1 1)">
    <g id="Group_129" data-name="Group 129" transform="translate(0 0)">
      <circle id="Ellipse_17" data-name="Ellipse 17" cx="51.483" cy="51.483" r="51.483" transform="translate(0 0)" fill="none" stroke="#5949a7" stroke-linecap="round" stroke-linejoin="round" stroke-width="2"/>
      <g id="Collaboration_" data-name="Collaboration " transform="translate(-3792.833 -2047.822)">
        <path id="Path_16244" data-name="Path 16244" d="M3851.517,2112.051v-3.919c0-3.553-7.317-5.155-10.955-5.155s-10.955,1.6-10.955,5.155v3.919" transform="translate(3.754 9.807)" fill="none" stroke="#5949a7" stroke-linecap="round" stroke-linejoin="round" stroke-width="2"/>
        <path id="Path_16245" data-name="Path 16245" d="M3839.118,2102.582c2.713,0,4.511-2.218,4.511-4.956v-1.652c0-2.738-1.8-4.957-4.511-4.957s-4.511,2.219-4.511,4.957v1.652C3834.607,2100.364,3836.406,2102.582,3839.118,2102.582Z" transform="translate(5.198 6.354)" fill="none" stroke="#5949a7" stroke-linecap="round" stroke-linejoin="round" stroke-width="2"/>
        <path id="Path_16246" data-name="Path 16246" d="M3824.118,2104.575c-2.711,0-4.511-2.226-4.511-4.971v-1.657c0-2.745,1.8-4.971,4.511-4.971s4.511,2.225,4.511,4.971v1.657C3828.628,2102.349,3826.831,2104.575,3824.118,2104.575Z" transform="translate(0.866 6.919)" fill="none" stroke="#5949a7" stroke-linecap="round" stroke-linejoin="round" stroke-width="2"/>
        <path id="Path_16247" data-name="Path 16247" d="M3854.118,2104.575c2.713,0,4.511-2.226,4.511-4.971v-1.657c0-2.745-1.8-4.971-4.511-4.971s-4.511,2.225-4.511,4.971v1.657C3849.607,2102.349,3851.406,2104.575,3854.118,2104.575Z" transform="translate(9.53 6.919)" fill="none" stroke="#5949a7" stroke-linecap="round" stroke-linejoin="round" stroke-width="2"/>
        <path id="Path_16248" data-name="Path 16248" d="M3864.522,2119.194v-10.363a3.833,3.833,0,0,0-3.867-3.814h-3.866l-6.444,6.444h-7.733s-.576,5.155,3.866,5.155h7.733l5.155-5.181" transform="translate(7.503 10.397)" fill="none" stroke="#5949a7" stroke-linecap="round" stroke-linejoin="round" stroke-width="2"/>
        <path id="Path_16249" data-name="Path 16249" d="M3816.607,2119.194v-10.363a3.812,3.812,0,0,1,3.842-3.814h3.866l6.444,6.444h7.732s.578,5.155-3.866,5.155h-7.733l-5.142-5.181" transform="translate(0 10.397)" fill="none" stroke="#5949a7" stroke-linecap="round" stroke-linejoin="round" stroke-width="2"/>
        <line id="Line_13569" data-name="Line 13569" y2="3.866" transform="translate(3863.004 2125.725)" fill="none" stroke="#5949a7" stroke-linecap="round" stroke-linejoin="round" stroke-width="2"/>
        <line id="Line_13570" data-name="Line 13570" y2="3.866" transform="translate(3825.629 2125.725)" fill="none" stroke="#5949a7" stroke-linecap="round" stroke-linejoin="round" stroke-width="2"/>
        <line id="Line_13571" data-name="Line 13571" x2="19.332" transform="translate(3834.651 2127.013)" fill="none" stroke="#5949a7" stroke-linecap="round" stroke-linejoin="round" stroke-width="2"/>
        <path id="Path_16250" data-name="Path 16250" d="M3826.185,2069.017h33.509a2.578,2.578,0,0,1,2.578,2.578v18.043a2.577,2.577,0,0,1-2.578,2.577h-5.155v5.538a1.289,1.289,0,0,1-2.267.839l-5.466-6.377h-20.621a2.578,2.578,0,0,1-2.578-2.577v-18.043A2.579,2.579,0,0,1,3826.185,2069.017Z" transform="translate(2.022)" fill="none" stroke="#5949a7" stroke-linecap="round" stroke-linejoin="round" stroke-width="2"/>
      </g>
    </g>
  </g>
</svg>
