<svg id="CIRCLE" xmlns="http://www.w3.org/2000/svg" width="112" height="112" viewBox="0 0 112 112">
  <g id="Path_306" data-name="Path 306" fill="none">
    <path d="M56,0A56,56,0,1,1,0,56,56,56,0,0,1,56,0Z" stroke="none"/>
    <path d="M 56.00000381469727 2.000007629394531 C 48.70917129516602 2.000007629394531 41.63748931884766 3.427474975585938 34.98138427734375 6.242774963378906 C 31.78208923339844 7.595954895019531 28.69622039794922 9.27093505859375 25.80948638916016 11.22116851806641 C 22.94965362548828 13.15322113037109 20.26033782958984 15.37212371826172 17.81623840332031 17.81623840332031 C 15.37212371826172 20.26033782958984 13.15322113037109 22.94965362548828 11.22116851806641 25.80948638916016 C 9.27093505859375 28.69620513916016 7.595954895019531 31.78208923339844 6.242767333984375 34.98136901855469 C 3.427467346191406 41.63747406005859 2.000007629394531 48.70915603637695 2.000007629394531 55.9999885559082 C 2.000007629394531 63.29082107543945 3.427467346191406 70.36250305175781 6.242767333984375 77.01860046386719 C 7.595954895019531 80.21788787841797 9.27093505859375 83.30377197265625 11.22116851806641 86.19049072265625 C 13.15322113037109 89.05032348632812 15.37212371826172 91.73963928222656 17.81623840332031 94.18373870849609 C 20.26033782958984 96.62785339355469 22.94965362548828 98.84675598144531 25.80948638916016 100.77880859375 C 28.69622039794922 102.7290344238281 31.78208923339844 104.4040222167969 34.98138427734375 105.7572021484375 C 41.63748931884766 108.5725021362305 48.70917129516602 109.9999694824219 56.00000381469727 109.9999694824219 C 63.29083633422852 109.9999694824219 70.36251831054688 108.5725021362305 77.01861572265625 105.7572021484375 C 80.21791839599609 104.4040222167969 83.30378723144531 102.7290344238281 86.19052124023438 100.77880859375 C 89.05035400390625 98.84675598144531 91.73966979980469 96.62785339355469 94.18376922607422 94.18373870849609 C 96.62788391113281 91.73963928222656 98.84678649902344 89.05032348632812 100.7788391113281 86.19049072265625 C 102.7290725708008 83.30377197265625 104.404052734375 80.21788787841797 105.7572402954102 77.01860046386719 C 108.5725402832031 70.36250305175781 110 63.29082107543945 110 55.9999885559082 C 110 48.70915603637695 108.5725402832031 41.63747406005859 105.7572402954102 34.98136901855469 C 104.404052734375 31.78208923339844 102.7290725708008 28.69620513916016 100.7788391113281 25.80948638916016 C 98.84678649902344 22.94965362548828 96.62788391113281 20.26033782958984 94.18376922607422 17.81623840332031 C 91.73966979980469 15.37212371826172 89.05035400390625 13.15322113037109 86.19052124023438 11.22116851806641 C 83.30378723144531 9.27093505859375 80.21791839599609 7.595954895019531 77.01861572265625 6.242774963378906 C 70.36251831054688 3.427474975585938 63.29083633422852 2.000007629394531 56.00000381469727 2.000007629394531 M 56.00000381469727 7.62939453125e-06 C 86.92795562744141 7.62939453125e-06 112 25.07205200195312 112 55.9999885559082 C 112 86.92791748046875 86.92795562744141 111.9999694824219 56.00000381469727 111.9999694824219 C 25.07205200195312 111.9999694824219 7.62939453125e-06 86.92791748046875 7.62939453125e-06 55.9999885559082 C 7.62939453125e-06 25.07205200195312 25.07205200195312 7.62939453125e-06 56.00000381469727 7.62939453125e-06 Z" stroke="none" fill="#1e9bd7"/>
  </g>
  <g id="Group" transform="translate(-3473.201 -1885.799)">
    <g id="Group_7152" data-name="Group 7152" transform="translate(3513.706 1910.017)">
      <path id="Path_16122" data-name="Path 16122" d="M3520.739,1950.166a6.359,6.359,0,0,0,6.033-6.033v-13.574c0-4.982-9.843-7.541-15.082-7.541s-15.083,2.56-15.083,7.541v13.574a6.36,6.36,0,0,0,6.033,6.033" transform="translate(-3496.607 -1903.41)" fill="none" stroke="#1e9bd7" stroke-linecap="round" stroke-linejoin="round" stroke-width="2"/>
      <path id="Path_16124" data-name="Path 16124" d="M3508.64,1925.1a5.782,5.782,0,0,0,6.033-6.033v-3.017a6.033,6.033,0,1,0-12.066,0v3.017A5.783,5.783,0,0,0,3508.64,1925.1Z" transform="translate(-3493.557 -1910.017)" fill="none" stroke="#1e9bd7" stroke-linecap="round" stroke-linejoin="round" stroke-width="2"/>
      <line id="Line_13543" data-name="Line 13543" y1="37.895" transform="translate(24.321 29.977)" fill="none" stroke="#1e9bd7" stroke-linecap="round" stroke-linejoin="round" stroke-width="2"/>
      <line id="Line_13544" data-name="Line 13544" y2="37.895" transform="translate(6.222 29.977)" fill="none" stroke="#1e9bd7" stroke-linecap="round" stroke-linejoin="round" stroke-width="2"/>
      <line id="Line_13545" data-name="Line 13545" y2="21.363" transform="translate(15.083 46.509)" fill="none" stroke="#1e9bd7" stroke-linecap="round" stroke-linejoin="round" stroke-width="2"/>
    </g>
    <g id="Group_7155" data-name="Group 7155" transform="translate(3495.607 1910.017)">
      <g id="Group_7153" data-name="Group 7153" transform="translate(46.756)">
        <line id="Line_15509" data-name="Line 15509" y2="20.927" transform="translate(4.714 46.944)" fill="none" stroke="#1e9bd7" stroke-linecap="round" stroke-linejoin="round" stroke-width="2"/>
        <path id="Path_16126" data-name="Path 16126" d="M3539.165,1950.166c2.934,0,6.033-1.591,6.033-4.525v-15.082c0-4.982-8.858-7.541-13.574-7.541h-3.016" transform="translate(-3525.591 -1903.41)" fill="none" stroke="#1e9bd7" stroke-linecap="round" stroke-linejoin="round" stroke-width="2"/>
        <line id="Line_13546" data-name="Line 13546" y1="37.895" transform="translate(13.763 29.977)" fill="none" stroke="#1e9bd7" stroke-linecap="round" stroke-linejoin="round" stroke-width="2"/>
        <path id="Path_16127" data-name="Path 16127" d="M3532.64,1925.1a5.782,5.782,0,0,0,6.033-6.033v-3.017a6.033,6.033,0,1,0-12.066,0v3.017A5.783,5.783,0,0,0,3532.64,1925.1Z" transform="translate(-3526.607 -1910.017)" fill="none" stroke="#1e9bd7" stroke-linecap="round" stroke-linejoin="round" stroke-width="2"/>
      </g>
      <g id="Group_7154" data-name="Group 7154" transform="translate(0 0)">
        <path id="Path_16123" data-name="Path 16123" d="M3522.64,1950.166c-2.934,0-6.033-1.591-6.033-4.525v-15.082c0-4.982,8.858-7.541,13.574-7.541h3.017" transform="translate(-3516.607 -1903.41)" fill="none" stroke="#1e9bd7" stroke-linecap="round" stroke-linejoin="round" stroke-width="2"/>
        <line id="Line_13542" data-name="Line 13542" y1="37.895" transform="translate(6.222 29.976)" fill="none" stroke="#1e9bd7" stroke-linecap="round" stroke-linejoin="round" stroke-width="2"/>
        <line id="Line_15508" data-name="Line 15508" y2="20.927" transform="translate(15.271 46.944)" fill="none" stroke="#1e9bd7" stroke-linecap="round" stroke-linejoin="round" stroke-width="2"/>
        <path id="Path_16125" data-name="Path 16125" d="M3520.64,1925.1a5.782,5.782,0,0,1-6.033-6.033v-3.017a6.033,6.033,0,1,1,12.066,0v3.017A5.783,5.783,0,0,1,3520.64,1925.1Z" transform="translate(-3507.066 -1910.017)" fill="none" stroke="#1e9bd7" stroke-linecap="round" stroke-linejoin="round" stroke-width="2"/>
      </g>
    </g>
  </g>
</svg>
