<svg xmlns="http://www.w3.org/2000/svg" xmlns:xlink="http://www.w3.org/1999/xlink" width="112" height="112" viewBox="0 0 112 112">
  <defs>
    <clipPath id="clip-path">
      <rect id="Rectangle_3517" data-name="Rectangle 3517" width="112" height="112" fill="#fff"/>
    </clipPath>
  </defs>
  <g id="Group_18364" data-name="Group 18364" transform="translate(-198.357 -155.722)">
    <g id="Path_22484" data-name="Path 22484" transform="translate(198.357 155.722)" fill="none">
      <path d="M56,0A56,56,0,1,1,0,56,56,56,0,0,1,56,0Z" stroke="none"/>
      <path d="M 56 2 C 48.70916748046875 2 41.63748168945312 3.427467346191406 34.98138427734375 6.242767333984375 C 31.78208160400391 7.595947265625 28.69622039794922 9.27093505859375 25.80948638916016 11.22116851806641 C 22.94966888427734 13.15323638916016 20.26035308837891 15.37213134765625 17.81623077392578 17.81623077392578 C 15.37213134765625 20.26035308837891 13.15323638916016 22.94966888427734 11.22116851806641 25.80948638916016 C 9.27093505859375 28.69622039794922 7.595947265625 31.78208160400391 6.242767333984375 34.98138427734375 C 3.427467346191406 41.63748168945312 2 48.70916748046875 2 56 C 2 63.29083251953125 3.427467346191406 70.36251831054688 6.242767333984375 77.01861572265625 C 7.595947265625 80.21791839599609 9.27093505859375 83.30378723144531 11.22116851806641 86.19052124023438 C 13.15323638916016 89.05033111572266 15.37213134765625 91.73965454101562 17.81623077392578 94.18376922607422 C 20.26035308837891 96.62786865234375 22.94966888427734 98.84676361083984 25.80948638916016 100.7788314819336 C 28.69622039794922 102.7290649414062 31.78208160400391 104.404052734375 34.98138427734375 105.7572326660156 C 41.63748168945312 108.5725326538086 48.70916748046875 110 56 110 C 63.29083251953125 110 70.36251831054688 108.5725326538086 77.01861572265625 105.7572326660156 C 80.21791839599609 104.404052734375 83.30378723144531 102.7290649414062 86.19052124023438 100.7788314819336 C 89.05033111572266 98.84676361083984 91.73965454101562 96.62786865234375 94.18376922607422 94.18376922607422 C 96.62786865234375 91.73965454101562 98.84676361083984 89.05033111572266 100.7788314819336 86.19052124023438 C 102.7290649414062 83.30378723144531 104.404052734375 80.21791839599609 105.7572326660156 77.01861572265625 C 108.5725326538086 70.36251831054688 110 63.29083251953125 110 56 C 110 48.70916748046875 108.5725326538086 41.63748168945312 105.7572326660156 34.98138427734375 C 104.404052734375 31.78208160400391 102.7290649414062 28.69622039794922 100.7788314819336 25.80948638916016 C 98.84676361083984 22.94966888427734 96.62786865234375 20.26035308837891 94.18376922607422 17.81623077392578 C 91.73965454101562 15.37213134765625 89.05033111572266 13.15323638916016 86.19052124023438 11.22116851806641 C 83.30378723144531 9.27093505859375 80.21791839599609 7.595947265625 77.01861572265625 6.242767333984375 C 70.36251831054688 3.427467346191406 63.29083251953125 2 56 2 M 56 0 C 86.92793273925781 0 112 25.07206726074219 112 56 C 112 86.92793273925781 86.92793273925781 112 56 112 C 25.07206726074219 112 0 86.92793273925781 0 56 C 0 25.07206726074219 25.07206726074219 0 56 0 Z" stroke="none" fill="#1cd8c0"/>
    </g>
    <g id="Earth" transform="translate(226.907 182.964)">
      <g id="Group_18363" data-name="Group 18363">
        <line id="Line_15647" data-name="Line 15647" y1="25.95" transform="translate(37.992 6.862)" fill="none" stroke="#1cd8c0" stroke-linecap="round" stroke-miterlimit="10" stroke-width="2"/>
        <path id="Path_22484-2" data-name="Path 22484" d="M217.229,130A5.229,5.229,0,0,0,212,135.229v52.286h37.907V170.522" transform="translate(-212 -130)" fill="none" stroke="#1cd8c0" stroke-linecap="round" stroke-linejoin="round" stroke-miterlimit="10" stroke-width="2"/>
        <path id="Path_22485" data-name="Path 22485" d="M221.229,135.229v1.307h35.293v-1.307A5.229,5.229,0,0,0,251.293,130H216A5.229,5.229,0,0,1,221.229,135.229Z" transform="translate(-210.771 -130)" fill="none" stroke="#1cd8c0" stroke-linecap="round" stroke-linejoin="round" stroke-miterlimit="10" stroke-width="2"/>
        <line id="Line_15648" data-name="Line 15648" x1="19.463" transform="translate(12.042 16.593)" fill="none" stroke="#1cd8c0" stroke-linecap="round" stroke-linejoin="round" stroke-width="2"/>
        <line id="Line_15649" data-name="Line 15649" x1="19.463" transform="translate(12.042 23.892)" fill="none" stroke="#1cd8c0" stroke-linecap="round" stroke-linejoin="round" stroke-width="2"/>
        <line id="Line_15650" data-name="Line 15650" x1="19.463" transform="translate(12.042 30.379)" fill="none" stroke="#1cd8c0" stroke-linecap="round" stroke-linejoin="round" stroke-width="2"/>
        <line id="Line_15651" data-name="Line 15651" x2="1.622" transform="translate(7.177 16.593)" fill="none" stroke="#1cd8c0" stroke-linecap="round" stroke-linejoin="round" stroke-width="2"/>
        <line id="Line_15652" data-name="Line 15652" x2="1.622" transform="translate(7.177 23.892)" fill="none" stroke="#1cd8c0" stroke-linecap="round" stroke-linejoin="round" stroke-width="2"/>
        <line id="Line_15653" data-name="Line 15653" x2="1.622" transform="translate(7.177 30.379)" fill="none" stroke="#1cd8c0" stroke-linecap="round" stroke-linejoin="round" stroke-width="2"/>
        <path id="Path_22486" data-name="Path 22486" d="M236.229,173.757,231,175.065l1.307-5.229L257.143,145l3.921,3.921Z" transform="translate(-206.164 -125.393)" fill="none" stroke="#1cd8c0" stroke-linecap="round" stroke-linejoin="round" stroke-miterlimit="10" stroke-width="2"/>
        <path id="Path_22487" data-name="Path 22487" d="M226.15,164.921v-2.614h-2.614L222.229,161l-1.307,1.307h-2.614v2.614L217,166.229l1.307,1.307v2.614h2.614l1.307,1.307,1.307-1.307h2.614v-2.614l1.307-1.307Z" transform="translate(-210.464 -120.478)" fill="none" stroke="#1cd8c0" stroke-linecap="round" stroke-linejoin="round" stroke-miterlimit="10" stroke-width="2"/>
      </g>
    </g>
  </g>
</svg>
