<svg xmlns="http://www.w3.org/2000/svg" width="112" height="112" viewBox="0 0 112 112">
  <g id="Group_14661" data-name="Group 14661" transform="translate(-550.091 -3156.987)">
    <g id="Ellipse_2357" data-name="Ellipse 2357" transform="translate(550.091 3156.987)" fill="none" stroke="#1cd8c0" stroke-width="2">
      <circle cx="56" cy="56" r="56" stroke="none"/>
      <circle cx="56" cy="56" r="55" fill="none"/>
    </g>
    <g id="Group_14660" data-name="Group 14660" transform="translate(-79.877 -60.822)">
      <g id="Award" transform="translate(666.09 3235.712)">
        <path id="Path_12439" data-name="Path 12439" d="M806.849,1091.233l6.326,12.782,13.55,1.5-9.641,10.219,2.048,12.715-12.285-5.5-12.285,5.441,2.048-12.642-9.641-10.233,13.55-1.5Z" transform="translate(-786.971 -1091.233)" fill="none" stroke="#1cd8c0" stroke-linecap="round" stroke-linejoin="round" stroke-width="2"/>
        <line id="Line_10694" data-name="Line 10694" y1="14.004" transform="translate(15.082 37.703)" fill="none" stroke="#1cd8c0" stroke-linecap="round" stroke-linejoin="round" stroke-width="2"/>
        <line id="Line_10695" data-name="Line 10695" y2="14.004" transform="translate(24.777 37.703)" fill="none" stroke="#1cd8c0" stroke-linecap="round" stroke-linejoin="round" stroke-width="2"/>
        <path id="Path_12440" data-name="Path 12440" d="M806.848,1122.233h9.939v6.625h1.656a3.312,3.312,0,0,1,3.313,3.313v6.626h1.657a3.312,3.312,0,0,1,3.313,3.313v4.969H786.971v-4.969a3.313,3.313,0,0,1,3.313-3.313h1.656v-6.626a3.313,3.313,0,0,1,3.313-3.313h1.656v-6.625h9.938" transform="translate(-786.971 -1070.884)" fill="none" stroke="#1cd8c0" stroke-linecap="round" stroke-linejoin="round" stroke-width="2"/>
        <line id="Line_10696" data-name="Line 10696" x2="9.695" transform="translate(5.387 67.866)" fill="none" stroke="#1cd8c0" stroke-linecap="round" stroke-linejoin="round" stroke-width="2"/>
        <line id="Line_10697" data-name="Line 10697" x2="9.695" transform="translate(24.777 67.866)" fill="none" stroke="#1cd8c0" stroke-linecap="round" stroke-linejoin="round" stroke-width="2"/>
      </g>
    </g>
  </g>
</svg>
