<svg xmlns="http://www.w3.org/2000/svg" width="82" height="82" viewBox="0 0 82 82">
  <g id="Icon-Home-TopLeftYellow" transform="translate(25.502 -815)">
    <g id="CIRCLE" transform="translate(-24.502 816)">
      <g id="Group_756" data-name="Group 756">
        <path id="Path_306" data-name="Path 306" d="M40,0A40,40,0,1,1,0,40,40,40,0,0,1,40,0Z" fill="none" stroke="#ffbf27" stroke-width="2"/>
      </g>
    </g>
    <g id="Group_6654" data-name="Group 6654" transform="translate(-2223.565 -2162.776)">
      <line id="Line_14880" data-name="Line 14880" y2="3" transform="translate(2239.225 3003.145)" fill="none" stroke="#ffbf27" stroke-linecap="round" stroke-linejoin="round" stroke-width="2"/>
      <line id="Line_14881" data-name="Line 14881" x2="1.312" y2="2.273" transform="translate(2231.351 3005.508)" fill="none" stroke="#ffbf27" stroke-linecap="round" stroke-linejoin="round" stroke-width="2"/>
      <line id="Line_14882" data-name="Line 14882" x2="2.273" y2="1.312" transform="translate(2225.587 3011.272)" fill="none" stroke="#ffbf27" stroke-linecap="round" stroke-linejoin="round" stroke-width="2"/>
      <line id="Line_14883" data-name="Line 14883" y1="1.312" x2="2.273" transform="translate(2225.587 3025.708)" fill="none" stroke="#ffbf27" stroke-linecap="round" stroke-linejoin="round" stroke-width="2"/>
      <line id="Line_14884" data-name="Line 14884" y1="2.273" x2="1.312" transform="translate(2231.351 3030.511)" fill="none" stroke="#ffbf27" stroke-linecap="round" stroke-linejoin="round" stroke-width="2"/>
      <line id="Line_14885" data-name="Line 14885" y1="3" transform="translate(2239.225 3032.145)" fill="none" stroke="#ffbf27" stroke-linecap="round" stroke-linejoin="round" stroke-width="2"/>
      <line id="Line_14886" data-name="Line 14886" x1="1.312" y1="2.273" transform="translate(2245.787 3030.511)" fill="none" stroke="#ffbf27" stroke-linecap="round" stroke-linejoin="round" stroke-width="2"/>
      <line id="Line_14887" data-name="Line 14887" x1="2.273" y1="1.312" transform="translate(2250.591 3025.708)" fill="none" stroke="#ffbf27" stroke-linecap="round" stroke-linejoin="round" stroke-width="2"/>
      <line id="Line_14888" data-name="Line 14888" x1="2.273" y2="1.312" transform="translate(2250.591 3011.272)" fill="none" stroke="#ffbf27" stroke-linecap="round" stroke-linejoin="round" stroke-width="2"/>
      <line id="Line_14889" data-name="Line 14889" x1="1.312" y2="2.273" transform="translate(2245.787 3005.508)" fill="none" stroke="#ffbf27" stroke-linecap="round" stroke-linejoin="round" stroke-width="2"/>
      <path id="Path_17968" data-name="Path 17968" d="M2228.354,3010.524l5.25,5.25,7.874-7.874" transform="translate(5.622 4.685)" fill="none" stroke="#ffbf27" stroke-linecap="round" stroke-linejoin="round" stroke-width="2"/>
      <path id="Path_17969" data-name="Path 17969" d="M2252.613,2996.566a26.252,26.252,0,0,0-39.634,22.58v1.312h-2.625l6.562,9.187,5.25-9.187h-2.625v-1.312a19.687,19.687,0,0,1,36.34-10.5" fill="none" stroke="#ffbf27" stroke-linecap="round" stroke-linejoin="round" stroke-width="2"/>
      <path id="Path_17970" data-name="Path 17970" d="M2220.9,3036.643a26.249,26.249,0,0,0,41.662-21.246v-1.312h2.625l-6.562-9.187-5.249,9.187H2256v1.312a19.687,19.687,0,0,1-36.34,10.5" transform="translate(2.907 3.748)" fill="none" stroke="#ffbf27" stroke-linecap="round" stroke-linejoin="round" stroke-width="2"/>
    </g>
  </g>
</svg>
