<svg xmlns="http://www.w3.org/2000/svg" width="66.826" height="74.188" viewBox="0 0 66.826 74.188">
  <g id="Group_7346" data-name="Group 7346" transform="translate(-856.982 -1229.646)">
    <path id="Path_13619" data-name="Path 13619" d="M5.679,26.122V13.629H1.136L0,12.493,10.222,0,20.444,12.493l-1.136,1.136H14.765V36.344" transform="translate(883.182 1231.059) rotate(43)" fill="none" stroke="#000" stroke-linecap="round" stroke-linejoin="round" stroke-width="2"/>
    <path id="Path_13620" data-name="Path 13620" d="M5.679,19.308V13.629H1.136L0,12.493,10.222,0,20.444,12.493l-1.136,1.136H14.765V24.987" transform="translate(903.444 1235.978) rotate(43)" fill="none" stroke="#000" stroke-linecap="round" stroke-linejoin="round" stroke-width="2"/>
    <path id="Path_13621" data-name="Path 13621" d="M0,7.95,6.815,0,17.036,12.493,15.9,13.629H11.358l1.027,28.706" transform="translate(888.782 1253.364) rotate(43)" fill="none" stroke="#000" stroke-linecap="round" stroke-linejoin="round" stroke-width="2"/>
    <path id="Path_18798" data-name="Path 18798" d="M868.791,1280.252l11.615-12.832-3.07-2.715" transform="translate(1 -1.636)" fill="none" stroke="#000" stroke-linecap="round" stroke-linejoin="round" stroke-width="2"/>
    <path id="Path_18799" data-name="Path 18799" d="M6.439,40.9l-.76-27.27H1.136L0,12.493,10.222,0,20.444,12.493l-1.136,1.136H14.765l.7,18.852" transform="translate(907.443 1258.545) rotate(43)" fill="none" stroke="#000" stroke-linecap="round" stroke-linejoin="round" stroke-width="2"/>
  </g>
</svg>
