<svg xmlns="http://www.w3.org/2000/svg" width="82" height="82" viewBox="0 0 82 82">
  <g id="Icon-Home-TopLeftYellow" transform="translate(25.502 -815)">
    <g id="CIRCLE" transform="translate(-24.502 816)">
      <g id="Group_756" data-name="Group 756">
        <path id="Path_306" data-name="Path 306" d="M40,0A40,40,0,1,1,0,40,40,40,0,0,1,40,0Z" fill="none" stroke="#1cd8c0" stroke-width="2"/>
      </g>
    </g>
    <g id="Group_5893" data-name="Group 5893" transform="translate(-2765.255 -1558.306)">
      <path id="Path_15510" data-name="Path 15510" d="M2784.89,2413.159l-4.38-4h-3.2a18.915,18.915,0,0,1-3.765,2.031,4.966,4.966,0,0,1-5.424-1.336c1.76-1.862,3.517-3.64,3.517-3.64l3.4-3.445a2.475,2.475,0,0,1,1.95-.643h5.861c1.172,0,3.543-.222,4.732-1.41l.785-.785" transform="translate(2.589 0.822)" fill="none" stroke="#1cd8c0" stroke-linecap="round" stroke-linejoin="round" stroke-width="2"/>
      <path id="Path_15511" data-name="Path 15511" d="M2789.055,2419.438c5.447-5,3.07-6.192,5.447-8.568l1.379-1.38" transform="translate(6.371 2.55)" fill="none" stroke="#1cd8c0" stroke-linecap="round" stroke-linejoin="round" stroke-width="2"/>
      <path id="Path_15512" data-name="Path 15512" d="M2782.753,2411.134s6.166,6.47,7.947,8.006-.669,5.621-3.54,3.37c-1.711-1.463-7.209-6.73-7.209-6.73" transform="translate(4.726 2.847)" fill="none" stroke="#1cd8c0" stroke-linecap="round" stroke-linejoin="round" stroke-width="2"/>
      <path id="Path_15513" data-name="Path 15513" d="M2788.374,2421.59c-.525,1.244-2.641,4.167-5.338,2.126-1.71-1.46-5.266-4.827-5.266-4.827" transform="translate(4.332 4.248)" fill="none" stroke="#1cd8c0" stroke-linecap="round" stroke-linejoin="round" stroke-width="2"/>
      <path id="Path_15514" data-name="Path 15514" d="M2784.436,2423.659c-1.224,2.471-3.371,3.469-5.318,1.935-1.363-1.072-3.436-3.191-3.436-3.191" transform="translate(3.955 4.883)" fill="none" stroke="#1cd8c0" stroke-linecap="round" stroke-linejoin="round" stroke-width="2"/>
      <path id="Path_15515" data-name="Path 15515" d="M2780.235,2425.448c-.737,1.831-2.847,3.017-4.556,1.952-.987-.615-2.645-1.8-2.645-1.8" transform="translate(3.476 5.433)" fill="none" stroke="#1cd8c0" stroke-linecap="round" stroke-linejoin="round" stroke-width="2"/>
      <path id="Path_15516" data-name="Path 15516" d="M2768.007,2400.019c2.532,2.531,3.558,1.485,5.935,3.862" transform="translate(2.568 0.839)" fill="none" stroke="#1cd8c0" stroke-linecap="round" stroke-linejoin="round" stroke-width="2"/>
      <path id="Path_15517" data-name="Path 15517" d="M2762.18,2417.774c-3.027-3.027.056-4.854-3.509-8.419" transform="translate(0.881 2.525)" fill="none" stroke="#1cd8c0" stroke-linecap="round" stroke-linejoin="round" stroke-width="2"/>
      <path id="Path_15518" data-name="Path 15518" d="M2764.417,2417.016l-.012-.013a2.147,2.147,0,0,0-3.042-.051l-1.215,1.164a2.162,2.162,0,1,0,3.015,3.1l1.2-1.151A2.166,2.166,0,0,0,2764.417,2417.016Z" transform="translate(1.029 3.788)" fill="none" stroke="#1cd8c0" stroke-linecap="round" stroke-linejoin="round" stroke-width="2"/>
      <path id="Path_15519" data-name="Path 15519" d="M2769.054,2417.932l-.013-.013a2.147,2.147,0,0,0-3.042-.051l-3.532,3.447a2.162,2.162,0,0,0,3.015,3.1l3.52-3.436A2.165,2.165,0,0,0,2769.054,2417.932Z" transform="translate(1.448 3.954)" fill="none" stroke="#1cd8c0" stroke-linecap="round" stroke-linejoin="round" stroke-width="2"/>
      <path id="Path_15520" data-name="Path 15520" d="M2771.815,2420.326l-.012-.012a2.15,2.15,0,0,0-3.042-.075l-3.239,3.166a2.162,2.162,0,0,0,2.99,3.124l3.227-3.154A2.167,2.167,0,0,0,2771.815,2420.326Z" transform="translate(1.998 4.385)" fill="none" stroke="#1cd8c0" stroke-linecap="round" stroke-linejoin="round" stroke-width="2"/>
      <path id="Path_15521" data-name="Path 15521" d="M2773.228,2423.669l-.013-.012a2.148,2.148,0,0,0-3.042-.034l-.832.806a2.163,2.163,0,0,0,3.034,3.083l.819-.795A2.166,2.166,0,0,0,2773.228,2423.669Z" transform="translate(2.692 4.992)" fill="none" stroke="#1cd8c0" stroke-linecap="round" stroke-linejoin="round" stroke-width="2"/>
      <path id="Path_15522" data-name="Path 15522" d="M2787.386,2412.219c-2.828.581-3.548-.139-5.062-1.085" transform="translate(5.155 2.847)" fill="none" stroke="#1cd8c0" stroke-linecap="round" stroke-linejoin="round" stroke-width="2"/>
      <rect id="Rectangle_1661" data-name="Rectangle 1661" width="6.087" height="19.308" transform="translate(2767.447 2395.377) rotate(45)" fill="none" stroke="#1cd8c0" stroke-linecap="round" stroke-linejoin="round" stroke-width="2"/>
      <rect id="Rectangle_1662" data-name="Rectangle 1662" width="6.087" height="18.921" transform="matrix(-0.707, 0.707, -0.707, -0.707, 2807.714, 2408.893)" fill="none" stroke="#1cd8c0" stroke-linecap="round" stroke-linejoin="round" stroke-width="2"/>
    </g>
  </g>
</svg>
