<svg xmlns="http://www.w3.org/2000/svg" xmlns:xlink="http://www.w3.org/1999/xlink" width="120" height="120" viewBox="0 0 120 120">
  <defs>
    <clipPath id="clip-path">
      <rect id="Rectangle_3517" data-name="Rectangle 3517" width="112" height="112" fill="#fff"/>
    </clipPath>
    <clipPath id="clip-path-2">
      <rect id="Rectangle_3519" data-name="Rectangle 3519" width="120" height="120" transform="translate(522.53 3273.862)" fill="#fff"/>
    </clipPath>
  </defs>
  <g id="Group_18366" data-name="Group 18366" transform="translate(-194.357 -151.722)">
    <g id="Path_22484" data-name="Path 22484" transform="translate(198.357 155.722)" fill="none">
      <path d="M56,0A56,56,0,1,1,0,56,56,56,0,0,1,56,0Z" stroke="none"/>
      <path d="M 56 2 C 48.70916748046875 2 41.63748168945312 3.427467346191406 34.98138427734375 6.242767333984375 C 31.78208160400391 7.595947265625 28.69622039794922 9.27093505859375 25.80948638916016 11.22116851806641 C 22.94966888427734 13.15323638916016 20.26035308837891 15.37213134765625 17.81623077392578 17.81623077392578 C 15.37213134765625 20.26035308837891 13.15323638916016 22.94966888427734 11.22116851806641 25.80948638916016 C 9.27093505859375 28.69622039794922 7.595947265625 31.78208160400391 6.242767333984375 34.98138427734375 C 3.427467346191406 41.63748168945312 2 48.70916748046875 2 56 C 2 63.29083251953125 3.427467346191406 70.36251831054688 6.242767333984375 77.01861572265625 C 7.595947265625 80.21791839599609 9.27093505859375 83.30378723144531 11.22116851806641 86.19052124023438 C 13.15323638916016 89.05033111572266 15.37213134765625 91.73965454101562 17.81623077392578 94.18376922607422 C 20.26035308837891 96.62786865234375 22.94966888427734 98.84676361083984 25.80948638916016 100.7788314819336 C 28.69622039794922 102.7290649414062 31.78208160400391 104.404052734375 34.98138427734375 105.7572326660156 C 41.63748168945312 108.5725326538086 48.70916748046875 110 56 110 C 63.29083251953125 110 70.36251831054688 108.5725326538086 77.01861572265625 105.7572326660156 C 80.21791839599609 104.404052734375 83.30378723144531 102.7290649414062 86.19052124023438 100.7788314819336 C 89.05033111572266 98.84676361083984 91.73965454101562 96.62786865234375 94.18376922607422 94.18376922607422 C 96.62786865234375 91.73965454101562 98.84676361083984 89.05033111572266 100.7788314819336 86.19052124023438 C 102.7290649414062 83.30378723144531 104.404052734375 80.21791839599609 105.7572326660156 77.01861572265625 C 108.5725326538086 70.36251831054688 110 63.29083251953125 110 56 C 110 48.70916748046875 108.5725326538086 41.63748168945312 105.7572326660156 34.98138427734375 C 104.404052734375 31.78208160400391 102.7290649414062 28.69622039794922 100.7788314819336 25.80948638916016 C 98.84676361083984 22.94966888427734 96.62786865234375 20.26035308837891 94.18376922607422 17.81623077392578 C 91.73965454101562 15.37213134765625 89.05033111572266 13.15323638916016 86.19052124023438 11.22116851806641 C 83.30378723144531 9.27093505859375 80.21791839599609 7.595947265625 77.01861572265625 6.242767333984375 C 70.36251831054688 3.427467346191406 63.29083251953125 2 56 2 M 56 0 C 86.92793273925781 0 112 25.07206726074219 112 56 C 112 86.92793273925781 86.92793273925781 112 56 112 C 25.07206726074219 112 0 86.92793273925781 0 56 C 0 25.07206726074219 25.07206726074219 0 56 0 Z" stroke="none" fill="#1cd8c0"/>
    </g>
    <g id="Mask_Group_72" data-name="Mask Group 72" transform="translate(-328.173 -3122.14)" clip-path="url(#clip-path-2)">
      <g id="Earth" transform="translate(553.756 3307.173)">
        <g id="Group_18368" data-name="Group 18368" transform="translate(0 0)">
          <path id="Path_22488" data-name="Path 22488" d="M3152.436,874.439h-14.387V828H3195.6v46.439H3181.21" transform="translate(-3138.049 -828)" fill="none" stroke="#1cd8c0" stroke-linecap="round" stroke-linejoin="round" stroke-width="2"/>
          <line id="Line_15654" data-name="Line 15654" x2="57.547" transform="translate(0 7.463)" fill="none" stroke="#1cd8c0" stroke-linecap="round" stroke-linejoin="round" stroke-width="2"/>
          <line id="Line_15655" data-name="Line 15655" x2="2.539" transform="translate(4.232 4.078)" fill="none" stroke="#1cd8c0" stroke-linecap="round" stroke-linejoin="round" stroke-width="2"/>
          <line id="Line_15656" data-name="Line 15656" x2="2.539" transform="translate(9.309 4.078)" fill="none" stroke="#1cd8c0" stroke-linecap="round" stroke-linejoin="round" stroke-width="2"/>
          <line id="Line_15657" data-name="Line 15657" x2="2.539" transform="translate(14.387 4.078)" fill="none" stroke="#1cd8c0" stroke-linecap="round" stroke-linejoin="round" stroke-width="2"/>
          <rect id="Rectangle_3518" data-name="Rectangle 3518" width="20.311" height="16.926" rx="1" transform="translate(18.618 39.904)" fill="none" stroke="#1cd8c0" stroke-linecap="round" stroke-linejoin="round" stroke-width="2"/>
          <path id="Path_22489" data-name="Path 22489" d="M3155.049,847.54a6.54,6.54,0,0,1,13.079,0v6.539h-13.079Z" transform="translate(-3132.815 -814.406)" fill="none" stroke="#1cd8c0" stroke-linecap="round" stroke-linejoin="round" stroke-width="2"/>
        </g>
      </g>
    </g>
  </g>
</svg>
