<svg xmlns="http://www.w3.org/2000/svg" width="82" height="82" viewBox="0 0 82 82">
  <g id="Icon-Home-TopLeftYellow" transform="translate(25.502 -815)">
    <g id="CIRCLE" transform="translate(-24.502 816)">
      <g id="Group_756" data-name="Group 756">
        <path id="Path_306" data-name="Path 306" d="M40,0A40,40,0,1,1,0,40,40,40,0,0,1,40,0Z" fill="none" stroke="#5949a7" stroke-width="2"/>
      </g>
    </g>
    <g id="Group_6093" data-name="Group 6093" transform="translate(-4114.873 -1804.67)">
      <line id="Line_13668" data-name="Line 13668" x2="0.677" y2="2.527" transform="translate(4125.146 2637.781)" fill="none" stroke="#5949a7" stroke-linecap="round" stroke-linejoin="round" stroke-width="2"/>
      <line id="Line_13669" data-name="Line 13669" x2="1.85" y2="1.85" transform="translate(4116.509 2642.895)" fill="none" stroke="#5949a7" stroke-linecap="round" stroke-linejoin="round" stroke-width="2"/>
      <line id="Line_13670" data-name="Line 13670" x2="2.527" y2="0.677" transform="translate(4111.586 2651.642)" fill="none" stroke="#5949a7" stroke-linecap="round" stroke-linejoin="round" stroke-width="2"/>
      <line id="Line_13671" data-name="Line 13671" y1="0.677" x2="2.527" transform="translate(4111.696 2661.002)" fill="none" stroke="#5949a7" stroke-linecap="round" stroke-linejoin="round" stroke-width="2"/>
      <line id="Line_13672" data-name="Line 13672" y1="1.85" x2="1.85" transform="translate(4116.81 2668.467)" fill="none" stroke="#5949a7" stroke-linecap="round" stroke-linejoin="round" stroke-width="2"/>
      <line id="Line_13673" data-name="Line 13673" x1="1.85" y1="1.85" transform="translate(4142.382 2668.165)" fill="none" stroke="#5949a7" stroke-linecap="round" stroke-linejoin="round" stroke-width="2"/>
      <line id="Line_13674" data-name="Line 13674" x1="2.527" y1="0.677" transform="translate(4146.628 2660.591)" fill="none" stroke="#5949a7" stroke-linecap="round" stroke-linejoin="round" stroke-width="2"/>
      <line id="Line_13675" data-name="Line 13675" x1="2.527" y2="0.677" transform="translate(4146.518 2651.23)" fill="none" stroke="#5949a7" stroke-linecap="round" stroke-linejoin="round" stroke-width="2"/>
      <line id="Line_13676" data-name="Line 13676" x1="1.85" y2="1.85" transform="translate(4142.081 2642.593)" fill="none" stroke="#5949a7" stroke-linecap="round" stroke-linejoin="round" stroke-width="2"/>
      <line id="Line_13677" data-name="Line 13677" x1="0.677" y2="2.527" transform="translate(4134.506 2637.67)" fill="none" stroke="#5949a7" stroke-linecap="round" stroke-linejoin="round" stroke-width="2"/>
      <path id="Path_16422" data-name="Path 16422" d="M4128.575,2663.564c-2.992-.692-4.746-3.956-4.46-5.833.766-5.022,5.629-6.045,7.378-9.832,3.382,1.834,5.874,5.953,4.846,10.155-.693,2.829-4.162,4.285-5.579,4.749" fill="none" stroke="#5949a7" stroke-linecap="round" stroke-linejoin="round" stroke-width="2"/>
      <path id="Path_16423" data-name="Path 16423" d="M4129.707,2667.67c-2.756-5.707.036-10.6,1.492-14.693" fill="none" stroke="#5949a7" stroke-linecap="round" stroke-linejoin="round" stroke-width="2"/>
      <path id="Path_16424" data-name="Path 16424" d="M4135.084,2681.67h-2l-2,2h-2l-2-2h-2" fill="none" stroke="#5949a7" stroke-linecap="round" stroke-linejoin="round" stroke-width="2"/>
      <line id="Line_13678" data-name="Line 13678" x2="14" transform="translate(4123.084 2674.67)" fill="none" stroke="#5949a7" stroke-linecap="round" stroke-linejoin="round" stroke-width="2"/>
      <line id="Line_13679" data-name="Line 13679" x2="14" transform="translate(4123.084 2678.67)" fill="none" stroke="#5949a7" stroke-linecap="round" stroke-linejoin="round" stroke-width="2"/>
      <path id="Path_16425" data-name="Path 16425" d="M4136.085,2672.67v-2a8.231,8.231,0,0,1,2.4-5.732,13.462,13.462,0,0,0,3.6-9.268,12,12,0,0,0-24,0,13.463,13.463,0,0,0,3.6,9.268,8.228,8.228,0,0,1,2.4,5.732v2" fill="none" stroke="#5949a7" stroke-linecap="round" stroke-linejoin="round" stroke-width="2"/>
    </g>
  </g>
</svg>
