<?xml version="1.0" encoding="utf-8"?>
<!-- Generator: Adobe Illustrator 23.0.3, SVG Export Plug-In . SVG Version: 6.00 Build 0)  -->
<svg version="1.0" id="圖層_1" xmlns="http://www.w3.org/2000/svg" xmlns:xlink="http://www.w3.org/1999/xlink" x="0px" y="0px"
	 viewBox="0 0 79 58" enable-background="new 0 0 79 58" xml:space="preserve">
<path fill="#FFFFFF" d="M56.7,33.5c-0.9,7.6-6.4,12.8-10.9,14.1c-0.3,0.1-0.5,0.5-0.3,0.8l2.4,5.1c0.1,0.2,0.3,0.3,0.6,0.3
	c14-2.6,30-18.1,25.8-38c0-0.1-0.1-0.3-0.1-0.4c0-0.1,0-0.1,0-0.2l0,0C72.6,8.5,66.5,3.6,59.1,3.6c-8.6,0-15.5,6.7-15.5,15
	C43.6,26.1,49.3,32.4,56.7,33.5z"/>
<path fill="#FFFFFF" d="M16.8,33.5c-0.9,7.6-6.4,12.8-10.9,14.1c-0.3,0.1-0.5,0.5-0.3,0.8L8,53.5c0.1,0.2,0.3,0.3,0.6,0.3
	c14-2.6,30-18.1,25.8-38c0-0.1-0.1-0.3-0.1-0.4c0-0.1,0-0.1,0-0.2l0,0C32.7,8.5,26.6,3.6,19.2,3.6c-8.6,0-15.5,6.7-15.5,15
	C3.6,26.1,9.3,32.4,16.8,33.5z"/>
</svg>
