<?xml version="1.0" encoding="utf-8"?>
<!-- Generator: Adobe Illustrator 25.0.1, SVG Export Plug-In . SVG Version: 6.00 Build 0)  -->
<svg version="1.1" id="Layer_1" xmlns="http://www.w3.org/2000/svg" xmlns:xlink="http://www.w3.org/1999/xlink" x="0px" y="0px"
	 viewBox="0 0 120 120" style="enable-background:new 0 0 120 120;" xml:space="preserve">
<style type="text/css">
	.st0{opacity:0;fill:#FFFFFF;}
	.st1{fill:none;stroke:#1E9BD7;stroke-width:1.9833;stroke-linecap:round;stroke-linejoin:round;}
	.st2{fill:none;stroke:#1E9BD7;stroke-width:1.9667;stroke-linecap:round;stroke-linejoin:round;}
</style>
<rect class="st0" width="120" height="120"/>
<g transform="translate(1 1)">
	<path class="st1" d="M6.3,34.8l18.4,18.4l6.1,0.3l8.7,5.8V68l6.2,6.2l-2.6,27.2l2.6,2.6l8.7-8.8l21-21L60.5,59.2l-21.1-5.7L30.8,47
		l8.7,0l0-8.6l8.7-8.7l12.5-0.1L45.6,14.7l-2.6,2.6h-4L31,8"/>
	<path class="st1" d="M108.9,88.5l-9.2-9.2v-21l-12.5-0.1l-8.5-8.5V37.3h8.6v-8.7l12.3-12.3"/>
	<path class="st2" d="M118,59c0,32.6-26.4,59-59,59S0,91.6,0,59S26.4,0,59,0S118,26.4,118,59L118,59z"/>
	<path class="st1" d="M80.5,16.2v3.7l5.1,5.1v-8.7H80.5z"/>
	<path class="st1" d="M59.5,0.8v9.5l4.7,4.7L75.9,3.2"/>
</g>
</svg>
