<?xml version="1.0" encoding="utf-8"?>
<!-- Generator: Adobe Illustrator 27.4.1, SVG Export Plug-In . SVG Version: 6.00 Build 0)  -->
<svg version="1.1" id="圖層_1" xmlns="http://www.w3.org/2000/svg" xmlns:xlink="http://www.w3.org/1999/xlink" x="0px" y="0px"
	 viewBox="0 0 444 140" style="enable-background:new 0 0 444 140;" xml:space="preserve">
<style type="text/css">
	.st0{fill:#8C8C8C;}
	.st1{fill:#1E9BD7;}
	.st2{fill:#1CD8C0;}
	.st3{fill:#FFBF27;}
</style>
<g>
	<g>
		<path class="st0" d="M245.4,15.8l7.3-14.9h2.3l-8.4,17.1v7.6h-2.2v-7.6l-8.4-17.1h2.3L245.4,15.8z"/>
		<path class="st0" d="M262.5,0.9h13.9v2h-11.7V12h10.9v2h-10.9v9.6h11.7v2h-13.9V0.9z"/>
		<path class="st0" d="M300,19h-11.5l-2.3,6.5h-2.1l8.6-24.7h3.2l8.6,24.7h-2.1L300,19z M289.2,17.2h10.1l-5.1-15L289.2,17.2z"/>
		<path class="st0" d="M322.1,16h-0.5H315v9.5h-2.2V0.9h8.7c5,0,6.8,2.3,6.8,5.7v3.8c0,2.7-1.1,4.7-4,5.4l6.6,9.8h-2.5L322.1,16z
			 M321.6,2.8H315v11.3h6.6c3.1,0,4.6-1,4.6-3.7V6.6C326.2,3.9,324.7,2.8,321.6,2.8z"/>
		<path class="st0" d="M345.9,25.9c-2.1,0-4.9-0.4-7-1.2l0.4-1.8c2.2,0.7,4.5,1,6.6,1c4.2,0,5.4-1.3,5.4-4.4c0-3.8,0-4.2-5.5-5.5
			c-6-1.4-6.6-2.4-6.6-7.4c0-4,1.5-6.1,7.7-6.1c2.1,0,4.7,0.4,6.4,0.9l-0.3,1.9c-1.8-0.4-4.1-0.7-6-0.7c-4.9,0-5.6,1.2-5.6,4.3
			c0,4,0.1,4.2,5.3,5.5c6.5,1.6,6.8,2.6,6.8,7.2C353.5,23.5,352.1,25.9,345.9,25.9z"/>
		<path class="st0" d="M383.2,25.9c-6.3,0-8.6-3.1-8.6-7.3V7.8c0-4.2,2.3-7.3,8.6-7.3s8.6,3.1,8.6,7.3v10.7
			C391.8,22.8,389.5,25.9,383.2,25.9z M389.7,18.5V7.9c0-3.5-1.7-5.4-6.4-5.4s-6.4,1.9-6.4,5.4v10.6c0,3.5,1.7,5.4,6.4,5.4
			S389.7,22,389.7,18.5z"/>
		<path class="st0" d="M401.6,25.5V0.9h14v2h-11.8v9.5h11v2h-11v11.2H401.6z"/>
		<path class="st1" d="M258.2,63.2h-5.8l-1.3-4.8h-8.3l-1.3,4.8h-5.8l7.5-24.7h7.4L258.2,63.2z M244.1,53.8h5.7L247,43.4L244.1,53.8
			z"/>
		<path class="st1" d="M270.1,49.5l-0.4,13.7h-5.4l1-24.7h5.6l5.9,15.7l5.9-15.7h5.6l1,24.7H284l-0.4-13.7L279.3,60h-5L270.1,49.5z"
			/>
		<path class="st1" d="M297.5,63.2V38.6H313v4.9h-10V48h9.2v4.9h-9.2v5.4h10v4.9H297.5z"/>
		<path class="st1" d="M329.8,55.6h-3.3v7.7H321V38.6h10.3c6,0,8.2,2.4,8.2,7v3c0,3.1-1.1,5.1-3.6,6.2l6,8.4h-6.6L329.8,55.6z
			 M333.9,46.1c0-1.9-0.7-2.6-3-2.6h-4.4v7.3h4.4c2.4,0,3-0.9,3-2.7V46.1z"/>
		<path class="st1" d="M348.7,63.2V38.6h5.6v24.7H348.7z"/>
		<path class="st1" d="M367.9,55.1c0,2.1,0.7,3.4,3.4,3.4c1.8,0,4.2-0.2,6.4-0.6l0.8,4.8c-2.4,0.5-4.7,0.8-7.1,0.8
			c-6.2,0-9-3.1-9-7.6V45.7c0-4.5,2.8-7.6,9-7.6c2.5,0,4.7,0.3,7.1,0.8l-0.8,4.9c-2.1-0.4-4.6-0.6-6.4-0.6c-2.7,0-3.4,1.3-3.4,3.4
			V55.1z"/>
		<path class="st1" d="M406.7,63.2h-5.8l-1.3-4.8h-8.3l-1.3,4.8h-5.8l7.5-24.7h7.4L406.7,63.2z M392.6,53.8h5.7l-2.8-10.3
			L392.6,53.8z"/>
		<path class="st1" d="M418.5,47v16.2h-5.3V38.6h6.8l8.1,17v-17h5.3v24.7h-6.8L418.5,47z"/>
		<path class="st1" d="M238,100.9V76.3h5.6v24.7H238z"/>
		<path class="st1" d="M257.5,84.7v16.2h-5.3V76.3h6.8l8.1,17v-17h5.3v24.7h-6.9L257.5,84.7z"/>
		<path class="st1" d="M286,92.8c0,2.1,0.7,3.4,3.4,3.4c1.8,0,4.2-0.2,6.4-0.6l0.8,4.9c-2.4,0.5-4.7,0.8-7.1,0.8c-6.2,0-9-3.1-9-7.6
			V83.4c0-4.5,2.8-7.6,9-7.6c2.5,0,4.7,0.3,7.1,0.8l-0.8,4.9c-2.1-0.4-4.6-0.6-6.4-0.6c-2.7,0-3.4,1.3-3.4,3.4V92.8z"/>
		<path class="st1" d="M321.9,93.7c0,3.7-2.6,7.6-9.6,7.6c-7,0-9.6-3.8-9.6-7.6V83.4c0-3.7,2.6-7.6,9.6-7.6c7,0,9.6,3.8,9.6,7.6
			V93.7z M316.4,83.9c0-1.9-1.2-3.1-4-3.1s-4,1.2-4,3.1v9.3c0,1.9,1.2,3.1,4,3.1s4-1.2,4-3.1V83.9z"/>
		<path class="st1" d="M335.3,87.2l-0.4,13.7h-5.4l1-24.7h5.6L342,92l5.9-15.7h5.6l1,24.7h-5.4l-0.4-13.7l-4.3,10.5h-5L335.3,87.2z"
			/>
		<path class="st1" d="M362.7,100.9V76.3h15.5v4.9h-10v4.5h9.2v4.9h-9.2V96h10v4.9H362.7z"/>
		<path class="st1" d="M247.6,131.1h-4.2v7.5h-5.6v-24.7h10.1c6,0,8.2,2.4,8.2,7v3.2C256.1,128.8,253.6,131.1,247.6,131.1z
			 M250.5,121.5c0-1.8-0.6-2.6-3-2.6h-4.2v7.4h4.2c2.4,0,3-0.9,3-2.7V121.5z"/>
		<path class="st1" d="M281.7,131.4c0,3.7-2.6,7.6-9.6,7.6s-9.6-3.8-9.6-7.6v-10.3c0-3.7,2.6-7.6,9.6-7.6s9.6,3.8,9.6,7.6V131.4z
			 M276.1,121.6c0-1.9-1.2-3.1-4-3.1s-4,1.2-4,3.1v9.3c0,1.9,1.2,3.1,4,3.1s4-1.2,4-3.1V121.6z"/>
		<path class="st1" d="M298.4,130.9h-3.3v7.7h-5.6v-24.7h10.3c6,0,8.2,2.4,8.2,7v3c0,3.1-1.1,5.1-3.6,6.2l6,8.4h-6.6L298.4,130.9z
			 M302.5,121.5c0-1.9-0.7-2.6-3-2.6h-4.4v7.3h4.4c2.4,0,3-0.9,3-2.7V121.5z"/>
		<path class="st1" d="M326.4,118.9v19.7h-5.6v-19.7h-6.6v-4.9h18.8v4.9H326.4z"/>
		<path class="st1" d="M339.6,138.6v-24.7h15.7v4.9h-10.1v5.3h9.3v4.9h-9.3v9.6H339.6z"/>
		<path class="st1" d="M380.8,131.4c0,3.7-2.6,7.6-9.6,7.6c-7,0-9.6-3.8-9.6-7.6v-10.3c0-3.7,2.6-7.6,9.6-7.6c7,0,9.6,3.8,9.6,7.6
			V131.4z M375.3,121.6c0-1.9-1.2-3.1-4-3.1s-4,1.2-4,3.1v9.3c0,1.9,1.2,3.1,4,3.1s4-1.2,4-3.1V121.6z"/>
		<path class="st1" d="M388.8,138.6v-24.7h5.6v19.7h9.8v4.9H388.8z"/>
		<path class="st1" d="M411.2,138.6v-24.7h5.6v24.7H411.2z"/>
		<path class="st1" d="M444,131.4c0,3.7-2.6,7.6-9.6,7.6c-7,0-9.6-3.8-9.6-7.6v-10.3c0-3.7,2.6-7.6,9.6-7.6c7,0,9.6,3.8,9.6,7.6
			V131.4z M438.4,121.6c0-1.9-1.2-3.1-4-3.1s-4,1.2-4,3.1v9.3c0,1.9,1.2,3.1,4,3.1s4-1.2,4-3.1V121.6z"/>
	</g>
	<path class="st2" d="M46.6,0.2c12.9,0,24.5,5.2,32.9,13.6L46.6,46.7H0C0,21,20.9,0.2,46.6,0.2z"/>
	<g>
		<path class="st1" d="M138.5,93.2V46.7h-35.3v46.5c0,3.6,0.4,7.1,1.2,10.5c0.1,0.4,0.2,0.7,0.3,1.1c0.3,1.1,0.6,2.2,1,3.3
			c0.1,0.4,0.2,0.7,0.4,1.1c0.3,0.7,0.5,1.4,0.8,2.1c0.1,0.3,0.3,0.7,0.5,1c0,0,0,0,0,0c0.2,0.3,0.3,0.7,0.5,1c0,0,0,0,0,0
			c0.2,0.3,0.3,0.7,0.5,1c0.2,0.3,0.3,0.7,0.5,1c0.2,0.3,0.4,0.7,0.5,1c0.2,0.3,0.4,0.6,0.6,1c0.2,0.3,0.4,0.6,0.6,1
			c0.2,0.3,0.4,0.6,0.6,0.9c0.2,0.3,0.4,0.6,0.6,0.9c0.2,0.3,0.4,0.6,0.7,0.9c0.2,0.3,0.4,0.6,0.7,0.9c0,0,0,0,0,0
			c0.2,0.3,0.5,0.6,0.7,0.9c0.2,0.3,0.5,0.6,0.7,0.9c0.2,0.3,0.5,0.6,0.7,0.8s0.5,0.5,0.8,0.8c0.3,0.3,0.5,0.5,0.8,0.8l25-25
			C139.8,99.2,138.5,96.3,138.5,93.2z"/>
		<path class="st1" d="M149.8,0.2v35.2c6.2,0,11.3,5.1,11.3,11.3V82l21.6-21.6c0.2,0.2,0.4,0.4,0.6,0.6c0.1,0.1,0.1,0.1,0.2,0.2
			c0.3,0.3,0.5,0.5,0.8,0.8c0.2,0.3,0.5,0.6,0.7,0.8c0.5,0.6,1,1.1,1.4,1.7c0,0,0,0,0,0c0.2,0.3,0.5,0.6,0.7,0.9
			c0.2,0.2,0.3,0.4,0.5,0.7c0,0,0.1,0.1,0.1,0.1c0.1,0.1,0.1,0.1,0.2,0.2c0.2,0.2,0.3,0.5,0.5,0.7c0.1,0.1,0.2,0.2,0.2,0.4
			c0,0.1,0.1,0.1,0.1,0.2c0,0,0,0,0,0c0.2,0.2,0.3,0.5,0.4,0.7c0.2,0.2,0.3,0.5,0.5,0.7c0.1,0.2,0.3,0.5,0.4,0.7
			c0,0.1,0.1,0.1,0.1,0.2c0,0,0,0.1,0.1,0.1c0.4,0.6,0.7,1.3,1.1,2c0.2,0.3,0.3,0.7,0.5,1c0.2,0.3,0.3,0.7,0.5,1
			c0.2,0.3,0.3,0.7,0.5,1c0.3,0.7,0.6,1.4,0.8,2.1c0.1,0.4,0.3,0.7,0.4,1.1c0.4,1.1,0.7,2.2,1,3.3c0.1,0.4,0.2,0.7,0.3,1.1
			c0.8,3.4,1.2,6.9,1.2,10.5V46.7C196.3,21,175.5,0.2,149.8,0.2z"/>
	</g>
	<path class="st3" d="M195.1,82.8c-0.1-0.4-0.2-0.8-0.3-1.1c-0.3-1.1-0.6-2.2-1-3.3c-0.1-0.4-0.2-0.7-0.4-1.1
		c-0.3-0.7-0.5-1.4-0.8-2.1c-0.1-0.3-0.3-0.7-0.5-1c-0.2-0.3-0.3-0.7-0.5-1c-0.2-0.3-0.3-0.7-0.5-1c-0.3-0.7-0.7-1.3-1.1-2
		c0,0,0-0.1-0.1-0.1h0c0-0.1-0.1-0.1-0.1-0.2c-0.1-0.2-0.3-0.5-0.4-0.7c-0.1-0.2-0.3-0.5-0.5-0.7c-0.1-0.1-0.2-0.3-0.3-0.4
		c-0.1-0.1-0.1-0.2-0.2-0.3c0-0.1-0.1-0.1-0.1-0.2c-0.1-0.1-0.2-0.2-0.2-0.4c-0.2-0.2-0.3-0.5-0.5-0.7c0-0.1-0.1-0.1-0.2-0.2
		c0,0-0.1-0.1-0.1-0.1c-0.2-0.2-0.3-0.5-0.5-0.7c-0.2-0.3-0.4-0.6-0.7-0.9c0,0,0,0,0,0c-0.5-0.6-0.9-1.2-1.4-1.7
		c-0.2-0.3-0.5-0.6-0.7-0.8c-0.3-0.3-0.5-0.5-0.8-0.8c-0.1-0.1-0.1-0.1-0.2-0.2c-0.2-0.2-0.4-0.4-0.6-0.6l-32.9,32.9l-32.9,32.9
		c8.4,8.4,20.1,13.6,32.9,13.6c25.7,0,46.5-20.8,46.5-46.5C196.3,89.7,195.9,86.1,195.1,82.8z"/>
	<path class="st1" d="M87.8,68.4c0.1-0.2,0.2-0.3,0.3-0.5l1-2c0.1-0.2,0.1-0.3,0.2-0.5l0.8-1.9c0-0.1,0.1-0.2,0.1-0.3l0.2-0.5
		c0.2-0.5,0.4-1.1,0.5-1.6c0.1-0.2,0.1-0.4,0.2-0.5c0.2-0.5,0.3-1.1,0.5-1.6c0.3-1.3,0.6-2.5,0.9-3.8c0.1-0.7,0.2-1.5,0.3-2.2
		l0.1-0.6c0.1-0.7,0.2-1.4,0.2-2.2l0-0.7c0-0.1,0-0.3,0-0.4c0-0.2,0-0.4,0-0.6l0-1.7c0-0.6,0-1.1,0-1.7c0-0.2,0-0.4,0-0.6
		c0-0.1,0-0.3,0-0.4c0-0.3,0-0.5,0-0.7c-0.1-0.7-0.1-1.5-0.2-2.2c0-0.2,0-0.4-0.1-0.6c-0.1-0.6-0.2-1.1-0.3-1.7
		c0-0.2-0.1-0.4-0.1-0.6c-0.2-1.3-0.5-2.6-0.9-3.8c-0.1-0.4-0.2-0.7-0.3-1.1c-0.1-0.2-0.1-0.4-0.2-0.5c-0.1-0.2-0.1-0.4-0.2-0.5
		c-0.1-0.2-0.1-0.4-0.2-0.6c-0.1-0.3-0.2-0.7-0.3-1c-0.1-0.2-0.1-0.4-0.2-0.5c0-0.1-0.1-0.2-0.1-0.3c-0.2-0.6-0.5-1.2-0.8-1.9
		c-0.1-0.3-0.3-0.6-0.4-0.9c0,0,0,0,0-0.1c-0.1-0.2-0.2-0.3-0.2-0.5c-0.1-0.2-0.2-0.3-0.2-0.5c-1.4-2.9-3.1-5.6-5.1-8.1
		c-0.3-0.4-0.7-0.9-1.1-1.3c-0.2-0.3-0.5-0.6-0.7-0.8c-0.1-0.1-0.2-0.3-0.4-0.4c-0.1-0.1-0.3-0.3-0.4-0.4c-0.1-0.1-0.2-0.3-0.4-0.4
		c-0.3-0.3-0.5-0.5-0.8-0.8L46.6,46.7L23.3,70l23.3,23.3H0c0,25.7,20.8,46.5,46.5,46.5c25.7,0,46.5-20.8,46.5-46.5
		c0-8.5-2.3-16.4-6.2-23.3C87.2,69.5,87.5,69,87.8,68.4z"/>
	<polygon class="st2" points="149.8,0.2 149.8,46.7 103.2,46.7 	"/>
</g>
</svg>
