<?xml version="1.0" encoding="UTF-8"?>
<svg width="840px" height="245px" viewBox="0 0 840 245" version="1.1" xmlns="http://www.w3.org/2000/svg" xmlns:xlink="http://www.w3.org/1999/xlink">
    <title>sec4_img</title>
    <g id="sec4_img" stroke="none" stroke-width="1" fill="none" fill-rule="evenodd">
        <g id="Group-33" transform="translate(0, 14)">
            <g id="illustration-01" transform="translate(420.1355, 105.1529) rotate(-0.5) translate(-420.1355, -105.1529)translate(176, 50)" stroke="#009BD9" stroke-linecap="round" stroke-linejoin="round">
                <path d="M43.3011,56.2925 C43.4881,57.3165 42.7521,58.3095 41.6581,58.5115 C40.5631,58.7135 39.5221,58.0485 39.3311,57.0245 C39.1401,56.0015 39.8751,55.0055 40.9741,54.8025 C42.0721,54.5995 43.1141,55.2675 43.3011,56.2925 Z" id="Stroke-1" stroke-width="1.75"></path>
                <path d="M14.1206,77.2337 C12.0246,67.4247 10.9766,62.5197 8.8806,52.7107 C16.0266,51.1847 19.6036,50.4507 26.7666,49.0427 C29.0606,60.7137 31.3546,72.3847 33.6486,84.0557" id="Stroke-3" stroke-width="1.75"></path>
                <path d="M13.4391,51.7472 C15.4941,61.5652 16.5211,66.4742 18.5761,76.2912" id="Stroke-5" stroke-width="1.75"></path>
                <path d="M17.8181,50.84 C20.2081,62.492 22.5971,74.143 24.9871,85.795" id="Stroke-7" stroke-width="1.75"></path>
                <path d="M22.2002,49.9506 C24.5432,61.6116 26.8852,73.2726 29.2282,84.9336" id="Stroke-9" stroke-width="1.75"></path>
                <path d="M6.204,110.3058 C3.722,99.4318 2.481,93.9948 3.11787532e-13,83.1208 C7.555,81.3968 11.339,80.5688 18.917,78.9808 C21.204,89.8978 22.347,95.3558 24.634,106.2728" id="Stroke-11" stroke-width="1.75"></path>
                <path d="M1.7126,87.9565 C5.5576,87.0815 7.4816,86.6525 11.3336,85.8125" id="Stroke-13" stroke-width="1.75"></path>
                <path d="M14.4027,85.1481 C14.8677,85.0481 15.1007,84.9981 15.5657,84.8991" id="Stroke-15" stroke-width="1.75"></path>
                <path d="M2.9907,93.5708 C6.8157,92.6998 8.7297,92.2738 12.5597,91.4388" id="Stroke-17" stroke-width="1.75"></path>
                <path d="M15.6131,90.7774 C16.0761,90.6784 16.3071,90.6284 16.7701,90.5294" id="Stroke-19" stroke-width="1.75"></path>
                <path d="M4.2688,99.1852 C8.0728,98.3192 9.9768,97.8952 13.7868,97.0642" id="Stroke-21" stroke-width="1.75"></path>
                <path d="M16.8235,96.4067 C17.2835,96.3077 17.5135,96.2587 17.9745,96.1597" id="Stroke-23" stroke-width="1.75"></path>
                <path d="M5.547,104.7995 C9.331,103.9385 11.224,103.5165 15.013,102.6905" id="Stroke-25" stroke-width="1.75"></path>
                <path d="M18.0338,102.0361 C18.4918,101.9381 18.7208,101.8891 19.1778,101.7911" id="Stroke-27" stroke-width="1.75"></path>
                <path d="M21.1376,89.581 C31.7526,87.357 37.0706,86.313 47.7256,84.361 C48.9556,91.071 49.5706,94.426 50.7996,101.136" id="Stroke-29" stroke-width="1.75"></path>
                <path d="M44.4415,93.844 C37.6775,95.116 34.2985,95.779 27.5505,97.162 C27.2975,95.923 27.1705,95.304 26.9165,94.066 C33.6845,92.679 37.0725,92.014 43.8575,90.738 C44.0915,91.98 44.2075,92.602 44.4415,93.844 Z" id="Stroke-31" stroke-width="1.627"></path>
                <path d="M34.37,74.4673 C43.611,72.6743 48.239,71.8283 57.508,70.2363 C59.158,79.8473 60.808,89.4573 62.458,99.0673" id="Stroke-33" stroke-width="1.75"></path>
                <path d="M36.1146,78.8955 C36.2206,79.4455 36.2736,79.7205 36.3806,80.2705" id="Stroke-35" stroke-width="1.75"></path>
                <path d="M39.6937,78.2101 C39.7977,78.7601 39.8507,79.0351 39.9547,79.5851" id="Stroke-37" stroke-width="1.75"></path>
                <path d="M43.2745,77.537 C43.3775,78.088 43.4285,78.363 43.5305,78.913" id="Stroke-39" stroke-width="1.75"></path>
                <path d="M46.8572,76.876 C46.9582,77.427 47.0082,77.702 47.1092,78.253" id="Stroke-41" stroke-width="1.75"></path>
                <path d="M50.4418,76.2271 C50.5408,76.7781 50.5898,77.0541 50.6888,77.6051" id="Stroke-43" stroke-width="1.75"></path>
                <path d="M54.0277,75.5905 C54.1247,76.1425 54.1737,76.4175 54.2697,76.9695" id="Stroke-45" stroke-width="1.75"></path>
                <path d="M51.3287,81.1738 C51.4277,81.7248 51.4767,82.0008 51.5757,82.5518" id="Stroke-47" stroke-width="1.75"></path>
                <path d="M54.8981,80.5401 C54.9951,81.0921 55.0431,81.3671 55.1401,81.9191" id="Stroke-49" stroke-width="1.75"></path>
                <path d="M52.2157,86.1204 C52.3147,86.6714 52.3637,86.9474 52.4627,87.4984" id="Stroke-51" stroke-width="1.75"></path>
                <path d="M55.7683,85.4897 C55.8653,86.0417 55.9133,86.3167 56.0103,86.8687" id="Stroke-53" stroke-width="1.75"></path>
                <path d="M53.1025,91.067 C53.2015,91.618 53.2505,91.894 53.3495,92.445" id="Stroke-55" stroke-width="1.75"></path>
                <path d="M56.6385,90.4393 C56.7355,90.9913 56.7835,91.2663 56.8805,91.8183" id="Stroke-57" stroke-width="1.75"></path>
                <path d="M53.9895,96.0136 C54.0885,96.5646 54.1375,96.8406 54.2365,97.3916" id="Stroke-59" stroke-width="1.75"></path>
                <path d="M57.5088,95.3889 C57.6058,95.9409 57.6538,96.2159 57.7508,96.7679" id="Stroke-61" stroke-width="1.75"></path>
                <path d="M58.1307,73.8651 C60.7767,71.7871 62.1057,70.7521 64.7767,68.6901 C68.3067,68.1091 70.0717,67.8261 73.6057,67.2741 C75.1267,77.0131 76.6477,86.7531 78.1697,96.4921" id="Stroke-63" stroke-width="1.75"></path>
                <path d="M61.5023,76.6439 C63.9623,76.2279 65.1933,76.0239 67.6553,75.6229" id="Stroke-65" stroke-width="1.75"></path>
                <path d="M70.8463,75.1076 C71.1733,75.0556 71.3373,75.0296 71.6643,74.9766" id="Stroke-67" stroke-width="1.75"></path>
                <path d="M62.4905,82.4924 C64.9375,82.0794 66.1615,81.8764 68.6095,81.4774" id="Stroke-69" stroke-width="1.75"></path>
                <path d="M71.7831,80.9646 C72.1091,80.9126 72.2711,80.8866 72.5971,80.8346" id="Stroke-71" stroke-width="1.75"></path>
                <path d="M63.4787,88.341 C65.9117,87.93 67.1287,87.728 69.5637,87.331" id="Stroke-73" stroke-width="1.75"></path>
                <path d="M72.7198,86.8216 C73.0438,86.7696 73.2058,86.7436 73.5288,86.6926" id="Stroke-75" stroke-width="1.75"></path>
                <path d="M64.4669,94.1895 C66.8869,93.7805 68.0969,93.5795 70.5179,93.1855" id="Stroke-77" stroke-width="1.75"></path>
                <path d="M73.6566,92.6786 C73.9786,92.6276 74.1396,92.6016 74.4616,92.5506" id="Stroke-79" stroke-width="1.75"></path>
                <path d="M62.9067,66.0592 C61.6747,58.6352 61.0577,54.9232 59.8257,47.4992 C68.3887,46.0782 72.6747,45.4092 81.2577,44.1572" id="Stroke-81" stroke-width="1.75"></path>
                <path d="M62.9342,46.6631 C62.5702,44.4301 62.3882,43.3141 62.0242,41.0811 C69.5462,39.8551 73.3112,39.2751 80.8482,38.1781 C83.5962,57.0671 86.3442,75.9561 89.0922,94.8451" id="Stroke-83" stroke-width="1.75"></path>
                <path d="M76.3454,44.8854 C75.6244,40.0944 75.2644,37.6994 74.5434,32.9094" id="Stroke-85" stroke-width="1.75"></path>
                <path d="M65.1046,52.0189 C68.1936,51.5189 69.7396,51.2749 72.8306,50.7969" id="Stroke-87" stroke-width="1.75"></path>
                <path d="M76.3336,50.2616 C77.2506,50.1226 77.7096,50.0536 78.6266,49.9176" id="Stroke-89" stroke-width="1.75"></path>
                <path d="M66.035,57.7689 C69.108,57.2719 70.645,57.0289 73.721,56.5539" id="Stroke-91" stroke-width="1.75"></path>
                <path d="M77.2047,56.0209 C78.1167,55.8829 78.5727,55.8149 79.4857,55.6789" id="Stroke-93" stroke-width="1.75"></path>
                <path d="M66.9656,63.5188 C70.0226,63.0238 71.5506,62.7828 74.6106,62.3098" id="Stroke-95" stroke-width="1.75"></path>
                <path d="M78.0758,61.7801 C78.9828,61.6431 79.4368,61.5751 80.3448,61.4391" id="Stroke-97" stroke-width="1.75"></path>
                <path d="M85.9595,70.4689 C89.1415,70.0069 90.7335,69.7829 93.9175,69.3449" id="Stroke-99" stroke-width="1.75"></path>
                <path d="M97.3284,68.8813 C97.7314,68.8273 97.9324,68.8003 98.3354,68.7463" id="Stroke-101" stroke-width="1.75"></path>
                <path d="M86.8379,76.5221 C90.0019,76.0631 91.5839,75.8391 94.7509,75.4041" id="Stroke-103" stroke-width="1.75"></path>
                <path d="M98.1423,74.9435 C98.5423,74.8895 98.7433,74.8625 99.1433,74.8095" id="Stroke-105" stroke-width="1.75"></path>
                <path d="M87.7162,82.5752 C90.8622,82.1192 92.4352,81.8962 95.5842,81.4642" id="Stroke-107" stroke-width="1.75"></path>
                <path d="M98.9563,81.0055 C99.3543,80.9525 99.5533,80.9255 99.9513,80.8725" id="Stroke-109" stroke-width="1.75"></path>
                <path d="M88.5945,88.6283 C91.7225,88.1743 93.2865,87.9533 96.4175,87.5233" id="Stroke-111" stroke-width="1.75"></path>
                <path d="M99.7702,87.0676 C100.1662,87.0146 100.3642,86.9876 100.7602,86.9356" id="Stroke-113" stroke-width="1.75"></path>
                <path d="M84.8348,65.5805 C84.5608,63.6995 84.4248,62.7595 84.1508,60.8785 C89.4918,60.1025 92.1638,59.7305 97.5118,59.0195 C97.7618,60.9035 97.8878,61.8455 98.1378,63.7295" id="Stroke-115" stroke-width="1.75"></path>
                <path d="M84.8348,65.5805 C91.1848,64.6565 94.3628,64.2185 100.7228,63.3895 C101.9978,73.1635 103.2728,82.9385 104.5478,92.7135" id="Stroke-117" stroke-width="1.75"></path>
                <path d="M115.3214,82.4934 C114.9794,82.6084 114.6184,82.6904 114.2414,82.7354 C111.3814,83.0784 108.7844,81.1164 108.4384,78.3484 C108.3064,77.2964 108.5234,76.2714 109.0024,75.3954 C108.3234,74.6534 107.8584,73.7144 107.7274,72.6624 C107.4384,70.3504 108.8344,68.1894 111.0014,67.3424 C110.9834,67.2844 110.9764,67.2244 110.9684,67.1654 C110.6334,64.3954 112.7324,61.8624 115.6494,61.5234 C118.5674,61.1844 121.1914,63.1674 121.5004,65.9404 C121.5054,65.9794 121.5104,66.0294 121.5044,66.0704 C123.8934,66.3174 125.8454,68.1304 126.1114,70.5054 C127.3344,71.6414 128.1564,73.1834 128.3414,74.9344 C128.7624,78.9114 125.7814,82.4824 121.6824,82.9454" id="Stroke-119" stroke-width="1.75"></path>
                <path d="M116.6333,68.6969 C117.6653,77.5799 118.1813,82.0219 119.2143,90.9059" id="Stroke-121" stroke-width="1.75"></path>
                <path d="M122.0613,70.1005 C122.2793,69.8505 122.3883,69.7255 122.6073,69.4765" id="Stroke-123" stroke-width="1.75"></path>
                <path d="M113.167,72.2392 C114.873,73.5212 115.723,74.1642 117.419,75.4532 C118.584,74.1002 119.169,73.4242 120.343,72.0732" id="Stroke-125" stroke-width="1.75"></path>
                <path d="M114.4851,76.9064 C115.8491,77.9384 116.5301,78.4554 117.8881,79.4924 C119.0491,78.1394 119.6311,77.4634 120.7991,76.1134" id="Stroke-127" stroke-width="1.75"></path>
                <path d="M141.9895,77.8019 C141.7165,77.8629 141.4355,77.9079 141.1465,77.9349 C137.6445,78.2649 134.5335,75.7959 134.1945,72.4099 C134.0655,71.1229 134.3625,69.8799 134.9735,68.8269 C134.1665,67.9019 133.6275,66.7419 133.4985,65.4559 C133.2155,62.6289 134.9905,60.0339 137.6695,59.0679 C137.6495,58.9959 137.6425,58.9229 137.6355,58.8499 C137.3115,55.4629 139.9655,52.4379 143.5525,52.1159 C147.1385,51.7949 150.2875,54.2999 150.5715,57.6909 C150.5755,57.7389 150.5805,57.7999 150.5725,57.8499 C153.4875,58.2299 155.8145,60.5069 156.0565,63.4119 C157.5125,64.8379 158.4625,66.7479 158.6275,68.8879 C159.0025,73.7519 155.2395,78.0009 150.2225,78.4299" id="Stroke-129" stroke-width="1.75"></path>
                <path d="M144.5206,60.8939 C145.4936,71.7579 145.9796,77.1899 146.9516,88.0539" id="Stroke-131" stroke-width="1.75"></path>
                <path d="M151.0672,62.7461 C151.3622,62.4631 151.5092,62.3211 151.8052,62.0391" id="Stroke-133" stroke-width="1.75"></path>
                <path d="M140.1654,65.1043 C142.2114,66.7203 143.2304,67.5313 145.2604,69.1573 C146.7294,67.5433 147.4674,66.7383 148.9474,65.1303" id="Stroke-135" stroke-width="1.75"></path>
                <path d="M141.6286,70.8358 C143.2626,72.1368 144.0776,72.7888 145.7026,74.0958 C147.1646,72.4828 147.8976,71.6778 149.3706,70.0708" id="Stroke-137" stroke-width="1.75"></path>
                <path d="M123.0693,90.2657 C122.9033,90.0327 122.7933,89.7567 122.7593,89.4567 C122.6623,88.5917 123.2123,87.7947 124.0433,87.5617 C123.8543,87.3417 123.7213,87.0747 123.6863,86.7667 C123.5953,85.9517 124.1973,85.2207 125.0253,85.1287 C125.0563,85.1257 125.0973,85.1217 125.1293,85.1277 C125.5803,84.1527 126.5273,83.4257 127.6953,83.2997 C129.2923,83.1287 130.7253,84.1457 131.0953,85.6147 C132.7043,85.5977 134.0843,86.7747 134.2453,88.3667 C134.2773,88.6777 134.2603,88.9817 134.2013,89.2727" id="Stroke-139" stroke-width="1.75"></path>
                <path d="M131.7396,84.1531 C131.9556,82.0981 133.6396,80.3921 135.8406,80.1731 C138.3676,79.9221 140.6006,81.7101 140.8316,84.1491 C140.8356,84.1891 140.8396,84.2291 140.8326,84.2701 C141.1626,84.1581 141.5066,84.0851 141.8656,84.0521 C144.3816,83.8151 146.5966,85.6161 146.8166,88.0661" id="Stroke-141" stroke-width="1.75"></path>
                <path d="M82.993,6.8288 C86.879,6.2868 88.822,6.0238 92.712,5.5148" id="Stroke-143" stroke-width="1.75"></path>
                <path d="M102.3762,4.293 C116.1452,2.611 129.9442,1.18 143.7652,8.9102576e-13" id="Stroke-145" stroke-width="1.75"></path>
                <path d="M330.2175,40.2364 C332.1065,40.3894 333.0505,40.4684 334.9385,40.6294" id="Stroke-147" stroke-width="1.75"></path>
                <path d="M343.8724,41.4293 C353.5644,42.3233 363.2564,43.3603 372.9184,44.5373" id="Stroke-149" stroke-width="1.75"></path>
                <path d="M105.9742,39.6205 C105.3102,39.7025 104.9782,39.7425 104.3152,39.8255" id="Stroke-151" stroke-width="1.75"></path>
                <path d="M100.1677,40.3824 C99.2027,40.5064 98.2387,40.6594 97.2687,40.5384 C95.3797,40.3024 93.8667,38.8874 93.6307,37.1244 C93.3987,35.3894 94.4037,33.7614 96.0067,32.9964 C96.0467,30.5504 98.0377,28.4134 100.7437,28.0714 C101.6177,27.9614 102.4727,28.0564 103.2487,28.3124 C104.0647,26.3274 106.0177,24.7974 108.4517,24.5074 C111.9127,24.0964 115.0187,26.3634 115.3797,29.5524 C115.4397,30.0794 115.4217,30.5944 115.3257,31.0884 C115.3467,31.0864 115.3577,31.0854 115.3787,31.0824 C117.5507,30.8364 119.4817,32.2654 119.7007,34.2624 C119.9147,36.2114 118.4427,37.9714 116.3687,38.2864 C116.3167,38.3024 116.2527,38.3104 116.1997,38.3164 C113.3317,38.6414 111.8977,38.8084 109.0317,39.1524" id="Stroke-153" stroke-width="1.75"></path>
                <path d="M116.369,38.2868 C116.369,38.2908 116.37,38.2928 116.37,38.2968 C116.302,38.3048 116.268,38.3088 116.199,38.3158 C116.253,38.3098 116.317,38.3028 116.369,38.2868 Z" id="Stroke-155" stroke-width="1.75"></path>
                <path d="M346.5738,81.36 C346.1498,85.614 342.2758,88.707 337.9198,88.306 C333.5638,87.905 330.3228,84.156 330.6828,79.896 C331.0438,75.636 334.9208,72.483 339.3408,72.89 C343.7608,73.297 346.9978,77.106 346.5738,81.36 Z" id="Stroke-157" stroke-width="1.75"></path>
                <path d="M376.4527,84.7667 C375.9077,89.0067 371.9457,91.9897 367.5997,91.4647 C363.2537,90.9397 360.1177,87.1007 360.5987,82.8527 C361.0787,78.6047 365.0467,75.5627 369.4567,76.0947 C373.8667,76.6277 376.9977,80.5267 376.4527,84.7667 Z" id="Stroke-159" stroke-width="1.75"></path>
                <path d="M368.6305,83.7921 C362.3115,83.0281 359.1495,82.6701 352.8225,82.0021 C350.9275,76.0311 349.9625,73.0471 347.9985,67.0841 C354.4135,67.7241 357.6195,68.0681 364.0275,68.8041 C365.9025,74.7961 366.8235,77.7931 368.6305,83.7921 Z" id="Stroke-161" stroke-width="1.75"></path>
                <path d="M343.2579,63.4804 C345.2789,63.6724 346.2889,63.7704 348.3089,63.9724 C348.1849,65.2174 348.1219,65.8394 347.9979,67.0844 C344.2089,72.4734 342.3359,75.1764 338.6309,80.5984" id="Stroke-163" stroke-width="1.75"></path>
                <path d="M366.1059,69.0448 C363.5939,68.7518 362.3379,68.6088 359.8259,68.3298 C359.9139,67.5338 359.9579,67.1358 360.0459,66.3398 C362.5639,66.6188 363.8219,66.7628 366.3379,67.0568 C366.2449,67.8518 366.1989,68.2498 366.1059,69.0448 Z" id="Stroke-165" stroke-width="1.75"></path>
                <path d="M460.9127,101.0933 C456.3317,99.9063 453.3947,95.4593 454.3167,90.9253 C455.9797,82.7503 456.8117,78.6633 458.4747,70.4883 C459.4237,65.8203 464.2427,62.8563 469.2307,63.9143 L469.2307,63.9143 C474.2177,64.9723 477.4217,69.6393 476.3937,74.2903 C474.5937,82.4363 473.6937,86.5083 471.8937,94.6543 C471.1227,98.1423 468.2617,100.6473 464.8557,101.2523" id="Stroke-167" stroke-width="1.75"></path>
                <path d="M463.5159,90.691 C462.1459,97.146 461.4619,100.373 460.0919,106.827" id="Stroke-169" stroke-width="1.75"></path>
                <path d="M464.3038,86.9775 C464.2518,87.2225 464.2258,87.3445 464.1738,87.5885" id="Stroke-171" stroke-width="1.75"></path>
                <path d="M444.3102,98.5271 L444.3102,98.5271 C439.0582,97.5011 435.5632,92.5801 436.5102,87.4801 C436.9672,85.0211 437.1962,83.7911 437.6532,81.3311 C438.6012,76.2321 443.7342,72.9041 449.1102,73.9541 C452.1922,74.5561 454.6692,76.4631 456.0162,78.9381" id="Stroke-173" stroke-width="1.75"></path>
                <path d="M451.8006,97.0176 C450.6566,97.7946 449.3406,98.3316 447.9396,98.5726" id="Stroke-175" stroke-width="1.75"></path>
                <path d="M445.9592,90.3202 C444.9352,95.5632 444.4232,98.1842 443.3982,103.4272" id="Stroke-177" stroke-width="1.75"></path>
                <path d="M446.7475,86.2857 C446.7135,86.4597 446.6965,86.5467 446.6625,86.7217" id="Stroke-179" stroke-width="1.75"></path>
                <path d="M475.6505,106.3986 C472.1775,105.6096 469.4935,103.2276 468.2435,100.2326" id="Stroke-181" stroke-width="1.75"></path>
                <path d="M473.6272,87.4196 C475.5792,86.6176 477.8222,86.3896 480.0792,86.9026 C485.7402,88.1886 489.2872,93.6356 488.0112,99.0076 C487.1122,102.7946 484.0882,105.5396 480.4462,106.3906" id="Stroke-183" stroke-width="1.75"></path>
                <path d="M477.0935,100.0458 C476.1835,104.0518 475.7285,106.0548 474.8185,110.0618" id="Stroke-185" stroke-width="1.75"></path>
                <path d="M477.9795,96.1451 C477.9575,96.2431 477.9465,96.2911 477.9245,96.3891" id="Stroke-187" stroke-width="1.75"></path>
                <path d="M413.816,66.3568 C412.157,76.6618 410.497,86.9668 408.837,97.2708" id="Stroke-189" stroke-width="1.75"></path>
                <path d="M434.3216,69.8598 C432.4656,80.1308 430.6086,90.4018 428.7526,100.6728" id="Stroke-191" stroke-width="1.75"></path>
                <path d="M391.6354,63.5205 C391.0394,67.7775 390.7414,69.9055 390.1454,74.1625" id="Stroke-193" stroke-width="1.75"></path>
                <path d="M415.417,50.4962 C406.355,54.3532 397.34,58.3652 388.409,62.5172 C404.772,64.7782 421.099,67.3452 437.341,70.3522 C430.144,63.6212 422.826,56.9942 415.417,50.4962 Z" id="Stroke-195" stroke-width="1.75"></path>
                <path d="M423.1134,57.6367 C417.1074,60.7287 414.1274,62.2957 408.2114,65.4697" id="Stroke-197" stroke-width="1.75"></path>
                <path d="M410.369,84.3959 C400.14,82.7379 389.868,81.2429 379.592,79.9159 C381.937,77.5739 383.116,76.4059 385.485,74.0769 C395.927,75.4929 401.141,76.2649 411.555,77.9369" id="Stroke-199" stroke-width="1.75"></path>
                <path d="M389.608,74.9169 C387.328,77.1409 386.193,78.2559 383.935,80.4919" id="Stroke-201" stroke-width="1.75"></path>
                <path d="M394.5775,75.6222 C392.2865,77.8352 391.1465,78.9452 388.8775,81.1712" id="Stroke-203" stroke-width="1.75"></path>
                <path d="M399.5444,76.3508 C397.2434,78.5538 396.0974,79.6578 393.8184,81.8728" id="Stroke-205" stroke-width="1.75"></path>
                <path d="M404.5088,77.1027 C402.1968,79.2947 401.0458,80.3937 398.7558,82.5977" id="Stroke-207" stroke-width="1.75"></path>
                <path d="M409.4702,77.8779 C407.1472,80.0589 405.9922,81.1529 403.6912,83.3459" id="Stroke-209" stroke-width="1.75"></path>
                <path d="M389.0057,82.3042 C388.3487,86.9982 388.0197,89.3462 387.3627,94.0402" id="Stroke-211" stroke-width="1.75"></path>
                <path d="M384.0663,81.6247 C383.4313,86.3217 383.1133,88.6707 382.4783,93.3687" id="Stroke-213" stroke-width="1.75"></path>
                <path d="M392.0547,94.7076 C392.5597,91.2116 392.8127,89.4626 393.3187,85.9666 C396.7657,86.4646 398.4877,86.7206 401.9307,87.2476 C401.3967,90.7396 401.1297,92.4856 400.5957,95.9776" id="Stroke-215" stroke-width="1.75"></path>
                <path d="M396.9166,91.3652 C397.4536,91.4452 397.7216,91.4852 398.2586,91.5652" id="Stroke-217" stroke-width="1.75"></path>
                <path d="M428.3547,81.4126 C423.3667,80.5296 420.8707,80.1026 415.8757,79.2796 C416.4187,75.9876 416.6897,74.3426 417.2327,71.0506 C422.2667,71.8806 424.7827,72.3106 429.8087,73.2006 C429.2267,76.4856 428.9367,78.1276 428.3547,81.4126 Z" id="Stroke-219" stroke-width="1.75"></path>
                <path d="M417.1946,75.2708 C421.8326,76.0388 424.1496,76.4348 428.7806,77.2538" id="Stroke-221" stroke-width="1.75"></path>
                <path d="M422.9896,76.2462 C422.7506,77.6412 422.6316,78.3392 422.3926,79.7352" id="Stroke-223" stroke-width="1.75"></path>
                <path d="M425.4503,97.8147 C420.5403,96.9457 418.0823,96.5257 413.1653,95.7147 C413.8323,91.6667 414.1663,89.6427 414.8343,85.5947 C419.7993,86.4137 422.2803,86.8377 427.2383,87.7147 C426.5233,91.7547 426.1653,93.7747 425.4503,97.8147 Z" id="Stroke-225" stroke-width="1.75"></path>
                <path d="M414.6304,90.7587 C419.2004,91.5147 421.4844,91.9057 426.0474,92.7127" id="Stroke-227" stroke-width="1.75"></path>
                <path d="M420.341,91.7199 C420.047,93.4359 419.9,94.2939 419.607,96.0099" id="Stroke-229" stroke-width="1.75"></path>
                <path d="M371.6023,14.2127 C371.4623,15.4197 370.2753,16.2737 368.9513,16.1227 C367.6283,15.9717 366.6643,14.8737 366.7993,13.6657 C366.9343,12.4587 368.1203,11.5997 369.4493,11.7507 C370.7783,11.9017 371.7423,13.0057 371.6023,14.2127 Z" id="Stroke-231" stroke-width="1.75"></path>
                <path d="M476.2496,18.7658 C475.9996,19.9548 474.7256,20.6938 473.4016,20.4188 C472.0786,20.1438 471.2036,18.9588 471.4486,17.7688 C471.6926,16.5788 472.9686,15.8348 474.2966,16.1108 C475.6246,16.3868 476.4996,17.5768 476.2496,18.7658 Z" id="Stroke-233" stroke-width="1.75"></path>
                <path d="M445.9228,62.5054 C445.6958,63.6994 444.4818,64.4704 443.2118,64.2314 C441.9418,63.9924 441.0908,62.8334 441.3128,61.6384 C441.5348,60.4444 442.7498,59.6674 444.0248,59.9074 C445.3008,60.1474 446.1498,61.3114 445.9228,62.5054 Z" id="Stroke-235" stroke-width="1.75"></path>
                <path d="M438.737,37.6494 C437.845,37.4894 437.398,37.4094 436.506,37.2514" id="Stroke-237" stroke-width="1.75"></path>
                <path d="M430.911,36.3187 C429.611,36.0947 428.302,35.9107 427.092,35.3727 C424.736,34.3257 423.332,31.9177 423.719,29.5667 C424.1,27.2537 426.044,25.5637 428.429,25.2177 C429.445,22.1007 432.878,20.1507 436.533,20.7897 C437.713,20.9957 438.788,21.4577 439.695,22.0957 C441.545,19.8797 444.697,18.7027 447.98,19.3087 C452.648,20.1717 455.778,24.3237 454.965,28.5467 C454.831,29.2437 454.6,29.8947 454.277,30.4877 C454.306,30.4927 454.32,30.4957 454.349,30.5017 C457.267,31.0627 459.198,33.6707 458.677,36.3117 C458.168,38.8877 455.552,40.5407 452.738,40.1087 C452.664,40.1077 452.578,40.0917 452.507,40.0777 C448.66,39.3377 446.736,38.9767 442.885,38.2707" id="Stroke-239" stroke-width="1.75"></path>
                <path d="M452.7383,40.1084 C452.7373,40.1134 452.7373,40.1164 452.7363,40.1214 C452.6443,40.1044 452.5983,40.0954 452.5063,40.0774 C452.5783,40.0914 452.6643,40.1074 452.7383,40.1084 Z" id="Stroke-241" stroke-width="1.75"></path>
            </g>
            <g id="Group-23" transform="translate(18, 102.9998)">
                <path d="M77.2392,68.0282297 C80.6372,67.0612297 84.1752,69.0312297 85.1422,72.4292297 C86.1092,75.8262297 84.1382,79.3642297 80.7412,80.3312297 C77.3432,81.2982297 73.8052,79.3282297 72.8382,75.9312297 C71.8712,72.5332297 73.8412,68.9952297 77.2392,68.0282297 Z" id="Stroke-1" stroke="#009BDA" stroke-width="2" stroke-linecap="round" stroke-linejoin="round"></path>
                <path d="M120.7369,55.6478297 C124.1349,54.6808297 127.6729,56.6508297 128.6399,60.0488297 C129.6069,63.4458297 127.6359,66.9838297 124.2389,67.9508297 C120.8409,68.9178297 117.3029,66.9478297 116.3359,63.5508297 C115.3689,60.1528297 117.3389,56.6148297 120.7369,55.6478297 Z" id="Stroke-3" stroke="#009BDA" stroke-width="2" stroke-linecap="round" stroke-linejoin="round"></path>
                <path d="M72.8384,75.9308297 L63.7704,78.5118297 L58.7364,60.8238297 C64.4134,50.4678297 74.0034,42.8178297 85.3624,39.5848297 L85.4744,39.5538297 C95.1464,36.8008297 105.9764,39.4998297 114.9104,44.1158297 L127.7354,43.8718297 C131.3454,43.8028297 134.5484,46.1738297 135.5364,49.6468297 L137.7584,57.4528297 L128.6394,60.0488297" id="Stroke-5" stroke="#009BDA" stroke-width="2" stroke-linecap="round" stroke-linejoin="round"></path>
                <path d="M67.4843,49.6218297 L71.9503,52.1678297 C75.0753,53.9488297 78.7863,54.3978297 82.2463,53.4128297 L114.9113,44.1158297" id="Stroke-7" stroke="#009BDA" stroke-width="2" stroke-linecap="round" stroke-linejoin="round"></path>
                <line x1="85.142" y1="72.4289297" x2="116.336" y2="63.5509297" id="Stroke-9" stroke="#009BDA" stroke-width="2" stroke-linecap="round" stroke-linejoin="round"></line>
                <line x1="95.969" y1="59.4635297" x2="100.356" y2="58.2145297" id="Stroke-11" stroke="#009BDA" stroke-width="2" stroke-linecap="round" stroke-linejoin="round"></line>
                <path d="M6.9638,30.4756297 L15.4218,28.3546297 C17.5908,27.8116297 19.7888,29.1286297 20.3328,31.2966297 L22.2448,38.9246297 C22.7888,41.0936297 21.4718,43.2916297 19.3028,43.8356297 L10.8448,45.9566297 L6.9638,30.4756297 Z" id="Stroke-13" stroke="#009BDA" stroke-width="2" stroke-linecap="round" stroke-linejoin="round"></path>
                <line x1="10.0688" y1="42.8601297" x2="2.3288" y2="44.8011297" id="Stroke-15" stroke="#009BDA" stroke-width="2" stroke-linecap="round" stroke-linejoin="round"></line>
                <line x1="7.74" y1="33.5717297" x2="0" y2="35.5127297" id="Stroke-17" stroke="#009BDA" stroke-width="2" stroke-linecap="round" stroke-linejoin="round"></line>
                <path d="M20.3328,31.2971297 L33.2658,28.2321297 C33.2658,28.2321297 40.7658,27.6891297 43.2658,37.0941297 L51.2658,68.1971297 C51.2658,68.1971297 52.0468,71.8601297 55.9068,74.1801297 L62.0398,72.4291297" id="Stroke-19" stroke="#009BDA" stroke-width="2" stroke-linecap="round" stroke-linejoin="round"></path>
                <path d="M55.5519,17.8499297 L61.4969,17.8499297 C61.7339,17.8499297 61.9549,17.9679297 62.0879,18.1639297 C62.2209,18.3599297 62.2469,18.6099297 62.1589,18.8289297 L58.4819,27.9809297 L67.2189,16.2169297 L61.1149,16.2169297 C60.8859,16.2169297 60.6709,16.1069297 60.5369,15.9219297 C60.4029,15.7369297 60.3649,15.4989297 60.4369,15.2809297 L63.6139,5.58192974 L55.5519,17.8499297 Z M55.7589,33.5569297 C55.6399,33.5569297 55.5199,33.5279297 55.4109,33.4659297 C55.0979,33.2909297 54.9639,32.9109297 55.0969,32.5779297 L60.4409,19.2769297 L54.2289,19.2769297 C53.9669,19.2769297 53.7259,19.1329297 53.6009,18.9019297 C53.4769,18.6709297 53.4889,18.3909297 53.6329,18.1719297 L65.3629,0.320929742 C65.5599,0.0219297423 65.9479,-0.0840702577 66.2689,0.0709297423 C66.5909,0.225929742 66.7489,0.594929742 66.6379,0.934929742 L62.0989,14.7899297 L68.6369,14.7899297 C68.9069,14.7899297 69.1529,14.9419297 69.2749,15.1829297 C69.3959,15.4239297 69.3709,15.7119297 69.2099,15.9289297 L56.3319,33.2689297 C56.1929,33.4559297 55.9779,33.5569297 55.7589,33.5569297 L55.7589,33.5569297 Z" id="Fill-21" fill="#FFBF27"></path>
            </g>
            <g id="Group-30" transform="translate(357, 0)">
                <g id="屋" stroke="#009BDA" stroke-linecap="round" stroke-width="2">
                    <path d="M40.6423,32.2975749 L40.6493052,30.3065749 C40.6533,24.0645749 38.3623,18.0235749 34.1553,13.4115749 C31.5033,10.5035749 26.6623,7.40857494 26.6623,7.40857494" id="Stroke-1" stroke-linejoin="round"></path>
                    <path d="M40.6491964,32.2975749 C40.6462,27.1575749 42.5332,22.1815749 45.9972,18.3845749 C48.1812,15.9895749 50.9622,13.8785749 54.3462,12.3105749" id="Stroke-3" stroke-linejoin="round"></path>
                    <path d="M27.4484,0.80717494 C30.3964,1.48217494 33.4884,2.68817494 36.0444,4.79917494 C38.1594,6.54617494 39.0814,8.56817494 39.4174,10.3891749 C40.3794,15.6071749 36.5224,20.2791749 31.2144,20.3201749 C29.3624,20.3351749 27.2024,19.8111749 25.0874,18.0641749 C19.5544,13.4941749 17.7124,5.64917494 17.1394,2.05017494 C16.9734,1.00617494 17.7604,0.0521749399 18.8174,0.0181749399 C20.1444,-0.0248250601 22.0564,-0.0078250601 24.2184,0.25117494" id="Stroke-5" stroke-linejoin="round"></path>
                    <path d="M56.9729,19.6543749 C60.9679,16.1633749 62.7459,10.6863749 63.4069,8.03137494 C63.6169,7.18637494 63.0389,6.34837494 62.1739,6.24537494 C59.1939,5.89037494 52.5639,5.58837494 47.6999,8.94637494 C45.8409,10.2303749 44.9409,11.8233749 44.5359,13.2943749 C43.3769,17.5073749 46.2109,21.6143749 50.5629,22.0243749 C51.6569,22.1273749 52.9019,22.0123749 54.2079,21.4603749" id="Stroke-7" stroke-linejoin="round"></path>
                    <g id="Group-31" transform="translate(0, 34)" stroke-linejoin="bevel">
                        <g id="Group-7" transform="translate(0, 15.2926)">
                            <polyline id="Stroke-1" points="20.2227 88 20.2227 0 60.3007 0 60.3007 87.9864806"></polyline>
                            <polyline id="Stroke-3" points="62.125 27.2347 89.832 27.2347 89.832 88.2347"></polyline>
                            <polyline id="Stroke-5" points="0 90.4728 0 44.4728 18.531 44.4728"></polyline>
                        </g>
                        <polyline id="Stroke-8" points="27.9141 14.2929 27.9141 6.3279 53.1601 6.3279 53.1601 14.1169"></polyline>
                        <polyline id="Stroke-9" points="33.2305 5.414 33.2305 0 47.3595 0 47.3595 5.328"></polyline>
                        <polyline id="Stroke-11" points="68.2305 41.414 68.2305 35 82.3595 35 82.3595 41.328"></polyline>
                        <line x1="27.252" y1="31.4804" x2="35.272" y2="31.4804" id="Stroke-12"></line>
                        <line x1="45.252" y1="31.4804" x2="53.272" y2="31.4804" id="Stroke-13"></line>
                        <line x1="27.252" y1="42.8138" x2="35.272" y2="42.8138" id="Stroke-14"></line>
                        <line x1="45.252" y1="42.8138" x2="53.272" y2="42.8138" id="Stroke-15"></line>
                        <line x1="27.252" y1="54.1471" x2="35.272" y2="54.1471" id="Stroke-16"></line>
                        <line x1="45.252" y1="54.1471" x2="53.272" y2="54.1471" id="Stroke-17"></line>
                        <line x1="27.252" y1="65.4804" x2="35.272" y2="65.4804" id="Stroke-18"></line>
                        <line x1="45.252" y1="65.4804" x2="53.272" y2="65.4804" id="Stroke-19"></line>
                        <path d="M32.4727,102.7614 L32.4727,82.5648372 C32.4727,82.5648372 33.3277,75.7614 40.3277,75.7614 C47.3277,75.7614 49.0297,82.0385214 49.0297,82.0385214 L49.0297,102.7614" id="Stroke-20"></path>
                        <line x1="69.8281" y1="52.0293" x2="69.8281" y2="96.0293" id="Stroke-22"></line>
                        <line x1="79.8281" y1="52.0293" x2="79.8281" y2="96.0293" id="Stroke-24"></line>
                        <line x1="5.8184" y1="70.3724" x2="13.8384" y2="70.3724" id="Stroke-26"></line>
                        <line x1="5.8184" y1="80.7057" x2="13.8384" y2="80.7057" id="Stroke-28"></line>
                        <line x1="5.8184" y1="90.7057" x2="13.8384" y2="90.7057" id="Stroke-28-Copy"></line>
                    </g>
                </g>
                <g id="板" transform="translate(101.7695, 107.4416)" fill="#009BDA">
                    <path d="M10.4292299,22.5736651 C10.4112299,22.5736651 10.3942299,22.5736651 10.3752299,22.5716651 C9.88022992,22.5426651 9.50222992,22.1176651 9.53122992,21.6216651 L10.7572299,0.846665061 C10.7872299,0.350665061 11.1992299,-0.0283349386 11.7082299,0.00166506137 C12.2042299,0.0306650614 12.5822299,0.456665061 12.5532299,0.952665061 L11.3262299,21.7276651 C11.2982299,22.2056651 10.9012299,22.5736651 10.4292299,22.5736651" id="Fill-126"></path>
                    <path d="M21.8096299,22.5736651 C21.3376299,22.5736651 20.9406299,22.2056651 20.9126299,21.7276651 L19.6856299,0.952665061 C19.6566299,0.456665061 20.0346299,0.0306650614 20.5306299,0.00166506137 C21.0276299,-0.0273349386 21.4516299,0.350665061 21.4816299,0.846665061 L22.7076299,21.6216651 C22.7366299,22.1176651 22.3586299,22.5426651 21.8636299,22.5716651 C21.8456299,22.5736651 21.8276299,22.5736651 21.8096299,22.5736651" id="Fill-128"></path>
                    <path d="M30.2388299,8.89786506 L2.32782992,8.89786506 C1.83082992,8.89786506 1.42782992,8.49586506 1.42782992,7.99886506 C1.42782992,7.50186506 1.83082992,7.09986506 2.32782992,7.09986506 L30.2388299,7.09986506 C30.7358299,7.09986506 31.1378299,7.50186506 31.1378299,7.99886506 C31.1378299,8.49586506 30.7358299,8.89786506 30.2388299,8.89786506" id="Fill-130"></path>
                    <path d="M30.9914299,16.1002651 L1.57542992,16.1002651 C1.07842992,16.1002651 0.676429922,15.6972651 0.676429922,15.2012651 C0.676429922,14.7042651 1.07842992,14.3022651 1.57542992,14.3022651 L30.9914299,14.3022651 C31.4884299,14.3022651 31.8904299,14.7042651 31.8904299,15.2012651 C31.8904299,15.6972651 31.4884299,16.1002651 30.9914299,16.1002651" id="Fill-132"></path>
                    <path d="M15.6375299,25.7311651 L16.5335299,25.7311651 L16.5335299,22.5741651 L15.6375299,22.5741651 L15.6375299,25.7311651 Z M17.4325299,27.5291651 L14.7385299,27.5291651 C14.2425299,27.5291651 13.8395299,27.1271651 13.8395299,26.6301651 L13.8395299,21.6751651 C13.8395299,21.1781651 14.2425299,20.7751651 14.7385299,20.7751651 L17.4325299,20.7751651 C17.9295299,20.7751651 18.3315299,21.1781651 18.3315299,21.6751651 L18.3315299,26.6301651 C18.3315299,27.1271651 17.9295299,27.5291651 17.4325299,27.5291651 L17.4325299,27.5291651 Z" id="Fill-134"></path>
                    <path d="M1.89672992,20.7754651 L30.6697299,20.7754651 L28.6877299,1.79846506 L3.87972992,1.79846506 L1.89672992,20.7754651 Z M31.6677299,22.5734651 L0.898729922,22.5734651 C0.644729922,22.5734651 0.401729922,22.4654651 0.230729922,22.2764651 C0.0607299219,22.0874651 -0.0212700781,21.8344651 0.00472992192,21.5814651 L2.17472992,0.805465061 C2.22272992,0.347465061 2.60872992,0.00046506137 3.06872992,0.00046506137 L29.4977299,0.00046506137 C29.9577299,0.00046506137 30.3437299,0.347465061 30.3917299,0.805465061 L32.5617299,21.5814651 C32.5877299,21.8344651 32.5057299,22.0874651 32.3357299,22.2764651 C32.1647299,22.4654651 31.9217299,22.5734651 31.6677299,22.5734651 L31.6677299,22.5734651 Z" id="Fill-136"></path>
                    <path d="M10.2684299,28.9447651 L21.9034299,28.9447651 C21.5514299,28.1137651 20.7274299,27.5287651 19.7704299,27.5287651 L12.4014299,27.5287651 C11.4434299,27.5287651 10.6204299,28.1137651 10.2684299,28.9447651 M22.9844299,30.7427651 L9.18742992,30.7427651 C8.69042992,30.7427651 8.28842992,30.3407651 8.28842992,29.8437651 C8.28842992,27.5757651 10.1334299,25.7307651 12.4014299,25.7307651 L19.7704299,25.7307651 C22.0374299,25.7307651 23.8834299,27.5757651 23.8834299,29.8437651 C23.8834299,30.3407651 23.4804299,30.7427651 22.9844299,30.7427651" id="Fill-137"></path>
                </g>
            </g>
            <g id="Group-25" transform="translate(684.9997, 49.9998)">
                <g id="車">
                    <g id="Group" transform="translate(37.199, 48.9665)">
                        <path d="M23.6457967,24.5612496 C23.9877967,27.0852496 24.6237967,27.9772496 24.9727967,28.2842496 C25.2837967,28.5582496 25.5457967,28.5432496 25.7777967,28.5132496 C26.1457967,28.3822496 26.9537967,27.3842496 26.5357967,24.2182496 L22.4517967,3.40524958 L23.6457967,24.5612496 Z M25.2377967,30.2872496 C23.4597967,30.0662496 22.3307967,28.2132496 21.8687967,24.7652496 C21.8657967,24.7422496 21.8637967,24.7192496 21.8627967,24.6962496 L20.5907967,2.16124958 C20.5367967,1.70124958 20.6257967,1.23724958 20.8417967,0.851249581 C21.1047967,0.382249581 21.5297967,0.0772495808 22.0087967,0.0122495808 C22.4817967,-0.0507504192 22.9697967,0.131249581 23.3477967,0.512249581 C23.6647967,0.831249581 23.8757967,1.25924958 23.9437967,1.72024958 L28.2957967,23.9002496 C28.2987967,23.9182496 28.3017967,23.9362496 28.3037967,23.9542496 C29.0697967,29.6732496 26.3807967,30.2332496 26.0717967,30.2782496 C25.7797967,30.3172496 25.5007967,30.3202496 25.2377967,30.2872496 L25.2377967,30.2872496 Z" id="Fill-10" fill="#009BDA"></path>
                        <path d="M34.4311967,37.7449496 L54.7521967,43.8189496 L35.4721967,35.0279496 C33.0791967,34.1559496 31.9941967,34.3029496 31.5591967,34.4689496 C31.1721967,34.6169496 31.0641967,34.8559496 30.9821967,35.0749496 C30.9261967,35.4619496 31.4341967,36.6419496 34.4311967,37.7449496 M56.0121967,46.0319496 C55.8561967,46.0129496 55.7001967,45.9759496 55.5491967,45.9229496 L33.8931967,39.4499496 C33.8751967,39.4449496 33.8581967,39.4399496 33.8411967,39.4329496 C28.4231967,37.4489496 29.1791967,34.8079496 29.2841967,34.5139496 C29.4131967,34.1599496 29.7471967,33.2469496 30.9211967,32.7989496 C32.1281967,32.3379496 33.8291967,32.5219496 36.1191967,33.3599496 C36.1411967,33.3679496 36.1621967,33.3769496 36.1831967,33.3859496 L56.7201967,42.7509496 C57.7221967,43.1359496 58.2781967,44.1409496 57.9611967,45.0059496 C57.7971967,45.4539496 57.4091967,45.8009496 56.8961967,45.9589496 C56.6141967,46.0449496 56.3111967,46.0689496 56.0121967,46.0319496" id="Fill-12" fill="#009BDA"></path>
                        <path d="M17.7599967,37.8298496 L2.92499668,52.9878496 L19.6799967,40.0158496 C21.5649967,38.3038496 21.9399967,37.2748496 21.9959967,36.8138496 C22.0449967,36.4018496 21.8839967,36.1948496 21.7289967,36.0208496 C21.4119967,35.7908496 20.1309967,35.6908496 17.7599967,37.8298496 M1.33699668,55.7588496 C0.969996681,55.7138496 0.631996681,55.5528496 0.380996681,55.2758496 C0.0599966812,54.9218496 -0.0660033188,54.4158496 0.0329966812,53.8888496 C0.116996681,53.4478496 0.349996681,53.0308496 0.690996681,52.7138496 L16.5009967,36.5598496 C16.5139967,36.5468496 16.5269967,36.5338496 16.5399967,36.5218496 C20.8189967,32.6498496 22.8039967,34.5488496 23.0159967,34.7788496 C24.5469967,36.4708496 23.8179967,38.6838496 20.8549967,41.3648496 C20.8379967,41.3808496 20.8199967,41.3948496 20.8019967,41.4088496 L2.95499668,55.2258496 C2.47499668,55.6468496 1.87499668,55.8258496 1.33699668,55.7588496" id="Fill-14" fill="#009BDA"></path>
                        <path d="M26.4129967,32.1471496 C25.6779967,32.0551496 25.0049967,32.5791496 24.9139967,33.3141496 C24.8219967,34.0491496 25.3459967,34.7221496 26.0809967,34.8131496 C26.8159967,34.9051496 27.4889967,34.3811496 27.5799967,33.6461496 C27.6719967,32.9111496 27.1479967,32.2391496 26.4129967,32.1471496 M25.8599967,36.5881496 C24.1459967,36.3751496 22.9259967,34.8071496 23.1389967,33.0931496 C23.3529967,31.3801496 24.9199967,30.1591496 26.6339967,30.3721496 C28.3479967,30.5861496 29.5679967,32.1531496 29.3549967,33.8671496 C29.1409967,35.5811496 27.5739967,36.8011496 25.8599967,36.5881496" id="Fill-16" fill="#009BDA"></path>
                        <line x1="23.3649967" y1="84.8861496" x2="27.9119967" y2="39.1211496" id="Stroke-24" stroke="#009BDA" stroke-width="2" stroke-linecap="round" stroke-linejoin="round"></line>
                        <line x1="16.4801967" y1="73.5406496" x2="14.4811967" y2="83.4446496" id="Stroke-26" stroke="#009BDA" stroke-width="2" stroke-linecap="round" stroke-linejoin="round"></line>
                        <line x1="23.2820967" y1="41.5891496" x2="18.1430967" y2="70.6171496" id="Stroke-28" stroke="#009BDA" stroke-width="2" stroke-linecap="round" stroke-linejoin="round"></line>
                    </g>
                    <g id="Group-2">
                        <line x1="21.6582683" y1="122.08271" x2="31.1102683" y2="46.0877095" id="Stroke-18" stroke="#009BDA" stroke-width="2" stroke-linecap="round" stroke-linejoin="round"></line>
                        <line x1="15.8525683" y1="104.08801" x2="12.7745683" y2="120.64101" id="Stroke-20" stroke="#009BDA" stroke-width="2" stroke-linecap="round" stroke-linejoin="round"></line>
                        <line x1="26.1414683" y1="50.6481095" x2="17.8524683" y2="99.0881095" id="Stroke-22" stroke="#009BDA" stroke-width="2" stroke-linecap="round" stroke-linejoin="round"></line>
                        <path d="M21.6887683,30.7116095 C23.2437683,33.7286095 24.4847683,34.7286095 25.2527683,35.0356095 C25.9217683,35.3036095 26.3727683,35.0936095 26.6767683,34.9386095 C26.8037683,34.8416095 28.3067683,33.5546095 25.8037683,28.6666095 L10.1397683,2.24760953 C10.1307683,2.23260953 10.1217683,2.21660953 10.1137683,2.20060953 C9.99376825,1.96560953 9.80476825,1.84260953 9.69276825,1.80260953 C9.66176825,1.91360953 9.65476825,2.13260953 9.77776825,2.37260953 C9.78876825,2.39260953 9.79776825,2.41360953 9.80676825,2.43460953 L21.6887683,30.7116095 Z M25.4727683,36.9276095 C25.1967683,36.8936095 24.9017683,36.8216095 24.5887683,36.6966095 C23.0337683,36.0746095 21.5597683,34.3746095 20.0827683,31.4986095 C20.0717683,31.4776095 20.0627683,31.4576095 20.0537683,31.4366095 L8.16976825,3.15560953 C7.60676825,2.02060953 7.91976825,0.663609532 8.86276825,0.178609532 L8.86376825,0.178609532 C9.80876825,-0.306390468 11.0977683,0.232609532 11.6907683,1.35660953 L27.3557683,27.7786095 C27.3647683,27.7946095 27.3737683,27.8096095 27.3817683,27.8256095 C30.8227683,34.5246095 27.8817683,36.3246095 27.5357683,36.5076095 C27.2087683,36.6746095 26.4737683,37.0526095 25.4727683,36.9276095 L25.4727683,36.9276095 Z" id="Fill-1" fill="#009BDA"></path>
                        <path d="M35.8332683,40.7215095 C35.8592683,40.8795095 36.3012683,42.8085095 41.7902683,42.8675095 L72.4642683,41.3025095 C72.4822683,41.3015095 72.4992683,41.3015095 72.5182683,41.3015095 C72.7812683,41.3045095 72.9782683,41.1945095 73.0652683,41.1145095 C72.9822683,41.0345095 72.7902683,40.9265095 72.5222683,40.9245095 C72.4982683,40.9235095 72.4762683,40.9225095 72.4532683,40.9205095 L41.8962683,38.2745095 C38.5012683,38.2455095 37.0392683,38.8785095 36.4092683,39.4155095 C35.8612683,39.8835095 35.8372683,40.3805095 35.8332683,40.7215095 M39.5392683,44.5145095 C34.2212683,43.8525095 34.0452683,41.0995095 34.0442683,40.7515095 C34.0732683,37.8675095 36.7322683,36.4365095 41.9472683,36.4865095 C41.9702683,36.4865095 41.9932683,36.4885095 42.0162683,36.4895095 L72.5762683,39.1365095 C73.8392683,39.1655095 74.8982683,40.0745095 74.8893252,41.1355095 L74.8893252,41.1355095 C74.8782683,42.1995095 73.8012683,43.0885095 72.5302683,43.0905095 L41.8542683,44.6555095 C41.8352683,44.6565095 41.8172683,44.6565095 41.7992683,44.6565095 C40.9582683,44.6485095 40.2072683,44.5975095 39.5392683,44.5145095" id="Fill-3" fill="#009BDA"></path>
                        <path d="M18.4153683,48.3417095 L1.98536825,74.2917095 C1.97636825,74.3067095 1.96636825,74.3217095 1.95536825,74.3367095 C1.80136825,74.5507095 1.77736825,74.7737095 1.79236825,74.8917095 C1.90536825,74.8697095 2.10336825,74.7757095 2.26136825,74.5577095 C2.27536825,74.5387095 2.28936825,74.5207095 2.30336825,74.5037095 L22.1053683,51.0797095 C24.0883683,48.3247095 24.4153683,46.7657095 24.3403683,45.9417095 C24.2743683,45.2237095 23.8833683,44.9167095 23.6063683,44.7167095 C23.4623683,44.6467095 21.6343683,43.8917095 18.4153683,48.3417095 M1.51136825,76.6747095 C1.22836825,76.6397095 0.959368254,76.5387095 0.722368254,76.3687095 C-0.140631746,75.7457095 -0.244631746,74.3537095 0.487368254,73.3147095 L16.9193683,47.3617095 C16.9283683,47.3467095 16.9393683,47.3317095 16.9493683,47.3167095 C21.3563683,41.2097095 24.2943683,43.0137095 24.6153683,43.2397095 C26.9533683,44.9267095 26.5873683,47.9247095 23.5353683,52.1537095 C23.5223683,52.1727095 23.5073683,52.1907095 23.4933683,52.2077095 L3.68936825,75.6337095 C3.12936825,76.3897095 2.27336825,76.7697095 1.51136825,76.6747095" id="Fill-5" fill="#009BDA"></path>
                        <path d="M29.5721683,38.3837095 C28.3981683,38.2377095 27.3241683,39.0737095 27.1781683,40.2477095 C27.0311683,41.4217095 27.8681683,42.4967095 29.0421683,42.6427095 C30.2161683,42.7887095 31.2901683,41.9527095 31.4361683,40.7787095 C31.5831683,39.6037095 30.7461683,38.5297095 29.5721683,38.3837095 M28.8211683,44.4167095 C26.6681683,44.1487095 25.1351683,42.1797095 25.4031683,40.0267095 C25.6711683,37.8747095 27.6401683,36.3407095 29.7931683,36.6087095 C31.9461683,36.8777095 33.4791683,38.8467095 33.2111683,40.9997095 C32.9431683,43.1517095 30.9741683,44.6847095 28.8211683,44.4167095" id="Fill-8" fill="#009BDA"></path>
                    </g>
                </g>
                <g id="wind" transform="translate(85.0003, 40)" fill="#FFBF27">
                    <path d="M13.0694,8.046 L33.1274,8.046 C33.6824,8.046 34.1334,7.596 34.1334,7.04 C34.1334,6.485 33.6824,6.034 33.1274,6.034 L13.0694,6.034 C11.9584,6.034 11.0574,5.134 11.0574,4.023 C11.0574,2.912 11.9584,2.011 13.0694,2.011 C13.6244,2.011 14.0754,1.561 14.0754,1.005 C14.0754,0.45 13.6244,0 13.0694,0 C10.8474,0 9.0464,1.801 9.0464,4.023 C9.0464,6.245 10.8474,8.046 13.0694,8.046" id="Fill-1"></path>
                    <path d="M4.023,16.075 L18.081,16.075 C18.636,16.075 19.087,15.625 19.087,15.069 C19.087,14.514 18.636,14.063 18.081,14.063 L4.023,14.063 C2.912,14.063 2.011,13.163 2.011,12.052 C2.011,10.941 2.912,10.04 4.023,10.04 C4.578,10.04 5.029,9.59 5.029,9.034 C5.029,8.479 4.578,8.029 4.023,8.029 C1.801,8.029 0,9.83 0,12.052 C0,14.274 1.801,16.075 4.023,16.075" id="Fill-4"></path>
                </g>
            </g>
            <path d="M840,221.999775 C748.141091,176.573896 594.292364,137.999775 419.997818,137.999775 C245.706545,137.999775 91.8589091,176.572893 0,221.997768" id="Stroke-1" stroke="#009BDA" stroke-width="2"></path>
        </g>
    </g>
</svg>