<?xml version="1.0" encoding="UTF-8"?>
<svg width="480px" height="160px" viewBox="0 0 480 160" version="1.1" xmlns="http://www.w3.org/2000/svg" xmlns:xlink="http://www.w3.org/1999/xlink">
    <title>Artboard</title>
    <g id="Artboard" stroke="none" stroke-width="1" fill="none" fill-rule="evenodd">
        <g id="Group-33" transform="translate(-60, 15)">
            <g id="illustration-01" transform="translate(303.0933, 75.7154) rotate(-0.5) translate(-303.0933, -75.7154)translate(132.7194, 35.7492)" stroke="#009BD9" stroke-linecap="round" stroke-linejoin="round">
                <g id="Group-6" transform="translate(0, -0)">
                    <path d="M30.656428,39.8541139 C30.7888207,40.5790881 30.2677455,41.2821149 29.4932125,41.4251274 C28.7179714,41.5681399 27.9809615,41.0973315 27.8457368,40.3723572 C27.7105121,39.6480909 28.2308794,38.9429402 29.0089523,38.7992197 C29.7863173,38.6554993 30.5240352,39.1284317 30.656428,39.8541139 Z" id="Stroke-1" stroke-width="1.75"></path>
                    <path d="M9.99713995,54.6801204 C8.5132083,47.7355185 7.77124247,44.2628635 6.28731081,37.3182616 C11.3465549,36.2378801 13.8790089,35.7182208 18.9502887,34.7213812 C20.5744009,42.9842468 22.1985131,51.2471125 23.8226253,59.5099781" id="Stroke-3" stroke-width="1.75"></path>
                    <path d="M9.51464977,36.6361203 C10.9695541,43.5870941 11.6966523,47.062581 13.1515567,54.0128467" id="Stroke-5" stroke-width="1.75"></path>
                    <path d="M12.6149058,35.9938384 C14.3069844,44.2432524 15.998355,52.4919584 17.6904335,60.7413723" id="Stroke-7" stroke-width="1.75"></path>
                    <path d="M15.7173567,35.3641587 C17.37616,43.6199445 19.0342554,51.8757303 20.6930588,60.1315161" id="Stroke-9" stroke-width="1.75"></path>
                    <path d="M4.39232442,78.0945937 C2.63511146,70.3959903 1.75650498,66.5466886 -1.7215554e-14,58.8480851 C5.348809,57.627523 8.02781538,57.0413134 13.392908,55.9170369 C15.0120643,63.6460836 15.8212885,67.510253 17.4404449,75.2392997" id="Stroke-11" stroke-width="1.75"></path>
                    <path d="M1.2124911,62.2716769 C3.93468443,61.652192 5.29684307,61.3484675 8.02399228,60.753762" id="Stroke-13" stroke-width="1.75"></path>
                    <path d="M10.1968619,60.2833784 C10.5260738,60.2125801 10.6910338,60.177181 11.0202457,60.1070907" id="Stroke-15" stroke-width="1.75"></path>
                    <path d="M2.11736374,66.2465039 C4.82539742,65.629851 6.18047623,65.3282504 8.89204982,64.7370849" id="Stroke-17" stroke-width="1.75"></path>
                    <path d="M11.0538041,64.2688251 C11.3816,64.1987349 11.545144,64.1633357 11.87294,64.0932454" id="Stroke-19" stroke-width="1.75"></path>
                    <path d="M3.02223638,70.2214018 C5.71540242,69.6082888 7.0634014,69.3081041 9.76081534,68.7197705" id="Stroke-21" stroke-width="1.75"></path>
                    <path d="M11.9107463,68.2542719 C12.2364183,68.1841816 12.3992543,68.1494905 12.7256343,68.0794002" id="Stroke-23" stroke-width="1.75"></path>
                    <path d="M3.92717982,74.1962288 C6.6061862,73.5866557 7.94639738,73.287887 10.6289437,72.7030934" id="Stroke-25" stroke-width="1.75"></path>
                    <path d="M12.7676177,72.2397895 C13.0918738,72.1704072 13.2540018,72.1357161 13.5775499,72.0663338" id="Stroke-27" stroke-width="1.75"></path>
                    <path d="M14.9650543,63.4217947 C22.4802902,61.8472413 26.245342,61.1081074 33.7888972,59.7261252 C34.6597159,64.4766889 35.0951253,66.8519707 35.9652359,71.6025343" id="Stroke-29" stroke-width="1.75"></path>
                    <path d="M31.4638114,66.4399248 C26.6750167,67.3404787 24.2827433,67.8098712 19.5052763,68.7890112 C19.3261567,67.9118207 19.2362429,67.4735795 19.0564153,66.5970969 C23.8480419,65.615125 26.2466872,65.1443165 31.0503495,64.2409306 C31.2160175,65.1202451 31.2981435,65.5606103 31.4638114,66.4399248 Z" id="Stroke-31" stroke-width="1.627"></path>
                    <path d="M24.333364,52.7215572 C30.8758318,51.4521442 34.1523755,50.8531909 40.7146668,49.7260825 C41.8828382,56.5305039 43.0510096,63.3342172 44.219181,70.1379306" id="Stroke-33" stroke-width="1.75"></path>
                    <path d="M25.5685106,55.856646 C25.6435567,56.2460364 25.6810798,56.4407317 25.756834,56.8301221" id="Stroke-35" stroke-width="1.75"></path>
                    <path d="M28.1024513,55.3713947 C28.1760815,55.7607851 28.2136046,55.9554804 28.2872348,56.3448708" id="Stroke-37" stroke-width="1.75"></path>
                    <path d="M30.6375956,54.8948515 C30.7105178,55.28495 30.746625,55.4796452 30.8188392,55.8690357" id="Stroke-39" stroke-width="1.75"></path>
                    <path d="M33.1740851,54.426875 C33.2455914,54.8169734 33.2809905,55.0116687 33.3524967,55.4017671" id="Stroke-41" stroke-width="1.75"></path>
                    <path d="M35.7119198,53.967465 C35.78201,54.3575635 35.8167012,54.5529667 35.8867915,54.9430651" id="Stroke-43" stroke-width="1.75"></path>
                    <path d="M38.2506748,53.5167633 C38.3193491,53.9075697 38.3540402,54.1022649 38.4220066,54.4930714" id="Stroke-45" stroke-width="1.75"></path>
                    <path d="M36.3398296,57.4696429 C36.4099199,57.8597413 36.444611,58.0551445 36.5147013,58.445243" id="Stroke-47" stroke-width="1.75"></path>
                    <path d="M38.8669029,57.0209943 C38.9355772,57.4118007 38.9695604,57.6064959 39.0382347,57.9973023" id="Stroke-49" stroke-width="1.75"></path>
                    <path d="M36.9678102,60.9717499 C37.0379005,61.3618483 37.0725916,61.5572516 37.1426819,61.94735" id="Stroke-51" stroke-width="1.75"></path>
                    <path d="M39.4829894,60.5252252 C39.5516637,60.9160317 39.5856469,61.1107269 39.6543212,61.5015333" id="Stroke-53" stroke-width="1.75"></path>
                    <path d="M37.5956492,64.4738569 C37.6657395,64.8639554 37.7004306,65.0593586 37.7705209,65.449457" id="Stroke-55" stroke-width="1.75"></path>
                    <path d="M40.0990759,64.0294562 C40.1677502,64.4202626 40.2017334,64.6149579 40.2704077,65.0057643" id="Stroke-57" stroke-width="1.75"></path>
                    <path d="M38.2236298,67.9759639 C38.2937201,68.3660624 38.3284113,68.5614656 38.3985016,68.9515641" id="Stroke-59" stroke-width="1.75"></path>
                    <path d="M40.7152332,67.5336872 C40.7839075,67.9244936 40.8178907,68.1191888 40.886565,68.5099953" id="Stroke-61" stroke-width="1.75"></path>
                    <path d="M41.1555276,52.29521 C43.0288497,50.824022 43.9697587,50.09126 45.8607804,48.6313997 C48.3599592,48.2200618 49.6095486,48.0197027 52.1115593,47.6288963 C53.1884009,54.5239394 54.2652425,61.4196905 55.3427922,68.3147337" id="Stroke-63" stroke-width="1.75"></path>
                    <path d="M43.542562,54.2625522 C45.2841993,53.9680314 46.155726,53.823603 47.8987793,53.5397019" id="Stroke-65" stroke-width="1.75"></path>
                    <path d="M50.1579519,53.1748785 C50.3894623,53.1380634 50.5055714,53.1196558 50.7370818,53.0821327" id="Stroke-67" stroke-width="1.75"></path>
                    <path d="M44.2421904,58.4031888 C45.974624,58.110792 46.8411948,57.9670715 48.5743363,57.6845864" id="Stroke-69" stroke-width="1.75"></path>
                    <path d="M50.8211901,57.3215329 C51.0519924,57.2847178 51.1666856,57.2663102 51.397488,57.2294951" id="Stroke-71" stroke-width="1.75"></path>
                    <path d="M44.9418189,62.5438962 C46.6643407,62.2529153 47.5259556,62.1099028 49.2498934,61.8288337" id="Stroke-73" stroke-width="1.75"></path>
                    <path d="M51.4843575,61.4681873 C51.7137438,61.4313722 51.828437,61.4129647 52.0571154,61.3768576" id="Stroke-75" stroke-width="1.75"></path>
                    <path d="M45.6414474,66.6845328 C47.3547654,66.3949679 48.2114244,66.2526634 49.9254504,65.9737182" id="Stroke-77" stroke-width="1.75"></path>
                    <path d="M52.1475956,65.6148418 C52.375566,65.5787347 52.4895512,65.5603271 52.7175217,65.52422" id="Stroke-79" stroke-width="1.75"></path>
                    <path d="M44.5368528,46.7687681 C43.6646182,41.5127049 43.2277929,38.8846732 42.3555582,33.62861 C48.4180138,32.6225666 51.4524274,32.1489262 57.5290426,31.2625319" id="Stroke-81" stroke-width="1.75"></path>
                    <path d="M44.5563223,33.0366657 C44.2986166,31.4557404 44.1697638,30.6656317 43.9120581,29.0847065 C49.2375037,28.2167197 51.9030584,27.8060898 57.2391237,27.0294328 C59.1846601,40.4025173 61.1301964,53.7756017 63.0757328,67.1486862" id="Stroke-83" stroke-width="1.75"></path>
                    <path d="M54.0512194,31.7780849 C53.5407639,28.38614 53.2858901,26.6905215 52.7754346,23.2992846" id="Stroke-85" stroke-width="1.75"></path>
                    <path d="M46.0929279,36.8284792 C48.2798863,36.4744879 49.3744275,36.3017401 51.5628019,35.9633244" id="Stroke-87" stroke-width="1.75"></path>
                    <path d="M54.0428652,35.5843413 C54.6920853,35.4859317 55.0170493,35.4370809 55.6662694,35.3407952" id="Stroke-89" stroke-width="1.75"></path>
                    <path d="M46.751635,40.8993795 C48.9272657,40.5475121 50.015435,40.3754723 52.1931897,40.0391806" id="Stroke-91" stroke-width="1.75"></path>
                    <path d="M54.6595889,39.6618258 C55.3052691,39.5641242 55.6281092,39.5159814 56.2744973,39.4196957" id="Stroke-93" stroke-width="1.75"></path>
                    <path d="M47.4104836,44.970209 C49.5747866,44.6197576 50.6565841,44.4491338 52.8230111,44.114258" id="Stroke-95" stroke-width="1.75"></path>
                    <path d="M55.2763126,43.7392395 C55.9184529,43.6422459 56.239877,43.5941031 56.8827252,43.4978175" id="Stroke-97" stroke-width="1.75"></path>
                    <path d="M60.8578355,49.8907593 C63.1106363,49.5636713 64.2377447,49.4050832 66.4919615,49.0949868" id="Stroke-99" stroke-width="1.75"></path>
                    <path d="M68.9068195,48.766766 C69.1921366,48.728535 69.3344411,48.7094194 69.6197581,48.6711884" id="Stroke-101" stroke-width="1.75"></path>
                    <path d="M61.4797275,54.1763199 C63.7197846,53.8513559 64.8398132,53.6927678 67.0819942,53.3847953" id="Stroke-103" stroke-width="1.75"></path>
                    <path d="M69.4830466,53.0586985 C69.7662397,53.0204674 69.9085442,53.0013519 70.1917373,52.9638288" id="Stroke-105" stroke-width="1.75"></path>
                    <path d="M62.1015486,58.4618098 C64.3288621,58.1389697 65.4425188,57.9810895 67.6719562,57.675241" id="Stroke-107" stroke-width="1.75"></path>
                    <path d="M70.0593445,57.3504894 C70.3411216,57.3129663 70.4820102,57.2938508 70.7637873,57.2563277" id="Stroke-109" stroke-width="1.75"></path>
                    <path d="M62.7233698,62.7472996 C64.9379396,62.4258755 66.0452244,62.2694113 68.2619181,61.9649788" id="Stroke-111" stroke-width="1.75"></path>
                    <path d="M70.6355716,61.6423511 C70.9159327,61.604828 71.0561133,61.5857125 71.3364744,61.5488974" id="Stroke-113" stroke-width="1.75"></path>
                    <path d="M60.0615674,46.4298569 C59.8675801,45.0981415 59.7712945,44.4326378 59.5773072,43.1009224 C63.3586426,42.5515278 65.2503723,42.2881583 69.0366636,41.7847826 C69.2136592,43.1186219 69.302865,43.7855416 69.4798607,45.1193809" id="Stroke-115" stroke-width="1.75"></path>
                    <path d="M60.0615674,46.4298569 C64.5572573,45.7756809 66.8072262,45.4655845 71.3099959,44.8786668 C72.2126738,51.7984894 73.1153517,58.7190199 74.0180296,65.6395504" id="Stroke-117" stroke-width="1.75"></path>
                    <path d="M81.6455516,58.4038968 C81.4034215,58.4853148 81.1478397,58.5433694 80.8809303,58.5752286 C78.8560999,58.8180666 77.0174689,57.4290047 76.7725069,55.4693087 C76.6790532,54.7245109 76.8326854,53.9988287 77.1718091,53.3786359 C76.6910889,52.8533127 76.361877,52.188517 76.2691312,51.4437193 C76.0645242,49.8068633 77.052868,48.2769128 78.5870665,47.6772515 C78.5743228,47.6361885 78.5693669,47.5937095 78.563703,47.5519386 C78.3265288,45.5908266 79.8125844,43.7975065 81.8777699,43.5575004 C83.9436633,43.3174943 85.8014098,44.7214239 86.0201764,46.6846598 C86.0237163,46.7122711 86.0272562,46.7476703 86.0230083,46.7766976 C87.7143789,46.9515693 89.0963611,48.2351418 89.2846845,49.9166007 C90.1505473,50.720869 90.732509,51.8125782 90.8634858,53.0522559 C91.1615465,55.8679029 89.0510502,58.396109 86.1490293,58.7239049" id="Stroke-119" stroke-width="1.75"></path>
                    <path d="M82.574354,48.636214 C83.3049921,54.925224 83.6703112,58.070083 84.4016573,64.3598009" id="Stroke-121" stroke-width="1.75"></path>
                    <path d="M86.4172839,49.6299385 C86.5716241,49.4529428 86.6487942,49.364445 86.8038424,49.1881573" id="Stroke-123" stroke-width="1.75"></path>
                    <path d="M80.1202737,51.144101 C81.3280921,52.0517348 81.9298774,52.5069676 83.130616,53.4195573 C83.9554158,52.4616567 84.3695856,51.9830604 85.2007573,51.0265759" id="Stroke-125" stroke-width="1.75"></path>
                    <path d="M81.0534657,54.4483977 C82.019154,55.1790358 82.5012902,55.5450628 83.4627306,56.2792408 C84.2846985,55.3213403 84.6967444,54.842744 85.5236682,53.8869674" id="Stroke-127" stroke-width="1.75"></path>
                    <path d="M100.526104,55.0823961 C100.332825,55.1255831 100.133882,55.1574423 99.9292746,55.1765578 C97.4499193,55.4101921 95.2473852,53.6621829 95.0073791,51.2649536 C94.9160493,50.3537799 95.1263202,49.4737575 95.5588976,48.7282518 C94.9875556,48.0733678 94.6059529,47.2521079 94.5146232,46.3416422 C94.3142641,44.3401752 95.5709333,42.5029602 97.4676188,41.819049 C97.4534592,41.7680742 97.4485033,41.7163915 97.4435474,41.6647088 C97.2141611,39.2667715 99.093147,37.1251239 101.632681,36.8971535 C104.171507,36.6698911 106.400944,38.4433877 106.602011,40.8441569 C106.604843,40.87814 106.608383,40.921327 106.602719,40.9567261 C108.666489,41.2257595 110.313964,42.837836 110.485296,44.8945257 C111.516119,45.9041089 112.188702,47.2563558 112.305519,48.7714387 C112.571013,52.2150664 109.906874,55.2232847 106.354925,55.5270092" id="Stroke-129" stroke-width="1.75"></path>
                    <path d="M102.318079,43.1118253 C103.006946,50.8033489 103.351026,54.6491107 104.039185,62.3406344" id="Stroke-131" stroke-width="1.75"></path>
                    <path d="M106.952958,44.4231508 C107.161813,44.2227917 107.265886,44.1222582 107.475449,43.9226071" id="Stroke-133" stroke-width="1.75"></path>
                    <path d="M99.2346728,46.0927155 C100.683205,47.2368155 101.40464,47.8109894 102.841844,48.9621692 C103.881871,47.8194852 104.404362,47.2495592 105.452176,46.1111231" id="Stroke-135" stroke-width="1.75"></path>
                    <path d="M100.270593,50.1505181 C101.427437,51.0716036 102.004443,51.5332083 103.154914,52.4585416 C104.189985,51.3165656 104.708936,50.7466395 105.751795,49.6089114" id="Stroke-137" stroke-width="1.75"></path>
                    <path d="M87.1309304,63.9065504 C87.0134053,63.7415905 86.9355272,63.5461872 86.9114558,63.3337924 C86.8427815,62.7213874 87.2321719,62.1571253 87.8205055,61.9921653 C87.6866968,61.8364091 87.5925351,61.6473777 87.5677557,61.4293191 C87.5033293,60.8523132 87.9295348,60.3347779 88.5157445,60.2696435 C88.537692,60.2675195 88.5667192,60.2646876 88.5893747,60.2689355 C88.9086749,59.5786524 89.5791344,59.063949 90.4060582,58.9747432 C91.5367065,58.8536782 92.5512457,59.5736965 92.8131992,60.6137231 C93.9523433,60.6016874 94.9293594,61.4349829 95.0433446,62.5620913 C95.0660001,62.782274 95.0539644,62.9975007 95.0121934,63.2035236" id="Stroke-139" stroke-width="1.75"></path>
                    <path d="M93.2693525,59.5789356 C93.4222767,58.1240312 94.6145195,56.9162128 96.1727894,56.7611646 C97.9618615,56.583461 99.5427868,57.849334 99.7063308,59.5761037 C99.7091627,59.604423 99.7119947,59.6327423 99.7070388,59.6617696 C99.9406731,59.5824755 100.184219,59.5307928 100.438385,59.5074294 C102.219669,59.3396375 103.787851,60.6147142 103.943607,62.3492718" id="Stroke-141" stroke-width="1.75"></path>
                    <path d="M58.7576049,4.83467199 C61.5088255,4.45094539 62.8844358,4.26474595 65.6384884,3.90438277" id="Stroke-143" stroke-width="1.75"></path>
                    <path d="M72.4805744,3.03936956 C82.2287877,1.84854273 91.9982404,0.835419539 101.783269,1.55624912e-13" id="Stroke-145" stroke-width="1.75"></path>
                    <path d="M70.9169947,28.590039 C70.2337914,28.6778288 69.5512962,28.7861502 68.864553,28.7004843 C67.5271737,28.5334004 66.455996,27.5316049 66.2889121,26.2834315 C66.1246601,25.0550816 66.8361827,23.9024858 67.9710789,23.3608791 C67.9993982,21.6291535 69.4089917,20.1161945 71.3247927,19.8740644 C71.9435696,19.7961864 72.5488947,19.8634447 73.0982893,20.0446883 C73.6760031,18.6393427 75.0586933,17.5561292 76.7819231,17.3508142 C79.2322511,17.0598334 81.4312452,18.6648301 81.6868269,20.9225868 C81.7293059,21.2956936 81.7165622,21.6603047 81.6485959,22.0100481 C81.6634635,22.0086322 81.6712513,22.0079242 81.686119,22.0058002 C83.2238573,21.8316365 84.5909718,22.8433437 84.74602,24.2571851 C84.8975283,25.6370433 83.8553778,26.8830928 82.3870218,27.1061073 C82.3502067,27.117435 82.3048958,27.1230989 82.2673727,27.1273468 C80.2368785,27.3574412 79.2216313,27.4756743 77.192553,27.7192203" id="Stroke-153" stroke-width="1.75"></path>
                    <path d="M82.3872342,27.1063905 C82.3872342,27.1092224 82.3879422,27.1106384 82.3879422,27.1134703 C82.3397994,27.1191342 82.3157279,27.1219661 82.2668771,27.126922 C82.3051082,27.1226741 82.3504191,27.1177182 82.3872342,27.1063905 Z" id="Stroke-155" stroke-width="1.75"></path>
                    <path d="M75.027896,28.050627 C74.5577955,28.1086816 74.3227453,28.1370009 73.8533528,28.1957634" id="Stroke-151" stroke-width="1.75"></path>
                </g>
                <g id="Group-8" transform="translate(228.8525, 10.3199)" stroke-width="1.75">
                    <path d="M3.73625047e-14,20.1788905 C1.33733406,20.2872081 2.00564712,20.3431369 3.34227322,20.4571182" id="Stroke-147"></path>
                    <path d="M9.66710584,21.0234144 C16.528642,21.6563296 23.3901781,22.3904828 30.2304755,23.2237502" id="Stroke-149"></path>
                    <path d="M11.5795856,49.2927026 C11.2794111,52.3043591 8.53677891,54.4940755 5.45291062,54.210184 C2.36904234,53.9262926 0.0745480556,51.2721552 0.329413203,48.256251 C0.584986309,45.2403468 3.32974235,43.0081528 6.45892,43.2962921 C9.58809764,43.5844313 11.8797601,46.2810461 11.5795856,49.2927026 Z" id="Stroke-157"></path>
                    <path d="M32.7326141,51.7045057 C32.3467765,54.7062507 29.541844,56.8180916 26.4650553,56.4464133 C23.3882666,56.074735 21.168108,53.3568814 21.5086362,50.3494726 C21.8484563,47.3420639 24.6576366,45.1884534 27.7797347,45.5650874 C30.9018328,45.9424294 33.1184516,48.7027606 32.7326141,51.7045057 Z" id="Stroke-159"></path>
                    <path d="M27.1948192,51.0145291 C22.7212279,50.4736486 20.4826623,50.2201994 16.0034074,49.7472829 C14.6618256,45.5200613 13.9786454,43.4075124 12.5882144,39.1859544 C17.1297697,39.639048 19.3994855,39.8825858 23.9360851,40.4036434 C25.2635077,44.6457322 25.9155377,46.7674846 27.1948192,51.0145291 Z" id="Stroke-161"></path>
                    <path d="M9.23206519,36.6346835 C10.6628498,36.7706115 11.3778881,36.8399915 12.8079648,36.9829992 C12.7201779,37.8644078 12.6755765,38.3047581 12.5877896,39.1861668 C9.90533395,43.0013564 8.57932723,44.9149689 5.95634009,48.7535212" id="Stroke-163"></path>
                    <path d="M25.4075065,40.5740491 C23.6291142,40.3666172 22.739918,40.2653791 20.9615256,40.0678586 C21.023826,39.5043234 21.0549762,39.2225559 21.1172766,38.6590207 C22.8999167,38.8565412 23.7905288,38.9584872 25.571753,39.1666271 C25.5059128,39.7294543 25.4733467,40.0112219 25.4075065,40.5740491 Z" id="Stroke-165"></path>
                    <path d="M92.5268095,63.2630649 C89.2836505,62.4227178 87.2043756,59.2744253 87.8571136,56.0645404 C89.034449,50.2769776 89.6234707,47.3835503 90.8008061,41.5959875 C91.4726589,38.2912361 94.8843121,36.1928464 98.4156103,36.9418668 L98.4156103,36.9418668 C101.946201,37.6908871 104.2145,40.9949306 103.486719,44.2876467 C102.212393,50.0546786 101.57523,52.9374866 100.300904,58.7045185 C99.7550682,61.1738786 97.7295983,62.9473153 95.3182908,63.3756303" id="Stroke-167"></path>
                    <path d="M94.3697677,55.8986656 C93.3998642,60.4685393 92.9156204,62.7531222 91.9457169,67.3222879" id="Stroke-169"></path>
                    <path d="M94.9275684,53.2696608 C94.8907545,53.4431107 94.8723476,53.5294817 94.8355337,53.7022236" id="Stroke-171"></path>
                    <path d="M80.7729244,61.4463011 L80.7729244,61.4463011 C77.0547251,60.7199355 74.5804093,57.2360705 75.2508462,53.6254809 C75.5743834,51.8846104 75.7365059,51.0138211 76.0600431,49.2722426 C76.731188,45.662361 80.3651402,43.3062743 84.1711264,44.0496309 C86.3530553,44.4758221 88.1066691,45.8258994 89.0602895,47.5780973" id="Stroke-173"></path>
                    <path d="M86.0758186,60.3776374 C85.2659138,60.9277214 84.3342401,61.3078952 83.3423899,61.4785133" id="Stroke-175"></path>
                    <path d="M81.9403484,55.6361545 C81.2153987,59.3479822 80.8529238,61.2035421 80.1272661,64.9153698" id="Stroke-177"></path>
                    <path d="M82.4984323,52.779895 C82.4743617,52.9030798 82.4623264,52.9646722 82.4382558,53.088565" id="Stroke-179"></path>
                    <path d="M102.960564,67.0189984 C100.501823,66.4604189 98.6016618,64.7740612 97.7167134,62.6537248" id="Stroke-181"></path>
                    <path d="M101.528151,53.5826494 C102.910086,53.0148665 104.498038,52.8534519 106.095901,53.2166347 C110.103655,54.1270697 112.614785,57.9833209 111.711429,61.7864753 C111.074975,64.4675151 108.934107,66.4108618 106.355722,67.0133347" id="Stroke-183"></path>
                    <path d="M103.982148,62.5214781 C103.337906,65.3575608 103.015785,66.7756022 102.371542,69.6123928" id="Stroke-185"></path>
                    <path d="M104.6094,59.7599434 C104.593825,59.8293234 104.586037,59.8633054 104.570462,59.9326853" id="Stroke-187"></path>
                    <path d="M59.184289,38.671056 C58.0097854,45.9665708 56.8345739,53.2620857 55.6593624,60.5568926" id="Stroke-189"></path>
                    <path d="M73.7014077,41.1510355 C72.3874363,48.4224797 71.0727569,55.693924 69.7587855,62.9653682" id="Stroke-191"></path>
                    <path d="M43.4813393,36.6630726 C43.0593959,39.676853 42.8484241,41.1833892 42.4264807,44.1971696" id="Stroke-193"></path>
                    <path d="M60.3177309,27.4424056 C53.9022088,30.1730024 47.5199607,33.0133329 41.1971812,35.9527776 C52.7815101,37.5534723 64.3403525,39.3708024 75.8390184,41.4996344 C70.7438393,36.7343641 65.5629972,32.0427215 60.3177309,27.4424056 Z" id="Stroke-195"></path>
                    <path d="M65.7664646,32.497585 C61.5144644,34.6865934 59.4047473,35.7959647 55.2164634,38.0430258" id="Stroke-197"></path>
                    <path d="M56.7439552,51.4419945 C49.5022452,50.268199 42.230093,49.2098006 34.9551089,48.2703394 C36.6152722,46.6123 37.4499555,45.7854042 39.1271098,44.1365683 C46.519615,45.1390379 50.2109119,45.685582 57.5835942,46.869289" id="Stroke-199"></path>
                    <path d="M42.0460237,44.7312536 C40.4318778,46.3057539 39.6283446,47.0951279 38.0297738,48.6781236" id="Stroke-201"></path>
                    <path d="M45.5642247,45.2305769 C43.9422912,46.7972896 43.1352182,47.5831238 41.5288598,49.15904" id="Stroke-203"></path>
                    <path d="M49.080585,45.7463957 C47.4515719,47.3060288 46.6402512,48.0876152 45.0268132,49.6557438" id="Stroke-205"></path>
                    <path d="M52.5951753,46.2787098 C50.9583747,47.8305554 50.1435142,48.6086021 48.5222887,50.1689431" id="Stroke-207"></path>
                    <path d="M56.1076418,46.8275195 C54.4630537,48.3715775 53.6453613,49.1460843 52.0163483,50.6986379" id="Stroke-209"></path>
                    <path d="M41.6196202,49.9611572 C41.1544913,53.2843156 40.9215728,54.9466027 40.4564439,58.2697611" id="Stroke-211"></path>
                    <path d="M38.1227287,49.4800993 C37.6731749,52.8053815 37.4480441,54.4683766 36.9984903,57.7943668" id="Stroke-213"></path>
                    <path d="M43.7781864,58.7422527 C44.1357055,56.267229 44.3148191,55.0290091 44.6730462,52.5539853 C47.11338,52.9065488 48.332485,53.0877862 50.7699869,53.4608805 C50.3919369,55.9330724 50.202912,57.1691684 49.824862,59.6413603" id="Stroke-215"></path>
                    <path d="M47.220211,56.3759714 C47.6003848,56.4326081 47.7901178,56.4609265 48.1702916,56.5175632" id="Stroke-217"></path>
                    <path d="M69.4770887,49.3299412 C65.9457905,48.7048137 64.1787255,48.4025153 60.6424716,47.8198652 C61.0268932,45.4892651 61.21875,44.3246729 61.6031716,41.9940727 C65.1670359,42.5816785 66.9482601,42.8861008 70.5064607,43.516184 C70.0944287,45.8418285 69.8891207,47.0042968 69.4770887,49.3299412 Z" id="Stroke-219"></path>
                    <path d="M61.5761984,44.9818002 C64.859711,45.5255125 66.5000514,45.8058642 69.7786084,46.3856824" id="Stroke-221"></path>
                    <path d="M65.6788193,45.6723432 C65.5096171,46.6599456 65.42537,47.1541008 65.2561679,48.1424112" id="Stroke-223"></path>
                    <path d="M67.4208934,60.9419513 C63.9448159,60.3267352 62.2046533,60.0293925 58.7236202,59.455238 C59.1958287,56.589421 59.4322869,55.1565125 59.9052033,52.2906955 C63.4202185,52.8705137 65.1766641,53.1706882 68.6867236,53.791568 C68.1805331,56.6517213 67.9270839,58.081798 67.4208934,60.9419513 Z" id="Stroke-225"></path>
                    <path d="M59.7608506,55.9465944 C62.996222,56.4818112 64.6131998,56.7586231 67.8436155,57.3299458" id="Stroke-227"></path>
                    <path d="M63.8037197,56.6270844 C63.5955799,57.8419416 63.4915099,58.4493702 63.284078,59.6642274" id="Stroke-229"></path>
                    <path d="M29.298731,1.75518452 C29.1996168,2.60969072 28.3592697,3.21428749 27.4219323,3.10738572 C26.4853029,3.00048395 25.8028307,2.22314525 25.8984051,1.36793109 C25.9939796,0.513424884 26.8336186,-0.0947116759 27.7744958,0.0121900942 C28.715373,0.119091864 29.3978452,0.900678316 29.298731,1.75518452 Z" id="Stroke-231"></path>
                    <path d="M103.384702,4.97859147 C103.207712,5.82035442 102.305773,6.34353593 101.368435,6.14884727 C100.431806,5.95415862 99.8123421,5.11522751 99.985792,4.2727566 C100.158534,3.4302857 101.061889,2.9035644 102.002058,3.09896101 C102.942228,3.29435762 103.561692,4.13682852 103.384702,4.97859147 Z" id="Stroke-233"></path>
                    <path d="M81.9145787,35.9444237 C81.7538721,36.7897264 80.8944102,37.3355626 79.9953026,37.1663605 C79.096195,36.9971583 78.4937221,36.1766342 78.6508889,35.3306235 C78.8080557,34.4853207 79.6682256,33.9352368 80.570873,34.1051469 C81.4742284,34.275057 82.0752853,35.099121 81.9145787,35.9444237 Z" id="Stroke-235"></path>
                    <path d="M76.8273288,18.3474012 C76.1958296,18.2341278 75.879372,18.1774911 75.2478728,18.0656336" id="Stroke-237"></path>
                    <path d="M71.2868437,17.4053205 C70.3664973,17.2467377 69.4397793,17.1164733 68.5831492,16.7355915 C66.9151984,15.9943587 65.9212243,14.2895941 66.1952044,12.6251831 C66.4649367,10.9876745 67.8412085,9.79122421 69.5296901,9.54627048 C70.2489761,7.33956308 72.6793985,5.95904353 75.2669877,6.41142917 C76.102379,6.55726867 76.8634347,6.88434561 77.5055533,7.33602329 C78.8152769,5.76718671 81.0467629,4.93391927 83.3709914,5.36294227 C86.6757428,5.97391067 88.8916537,8.91335537 88.3160833,11.9030651 C88.2212168,12.3965124 88.0576783,12.8573935 87.8290076,13.2772131 C87.8495384,13.2807528 87.8594499,13.2828767 87.8799807,13.2871245 C89.9458043,13.6842893 91.3128726,15.5306457 90.9440261,17.4003648 C90.5836751,19.2240665 88.731655,20.3943223 86.7394591,20.0884841 C86.6870702,20.0877762 86.6261857,20.0764488 86.5759207,20.0665374 C83.8524034,19.5426479 82.4902908,19.2870748 79.7639416,18.787256" id="Stroke-239"></path>
                    <path d="M86.7396715,20.0882717 C86.7389636,20.0918115 86.7389636,20.0939354 86.7382556,20.0974752 C86.6731234,20.0854399 86.6405573,20.0790683 86.5754251,20.066325 C86.6263981,20.0762364 86.6872826,20.0875638 86.7396715,20.0882717 Z" id="Stroke-241"></path>
                </g>
            </g>
            <g id="Group-23" transform="translate(64.8571, 73.5713)">
                <path d="M33.6411573,44.629364 C35.1211396,44.2081919 36.6620983,45.0662158 37.0832704,46.5461982 C37.5044426,48.025745 36.6459831,49.5667036 35.1664363,49.9878758 C33.686454,50.4090479 32.1454953,49.551024 31.7243232,48.0714772 C31.303151,46.5914949 32.1611749,45.0505362 33.6411573,44.629364 Z" id="Stroke-1" stroke="#009BDA" stroke-width="1.5" stroke-linecap="round" stroke-linejoin="round"></path>
                <path d="M52.5863686,39.2371411 C54.0663509,38.815969 55.6073096,39.6739929 56.0284817,41.1539753 C56.4496539,42.6335221 55.5911944,44.1744807 54.1116476,44.5956529 C52.6316653,45.016825 51.0907066,44.1588011 50.6695345,42.6792543 C50.2483624,41.1992719 51.1063863,39.6583133 52.5863686,39.2371411 Z" id="Stroke-3" stroke="#009BDA" stroke-width="1.5" stroke-linecap="round" stroke-linejoin="round"></path>
                <path d="M31.7244103,48.071303 L27.774887,49.195445 L25.5823529,41.4915227 C28.0549426,36.9810174 32.2318203,33.6490971 37.1791775,32.2409797 L37.2279585,32.2274778 C41.440551,31.0284221 46.1575047,32.2039584 50.0486649,34.2144347 L55.6345312,34.1081617 C57.2068491,34.0781091 58.6019001,35.1107866 59.0322187,36.6234348 L60,40.0233001 L56.028264,41.1539753" id="Stroke-5" stroke="#009BDA" stroke-width="1.5" stroke-linecap="round" stroke-linejoin="round"></path>
                <path d="M29.3924581,36.6125462 L31.3376026,37.7214441 C32.6986812,38.49715 34.3149891,38.6927097 35.8219753,38.2636978 L50.0490569,34.2144347" id="Stroke-7" stroke="#009BDA" stroke-width="1.5" stroke-linecap="round" stroke-linejoin="round"></path>
                <line x1="37.0831833" y1="46.5460675" x2="50.669578" y2="42.6792978" id="Stroke-9" stroke="#009BDA" stroke-width="1.5" stroke-linecap="round" stroke-linejoin="round"></line>
                <line x1="41.7988304" y1="40.8990507" x2="43.7095669" y2="40.3550548" id="Stroke-11" stroke="#009BDA" stroke-width="1.5" stroke-linecap="round" stroke-linejoin="round"></line>
                <path d="M3.03304916,28.2735121 L6.71688986,27.3497208 C7.66158724,27.1132198 8.61891543,27.6868328 8.85585198,28.6310946 L9.68861427,31.9534329 C9.92555082,32.8981302 9.35193789,33.8554584 8.4072405,34.092395 L4.72339981,35.0161862 L3.03304916,28.2735121 Z" id="Stroke-13" stroke="#009BDA" stroke-width="1.5" stroke-linecap="round" stroke-linejoin="round"></path>
                <line x1="4.38541679" y1="33.6675207" x2="1.01429749" y2="34.5129138" id="Stroke-15" stroke="#009BDA" stroke-width="1.5" stroke-linecap="round" stroke-linejoin="round"></line>
                <line x1="3.37111929" y1="29.6220033" x2="0" y2="30.4673964" id="Stroke-17" stroke="#009BDA" stroke-width="1.5" stroke-linecap="round" stroke-linejoin="round"></line>
                <path d="M8.85585198,28.6313124 L14.4887571,27.2963666 C14.4887571,27.2963666 17.7553456,27.0598656 18.8442084,31.1561675 L22.3285694,44.7029276 C22.3285694,44.7029276 22.6687302,46.2983294 24.3499344,47.3087941 L27.0211326,46.5461546" id="Stroke-19" stroke="#009BDA" stroke-width="1.5" stroke-linecap="round" stroke-linejoin="round"></path>
                <path d="M26.8382903,13.4106358 L31.3047633,13.4106358 C31.4828212,13.4106358 31.6488583,13.4992891 31.7487811,13.6465437 C31.8487038,13.7937983 31.8682376,13.9816231 31.8021233,14.1461576 L29.0395966,21.0220468 L35.6036966,12.1837644 L31.0177671,12.1837644 C30.8457196,12.1837644 30.6841903,12.1011215 30.5835162,11.9621312 C30.4828421,11.8231408 30.4542928,11.6443317 30.5083863,11.4805485 L32.8952634,4.19369868 L26.8382903,13.4106358 Z M26.9938092,25.2112905 C26.9044046,25.2112905 26.8142487,25.1895028 26.7323571,25.1429222 C26.4972005,25.0114449 26.3965265,24.7259512 26.4964492,24.4757687 L30.5113915,14.4827396 L25.8443216,14.4827396 C25.6474813,14.4827396 25.4664182,14.3745525 25.3725058,14.2010024 C25.2793447,14.0274523 25.2883603,13.8170886 25.3965474,13.6525541 L34.2092855,0.24111422 C34.3572914,0.0164757952 34.6487955,-0.0631619073 34.8899625,0.0532894501 C35.1318808,0.169740808 35.250586,0.446970168 35.1671918,0.702411855 L31.7570453,11.1116606 L36.6690387,11.1116606 C36.8718894,11.1116606 37.056709,11.2258581 37.1483675,11.4069212 C37.2392747,11.5879842 37.2204922,11.8043584 37.099533,11.9673903 L27.4243036,24.9949163 C27.319873,25.1354092 27.1583437,25.2112905 26.9938092,25.2112905 L26.9938092,25.2112905 Z" id="Fill-21" stroke="#FFBF27" stroke-width="0.5" fill="#FFBF27"></path>
            </g>
            <g id="Group-30" transform="translate(255, 0)" stroke="#009BDA">
                <g id="屋" stroke-linecap="round" stroke-width="2">
                    <path d="M29.0302143,23.0696964 L29.035218,21.6475535 C29.0380714,17.1889821 27.4016429,12.8739821 24.3966429,9.57969639 C22.5023571,7.50255353 19.0445,5.29183924 19.0445,5.29183924" id="Stroke-1" stroke-linejoin="round"></path>
                    <path d="M29.0351403,23.0696964 C29.033,19.3982678 30.3808571,15.8439821 32.8551429,13.1318392 C34.4151429,11.421125 36.4015714,9.91326781 38.8187143,8.79326781" id="Stroke-3" stroke-linejoin="round"></path>
                    <path d="M19.606,0.576553528 C21.7117143,1.05869639 23.9202857,1.92012496 25.746,3.4279821 C27.2567143,4.67583924 27.9152857,6.12012496 28.1552857,7.42083924 C28.8424286,11.1479821 26.0874286,14.485125 22.296,14.5144107 C20.9731429,14.525125 19.4302857,14.1508392 17.9195714,12.9029821 C13.9674286,9.63869639 12.6517143,4.03512496 12.2424286,1.46441067 C12.1238571,0.718696386 12.686,0.0372678142 13.441,0.0129820999 C14.3888571,-0.0177321858 15.7545714,-0.00558932864 17.2988571,0.179410671" id="Stroke-5" stroke-linejoin="round"></path>
                    <path d="M40.6949286,14.0388392 C43.5485,11.5452678 44.8185,7.63312496 45.2906429,5.73669639 C45.4406429,5.13312496 45.0277857,4.53455353 44.4099286,4.4609821 C42.2813571,4.20741067 37.5456429,3.99169639 34.0713571,6.39026781 C32.7435,7.30741067 32.1006429,8.44526781 31.8113571,9.4959821 C30.9835,12.5052678 33.0077857,15.4388392 36.1163571,15.7316964 C36.8977857,15.8052678 37.7870714,15.723125 38.7199286,15.3288392" id="Stroke-7" stroke-linejoin="round"></path>
                    <g id="Group-31" transform="translate(0, 24.2857)" stroke-linejoin="bevel">
                        <g id="Group-7" transform="translate(0, 10.9233)">
                            <polyline id="Stroke-1" points="14.4447857 62.8571429 14.4447857 0 43.0719286 0 43.0719286 62.8474861"></polyline>
                            <polyline id="Stroke-3" points="44.375 19.4533571 64.1657143 19.4533571 64.1657143 63.0247857"></polyline>
                            <polyline id="Stroke-5" points="0 64.6234286 0 31.7662857 13.2364286 31.7662857"></polyline>
                        </g>
                        <polyline id="Stroke-8" points="19.9386429 10.2092143 19.9386429 4.51992857 37.9715 4.51992857 37.9715 10.0835"></polyline>
                        <polyline id="Stroke-9" points="23.7360714 3.86714286 23.7360714 0 33.8282143 0 33.8282143 3.80571429"></polyline>
                        <polyline id="Stroke-11" points="48.7360714 29.5814286 48.7360714 25 58.8282143 25 58.8282143 29.52"></polyline>
                        <line x1="19.4657143" y1="22.486" x2="25.1942857" y2="22.486" id="Stroke-12"></line>
                        <line x1="32.3228571" y1="22.486" x2="38.0514286" y2="22.486" id="Stroke-13"></line>
                        <line x1="19.4657143" y1="30.5812857" x2="25.1942857" y2="30.5812857" id="Stroke-14"></line>
                        <line x1="32.3228571" y1="30.5812857" x2="38.0514286" y2="30.5812857" id="Stroke-15"></line>
                        <line x1="19.4657143" y1="38.6765" x2="25.1942857" y2="38.6765" id="Stroke-16"></line>
                        <line x1="32.3228571" y1="38.6765" x2="38.0514286" y2="38.6765" id="Stroke-17"></line>
                        <line x1="19.4657143" y1="46.7717143" x2="25.1942857" y2="46.7717143" id="Stroke-18"></line>
                        <line x1="32.3228571" y1="46.7717143" x2="38.0514286" y2="46.7717143" id="Stroke-19"></line>
                        <path d="M23.1947857,73.401 L23.1947857,58.9748837 C23.1947857,58.9748837 23.8055,54.1152857 28.8055,54.1152857 C33.8055,54.1152857 35.0212143,58.5989438 35.0212143,58.5989438 L35.0212143,73.401" id="Stroke-20"></path>
                        <line x1="49.8772143" y1="37.1637857" x2="49.8772143" y2="68.5923571" id="Stroke-22"></line>
                        <line x1="57.0200714" y1="37.1637857" x2="57.0200714" y2="68.5923571" id="Stroke-24"></line>
                        <line x1="4.156" y1="50.266" x2="9.88457143" y2="50.266" id="Stroke-26"></line>
                        <line x1="4.156" y1="57.6469286" x2="9.88457143" y2="57.6469286" id="Stroke-28"></line>
                        <line x1="4.156" y1="64.7897857" x2="9.88457143" y2="64.7897857" id="Stroke-28-Copy"></line>
                    </g>
                </g>
                <g id="板" transform="translate(72.6925, 76.744)" fill="#009BDA" stroke-width="0.2">
                    <path d="M7.44944994,16.1240465 C7.4365928,16.1240465 7.42444994,16.1240465 7.41087852,16.1226179 C7.05730709,16.1019036 6.78730709,15.7983322 6.80802137,15.4440465 L7.68373566,0.604760758 C7.70516423,0.250475044 7.99944994,-0.0202392419 8.36302137,0.00118932955 C8.71730709,0.0219036153 8.98730709,0.32618933 8.9665928,0.680475044 L8.09016423,15.5197608 C8.07016423,15.8611893 7.7865928,16.1240465 7.44944994,16.1240465" id="Fill-126"></path>
                    <path d="M15.5783071,16.1240465 C15.2411642,16.1240465 14.9575928,15.8611893 14.9375928,15.5197608 L14.0611642,0.680475044 C14.0404499,0.32618933 14.3104499,0.0219036153 14.6647357,0.00118932955 C15.0197357,-0.0195249562 15.3225928,0.250475044 15.3440214,0.604760758 L16.2197357,15.4440465 C16.2404499,15.7983322 15.9704499,16.1019036 15.6168785,16.1226179 C15.6040214,16.1240465 15.5911642,16.1240465 15.5783071,16.1240465" id="Fill-128"></path>
                    <path d="M21.5991642,6.3556179 L1.66273566,6.3556179 C1.30773566,6.3556179 1.01987852,6.06847504 1.01987852,5.71347504 C1.01987852,5.35847504 1.30773566,5.07133219 1.66273566,5.07133219 L21.5991642,5.07133219 C21.9541642,5.07133219 22.2413071,5.35847504 22.2413071,5.71347504 C22.2413071,6.06847504 21.9541642,6.3556179 21.5991642,6.3556179" id="Fill-130"></path>
                    <path d="M22.1367357,11.5001893 L1.12530709,11.5001893 C0.770307087,11.5001893 0.48316423,11.2123322 0.48316423,10.8580465 C0.48316423,10.5030465 0.770307087,10.2159036 1.12530709,10.2159036 L22.1367357,10.2159036 C22.4917357,10.2159036 22.7788785,10.5030465 22.7788785,10.8580465 C22.7788785,11.2123322 22.4917357,11.5001893 22.1367357,11.5001893" id="Fill-132"></path>
                    <path d="M11.1696642,18.3794036 L11.8096642,18.3794036 L11.8096642,16.1244036 L11.1696642,16.1244036 L11.1696642,18.3794036 Z M12.4518071,19.6636893 L10.5275214,19.6636893 C10.1732357,19.6636893 9.88537852,19.3765465 9.88537852,19.0215465 L9.88537852,15.4822608 C9.88537852,15.1272608 10.1732357,14.8394036 10.5275214,14.8394036 L12.4518071,14.8394036 C12.8068071,14.8394036 13.0939499,15.1272608 13.0939499,15.4822608 L13.0939499,19.0215465 C13.0939499,19.3765465 12.8068071,19.6636893 12.4518071,19.6636893 L12.4518071,19.6636893 Z" id="Fill-134"></path>
                    <path d="M1.35480709,14.8396179 L21.9069499,14.8396179 L20.4912357,1.2846179 L2.77123566,1.2846179 L1.35480709,14.8396179 Z M22.6198071,16.1239036 L0.641949944,16.1239036 C0.460521373,16.1239036 0.286949944,16.0467608 0.164807087,15.9117608 C0.0433785157,15.7767608 -0.0151929129,15.5960465 0.00337851566,15.4153322 L1.55337852,0.575332187 C1.58766423,0.24818933 1.86337852,0.000332186693 2.19194994,0.000332186693 L21.0698071,0.000332186693 C21.3983785,0.000332186693 21.6740928,0.24818933 21.7083785,0.575332187 L23.2583785,15.4153322 C23.2769499,15.5960465 23.2183785,15.7767608 23.0969499,15.9117608 C22.9748071,16.0467608 22.8012357,16.1239036 22.6198071,16.1239036 L22.6198071,16.1239036 Z" id="Fill-136"></path>
                    <path d="M7.3345928,20.6748322 L15.6453071,20.6748322 C15.3938785,20.0812608 14.8053071,19.6634036 14.1217357,19.6634036 L8.85816423,19.6634036 C8.17387852,19.6634036 7.58602137,20.0812608 7.3345928,20.6748322 M16.4174499,21.9591179 L6.56244994,21.9591179 C6.20744994,21.9591179 5.92030709,21.671975 5.92030709,21.316975 C5.92030709,19.696975 7.23816423,18.3791179 8.85816423,18.3791179 L14.1217357,18.3791179 C15.7410214,18.3791179 17.0595928,19.696975 17.0595928,21.316975 C17.0595928,21.671975 16.7717357,21.9591179 16.4174499,21.9591179" id="Fill-137"></path>
                </g>
            </g>
            <g id="Group-25" transform="translate(480.2855, 50.8596)">
                <g id="車" transform="translate(0, 3.8546)" stroke="#009BDA">
                    <g id="Group" transform="translate(18.7347, 27.6613)">
                        <g id="Group-4" fill="#009BDA" stroke-width="0.5">
                            <path d="M11.9088737,12.3699287 C12.0811172,13.6411059 12.4014297,14.0903492 12.5771987,14.2449655 C12.7338294,14.3829617 12.8657821,14.3754072 12.9826256,14.3602981 C13.1679637,14.2943218 13.5749015,13.7916931 13.3643817,12.1971816 L11.3075324,1.71500617 L11.9088737,12.3699287 Z M12.7106622,15.2537483 C11.8151974,15.1424447 11.2465924,14.2092073 11.0139126,12.4726705 C11.0124017,12.4610868 11.0113944,12.4495032 11.0108908,12.4379196 L10.3702658,1.08848303 C10.3430695,0.856810482 10.3878931,0.623123392 10.4966785,0.428719908 C10.6291347,0.192514638 10.84318,0.0389056675 11.0844216,0.0061693295 C11.3226415,-0.0255597366 11.5684158,0.0661020098 11.7587902,0.257987314 C11.9184428,0.418647188 12.02471,0.634203383 12.0589572,0.866379565 L14.250781,12.0370254 C14.2522919,12.0460908 14.2538028,12.0551563 14.2548101,12.0642217 C14.6405952,14.9445158 13.2863181,15.226552 13.1306946,15.2492156 C12.9836329,15.2688574 12.8431185,15.2703683 12.7106622,15.2537483 L12.7106622,15.2537483 Z" id="Fill-10"></path>
                            <path d="M17.3407891,19.0097143 L27.5751756,22.0687991 L17.8650742,17.6413353 C16.6598733,17.2021648 16.1134283,17.2761993 15.8943466,17.3598028 C15.6994395,17.434341 15.6450468,17.55471 15.6037487,17.6650062 C15.575545,17.8599133 15.8313921,18.4542038 17.3407891,19.0097143 M28.209757,23.1833455 C28.1311898,23.1737765 28.0526225,23.1551419 27.9765735,23.1284492 L17.069833,19.8684136 C17.0607675,19.8658954 17.0522057,19.8633772 17.0436439,19.8598518 C14.3149442,18.860638 14.695693,17.5305354 14.7485748,17.3824665 C14.8135438,17.2041793 14.9817582,16.7443597 15.5730269,16.5187308 C16.1809155,16.2865546 17.0376003,16.3792236 18.1909266,16.8012705 C18.2020066,16.8052996 18.212583,16.8098324 18.2231593,16.8143651 L28.5663312,21.5309159 C29.0709745,21.7248158 29.3509961,22.2309699 29.1913435,22.666615 C29.1087472,22.892244 28.9133364,23.0670056 28.6549712,23.1465801 C28.5129458,23.1898928 28.3603441,23.2019801 28.209757,23.1833455" id="Fill-12"></path>
                            <path d="M8.94457314,19.052473 L1.47313354,26.686587 L9.9115542,20.1534212 C10.860908,19.2911964 11.0497715,18.772955 11.0779751,18.5407788 C11.1026533,18.3332808 11.0215679,18.2290282 10.9435043,18.1413955 C10.7838517,18.0255592 10.138694,17.9751956 8.94457314,19.052473 M0.673359619,28.0821623 C0.488525219,28.0594986 0.318296261,27.9784132 0.191883633,27.8389061 C0.0302164867,27.6606189 -0.0332416455,27.4057791 0.0166183155,27.140363 C0.0589237369,26.9182595 0.176270918,26.7082433 0.348010783,26.5485907 L8.31049546,18.4128553 C8.31704272,18.406308 8.32358999,18.3997607 8.33013726,18.3937171 C10.4851956,16.4436386 11.484913,17.4000433 11.5916838,17.5158796 C12.3627505,18.3680317 11.9955998,19.4825781 10.5033265,20.8328261 C10.4947647,20.8408843 10.4856992,20.8479352 10.4766338,20.8549861 L1.48824262,27.8137243 C1.24649735,28.025755 0.944315771,28.1159059 0.673359619,28.0821623" id="Fill-14"></path>
                            <path d="M13.3025351,16.1904607 C12.9323626,16.1441262 12.5934156,16.4080314 12.5475848,16.7782039 C12.5012503,17.1483763 12.7651555,17.4873233 13.1353279,17.5331542 C13.5055004,17.5794887 13.8444474,17.3155835 13.8902782,16.945411 C13.9366128,16.5752386 13.6727075,16.2367952 13.3025351,16.1904607 M13.0240244,18.427108 C12.1607923,18.3198336 11.5463565,17.5301324 11.6536309,16.6669003 C11.761409,15.8041719 12.5506066,15.1892324 13.4138386,15.2965069 C14.2770707,15.404285 14.8915065,16.1934825 14.7842321,17.0567146 C14.676454,17.9199466 13.8872564,18.5343825 13.0240244,18.427108" id="Fill-16"></path>
                        </g>
                        <line x1="11.7674527" y1="42.7517179" x2="14.0574854" y2="19.7028179" id="Stroke-24" stroke-width="1.2" stroke-linecap="round" stroke-linejoin="round"></line>
                        <line x1="8.30001976" y1="38.037716" x2="7.29325147" y2="43.0257266" id="Stroke-26" stroke-width="1.2" stroke-linecap="round" stroke-linejoin="round"></line>
                        <line x1="11.7257012" y1="20.9457915" x2="9.13751601" y2="35.5653363" id="Stroke-28" stroke-width="1.2" stroke-linecap="round" stroke-linejoin="round"></line>
                    </g>
                    <g id="Group-2">
                        <line x1="11.9078828" y1="64.4852433" x2="16.66825" y2="26.2114281" id="Stroke-18" stroke-width="1.5" stroke-linecap="round" stroke-linejoin="round"></line>
                        <line x1="7.98392351" y1="55.4224651" x2="6.43373201" y2="63.7591513" id="Stroke-20" stroke-width="1.5" stroke-linecap="round" stroke-linejoin="round"></line>
                        <line x1="13.1657836" y1="28.5082095" x2="8.99114508" y2="52.9043357" id="Stroke-22" stroke-width="1.5" stroke-linecap="round" stroke-linejoin="round"></line>
                        <g id="Group-5" fill="#009BDA" stroke-width="0.5">
                            <path d="M10.9232437,15.4674711 C11.7063977,16.9869408 12.3314099,17.4905768 12.7182023,17.645193 C13.0551348,17.7801675 13.2822746,17.6744039 13.4353799,17.5963403 C13.4993417,17.5474876 14.2563066,16.8993082 12.9957057,14.4375356 L5.10675197,1.131977 C5.10221925,1.12442246 5.09768652,1.11636428 5.09365744,1.10830611 C5.03322112,0.989951654 4.93803392,0.92800443 4.8816267,0.907858992 C4.86601398,0.963762584 4.86248853,1.07405886 4.92443575,1.19493149 C4.92997575,1.20500421 4.93450847,1.21558057 4.9390412,1.22615692 L10.9232437,15.4674711 Z M12.8290022,18.5980723 C12.6899987,18.5809486 12.5414261,18.5446869 12.383788,18.4817324 C11.6006341,18.1684708 10.8582747,17.3122897 10.1144044,15.8638326 C10.1088644,15.8532563 10.1043317,15.8431835 10.0997989,15.8326072 L4.11458912,1.58927845 C3.83104207,1.01765163 3.98868013,0.334217627 4.46360884,0.0899541841 L4.46411248,0.0899541841 C4.94004847,-0.154309259 5.58923523,0.117150526 5.88789135,0.683237351 L13.7773487,13.9903068 C13.7818815,13.998365 13.7864142,14.0059195 13.7904433,14.0139777 C15.5234546,17.387835 14.0422613,18.2943798 13.8680032,18.3865452 C13.7033143,18.4706524 13.3331418,18.6610268 12.8290022,18.5980723 L12.8290022,18.5980723 Z" id="Fill-1"></path>
                            <path d="M18.0469226,20.5088168 C18.0600172,20.5883912 18.2826243,21.559905 21.0470821,21.5896195 L36.4956117,20.8014293 C36.5046771,20.8009256 36.5132389,20.8009256 36.522808,20.8009256 C36.6552643,20.8024365 36.7544806,20.7470366 36.7982969,20.7067457 C36.7564951,20.6664548 36.659797,20.6120621 36.5248226,20.6110549 C36.5127353,20.6105512 36.5016553,20.6100476 36.4900717,20.6090403 L21.1004675,19.2764196 C19.3906234,19.2618141 18.6543076,19.5806157 18.337017,19.8510682 C18.0610245,20.0867698 18.0489372,20.3370769 18.0469226,20.5088168 M19.9133975,22.419108 C17.2350615,22.085701 17.1464215,20.6991912 17.1459179,20.5239258 C17.1605233,19.0714397 18.4996914,18.3507366 21.1261529,18.3759184 C21.1377366,18.3759184 21.1493202,18.3769257 21.1609038,18.3774294 L36.5520189,19.7105538 C37.1881111,19.7251592 37.7214616,20.1829643 37.7169576,20.717322 L37.7169576,20.717322 C37.7113889,21.2531907 37.168973,21.7009231 36.5288517,21.7019304 L21.0793148,22.4901206 C21.0697457,22.4906243 21.0606803,22.4906243 21.0516148,22.4906243 C20.628057,22.4865952 20.2498264,22.4609098 19.9133975,22.419108" id="Fill-3"></path>
                            <path d="M9.27464177,24.3466235 L0.999902857,37.4159768 C0.995370133,37.4235314 0.990333774,37.4310859 0.984793778,37.4386405 C0.907233839,37.5464186 0.895146576,37.6587294 0.902701116,37.7181584 C0.95961198,37.7070784 1.0593319,37.6597366 1.13890638,37.549944 C1.14595729,37.5403749 1.15300819,37.5313095 1.16005909,37.5227477 L11.1330585,25.7255788 C12.1317686,24.3380617 12.2964576,23.5528933 12.2586849,23.1378972 C12.2254449,22.7762866 12.0285232,22.6216704 11.8890161,22.5209432 C11.8164925,22.4856886 10.8958459,22.1054435 9.27464177,24.3466235 M0.761179409,38.6161413 C0.618650431,38.5985141 0.483172357,38.5476469 0.363810633,38.4620287 C-0.0708272051,38.1482635 -0.123205346,37.4472023 0.245456181,36.9239245 L8.52120236,23.8530603 C8.52573509,23.8455058 8.53127508,23.8379512 8.53631144,23.8303967 C10.7558351,20.7546918 12.2355176,21.6632511 12.3971847,21.7770728 C13.5746856,22.6267067 13.3903549,24.1366073 11.8532579,26.2664838 C11.8467106,26.2760529 11.8391561,26.2851184 11.8321052,26.2936802 L1.85809854,38.0918563 C1.5760624,38.4726051 1.14495001,38.6639868 0.761179409,38.6161413" id="Fill-5"></path>
                            <path d="M14.8936075,19.3314166 C14.3023389,19.2578857 13.7614339,19.6789254 13.687903,20.270194 C13.6138685,20.8614627 14.0354118,21.4028713 14.6266804,21.4764022 C15.2179491,21.549933 15.7588541,21.1288934 15.8323849,20.5376247 C15.9064194,19.9458525 15.4848761,19.4049474 14.8936075,19.3314166 M14.5153769,22.3698524 C13.4310487,22.2348779 12.6589747,21.2432187 12.7939492,20.1588905 C12.9289236,19.0750659 13.9205828,18.3024883 15.0049111,18.4374628 C16.0892393,18.5729408 16.8613132,19.5646001 16.7263388,20.6489283 C16.5913643,21.7327529 15.5997051,22.5048268 14.5153769,22.3698524" id="Fill-8"></path>
                        </g>
                    </g>
                </g>
                <g id="wind" transform="translate(32.8092, 0)" fill="#FFBF27" stroke="#FFBF27" stroke-width="0.5">
                    <path d="M8.58221988,4.05225498 L18.6841501,4.05225498 C18.963668,4.05225498 19.1908079,3.82561879 19.1908079,3.5455972 C19.1908079,3.26607923 18.963668,3.03893941 18.6841501,3.03893941 L8.58221988,3.03893941 C8.02268033,3.03893941 7.56890432,2.58566705 7.56890432,2.02612749 C7.56890432,1.46658793 8.02268033,1.01281193 8.58221988,1.01281193 C8.86173784,1.01281193 9.08887766,0.786175742 9.08887766,0.506154145 C9.08887766,0.226636184 8.86173784,0 8.58221988,0 C7.46314077,0 6.5560924,0.907048373 6.5560924,2.02612749 C6.5560924,3.1452066 7.46314077,4.05225498 8.58221988,4.05225498" id="Fill-1"></path>
                    <path d="M2.02612749,11.0959481 L9.10624189,11.0959481 C9.38575985,11.0959481 9.61289967,10.869312 9.61289967,10.5892904 C9.61289967,10.3097724 9.38575985,10.0826326 9.10624189,10.0826326 L2.02612749,10.0826326 C1.46658793,10.0826326 1.01281193,9.62936021 1.01281193,9.06982065 C1.01281193,8.5102811 1.46658793,8.05650509 2.02612749,8.05650509 C2.30564545,8.05650509 2.53278527,7.82986891 2.53278527,7.54984731 C2.53278527,7.27032935 2.30564545,7.04369316 2.02612749,7.04369316 C0.907048373,7.04369316 0,7.95074154 0,9.06982065 C0,10.1888998 0.907048373,11.0959481 2.02612749,11.0959481" id="Fill-4"></path>
                </g>
            </g>
            <path d="M600,158.571268 C534.386494,126.124212 424.494545,98.5712678 299.998442,98.5712678 C175.504675,98.5712678 65.6135065,126.123495 0,158.569834" id="Stroke-1" stroke="#009BDA" stroke-width="2"></path>
        </g>
    </g>
</svg>