<?xml version="1.0" encoding="UTF-8"?>
<svg width="138px" height="52px" viewBox="0 0 138 52" version="1.1" xmlns="http://www.w3.org/2000/svg" xmlns:xlink="http://www.w3.org/1999/xlink">
    <!-- Generator: Sketch 53.2 (72643) - https://sketchapp.com -->
    <title>esg-logo-tw</title>
    <desc>Created with Sketch.</desc>
    <g id="Page-1" stroke="none" stroke-width="1" fill="none" fill-rule="evenodd">
        <g id="esg-logo-tw">
            <path d="M77.0427,30.8479 L77.0427,30.3182 L75.2693,30.3182 L75.2693,32.8913 C75.2693,33.3941 75.2942,33.9509 75.3457,34.5556 L73.9577,34.5556 C74.0084,33.9509 74.035,33.4211 74.035,32.9671 L74.035,28.578 C74.035,27.8208 74.0084,27.1664 73.9577,26.6105 L75.3457,26.6105 C75.2942,27.0644 75.2693,27.5445 75.2693,28.0482 L75.2693,29.1828 L77.0427,29.1828 L77.0427,28.0482 C77.0427,27.5445 77.0161,27.0644 76.9654,26.6105 L78.3534,26.6105 C78.3019,27.0644 78.2762,27.5445 78.2762,28.0482 L78.2762,30.8479 L77.0427,30.8479 Z M74.1124,19.5723 C74.5751,18.8665 74.9862,18.0343 75.3459,17.075 C75.8094,17.5289 76.3218,17.8322 76.8884,17.9838 C76.4764,18.3367 76.0523,18.8286 75.6163,19.4594 C75.1785,20.0911 74.7545,20.658 74.3433,21.1617 L75.8858,21.1617 C76.3991,20.3042 76.7596,19.6742 76.9656,19.2699 C77.3244,19.6237 77.7622,19.9261 78.2763,20.1779 C77.8137,20.5822 77.3124,21.1752 76.7733,21.9559 C76.2334,22.7393 75.5776,23.6093 74.8068,24.567 C75.2695,24.5173 75.9364,24.4423 76.8111,24.3396 C76.6051,23.8367 76.4764,23.4586 76.4257,23.205 C76.7845,23.1048 77.1699,23.0037 77.5828,22.9018 C77.7373,23.307 77.9931,24.1888 78.3536,25.5508 C77.8909,25.6527 77.4789,25.7774 77.1201,25.929 C77.0678,25.6266 77.0163,25.3992 76.9656,25.2484 C76.503,25.2989 76.0017,25.3747 75.4618,25.475 C74.9219,25.5769 74.3691,25.7024 73.8043,25.8532 C73.6498,25.3503 73.4686,24.8963 73.2644,24.4912 C73.6232,24.3396 74.0352,23.9505 74.4978,23.3187 C74.9605,22.6879 75.2695,22.2718 75.4231,22.0697 C75.2695,22.0697 74.5751,22.1716 73.3416,22.372 C73.2369,21.918 73.0832,21.4641 72.8781,21.0101 C73.2369,20.7582 73.6498,20.2798 74.1124,19.5723 L74.1124,19.5723 Z M70.1409,32.0212 C70.577,31.542 70.8989,30.9743 71.1049,30.3182 L68.4826,30.3182 C68.5332,29.7126 68.5598,29.0825 68.5598,28.4264 C68.5598,27.772 68.5332,27.1664 68.4826,26.6105 L69.8714,26.6105 C69.8191,27.1664 69.7942,27.67 69.7942,28.124 L69.7942,29.1828 L71.2594,29.1828 C71.3615,28.0743 71.413,27.2161 71.413,26.6105 L72.8783,26.6105 C72.7744,27.6203 72.7109,28.3127 72.686,28.6909 C72.6594,29.0699 72.6087,29.5239 72.5315,30.0537 C72.4542,30.5835 72.2096,31.2152 71.7993,31.9454 C71.3864,32.6757 70.4611,33.5458 69.0225,34.5556 C68.7143,34.1514 68.3787,33.7479 68.0199,33.3453 C68.9959,32.9402 69.7032,32.4997 70.1409,32.0212 L70.1409,32.0212 Z M70.2178,19.3836 C69.78,20.0153 69.3311,20.658 68.8684,21.3133 C69.4847,21.3133 70.0246,21.2636 70.4873,21.1617 C70.6924,20.8096 70.8735,20.4803 71.0272,20.1779 C71.1817,19.8755 71.3087,19.5723 71.4126,19.2699 C71.8238,19.5723 72.2864,19.8503 72.8014,20.1021 C72.4409,20.5072 71.9139,21.2131 71.2203,22.2213 C70.5259,23.2312 69.8959,24.0633 69.3311,24.7186 C69.998,24.6184 70.6924,24.5173 71.4126,24.4154 L71.1044,23.3558 C71.4126,23.205 71.7989,23.0795 72.2615,22.9776 C72.3637,23.2809 72.4924,23.6851 72.6469,24.1888 C72.8014,24.6933 72.9551,25.2484 73.1096,25.8532 C72.6976,25.9551 72.3113,26.0806 71.9525,26.2322 C71.8486,25.8287 71.7465,25.5264 71.6444,25.3234 C71.1293,25.3747 70.5259,25.4632 69.8324,25.5887 C69.1379,25.715 68.5079,25.8801 67.9422,26.0806 C67.7362,25.5769 67.5568,25.0968 67.4032,24.6428 C67.968,24.4912 68.4555,24.1509 68.8684,23.6211 C69.2787,23.0913 69.6392,22.575 69.9474,22.0697 C69.6899,22.121 69.3946,22.1834 69.0607,22.2592 C68.7259,22.335 68.3534,22.4234 67.9422,22.5236 C67.7886,22.0208 67.6075,21.5399 67.4032,21.0859 C67.7113,20.8854 68.0967,20.4424 68.5594,19.7618 C69.0221,19.0804 69.5354,18.1607 70.1019,17 C70.5645,17.4043 71.0521,17.7319 71.5671,17.9838 C71.1044,18.2862 70.6538,18.7536 70.2178,19.3836 L70.2178,19.3836 Z M65.2435,29.1828 L65.2435,26.6863 L62.6984,26.6863 L62.6984,29.5618 C63.4178,29.4616 64.2658,29.3344 65.2435,29.1828 L65.2435,29.1828 Z M62.6984,25.5508 L65.2435,25.5508 L65.2435,22.7511 L62.6984,22.7511 L62.6984,25.5508 Z M62.6984,21.6156 L65.2435,21.6156 L65.2435,19.0425 L62.6984,19.0425 L62.6984,21.6156 Z M66.0918,17.9078 C66.6566,17.9078 67.2489,17.8825 67.866,17.832 L67.866,19.1181 C67.351,19.0693 66.9133,19.0423 66.5545,19.0423 L66.5545,28.8801 C66.9133,28.8304 67.2987,28.7799 67.7115,28.7285 C67.6592,29.0823 67.6343,29.4613 67.6343,29.8639 C67.2223,29.9153 66.8635,29.9658 66.5545,30.0155 L66.5545,31.7556 C66.5545,32.4615 66.5802,33.2936 66.6317,34.253 L65.1665,34.253 C65.2171,33.2936 65.2437,32.4615 65.2437,31.7556 L65.2437,30.3179 C64.4721,30.4695 63.5854,30.6716 62.5828,30.9235 C61.5802,31.177 60.8978,31.4036 60.5391,31.604 C60.333,30.9993 60.1536,30.4442 60,29.9397 C60.3588,29.9397 60.7957,29.89 61.3107,29.7881 L61.3107,19.0423 C61.0026,19.0423 60.6669,19.0693 60.3082,19.1181 L60.3082,17.832 C60.873,17.8825 61.3107,17.9078 61.6189,17.9078 L66.0918,17.9078 Z" id="Shape" fill="#000000"></path>
            <path d="M94.3204,17.7773 L95.4774,17 C95.7332,17.3627 96.0937,17.7773 96.5564,18.2439 C96.0937,18.4516 95.7083,18.6853 95.4002,18.9442 C94.9873,18.5295 94.6286,18.1409 94.3204,17.7773 L94.3204,17.7773 Z M92.546,26.0214 L95.5536,26.0214 L95.5536,24.9325 L92.546,24.9325 L92.546,26.0214 Z M92.546,23.7656 L95.5536,23.7656 L95.5536,22.7546 L92.546,22.7546 L92.546,23.7656 Z M88.5369,26.0214 L91.0819,26.0214 L91.0819,24.9325 L88.5369,24.9325 L88.5369,26.0214 Z M88.5369,23.7656 L91.0819,23.7656 L91.0819,22.7546 L88.5369,22.7546 L88.5369,23.7656 Z M91.0818,33.0199 C90.6192,33.3315 90.1814,33.6423 89.7703,33.953 C89.3583,33.2805 88.845,32.581 88.2279,31.8539 C88.639,31.5951 89.0493,31.3095 89.4622,30.9978 C90.0793,31.725 90.6192,32.3984 91.0818,33.0199 L91.0818,33.0199 Z M91.082,19.0991 C91.082,18.2188 91.0545,17.5713 91.0048,17.155 L92.6236,17.155 C92.5721,17.6743 92.5472,18.3218 92.5472,19.0991 L95.6311,19.0991 C96.813,19.0991 97.6868,19.074 98.2533,19.0212 L98.2533,20.4218 C97.6868,20.3707 96.8388,20.3439 95.7084,20.3439 L92.5472,20.3439 L92.5472,21.5877 L97.0199,21.5877 C96.9675,22.3659 96.9426,23.1181 96.9426,23.8435 L96.9426,25.554 C96.9426,26.5399 96.9675,27.3432 97.0199,27.9656 L95.5539,27.9656 L95.5539,27.1874 L92.5472,27.1874 C92.5472,27.6539 92.5721,28.1205 92.6236,28.5871 L91.0048,28.5871 C91.0545,28.0703 91.082,27.6037 91.082,27.1874 L88.5371,27.1874 L88.5371,28.5092 L86.9947,28.5092 C87.0445,27.9396 87.0719,27.2142 87.0719,26.3322 L87.0719,23.9214 C87.0719,22.9372 87.0445,22.159 86.9947,21.5877 L91.082,21.5877 L91.082,20.3439 L89.4624,20.3439 C88.4332,20.3439 87.4307,20.3707 86.4548,20.4218 L86.4548,19.0212 C87.3801,19.074 88.356,19.0991 89.3851,19.0991 L91.082,19.0991 Z M94.7832,29.5203 C94.7832,29.1065 94.7565,28.6919 94.7059,28.2764 L96.2483,28.2764 C96.1968,28.6919 96.1711,29.1065 96.1711,29.5203 L96.7109,29.5203 C97.6362,29.5203 98.4327,29.4952 99.1014,29.4432 L99.1014,30.9208 C98.3804,30.8698 97.5847,30.8429 96.7109,30.8429 L96.1711,30.8429 L96.1711,33.4095 C96.1711,34.2378 95.9015,34.7312 95.3617,34.887 C94.8218,35.042 94.1394,35.1978 93.318,35.3536 C93.2141,34.7823 93.0099,34.2378 92.7009,33.7202 C93.5746,33.7202 94.1394,33.6934 94.3978,33.6423 C94.6544,33.5904 94.7832,33.2805 94.7832,32.7092 L94.7832,30.8429 L88.3054,30.8429 C87.2256,30.8429 86.3776,30.8949 85.7605,30.9979 L85.7605,29.4432 C86.3776,29.4952 87.2256,29.5203 88.3054,29.5203 L94.7832,29.5203 Z M82.9071,19.7214 C82.9071,18.7883 82.8805,17.9599 82.8299,17.2328 L84.3723,17.2328 C84.3208,18.1157 84.295,18.9441 84.295,19.7214 L84.295,22.8324 C84.9628,22.8324 85.6314,22.8073 86.3001,22.7545 L86.3001,24.2321 C85.5791,24.181 84.9121,24.1542 84.295,24.1542 L84.295,32.5532 C84.295,33.5374 84.3208,34.3147 84.3723,34.8869 L82.8299,34.8869 C82.8805,34.3675 82.9071,33.5902 82.9071,32.5532 L82.9071,24.1542 C82.1861,24.1542 81.4668,24.181 80.7476,24.2321 L80.7476,22.7545 C81.5192,22.8073 82.2385,22.8324 82.9071,22.8324 L82.9071,19.7214 Z" id="Shape" fill="#000000"></path>
            <path d="M109.427543,26.7303933 C110.09793,28.1286633 111.113297,29.3544433 112.339077,30.3893833 C113.58443,29.3923667 114.63772,28.18616 115.326457,26.7303933 L109.427543,26.7303933 Z M110.691247,19.8161133 C110.691247,21.5202167 110.175,23.5693 107.81886,24.9296467 C107.64637,24.6421633 107.148473,24.1063433 106.898913,23.8763567 C109.006717,22.7080733 109.351697,21.1373133 109.351697,19.7769667 L109.351697,17.6703867 L115.383953,17.6703867 L115.383953,22.0951833 C115.383953,22.6310033 115.44145,22.8230667 115.748507,22.8230667 L117.223847,22.8230667 C117.51133,22.8230667 117.932157,22.7851433 118.180493,22.7264233 C118.200067,23.0909767 118.23799,23.6267967 118.295487,23.9534267 C118.04715,24.0292733 117.644673,24.0488467 117.26177,24.0488467 L115.653087,24.0488467 C114.330663,24.0488467 114.02483,23.4934533 114.02483,22.07561 L114.02483,19.01116 L110.691247,19.01116 L110.691247,19.8161133 Z M117.242197,25.7541733 C116.47639,28.0515933 115.15519,29.85234 113.50736,31.2310367 C114.943553,32.13141 116.668453,32.8017967 118.58297,33.2042733 C118.257563,33.51133 117.87466,34.1046467 117.682597,34.5071233 C115.633513,34.0092267 113.814417,33.2042733 112.319503,32.11306 C110.653323,33.2421967 108.719233,34.0092267 106.708073,34.5266967 C106.573507,34.12422 106.267673,33.52968 105.99854,33.2238467 C107.838433,32.82137 109.619607,32.1509833 111.170793,31.1931133 C109.867943,29.9869067 108.814653,28.5115667 108.048847,26.80624 L108.239687,26.7303933 L107.493453,26.7303933 L107.493453,25.38962 L116.055563,25.38962 L116.323473,25.3321233 L117.242197,25.7541733 Z M105.232733,27.2857867 L105.232733,32.6684533 C105.232733,33.4721833 105.02232,33.8550867 104.524423,34.0667233 C104.044877,34.29671 103.241147,34.3346333 101.938297,34.3346333 C101.8808,33.97008 101.670387,33.3963367 101.497897,33.0134333 C102.417843,33.0513567 103.241147,33.0317833 103.471133,33.0317833 C103.739043,33.0317833 103.834463,32.9363633 103.834463,32.6684533 L103.834463,27.7261867 L101.420827,28.4344967 L101,27.0558 C101.78538,26.86496 102.7616,26.5958267 103.834463,26.2899933 L103.834463,22.17103 L101.229987,22.17103 L101.229987,20.83148 L103.834463,20.83148 L103.834463,17 L105.232733,17 L105.232733,20.83148 L107.608447,20.83148 L107.608447,22.17103 L105.232733,22.17103 L105.232733,25.90709 L107.013907,25.38962 L107.20597,26.69247 L105.232733,27.2857867 Z" id="Fill-1" fill="#000000"></path>
            <path d="M131.013548,20.0458553 C130.763988,19.3754687 130.170671,18.283032 129.692348,17.497652 L130.898554,16.9997553 C131.453948,17.8047087 132.028914,18.8200753 132.296824,19.490462 L131.013548,20.0458553 Z M127.642041,32.5727887 L134.825454,32.5727887 L134.825454,29.546262 L127.642041,29.546262 L127.642041,32.5727887 Z M126.665821,26.749722 L135.898318,26.749722 L135.898318,25.5814387 L126.665821,25.5814387 L126.665821,26.749722 Z M126.665821,24.0681753 L135.898318,24.0681753 L135.898318,22.899892 L126.665821,22.899892 L126.665821,24.0681753 Z M126.396688,28.3584053 L136.089158,28.3584053 L136.089158,34.449382 L134.825454,34.449382 L134.825454,33.759422 L127.642041,33.759422 L127.642041,34.5068787 L126.396688,34.5068787 L126.396688,28.3584053 Z M125.285901,21.3670553 L137.410358,21.3670553 L137.410358,20.1608487 L125.285901,20.1608487 L125.285901,21.3670553 Z M125.535461,17.4597287 C125.095061,18.7430053 124.539668,20.026282 123.926778,21.233712 L123.926778,34.5643753 L122.604354,34.5643753 L122.604354,23.5323553 C122.030611,24.4510787 121.398148,25.274382 120.785258,26.0022653 C120.650691,25.696432 120.248214,25.006472 119.999878,24.6810653 C121.723554,22.822822 123.294314,19.9687853 124.271758,17.0768253 L125.535461,17.4597287 Z" id="Fill-1" fill="#000000"></path>
            <polygon id="Path" fill="#000000" points="0 52 52 52 52 0 0 0"></polygon>
            <path d="M28.5648,41.2305 C28.5648,40.4282 28.0724,39.8475 27.1446,39.8475 L23.7698,39.8475 L23.7698,43.3773 L26.6584,43.3773 C27.747,43.3773 28.5648,43.1665 28.5648,42.123 L28.5648,41.2305 Z M23.7681,36.8671 L27.143,36.8671 C28.0707,36.8671 28.5632,36.2882 28.5632,35.485 L28.5632,34.5934 C28.5632,33.5491 27.7454,33.3391 26.6568,33.3391 L23.7681,33.3391 L23.7681,36.8671 Z M31.9826,33.9109 L31.9826,35.234 C31.9826,36.5598 31.1299,37.614 29.9886,37.9982 C31.1299,38.385 31.9826,39.4383 31.9826,40.7713 L31.9826,42.2775 C31.9826,44.4556 30.6902,46.1289 27.6094,46.1289 L20.2894,46.1289 L20.2894,30.583 L28.1152,30.583 C30.5767,30.583 31.9826,31.8704 31.9826,33.9109 Z M5.87109,5.87085 L5.87109,46.1289 L11.6413,46.1289 L11.6413,42.8618 L9.1414,42.8618 L9.1414,9.13888 L11.6413,9.13888 L11.6413,5.87085 L5.87109,5.87085 Z M40.3601,5.87097 L40.3601,9.139 L42.8582,9.139 L42.8582,42.8619 L40.3601,42.8619 L40.3601,46.129 L46.1294,46.129 L46.1294,5.87097 L40.3601,5.87097 Z M24.484,15.2436 L27.4718,15.2436 L25.9882,9.79484 L24.484,15.2436 Z M22.7723,21.4196 L18.7852,21.4196 L23.5526,5.87097 L28.4245,5.87097 L28.4656,5.96567 L33.2142,21.4196 L29.2289,21.4196 L28.404,18.4419 L23.5955,18.4419 L22.7723,21.4196 Z M12.9239,26.6549 L39.0782,26.6549 L39.0782,25.347 L12.9239,25.347 L12.9239,26.6549 Z" id="Shape" fill="#FEFEFE"></path>
        </g>
    </g>
</svg>