<svg xmlns="http://www.w3.org/2000/svg" xmlns:xlink="http://www.w3.org/1999/xlink" viewBox="0 0 284.8 121.51"><defs><style>.cls-1{isolation:isolate;}.cls-2{fill:#f7b726;}.cls-3{fill:#1cd6be;}.cls-4,.cls-6{opacity:0.6;mix-blend-mode:multiply;}.cls-4{fill:url(#linear-gradient);}.cls-5{fill:#fff;}.cls-6{fill:url(#linear-gradient-2);}</style><linearGradient id="linear-gradient" x1="-47.07" y1="75.71" x2="-12.94" y2="75.71" gradientTransform="translate(106.5 8.5)" gradientUnits="userSpaceOnUse"><stop offset="0" stop-color="#6164a7"/><stop offset="1" stop-color="#fff" stop-opacity="0"/></linearGradient><linearGradient id="linear-gradient-2" x1="9915.09" y1="-5359.36" x2="9946.64" y2="-5359.36" gradientTransform="translate(-9907.34 5443.58)" xlink:href="#linear-gradient"/></defs><g class="cls-1"><g id="圖層_2" data-name="圖層 2"><g id="Design"><path class="cls-2" d="M101.11,96.75c0,14-7.27,24.76-30.91,24.76S39.29,110.74,39.29,96.75V53.11c0-14,7.27-24.76,30.91-24.76s30.91,10.77,30.91,24.76ZM59.43,94c0,7,2,9.93,10.77,9.93S81,101,81,94v-38c0-7-2-9.93-10.77-9.93s-10.77,2.93-10.77,9.93Z"/><rect class="cls-3" x="59.43" y="75.26" width="225.37" height="17.89"/><rect class="cls-4" x="59.43" y="75.26" width="34.13" height="17.91"/><path class="cls-3" d="M134,64.28h-5.8l-1.35-4.84h-8.3l-1.34,4.84h-5.81L119,39.48h7.45Zm-14.18-9.49h5.69L122.67,44.4Z"/><path class="cls-3" d="M147.36,64.28H136.78V39.48h9.8c5.17,0,7.07,2.09,7.07,5.44v2.53a3.93,3.93,0,0,1-2.75,3.91,4.7,4.7,0,0,1,3.65,4.58v2.42C154.55,61.86,152.31,64.28,147.36,64.28Zm.71-18.54c0-1.08-.67-1.75-2.24-1.75h-3.46v5.66h3.46c1.49,0,2.24-.75,2.24-1.75ZM149,56.09c0-1.38-.86-2.08-2.35-2.08h-4.24v5.77h3.46c1.75,0,3.13-.37,3.13-2.16Z"/><path class="cls-3" d="M165.3,42.35h-7.41V39.48h18v2.87h-7.41V64.28H165.3Z"/><path class="cls-3" d="M196.73,64.28h-3.24l-2.05-6H180.9l-2,6h-3.24L184,39.48h4.32ZM186.19,41.79l-4.43,13.74h8.86Z"/><path class="cls-3" d="M204.32,64.28h-3.2V39.48h3.2Z"/><path class="cls-3" d="M232,61.23l5.66-21.75h3.13l-6.52,24.8h-4.5l-5.14-22.15-5.14,22.15h-4.51l-6.51-24.8h3.12l5.66,21.75,5.14-21.75h4.47Z"/><path class="cls-3" d="M262.3,64.28h-3.24l-2.05-6H246.47l-2,6h-3.24l8.38-24.8h4.32ZM251.76,41.79l-4.44,13.74h8.87Z"/><path class="cls-3" d="M269.55,43.17V64.28H266.5V39.48h4.39l10.8,21.23V39.48h3.06v24.8h-4.4Z"/><path class="cls-5" d="M158.29,90.94h-1.76l-1.11-3.23H149.7l-1.09,3.23h-1.75l4.54-13.45h2.35Zm-5.72-12.2-2.4,7.45H155Z"/><path class="cls-5" d="M163.24,79.49V90.94h-1.65V77.49H164L169.83,89V77.49h1.66V90.94H169.1Z"/><path class="cls-5" d="M177.59,79.49V90.94h-1.65V77.49h2.38L184.18,89V77.49h1.65V90.94h-2.38Z"/><path class="cls-5" d="M192.12,90.94h-1.74V77.49h1.74Z"/><path class="cls-5" d="M195.32,77.49H197l3.94,11.93,3.94-11.93h1.68L202.1,90.94h-2.34Z"/><path class="cls-5" d="M209.64,77.49h7.92V79h-6.18v4.22h5.74v1.56h-5.74v4.56h6.2v1.56h-7.94Z"/><path class="cls-5" d="M226.6,86.07h-3.3v4.87h-1.73V77.49h5.13c2.89,0,3.9,1.25,3.9,3.31v1.94a2.84,2.84,0,0,1-2.15,3.13l3.5,5.07h-2Zm0-7H223.3v5.5h3.34c1.65,0,2.22-.47,2.22-1.78V80.82C228.86,79.49,228.29,79,226.64,79Z"/><path class="cls-5" d="M238.84,91.14a11.38,11.38,0,0,1-4-.71l.28-1.41a13,13,0,0,0,3.76.59c2.16,0,2.61-.57,2.61-2.1,0-1.82,0-2-2.79-2.61-3.25-.73-3.64-1.35-3.64-4.14,0-2.35,1-3.48,4.31-3.48a15.42,15.42,0,0,1,3.63.45l-.14,1.47a16.57,16.57,0,0,0-3.45-.38c-2.2,0-2.61.44-2.61,2,0,1.86,0,1.94,2.67,2.6,3.57.89,3.76,1.42,3.76,4C243.23,89.81,242.54,91.14,238.84,91.14Z"/><path class="cls-5" d="M257.49,90.94h-1.76l-1.11-3.23h-5.71l-1.09,3.23h-1.76l4.54-13.45H253Zm-5.72-12.2-2.4,7.45h4.81Z"/><path class="cls-5" d="M265.82,86.07h-3.29v4.87h-1.74V77.49h5.13c2.89,0,3.9,1.25,3.9,3.31v1.94a2.85,2.85,0,0,1-2.14,3.13l3.49,5.07h-2Zm0-7h-3.33v5.5h3.33c1.66,0,2.22-.47,2.22-1.78V80.82C268.08,79.49,267.52,79,265.86,79Z"/><path class="cls-5" d="M281.1,77.49h1.81l-4.46,9.39v4.06h-1.74V86.88l-4.46-9.39h1.82L277.58,85Z"/><path class="cls-2" d="M91.26,26.91a6.18,6.18,0,0,1-2.06.37c-1.66,0-2.44-.61-2.44-2.25V18.65H85V17.24h1.74V14.81l1.69-.24v2.67h2.79l-.14,1.41H88.45v6.1c0,.73.1,1.09,1,1.09A6.32,6.32,0,0,0,91,25.6Z"/><path class="cls-2" d="M99.53,27.07V19.56c0-.65-.33-.91-1-.91a9.17,9.17,0,0,0-3.3,1v7.41H93.59V13.22L95.28,13v5.09a10.08,10.08,0,0,1,3.8-1c1.58,0,2.14,1,2.14,2.51v7.53Z"/><path class="cls-3" d="M29.54,75.26h9.75V93.15h-38V75.69C11.5,65.18,13.35,63.47,21.87,53.82,35.78,37.91,37.35,37.06,37.35,27.41V24.85c0-5-3.27-6.67-11.22-6.67A113.88,113.88,0,0,0,2.7,20.87L0,3.69A115.28,115.28,0,0,1,27.12,0C49,0,57.79,6.82,57.79,22.29V26c0,13.49-.14,16-13.06,31.66C37.91,65.89,33.65,70.86,29.54,75.26Z"/><rect class="cls-6" x="7.74" y="75.26" width="31.55" height="17.91" transform="translate(47.03 168.42) rotate(180)"/></g></g></g></svg>