<svg xmlns="http://www.w3.org/2000/svg" viewBox="0 0 403.88 134.4"><defs><style>.cls-1{fill:none;stroke:#1cd7bf;stroke-linecap:round;stroke-linejoin:round;stroke-width:3px;}</style></defs><g id="圖層_2" data-name="圖層 2"><g id="Design"><path class="cls-1" d="M281.28,132.9H254a32.8,32.8,0,0,0-31.69-41.26H222a51.21,51.21,0,0,0-94.65-9.15,41.91,41.91,0,0,0-64.16,50.4"/><line class="cls-1" x1="1.5" y1="132.9" x2="160.8" y2="132.9"/><path class="cls-1" d="M402.38,71.05H380.89A22.43,22.43,0,0,0,358.6,50.83a22.1,22.1,0,0,0-4.52.48c.06-.93.09-1.84.09-2.75a47.06,47.06,0,0,0-92.34-12.83"/><line class="cls-1" x1="402.38" y1="71.05" x2="361.53" y2="71.05"/></g></g></svg>