<svg xmlns="http://www.w3.org/2000/svg" xmlns:xlink="http://www.w3.org/1999/xlink" viewBox="0 0 613.49 382.23"><defs><style>.cls-1,.cls-3,.cls-4{fill:none;}.cls-2{clip-path:url(#clip-path);}.cls-3{stroke:#5949a5;stroke-miterlimit:10;}.cls-3,.cls-4{stroke-linecap:round;stroke-width:3px;}.cls-4{stroke:#1cd7bf;stroke-linejoin:round;}</style><clipPath id="clip-path" transform="translate(-93.94 -19.98)"><rect class="cls-1" width="682.47" height="430.08"/></clipPath></defs><g id="圖層_2" data-name="圖層 2"><g id="Design"><g class="cls-2"><path class="cls-3" d="M271.35,182.83a19.28,19.28,0,0,0-27.23,0" transform="translate(-93.94 -19.98)"/><path class="cls-3" d="M309.51,201.72a19.29,19.29,0,0,0-27.23,0" transform="translate(-93.94 -19.98)"/><path class="cls-3" d="M350.32,222.88a19.29,19.29,0,0,0-27.23,0" transform="translate(-93.94 -19.98)"/><path class="cls-3" d="M325,245.93a19.29,19.29,0,0,0-27.23,0" transform="translate(-93.94 -19.98)"/><path class="cls-3" d="M352.4,272.19a19.29,19.29,0,0,0-27.23,0" transform="translate(-93.94 -19.98)"/><path class="cls-3" d="M299.5,295.43a19.28,19.28,0,0,0-27.23,0" transform="translate(-93.94 -19.98)"/><path class="cls-3" d="M337.09,296.37a19.28,19.28,0,0,0-27.23,0" transform="translate(-93.94 -19.98)"/><path class="cls-3" d="M311.21,279.37a19.29,19.29,0,0,0-27.23,0" transform="translate(-93.94 -19.98)"/><path class="cls-3" d="M367.51,308.65a19.28,19.28,0,0,0-27.23,0" transform="translate(-93.94 -19.98)"/><path class="cls-3" d="M390.18,326.22a19.28,19.28,0,0,0-27.23,0" transform="translate(-93.94 -19.98)"/><path class="cls-3" d="M430.42,336.05a19.27,19.27,0,0,0-27.22,0" transform="translate(-93.94 -19.98)"/><path class="cls-3" d="M482.57,346.82a19.28,19.28,0,0,0-27.23,0" transform="translate(-93.94 -19.98)"/><path class="cls-3" d="M665.45,354.75a19.29,19.29,0,0,0-27.23,0" transform="translate(-93.94 -19.98)"/><path class="cls-3" d="M466.89,392.91a19.28,19.28,0,0,0-27.23,0" transform="translate(-93.94 -19.98)"/><path class="cls-3" d="M550.39,374.21a19.28,19.28,0,0,0-27.22,0" transform="translate(-93.94 -19.98)"/><path class="cls-3" d="M434.39,357a19.29,19.29,0,0,0-27.23,0" transform="translate(-93.94 -19.98)"/><path class="cls-3" d="M460.84,357a19.29,19.29,0,0,0-27.23,0" transform="translate(-93.94 -19.98)"/><path class="cls-3" d="M360.71,358.91a19.28,19.28,0,0,0-27.23,0" transform="translate(-93.94 -19.98)"/><path class="cls-3" d="M387.16,358.91a19.28,19.28,0,0,0-27.23,0" transform="translate(-93.94 -19.98)"/><path class="cls-3" d="M503.73,387.62a19.28,19.28,0,0,0-27.23,0" transform="translate(-93.94 -19.98)"/><path class="cls-3" d="M530.18,387.62a19.28,19.28,0,0,0-27.23,0" transform="translate(-93.94 -19.98)"/><path class="cls-3" d="M573.82,356.83a19.29,19.29,0,0,0-27.23,0" transform="translate(-93.94 -19.98)"/><path class="cls-3" d="M600.27,356.83a19.29,19.29,0,0,0-27.23,0" transform="translate(-93.94 -19.98)"/><path class="cls-3" d="M392.83,375.91a19.29,19.29,0,0,0-27.23,0" transform="translate(-93.94 -19.98)"/><path class="cls-3" d="M419.65,375.91a19.28,19.28,0,0,0-27.22,0" transform="translate(-93.94 -19.98)"/><path class="cls-3" d="M304.41,325.66a19.28,19.28,0,0,0-27.23,0" transform="translate(-93.94 -19.98)"/><path class="cls-3" d="M331.64,325.66a19.28,19.28,0,0,0-27.23,0" transform="translate(-93.94 -19.98)"/><polygon class="cls-4" points="90.67 252.01 46.09 111.07 1.5 252.01 46.09 243.57 90.67 252.01"/><line class="cls-4" x1="15.95" y1="280.78" x2="76.22" y2="280.78"/><line class="cls-4" x1="46.09" y1="280.78" x2="46.09" y2="244.01"/><polygon class="cls-4" points="346.48 145.74 319.14 59.31 291.8 145.74 319.14 140.56 346.48 145.74"/><line class="cls-4" x1="300.66" y1="163.38" x2="337.62" y2="163.38"/><line class="cls-4" x1="319.14" y1="163.38" x2="319.14" y2="140.83"/><polygon class="cls-4" points="180.98 62.84 161.58 1.5 142.17 62.84 161.58 59.17 180.98 62.84"/><line class="cls-4" x1="148.46" y1="75.37" x2="174.69" y2="75.37"/><line class="cls-4" x1="161.58" y1="75.37" x2="161.58" y2="59.36"/><polygon class="cls-4" points="259.58 82.11 240.17 20.77 220.76 82.11 240.17 78.44 259.58 82.11"/><line class="cls-4" x1="227.05" y1="94.64" x2="253.29" y2="94.64"/><line class="cls-4" x1="240.17" y1="94.64" x2="240.17" y2="78.63"/><polygon class="cls-4" points="144.71 101.01 125.3 39.66 105.89 101.01 125.3 97.33 144.71 101.01"/><line class="cls-4" x1="112.19" y1="113.53" x2="138.42" y2="113.53"/><line class="cls-4" x1="125.3" y1="113.53" x2="125.3" y2="97.52"/><path class="cls-4" d="M183.35,154.59c33.25,3,173.44,21.43,182.51,64.76S314,288.37,449,318.09s256.94,16.12,256.94,16.12" transform="translate(-93.94 -19.98)"/><path class="cls-4" d="M176.43,169.47c33.75,8.06,120.05,22.58,101.77,72-8.57,23.18-35.77,38.29-12.1,78.6,17.62,30,121.42,80.61,121.42,80.61" transform="translate(-93.94 -19.98)"/></g></g></g></svg>