<svg xmlns="http://www.w3.org/2000/svg" viewBox="0 0 584.12 298.07"><defs><style>.cls-1{fill:none;stroke:#1cd7bf;stroke-linecap:round;stroke-linejoin:round;stroke-width:3px;}</style></defs><g id="圖層_2" data-name="圖層 2"><g id="Design"><polyline class="cls-1" points="1.5 296.57 94.66 203.41 125.38 234.13"/><polyline class="cls-1" points="63.33 296.13 180.29 179.18 280.38 279.27"/><polyline class="cls-1" points="119.18 240.08 94.66 226 54 244"/><polyline class="cls-1" points="114.3 245.07 156.83 222.48 168.41 243.37 188.16 223.81 201.25 240.71 208.09 224.19 239.03 238.24"/><polyline class="cls-1" points="303.74 174.31 396.9 81.15 427.62 111.86"/><polyline class="cls-1" points="365.57 173.87 482.52 56.91 582.62 157.01"/><polyline class="cls-1" points="421.42 117.81 396.9 103.74 356.23 121.74"/><polyline class="cls-1" points="416.54 122.81 459.07 100.22 470.65 121.1 490.39 101.55 503.49 118.45 510.33 101.93 541.27 115.98"/><polyline class="cls-1" points="85.07 125.85 141.83 69.02 167.27 94.15"/><polyline class="cls-1" points="117.15 144.65 260.3 1.5 360.39 101.59"/><polyline class="cls-1" points="161.39 100.03 142.97 90.73 111.46 99.46"/><polyline class="cls-1" points="184.74 76.68 222.71 61.49 234.75 114.67 258.4 58.83 281.56 93.01 290.29 50.1 336.62 78.2"/></g></g></svg>