<?xml version="1.0" encoding="UTF-8"?>
<svg width="124px" height="123px" viewBox="0 0 124 123" version="1.1" xmlns="http://www.w3.org/2000/svg" xmlns:xlink="http://www.w3.org/1999/xlink">
    <title>img_bank</title>
    <defs>
        <polygon id="path-1" points="8.8817842e-16 0 89.4996 0 89.4996 89.4998756 8.8817842e-16 89.4998756"></polygon>
    </defs>
    <g id="img_bank" stroke="none" stroke-width="1" fill="none" fill-rule="evenodd">
        <g id="Group-Copy-2" transform="translate(105.000000, 23.000000)" stroke="#1BD7C1" stroke-linecap="round" stroke-linejoin="round" stroke-width="2.2">
            <line x1="8.5" y1="3.91508266e-17" x2="8.5" y2="5" id="Line-10"></line>
            <line x1="2.5" y1="6" x2="2.5" y2="11" id="Line-10-Copy-2" transform="translate(2.500000, 8.500000) rotate(-90.000000) translate(-2.500000, -8.500000) "></line>
            <line x1="14.5" y1="6" x2="14.5" y2="11" id="Line-10-Copy-3" transform="translate(14.500000, 8.500000) rotate(-90.000000) translate(-14.500000, -8.500000) "></line>
            <line x1="8.5" y1="11.9677419" x2="8.5" y2="16.9677419" id="Line-10-Copy"></line>
        </g>
        <g id="Group-Copy-3" transform="translate(2.000000, 23.000000)" stroke="#1BD7C1" stroke-linecap="round" stroke-linejoin="round" stroke-width="2.2">
            <line x1="8.5" y1="3.91508266e-17" x2="8.5" y2="5" id="Line-10"></line>
            <line x1="2.5" y1="6" x2="2.5" y2="11" id="Line-10-Copy-2" transform="translate(2.500000, 8.500000) rotate(-90.000000) translate(-2.500000, -8.500000) "></line>
            <line x1="14.5" y1="6" x2="14.5" y2="11" id="Line-10-Copy-3" transform="translate(14.500000, 8.500000) rotate(-90.000000) translate(-14.500000, -8.500000) "></line>
            <line x1="8.5" y1="11.9677419" x2="8.5" y2="16.9677419" id="Line-10-Copy"></line>
        </g>
        <g id="Group-Copy-4" transform="translate(53.000000, 2.000000)" stroke="#1BD7C1" stroke-linecap="round" stroke-linejoin="round" stroke-width="2.2">
            <line x1="8.5" y1="3.91508266e-17" x2="8.5" y2="5" id="Line-10"></line>
            <line x1="2.5" y1="6" x2="2.5" y2="11" id="Line-10-Copy-2" transform="translate(2.500000, 8.500000) rotate(-90.000000) translate(-2.500000, -8.500000) "></line>
            <line x1="14.5" y1="6" x2="14.5" y2="11" id="Line-10-Copy-3" transform="translate(14.500000, 8.500000) rotate(-90.000000) translate(-14.500000, -8.500000) "></line>
            <line x1="8.5" y1="11.9677419" x2="8.5" y2="16.9677419" id="Line-10-Copy"></line>
        </g>
        <g id="Group-3" transform="translate(17.000000, 31.000000)">
            <mask id="mask-2" fill="white">
                <use xlink:href="#path-1"></use>
            </mask>
            <g id="Clip-2"></g>
            <path d="M2.149,78.8938756 L87.35,78.8938756 L87.353,87.3488756 L2.149,87.3488756 L2.149,78.8938756 Z M8.349,72.4308756 L22.105,72.4308756 L22.105,76.7438756 L8.348,76.7438756 L8.349,72.4308756 Z M19.599,42.3088756 L19.599,70.2828756 L10.849,70.2828756 L10.847,42.3088756 L19.599,42.3088756 Z M8.348,40.1598756 L22.105,40.1598756 L22.105,35.8458756 L8.348,35.8458756 L8.348,40.1598756 Z M2.149,33.6958756 L2.149,29.6138756 L87.35,29.6138756 L87.344,33.6958756 L2.149,33.6958756 Z M83.886,23.5208756 L83.878,27.4648756 L5.614,27.4648756 L5.614,23.5208756 L83.886,23.5208756 Z M2.149,21.3718756 L2.149,17.4268756 L2.315,17.3678756 L44.75,2.21587557 L44.834,2.24687557 L87.35,17.4268756 L87.35,21.3718756 L2.149,21.3718756 Z M81.145,40.1598756 L67.396,40.1598756 L67.396,35.8458756 L81.151,35.8458756 L81.145,40.1598756 Z M69.898,70.2808756 L69.898,42.3088756 L78.649,42.3088756 L78.647,70.2808756 L69.898,70.2808756 Z M23.178,70.2808756 L21.751,70.2808756 L21.751,42.3088756 L23.178,42.3088756 C23.771,42.3088756 24.253,41.8268756 24.253,41.2338756 L24.253,35.8458756 L65.248,35.8458756 L65.248,41.2338756 C65.248,41.5208756 65.359,41.7908756 65.562,41.9948756 C65.765,42.1968756 66.035,42.3088756 66.321,42.3088756 L66.323,42.3088756 L67.749,42.3088756 L67.749,70.2828756 L66.325,70.2828756 C65.732,70.2828756 65.25,70.7648756 65.25,71.3578756 L65.25,76.7468756 L24.253,76.7468756 L24.253,71.3558756 C24.253,70.7638756 23.77,70.2808756 23.178,70.2808756 L23.178,70.2808756 Z M81.153,72.4328756 L81.153,76.7468756 L67.397,76.7438756 L67.397,72.4328756 L81.153,72.4328756 Z M1.074,89.4998756 L88.424,89.4998756 C88.712,89.4998756 88.982,89.3878756 89.185,89.1858756 C89.388,88.9818756 89.5,88.7118756 89.5,88.4248756 L89.5,77.8188756 C89.5,77.5358756 89.385,77.2588756 89.185,77.0588756 C88.982,76.8558756 88.712,76.7438756 88.424,76.7438756 L83.301,76.7438756 L83.301,71.3558756 C83.301,70.7628756 82.819,70.2808756 82.226,70.2808756 L80.799,70.2808756 L80.799,42.3088756 L82.226,42.3088756 L82.228,42.3088756 C82.514,42.3088756 82.784,42.1968756 82.987,41.9948756 C83.19,41.7908756 83.301,41.5208756 83.301,41.2338756 L83.301,35.8458756 L88.424,35.8458756 L88.426,35.8458756 C88.712,35.8458756 88.982,35.7338756 89.185,35.5308756 C89.388,35.3278756 89.5,35.0578756 89.5,34.7708756 L89.5,28.5398756 C89.5,28.2518756 89.388,27.9818756 89.185,27.7788756 C88.982,27.5768756 88.712,27.4648756 88.426,27.4648756 L88.424,27.4648756 L86.035,27.4648756 L86.035,23.5208756 L88.424,23.5208756 C88.712,23.5208756 88.982,23.4088756 89.185,23.2058756 C89.388,23.0028756 89.5,22.7328756 89.5,22.4458756 L89.5,16.6688756 C89.5,16.2158756 89.213,15.8098756 88.787,15.6568756 L45.111,0.0618755682 C44.879,-0.0201244318 44.623,-0.0211244318 44.387,0.0618755682 L0.713,15.6568756 C0.286,15.8098756 8.8817842e-16,16.2168756 8.8817842e-16,16.6688756 L8.8817842e-16,22.4458756 C8.8817842e-16,23.0388756 0.482,23.5208756 1.074,23.5208756 L3.464,23.5208756 L3.464,27.4648756 L1.074,27.4648756 C0.482,27.4648756 8.8817842e-16,27.9468756 8.8817842e-16,28.5398756 L8.8817842e-16,34.7708756 C8.8817842e-16,35.3638756 0.482,35.8458756 1.074,35.8458756 L6.198,35.8458756 L6.198,41.2338756 C6.198,41.8268756 6.68,42.3088756 7.273,42.3088756 L8.7,42.3088756 L8.7,70.2828756 L7.276,70.2828756 C6.684,70.2838756 6.202,70.7658756 6.202,71.3578756 L6.202,76.7468756 L1.074,76.7468756 C0.482,76.7468756 8.8817842e-16,77.2278756 8.8817842e-16,77.8208756 L8.8817842e-16,88.4248756 C8.8817842e-16,89.0178756 0.482,89.4998756 1.074,89.4998756 L1.074,89.4998756 Z" id="Fill-1" fill="#1BD7C1" mask="url(#mask-2)"></path>
        </g>
    </g>
</svg>