<?xml version="1.0" encoding="UTF-8"?>
<svg width="124px" height="123px" viewBox="0 0 124 123" version="1.1" xmlns="http://www.w3.org/2000/svg" xmlns:xlink="http://www.w3.org/1999/xlink">
    <title>img_rocket</title>
    <defs>
        <polygon id="path-1" points="-3.55271368e-15 0 91.9999122 0 91.9999122 92 -3.55271368e-15 92"></polygon>
        <polygon id="path-3" points="0 0 18.9996816 0 18.9996816 19 0 19"></polygon>
    </defs>
    <g id="img_rocket" stroke="none" stroke-width="1" fill="none" fill-rule="evenodd">
        <g id="Group-9" transform="translate(15.000000, 14.000000)">
            <g id="Group-3" transform="translate(3.000088, 0.000000)">
                <mask id="mask-2" fill="white">
                    <use xlink:href="#path-1"></use>
                </mask>
                <g id="Clip-2"></g>
                <path d="M45.0170122,88.86 C48.4440122,84.534 50.7720122,79.587 51.9390122,74.155 L51.9850122,73.941 L52.1750122,73.829 C57.9140122,70.452 63.2110122,66.353 67.9170122,61.647 C69.5900122,59.974 71.2100122,58.19 72.8680122,56.194 L73.6010122,55.311 L73.7490122,56.449 C74.9220122,65.509 71.8090122,74.731 65.4240122,81.117 C60.0940122,86.461 52.9890122,89.498 45.4200122,89.671 L44.3560122,89.694 L45.0170122,88.86 Z M33.4670122,79.479 L33.1800122,79.566 L12.4340122,58.82 L12.5200122,58.533 C16.3900122,45.814 22.9420122,34.775 31.9940122,25.724 C46.6210122,11.097 66.3780122,3.017 89.1280122,2.357 L89.6570122,2.341 L89.6420122,2.871 C88.9830122,25.623 80.9030122,45.38 66.2750122,60.006 C57.2200122,69.061 46.1820122,75.612 33.4670122,79.479 L33.4670122,79.479 Z M21.7400122,86.125 L5.82401223,70.195 L15.2580122,64.928 L27.0210122,76.691 L21.7400122,86.125 Z M3.14201223,46.972 L2.30501223,47.636 L2.33001223,46.568 C2.51201223,39.021 5.55501223,31.921 10.9000122,26.575 C17.2860122,20.191 26.4910122,17.081 35.5360122,18.264 L36.6720122,18.412 L35.7900122,19.145 C33.8020122,20.796 32.0230122,22.412 30.3520122,24.083 C25.6590122,28.775 21.5680122,34.061 18.1900122,39.793 L18.0790122,39.982 L17.8640122,40.027 C12.4300122,41.191 7.47601223,43.527 3.14201223,46.972 L3.14201223,46.972 Z M41.7580122,91.86 C42.7510122,91.953 43.7570122,92 44.7480122,92 C53.1950122,92 61.1210122,88.717 67.0660122,82.757 C74.7020122,75.12 77.9350122,63.773 75.5040122,53.143 L75.4520122,52.919 L75.5900122,52.735 C86.0790122,38.566 91.7540122,20.735 92.0001061,1.176 C92.0040122,0.864 91.8800122,0.56 91.6600122,0.34 C91.4310122,0.111 91.1580122,0 90.8240122,0 L90.8200122,0 C71.2550122,0.245 53.4190122,5.925 39.2450122,16.426 L39.0590122,16.563 L38.8350122,16.511 C28.2250122,14.069 16.8920122,17.298 9.25901223,24.934 C2.58601223,31.606 -0.737987774,40.83 0.138012226,50.242 C0.180012226,50.684 0.475012226,51.068 0.891012226,51.223 C1.30101223,51.374 1.78601223,51.275 2.10101223,50.969 C5.83801223,47.354 10.4410122,44.625 15.4130122,43.074 L16.5530122,42.718 L16.0060122,43.78 C13.5480122,48.554 11.5310122,53.617 10.0100122,58.827 C9.89101223,59.235 10.0030122,59.673 10.3040122,59.973 L13.5520122,63.222 L3.35301223,68.916 C3.03701223,69.093 2.81901223,69.412 2.76901223,69.769 C2.72001223,70.128 2.84201223,70.494 3.09801223,70.749 L21.1830122,88.851 C21.4390122,89.109 21.7980122,89.233 22.1640122,89.181 C22.5200122,89.131 22.8400122,88.913 23.0170122,88.598 L28.7270122,78.396 L32.0260122,81.694 C32.3230122,81.991 32.7560122,82.108 33.1740122,81.988 C38.3740122,80.47 43.4250122,78.46 48.1850122,76.011 L49.2460122,75.465 L48.8910122,76.605 C47.3430122,81.571 44.6240122,86.169 41.0300122,89.899 C40.7220122,90.219 40.6230122,90.693 40.7770122,91.109 C40.9320122,91.524 41.3160122,91.819 41.7580122,91.86 L41.7580122,91.86 Z" id="Fill-1" fill="#00DCC0" mask="url(#mask-2)"></path>
            </g>
            <g id="Group-6" transform="translate(0.000000, 75.999600)">
                <mask id="mask-4" fill="white">
                    <use xlink:href="#path-3"></use>
                </mask>
                <g id="Clip-5"></g>
                <path d="M5.8756,0 C5.8166,0 5.7566,0.004 5.6966,0.014 C5.3886,0.062 5.1156,0.227 4.9306,0.48 C1.0416,5.801 -0.6684,12.111 0.2376,17.794 C0.3176,18.293 0.7076,18.682 1.2066,18.762 C2.1946,18.92 3.2196,19 4.2526,19 C9.1046,19 14.1726,17.249 18.5216,14.069 C19.0416,13.69 19.1546,12.959 18.7756,12.439 C18.5916,12.188 18.3206,12.023 18.0136,11.975 C17.7036,11.925 17.3966,12.001 17.1466,12.186 L17.1456,12.187 C12.7126,15.426 7.6336,16.995 2.8466,16.611 L2.4226,16.577 L2.3886,16.153 C2.0006,11.371 3.5726,6.293 6.8156,1.856 C7.1946,1.336 7.0806,0.605 6.5626,0.227 C6.3596,0.078 6.1216,0 5.8756,0" id="Fill-4" fill="#00DCC0" mask="url(#mask-4)"></path>
            </g>
            <path d="M61.6928,52.6871 L61.6928,52.6871 C59.1018,55.2751 55.6598,56.7001 52.0008,56.7001 C48.3388,56.7001 44.8968,55.2751 42.3078,52.6871 C39.7228,50.1031 38.2988,46.6631 38.2988,42.9991 C38.2988,39.3361 39.7228,35.8961 42.3078,33.3121 C44.8968,30.7251 48.3388,29.3001 52.0008,29.3001 C55.6598,29.3001 59.1018,30.7251 61.6928,33.3121 C64.2768,35.8961 65.7008,39.3361 65.7008,42.9991 C65.7008,46.6631 64.2768,50.1031 61.6928,52.6871 M52.0008,27.0001 C47.7248,27.0001 43.7038,28.6641 40.6798,31.6861 C37.6618,34.7031 35.9998,38.7211 35.9998,42.9991 C35.9998,47.2781 37.6618,51.2961 40.6798,54.3131 C43.7038,57.3351 47.7248,58.9991 52.0008,58.9991 C56.2748,58.9991 60.2948,57.3351 63.3198,54.3131 C66.3378,51.2961 67.9998,47.2781 67.9998,42.9991 C67.9998,38.7211 66.3388,34.7031 63.3198,31.6861 C60.2948,28.6641 56.2748,27.0001 52.0008,27.0001" id="Fill-7" fill="#00DCC0"></path>
        </g>
    </g>
</svg>