<?xml version="1.0" encoding="UTF-8"?>
<svg width="124px" height="123px" viewBox="0 0 124 123" version="1.1" xmlns="http://www.w3.org/2000/svg" xmlns:xlink="http://www.w3.org/1999/xlink">
    <title>img_check</title>
    <defs>
        <polygon id="path-1" points="0 0 82.999 0 82.999 100 0 100"></polygon>
    </defs>
    <g id="img_check" stroke="none" stroke-width="1" fill="none" fill-rule="evenodd">
        <g id="Group-9" transform="translate(21.000000, 12.000000)">
            <mask id="mask-2" fill="white">
                <use xlink:href="#path-1"></use>
            </mask>
            <g id="Clip-2"></g>
            <path d="M19.211,18.6 L43.79,18.6 L43.79,10.836 L19.211,10.836 L19.211,18.6 Z M25.947,7.955 C25.947,4.882 28.438,2.382 31.5,2.382 C34.562,2.382 37.053,4.882 37.053,7.955 L37.053,8.455 L25.947,8.455 L25.947,7.955 Z M63,53.609 L63,14.718 C63,14.062 62.468,13.527 61.816,13.527 L46.158,13.527 L46.158,9.646 C46.158,8.989 45.626,8.455 44.974,8.455 L39.421,8.455 L39.421,7.955 C39.421,3.568 35.868,0 31.5,0 C27.132,0 23.579,3.568 23.579,7.955 L23.579,8.455 L18.026,8.455 C17.373,8.455 16.842,8.989 16.842,9.646 L16.842,13.527 L1.184,13.527 C0.531,13.527 0,14.062 0,14.718 L0,90.809 C0,91.466 0.531,92 1.184,92 L39.483,92 C40.136,92 40.667,91.466 40.667,90.809 C40.667,90.152 40.136,89.618 39.483,89.618 L2.368,89.618 L2.368,15.909 L16.842,15.909 L16.842,19.791 C16.842,20.448 17.373,20.982 18.026,20.982 L44.974,20.982 C45.626,20.982 46.158,20.448 46.158,19.791 L46.158,15.909 L60.631,15.909 L60.631,53.609 C60.631,54.266 61.163,54.8 61.816,54.8 C62.468,54.8 63,54.266 63,53.609 L63,53.609 Z" id="Fill-1" fill="#1BD7C1" mask="url(#mask-2)"></path>
            <path d="M11.1609,71.25 L35.8389,71.25 C36.6179,71.25 37.2499,70.689 37.2499,70 C37.2499,69.752 37.1659,69.521 37.0239,69.326 C36.7229,69.048 36.3039,68.875 35.8389,68.875 L11.1609,68.875 C10.6979,68.875 10.2799,69.047 9.9789,69.323 C9.8349,69.518 9.7499,69.75 9.7499,70 C9.7499,70.689 10.3829,71.25 11.1609,71.25" id="Fill-3" fill="#1BD7C1" mask="url(#mask-2)"></path>
            <path d="M11.1658,59.25 L42.8338,59.25 C43.6148,59.25 44.2498,58.689 44.2498,58 C44.2498,57.752 44.1658,57.523 44.0248,57.328 C43.7218,57.049 43.3008,56.875 42.8338,56.875 L11.1658,56.875 C10.6998,56.875 10.2798,57.048 9.9778,57.325 C9.8348,57.52 9.7498,57.751 9.7498,58 C9.7498,58.689 10.3848,59.25 11.1658,59.25" id="Fill-4" fill="#1BD7C1" mask="url(#mask-2)"></path>
            <path d="M11.1921,48.25 L51.8081,48.25 C52.6031,48.25 53.2501,47.689 53.2501,47 C53.2501,46.756 53.1651,46.53 53.0261,46.338 C52.7181,46.054 52.2871,45.875 51.8071,45.875 L11.1921,45.875 C10.7131,45.875 10.2831,46.053 9.9751,46.336 C9.8351,46.529 9.7501,46.755 9.7501,47 C9.7501,47.689 10.3971,48.25 11.1921,48.25" id="Fill-5" fill="#1BD7C1" mask="url(#mask-2)"></path>
            <path d="M11.1921,36.25 L51.8081,36.25 C52.6031,36.25 53.2501,35.689 53.2501,35 C53.2501,34.756 53.1651,34.53 53.0261,34.338 C52.7181,34.054 52.2871,33.875 51.8071,33.875 L11.1921,33.875 C10.7131,33.875 10.2831,34.053 9.9751,34.336 C9.8351,34.529 9.7501,34.755 9.7501,35 C9.7501,35.689 10.3971,36.25 11.1921,36.25" id="Fill-6" fill="#1BD7C1" mask="url(#mask-2)"></path>
            <path d="M61.4995,97.6152 C50.9595,97.6152 42.3845,89.0402 42.3845,78.5002 C42.3845,67.9592 50.9595,59.3842 61.4995,59.3842 C72.0405,59.3842 80.6155,67.9592 80.6155,78.5002 C80.6155,89.0402 72.0405,97.6152 61.4995,97.6152 M61.4995,57.0002 C49.6445,57.0002 39.9995,66.6452 39.9995,78.5002 C39.9995,90.3552 49.6445,100.0002 61.4995,100.0002 C73.3545,100.0002 82.9995,90.3552 82.9995,78.5002 C82.9995,66.6452 73.3545,57.0002 61.4995,57.0002" id="Fill-7" fill="#1BD7C1" mask="url(#mask-2)"></path>
            <path d="M74.6479,70.3555 C74.1979,69.8965 73.4219,69.8975 72.9769,70.3555 L58.6249,85.0455 L51.0229,77.2645 C50.7989,77.0355 50.5019,76.9095 50.1869,76.9095 C49.8729,76.9095 49.5759,77.0355 49.3519,77.2645 C48.8819,77.7455 48.8819,78.5275 49.3519,79.0075 L57.7899,87.6445 C58.2369,88.1045 59.0139,88.1015 59.4599,87.6455 L74.6479,72.0995 C75.1179,71.6185 75.1179,70.8355 74.6479,70.3555" id="Fill-8" fill="#1BD7C1" mask="url(#mask-2)"></path>
        </g>
    </g>
</svg>