<?xml version="1.0" encoding="utf-8"?>
<!-- Generator: Adobe Illustrator 25.3.1, SVG Export Plug-In . SVG Version: 6.00 Build 0)  -->
<svg version="1.1" id="圖層_1" xmlns="http://www.w3.org/2000/svg" xmlns:xlink="http://www.w3.org/1999/xlink" x="0px" y="0px"
	 viewBox="0 0 72 72" style="enable-background:new 0 0 72 72;" xml:space="preserve">
<style type="text/css">
	.st0{fill:#1CD8C0;}
	.st1{fill:none;stroke:#1CD8C0;stroke-width:1.5;}
</style>
<g id="pie-chart" transform="translate(13.000000, 13.000000)">
	<g id="Shape">
		<path class="st0" d="M5.9,36.3c0.1,0.1,0.3,0.2,0.5,0.2c0,0,0,0,0,0c0.2,0,0.4-0.1,0.5-0.2l14.2-14.2c0.1-0.1,0.2-0.3,0.2-0.5v-20
			c0-0.2-0.1-0.4-0.2-0.5S20.7,1,20.6,1c-8,0.8-14.8,5.9-17.9,13.3S0.8,30.1,5.9,36.3z M3.4,16h16.5v5.4l-0.1,0.1H2.4
			C2.5,19.7,2.8,17.8,3.4,16L3.4,16z M18.5,22.9L13,28.4c0,0,0,0,0,0H3.2c-0.5-1.8-0.8-3.6-0.8-5.5L18.5,22.9z M6.5,34.9
			c-1.2-1.6-2.2-3.3-2.9-5.2h8L6.5,34.9z M19.9,7.8H8.6c3.1-3,7.1-4.9,11.3-5.4V7.8z M7.3,9.2C7.3,9.2,7.4,9.2,7.3,9.2l12.6,0v5.5
			h-16C4.8,12.7,5.9,10.8,7.3,9.2L7.3,9.2z M44,24.1c-0.1-0.1-0.3-0.2-0.5-0.2h-20c-0.2,0-0.4,0.1-0.5,0.2L8.8,38.3
			c-0.1,0.1-0.2,0.3-0.2,0.5c0,0.2,0.1,0.4,0.2,0.5c6.2,5.1,14.7,6.3,22,3.3s12.5-9.9,13.3-17.9C44.2,24.5,44.2,24.3,44,24.1z
			 M22.6,42.9c-4.4,0-8.8-1.5-12.3-4.2l13.4-13.4h19C41.4,35.3,32.9,42.9,22.6,42.9z M44.2,20.5C43.2,10.2,35,2,24.7,1
			c-0.2,0-0.4,0-0.5,0.2C24.1,1.3,24,1.5,24,1.7v18.8c0,0.4,0.3,0.7,0.7,0.7h18.8c0.2,0,0.4-0.1,0.5-0.2
			C44.2,20.8,44.2,20.6,44.2,20.5L44.2,20.5z M25.4,19.8V2.4c9,1.2,16.2,8.4,17.4,17.4H25.4z"/>
		<path class="st0" d="M22.6,44.5c-5,0-9.9-1.7-13.9-5c-0.2-0.2-0.3-0.4-0.3-0.7c0-0.3,0.1-0.5,0.3-0.7l14.2-14.2
			c0.2-0.2,0.4-0.3,0.7-0.3h20c0.3,0,0.5,0.1,0.7,0.3s0.3,0.5,0.2,0.7c-0.8,8.1-5.9,15-13.4,18.1C28.3,43.9,25.5,44.5,22.6,44.5z
			 M23.5,24.2c-0.1,0-0.2,0-0.3,0.1L9,38.4c-0.1,0.1-0.1,0.2-0.1,0.3c0,0.1,0.1,0.2,0.2,0.3c6.1,5,14.5,6.3,21.8,3.2
			c7.3-3,12.3-9.8,13.1-17.7c0-0.1,0-0.2-0.1-0.3c-0.1-0.1-0.2-0.1-0.3-0.1H23.5z M22.6,43.1L22.6,43.1c-4.5,0-8.9-1.5-12.5-4.2
			L10,38.7L23.7,25h19.4l0,0.3C41.7,35.6,33.1,43.1,22.6,43.1z M10.7,38.7c3.4,2.5,7.7,3.9,11.9,3.9c10.1,0,18.4-7.2,19.8-17.1H23.9
			L10.7,38.7z M6.5,36.8c-0.3,0-0.5-0.1-0.7-0.3l0,0c-5.2-6.3-6.4-14.8-3.3-22.3c3.1-7.5,10-12.6,18.1-13.4c0.3,0,0.5,0.1,0.7,0.2
			s0.3,0.4,0.3,0.7v20c0,0.2-0.1,0.5-0.3,0.7L7.1,36.5C6.9,36.7,6.7,36.8,6.5,36.8z M6.1,36.1c0.1,0.1,0.2,0.1,0.3,0.2c0,0,0,0,0,0
			c0.1,0,0.2,0,0.3-0.1L20.9,22c0.1-0.1,0.1-0.2,0.1-0.3v-20c0-0.1-0.1-0.2-0.1-0.3s-0.2-0.1-0.3-0.1C12.7,2,5.9,7,2.9,14.4
			C-0.2,21.7,1.1,30,6.1,36.1L6.1,36.1z M6.5,35.2L6.3,35c-1.2-1.6-2.2-3.3-2.9-5.2l-0.1-0.3h9L6.5,35.2z M4,30
			c0.6,1.6,1.5,3.1,2.5,4.5l4.5-4.5H4z M13.1,28.6H3L3,28.4c-0.5-1.8-0.8-3.7-0.9-5.6l0-0.3h17L13.1,28.6z M3.4,28.1h9.5l5-5H2.6
			C2.7,24.8,2.9,26.5,3.4,28.1z M20,21.8H2.1l0-0.3c0.1-1.9,0.4-3.8,1-5.6l0.1-0.2l0.2,0h16.8v5.8L20,21.8z M2.6,21.3h17.1v-5H3.6
			C3.1,17.9,2.7,19.6,2.6,21.3z M43.5,21.4H24.7c-0.5,0-0.9-0.4-0.9-0.9V1.7c0-0.3,0.1-0.5,0.3-0.7c0.2-0.2,0.5-0.3,0.7-0.2
			c10.4,1,18.7,9.3,19.7,19.7v0c0,0.3-0.1,0.5-0.2,0.7C44,21.3,43.8,21.4,43.5,21.4z M24.7,1.2c-0.1,0-0.2,0-0.3,0.1
			c-0.1,0.1-0.1,0.2-0.1,0.3v18.8c0,0.2,0.2,0.4,0.4,0.4h18.8c0.1,0,0.2-0.1,0.3-0.1c0.1-0.1,0.1-0.2,0.1-0.3l0,0
			C43,10.3,34.9,2.2,24.7,1.2C24.7,1.3,24.7,1.2,24.7,1.2z M43.1,20.1h-18v-18l0.3,0c9.2,1.2,16.4,8.5,17.6,17.6L43.1,20.1z
			 M25.6,19.6h16.9C41.2,10.9,34.3,4,25.6,2.7V19.6z M20.2,14.9H3.5l0.1-0.3c0.8-2,2-3.9,3.5-5.6l0.1-0.1l0.1,0l12.8,0V14.9z
			 M4.3,14.4h15.4v-5H7.4C6.1,10.9,5.1,12.6,4.3,14.4z M20.2,8.1H8l0.5-0.4c3.2-3,7.1-4.9,11.5-5.5l0.3,0V8.1z M9.3,7.6h10.4V2.7
			C15.8,3.3,12.2,5,9.3,7.6z"/>
	</g>
</g>
<circle id="Oval" class="st1" cx="36" cy="36" r="35"/>
</svg>
