<?xml version="1.0" encoding="utf-8"?>
<!-- Generator: Adobe Illustrator 25.3.1, SVG Export Plug-In . SVG Version: 6.00 Build 0)  -->
<svg version="1.1" xmlns="http://www.w3.org/2000/svg" xmlns:xlink="http://www.w3.org/1999/xlink" x="0px" y="0px"
	 viewBox="0 0 360 240" style="enable-background:new 0 0 360 240;" xml:space="preserve">
<style type="text/css">
	.st0{display:none;}
	.st1{display:inline;}
	.st2{fill-rule:evenodd;clip-rule:evenodd;fill:#FFFFFF;}
	.st3{opacity:0.7;}
	.st4{fill:none;stroke:#FFBF27;stroke-width:1.073;stroke-linecap:round;stroke-linejoin:round;stroke-miterlimit:10;}
	
		.st5{fill-rule:evenodd;clip-rule:evenodd;fill:none;stroke:#FFBF27;stroke-width:1.073;stroke-linecap:round;stroke-linejoin:round;stroke-miterlimit:10;}
	.st6{fill:none;stroke:#1CD8C0;stroke-width:2.0785;stroke-linecap:round;stroke-linejoin:round;stroke-miterlimit:10;}
	.st7{fill:#FFBF27;}
	.st8{fill:none;stroke:#FFBF27;stroke-width:2.0736;stroke-linecap:round;stroke-linejoin:round;stroke-miterlimit:10;}
	.st9{fill:#1E9BD7;}
	.st10{fill:none;stroke:#1E9BD7;stroke-width:1.9905;stroke-linecap:round;stroke-linejoin:round;stroke-miterlimit:10;}
	.st11{fill:#FFFFFF;}
	.st12{fill:none;stroke:#FFBF27;stroke-width:2;stroke-linecap:round;stroke-linejoin:round;stroke-miterlimit:10;}
	
		.st13{fill-rule:evenodd;clip-rule:evenodd;fill:none;stroke:#FFBF27;stroke-width:2;stroke-linecap:round;stroke-linejoin:round;stroke-miterlimit:10;}
	.st14{fill:none;}
	.st15{fill:#1CD8C0;}
	.st16{fill:none;stroke:#37B0AC;stroke-width:2;stroke-miterlimit:10;}
	.st17{fill:#FFD572;}
	.st18{fill:#FFE5A8;}
	.st19{fill:none;stroke:#1E9BD7;stroke-width:2;stroke-linecap:round;stroke-linejoin:round;stroke-miterlimit:10;}
	.st20{fill-rule:evenodd;clip-rule:evenodd;fill:#1E9BD7;}
	.st21{fill:none;stroke:#1E9BD7;stroke-width:2;stroke-linecap:round;}
	.st22{fill:none;stroke:#1E9BD7;stroke-width:2;stroke-linecap:square;}
	.st23{fill:#8DEBDF;}
	.st24{fill:none;stroke:#1E9BD7;stroke-width:2;stroke-miterlimit:10;}
</style>
<g id="_x31_" class="st0">
	<g class="st1">
		<path class="st17" d="M116.8,37.4v168.5l56.9-66v-0.4V139v-0.4v-0.4v-0.4v-0.4v-0.4v-0.4V136v-0.4v-0.4v-0.4v-0.4v-0.4v-0.4v-0.4
			v-0.4v-0.4v-0.4v-0.4V131v-0.4v-0.4v-0.4v-0.4v-0.4v-0.4V128v-0.4v-0.4v-0.4v-0.4v-0.4v-0.4V125v-0.4v-0.4v-0.4v-0.4v-0.4v-0.4
			V122v-0.4v-0.4v-0.4v-0.4v-0.4v-0.4v-0.4v-0.4v-0.4v-0.4v-0.4v-0.4v-0.4v-0.4v-0.4v-0.4v-0.4v-0.4V114v-0.4v-0.4v-0.4v-0.4v-0.4
			v-0.4V111v-0.4v-0.4v-0.4v-0.4v-0.4v-0.4V108v-0.4v-0.4v-0.4v-0.4v-0.4v-0.4v-0.4v-0.4v-0.4v-0.4v-0.4v-0.4v-0.4v-0.4v-0.4v-0.4
			v-0.4v-0.4V100v-0.4V73.1v-0.4v-0.4v-0.4v-0.4v-0.4v-0.4v-0.4v-0.4v-0.4v-0.4v-0.4V68v-0.4v-0.4v-0.4v-0.4v-0.4v-0.4V65v-0.4v-0.4
			v-0.4v-0.4v-0.4v-0.4V62v-0.4v-0.4v-0.4v-0.4v-0.4v-0.4V59v-0.4v-0.4v-0.4v-0.4v-0.4v-0.4v-0.4v-0.4v-0.4v-0.4v-0.4V54v-0.4v-0.4
			v-0.4v-0.4v-0.4v-0.4V51v-0.4v-0.4v-0.4v-0.4v-0.4v-0.4V48v-0.4v-0.4v-0.4v-0.4v-0.4v-0.4V45v-0.4v-0.4v-0.4v-0.4v-0.4v-0.4v-0.4
			v-0.4v-0.4v-0.4v-0.4V40v-0.4v-0.4v-0.4v-0.4v-0.4v-0.4V37v-0.4v-0.4v-0.4v-0.4v-0.4v-0.4V34v-0.4v-0.4v-0.4
			C153.7,32.8,134.5,34.5,116.8,37.4z"/>
		<path class="st18" d="M13.7,101.5c0,0.1,0,0.2,0,0.2c0,0.1,0,0.1,0,0.2c0,0.1,0,0.2,0,0.2c0,0.1,0,0.1,0,0.2c0,0.1,0,0.2,0,0.2
			c0,0.1,0,0.1,0,0.2c0,0.1,0,0.2,0,0.2c0,0.1,0,0.1,0,0.2c0,0.1,0,0.2,0,0.2c0,0.1,0,0.1,0,0.2c0,0.1,0,0.2,0,0.2
			c0,0.1,0,0.1,0,0.2c0,0.1,0,0.2,0,0.2c0,0.1,0,0.1,0,0.2c0,0.1,0,0.2,0,0.2c0,0.1,0,0.1,0,0.2c0,0.1,0,0.2,0,0.2
			c0,0.1,0,0.1,0,0.2c0,0.1,0,0.2,0,0.2c0,0.1,0,0.1,0,0.2c0,0.1,0,0.2,0,0.2c0,0.1,0,0.1,0,0.2c0,0.1,0,0.2,0,0.2
			c0,0.1,0,0.1,0,0.2c0,0.1,0,0.2,0,0.2c0,0.1,0,0.1,0,0.2c0,0.1,0,0.2,0,0.2c0,0.1,0,0.1,0,0.2c0,0.1,0,0.2,0,0.2
			c0,0.1,0,0.1,0,0.2c0,0.1,0,0.2,0,0.2c0,0.1,0,0.1,0,0.2c0,0.1,0,0.2,0,0.2c0,0.1,0,0.1,0,0.2c0,0.1,0,0.2,0,0.2
			c0,0.1,0,0.1,0,0.2c0,0.1,0,0.2,0,0.2c0,0.1,0,0.1,0,0.2c0,0.1,0,0.2,0,0.2c0,0.1,0,0.1,0,0.2c0,0.1,0,0.2,0,0.2
			c0,0.1,0,0.1,0,0.2c0,0.1,0,0.2,0,0.2c0,0.1,0,0.1,0,0.2c0,0.1,0,0.2,0,0.2c0,0.1,0,0.1,0,0.2c0,0.1,0,0.2,0,0.2
			c0,0.1,0,0.1,0,0.2c0,0.1,0,0.2,0,0.2c0,0.1,0,0.1,0,0.2c0,0.1,0,0.2,0,0.2c0,0.1,0,0.1,0,0.2c0,0.1,0,0.2,0,0.2
			c0,0.1,0,0.1,0,0.2c0,0.1,0,0.2,0,0.2c0,0.1,0,0.1,0,0.2c0,0.1,0,0.2,0,0.2c0,0.1,0,0.1,0,0.2c0,0.1,0,0.2,0,0.2
			c0,0.1,0,0.1,0,0.2c0,0.1,0,0.2,0,0.2c0,0.1,0,0.1,0,0.2c0,0.1,0,0.2,0,0.2c0,0.1,0,0.1,0,0.2c0,0.1,0,0.2,0,0.2
			c0,0.1,0,0.1,0,0.2c0,0.1,0,0.2,0,0.2c0,0.1,0,0.1,0,0.2c0,0.1,0,0.2,0,0.2c0,0.1,0,0.1,0,0.2c0,0.1,0,0.2,0,0.2
			c0,0.1,0,0.1,0,0.2c0,0.1,0,0.2,0,0.2c0,0.1,0,0.1,0,0.2c0,0.1,0,0.2,0,0.2c0,0.1,0,0.1,0,0.2c0,0.1,0,0.2,0,0.2
			c0,0.1,0,0.1,0,0.2c0,0.1,0,0.2,0,0.2c0,0.1,0,0.1,0,0.2c0,0.1,0,0.2,0,0.2c0,0.1,0,0.1,0,0.2c0,0.1,0,0.2,0,0.2
			c0,0.1,0,0.1,0,0.2c0,0.1,0,0.2,0,0.2c0,0.1,0,0.1,0,0.2c0,0.1,0,0.2,0,0.2c0,0.1,0,0.1,0,0.2c0,0.1,0,0.2,0,0.2
			c0,0.1,0,0.1,0,0.2c0,0.1,0,0.2,0,0.2c0,0.1,0,0.1,0,0.2c0,0.1,0,0.2,0,0.2c0,0.1,0,0.1,0,0.2c0,0.1,0,0.2,0,0.2
			c0,0.1,0,0.1,0,0.2c0,0.1,0,0.2,0,0.2c0,0.1,0,0.1,0,0.2c0,0.1,0,0.2,0,0.2c0,0.1,0,0.1,0,0.2c0,0.1,0,0.2,0,0.2
			c0,0.1,0,0.1,0,0.2c0,0.1,0,0.2,0,0.2c0,0.1,0,0.1,0,0.2c0,0.1,0,0.2,0,0.2c0,0.1,0,0.1,0,0.2c0,0.1,0,0.2,0,0.2
			c0,0.1,0,0.1,0,0.2c0,0.1,0,0.2,0,0.2c0,0.1,0,0.1,0,0.2c0,0.1,0,0.2,0,0.2c0,0.1,0,0.1,0,0.2c0,0.1,0,0.2,0,0.2
			c0,0.1,0,0.1,0,0.2c0,0.1,0,0.2,0,0.2c0,0.1,0,0.1,0,0.2c0,0.1,0,0.2,0,0.2c0,0.1,0,0.1,0,0.2c0,0.1,0,0.2,0,0.2
			c0,0.1,0,0.1,0,0.2c0,0.1,0,0.2,0,0.2c0,0.1,0,0.1,0,0.2c0,0.1,0,0.2,0,0.2c0,0.1,0,0.1,0,0.2c0,0.1,0,0.2,0,0.2
			c0,0.1,0,0.1,0,0.2c0,0.1,0,0.2,0,0.2c0,0.1,0,0.1,0,0.2c0,0.1,0,0.2,0,0.2c0,0.1,0,0.1,0,0.2c0,0.1,0,0.2,0,0.2
			c0,0.1,0,0.1,0,0.2c0,0.1,0,0.2,0,0.2c0,0.1,0,0.1,0,0.2c0,0.1,0,0.2,0,0.2c0,0.1,0,0.1,0,0.2c0,0.1,0,0.2,0,0.2
			c0,0.1,0,0.1,0,0.2c0,0.1,0,0.2,0,0.2c0,0.1,0,0.1,0,0.2c0,0.1,0,0.2,0,0.2c0,0.1,0,0.1,0,0.2c0,0.1,0,0.2,0,0.2
			c0,0.1,0,0.1,0,0.2c0,0.1,0,0.2,0,0.2c0,0.1,0,0.1,0,0.2c0,0.1,0,0.2,0,0.2c0,0.1,0,0.1,0,0.2c0,0.1,0,0.2,0,0.2
			c0,0.1,0,0.1,0,0.2c0,0.1,0,0.2,0,0.2c0,0.1,0,0.1,0,0.2c0,0.1,0,0.2,0,0.2c0,0.1,0,0.1,0,0.2c0,0.1,0,0.2,0,0.2
			c0,0.1,0,0.1,0,0.2c0,0.1,0,0.2,0,0.2c0,0.1,0,0.1,0,0.2c0,0.1,0,0.2,0,0.2c0,0.1,0,0.1,0,0.2c0,0.1,0,0.2,0,0.2
			c0,0.1,0,0.1,0,0.2c0,0.1,0,0.2,0,0.2c0,0.1,0,0.1,0,0.2c0,0.1,0,0.2,0,0.2c0,0.1,0,0.1,0,0.2c0,0.1,0,0.2,0,0.2
			c0,0.1,0,0.1,0,0.2c0,0.1,0,0.2,0,0.2c0,0.1,0,0.1,0,0.2c0,0.1,0,0.2,0,0.2c0,0.1,0,0.1,0,0.2c0,0.1,0,0.2,0,0.2
			c0,0.1,0,0.1,0,0.2c0,0.1,0,0.2,0,0.2c0,0.1,0,0.1,0,0.2c0,0.1,0,0.2,0,0.2c0,0.1,0,0.1,0,0.2c0,0.1,0,0.2,0,0.2
			c0,0.1,0,0.1,0,0.2c0,0.1,0,0.2,0,0.2c0,0.1,0,0.1,0,0.2c0,0.1,0,0.2,0,0.2c0,0.1,0,0.1,0,0.2c0,0.1,0,0.2,0,0.2
			c0,0.1,0,0.1,0,0.2c0,0.1,0,0.2,0,0.2c0,0.1,0,0.1,0,0.2c0,0.1,0,0.2,0,0.2c0,0.1,0,0.1,0,0.2c0,29.2,42.8,54.1,103.2,64.1V37.4
			C56.5,47.4,13.7,72.3,13.7,101.5z"/>
		<path class="st7" d="M173.7,32.7c-88.6,0.4-160.1,31-160.1,68.7c0,29.2,42.8,54.1,103.2,64.1l56.9-66V32.7z"/>
		<path class="st19" d="M124.8,26.3c-39.2,5.5-71.8,17.2-91.4,32.4"/>
		<g>
			<path class="st11" d="M70.7,105.7c-0.8-0.1-1.5-0.2-2.2-0.3s-1.4-0.4-2.1-0.6l0.8-3.5c0.8,0.2,1.6,0.4,2.4,0.6
				c0.8,0.1,1.5,0.2,2.3,0.2c0.5,0,0.9,0,1.2-0.1s0.6-0.2,0.7-0.3c0.2-0.2,0.3-0.4,0.4-0.7c0.1-0.3,0.1-0.6,0.1-1c0-0.4,0-0.8-0.1-1
				c0-0.3-0.2-0.5-0.3-0.6c-0.2-0.2-0.5-0.3-0.8-0.4c-0.4-0.1-0.9-0.2-1.6-0.4c-1.1-0.2-2-0.5-2.6-0.8s-1.2-0.7-1.5-1.1
				s-0.6-1-0.7-1.7c-0.1-0.7-0.2-1.5-0.2-2.4c0-0.9,0.1-1.6,0.2-2.2c0.2-0.6,0.4-1.2,0.8-1.6s0.9-0.8,1.5-1.1
				c0.6-0.3,1.4-0.4,2.4-0.5v-3.4h3.4v3.4c0.6,0,1.1,0.1,1.7,0.2c0.6,0.1,1.1,0.2,1.6,0.3l-0.4,3.7c-0.7-0.2-1.4-0.3-2.3-0.4
				c-0.9-0.1-1.7-0.1-2.6-0.1c-0.5,0-0.8,0-1.1,0.1c-0.3,0-0.5,0.1-0.7,0.3s-0.2,0.3-0.3,0.6c0,0.2-0.1,0.6-0.1,0.9
				c0,0.4,0,0.7,0.1,1c0,0.2,0.2,0.4,0.3,0.6c0.2,0.1,0.5,0.3,0.9,0.4c0.4,0.1,0.9,0.3,1.6,0.4c1.2,0.3,2.1,0.6,2.8,0.9
				c0.7,0.3,1.2,0.7,1.5,1.2c0.3,0.4,0.5,1,0.6,1.6c0.1,0.6,0.1,1.4,0.1,2.2c0,0.9-0.1,1.6-0.2,2.3c-0.1,0.7-0.3,1.2-0.7,1.7
				c-0.3,0.5-0.8,0.9-1.4,1.2c-0.6,0.3-1.3,0.5-2.3,0.6v3.4h-3.4V105.7z"/>
			<path class="st11" d="M85.8,94c1,0,1.6-0.1,1.9-0.4c0.3-0.3,0.5-0.8,0.5-1.4V91c0-0.6-0.2-1-0.5-1.2c-0.3-0.2-1-0.3-1.9-0.3
				c-0.7,0-1.3,0-2,0.1c-0.7,0.1-1.4,0.2-2.1,0.3l-0.4-3.4c0.9-0.2,1.7-0.3,2.4-0.4c0.8-0.1,1.6-0.1,2.5-0.1c1.2,0,2.3,0.1,3.1,0.3
				c0.8,0.2,1.5,0.5,1.9,0.8c0.5,0.4,0.8,0.8,1,1.4c0.2,0.6,0.3,1.2,0.3,1.9v1.4c0,0.9-0.2,1.7-0.5,2.3s-0.8,1.2-1.5,1.6
				c0.8,0.4,1.4,0.8,1.8,1.4c0.4,0.6,0.5,1.3,0.5,2.3v1.5c0,0.7-0.1,1.4-0.3,2c-0.2,0.6-0.5,1.1-1.1,1.5c-0.5,0.4-1.2,0.7-2.1,1
				c-0.9,0.2-2,0.3-3.3,0.3c-0.9,0-1.8,0-2.5-0.1c-0.8-0.1-1.6-0.3-2.3-0.5l0.4-3.3c0.7,0.1,1.4,0.2,2,0.3c0.6,0.1,1.4,0.1,2.2,0.1
				c1,0,1.7-0.1,2.1-0.4s0.5-0.6,0.5-1.2v-1.4c0-1-0.7-1.6-2.2-1.6h-3.9V94H85.8z"/>
			<path class="st11" d="M105.1,98.1c-0.7,0.9-1.3,1.6-1.8,2.2c-0.5,0.6-0.9,1.1-1.4,1.5h6.1v3.7H96v-3.7c0.5-0.6,1-1,1.3-1.4
				c0.3-0.4,0.7-0.7,1-1s0.6-0.6,0.9-1c0.3-0.3,0.7-0.7,1.1-1.3c0.7-0.8,1.3-1.5,1.7-2c0.4-0.5,0.7-0.9,1-1.3c0.2-0.4,0.4-0.7,0.4-1
				s0.1-0.7,0.1-1.3v-0.5c0-0.5-0.2-0.9-0.5-1.1s-1-0.3-1.8-0.3c-0.4,0-0.8,0-1.2,0c-0.4,0-0.9,0.1-1.3,0.1c-0.4,0-0.9,0.1-1.3,0.2
				c-0.4,0.1-0.8,0.1-1.1,0.2l-0.6-3.6c0.9-0.2,1.9-0.4,2.9-0.6c1-0.1,1.9-0.2,2.8-0.2c2.3,0,3.9,0.4,4.9,1.1c1,0.7,1.5,1.9,1.5,3.5
				v0.8c0,0.7,0,1.3,0,1.8s-0.1,0.9-0.3,1.4c-0.2,0.4-0.5,0.9-0.8,1.5C106.3,96.6,105.8,97.2,105.1,98.1z"/>
			<path class="st11" d="M122.7,101.4v4.1h-4.2v-4.1h-8.7v-3.7l7.3-11.4h5.6v11.6h2.4v3.5H122.7z M118.5,90.5l-4.5,7.4h4.5V90.5z"/>
		</g>
	</g>
</g>
<g id="_x32_">
	<g>
		<g>
			<g>
				<path class="st23" d="M175.4,50.8l0.1,0.2l0.8,47.2l-59.5,67.4v40.2c18.2,3,37.9,4.7,58.6,4.7c89.3,0,161.8-30.8,161.8-68.8
					V98.9L175.4,50.8z"/>
				<path class="st15" d="M175.4,32.8c-0.6,0-1.1,0-1.7,0v66.8l-56.9,66c18.2,3,37.9,4.7,58.6,4.7c89.3,0,161.8-30.8,161.8-68.8
					S264.8,32.8,175.4,32.8z"/>
				<g>
					<path class="st11" d="M215.2,116.3c-0.8-0.1-1.5-0.2-2.2-0.3c-0.7-0.1-1.4-0.4-2.2-0.6l0.8-3.5c0.8,0.2,1.6,0.4,2.4,0.6
						c0.8,0.1,1.6,0.2,2.4,0.2c0.5,0,0.9,0,1.3-0.1c0.3-0.1,0.6-0.2,0.8-0.3s0.3-0.4,0.4-0.7c0.1-0.3,0.1-0.6,0.1-1s0-0.8-0.1-1
						s-0.2-0.5-0.3-0.6c-0.2-0.2-0.5-0.3-0.9-0.4s-0.9-0.2-1.6-0.4c-1.1-0.2-2-0.5-2.6-0.8c-0.7-0.3-1.2-0.7-1.5-1.1
						c-0.4-0.4-0.6-1-0.7-1.7c-0.1-0.7-0.2-1.5-0.2-2.5c0-0.9,0.1-1.6,0.2-2.3c0.2-0.6,0.4-1.2,0.8-1.6c0.4-0.5,0.9-0.8,1.6-1.1
						c0.7-0.3,1.5-0.4,2.4-0.5V93h3.5v3.5c0.6,0,1.2,0.1,1.7,0.2c0.6,0.1,1.1,0.2,1.7,0.3l-0.4,3.7c-0.7-0.2-1.5-0.3-2.3-0.4
						c-0.9-0.1-1.7-0.1-2.6-0.1c-0.5,0-0.8,0-1.1,0.1c-0.3,0.1-0.5,0.1-0.7,0.3c-0.2,0.1-0.2,0.3-0.3,0.6c-0.1,0.2-0.1,0.6-0.1,0.9
						c0,0.4,0,0.8,0.1,1c0,0.2,0.2,0.4,0.3,0.6c0.2,0.1,0.5,0.3,0.9,0.4c0.4,0.1,0.9,0.3,1.7,0.5c1.2,0.3,2.2,0.6,2.8,0.9
						c0.7,0.3,1.2,0.7,1.5,1.2s0.5,1,0.6,1.6c0.1,0.6,0.1,1.4,0.1,2.3c0,0.9-0.1,1.6-0.2,2.3s-0.3,1.2-0.7,1.7
						c-0.3,0.5-0.8,0.9-1.4,1.2s-1.4,0.5-2.3,0.6v3.5h-3.4V116.3z"/>
					<path class="st11" d="M238.5,112v4.1h-4.3V112h-8.8v-3.8l7.4-11.5h5.7v11.8h2.4v3.5H238.5z M234.2,101l-4.6,7.5h4.6V101z"/>
					<path class="st11" d="M246.4,116.1v-14.4l-3.4,1.8l-1.9-3.6l5.7-3.3h3.9v19.4H246.4z"/>
					<path class="st11" d="M254.4,109.8c0-0.7,0.2-1.4,0.5-1.9c0.3-0.6,1-1.1,2-1.6c-0.8-0.5-1.3-1-1.6-1.6
						c-0.3-0.5-0.4-1.1-0.4-1.8v-1.7c0-0.8,0.1-1.4,0.3-2s0.5-1.1,1-1.5c0.5-0.4,1.1-0.7,1.9-0.9s1.7-0.3,2.8-0.3s2.1,0.1,2.8,0.3
						s1.4,0.5,1.9,0.9c0.5,0.4,0.8,0.9,1,1.5s0.3,1.3,0.3,2v1.7c0,0.7-0.1,1.3-0.4,1.8c-0.3,0.5-0.8,1-1.6,1.5c1,0.5,1.6,1.1,2,1.6
						c0.3,0.5,0.5,1.2,0.5,1.9v1.5c0,0.9-0.1,1.7-0.3,2.3c-0.2,0.6-0.6,1.2-1.1,1.6s-1.2,0.7-2,0.9c-0.8,0.2-1.8,0.3-3,0.3
						s-2.2-0.1-3-0.3c-0.8-0.2-1.5-0.5-2-0.9s-0.9-0.9-1.1-1.6c-0.2-0.6-0.3-1.4-0.3-2.3V109.8z M258.5,111.2c0,0.6,0.2,1.1,0.5,1.3
						c0.3,0.2,0.9,0.3,1.8,0.3c0.9,0,1.5-0.1,1.8-0.4c0.3-0.2,0.5-0.7,0.5-1.2v-1c0-0.2,0-0.5-0.1-0.6c0-0.2-0.1-0.4-0.3-0.5
						c-0.1-0.2-0.4-0.3-0.7-0.5s-0.8-0.3-1.3-0.6c-0.6,0.2-1,0.4-1.3,0.6s-0.5,0.3-0.7,0.5s-0.2,0.3-0.3,0.5c0,0.2,0,0.4,0,0.6
						V111.2z M259,102.8c0,0.2,0,0.4,0,0.6c0,0.2,0.1,0.3,0.2,0.5c0.1,0.1,0.3,0.3,0.6,0.4c0.3,0.1,0.6,0.3,1.1,0.4
						c0.4-0.2,0.8-0.3,1-0.4c0.2-0.1,0.4-0.3,0.5-0.4c0.1-0.1,0.2-0.3,0.2-0.5s0-0.3,0-0.6v-1.4c0-0.5-0.1-0.8-0.4-1.1
						c-0.2-0.2-0.7-0.4-1.5-0.4s-1.3,0.1-1.5,0.4c-0.2,0.2-0.4,0.6-0.4,1.1V102.8z"/>
				</g>
			</g>
			<path class="st19" d="M117,218.4c18.2,3,37.9,4.7,58.6,4.7c23.2,0,45.3-2.1,65.3-5.8c26.3-4.9,48.9-12.8,65.6-22.5"/>
			<path class="st24" d="M345.3,141.2c0,0,0-22.9,0-43c0-16.5-7.3-31.2-30-43"/>
		</g>
	</g>
</g>
</svg>
