<?xml version="1.0" encoding="utf-8"?>
<!-- Generator: Adobe Illustrator 25.3.1, SVG Export Plug-In . SVG Version: 6.00 Build 0)  -->
<svg version="1.1" xmlns="http://www.w3.org/2000/svg" xmlns:xlink="http://www.w3.org/1999/xlink" x="0px" y="0px"
	 viewBox="0 0 220 150" style="enable-background:new 0 0 220 150;" xml:space="preserve">
<style type="text/css">
	.st0{fill-rule:evenodd;clip-rule:evenodd;fill:#FFFFFF;}
	.st1{opacity:0.7;}
	.st2{fill:none;stroke:#FFBF27;stroke-width:1.073;stroke-linecap:round;stroke-linejoin:round;stroke-miterlimit:10;}
	
		.st3{fill-rule:evenodd;clip-rule:evenodd;fill:none;stroke:#FFBF27;stroke-width:1.073;stroke-linecap:round;stroke-linejoin:round;stroke-miterlimit:10;}
	.st4{fill:none;stroke:#1CD8C0;stroke-width:2.0785;stroke-linecap:round;stroke-linejoin:round;stroke-miterlimit:10;}
	.st5{fill:none;stroke:#FFBF27;stroke-width:2;stroke-linecap:round;stroke-linejoin:round;stroke-miterlimit:10;}
	
		.st6{fill-rule:evenodd;clip-rule:evenodd;fill:none;stroke:#FFBF27;stroke-width:2;stroke-linecap:round;stroke-linejoin:round;stroke-miterlimit:10;}
	.st7{fill:none;}
	.st8{fill:#1CD8C0;}
	.st9{fill:#FFFFFF;}
	.st10{fill:none;stroke:#37B0AC;stroke-width:2;stroke-miterlimit:10;}
	.st11{fill:#FFD572;}
	.st12{fill:#FFE5A8;}
	.st13{fill:#FFBF27;}
	.st14{fill:none;stroke:#1E9BD7;stroke-width:2;stroke-linecap:round;stroke-linejoin:round;stroke-miterlimit:10;}
	.st15{fill:none;stroke:#8DEBDF;stroke-width:2;stroke-linecap:round;stroke-linejoin:round;stroke-miterlimit:10;}
	.st16{fill:none;stroke:#FFDF92;stroke-width:2;stroke-linecap:round;stroke-linejoin:round;stroke-miterlimit:10;}
	.st17{fill:#1E9BD7;}
	.st18{fill-rule:evenodd;clip-rule:evenodd;fill:#1E9BD7;}
	.st19{fill:none;stroke:#1E9BD7;stroke-width:2;stroke-linecap:round;}
	.st20{fill:none;stroke:#1E9BD7;stroke-width:2;stroke-linecap:square;}
	.st21{fill:#8DEBDF;}
	.st22{fill:none;stroke:#1E9BD7;stroke-width:2;stroke-miterlimit:10;}
	.st23{fill:none;stroke:#FFFFFF;stroke-width:2;stroke-linecap:round;stroke-linejoin:round;stroke-miterlimit:10;}
</style>
<g id="_x31_">
	<g>
		<line class="st15" x1="8.1" y1="44.2" x2="8.1" y2="39.7"/>
		<line class="st15" x1="10.8" y1="37" x2="15.2" y2="37"/>
		<polyline class="st15" points="8.1,29.9 8.1,37 1,37 		"/>
		<line class="st15" x1="64.2" y1="146.2" x2="64.2" y2="141.8"/>
		<line class="st15" x1="66.9" y1="139.1" x2="71.3" y2="139.1"/>
		<polyline class="st15" points="64.2,132 64.2,139.1 57.1,139.1 		"/>
		<path class="st16" d="M58.1,41.6c8.7-2.3,19,0.9,19,0.9c14.1,4.9,36,5,36,5"/>
		<path class="st16" d="M58.1,31c8.7-2.3,19,0.9,19,0.9c14.1,4.9,36,5,36,5"/>
		<path class="st16" d="M80,21.5c14.1,4.5,33.1,4.4,33.1,4.4"/>
		<line class="st16" x1="79" y1="10.6" x2="79" y2="31"/>
		<path class="st16" d="M59.4,8.4c9.7-1.9,19,0.9,19,0.9c14.1,4.9,36,5,36,5l0.8,44c0,0-20.1,1.2-36.8-5.1c0,0-11.5-3.6-19-1.6"/>
		<line class="st16" x1="57.8" y1="4.7" x2="57.8" y2="66"/>
		<line class="st15" x1="98.8" y1="86.4" x2="98.8" y2="124.4"/>
		<line class="st15" x1="162" y1="114.6" x2="162" y2="119.9"/>
		<line class="st15" x1="162.4" y1="85.9" x2="162.4" y2="107.2"/>
		<line class="st15" x1="145.8" y1="46.8" x2="145.8" y2="82.8"/>
		<line class="st15" x1="36.8" y1="84.8" x2="61.5" y2="84.8"/>
		<line class="st15" x1="71.4" y1="83.9" x2="191.8" y2="83.9"/>
		<path class="st15" d="M50.2,26.1c-0.9-0.2-1.7-0.4-2.5-0.5c-1-0.2-2,0.1-2.7,0.7c-0.4,0.4-0.7,0.9-0.9,1.5
			c-0.3,1.1-0.8,2.4-1.4,3.1c-0.5,0.6-1.2,0.8-2,0.6c-1.8-0.6-2.5-2.2-2.8-3.5c-0.2-1.2-1.1-2.1-2.3-2.3c0,0-0.1,0-0.1,0
			c-1.6-0.3-3.1,0.2-4.1,1.3c-0.4,0.5-0.8,1.1-0.9,1.8l-3.6,15.8c-0.6,2.7-1,5.4-1,8.1c-0.2,6.7-0.1,19.6,2.7,29.3
			c0.7,2.3,2,4.5,3.7,6.2c2.3,2.3,5.9,6.3,7.8,11.4c1,2.7,3.3,4.6,6.1,5.3c3.1,0.7,6.9,2,9.3,4.3c4,3.7,13.9,5.8,22.7,5.4
			c3.5-0.2,6.9,1.5,8.8,4.6c0.9,1.5,1.7,3.2,1.9,5.1c0.5,4.6,6.2,4.2,10.2,2.6c2-0.8,4.3-0.2,5.6,1.6c1.1,1.4,2.1,3.2,2.5,5.5
			c0.8,4.1,3.5,7.6,7.6,9.1c1.2,0.4,2.5,0.2,3.4-0.6c0.7-0.6,1.2-1.4,1.2-2.4c0.2-3.3,1.4-7.7,6.6-8.8c4.9-1.1,7.6-2.8,9-4.1
			c0.4-0.3,0.7-0.6,1.1-0.9c0.1-0.1,0.2-0.2,0.4-0.3c0.3-0.2,0.6-0.4,0.9-0.6c0.1-0.1,0.2-0.2,0.3-0.2c0.9-0.6,1.9-1,2.9-1.4
			c5.9-2.2,16.6-5.2,24.7-1.5c1.3,0.6,2.8,0.8,4.3,0.7c2.7-0.3,7-0.3,8.8,2.4c2.3,3.3,3.8,9.7,10.1,14.2c2.3,1.6,5.5,1.1,7.1-1.2
			l0.9-1.2c1.5-2.1,1.4-4.7,0-6.5c-3.3-4-8.5-11.1-8.7-16.6c-0.3-8,10.8-15.4,12.4-19.4c1.6-4-4.8-13.9-2.4-18.8
			c1.9-3.9,4.1-10,9.2-13.9c2.2-1.7,3.4-4.4,3.2-7.1c-0.1-1.5,0.1-3.2,1.2-4.4c1.7-2.1,4.7-5.7,6.5-8.1c1.1-1.3,1.2-3.2,0.3-4.6h0
			l-3.4-5.5c-0.8-1.4-2.3-2.3-4-2.3c-2,0-3.6,1.4-4,3.2c-0.6,2.8-2.4,8.2-6.9,10.9c-2.5,1.5-4.7,2.4-6.5,2.9c-2.3,0.7-4.1,2.6-4.7,5
			c-0.6,2.4-1.9,5.2-4.7,7c-5.6,3.6-12.8,10.1-16,3.7s-0.4-12.8-7.8-17.1s-15.2,1.9-19.9-1.5c-3.2-2.2-7.5-5.3-9.9-7.1
			c-1.2-0.9-9.1-3.2-10.7-3.2"/>
	</g>
</g>
<g id="圖層_4">
</g>
<g id="_x32_">
</g>
</svg>
