<?xml version="1.0" encoding="UTF-8"?>
<svg id="a" data-name="圖層 1" xmlns="http://www.w3.org/2000/svg" viewBox="0 0 138 52">
  <defs>
    <style>
      .b {
        fill: #fff;
      }

      .c {
        fill: #231815;
      }
    </style>
  </defs>
  <g>
    <rect class="c" y="1.6" width="48.79" height="48.79"/>
    <path class="b" d="M12.2,25.39h24.4v1.22H12.2v-1.22Zm9.19-3.67h-3.72l4.45-14.51h4.54l.04,.09,4.43,14.42h-3.72l-.77-2.78h-4.49l-.77,2.78Zm1.6-5.76h2.79l-1.38-5.09-1.4,5.09Zm14.81-8.75v3.05h2.33v31.47h-2.33v3.05h5.38V7.22h-5.38ZM5.62,7.22V44.79h5.38v-3.05h-2.33V10.27h2.33v-3.05H5.62Zm24.36,26.17v1.24c0,1.24-.79,2.22-1.86,2.58,1.07,.36,1.86,1.34,1.86,2.59v1.41c0,2.03-1.2,3.59-4.08,3.59h-6.83v-14.51h7.3c2.3,0,3.61,1.2,3.61,3.11m-7.66,2.76h3.15c.87,0,1.32-.54,1.32-1.29v-.83c0-.97-.76-1.17-1.78-1.17h-2.7v3.29Zm4.48,4.07c0-.75-.46-1.29-1.32-1.29h-3.15v3.29h2.7c1.02,0,1.78-.2,1.78-1.17v-.83Z"/>
  </g>
  <g>
    <path class="c" d="M64.55,19.28v15.41h-1.23v-3.55c-1.54,.25-3.01,.52-4.24,.75l-.29-1.29c.36-.06,.75-.12,1.17-.17v-11.15h-.96v-1.31h6.3v1.31h-.75Zm-1.23,0h-2.17v2.69h2.17v-2.69Zm0,3.9h-2.17v2.74h2.17v-2.74Zm0,6.74v-2.8h-2.17v3.13l2.17-.33Zm6.37-6.87c.38,1.02,.81,2.36,.98,3.13l-.94,.31c-.06-.27-.15-.61-.25-1-3.34,.4-3.86,.52-4.13,.67-.06-.31-.21-.94-.35-1.31,.33-.06,.69-.4,1.11-.92,.25-.27,.75-.9,1.34-1.73-1.42,.11-1.75,.19-1.94,.31-.06-.31-.23-.96-.37-1.32,.27-.04,.5-.31,.77-.67,.29-.36,1.25-1.77,1.77-3.21l1.08,.5c-.61,1.27-1.38,2.55-2.13,3.47l1.5-.08c.33-.52,.67-1.11,.96-1.67l1.02,.54c-1.04,1.73-2.23,3.44-3.4,4.72l2.5-.25c-.13-.44-.29-.88-.42-1.27l.9-.23Zm-.83,3.55h1.23v2.96c0,1.84-.58,3.95-3.32,5.3-.13-.29-.56-.79-.79-.98,1.81-.85,2.5-1.94,2.75-3.05h-2.67v-4.22h1.17v2.99h1.63v-2.99Zm6.39-3.8c.46,1.02,1,2.4,1.25,3.21l-.92,.36c-.08-.29-.19-.65-.35-1.04-3.36,.46-3.86,.56-4.17,.73-.04-.29-.19-.92-.33-1.27,.31-.06,.63-.4,1.04-.9,.21-.27,.69-.94,1.23-1.81-1.5,.14-1.86,.21-2.05,.31-.06-.27-.23-.9-.35-1.23,.25-.06,.48-.29,.75-.63,.27-.37,1.21-1.77,1.71-3.13l1,.46c-.56,1.21-1.27,2.42-1.96,3.3l1.5-.08c.27-.48,.56-1.02,.79-1.53l1.02,.52c-.88,1.67-1.92,3.36-2.96,4.61l2.46-.29c-.15-.46-.35-.9-.52-1.33l.86-.27Zm-1,3.96h1.19v4.78h-1.19v-.73h-1.63v3.94h-1.25v-8.16h1.25v2.98h1.63v-2.8Z"/>
    <path class="c" d="M82.85,23.54v11.13h-1.38v-11.13h-2.36v-1.32h2.36v-5.05h1.38v5.05h2.07v1.32h-2.07Zm13.77,6.74h-2.78v2.9c0,.73-.15,1.08-.71,1.29-.56,.21-1.46,.21-2.84,.21-.06-.36-.23-.86-.4-1.21,1.08,.02,2.02,.02,2.29,0,.31-.02,.36-.08,.36-.31v-2.88h-5.15c.92,.65,2.11,1.54,2.75,2.08l-.9,.96c-.65-.6-1.92-1.61-2.88-2.3l.75-.73h-2.65v-1.19h8.08v-.98h1.31v.98h2.78v1.19Zm-6.59-9.88h-4.99v-1.15h4.99v-2.07h1.32v2.07h3.32c-.73-.38-1.67-.88-2.42-1.27l.65-.81c.94,.42,2.19,1.04,2.88,1.42l-.46,.65h1.08v1.15h-5.05v.98h4.26v5.51c0,.59-.12,.82-.56,.98-.4,.17-1.06,.17-2.02,.17-.08-.31-.25-.67-.4-.94,.67,.02,1.27,.02,1.44,.02,.21,0,.27-.06,.27-.25v-.61h-3v1.44h-1.32v-1.44h-2.92v1.75h-1.25v-6.62h4.17v-.98Zm-2.92,1.98v1.08h2.92v-1.08h-2.92Zm2.92,2.98v-1h-2.92v1h2.92Zm1.32-2.98v1.08h3v-1.08h-3Zm3,2.98v-1h-3v1h3Z"/>
    <path class="c" d="M104.09,27.48v5.39c0,.81-.21,1.19-.71,1.4-.48,.23-1.29,.27-2.59,.27-.06-.37-.27-.94-.44-1.32,.92,.04,1.75,.02,1.98,.02,.27,0,.36-.09,.36-.36v-4.95l-2.42,.71-.42-1.38c.79-.19,1.77-.46,2.84-.77v-4.13h-2.61v-1.34h2.61v-3.84h1.4v3.84h2.38v1.34h-2.38v3.75l1.79-.52,.19,1.3-1.98,.59Zm12.04-1.54c-.77,2.3-2.09,4.11-3.74,5.49,1.44,.9,3.17,1.58,5.09,1.98-.33,.31-.71,.9-.9,1.3-2.05-.5-3.88-1.3-5.37-2.4-1.67,1.13-3.61,1.9-5.63,2.42-.13-.4-.44-1-.71-1.3,1.84-.41,3.63-1.08,5.18-2.04-1.3-1.21-2.36-2.69-3.13-4.4l.19-.07h-.75v-1.34h8.58l.27-.06,.92,.42Zm-6.57-5.95c0,1.71-.52,3.76-2.88,5.12-.17-.29-.67-.82-.92-1.06,2.11-1.17,2.46-2.74,2.46-4.11v-2.11h6.05v4.43c0,.54,.06,.73,.36,.73h1.48c.29,0,.71-.04,.96-.09,.02,.36,.06,.9,.11,1.23-.25,.08-.65,.1-1.04,.1h-1.61c-1.32,0-1.63-.56-1.63-1.98v-3.07h-3.34v.81Zm-1.27,6.93c.67,1.4,1.69,2.63,2.92,3.67,1.25-1,2.3-2.21,3-3.67h-5.91Z"/>
    <path class="c" d="M126.1,17.61c-.44,1.29-1,2.57-1.61,3.78v13.36h-1.32v-11.06c-.58,.92-1.21,1.74-1.82,2.48-.14-.31-.54-1-.79-1.33,1.73-1.86,3.3-4.72,4.28-7.62l1.27,.38Zm11.9,2.71v1.21h-12.15v-1.21h12.15Zm-11.04,8.22h9.71v6.1h-1.27v-.69h-7.2v.75h-1.25v-6.16Zm9.52-4.3h-9.25v-1.17h9.25v1.17Zm-9.25,1.52h9.25v1.17h-9.25v-1.17Zm.98,3.97v3.03h7.2v-3.03h-7.2Zm3.38-9.52c-.25-.67-.84-1.77-1.32-2.55l1.21-.5c.56,.81,1.13,1.82,1.4,2.5l-1.29,.56Z"/>
  </g>
</svg>