<svg xmlns="http://www.w3.org/2000/svg" width="109" height="85" viewBox="0 0 109 85">
    <g fill="none" fill-rule="evenodd">
        <ellipse cx="54.5" cy="82.5" fill="#F0F0F0" rx="12.5" ry="2.5"/>
        <path fill="#F0F0F0" d="M87.369 2.364c.122-1.033-.19-1.745-1.043-1.368L22.61 29.2c-.953.385-.953 1.731 0 2.116l18.864 7.619h.024v.011l5.343 19.857a1.327 1.327 0 0 0 2.236.573l11.54-11.985 16.727 6.202c.666.271 1.42.222 2.044-.133a2.333 2.333 0 0 0 1.156-1.688l6.825-49.409z"/>
        <path fill="#DEDEDE" d="M86.486 2.741L41.162 40.118l6.897 19.666 4.792-15.503z"/>
        <path stroke="#67676E" stroke-linecap="round" stroke-linejoin="round" stroke-width="1.967" d="M61.055 47.558L49.331 59.52M28.195 27.05L22.7 29.27c-.953.385-.953 1.73 0 2.116l18.864 7.618h.024v.012L47.327 59c.08.283.252.537.5.695a1.19 1.19 0 0 0 1.487-.158M33.85 24.768l-3.063 1.236M55.996 45.074l21.438 8.588c.666.272 1.42.223 2.044-.133a2.333 2.333 0 0 0 1.156-1.687l6.29-43.08"/>
        <path stroke="#67676E" stroke-linecap="round" stroke-linejoin="round" stroke-width="1.967" d="M75.745 11.713l-34.169 27.28v.011h.012v.012l5.747 20.013a1.184 1.184 0 0 0 1.979.508c.14-.151.241-.334.296-.532l3.68-14.604c.066-.262.188-.506.36-.715L87.459 2.433c.592-.72-.19-1.745-1.043-1.369L40.406 22.12"/>
    </g>
</svg>
