<?xml version="1.0" encoding="utf-8"?>
<!-- Generator: Adobe Illustrator 26.2.1, SVG Export Plug-In . SVG Version: 6.00 Build 0)  -->
<svg version="1.1" id="圖層_1" xmlns="http://www.w3.org/2000/svg" xmlns:xlink="http://www.w3.org/1999/xlink" x="0px" y="0px"
	 viewBox="0 0 310 290" style="enable-background:new 0 0 310 290;" xml:space="preserve">
<style type="text/css">
	.st0{fill:#E1E1E1;}
	.st1{opacity:0.6;fill:#1CD8C0;enable-background:new    ;}
	.st2{fill:#1E9BD7;}
	.st3{fill:#8C8C8C;}
	.st4{fill:none;}
	.st5{fill:none;stroke:#1CD8C0;stroke-width:2;stroke-linecap:round;stroke-linejoin:round;stroke-miterlimit:10;}
</style>
<g id="_x31_">
	<g>
		<g>
			<g>
				<g>
					<path class="st0" d="M77.5,169.4c1.9,5.9,4.5,11.6,7.6,16.8l61.2-37.5C129.8,153.7,98.6,163,77.5,169.4z"/>
					<path class="st0" d="M155.4,58c-45.6,1.6-82.1,39.1-82.1,85.1c0,8.1,1.2,16,3.3,23.4c26.6-8,69.1-20.8,78.8-23.7V58z"/>
					<path class="st1" d="M158.5,57.9C158.4,57.9,158.4,57.9,158.5,57.9l-0.1,86c0,0.1,0,0.2,0,0.3s0,0.1,0,0.2
						c0,0.1-0.1,0.3-0.2,0.4l0,0l0,0L107,211c14.3,10.8,32.1,17.3,51.4,17.3c47,0,85.2-38.1,85.2-85.2S205.5,57.9,158.5,57.9z"/>
					<path class="st0" d="M86.6,188.8c4.9,7.7,11,14.6,18.1,20.3l46-59.6L86.6,188.8z"/>
				</g>
			</g>
			<g>
				<path class="st2" d="M222.8,42.9c0,0.4-0.1,0.7-0.2,1.1h6.4v1.3h-6.8c-0.8,2.1-2.4,3.4-6.7,4.1c-0.1-0.4-0.5-1-0.8-1.3
					c3.5-0.5,5-1.4,5.7-2.8h-5.1V44h5.6c0.1-0.3,0.1-0.7,0.2-1.1H215v-1.3h6.3v-1.1h-4.8v-1.3h4.8v-1.1h-5.7v-1.3h3.2
					c-0.3-0.5-0.7-1.2-1.1-1.7l1.3-0.5c0.5,0.6,1.1,1.4,1.3,1.9l-0.5,0.2h3.9c0.4-0.6,1-1.5,1.2-2.2l1.6,0.4
					c-0.4,0.6-0.8,1.2-1.2,1.7h3.3v1.3H223V39h5v1.3h-5v1.1h6.5v1.3h-6.7V42.9z M228.8,49.4c-1.4-0.9-4.3-2.3-6.4-3.1l0.7-1.1
					c2.1,0.8,5,2,6.5,2.9L228.8,49.4z"/>
				<path class="st2" d="M244.9,35.3v14h-1.5v-0.7H233v0.7h-1.4v-14H244.9z M243.5,47.3V36.7H233v10.6
					C233,47.3,243.5,47.3,243.5,47.3z M242.3,40.5c-0.4,1.5-1,2.7-1.7,3.8c0.3,0.7,0.6,1.1,1,1.2c0.2,0.1,0.3-0.6,0.4-1.6
					c0.2,0.2,0.7,0.6,0.9,0.7c-0.2,1.8-0.9,2.4-1.8,2.1c-0.6-0.2-1.1-0.6-1.5-1.3c-0.6,0.6-1.2,1.2-1.9,1.6
					c-0.2-0.2-0.6-0.7-0.8-0.9c0.4-0.3,0.8-0.5,1.2-0.9c-1.6,0.3-3.2,0.6-4.5,0.8l-0.2-1.1c1.2-0.2,2.9-0.4,4.6-0.7v1
					c0.4-0.3,0.7-0.6,1-1c-0.4-1.2-0.6-2.8-0.8-4.5h-4.7v-1.1h4.6c0-0.5-0.1-1-0.1-1.5h1.2c0,0.5,0,1,0.1,1.5h2.3
					c-0.3-0.4-1-0.8-1.6-1.1l0.7-0.7c0.6,0.3,1.3,0.7,1.6,1.1l-0.7,0.7h1v1.1h-3.2c0.1,1.2,0.3,2.2,0.5,3.1c0.4-0.8,0.8-1.6,1-2.5
					L242.3,40.5z M237.8,40.5v3.1h-3.5v-3.1H237.8z M236.7,41.4h-1.5v1.4h1.5V41.4z"/>
			</g>
			<g>
				<path class="st2" d="M218.9,70.2c-0.8,0-1.4-0.1-1.9-0.3c-0.5-0.2-0.9-0.4-1.2-0.7c-0.3-0.3-0.5-0.7-0.6-1.1s-0.2-0.9-0.2-1.3
					v-4.4c0-0.8,0.1-1.5,0.4-2s0.6-0.9,1.1-1.3c0.5-0.3,1.1-0.5,1.7-0.7s1.4-0.2,2.3-0.2c0.3,0,0.6,0,0.9,0c0.3,0,0.6,0.1,0.9,0.1
					l-0.2,2.1c-0.2,0-0.4,0-0.7-0.1c-0.2,0-0.4,0-0.6,0c-0.6,0-1.1,0-1.5,0.1s-0.8,0.2-1,0.3c-0.3,0.2-0.5,0.3-0.6,0.6
					s-0.2,0.6-0.2,0.9v0.9c0.3-0.1,0.6-0.2,1-0.2c0.3,0,0.7-0.1,1-0.1c1,0,1.8,0.2,2.3,0.7s0.8,1.2,0.8,2.3v0.8
					c0,0.5-0.1,0.9-0.2,1.3c-0.1,0.4-0.3,0.8-0.6,1.1c-0.3,0.3-0.7,0.6-1.2,0.8C220.4,70.1,219.7,70.2,218.9,70.2z M218.9,68
					c0.5,0,0.8-0.1,1-0.3c0.2-0.2,0.3-0.5,0.3-0.8v-0.8c0-0.4-0.1-0.6-0.3-0.7s-0.4-0.2-0.6-0.2c-0.3,0-0.6,0-0.8,0.1
					c-0.3,0.1-0.5,0.1-0.7,0.2v1.4c0,0.4,0.1,0.7,0.3,0.9C218.3,68,218.5,68,218.9,68z"/>
				<path class="st2" d="M226.7,70.1v-8.6l-2,1.1l-1.1-2.1l3.4-2h2.3v11.6H226.7z"/>
				<path class="st2" d="M237,61.8c0,0.4,0,0.7-0.1,1s-0.2,0.6-0.5,0.8c-0.2,0.2-0.5,0.4-0.9,0.5s-0.8,0.2-1.4,0.2
					c-0.6,0-1-0.1-1.4-0.2s-0.7-0.3-0.9-0.5s-0.4-0.5-0.5-0.8s-0.1-0.7-0.1-1v-1.3c0-0.4,0-0.7,0.1-1s0.2-0.6,0.5-0.8
					c0.2-0.2,0.5-0.4,0.9-0.5s0.8-0.2,1.4-0.2c0.6,0,1,0.1,1.4,0.2c0.4,0.1,0.7,0.3,0.9,0.5s0.4,0.5,0.5,0.8s0.1,0.7,0.1,1V61.8z
					 M235,60.4c0-0.3-0.1-0.5-0.2-0.6s-0.4-0.2-0.7-0.2s-0.6,0.1-0.7,0.2c-0.1,0.1-0.2,0.3-0.2,0.6V62c0,0.3,0.1,0.5,0.2,0.6
					c0.1,0.1,0.4,0.2,0.7,0.2s0.6-0.1,0.7-0.2c0.1-0.1,0.2-0.3,0.2-0.6V60.4z M240,57.9l1.6,0.6l-4.8,11.7l-1.6-0.6L240,57.9z
					 M245.6,67.6c0,0.4,0,0.7-0.1,1s-0.2,0.6-0.5,0.8c-0.2,0.2-0.5,0.4-0.9,0.5s-0.8,0.2-1.4,0.2c-0.6,0-1-0.1-1.4-0.2
					s-0.7-0.3-0.9-0.5s-0.4-0.5-0.5-0.8s-0.1-0.7-0.1-1v-1.3c0-0.4,0-0.7,0.1-1s0.2-0.6,0.5-0.8c0.2-0.2,0.5-0.4,0.9-0.5
					s0.8-0.2,1.4-0.2c0.6,0,1,0.1,1.4,0.2c0.4,0.1,0.7,0.3,0.9,0.5s0.4,0.5,0.5,0.8s0.1,0.7,0.1,1V67.6z M243.6,66.2
					c0-0.3-0.1-0.5-0.2-0.6c-0.1-0.1-0.4-0.2-0.7-0.2s-0.6,0.1-0.7,0.2c-0.1,0.1-0.2,0.3-0.2,0.6v1.6c0,0.3,0.1,0.5,0.2,0.6
					c0.1,0.1,0.4,0.2,0.7,0.2s0.6-0.1,0.7-0.2c0.1-0.1,0.2-0.3,0.2-0.6V66.2z"/>
			</g>
			<g>
				<path class="st3" d="M41.7,161.4v7.7h-1.6v-0.9H36v5.1h-1.6v-5.1h-4.1v0.9h-1.5v-7.7h5.6v-2.8H36v2.8H41.7z M34.4,166.8v-3.9
					h-4.1v3.9H34.4z M40.2,166.8v-3.9H36v3.9H40.2z"/>
				<path class="st3" d="M57.9,159.3v14h-1.5v-0.7H46v0.7h-1.4v-14H57.9z M56.5,171.3v-10.6H46v10.6H56.5z M55.3,164.5
					c-0.4,1.5-1,2.7-1.7,3.8c0.3,0.7,0.6,1.1,1,1.2c0.2,0.1,0.3-0.6,0.4-1.6c0.2,0.2,0.7,0.6,0.9,0.7c-0.2,1.8-0.9,2.4-1.8,2.1
					c-0.6-0.2-1.1-0.6-1.5-1.3c-0.6,0.6-1.2,1.2-1.9,1.6c-0.2-0.2-0.6-0.7-0.8-0.9c0.4-0.3,0.8-0.5,1.2-0.9
					c-1.6,0.3-3.2,0.6-4.5,0.8l-0.2-1.1c1.2-0.2,2.9-0.4,4.6-0.7v1c0.4-0.3,0.7-0.6,1-1c-0.4-1.2-0.6-2.8-0.8-4.5h-4.7v-1.1h4.6
					c0-0.5-0.1-1-0.1-1.5h1.2c0,0.5,0,1,0.1,1.5h2.3c-0.3-0.4-1-0.8-1.6-1.1l0.7-0.7c0.6,0.3,1.3,0.7,1.6,1.1l-0.7,0.7h1v1.1h-3.2
					c0.1,1.2,0.3,2.2,0.5,3.1c0.4-0.8,0.8-1.6,1-2.5L55.3,164.5z M50.8,164.5v3.1h-3.5v-3.1H50.8z M49.7,165.4h-1.5v1.4h1.5V165.4z"
					/>
			</g>
			<g>
				<path class="st3" d="M39.4,191.6v2.5h-2.6v-2.5h-5.3v-2.2l4.4-6.9h3.4v7.1h1.5v2.1h-1.4C39.4,191.7,39.4,191.6,39.4,191.6z
					 M36.8,185l-2.8,4.5h2.8V185z"/>
				<path class="st3" d="M47.8,185.8c0,0.4,0,0.7-0.1,1s-0.2,0.6-0.5,0.8c-0.2,0.2-0.5,0.4-0.9,0.5s-0.8,0.2-1.4,0.2
					c-0.6,0-1-0.1-1.4-0.2c-0.4-0.1-0.7-0.3-0.9-0.5s-0.4-0.5-0.5-0.8s-0.1-0.7-0.1-1v-1.3c0-0.4,0-0.7,0.1-1s0.2-0.6,0.5-0.8
					c0.2-0.2,0.5-0.4,0.9-0.5s0.8-0.2,1.4-0.2c0.6,0,1,0.1,1.4,0.2c0.4,0.1,0.7,0.3,0.9,0.5s0.4,0.5,0.5,0.8s0.1,0.7,0.1,1V185.8z
					 M45.8,184.4c0-0.3-0.1-0.5-0.2-0.6c-0.1-0.1-0.4-0.2-0.7-0.2s-0.6,0.1-0.7,0.2c-0.1,0.1-0.2,0.3-0.2,0.6v1.6
					c0,0.3,0.1,0.5,0.2,0.6c0.1,0.1,0.4,0.2,0.7,0.2s0.6-0.1,0.7-0.2s0.2-0.3,0.2-0.6V184.4z M50.7,181.9l1.6,0.6l-4.8,11.7
					l-1.6-0.6L50.7,181.9z M56.3,191.6c0,0.4,0,0.7-0.1,1s-0.2,0.6-0.5,0.8s-0.5,0.4-0.9,0.5s-0.8,0.2-1.4,0.2c-0.6,0-1-0.1-1.4-0.2
					c-0.4-0.1-0.7-0.3-0.9-0.5s-0.4-0.5-0.5-0.8s-0.1-0.7-0.1-1v-1.3c0-0.4,0-0.7,0.1-1s0.2-0.6,0.5-0.8s0.5-0.4,0.9-0.5
					s0.8-0.2,1.4-0.2c0.6,0,1,0.1,1.4,0.2s0.7,0.3,0.9,0.5s0.4,0.5,0.5,0.8s0.1,0.7,0.1,1V191.6z M54.3,190.2c0-0.3-0.1-0.5-0.2-0.6
					s-0.4-0.2-0.7-0.2s-0.6,0.1-0.7,0.2c-0.1,0.1-0.2,0.3-0.2,0.6v1.6c0,0.3,0.1,0.5,0.2,0.6c0.1,0.1,0.4,0.2,0.7,0.2
					s0.6-0.1,0.7-0.2s0.2-0.3,0.2-0.6V190.2z"/>
			</g>
			<g>
				<path class="st3" d="M68.6,212.7v13.4H67v-1h-7.5v1H58v-13.5h10.6V212.7z M59.5,214.2v3.9H67v-3.9H59.5z M67,223.6v-4.1h-7.5
					v4.1H67z"/>
				<path class="st3" d="M81.7,216.4c1.1,2.5,2.9,4.9,5,6.1c-0.4,0.3-0.9,0.9-1.2,1.3c-0.7-0.5-1.3-1.1-1.9-1.7v1.4H80v2.8h-1.6
					v-2.8h-3.5v-1.4c-0.6,0.7-1.3,1.3-2,1.8c-0.3-0.4-0.7-0.9-1.1-1.2c2-1.3,3.8-3.7,4.9-6.3h-4.4v-1.5h6.1v-3.2H80v3.2h6.2v1.5
					L81.7,216.4L81.7,216.4z M78.5,222v-5.6h-0.2c-0.8,2.1-1.9,4.1-3.3,5.6H78.5z M83.4,222c-1.3-1.5-2.5-3.5-3.2-5.6H80v5.6H83.4z"
					/>
			</g>
			<g>
				<path class="st3" d="M63.9,247.2c-0.8,0-1.4-0.1-1.9-0.3s-0.9-0.4-1.2-0.7s-0.5-0.7-0.6-1.1c-0.1-0.4-0.2-0.9-0.2-1.3v-4.4
					c0-0.8,0.1-1.5,0.4-2c0.3-0.5,0.6-0.9,1.1-1.3s1.1-0.5,1.7-0.7s1.4-0.2,2.3-0.2c0.3,0,0.6,0,0.9,0s0.6,0.1,0.9,0.1l-0.2,2.1
					c-0.2,0-0.4,0-0.7-0.1s-0.4,0-0.6,0c-0.6,0-1.1,0-1.5,0.1s-0.8,0.2-1,0.3c-0.3,0.2-0.5,0.3-0.6,0.6s-0.2,0.6-0.2,0.9v0.9
					c0.3-0.1,0.6-0.2,1-0.2c0.3,0,0.7-0.1,1-0.1c1,0,1.8,0.2,2.3,0.7s0.8,1.2,0.8,2.3v0.8c0,0.5-0.1,0.9-0.2,1.3
					c-0.1,0.4-0.3,0.8-0.6,1.1c-0.3,0.3-0.7,0.6-1.2,0.8C65.4,247.1,64.7,247.2,63.9,247.2z M63.9,245c0.5,0,0.8-0.1,1-0.3
					s0.3-0.5,0.3-0.8v-0.8c0-0.4-0.1-0.6-0.3-0.7c-0.2-0.1-0.4-0.2-0.6-0.2c-0.3,0-0.6,0-0.8,0.1c-0.3,0.1-0.5,0.1-0.7,0.2v1.4
					c0,0.4,0.1,0.7,0.3,0.9S63.5,245,63.9,245z"/>
				<path class="st3" d="M75,238.8c0,0.4,0,0.7-0.1,1s-0.2,0.6-0.5,0.8c-0.2,0.2-0.5,0.4-0.9,0.5s-0.8,0.2-1.4,0.2s-1-0.1-1.4-0.2
					c-0.4-0.1-0.7-0.3-0.9-0.5c-0.2-0.2-0.4-0.5-0.5-0.8s-0.1-0.7-0.1-1v-1.3c0-0.4,0-0.7,0.1-1s0.2-0.6,0.5-0.8
					c0.2-0.2,0.5-0.4,0.9-0.5s0.8-0.2,1.4-0.2s1,0.1,1.4,0.2c0.4,0.1,0.7,0.3,0.9,0.5c0.2,0.2,0.4,0.5,0.5,0.8s0.1,0.7,0.1,1V238.8z
					 M73,237.4c0-0.3-0.1-0.5-0.2-0.6s-0.4-0.2-0.7-0.2s-0.6,0.1-0.7,0.2c-0.1,0.1-0.2,0.3-0.2,0.6v1.6c0,0.3,0.1,0.5,0.2,0.6
					s0.4,0.2,0.7,0.2s0.6-0.1,0.7-0.2s0.2-0.3,0.2-0.6V237.4z M78,234.9l1.6,0.6l-4.8,11.7l-1.6-0.6L78,234.9z M83.6,244.6
					c0,0.4,0,0.7-0.1,1s-0.2,0.6-0.5,0.8s-0.5,0.4-0.9,0.5s-0.8,0.2-1.4,0.2s-1-0.1-1.4-0.2c-0.4-0.1-0.7-0.3-0.9-0.5
					s-0.4-0.5-0.5-0.8s-0.1-0.7-0.1-1v-1.3c0-0.4,0-0.7,0.1-1s0.2-0.6,0.5-0.8s0.5-0.4,0.9-0.5s0.8-0.2,1.4-0.2s1,0.1,1.4,0.2
					s0.7,0.3,0.9,0.5s0.4,0.5,0.5,0.8s0.1,0.7,0.1,1V244.6z M81.6,243.2c0-0.3-0.1-0.5-0.2-0.6s-0.4-0.2-0.7-0.2s-0.6,0.1-0.7,0.2
					c-0.1,0.1-0.2,0.3-0.2,0.6v1.6c0,0.3,0.1,0.5,0.2,0.6s0.4,0.2,0.7,0.2s0.6-0.1,0.7-0.2s0.2-0.3,0.2-0.6V243.2z"/>
			</g>
			<g>
				<path class="st3" d="M42.3,84c-1.4,0.9-3.6,1.8-5.3,2.3c-0.2-0.3-0.7-0.8-1-1.1c1.7-0.5,3.9-1.4,5-2.1L42.3,84z M50.3,82.9H36.2
					v-1.4H39v-6.8h-2.4v-1.4H39v-1.7h1.5v1.7H46v-1.7h1.5v1.7H50v1.4h-2.4v6.8h2.8L50.3,82.9L50.3,82.9z M40.5,74.7V76H46v-1.3H40.5
					z M40.5,78.8H46v-1.4h-5.5V78.8z M40.5,81.5H46V80h-5.5V81.5z M45.3,83.2c1.8,0.6,3.9,1.5,5.1,2.1l-1.4,1
					c-1.1-0.6-2.9-1.5-4.8-2.2L45.3,83.2z"/>
				<path class="st3" d="M56.8,72.1c-0.4,1.2-1,2.4-1.6,3.5v10.7h-1.4v-8.5c-0.4,0.6-0.9,1.1-1.3,1.6c-0.1-0.4-0.6-1.2-0.8-1.5
					c1.5-1.5,2.9-3.8,3.8-6.2L56.8,72.1z M64.1,84.9c0.9,0,1.1-0.4,1.2-2.3c0.4,0.2,0.9,0.5,1.3,0.6c-0.2,2.3-0.7,3-2.5,3h-3.9
					c-2,0-2.6-0.5-2.6-2.5v-4.9l-1.4,0.5L55.6,78l2-0.8v-4H59v3.4l2-0.8v-4.3h1.3v3.7l2.4-0.9l0.2-0.2l1.1,0.4v0.3
					c-0.1,2.3-0.2,5.3-0.5,7.2l-1.2-0.3c0.2-1.4,0.3-3.7,0.3-5.7l-2.2,1v5.7H61v-5.2l-2,0.8v5.4c0,0.9,0.2,1.1,1.3,1.1L64.1,84.9
					L64.1,84.9z"/>
			</g>
			<g>
				<path class="st3" d="M40,104.8h3.7v2.3h-7.3v-2.2c1.3-1.3,1.5-1.5,2.6-2.8c1.8-2,2-2.1,2-3.3v-0.3c0-0.6-0.4-0.8-1.4-0.8
					c-0.9,0-2.2,0.1-3,0.3l-0.3-2.2c1.1-0.3,2.4-0.5,3.4-0.5c2.8,0,3.9,0.9,3.9,2.8c0,0,0,0.5,0,0.5c0,1.7,0,2-1.7,4
					C41.1,103.6,40.6,104.3,40,104.8z"/>
				<path class="st3" d="M53,98.8v4.4c0,3.3-2.2,4.1-5.5,4.1c-0.6,0-1.3-0.1-1.8-0.1l0.1-2.1c0.3,0,0.8,0.1,1.3,0.1
					c2.3,0,3.3-0.4,3.3-1.9v-0.9c-0.6,0.2-1.2,0.3-2,0.3c-2,0-3-0.9-3-3v-0.8c0-1.8,0.7-3.5,3.8-3.5C52.3,95.3,53,96.9,53,98.8z
					 M47.9,98.6v0.8c0,0.7,0.4,0.9,0.9,0.9c0.6,0,1.1-0.1,1.5-0.3v-1.4c0-0.8-0.3-1.1-1.2-1.1C48.2,97.5,47.9,97.9,47.9,98.6z"/>
				<path class="st3" d="M57.4,101.5c-2.3,0-2.9-1.1-2.9-2.6v-1.3c0-1.5,0.6-2.6,2.9-2.6c2.3,0,2.9,1.1,2.9,2.6v1.3
					C60.3,100.4,59.7,101.5,57.4,101.5z M57.4,96.7c-0.7,0-0.9,0.2-0.9,0.7V99c0,0.5,0.2,0.7,0.9,0.7c0.7,0,0.9-0.2,0.9-0.7v-1.6
					C58.3,96.9,58.1,96.7,57.4,96.7z M63.2,94.9l1.6,0.6L60,107.3l-1.6-0.6L63.2,94.9z M66,107.3c-2.3,0-2.9-1.1-2.9-2.6v-1.3
					c0-1.5,0.6-2.6,2.9-2.6s2.9,1.1,2.9,2.6v1.3C68.8,106.2,68.2,107.3,66,107.3z M66,102.5c-0.7,0-0.9,0.2-0.9,0.7v1.6
					c0,0.5,0.2,0.7,0.9,0.7s0.9-0.2,0.9-0.7v-1.6C66.8,102.7,66.6,102.5,66,102.5z"/>
			</g>
		</g>
		<rect x="0.7" y="0.3" class="st4" width="310" height="290"/>
	</g>
	<path class="st5" d="M232.1,89.3c11,15.1,17.6,33.7,17.6,53.8c0,50.4-40.8,91.2-91.2,91.2s-91.2-40.8-91.2-91.2
		s40.8-91.2,91.2-91.2c13.8,0,26.9,3.1,38.6,8.5"/>
</g>
</svg>
