<?xml version="1.0" encoding="utf-8"?>
<!-- Generator: Adobe Illustrator 25.3.1, SVG Export Plug-In . SVG Version: 6.00 Build 0)  -->
<svg version="1.1" xmlns="http://www.w3.org/2000/svg" xmlns:xlink="http://www.w3.org/1999/xlink" x="0px" y="0px"
	 viewBox="0 0 284 138" style="enable-background:new 0 0 284 138;" xml:space="preserve">
<style type="text/css">
	.st0{fill-rule:evenodd;clip-rule:evenodd;fill:#FFFFFF;}
	.st1{opacity:0.7;}
	.st2{fill:none;stroke:#FFBF27;stroke-width:1.073;stroke-linecap:round;stroke-linejoin:round;stroke-miterlimit:10;}
	
		.st3{fill-rule:evenodd;clip-rule:evenodd;fill:none;stroke:#FFBF27;stroke-width:1.073;stroke-linecap:round;stroke-linejoin:round;stroke-miterlimit:10;}
	.st4{fill:none;stroke:#1CD8C0;stroke-width:2.0785;stroke-linecap:round;stroke-linejoin:round;stroke-miterlimit:10;}
	.st5{fill:none;stroke:#FFBF27;stroke-width:2;stroke-linecap:round;stroke-linejoin:round;stroke-miterlimit:10;}
	
		.st6{fill-rule:evenodd;clip-rule:evenodd;fill:none;stroke:#FFBF27;stroke-width:2;stroke-linecap:round;stroke-linejoin:round;stroke-miterlimit:10;}
	.st7{fill:none;}
	.st8{fill:#1CD8C0;}
	.st9{fill:#FFFFFF;}
	.st10{fill:none;stroke:#37B0AC;stroke-width:2;stroke-miterlimit:10;}
	.st11{fill:#FFD572;}
	.st12{fill:#FFE5A8;}
	.st13{fill:#FFBF27;}
	.st14{fill:none;stroke:#1E9BD7;stroke-width:2;stroke-linecap:round;stroke-linejoin:round;stroke-miterlimit:10;}
	.st15{fill:none;stroke:#8DEBDF;stroke-width:2;stroke-linecap:round;stroke-linejoin:round;stroke-miterlimit:10;}
	.st16{fill:none;stroke:#FFDF92;stroke-width:2;stroke-linecap:round;stroke-linejoin:round;stroke-miterlimit:10;}
	.st17{fill:none;stroke:#1CD8C0;stroke-width:2;stroke-linecap:round;stroke-linejoin:round;}
	.st18{fill:#E1E1E1;}
	.st19{fill:#8C8C8C;}
	.st20{opacity:0.6;}
	.st21{fill:none;stroke:#1CD8C0;stroke-width:2;stroke-linecap:round;stroke-linejoin:round;stroke-miterlimit:10;}
	.st22{opacity:0.6;fill:#1CD8C0;}
	.st23{fill:#1E9BD7;}
	.st24{fill-rule:evenodd;clip-rule:evenodd;fill:#1E9BD7;}
	.st25{fill:none;stroke:#1E9BD7;stroke-width:2;stroke-linecap:round;}
	.st26{fill:none;stroke:#1E9BD7;stroke-width:2;stroke-linecap:square;}
	.st27{fill:#8DEBDF;}
	.st28{fill:none;stroke:#1E9BD7;stroke-width:2;stroke-miterlimit:10;}
	.st29{fill:none;stroke:#FFFFFF;stroke-width:2;stroke-linecap:round;stroke-linejoin:round;stroke-miterlimit:10;}
</style>
<g id="_x31_">
	<g>
		<rect x="1.5" y="5" class="st8" width="250.4" height="127.6"/>
		<g>
			<g>
				<path class="st9" d="M48.4,47.1c-0.2,0.2-0.4,0.3-0.5,0.5c-0.2-0.2-0.6-0.7-1-1c0.2,1.2,0.2,2.3,0.2,3.5c0,2.7-0.2,5.4-1.1,6.6
					c-0.3,0.4-0.7,0.7-1.2,0.8c-0.8,0.2-1.6,0.2-2.6,0.2c0-0.8-0.2-1.6-0.6-2.3c1,0.1,1.7,0.1,2.2,0c0.3,0,0.4-0.1,0.6-0.4
					c0.4-0.6,0.6-2.4,0.6-4.7c-0.9,1.2-1.8,2.2-2.8,3c-0.3-0.6-0.8-1.5-1.3-2c1.4-0.9,3-2.6,3.9-4.4c-0.1-0.7-0.3-1.3-0.5-1.9
					c-0.7,0.8-1.5,1.5-2.2,2.1c-0.3-0.6-0.8-1.6-1.3-2.1c0.8-0.5,1.6-1.2,2.5-2c-0.5-0.7-1.1-1.4-1.9-2.1l1.6-1.3
					c0.7,0.6,1.2,1.2,1.7,1.8c0.5-0.6,0.9-1.1,1.2-1.7l1.7,1.2c-0.5,0.7-1,1.6-1.7,2.4c0.4,0.8,0.7,1.6,0.9,2.5
					c0.9-0.8,1.8-1.9,2.5-2.9l1.2,0.4v-1h-2.9v-1.7h2.9v-1.3h2.1v4l1.2-0.6c0.2,0.2,0.4,0.4,0.6,0.6v-3.9h2.2v1.2h3.1v1.7h-3.1v1.1
					h-2.1c0.3,0.4,0.7,0.8,0.9,1.1h3.5v1.4H55v0.6h3.4v1.2H55v0.7h3.4v1.2H55v0.7h4.1v1.4h-8.6v0.4h-2V47.1z M59.1,53
					c-0.8,1.1-1.9,1.9-3.3,2.6c1.3,0.3,2.7,0.4,4.1,0.6c-0.5,0.4-1.1,1.3-1.3,1.8c-2-0.2-3.9-0.6-5.6-1.2c-1.7,0.5-3.6,0.9-5.6,1.2
					c-0.2-0.5-0.7-1.4-1-1.8c1.3-0.1,2.6-0.3,3.8-0.5c-0.7-0.4-1.4-0.9-2-1.4l0.8-0.3h-1.3v-1.7h9.6l0.4-0.1L59.1,53z M52.9,45.8
					h-2.4v0.6h2.4V45.8z M52.9,47.6h-2.4v0.7h2.4V47.6z M52.9,49.5h-2.4v0.7h2.4V49.5z M50.5,43.3l0.7,0.2c-0.2,0.3-0.4,0.6-0.6,0.9
					h2.3c-0.3-0.3-0.5-0.7-0.8-0.9l0.4-0.2H50.5z M50.8,53.9c0.6,0.4,1.4,0.7,2.3,1c0.8-0.3,1.6-0.6,2.3-1H50.8z"/>
				<path class="st9" d="M68.5,45.2h3.6v2.2h-3.6v0.7c1,0.8,3,2.6,3.5,3l-1.4,2c-0.5-0.6-1.3-1.6-2.1-2.4v7.2h-2.4v-7.1
					c-0.9,1.8-1.9,3.5-3,4.6c-0.2-0.7-0.8-1.7-1.2-2.3c1.4-1.4,2.9-3.6,3.8-5.7h-3.4v-2.2h3.8v-2.5c-1.1,0.2-2.2,0.4-3.3,0.5
					c-0.1-0.5-0.4-1.4-0.7-1.9c2.9-0.4,6.1-1.2,8-2.1l1.7,1.8c-1,0.4-2.1,0.7-3.3,1V45.2z M75.6,52.9h-2.4V41.7h2.4V52.9z
					 M79.8,39.6V55c0,1.4-0.3,2-1.1,2.4c-0.8,0.4-2.1,0.5-4,0.5c-0.1-0.7-0.5-1.8-0.8-2.5c1.3,0.1,2.6,0.1,3,0.1
					c0.4,0,0.5-0.1,0.5-0.5V39.6H79.8z"/>
				<path class="st9" d="M100.4,46.3c-0.8,2.6-2,4.9-3.4,6.9c0.6,1.4,1.2,2.3,1.9,2.3c0.5,0,0.7-1,0.8-3.5c0.5,0.6,1.4,1.1,2,1.3
					c-0.4,3.7-1.2,4.6-3,4.6c-1.4,0-2.5-1-3.4-2.6c-1,1.1-2.1,2-3.4,2.7c-0.4-0.5-1.2-1.5-1.7-2c1.5-0.8,2.9-1.9,4.1-3.2
					c-0.7-2.3-1.1-5.1-1.4-8.1h-5.8v2.1H92c0,0,0,0.6,0,0.9c-0.1,4.2-0.2,6-0.6,6.6C91,54.8,90.6,54.9,90,55
					c-0.5,0.1-1.4,0.1-2.3,0.1c0-0.7-0.3-1.6-0.7-2.2c0.7,0.1,1.4,0.1,1.7,0.1c0.3,0,0.4,0,0.6-0.2c0.2-0.3,0.3-1.2,0.3-3.8h-2.6
					c-0.1,2.9-0.5,6.8-2.1,9.3c-0.4-0.5-1.5-1.3-2-1.6c1.5-2.4,1.7-5.9,1.7-8.5v-5.8h8.2c0-1-0.1-2-0.1-3h2.5c0,1,0,2,0,3h3.1
					c-0.7-0.6-1.7-1.2-2.6-1.7l1.4-1.4c1.1,0.6,2.6,1.5,3.3,2.1l-1,1h2.1v2.4h-6.2c0.2,2,0.5,3.9,0.8,5.5c0.8-1.3,1.4-2.8,1.9-4.4
					L100.4,46.3z"/>
				<path class="st9" d="M121.8,52c-1.1,0.8-2.4,1.6-3.5,2.2c1.3,0.8,2.8,1.3,4.6,1.6c-0.5,0.5-1.2,1.5-1.5,2.1
					c-4.5-1-7.1-3.3-8.8-7h-2.9v4.2l4.4-0.9c-0.1,0.6-0.2,1.6-0.2,2.1c-4.8,1.1-5.9,1.3-6.4,1.6l-0.1,0.1c-0.2-0.6-0.6-1.8-1-2.4
					c0.4-0.2,1-0.7,1-1.5v-3.2h-2.9v-2.1h3.3V40h12.6v1.9h-10.2V43h9.6v1.8h-9.6v1h9.6v1.8h-9.6v1.1h12.3v2.1h-2.2L121.8,52z
					 M115,50.9c0.4,0.8,1,1.4,1.6,2c1-0.6,2.1-1.4,2.9-2H115z"/>
				<path class="st9" d="M129.9,50.6c-0.2-0.5-0.5-1.2-0.8-1.9V58h-2v-7.7c-0.4,1.4-0.9,2.7-1.4,3.6c-0.2-0.7-0.6-1.7-0.9-2.4
					c0.9-1.4,1.7-4,2.2-6.3h-1.6V43h1.8v-3.7h2V43h1.3v2.2H129v0.9c0.4,0.6,1.6,2.5,1.8,2.9L129.9,50.6z M142.5,52
					c-0.6,1.1-1.3,2.1-2.2,2.9c0.4,0.4,0.8,0.7,1.2,0.7c0.4,0,0.6-0.7,0.8-2.1c0.3,0.5,1.1,1,1.5,1.3c-0.5,2.5-1.3,3.2-2.2,3.1
					c-1.2-0.1-2.2-0.7-2.9-1.7c-0.9,0.7-2,1.2-3.2,1.7c-0.3-0.4-0.8-1.1-1.2-1.5c1.3-0.4,2.4-1.1,3.4-1.8c-0.4-0.9-0.7-2-1-3.2H134
					c0,0.1,0,0.3,0,0.4c0.8,0.7,2,1.6,2.5,2.2l-1.4,1.4c-0.3-0.4-0.9-0.9-1.5-1.4c-0.5,1.4-1.3,2.9-2.7,4c-0.3-0.4-1.1-1.1-1.6-1.4
					c2.1-1.6,2.7-3.6,2.7-5.2h-1.2v-1.8h5.6c-0.3-2-0.5-4.4-0.7-7c-0.8,1.5-1.8,3-2.7,4.2l1.1-0.1c-0.1-0.3-0.2-0.6-0.3-0.9l1.4-0.4
					c0.3,0.9,0.7,2.1,0.8,2.9l-1.5,0.4c0-0.2-0.1-0.4-0.1-0.7c-2.4,0.4-2.9,0.5-3.1,0.6c-0.1-0.3-0.4-1.2-0.6-1.6
					c0.3-0.1,0.7-0.4,1-0.9c0.2-0.2,0.5-0.8,1-1.5c-1.1,0.1-1.4,0.2-1.6,0.3c-0.1-0.4-0.4-1.2-0.6-1.6c0.3-0.1,0.5-0.3,0.7-0.7
					c0.2-0.4,1-1.8,1.3-3.2l1.7,0.4c-0.5,1.2-1.1,2.4-1.7,3.3l0.9-0.1c0.2-0.4,0.4-0.8,0.6-1.2l1.7,0.6c0-1-0.1-2-0.1-3h2
					c0.1,3.9,0.3,7.4,0.8,10.1h1.8c-0.3-0.3-0.7-0.6-1-0.9l0.9-0.7c-0.9,0.2-1.2,0.3-1.4,0.4c-0.1-0.3-0.4-1.2-0.5-1.6
					c0.3-0.1,0.6-0.4,1-0.9c0.2-0.2,0.5-0.7,0.9-1.4c-1,0.1-1.4,0.2-1.6,0.3c-0.1-0.4-0.4-1.1-0.6-1.6c0.3-0.1,0.5-0.3,0.7-0.7
					c0.2-0.3,0.9-1.7,1.2-3l1.7,0.5c-0.4,1.1-1,2.2-1.6,3.1l0.9-0.1c0.2-0.4,0.4-0.8,0.5-1.2l1.7,0.6c-0.7,1.5-1.7,3-2.7,4.2
					l1.1-0.1c-0.1-0.3-0.2-0.6-0.3-0.8l1.4-0.4c0.3,0.9,0.8,2.2,0.9,2.9l-1.4,0.5c0-0.2-0.1-0.5-0.2-0.8c-0.5,0.1-0.9,0.1-1.3,0.2
					c0.5,0.4,1.2,0.9,1.5,1.2l-0.5,0.5h1.6v1.8h-2.3L142.5,52z M138.8,51.4c0.2,0.7,0.3,1.2,0.5,1.7c0.5-0.5,0.9-1.1,1.2-1.7H138.8z
					"/>
				<path class="st9" d="M157,39.9c-0.1,0.1-0.2,0.3-0.3,0.4c1.8,1.6,5.1,3,8.3,3.6c-0.5,0.4-1.2,1.3-1.5,1.8
					c-0.4-0.1-0.8-0.2-1.2-0.4v5.2h-13.9v-5c-0.4,0.1-0.8,0.3-1.2,0.4c-0.2-0.4-0.9-1.4-1.3-1.8c3.7-0.9,7.2-2.5,9.1-4.8L157,39.9z
					 M161.6,45.1c-0.9-0.3-1.8-0.8-2.7-1.2v0.5h-7V44c-0.8,0.4-1.6,0.8-2.4,1.1H161.6z M149.5,51.1h11.8v6.8h-2.4v-0.5h-7V58h-2.3
					V51.1z M151.8,49c-0.1-0.6-0.4-1.4-0.7-2.1l1.5-0.4h-2.3V49H151.8z M151.9,52.7v0.8h7v-0.8H151.9z M158.8,55.9v-0.8h-7v0.8
					H158.8z M154.3,46.5h-1.6c0.4,0.7,0.7,1.5,0.8,2.1l-1.3,0.4h2V46.5z M157.2,42.8c-0.6-0.4-1.2-0.9-1.7-1.3
					c-0.5,0.4-1.1,0.9-1.7,1.3H157.2z M156.2,46.5V49h1.9l-1.2-0.3c0.3-0.6,0.6-1.5,0.8-2.2H156.2z M160.2,46.5h-2.1l1.6,0.4
					c-0.4,0.8-0.8,1.6-1.1,2.1h1.6V46.5z"/>
				<path class="st9" d="M185.6,57.1h-6.3v0.9h-2.1V47.3c-0.1,0.2-0.3,0.4-0.4,0.5c-0.2-0.2-0.6-0.6-1-0.9v1.8h-2.9v0.8h3v1.7h-3
					c0,0.2,0,0.5,0,0.7h3.6v1.8h-3.9l0,0.1c1.2,0.7,2.6,1.6,3.4,2.2l-1.2,1.6c-0.7-0.6-1.9-1.5-3.1-2.1c-0.7,0.9-1.7,1.8-3.2,2.5
					c-0.3-0.5-0.9-1.2-1.5-1.6c1.7-0.7,2.6-1.7,3.1-2.7h-3v-1.8h3.5c0-0.2,0.1-0.5,0.1-0.7h-2.9v-1.7h2.9v-0.8h-3v-4h3.1v-0.6h-2v-2
					h-1.6v-1.7h1.6v-1h2.1v1h2v-1h2.2v1h1.4v1.7H175v2h-2.3v0.6h3.1v0.6c1.1-1.6,2-3.8,2.6-6l2.2,0.5c-0.3,1.1-0.7,2.1-1.1,3.2h6.1
					v2.1h-2.2V47h2v2h-2v1.9h2v2h-2v2h2.3V57.1z M169.5,47.3h1.3v-1.1h-1.3V47.3z M170.8,42.1v0.6h2v-0.6H170.8z M173.9,46.2h-1.2
					v1.1h1.2V46.2z M181.2,45.1h-1.9V47h1.9V45.1z M181.2,49h-1.9v1.9h1.9V49z M179.3,54.9h1.9v-2h-1.9V54.9z M181.9,42.9
					c-0.2-0.7-0.7-1.9-1.1-2.7l2-0.7c0.5,0.8,1,1.9,1.2,2.6L181.9,42.9z"/>
				<path class="st9" d="M206.5,53.9h-3.9v1.7c0,1.1-0.2,1.7-1.1,2c-0.8,0.3-1.9,0.3-3.4,0.3c-0.1-0.6-0.5-1.5-0.8-2.1
					c1,0,2.1,0,2.4,0c0.3,0,0.4-0.1,0.4-0.3v-1.6h-5.9c0.7,0.5,1.4,1.1,1.8,1.6l-1.7,1.5c-0.5-0.7-1.7-1.7-2.7-2.4l0.7-0.6h-4.1v-2
					h11.9v-0.9h-2.6v-4.4h7.9v4.4h-2.9V52h3.9V53.9z M188.6,49.7c0.8,0,1.8-0.1,2.9-0.1v-1.3h-2.6v-1.6h7.6v1.6h-2.8v1.2l3.1-0.1
					l0,1.7c-2.9,0.2-5.9,0.3-8,0.5L188.6,49.7z M201.6,43.7h-12.5v-1.4h12.5v-0.7h-11.1v-1.6h13.4v2.3h1.6v1.4h-1.6V46h-13.5v-1.6
					h11.1V43.7z M199.7,49.5h3.4v-1.4h-3.4V49.5z"/>
				<path class="st9" d="M69.8,93v2.3H51.9V93h7.6v-3.9h-5.7v-2.3h5.7v-3.5h-6.8v-2.3h8c-0.8-0.8-2-1.7-3-2.4l2-1.4
					c1.3,0.8,3,2.1,3.8,3l-1.1,0.8h6.3v2.3h-6.7v3.5h5.7v2.3h-5.7V93H69.8z"/>
				<path class="st9" d="M86.9,90.6c-0.5,0.8-1.1,1.5-1.8,2.1c2.1,0.5,4,1,5.6,1.5l-2.1,1.7c-1.5-0.6-3.5-1.1-5.7-1.7
					c-2.3,1.1-5.3,1.6-9.2,1.8c-0.2-0.7-0.5-1.5-0.9-2.1c2.4-0.1,4.5-0.3,6.2-0.7c-1.3-0.3-2.6-0.5-3.9-0.8c0.5-0.6,1-1.2,1.5-1.9
					h-3.8v-2h5.1c0.4-0.6,0.7-1.2,1-1.8H74v-5.6h4.3v-1.1h-5.3V78h17.4v2.1h-5.4v1.1h4.8v5.6H79.1l2.1,0.5c-0.2,0.4-0.4,0.9-0.7,1.3
					h4.8c0.2-0.4,0.3-0.7,0.4-1.1l2.3,0.6c-0.1,0.2-0.1,0.4-0.2,0.6h3v2H86.9z M76.2,84.9h2.1v-1.9h-2.1V84.9z M79.3,90.6
					c-0.2,0.3-0.4,0.5-0.6,0.8c1.2,0.2,2.4,0.5,3.5,0.7c0.7-0.4,1.3-0.9,1.8-1.5H79.3z M80.6,81.2h2.3v-1.1h-2.3V81.2z M82.8,84.9
					v-1.9h-2.3v1.9H82.8z M85.1,83.1v1.9h2.4v-1.9H85.1z"/>
				<path class="st9" d="M96.1,83.3c-0.4,0.3-0.7,0.6-1.1,0.9c-0.4-0.5-1.1-1.3-1.7-1.6c2.2-1.6,3.8-3.6,4.7-5.4l2.4,0.5
					c-0.3,0.5-0.6,1-1,1.5h3.1c-0.2-0.5-0.4-1-0.6-1.4l2.2-0.6c0.4,0.6,0.7,1.4,1,2.1h5.7v1.8h-6.1v0.8h5.2v1.5h-5.2v0.8h5.2v1.5
					h-5.2v0.9h6.6v1.8H98.4V89h-2.4V83.3z M101,92.8c-1.4,1.1-3.9,2.2-6,2.7c-0.3-0.5-1-1.4-1.5-1.8c2-0.3,4.4-0.9,5.7-1.7L101,92.8
					z M104,91.6v4.4h-2.4v-4.4h-7.8v-1.9h7.8v-1h2.4v1h7.8v1.9H104z M102.5,81.1h-4v0.8h4V81.1z M102.5,83.4h-4v0.8h4V83.4z
					 M102.5,85.8h-4v0.9h4V85.8z M106.1,91.8c1.8,0.6,4.4,1.5,5.8,2.2l-1.5,1.6c-1.3-0.6-3.9-1.7-5.7-2.3L106.1,91.8z"/>
				<path class="st9" d="M132.1,80.8v10h-2.5v-1h-4.5V96h-2.5v-6.2H118v1.1h-2.4V80.8h6.9v-3.5h2.5v3.5H132.1z M122.5,87.4v-4.3H118
					v4.3H122.5z M129.6,87.4v-4.3h-4.5v4.3H129.6z"/>
				<path class="st9" d="M153.7,80.1v2.3H143c-0.7,1.4-1.4,2.7-2.3,3.9V96h-2.4v-7c-0.6,0.5-1.1,1-1.8,1.4c-0.3-0.6-0.8-1.7-1.2-2.3
					c2.1-1.4,3.8-3.5,5-5.8H136v-2.3h5.4c0.3-0.9,0.6-1.9,0.9-2.8l2.5,0.6c-0.2,0.7-0.5,1.5-0.8,2.2H153.7z M148.9,93.3h4.7v2.2h-12
					v-2.2h4.8v-4.6h-4.1v-2.2h4.1v-3.3h2.4v3.3h4v2.2h-4V93.3z"/>
				<path class="st9" d="M167.8,91c2.4,0.8,5.6,2.1,7.2,2.9l-1.1,2c-1.8-1-5.4-2.5-8-3.5l0.9-1.5h-0.7c-1,2.5-3.1,4-8.4,4.9
					c-0.2-0.6-0.7-1.6-1.2-2.1c4-0.5,5.9-1.4,6.8-2.8h-6v-2h6.7c0.1-0.3,0.1-0.7,0.2-1h-7.4v-2.1h7.7v-1.1h-5.9v-2h5.9v-1h-7.1v-2.1
					h3.8c-0.3-0.6-0.7-1.2-1.1-1.8l2.1-0.8c0.6,0.7,1.2,1.7,1.5,2.3l-0.6,0.3h4.4c0.5-0.8,1.1-1.8,1.4-2.6l2.6,0.7
					c-0.4,0.7-0.9,1.4-1.3,1.9h3.8v2.1H167v1h6.1v2H167v1.1h8V88h-8.2c0,0.4-0.1,0.7-0.2,1h7.8v2H167.8z"/>
				<path class="st9" d="M195.4,78.1V96H193v-0.8h-12.4V96h-2.3V78.1H195.4z M193,93.1V80.3h-2.5c0.6,0.3,1.3,0.8,1.7,1.2l-0.8,0.8
					h1V84h-3.6c0.1,1.1,0.2,2.2,0.4,3.1c0.4-0.8,0.7-1.6,0.9-2.5l1.8,0.4c-0.5,1.7-1.2,3.3-2.1,4.6c0.3,0.6,0.6,1,0.9,1.1
					c0.2,0.1,0.4-0.7,0.5-1.9c0.4,0.4,1.1,0.9,1.5,1.1c-0.3,2.5-1.4,3.2-2.7,2.6c-0.6-0.2-1.1-0.7-1.5-1.3c-0.6,0.6-1.3,1.2-2.1,1.7
					c-0.3-0.4-0.9-1.1-1.3-1.4c0.2-0.1,0.4-0.3,0.6-0.4c-1.6,0.2-3.2,0.5-4.5,0.7l-0.2-1.7c1.5-0.2,3.5-0.4,5.6-0.7l0,1
					c0.4-0.3,0.7-0.6,1-1c-0.4-1.4-0.7-3.3-0.9-5.2h-5.6v-1.7h5.4c0-0.6-0.1-1.1-0.1-1.7h2c0,0.6,0,1.1,0.1,1.7h2.2
					c-0.4-0.4-1-0.8-1.5-1.1l0.9-0.9h-9.7v12.8H193z M186.3,88.6h-4.5v-3.8h4.5V88.6z M184.7,86.1h-1.3v1.3h1.3V86.1z"/>
			</g>
		</g>
		<polyline class="st10" points="274,68.4 280.7,75.1 252.5,75.1 252.5,134.1 1,134.1 1,3.9 252.3,3.9 252.3,68 		"/>
	</g>
</g>
<g id="圖層_4">
</g>
<g id="_x32_">
</g>
</svg>
