<?xml version="1.0" encoding="utf-8"?>
<!-- Generator: Adobe Illustrator 25.3.1, SVG Export Plug-In . SVG Version: 6.00 Build 0)  -->
<svg version="1.1" id="圖層_1" xmlns="http://www.w3.org/2000/svg" xmlns:xlink="http://www.w3.org/1999/xlink" x="0px" y="0px"
	 viewBox="0 0 310 290" style="enable-background:new 0 0 310 290;" xml:space="preserve">
<style type="text/css">
	.st0{fill:#E1E1E1;}
	.st1{fill:#8C8C8C;}
	.st2{fill:#1E9BD7;}
	.st3{opacity:0.6;}
	.st4{fill:#1CD8C0;}
	.st5{fill:none;}
	.st6{fill:none;stroke:#1CD8C0;stroke-width:2;stroke-linecap:round;stroke-linejoin:round;stroke-miterlimit:10;}
</style>
<g id="_x31_">
	<g>
		<g>
			<g>
				<g>
					<g>
						<g>
							<path class="st0" d="M109.1,207.9c13.1,8.3,28.6,13.1,45.3,13.1c14.5,0,28.2-3.6,40.1-10l-40.2-72.2L109.1,207.9z"/>
						</g>
						<g>
							<path class="st0" d="M152.9,50.6c-46.3,0.8-83.7,38.6-83.7,85.1c0,29.3,14.8,55.1,37.3,70.5l46.3-70.9L152.9,50.6L152.9,50.6
								z"/>
						</g>
						<g>
							<path class="st0" d="M156.9,137.1l40.3,72.3c25.4-14.7,42.4-42.2,42.4-73.6c0-1,0-1.9-0.1-2.8L156.9,137.1z"/>
						</g>
					</g>
				</g>
				<g>
					<path class="st1" d="M27.2,110.7c-1.4,0.9-3.6,1.8-5.3,2.3c-0.2-0.3-0.7-0.8-1-1.1c1.7-0.5,3.9-1.4,5-2.1L27.2,110.7z
						 M35.3,109.6H21.1v-1.4h2.8v-6.8h-2.4V100h2.4v-1.7h1.5v1.7h5.5v-1.7h1.5v1.7h2.4v1.4h-2.4v6.8h2.8L35.3,109.6L35.3,109.6z
						 M25.4,101.4v1.3h5.5v-1.3H25.4z M25.4,105.5h5.5V104h-5.5V105.5z M25.4,108.2h5.5v-1.5h-5.5V108.2z M30.2,109.8
						c1.8,0.6,3.9,1.5,5.1,2.1l-1.4,1c-1.1-0.6-2.9-1.5-4.8-2.2L30.2,109.8z"/>
					<path class="st1" d="M41.7,98.8c-0.4,1.2-1,2.4-1.6,3.5V113h-1.4v-8.5c-0.4,0.6-0.9,1.1-1.3,1.6c-0.1-0.4-0.6-1.2-0.8-1.5
						c1.5-1.5,2.9-3.8,3.8-6.2L41.7,98.8z M49,111.5c0.9,0,1.1-0.4,1.2-2.3c0.4,0.2,0.9,0.5,1.3,0.6c-0.2,2.3-0.7,3-2.5,3h-3.9
						c-2,0-2.6-0.5-2.6-2.5v-4.9l-1.4,0.5l-0.6-1.3l2-0.8v-4h1.4v3.4l2-0.8v-4.3h1.3v3.7l2.4-0.9l0.2-0.2l1.1,0.4v0.3
						c-0.1,2.3-0.2,5.3-0.5,7.2l-1.2-0.3c0.2-1.4,0.3-3.7,0.3-5.7l-2.2,0.9v5.7H46V104l-2,0.8v5.4c0,0.9,0.2,1.1,1.3,1.1H49V111.5z"
						/>
				</g>
				<g>
					<path class="st2" d="M218.7,36.5c0,0.4-0.1,0.7-0.2,1.1h6.4v1.3h-6.8c-0.8,2.1-2.4,3.4-6.7,4.1c-0.1-0.4-0.5-1-0.8-1.3
						c3.5-0.5,5-1.4,5.7-2.8h-5.1v-1.3h5.6c0.1-0.3,0.1-0.7,0.2-1.1h-6.1v-1.3h6.3v-1.1h-4.8v-1.3h4.8v-1.1h-5.7v-1.3h3.2
						c-0.3-0.5-0.7-1.2-1.1-1.7l1.3-0.5c0.5,0.6,1.1,1.4,1.3,1.9l-0.5,0.2h3.9c0.4-0.6,1-1.5,1.2-2.2l1.6,0.4
						c-0.4,0.6-0.8,1.2-1.2,1.7h3.3v1.3h-5.8v1.1h5v1.3h-5V35h6.5v1.3h-6.5V36.5z M224.7,43.1c-1.4-0.9-4.3-2.3-6.4-3.1l0.7-1.1
						c2.1,0.8,5,2,6.5,2.9L224.7,43.1z"/>
					<path class="st2" d="M240.8,29v14h-1.5v-0.7h-10.5V43h-1.4V29H240.8z M239.4,41V30.3h-10.5V41H239.4z M238.2,34.2
						c-0.4,1.5-1,2.7-1.7,3.8c0.3,0.7,0.6,1.1,1,1.2c0.2,0.1,0.3-0.6,0.4-1.6c0.2,0.2,0.7,0.6,0.9,0.7c-0.2,1.8-0.9,2.4-1.8,2.1
						c-0.6-0.2-1.1-0.6-1.5-1.3c-0.6,0.6-1.2,1.2-1.9,1.6c-0.2-0.2-0.6-0.7-0.8-0.9c0.4-0.3,0.8-0.5,1.2-0.9
						c-1.6,0.3-3.2,0.6-4.5,0.8l-0.2-1.1c1.2-0.2,2.9-0.4,4.6-0.7v1c0.4-0.3,0.7-0.6,1-1c-0.4-1.2-0.6-2.8-0.8-4.5h-4.7v-1.1h4.6
						c0-0.5-0.1-1-0.1-1.5h1.2c0,0.5,0,1,0.1,1.5h2.3c-0.3-0.4-1-0.8-1.6-1.1l0.7-0.7c0.6,0.3,1.3,0.7,1.6,1.1l-0.7,0.7h1v1.1h-3.2
						c0.1,1.2,0.3,2.2,0.5,3.1c0.4-0.8,0.8-1.6,1-2.5L238.2,34.2z M233.7,34.2v3.1h-3.5v-3.1H233.7z M232.6,35h-1.5v1.4h1.5V35z"/>
				</g>
				<g>
					<path class="st2" d="M216.6,59.2c-0.4,0.5-0.8,1-1.1,1.3s-0.6,0.7-0.8,0.9h3.7v2.3H211v-2.2c0.3-0.3,0.6-0.6,0.8-0.8
						s0.4-0.4,0.6-0.6c0.2-0.2,0.4-0.4,0.5-0.6c0.2-0.2,0.4-0.5,0.7-0.8c0.4-0.5,0.8-0.9,1.1-1.2s0.5-0.5,0.6-0.8s0.2-0.4,0.3-0.6
						s0.1-0.5,0.1-0.8V55c0-0.3-0.1-0.5-0.3-0.7c-0.2-0.1-0.6-0.2-1.1-0.2c-0.2,0-0.5,0-0.7,0c-0.3,0-0.5,0-0.8,0.1
						c-0.3,0-0.5,0.1-0.8,0.1s-0.5,0.1-0.7,0.1l-0.3-2.2c0.6-0.1,1.1-0.3,1.7-0.3c0.6-0.1,1.2-0.1,1.7-0.1c1.4,0,2.4,0.2,3,0.7
						c0.6,0.4,0.9,1.2,0.9,2.2v0.5c0,0.4,0,0.8,0,1.1s-0.1,0.6-0.2,0.8s-0.3,0.6-0.5,0.9C217.3,58.3,217,58.7,216.6,59.2z"/>
					<path class="st2" d="M227.2,61.3v2.5h-2.6v-2.5h-5.3V59l4.4-6.9h3.4v7.1h1.5v2.1C228.6,61.3,227.2,61.3,227.2,61.3z
						 M224.7,54.7l-2.8,4.5h2.8V54.7z"/>
					<path class="st2" d="M235.7,55.5c0,0.4,0,0.7-0.1,1s-0.2,0.6-0.5,0.8c-0.2,0.2-0.5,0.4-0.9,0.5s-0.8,0.2-1.4,0.2
						c-0.6,0-1-0.1-1.4-0.2c-0.4-0.1-0.7-0.3-0.9-0.5s-0.4-0.5-0.5-0.8s-0.1-0.7-0.1-1v-1.3c0-0.4,0-0.7,0.1-1s0.2-0.6,0.5-0.8
						c0.2-0.2,0.5-0.4,0.9-0.5s0.8-0.2,1.4-0.2c0.6,0,1,0.1,1.4,0.2c0.4,0.1,0.7,0.3,0.9,0.5s0.4,0.5,0.5,0.8s0.1,0.7,0.1,1V55.5z
						 M233.7,54c0-0.3-0.1-0.5-0.2-0.6s-0.4-0.2-0.7-0.2s-0.6,0.1-0.7,0.2c-0.1,0.1-0.2,0.3-0.2,0.6v1.6c0,0.3,0.1,0.5,0.2,0.6
						c0.1,0.1,0.4,0.2,0.7,0.2s0.6-0.1,0.7-0.2c0.1-0.1,0.2-0.3,0.2-0.6V54z M238.6,51.6l1.6,0.6l-4.8,11.7l-1.6-0.6L238.6,51.6z
						 M244.2,61.3c0,0.4,0,0.7-0.1,1s-0.2,0.6-0.5,0.8c-0.2,0.2-0.5,0.4-0.9,0.5s-0.8,0.2-1.4,0.2c-0.6,0-1-0.1-1.4-0.2
						c-0.4-0.1-0.7-0.3-0.9-0.5s-0.4-0.5-0.5-0.8s-0.1-0.7-0.1-1V60c0-0.4,0-0.7,0.1-1s0.2-0.6,0.5-0.8c0.2-0.2,0.5-0.4,0.9-0.5
						s0.8-0.2,1.4-0.2c0.6,0,1,0.1,1.4,0.2s0.7,0.3,0.9,0.5s0.4,0.5,0.5,0.8s0.1,0.7,0.1,1V61.3z M242.2,59.8c0-0.3-0.1-0.5-0.2-0.6
						c-0.1-0.1-0.4-0.2-0.7-0.2s-0.6,0.1-0.7,0.2c-0.1,0.1-0.2,0.3-0.2,0.6v1.6c0,0.3,0.1,0.5,0.2,0.6c0.1,0.1,0.4,0.2,0.7,0.2
						s0.6-0.1,0.7-0.2c0.1-0.1,0.2-0.3,0.2-0.6V59.8z"/>
				</g>
				<g>
					<path class="st1" d="M252.6,193.1v7.7H251v-0.9h-4.2v5.1h-1.6v-5.1h-4.1v0.9h-1.5v-7.7h5.6v-2.8h1.6v2.8H252.6z M245.3,198.4
						v-3.9h-4.1v3.9H245.3z M251.1,198.4v-3.9h-4.2v3.9H251.1z"/>
					<path class="st1" d="M268.8,191v14h-1.5v-0.7h-10.5v0.7h-1.4v-14H268.8z M267.4,203v-10.6h-10.5V203H267.4z M266.2,196.2
						c-0.4,1.5-1,2.7-1.7,3.8c0.3,0.7,0.6,1.1,1,1.2c0.2,0.1,0.3-0.6,0.4-1.6c0.2,0.2,0.7,0.6,0.9,0.7c-0.2,1.8-0.9,2.4-1.8,2.1
						c-0.6-0.2-1.1-0.6-1.5-1.3c-0.6,0.6-1.2,1.2-1.9,1.6c-0.2-0.2-0.6-0.7-0.8-0.9c0.4-0.3,0.8-0.5,1.2-0.9
						c-1.6,0.3-3.2,0.6-4.5,0.8l-0.2-1.1c1.2-0.2,2.9-0.4,4.6-0.7v1c0.4-0.3,0.7-0.6,1-1c-0.4-1.2-0.6-2.8-0.8-4.5h-4.7v-1.1h4.6
						c0-0.5-0.1-1-0.1-1.5h1.2c0,0.5,0,1,0.1,1.5h2.3c-0.3-0.4-1-0.8-1.6-1.1l0.7-0.7c0.6,0.3,1.3,0.7,1.6,1.1l-0.7,0.7h1v1.1h-3.2
						c0.1,1.2,0.3,2.2,0.5,3.1c0.4-0.8,0.8-1.6,1-2.5L266.2,196.2z M261.7,196.2v3.1h-3.5v-3.1H261.7z M260.6,197h-1.5v1.4h1.5V197z
						"/>
				</g>
				<g>
					<path class="st1" d="M241.3,225.7v-8.6l-2,1.1l-1.1-2.1l3.4-2h2.3v11.6H241.3z"/>
					<path class="st1" d="M246.1,221.9c0-0.4,0.1-0.8,0.3-1.2s0.6-0.7,1.2-1c-0.5-0.3-0.8-0.6-1-0.9c-0.2-0.3-0.3-0.7-0.3-1.1v-1
						c0-0.5,0.1-0.9,0.2-1.2s0.3-0.7,0.6-0.9s0.7-0.4,1.1-0.6c0.5-0.1,1-0.2,1.7-0.2s1.2,0.1,1.7,0.2s0.8,0.3,1.1,0.6
						c0.3,0.2,0.5,0.5,0.6,0.9s0.2,0.8,0.2,1.2v1c0,0.4-0.1,0.8-0.3,1.1s-0.5,0.6-1,0.9c0.6,0.3,1,0.6,1.2,1
						c0.2,0.3,0.3,0.7,0.3,1.2v0.9c0,0.6-0.1,1-0.2,1.4c-0.1,0.4-0.4,0.7-0.7,0.9s-0.7,0.4-1.2,0.5s-1.1,0.2-1.8,0.2
						s-1.3-0.1-1.8-0.2c-0.5-0.1-0.9-0.3-1.2-0.5s-0.5-0.6-0.7-0.9c-0.1-0.4-0.2-0.9-0.2-1.4v-0.9H246.1z M248.6,222.8
						c0,0.4,0.1,0.6,0.3,0.8c0.2,0.1,0.6,0.2,1.1,0.2s0.9-0.1,1.1-0.2c0.2-0.2,0.3-0.4,0.3-0.7v-0.6c0-0.1,0-0.3,0-0.4
						c0-0.1-0.1-0.2-0.2-0.3s-0.2-0.2-0.4-0.3s-0.5-0.2-0.8-0.3c-0.3,0.1-0.6,0.2-0.8,0.3s-0.3,0.2-0.4,0.3s-0.1,0.2-0.2,0.3
						c0,0.1,0,0.2,0,0.4L248.6,222.8L248.6,222.8z M248.9,217.8c0,0.1,0,0.2,0,0.3s0.1,0.2,0.1,0.3c0.1,0.1,0.2,0.2,0.4,0.2
						s0.4,0.2,0.6,0.3c0.3-0.1,0.5-0.2,0.6-0.3s0.3-0.2,0.3-0.2c0.1-0.1,0.1-0.2,0.1-0.3s0-0.2,0-0.3v-0.9c0-0.3-0.1-0.5-0.2-0.6
						c-0.1-0.1-0.4-0.2-0.9-0.2s-0.8,0.1-0.9,0.2c-0.1,0.1-0.2,0.4-0.2,0.6L248.9,217.8L248.9,217.8z"/>
					<path class="st1" d="M261.2,217.5c0,0.4,0,0.7-0.1,1s-0.2,0.6-0.5,0.8c-0.2,0.2-0.5,0.4-0.9,0.5s-0.8,0.2-1.4,0.2
						s-1-0.1-1.4-0.2c-0.4-0.1-0.7-0.3-0.9-0.5c-0.2-0.2-0.4-0.5-0.5-0.8s-0.1-0.7-0.1-1v-1.3c0-0.4,0-0.7,0.1-1s0.2-0.6,0.5-0.8
						c0.2-0.2,0.5-0.4,0.9-0.5s0.8-0.2,1.4-0.2s1,0.1,1.4,0.2c0.4,0.1,0.7,0.3,0.9,0.5c0.2,0.2,0.4,0.5,0.5,0.8s0.1,0.7,0.1,1V217.5
						z M259.2,216c0-0.3-0.1-0.5-0.2-0.6s-0.4-0.2-0.7-0.2s-0.6,0.1-0.7,0.2c-0.1,0.1-0.2,0.3-0.2,0.6v1.6c0,0.3,0.1,0.5,0.2,0.6
						s0.4,0.2,0.7,0.2s0.6-0.1,0.7-0.2c0.1-0.1,0.2-0.3,0.2-0.6V216z M264.2,213.6l1.6,0.6l-4.8,11.7l-1.6-0.6L264.2,213.6z
						 M269.8,223.3c0,0.4,0,0.7-0.1,1s-0.2,0.6-0.5,0.8c-0.2,0.2-0.5,0.4-0.9,0.5s-0.8,0.2-1.4,0.2s-1-0.1-1.4-0.2
						c-0.4-0.1-0.7-0.3-0.9-0.5c-0.2-0.2-0.4-0.5-0.5-0.8s-0.1-0.7-0.1-1V222c0-0.4,0-0.7,0.1-1s0.2-0.6,0.5-0.8
						c0.2-0.2,0.5-0.4,0.9-0.5s0.8-0.2,1.4-0.2s1,0.1,1.4,0.2s0.7,0.3,0.9,0.5c0.2,0.2,0.4,0.5,0.5,0.8s0.1,0.7,0.1,1V223.3z
						 M267.8,221.8c0-0.3-0.1-0.5-0.2-0.6s-0.4-0.2-0.7-0.2s-0.6,0.1-0.7,0.2c-0.1,0.1-0.2,0.3-0.2,0.6v1.6c0,0.3,0.1,0.5,0.2,0.6
						s0.4,0.2,0.7,0.2s0.6-0.1,0.7-0.2c0.1-0.1,0.2-0.3,0.2-0.6V221.8z"/>
				</g>
				<g>
					<path class="st1" d="M132.4,242.1c0,0.3,0,0.7,0,1.1c0.5,3.1,1.3,5,3.1,6.7c-0.4,0.3-0.8,0.7-0.9,1.2c-1.3-1.3-2.1-2.7-2.7-4.5
						c-0.4,1.6-1.2,3.1-2.6,4.5c-0.2-0.3-0.5-0.7-0.8-0.9c-0.4,0-0.9,0.1-1.4,0.1h-3.3c-1.8,0-2.5-0.7-2.5-2.6v-9.2h-0.5V237h7.8
						v1.3h-6v9.3c0,1,0.3,1.3,1.1,1.3h3.4c0.5,0,1.1,0,1.5-0.1c0,0.2,0,0.4,0.1,0.7c2.1-2.4,2.3-5.3,2.3-7.3v-1.1h1.3L132.4,242.1
						L132.4,242.1z M123.2,243.8h2.4v4h-2.4V243.8z M127.8,242.9h-4.1v-3.6h4.1V242.9z M123.9,246.9h0.9v-2.2h-0.9V246.9z
						 M126.6,240.2h-1.8v1.8h1.8V240.2z M128.6,247.9h-2.5v-4h2.5V247.9z M127.8,244.8h-0.9v2.1h0.9V244.8z M130.7,240.1
						c-0.4,1.2-0.8,2.3-1.4,3.1c-0.3-0.2-0.9-0.6-1.2-0.8c1.1-1.4,1.7-3.7,2-6.1l1.4,0.2c-0.1,0.8-0.2,1.5-0.4,2.2h3.4h0.2l1,0.3
						c-0.3,1.5-0.8,3.2-1.2,4.3l-1.1-0.4c0.3-0.7,0.5-1.8,0.7-2.8H130.7z"/>
					<path class="st1" d="M151.4,249.2v1.3h-14.6v-1.3h1.9v-3.7h11v3.7H151.4z M139.1,244.3h-1.4V237h5.2v6.4h-3.8V244.3z
						 M139.1,238.2v1.5h2.5v-1.5H139.1z M141.6,242.3v-1.5h-2.5v1.5H141.6z M140.1,249.2h1.8v-2.6h-1.8V249.2z M145.4,242.5
						c-0.3,1-0.8,2-1.8,2.8c-0.2-0.3-0.7-0.8-1-1c1.6-1.2,1.7-2.9,1.7-4.3v-3.2h6.1v6.8c0,0.7-0.2,1.1-0.6,1.3
						c-0.5,0.2-1.2,0.2-2.3,0.2c-0.1-0.4-0.3-0.9-0.5-1.2c0.8,0,1.5,0,1.7,0s0.3-0.1,0.3-0.3v-1.1H145.4z M143.3,246.7v2.6h1.8v-2.6
						H143.3z M149,241.4v-1.2h-3.3c0,0.4,0,0.8-0.1,1.2H149z M145.7,238v1.2h3.3V238H145.7z M146.4,246.7v2.6h1.8v-2.6H146.4z"/>
				</g>
				<g>
					<path class="st1" d="M123.3,271.7v-8.6l-2,1.1l-1.1-2.1l3.4-2h2.3v11.6H123.3z"/>
					<path class="st1" d="M131.3,271.7h-2.7l3.8-9.3h-4.8v-2.3h7.5v2.2L131.3,271.7z"/>
					<path class="st1" d="M142,263.5c0,0.4,0,0.7-0.1,1s-0.2,0.6-0.5,0.8c-0.2,0.2-0.5,0.4-0.9,0.5s-0.8,0.2-1.4,0.2
						c-0.6,0-1-0.1-1.4-0.2s-0.7-0.3-0.9-0.5s-0.4-0.5-0.5-0.8s-0.1-0.7-0.1-1v-1.3c0-0.4,0-0.7,0.1-1s0.2-0.6,0.5-0.8
						c0.2-0.2,0.5-0.4,0.9-0.5s0.8-0.2,1.4-0.2c0.6,0,1,0.1,1.4,0.2s0.7,0.3,0.9,0.5s0.4,0.5,0.5,0.8s0.1,0.7,0.1,1V263.5z M140,262
						c0-0.3-0.1-0.5-0.2-0.6s-0.4-0.2-0.7-0.2s-0.6,0.1-0.7,0.2c-0.1,0.1-0.2,0.3-0.2,0.6v1.6c0,0.3,0.1,0.5,0.2,0.6
						c0.1,0.1,0.4,0.2,0.7,0.2s0.6-0.1,0.7-0.2c0.1-0.1,0.2-0.3,0.2-0.6V262z M144.9,259.6l1.6,0.6l-4.8,11.7l-1.6-0.6L144.9,259.6z
						 M150.5,269.3c0,0.4,0,0.7-0.1,1s-0.2,0.6-0.5,0.8c-0.2,0.2-0.5,0.4-0.9,0.5s-0.8,0.2-1.4,0.2c-0.6,0-1-0.1-1.4-0.2
						s-0.7-0.3-0.9-0.5s-0.4-0.5-0.5-0.8s-0.1-0.7-0.1-1V268c0-0.4,0-0.7,0.1-1s0.2-0.6,0.5-0.8c0.2-0.2,0.5-0.4,0.9-0.5
						s0.8-0.2,1.4-0.2c0.6,0,1,0.1,1.4,0.2s0.7,0.3,0.9,0.5s0.4,0.5,0.5,0.8s0.1,0.7,0.1,1V269.3z M148.5,267.8
						c0-0.3-0.1-0.5-0.2-0.6c-0.1-0.1-0.4-0.2-0.7-0.2s-0.6,0.1-0.7,0.2c-0.1,0.1-0.2,0.3-0.2,0.6v1.6c0,0.3,0.1,0.5,0.2,0.6
						c0.1,0.1,0.4,0.2,0.7,0.2s0.6-0.1,0.7-0.2c0.1-0.1,0.2-0.3,0.2-0.6V267.8z"/>
				</g>
				<g>
					<path class="st1" d="M28.3,131.3v2.5h-2.6v-2.5h-5.3V129l4.4-6.9h3.4v7.1h1.5v2.1H28.3z M25.7,124.7l-2.8,4.5h2.8V124.7z"/>
					<path class="st1" d="M33.1,133.7v-8.6l-2,1.1l-1.1-2.1l3.4-2h2.3v11.6H33.1z"/>
					<path class="st1" d="M43.3,125.5c0,0.4,0,0.7-0.1,1s-0.2,0.6-0.5,0.8c-0.2,0.2-0.5,0.4-0.9,0.5S41,128,40.4,128
						c-0.6,0-1-0.1-1.4-0.2s-0.7-0.3-0.9-0.5s-0.4-0.5-0.5-0.8s-0.1-0.7-0.1-1v-1.3c0-0.4,0-0.7,0.1-1s0.2-0.6,0.5-0.8
						c0.2-0.2,0.5-0.4,0.9-0.5s0.8-0.2,1.4-0.2c0.6,0,1,0.1,1.4,0.2s0.7,0.3,0.9,0.5s0.4,0.5,0.5,0.8s0.1,0.7,0.1,1V125.5z
						 M41.3,124c0-0.3-0.1-0.5-0.2-0.6s-0.4-0.2-0.7-0.2s-0.6,0.1-0.7,0.2c-0.1,0.1-0.2,0.3-0.2,0.6v1.6c0,0.3,0.1,0.5,0.2,0.6
						c0.1,0.1,0.4,0.2,0.7,0.2s0.6-0.1,0.7-0.2c0.1-0.1,0.2-0.3,0.2-0.6V124z M46.3,121.6l1.6,0.6l-4.8,11.7l-1.6-0.6L46.3,121.6z
						 M51.9,131.3c0,0.4,0,0.7-0.1,1s-0.2,0.6-0.5,0.8c-0.2,0.2-0.5,0.4-0.9,0.5s-0.8,0.2-1.4,0.2c-0.6,0-1-0.1-1.4-0.2
						c-0.4-0.1-0.7-0.3-0.9-0.5s-0.4-0.5-0.5-0.8s-0.1-0.7-0.1-1V130c0-0.4,0-0.7,0.1-1s0.2-0.6,0.5-0.8c0.2-0.2,0.5-0.4,0.9-0.5
						s0.8-0.2,1.4-0.2c0.6,0,1,0.1,1.4,0.2s0.7,0.3,0.9,0.5s0.4,0.5,0.5,0.8s0.1,0.7,0.1,1V131.3z M49.9,129.8
						c0-0.3-0.1-0.5-0.2-0.6c-0.1-0.1-0.4-0.2-0.7-0.2s-0.6,0.1-0.7,0.2c-0.1,0.1-0.2,0.3-0.2,0.6v1.6c0,0.3,0.1,0.5,0.2,0.6
						c0.1,0.1,0.4,0.2,0.7,0.2s0.6-0.1,0.7-0.2c0.1-0.1,0.2-0.3,0.2-0.6V129.8z"/>
				</g>
				<g class="st3">
					<path class="st4" d="M239.3,129.9c-3-43.8-39.1-78.5-83.4-79.3v83.5L239.3,129.9z"/>
				</g>
			</g>
		</g>
		<g>
			<rect class="st5" width="310" height="290"/>
		</g>
	</g>
	<path class="st6" d="M228,82c11,15.1,17.6,33.7,17.6,53.8c0,50.4-40.8,91.2-91.2,91.2s-91.2-40.8-91.2-91.2s40.8-91.2,91.2-91.2
		c13.8,0,26.9,3.1,38.6,8.5"/>
</g>
<g id="圖層_4">
</g>
<g id="_x32_">
</g>
</svg>
