<?xml version="1.0" encoding="utf-8"?>
<!-- Generator: Adobe Illustrator 25.3.1, SVG Export Plug-In . SVG Version: 6.00 Build 0)  -->
<svg version="1.1" xmlns="http://www.w3.org/2000/svg" xmlns:xlink="http://www.w3.org/1999/xlink" x="0px" y="0px"
	 viewBox="0 0 700 440" style="enable-background:new 0 0 700 440;" xml:space="preserve">
<style type="text/css">
	.st0{display:none;}
	.st1{display:inline;}
	.st2{fill-rule:evenodd;clip-rule:evenodd;fill:#FFFFFF;}
	.st3{opacity:0.7;}
	.st4{fill:none;stroke:#FFBF27;stroke-width:1.073;stroke-linecap:round;stroke-linejoin:round;stroke-miterlimit:10;}
	
		.st5{fill-rule:evenodd;clip-rule:evenodd;fill:none;stroke:#FFBF27;stroke-width:1.073;stroke-linecap:round;stroke-linejoin:round;stroke-miterlimit:10;}
	.st6{fill:none;stroke:#1CD8C0;stroke-width:2.0785;stroke-linecap:round;stroke-linejoin:round;stroke-miterlimit:10;}
	.st7{fill:none;stroke:#FFBF27;stroke-width:2;stroke-linecap:round;stroke-linejoin:round;stroke-miterlimit:10;}
	
		.st8{fill-rule:evenodd;clip-rule:evenodd;fill:none;stroke:#FFBF27;stroke-width:2;stroke-linecap:round;stroke-linejoin:round;stroke-miterlimit:10;}
	.st9{fill:none;}
	.st10{fill:#1CD8C0;}
	.st11{fill:#FFFFFF;}
	.st12{fill:none;stroke:#37B0AC;stroke-width:2;stroke-miterlimit:10;}
	.st13{fill:#FFD572;}
	.st14{fill:#FFE5A8;}
	.st15{fill:#FFBF27;}
	.st16{fill:none;stroke:#1E9BD7;stroke-width:2;stroke-linecap:round;stroke-linejoin:round;stroke-miterlimit:10;}
	.st17{display:inline;fill:none;stroke:#FFBF27;stroke-width:2;stroke-linecap:round;stroke-linejoin:round;stroke-miterlimit:10;}
	.st18{fill:none;stroke:#8DEBDF;stroke-width:2;stroke-linecap:round;stroke-linejoin:round;stroke-miterlimit:10;}
	.st19{fill:none;stroke:#FFDF92;stroke-width:2;stroke-linecap:round;stroke-linejoin:round;stroke-miterlimit:10;}
	.st20{display:inline;fill:none;stroke:#1CD8C0;stroke-width:2;stroke-linecap:round;stroke-linejoin:round;}
	.st21{fill:#E1E1E1;}
	.st22{fill:#8C8C8C;}
	.st23{fill:#1E9BD7;}
	.st24{opacity:0.6;}
	.st25{display:inline;fill:none;stroke:#1CD8C0;stroke-width:2;stroke-linecap:round;stroke-linejoin:round;stroke-miterlimit:10;}
	.st26{opacity:0.6;fill:#1CD8C0;}
	.st27{fill:none;stroke:#1CD8C0;stroke-width:2;stroke-linecap:round;stroke-linejoin:round;stroke-miterlimit:10;}
	.st28{fill-rule:evenodd;clip-rule:evenodd;fill:#1E9BD7;}
	.st29{fill:none;stroke:#1E9BD7;stroke-width:2;stroke-linecap:round;}
	.st30{fill:none;stroke:#1E9BD7;stroke-width:2;stroke-linecap:square;}
	.st31{fill:#8DEBDF;}
	.st32{fill:none;stroke:#1E9BD7;stroke-width:2;stroke-miterlimit:10;}
	.st33{fill:none;stroke:#FFFFFF;stroke-width:2;stroke-linecap:round;stroke-linejoin:round;stroke-miterlimit:10;}
	.st34{fill:none;stroke:#1CD8C0;stroke-width:1.6;stroke-linecap:round;stroke-linejoin:round;stroke-miterlimit:10;}
	.st35{fill:none;stroke:#1CD8C0;stroke-width:1.235;stroke-linecap:round;stroke-linejoin:round;stroke-miterlimit:10;}
	.st36{fill:none;stroke:#50BEAF;stroke-width:8;stroke-linecap:square;}
	.st37{fill:none;stroke:#50BEAF;stroke-width:2;stroke-linecap:round;}
	.st38{fill:none;stroke:#50BEAF;stroke-width:2;stroke-linecap:square;}
	.st39{fill:none;stroke:#1E9BD7;stroke-width:2;stroke-linecap:round;stroke-linejoin:round;}
	.st40{fill:none;stroke:#50BEAF;stroke-width:4;stroke-linecap:square;}
	.st41{fill:none;stroke:#50BEAF;stroke-linecap:round;}
	.st42{fill:none;stroke:#50BEAF;stroke-linecap:square;}
</style>
<g id="_x31_" class="st0">
	<g class="st1">
		<g>
			<g>
				<g>
					<path class="st2" d="M106.8,55c2.8-0.3,5.6,0.1,8.3,1.1c4.2,1.6,13.1-0.7,16.9,1.7c5.8,3.7,9.3,11,16,12.7
						c2.4,0.6,4.9,0.4,7.3,0.5c8.3,0.4,16.7,5.2,19.9,12.9c3.1,7.7-0.1,17.6-7.9,20.5c-6.5-2.2-14.3,2-16.2,8.5
						c-1.8,6.6,2.7,14.2,9.4,15.7c2,0.4,4,0.4,5.8,1.3c2.4,1.1,3.8,3.5,5.7,5.3c1.3,1.3,2.9,2.4,4.7,2.5c3.5,0.1,5.9-3.8,6-7.3
						c0.1-3.5-1.3-6.8-1.9-10.3c-0.6-3.5,0.1-7.6,3.1-9.4c3.1-1.8,7.3-0.2,9.5,2.7c2.2,2.8,2.9,6.5,3.5,10c3.1-1.6,7.3-1.5,10.8-1.7
						c2.2,2.6,2.4,6.3,3.1,9.7c0.7,3.7,2.2,7.2,4.2,10.3c1.5,2.3,3.3,4.4,4.1,7c1.6,5.5-2.8,11.8-8.5,12.2
						c-3.9,0.3-8.3-1.7-11.5,0.5c-2.1,1.5-2.7,4.4-4,6.6c-1.8,3.1-3.7,5.4-7.3,5.2c-4.1-0.2-8.3,0.6-12.1,2.2
						c-1.4,0.6-2.8,1.4-3.3,2.8c-0.6,1.8,0.6,3.7,1.1,5.5c1,3.4-0.5,7.2-3,9.7c-2.5,2.5-5,6-8.5,6c-3.4,0-6.7,2.3-7.7,5.6
						c-0.4,1.4-0.5,2.9-0.8,4.3s-1,2.9-2.3,3.6c-1.3,0.7-3.6,0.6-3.6-0.9c-0.1-5.8-6.2-10-12-10.2c-5.9-0.2-12,3.2-14.3,8.6
						c-2.3,5.4-0.2,12.6,5.1,15.2c2.7,1.4,5.8,1.5,8.9,1.6c3,0.1,6.2,0.2,8.9,1.5c2.7,1.3,5,4.2,4.6,7.2c-0.3,1.9-1.4,4.2,0.1,5.4
						c0.9,0.8,2.2,0.6,3.2,1c2,0.8,2.4,3.4,3.6,5.2c1.6,2.5,6.8,3.3,9.6,2.4c0.5-6.2,8.3-10.4,13.8-7.5c2.6,1.4,5,4.2,7.9,3.6
						c1.1-0.2,2-0.8,3-1.2c2.6-0.9,5.4,0.3,7.9,1.5c6.6,3.1,13.5,6.3,18.2,11.8c2.8,3.3,4.8,7.4,8.3,9.9c3.9,2.7,8.9,3.1,13.6,3.2
						c4.7,0.1,9.7,0.2,13.8,2.5c4.1,2.3,7.1,7.7,6,12.3c-0.9,4-2.7,7.9-5.2,11.2c-2.1,2.8-4.8,5.5-5.2,9c-0.2,2.5,0.8,4.9,1.2,7.3
						c0.3,2,0.2,4.1-0.7,5.9c-0.9,1.8-2.3,3.6-4.3,4c-4.9,0.8-10.7-1.4-14.5,1.9c-4.1,3.5-2.1,10.1-2.6,15.5
						c-0.6,6.7-5.6,12.5-11.7,15.5c-1.4,0.7-3,1.3-4.1,2.5c-2.3,2.6-1.8,7.4-4.9,8.8c-1,0.4-2.1,0.4-3.1,0.7
						c-2.2,0.7-3.4,3.2-3.5,5.5c-0.1,2.3,1.3,4.6,1.3,6.9c0.1,2.4-0.8,4.9-2.3,6.8c-1,1.2-2.4,2.4-2.5,4c-0.1,1.4,0.8,2.7,1.7,3.8
						c2.8,3.6,6.7,7,8.9,11c0.7,1.3,0.5,3-0.5,4c-1,1.1-2.6,2-4,1.5c-12.1-4.9-21.2-16-25-28.5c-3.9-12.5-2.9-26.1,1.2-38.5
						c2.2-6.6,5.2-13.1,6.3-20c1.1-6.9,0-14.7-5.1-19.5c-5.5-5.2-11.6-7.9-16.6-13.5c-2.7-3-5.4-6.2-6.7-10.1
						c-1.3-3.9-0.8-8.6,2.2-11.3c1.7-1.6,4.2-2.6,5.1-4.7c1-2.7-2.3-6-1.5-8.8c-3.6,0.3-7.4-1.3-9.7-4.1c-0.9-1.1-1.5-2.3-2.5-3.2
						c-3.8-3.7-10.7-2.1-14.4-5.8c-0.8-0.8-1.4-1.7-2.2-2.4c-1.8-1.6-4.3-1.9-6.6-2.3c-4.5-0.8-10.3-1.8-13.9-4.7
						c-4.9-3.9-8.5-9.4-10.2-15.4c-1-3.5-1.3-7.1-2.4-10.6c-2.2-6.8-7.6-12.7-13.9-16.2c-6-3.3-11.9-8.4-12.6-15.3
						c-0.3-3.8,1-7.5,1.2-11.3c0.2-4.7-1.5-10.5-4.2-14.3c-2.6-3.7-3.1-8.4-3.5-12.9c-0.3-3.6-0.6-7.4,0.5-10.9
						c1.2-3.7,3.8-6.8,5.6-10.2c1.8-3.4,2.8-7.9,0.6-11.1c-1.7-2.4-4.7-3.5-7.5-4.1c-8.3-1.9-18.4-4.7-24.9,0.7
						c-2.5,2-6.1,1.4-9.3,0.5c-1.5-0.4-3.1-0.9-3.6-2.3c-0.4-1.2,0.2-2.6,0.6-3.8c1-3.3,0.7-7.9-1.5-10.6c-0.4-4-0.3-8.8,3-10.9
						c1.1-0.7,2.4-1,3.5-1.5c1.1-0.6,2.2-1.6,2.2-2.9c0-1.6-1.6-2.7-2.5-4c-1.2-1.7,0-2.6,1.1-4.4c-0.6-1.4,0.7-3.1,2.2-3.5
						c1.5-0.5,3.1-0.2,4.7-0.1c2.7,0.1,5.9,0.1,8.2-1.2c0.5-2.9-2-5.3-3.9-7.5c-2-2.2-4.5-6.7-2.2-8.6c5.1-4.2,12.4-6.4,18.8-4.7
						c5-1.1,13.5,0.9,15,5.8c0.9,3.1,4.3,4.7,7.1,6.1c4.3,2.2,8.5,5.3,12,8.7C99.7,57.9,104.3,57.3,106.8,55L106.8,55z M220.4,32.2
						c3.7-5.6,12.1-2.4,16.6-6.5c5.3-4.7,2.9-12.6,10.9-16c5.2-2.2,11.2,0.1,16.5,0.3c9.9,0.4,19.6-1.7,29.3,1.7
						c7.8,2.8,14.8,9.6,15,17.9c0.1,2.6-0.5,5.1-1.4,7.5C303.1,49.6,292,59,289.2,71.8c-1.7,7.6-0.8,16.9-6.9,21.7
						c-4.9,3.9-12.2,2.9-17.9,5.7c-3.9,1.9-6.7,5.5-10,8.5c-3.2,3-7.5,5.5-11.8,4.4c-3.4-0.8-5.8-3.6-7.7-6.5
						c-1.9-3-3.3-6.4-3.7-9.9c-0.9-7.5,2.8-14.6,5.4-21.7c2.6-7.1,4-15.7-0.8-21.6c-3-3.6-7.6-5.3-11.4-8.2
						C220.7,41.4,217.8,36.1,220.4,32.2L220.4,32.2z M437.5,82.3c2.4,2.3,12.5,1,14.4-1.8c1.9-2.7,2-6.3,2.1-9.6
						c0.1-3.3,0.5-7,2.8-9.3c2-2,5.1-2.8,6.3-5.3c0.8-1.8,0.4-3.9,0.6-5.8c0.6-6.9,8.3-10.6,14.9-12.8c3.1-1,6.3-2,9.5-1.7
						c3.2,0.3,6.5,2.1,7.5,5.2c1,2.9,0.1,7,2.9,8.4c7.3-6,18-7.6,26.8-4.1c5.4,2.2,10.6,6.2,16.4,5.5c8.2-1,12.4-10.6,19.8-14.5
						c5-2.6,11-2.3,16.7-1.9c6.3,0.4,12.7,0.9,19,1.3c3.5,0.2,7.2,0.5,10.6-0.4c2.3-0.6,4.5-1.7,6.8-2.5c7-2.3,15.1-0.8,20.9,3.8
						c5.8,4.6,9,12.2,8.3,19.5c-0.2,2-0.6,4-0.2,5.9c1.1,4.8,7.3,7.6,7.1,12.5c-0.2,6-9.2,7.2-12.5,12.3c-2.1,3.4-1.4,7.7-1.6,11.7
						c-0.3,4-2.8,8.7-6.8,8.2c-3.2-0.4-5.1-4.2-4.7-7.4c0.3-3.2,2.1-6.1,3.4-9.1c1.3-3,2-6.6,0.2-9.4c-1.4-2.2-4.4-3.3-6.9-2.6
						c-2.5,0.7-4.4,3.3-4.4,5.9c0,1,0.2,1.9,0.1,2.9c-0.3,1.5-1.1,3-2.6,3c-5.7,4.6-13.3,6.3-19.4,10.4c-6.2,4-10.9,12.3-7.1,18.6
						c3.1,5.1,10.3,6.1,14.5,10.4c2.3,2.4,3.6,5.6,4.3,8.9c3.6,17.3-11.1,36.1-28.8,36.8c-1.4,0.1-2.8,0-4,0.6
						c-4.7,2-3.5,8.9-1.1,13.4c2.8,5.2,6.3,10.3,7.5,16.1c1.2,5.8-0.6,12.8-5.9,15.5c-4.4,2.2-9.8,0.8-14.7,1.7
						c-4.9,0.8-9.7,6.7-6.4,10.3c3.7,2.1,7.3,5.2,8.1,9.4c0.7,4.2-3,9.1-7.1,8.1c-4.2-1-6.2-6.9-10.5-7c-3.1,2.4-1,7.3,1.2,10.6
						c2.2,3.3,3.8,8.6,0.3,10.4c-6.4-8.1-10-18.3-10-28.6c-2,0.3-4.1,0.6-6.1,0.9c-3.8-2.6-4.4-7.7-6.2-11.9
						c-1.8-4.2-7.2-8-10.6-4.9c-2.7,2.5-1.5,7.2-3.8,10c-1.8,2.2-5.2,2.5-7.3,4.5c-2.6,2.6-2.2,6.8-2.5,10.4
						c-0.3,3.7-2.8,8.1-6.4,7.3c-3.5-12.3-10.5-23.6-19.9-32.2c-1.1-1-2.2-1.9-3.4-2.6c-1.8-0.9-3.9-1.2-5.9-1.6
						c-8.1-1.4-16.1-3.9-23.6-7.3c-4.2-1.9-9.8-3.9-12.9-0.5c4.5,5.2,10.4,10.5,17.3,9.7c1.1-0.1,2.3-0.4,3.4-0.2
						c2.9,0.5,4.4,4.1,3.6,7c-0.8,2.8-3.1,4.9-5.5,6.7c-7.4,5.5-16.1,9.3-25.2,11c-4.4-9.4-9.5-18.5-15.2-27.3
						c-1.6-2.5-5.7-4.7-6.7-2c-0.4,1,0.1,2.1,0.6,3.1c3.5,7.4,7,14.7,10.6,22.1c1.2,2.4,2.4,5,4.4,6.8c5.7,5.4,14.9,3.4,22.3,1
						c-1.4,9.9-7,19.2-15.1,25.2c-5.4,3.9-12.5,7.4-13.4,14.1c-0.5,4.1,1.7,8,3.2,11.9c1.5,3.9,2.2,8.8-0.8,11.7
						c-1.3,1.3-3.2,2-4.9,2.8c-6.2,3.1-10.5,9.8-10.7,16.8c-0.1,2.3,0.3,4.7-0.2,7c-1.7,8-12.1,10.5-20.3,9.9
						c-1.6-0.1-3.3-0.3-4.6-1.2c-2.9-1.9-2.9-6.1-3.5-9.5c-2.3-12.7-17.1-22.9-13.5-35.3c0.8-2.7,2.4-5.2,2.5-8.1
						c0.1-5.5-5.4-9.1-8.3-13.7c-2.7-4.3-3.3-9.8-1.4-14.5c-1.7,2-5,1.2-7-0.5c-2-1.6-3.5-4-5.9-4.9c-2.4-1-5.1-0.4-7.7-0.1
						c-11.3,1.4-23.5-2.9-30.4-11.9c-6.9-9.1-7.5-22.8-0.4-31.7c6.5-8.2,18.3-11.7,23-21c7.5,5.2,16.7-4.1,25.8-5.2
						c2.1-0.2,4.5,0.2,5.6,2c0.8,1.3,0.6,2.9,1,4.3c1.1,5.4,7.9,7.5,13.3,6.9c5.5-0.6,10.8-3,16.2-2.4c5,0.5,9.5,3.3,14.5,3.5
						c5,0.2,10.6-4.9,8.1-9.2c-3.6-6.1-15.2,0.7-19.6-4.9c-1.5-1.9-1.4-4.7-2.5-6.9c-1.1-2.2-4.7-3.5-5.7-1.3c1.8,2.7,0.1,7-3.1,7.7
						c-2-9.4-9.5-17.4-18.7-20.1c-1.5,2.4,0.1,5.5,2.1,7.6c2,2,4.4,4,4.8,6.8c0.4,2.8-3.5,5.7-5.2,3.4c-0.6-6.1-4.4-11.8-9.8-14.7
						c-1.3,2.1-4.2,2.1-6.5,2.6c-4.2,1-7.7,4.3-8.8,8.5c-0.5,1.8-0.6,3.9-1.8,5.4c-1.2,1.6-3.4,2.1-5.4,2.3
						c-5,0.4-10.5-1.3-13.2-5.5c-2.7-4.2-1-11,3.9-12.3c2.8-0.7,5.7,0.4,8.6,0.6c2.9,0.2,6.5-1.3,6.5-4.2c0-4.8-9.1-5.3-9.3-10.1
						c6.5-1.8,12.9-4.1,19.1-7c-0.2-4.4,4.6-7.6,9.1-8c4.4-0.4,8.9,0.9,13.3,0.6c4.4-0.3,9.4-3.2,9.4-7.7c0-2.3-1.2-4.8,0.2-6.7
						c2.3-3.1,9.4-0.6,9.9-4.4c0.5-3.6-5.4-2.9-8.9-3.8c-3.4-0.9-5.3-5.3-3.6-8.3c0.9-1.6,2.5-2.8,3.3-4.4c0.8-1.7,0.2-4.3-1.6-4.4
						c-8.1,1.2-12.2,11.1-10.9,19.2c0.4,2.7,1.3,5.5,0.7,8.1c-0.6,2.7-3.5,5.1-6,4c-2.2-0.9-2.8-3.8-4.5-5.5
						c-2.2-2.2-5.9-2.2-8.2-4.4c-2.7-2.7-1.8-7.5,0.5-10.6c2.2-3.1,5.5-5.5,7.4-8.8c3.1-5.3,2.6-12.2,5.7-17.5
						c3.7-6.2,11.8-8.6,19-7.6c7.1,1,13.6,4.6,19.8,8.2c3.4,2,7.3,6.2,4.7,9.1c-3,3.3-9.4-1.2-12.6,1.8c0.2,4.8,5.9,7.8,10.6,7
						c4.7-0.8,8.6-4.1,12.1-7.3c4.8-4.3,9.5-8.5,14.3-12.8C425.4,82.2,432.9,77.8,437.5,82.3L437.5,82.3z M561.4,273.7
						c-6.6-9.6,14.6-11.8,20.4-10.7c3.6,0.7,4.7,0.5,3.9,4.1c-0.4,1.8-6.6,10.3-8.4,11.6c-2.7,1.8-6.3,0.8-9.3-0.4
						C565.5,277.2,562.9,275.9,561.4,273.7L561.4,273.7z M540.5,272.5c-2-3.7-4.9-7.5-6.6-11c6.4-3,16.5,9.6,19.1,14.6
						c0.9,1.7,1.7,3.6,2.7,5.2c2.6,3.9,7,6.2,11.4,7.8c4.4,1.5,9.1,2.5,13.4,4.3c1.6,0.7,3.3,2.5,2.1,3.7
						C565.6,297.3,548.7,287.4,540.5,272.5L540.5,272.5z M585.2,307.4c4.8-5.3,13.5-10.6,21-9.6c6.1,0.8,10.6,9,16.1,8.8
						c-1.9-8.3,5.1-7.7,8.6-1.8c1.7,2.9,2.2,6.4,2.7,9.8c8.5,6.5,17.8,15,16.6,25.5c-0.6,5.5-4.1,10.1-7.5,14.5
						c-2.5,3.3-5.1,6.6-7.6,9.9c-1.2,1.6-2.5,3.3-4.2,4.4c-5.1,3.2-12.2,0.2-15.5-4.8c-3.7-5.7-4.3-14-10.2-17.3
						c-5.6-3-12.4,0.2-18,3.3c-5.6,3-12.8,5.8-17.9,2c-1.1-0.8-2.1-2-2.1-3.4c0-1.1,0.6-2.2,1-3.3c2.1-5.3-0.5-11.2-1.8-16.8
						c-1.3-5.6,0-13.1,5.6-14.4c1.9-0.4,3.9,0,5.8-0.5C581,312.8,583,309.8,585.2,307.4L585.2,307.4z M619.6,149.9
						c2.1-4.4,2-15.6,6.6-17.9c7.5-3.8,6.5,5.6,6.6,10.1c0.1,3.3,0.1,6.6-1.2,9.6c-1,2.2-2.6,4-4,5.8c-3.4,4.4-6.2,9.3-8.1,14.5
						c-2,5.4-3.9,11.9-9.3,13.7c-2.5-8.3-1.5-17.5,2.7-25.1C614.9,157.1,617.7,153.8,619.6,149.9z M588.5,220c1-0.8,6.8-5.2,7.2-2.1
						c0.1,0.8-0.3,1.6-0.7,2.3c-1,1.9-1.9,4-2.5,6.1c-0.6,2.2-1.2,4.6-3,6c-0.1,0.1-0.3,0.2-0.5,0.2c-0.3,0-0.5-0.4-0.6-0.7l-2.1-5
						c-0.3-0.7-0.6-1.5-0.6-2.3C585.6,222.6,587,221.1,588.5,220L588.5,220z"/>
					<g class="st3">
						<path class="st7" d="M206.8,259.3c-4.7-5.6-11.6-8.8-18.2-11.9c-2.5-1.2-5.3-2.3-7.9-1.5c-1,0.3-2,1-3,1.2
							c-2.9,0.6-5.3-2.2-7.9-3.6c-5.4-2.9-13.3,1.3-13.8,7.5c-2.8,1-8,0.1-9.6-2.4c-1.2-1.8-1.6-4.3-3.6-5.2c-1.1-0.4-2.4-0.3-3.2-1
							c-1.4-1.3-0.3-3.5-0.1-5.4c0.4-3-1.8-5.9-4.6-7.2c-2.7-1.3-5.9-1.4-8.9-1.5c-3-0.1-6.2-0.2-8.9-1.6c-5.3-2.6-7.4-9.8-5.1-15.2
							c2.3-5.4,8.4-8.8,14.3-8.6c5.8,0.2,11.9,4.4,12,10.2c0,1.5,2.4,1.6,3.6,0.9c1.3-0.7,1.9-2.2,2.3-3.6c0.3-1.4,0.4-2.9,0.8-4.3
							c1-3.2,4.3-5.6,7.7-5.6c3.5,0,6-3.5,8.5-6c2.5-2.5,4-6.3,3-9.7c-0.5-1.8-1.8-3.7-1.1-5.5c0.5-1.4,1.9-2.2,3.3-2.8
							c3.8-1.6,8-2.4,12.1-2.2c3.6,0.2,5.5-2.1,7.3-5.2c1.3-2.2,1.9-5.1,4-6.6c3.2-2.3,7.6-0.3,11.5-0.5c5.7-0.4,10.1-6.8,8.5-12.2
							c-0.8-2.6-2.6-4.7-4.1-7c-2-3.1-3.5-6.7-4.2-10.3c-0.7-3.4-0.9-7.1-3.1-9.7c-3.5,0.2-7.7,0.1-10.8,1.7
							c-0.6-3.5-1.3-7.2-3.5-10.1c-2.2-2.8-6.4-4.5-9.5-2.7c-3,1.8-3.7,5.9-3.1,9.4c0.6,3.5,2,6.8,1.9,10.3c-0.1,3.5-2.5,7.4-6,7.3
							c-1.8,0-3.5-1.2-4.7-2.5c-1.8-1.9-3.3-4.2-5.7-5.3c-1.8-0.9-3.9-0.8-5.8-1.3c-6.7-1.5-11.2-9.1-9.4-15.7s9.7-10.7,16.2-8.6
							c7.8-2.9,11-12.7,7.9-20.5c-3.1-7.7-11.5-12.5-19.9-12.9c-2.4-0.1-4.9,0.1-7.3-0.5c-6.7-1.7-10.2-9-16-12.7
							c-3.8-2.4-12.7-0.1-16.9-1.7"/>
						<path class="st7" d="M87.1,59c-3.5-3.4-7.7-6.5-12-8.7c-2.9-1.5-6.3-3-7.1-6.1c-1.4-5-9.9-7-15-5.8
							c-6.4-1.7-13.7,0.5-18.8,4.7c-2.3,1.8,0.3,6.4,2.2,8.6c2,2.2,4.4,4.6,3.9,7.5c-2.4,1.2-5.6,1.3-8.2,1.2
							c-1.6-0.1-3.2-0.4-4.7,0.1c-1.5,0.5-2.8,2.1-2.2,3.5c-1,1.8-2.3,2.7-1.1,4.4c0.9,1.3,2.5,2.4,2.5,4c0,1.3-1.1,2.3-2.2,2.9
							c-1.1,0.6-2.4,0.9-3.5,1.5c-3.4,2.1-3.4,7-3,10.9c2.2,2.7,2.5,7.3,1.5,10.6c-0.4,1.3-1,2.6-0.6,3.8c0.5,1.4,2.2,2,3.6,2.3
							c3.1,0.8,6.8,1.5,9.3-0.5c6.5-5.4,16.7-2.6,24.9-0.7c2.9,0.6,5.9,1.7,7.5,4.1c2.2,3.2,1.3,7.7-0.6,11.1
							c-1.8,3.4-4.5,6.5-5.6,10.2c-1.1,3.5-0.8,7.2-0.5,10.9c0.4,4.5,0.9,9.2,3.5,12.9c2.7,3.9,4.4,9.6,4.2,14.3
							c-0.2,3.8-1.5,7.5-1.2,11.3c0.6,6.8,6.5,12,12.6,15.3c6.3,3.4,11.8,9.3,13.9,16.2c1.1,3.4,1.4,7.1,2.4,10.6
							c1.7,6,5.3,11.5,10.2,15.4c3.6,2.8,9.4,3.8,13.9,4.7c2.3,0.4,4.8,0.8,6.6,2.3c0.8,0.7,1.4,1.7,2.2,2.4
							c3.7,3.7,10.6,2.2,14.4,5.8c1,0.9,1.6,2.2,2.5,3.2c2.3,2.8,6.1,4.4,9.7,4.1c-0.9,2.8,2.5,6.1,1.5,8.8
							c-0.8,2.2-3.3,3.2-5.1,4.7c-3,2.8-3.5,7.5-2.2,11.3c1.3,3.9,4,7.1,6.7,10.1c5.1,5.6,11.1,8.3,16.6,13.5
							c5.1,4.8,6.2,12.6,5.1,19.5c-1.1,6.9-4.1,13.3-6.3,20c-4,12.4-5,26.1-1.2,38.6c3.9,12.5,12.9,23.6,25,28.5
							c1.3,0.5,3-0.4,4-1.5c1-1.1,1.2-2.8,0.5-4c-2.2-4-6.1-7.5-8.9-11.1c-0.9-1.1-1.8-2.4-1.7-3.8c0.1-1.6,1.5-2.8,2.5-4
							c1.6-1.9,2.4-4.4,2.3-6.8c-0.1-2.3-1.4-4.6-1.3-6.9c0.1-2.3,1.3-4.7,3.5-5.5c1-0.3,2.1-0.3,3.1-0.7c3.2-1.4,2.7-6.2,4.9-8.8
							c1.1-1.2,2.6-1.8,4.1-2.5c6.1-2.9,11.1-8.8,11.7-15.5c0.4-5.4-1.5-12,2.6-15.5c3.8-3.2,9.6-1.1,14.5-1.9c2-0.3,3.3-2.2,4.3-4
							c0.9-1.8,1-3.9,0.7-5.9c-0.4-2.5-1.5-4.9-1.2-7.3c0.3-3.5,3.1-6.2,5.2-9c2.5-3.3,4.3-7.1,5.2-11.2c1.1-4.6-1.9-10.1-6-12.3
							c-4.1-2.3-9.1-2.4-13.8-2.5"/>
						<path class="st7" d="M273.1,94.5c6.1-4.9,5.2-14.1,6.9-21.8c2.8-12.8,13.9-22.3,18.2-34.6c0.8-2.4,1.4-5,1.4-7.5
							c-0.2-8.3-7.2-15.2-15-17.9c-9.6-3.4-19.4-1.3-29.3-1.7c-5.4-0.2-11.3-2.5-16.5-0.3c-8,3.4-5.7,11.3-10.9,16
							c-4.6,4.1-13,0.9-16.6,6.5c-2.6,3.9,0.3,9.3,4.1,12.1c3.7,2.8,8.4,4.5,11.4,8.2c4.8,5.9,3.4,14.5,0.8,21.6
							c-2.6,7.1-6.3,14.2-5.4,21.7c0.4,3.5,1.9,6.9,3.7,9.9c1.8,2.9,4.3,5.7,7.7,6.5c4.3,1,8.6-1.5,11.8-4.4c3.2-3,6-6.5,10-8.5"/>
						<path class="st7" d="M564,190.3c-2.4-4.5-3.6-11.4,1.1-13.4c1.3-0.5,2.7-0.5,4-0.6c17.7-0.7,32.4-19.5,28.8-36.9
							c-0.7-3.3-1.9-6.5-4.3-8.9c-4.2-4.3-11.4-5.3-14.5-10.4c-3.8-6.3,0.9-14.6,7.1-18.6c6.2-4,13.7-5.8,19.4-10.4
							c1.5,0,2.4-1.5,2.6-3c0.2-0.9-0.1-1.9-0.1-2.9c0-2.6,1.9-5.2,4.4-5.9c2.5-0.7,5.5,0.4,6.9,2.6c1.7,2.8,1,6.4-0.2,9.4
							c-1.3,3-3.1,5.9-3.4,9.1c-0.3,3.2,1.5,7.1,4.7,7.4c4,0.4,6.5-4.3,6.8-8.2c0.3-4-0.5-8.3,1.6-11.7c3.2-5.1,12.2-6.3,12.5-12.4
							c0.2-4.9-6-7.8-7.1-12.5c-0.4-1.9,0-3.9,0.2-5.9c0.7-7.3-2.6-14.9-8.3-19.5c-5.8-4.6-13.9-6.1-20.9-3.8
							c-2.3,0.7-4.4,1.9-6.8,2.5c-3.4,0.9-7,0.7-10.6,0.4c-6.3-0.4-12.7-0.9-19-1.3c-5.7-0.4-11.7-0.7-16.7,1.9
							c-7.3,3.9-11.5,13.5-19.8,14.5"/>
						<path class="st7" d="M516.1,46.4c-8.8-3.5-19.4-1.8-26.8,4.1c-2.8-1.4-1.9-5.5-2.9-8.5c-1-3.1-4.3-4.9-7.5-5.2
							c-3.2-0.3-6.4,0.7-9.5,1.7c-6.6,2.2-14.3,5.9-14.9,12.8c-0.2,2,0.3,4-0.6,5.8c-1.2,2.5-4.3,3.4-6.3,5.4
							c-2.4,2.4-2.7,6-2.8,9.3c-0.1,3.3-0.1,6.9-2.1,9.6c-1.9,2.7-12.1,4.1-14.4,1.8c-4.6-4.5-12.1-0.1-16.9,4.1
							c-4.8,4.3-9.5,8.5-14.3,12.8c-3.6,3.2-7.4,6.5-12.1,7.3c-4.7,0.8-10.4-2.2-10.6-7c3.2-3,9.7,1.5,12.6-1.8
							c2.6-2.9-1.3-7.2-4.7-9.1c-6.2-3.6-12.7-7.3-19.8-8.3c-7.1-1-15.2,1.4-19,7.6c-3.2,5.3-2.6,12.2-5.7,17.5
							c-2,3.3-5.2,5.7-7.4,8.8c-2.2,3.2-3.2,7.9-0.5,10.6c2.2,2.2,6,2.2,8.2,4.4c1.7,1.7,2.3,4.6,4.5,5.5c2.5,1.1,5.4-1.4,6-4
							c0.6-2.7-0.2-5.4-0.7-8.1c-1.3-8.1,2.8-18.1,10.9-19.2c1.8,0.1,2.5,2.7,1.6,4.4c-0.8,1.7-2.4,2.8-3.3,4.4
							c-1.6,3.1,0.3,7.5,3.6,8.3c3.5,0.9,9.4,0.2,8.9,3.8c-0.5,3.8-7.6,1.3-9.9,4.4c-1.4,1.8-0.2,4.4-0.2,6.7
							c-0.1,4.5-5,7.4-9.4,7.7c-4.4,0.3-8.9-1-13.3-0.6c-4.4,0.4-9.3,3.5-9.1,8c-6.1,2.9-12.5,5.2-19.1,7c0.3,4.8,9.4,5.3,9.3,10.1
							c0,2.9-3.6,4.4-6.5,4.2c-2.9-0.2-5.8-1.4-8.6-0.6c-4.8,1.3-6.5,8.1-3.9,12.3s8.2,5.9,13.2,5.5c2-0.2,4.1-0.7,5.4-2.3
							c1.2-1.5,1.3-3.6,1.8-5.4c1.1-4.1,4.7-7.5,8.8-8.5c2.4-0.5,5.2-0.6,6.5-2.6c5.4,2.9,9.2,8.6,9.8,14.7c1.7,2.2,5.6-0.6,5.2-3.5
							c-0.4-2.8-2.9-4.8-4.8-6.8c-2-2-3.6-5.2-2.1-7.6c9.2,2.7,16.7,10.7,18.7,20.1c3.2-0.6,5-5,3.1-7.7c1-2.2,4.7-1,5.7,1.3
							s1,4.9,2.5,6.9c4.4,5.6,16-1.2,19.6,4.9c2.5,4.3-3.1,9.3-8.1,9.2c-5-0.2-9.5-3-14.5-3.5c-5.5-0.5-10.8,1.8-16.2,2.4
							c-5.5,0.6-12.2-1.5-13.3-6.9c-0.3-1.4-0.2-3-1-4.3c-1.1-1.8-3.5-2.2-5.6-2c-9.1,1-18.3,10.4-25.8,5.2
							c-4.8,9.3-16.5,12.8-23,21c-7.1,8.9-6.5,22.7,0.4,31.8c6.9,9.1,19.1,13.4,30.4,11.9c2.6-0.3,5.3-0.9,7.7,0.1
							c2.4,1,3.9,3.3,5.9,5c2,1.6,5.3,2.5,7,0.5c-1.9,4.7-1.4,10.3,1.4,14.6c3,4.6,8.5,8.2,8.3,13.7c-0.1,2.8-1.7,5.4-2.5,8.1
							c-3.5,12.5,11.2,22.6,13.5,35.4c0.6,3.4,0.6,7.6,3.5,9.5c1.3,0.9,3,1.1,4.6,1.2c8.2,0.5,18.6-1.9,20.3-10
							c0.5-2.3,0.1-4.6,0.2-7c0.2-7,4.5-13.7,10.7-16.8c1.7-0.9,3.5-1.5,4.9-2.8c3-2.9,2.3-7.9,0.8-11.7c-1.5-3.9-3.7-7.8-3.2-11.9
							c0.9-6.6,8-10.1,13.4-14.1c8.1-5.9,13.7-15.3,15.1-25.2c-7.5,2.3-16.6,4.4-22.3-1c-2-1.9-3.2-4.4-4.4-6.8
							c-3.5-7.4-7-14.7-10.6-22.1c-0.5-1-0.9-2.1-0.6-3.1c1-2.7,5.1-0.5,6.7,2c5.7,8.8,10.7,17.9,15.2,27.3
							c9.1-1.7,17.8-5.4,25.2-11c2.4-1.8,4.7-3.9,5.5-6.7c0.8-2.8-0.7-6.5-3.6-7c-1.1-0.2-2.3,0.1-3.4,0.2
							c-6.9,0.7-12.8-4.5-17.3-9.8c3.1-3.4,8.7-1.4,12.9,0.5c7.5,3.5,15.5,5.9,23.6,7.3c2,0.4,4.1,0.7,5.9,1.6
							c1.3,0.7,2.4,1.6,3.4,2.6c9.4,8.7,16.4,20,19.9,32.3c3.6,0.8,6.1-3.6,6.4-7.3c0.3-3.7-0.1-7.9,2.5-10.5c2.1-2,5.5-2.3,7.3-4.5
							c2.3-2.8,1.1-7.6,3.8-10.1c3.4-3.1,8.8,0.7,10.6,4.9c1.8,4.2,2.4,9.4,6.2,11.9c2-0.3,4.1-0.6,6.1-0.9c0,10.3,3.6,20.6,10,28.6
							c3.5-1.8,1.9-7.1-0.3-10.4c-2.2-3.3-4.3-8.2-1.2-10.6c4.3,0,6.3,6,10.5,7c4.1,1,7.9-3.9,7.1-8.1c-0.7-4.2-4.4-7.3-8.1-9.4
							c-3.3-3.7,1.5-9.5,6.4-10.3c4.9-0.8,10.2,0.6,14.7-1.7c5.3-2.7,7.1-9.7,5.9-15.5"/>
						<path class="st7" d="M552.2,274.8c1.5,2.2,4.1,3.5,6.5,4.6c3,1.3,6.6,2.3,9.3,0.4c1.8-1.2,8-9.8,8.4-11.6
							c0.8-3.6-0.4-3.4-3.9-4.1C566.9,263,545.6,265.3,552.2,274.8z"/>
						<path class="st7" d="M544.4,286.8c-1.1-1.6-1.8-3.5-2.7-5.2c-2.6-5-12.8-17.6-19.1-14.6c1.7,3.5,4.5,7.3,6.6,11
							c8.2,15,25.1,24.8,42.3,24.6c1.2-1.2-0.6-3.1-2.1-3.7c-4.3-1.8-9-2.7-13.4-4.3"/>
						<path class="st7" d="M596,348c6,3.3,6.6,11.5,10.2,17.3c3.2,5,10.4,8.1,15.5,4.8c1.7-1.1,3-2.7,4.2-4.4
							c2.5-3.3,5.1-6.6,7.6-9.9c3.4-4.4,6.8-9.1,7.5-14.5c1.2-10.6-8.1-19.1-16.6-25.6c-0.4-3.4-0.9-6.9-2.7-9.8
							c-3.5-5.9-10.5-6.5-8.6,1.8c-5.5,0.2-10-8-16.1-8.8c-7.5-1-16.2,4.3-21,9.7c-2.2,2.5-4.3,5.5-7.5,6.2c-1.9,0.5-3.9,0-5.8,0.5
							c-5.6,1.3-6.9,8.8-5.6,14.4c1.3,5.6,3.9,11.5,1.8,16.8c-0.4,1.1-1,2.1-1,3.3c0,1.4,1,2.6,2.1,3.4c5.1,3.8,12.3,1.1,17.9-2"/>
						<path class="st8" d="M617.6,147.7c2.4-5,2.3-17.7,7.5-20.3c8.6-4.3,7.4,6.4,7.5,11.5c0.1,3.7,0.1,7.6-1.4,10.9
							c-1.1,2.5-2.9,4.5-4.6,6.6c-3.9,5-7,10.6-9.2,16.5c-2.3,6.1-4.4,13.5-10.6,15.6c-2.9-9.4-1.7-20,3.1-28.5
							C612.2,155.9,615.5,152.1,617.6,147.7z"/>
					</g>
				</g>
			</g>
		</g>
		<rect class="st9" width="700" height="440"/>
	</g>
</g>
<g id="_x32_">
	<g>
		<rect x="422.7" y="165.3" class="st23" width="125" height="50"/>
		<g>
			<path class="st11" d="M448.6,184.8v1.2h-12.5v-1.2h4v-2.3h-3.1v-4.8h3.1v-2h-3.7v-1.2h11.9v1.2h-3.9v2h3.2v4.8h-3.2v2.3H448.6z
				 M441.4,181.4v3.4h1.8v-3.4h3.1v-2.6h-3.1v-3.1h-1.8v3.1h-3.1v2.6H441.4z"/>
			<path class="st11" d="M452.9,179.9c-0.5-0.4-1.6-1-2.3-1.4l0.7-1c0.8,0.4,1.8,0.9,2.4,1.3L452.9,179.9z M450.8,185.7
				c0.6-1.1,1.3-2.8,1.9-4.4l1.1,0.7c-0.5,1.5-1.2,3.1-1.8,4.4L450.8,185.7z M453.4,176.3c-0.5-0.4-1.5-1.1-2.2-1.5l0.8-0.9
				c0.7,0.4,1.8,1,2.3,1.4L453.4,176.3z M457.7,177.9c0.4,1,0.8,2.2,1,3.1l-0.9,0.4c-0.1-0.8-0.5-1.9-0.8-2.8v0.3
				c0,2.7-0.2,5.5-1.9,7.8c-0.3-0.2-0.8-0.6-1.1-0.8c1.1-1.4,1.5-3,1.7-4.6l-0.9,0.3c-0.1-0.9-0.5-2.3-0.9-3.3l0.9-0.3
				c0.3,0.8,0.7,1.9,0.9,2.7c0-0.6,0-1.2,0-1.8v-4.7h1.2v4.1L457.7,177.9z M462.9,174v12.5h-1.2V181l-0.7,0.3
				c-0.2-0.7-0.6-1.8-1.1-2.6v7.5h-1.2v-12h1.2v3.7l0.6-0.3c0.4,0.8,0.9,1.7,1.2,2.5V174H462.9z"/>
			<path class="st11" d="M466,181.1c0-2.8,0.8-5,2.1-7.2l1,0.4c-1.2,2-1.8,4.4-1.8,6.7c0,2.4,0.6,4.7,1.8,6.7l-1,0.4
				C466.8,186.1,466,183.9,466,181.1z"/>
			<path class="st11" d="M482.1,174.6v11.8h-1.4v-0.9h-6.6v0.9h-1.3v-11.8H482.1z M474.1,175.9v3.4h6.6v-3.4H474.1z M480.7,184.2
				v-3.6h-6.6v3.6H480.7z"/>
			<path class="st11" d="M494.2,177.9c1,2.2,2.6,4.3,4.4,5.4c-0.3,0.3-0.8,0.8-1,1.1c-0.6-0.4-1.2-0.9-1.7-1.5v1.2h-3.1v2.5h-1.4
				v-2.5h-3.1v-1.2c-0.6,0.6-1.1,1.1-1.7,1.6c-0.2-0.3-0.6-0.8-1-1.1c1.8-1.1,3.3-3.2,4.3-5.5h-3.9v-1.3h5.4v-2.8h1.4v2.8h5.4v1.3
				H494.2z M491.4,182.8v-4.9h-0.2c-0.7,1.8-1.7,3.6-2.9,4.9H491.4z M495.8,182.8c-1.2-1.3-2.2-3.1-2.8-4.9h-0.2v4.9H495.8z"/>
			<path class="st11" d="M506.3,182.6c-1.9,0.9-4,1.8-5.5,2.4l-0.5-1.4c0.5-0.2,1.2-0.4,1.9-0.7l-0.3-8.4l1.4-0.1l0.2,7.9
				c0.8-0.3,1.6-0.7,2.5-1L506.3,182.6z M512.3,186.6c-0.6-0.9-1.8-2.3-2.9-3.5c-1.1,1.6-2.5,2.7-4.6,3.6c-0.2-0.3-0.7-0.9-1.1-1.1
				c4.7-1.7,6.1-5.1,6.7-11l1.4,0.1c-0.3,2.9-0.8,5.3-1.8,7.2c1.2,1.2,2.6,2.7,3.3,3.7L512.3,186.6z M507,179.4
				c-0.4-1-1.3-2.4-2.1-3.4l1.2-0.6c0.9,1,1.8,2.4,2.2,3.3L507,179.4z"/>
			<path class="st11" d="M521.1,175.8l0.9,0.3c-0.7,5.5-2.8,8.9-5.8,10.5c-0.2-0.3-0.7-0.9-1.1-1.1c1.6-0.8,2.9-2,3.9-3.8
				c-0.5-0.6-1.3-1.5-2.1-2.2c-0.3,0.4-0.5,0.8-0.8,1.2c-0.2-0.2-0.8-0.6-1.1-0.8c1.3-1.4,2.1-3.7,2.6-6.1l1.3,0.2
				c-0.1,0.6-0.3,1.2-0.5,1.8h2.4L521.1,175.8z M518,177c-0.2,0.5-0.3,0.9-0.5,1.3c0.7,0.6,1.5,1.4,2.1,2c0.4-1,0.7-2.1,0.9-3.3H518
				z M524.8,177.9c1.1,0.9,2.6,2.3,3.3,3.2L527,182c-0.6-0.8-1.7-1.9-2.7-2.8v7.4h-1.4v-12.8h1.4v4.5L524.8,177.9z"/>
			<path class="st11" d="M529.9,187.8c1.2-2,1.8-4.4,1.8-6.7c0-2.3-0.6-4.7-1.8-6.7l1-0.4c1.3,2.1,2.1,4.4,2.1,7.2
				c0,2.8-0.8,5-2.1,7.2L529.9,187.8z"/>
		</g>
		<g>
			<path class="st11" d="M474.6,205.4v-7.7l-1.8,1l-1-1.9l3-1.7h2.1v10.3H474.6z"/>
			<path class="st11" d="M482.2,194.9c0.7,0,1.3,0.1,1.7,0.2c0.4,0.2,0.8,0.4,1,0.7c0.2,0.3,0.4,0.6,0.5,1c0.1,0.4,0.1,0.8,0.1,1.2
				v3.9c0,0.7-0.1,1.3-0.4,1.8s-0.6,0.8-1,1.1c-0.4,0.3-0.9,0.5-1.6,0.6c-0.6,0.1-1.3,0.2-2,0.2c-0.3,0-0.5,0-0.8,0
				c-0.3,0-0.5-0.1-0.7-0.1l0.1-1.9c0.2,0,0.3,0,0.5,0.1c0.2,0,0.4,0,0.6,0c1,0,1.8-0.1,2.2-0.4c0.5-0.2,0.7-0.7,0.7-1.4v-0.8
				c-0.3,0.1-0.6,0.1-0.8,0.2s-0.6,0.1-0.9,0.1c-0.9,0-1.6-0.2-2-0.6c-0.5-0.4-0.7-1.1-0.7-2.1v-0.7c0-0.4,0-0.8,0.1-1.2
				c0.1-0.4,0.3-0.7,0.5-1c0.3-0.3,0.6-0.5,1-0.7C480.9,194.9,481.5,194.9,482.2,194.9z M482.2,196.8c-0.4,0-0.7,0.1-0.9,0.2
				s-0.2,0.4-0.2,0.8v0.7c0,0.3,0.1,0.5,0.2,0.6c0.2,0.1,0.3,0.2,0.6,0.2c0.3,0,0.5,0,0.7-0.1c0.2-0.1,0.4-0.1,0.6-0.2v-1.2
				c0-0.4-0.1-0.6-0.2-0.8C482.9,196.9,482.6,196.8,482.2,196.8z"/>
			<path class="st11" d="M492.2,198c0,0.3,0,0.6-0.1,0.9c-0.1,0.3-0.2,0.5-0.4,0.7c-0.2,0.2-0.5,0.4-0.8,0.5
				c-0.3,0.1-0.7,0.2-1.2,0.2s-0.9-0.1-1.2-0.2c-0.3-0.1-0.6-0.3-0.8-0.5c-0.2-0.2-0.3-0.5-0.4-0.7c-0.1-0.3-0.1-0.6-0.1-0.9v-1.2
				c0-0.3,0-0.6,0.1-0.9s0.2-0.5,0.4-0.7s0.5-0.4,0.8-0.5c0.3-0.1,0.7-0.2,1.2-0.2s0.9,0.1,1.2,0.2c0.3,0.1,0.6,0.3,0.8,0.5
				c0.2,0.2,0.3,0.5,0.4,0.7s0.1,0.6,0.1,0.9V198z M490.5,196.7c0-0.2-0.1-0.4-0.2-0.5c-0.1-0.1-0.3-0.1-0.6-0.1s-0.5,0-0.6,0.1
				c-0.1,0.1-0.2,0.3-0.2,0.5v1.4c0,0.2,0.1,0.4,0.2,0.5c0.1,0.1,0.3,0.1,0.6,0.1s0.5,0,0.6-0.1c0.1-0.1,0.2-0.3,0.2-0.5V196.7z
				 M494.9,194.5l1.4,0.6l-4.3,10.4l-1.4-0.6L494.9,194.5z M499.8,203.2c0,0.3,0,0.6-0.1,0.9c-0.1,0.3-0.2,0.5-0.4,0.7
				c-0.2,0.2-0.5,0.4-0.8,0.5s-0.7,0.2-1.2,0.2c-0.5,0-0.9-0.1-1.2-0.2c-0.3-0.1-0.6-0.3-0.8-0.5s-0.3-0.5-0.4-0.7
				c-0.1-0.3-0.1-0.6-0.1-0.9V202c0-0.3,0-0.6,0.1-0.9c0.1-0.3,0.2-0.5,0.4-0.7s0.5-0.4,0.8-0.5c0.3-0.1,0.7-0.2,1.2-0.2
				c0.5,0,0.9,0.1,1.2,0.2c0.3,0.1,0.6,0.3,0.8,0.5c0.2,0.2,0.3,0.5,0.4,0.7c0.1,0.3,0.1,0.6,0.1,0.9V203.2z M498.1,201.9
				c0-0.2-0.1-0.4-0.2-0.5c-0.1-0.1-0.3-0.1-0.6-0.1s-0.5,0-0.6,0.1c-0.1,0.1-0.2,0.3-0.2,0.5v1.4c0,0.2,0.1,0.4,0.2,0.5
				s0.3,0.1,0.6,0.1s0.5,0,0.6-0.1c0.1-0.1,0.2-0.3,0.2-0.5V201.9z"/>
		</g>
		<g id="XMLID_4_">
			<g>
				<ellipse class="st28" cx="485.4" cy="126.3" rx="4.9" ry="4.9"/>
				<path class="st39" d="M494.6,129.1c0.2-0.8,0.4-1.7,0.4-2.6c0-5.4-4.4-9.8-9.8-9.8s-9.8,4.4-9.8,9.8s4.4,9.8,9.8,9.8
					c2.2,0,4.3-0.8,5.9-2"/>
				<path class="st30" d="M485.5,136.7V165"/>
			</g>
		</g>
		<rect x="397.7" y="366.4" class="st23" width="100" height="50"/>
		<g>
			<path class="st11" d="M423.6,387.7c-1.2,0.8-3.1,1.5-4.6,2c-0.2-0.3-0.6-0.7-0.9-1c1.5-0.4,3.4-1.2,4.3-1.9L423.6,387.7z
				 M430.7,386.7h-12.4v-1.2h2.5v-6h-2.1v-1.2h2.1v-1.5h1.3v1.5h4.8v-1.5h1.3v1.5h2.1v1.2h-2.1v6h2.5V386.7z M422.1,379.6v1.2h4.8
				v-1.2H422.1z M422.1,383.1h4.8v-1.3h-4.8V383.1z M422.1,385.5h4.8v-1.3h-4.8V385.5z M426.3,386.9c1.6,0.5,3.4,1.3,4.4,1.9
				l-1.2,0.9c-1-0.6-2.6-1.3-4.2-1.9L426.3,386.9z"/>
			<path class="st11" d="M437.1,377.3c-0.4,1-0.9,2.1-1.4,3v9.4h-1.2v-7.5c-0.4,0.5-0.8,1-1.2,1.4c-0.1-0.3-0.5-1-0.7-1.3
				c1.3-1.3,2.6-3.3,3.3-5.4L437.1,377.3z M443.4,388.4c0.8,0,1-0.4,1.1-2c0.3,0.2,0.8,0.4,1.2,0.5c-0.2,2-0.6,2.6-2.2,2.6h-3.4
				c-1.8,0-2.3-0.4-2.3-2.2v-4.3l-1.2,0.5l-0.5-1.1l1.8-0.7v-3.5h1.2v3l1.8-0.7v-3.7h1.2v3.3l2.1-0.8l0.2-0.1l1,0.3l0,0.2
				c-0.1,2-0.2,4.6-0.5,6.3l-1.1-0.3c0.2-1.2,0.2-3.2,0.3-5l-1.9,0.8v5h-1.2V382l-1.8,0.7v4.8c0,0.8,0.2,1,1.1,1H443.4z"/>
			<path class="st11" d="M451.9,384.3l0.3,1.1c-1.5,0.7-3,1.4-4.3,2l-0.5-1.3c0.5-0.2,1.1-0.4,1.9-0.7v-4h-1.6v-1.2h1.6V377h1.2v3.1
				h1.4v1.2h-1.4v3.5L451.9,384.3z M458.2,388.2c0.8,0,0.9-0.4,1-1.9c0.3,0.2,0.8,0.4,1.1,0.5c-0.2,1.9-0.6,2.6-2.1,2.6h-3.2
				c-1.7,0-2.2-0.4-2.2-2.1v-4l-1,0.4l-0.5-1.2l1.5-0.6v-3.7h1.2v3.2l1.6-0.7v-3.9h1.2v3.3l1.9-0.8l1,0.3l-0.1,0.2
				c-0.1,1.9-0.3,4.5-0.7,6.1l-1.1-0.3c0.2-1.2,0.4-3.2,0.4-4.9l-1.5,0.6v5h-1.2V382l-1.6,0.7v4.6c0,0.8,0.2,0.9,1.1,0.9H458.2z"/>
			<path class="st11" d="M472.3,387.9c0.8,0,1.9-0.1,2.4-0.2c0,0.3,0.1,0.9,0.2,1.2c-0.4,0.1-1.6,0.1-2.7,0.1h-5.9
				c-2.3,0-3.3-0.7-3.3-3v-7.6h-0.6v-1.1h11.8v1.1h-9.9v7.7c0,1.2,0.5,1.7,1.9,1.7H472.3z M465.2,383.4h3.7v3.7h-3.7V383.4z
				 M466.3,386.1h1.5v-1.8h-1.5V386.1z M472,382.6h-5.3v-3.2h5.3V382.6z M470.7,380.3h-2.8v1.4h2.8V380.3z M473.6,387h-3.8v-3.7h3.8
				V387z M472.4,384.3h-1.6v1.8h1.6V384.3z"/>
		</g>
		<g>
			<path class="st11" d="M439.1,400.2c0.5,0,0.9-0.1,1-0.2s0.3-0.4,0.3-0.8v-0.7c0-0.3-0.1-0.5-0.3-0.7s-0.5-0.2-1-0.2
				c-0.4,0-0.7,0-1.1,0.1c-0.4,0-0.7,0.1-1.1,0.2l-0.2-1.8c0.5-0.1,0.9-0.2,1.3-0.2s0.9-0.1,1.3-0.1c0.7,0,1.2,0.1,1.7,0.2
				s0.8,0.3,1,0.4s0.4,0.4,0.5,0.8c0.1,0.3,0.2,0.7,0.2,1v0.8c0,0.5-0.1,0.9-0.3,1.2c-0.2,0.4-0.4,0.6-0.8,0.9
				c0.4,0.2,0.8,0.5,1,0.8c0.2,0.3,0.3,0.7,0.3,1.2v0.8c0,0.4-0.1,0.8-0.2,1.1c-0.1,0.3-0.3,0.6-0.6,0.8c-0.3,0.2-0.6,0.4-1.1,0.5
				c-0.5,0.1-1.1,0.2-1.8,0.2c-0.5,0-0.9,0-1.4-0.1c-0.4,0-0.8-0.1-1.3-0.3l0.2-1.8c0.4,0.1,0.8,0.1,1.1,0.2s0.7,0,1.2,0
				c0.6,0,0.9-0.1,1.1-0.2s0.3-0.3,0.3-0.7V403c0-0.6-0.4-0.8-1.2-0.8h-2.1v-2H439.1z"/>
			<path class="st11" d="M449.6,399c0,0.3,0,0.6-0.1,0.9s-0.2,0.5-0.4,0.7c-0.2,0.2-0.5,0.4-0.8,0.5c-0.3,0.1-0.7,0.2-1.2,0.2
				c-0.5,0-0.9-0.1-1.2-0.2c-0.3-0.1-0.6-0.3-0.8-0.5c-0.2-0.2-0.3-0.5-0.4-0.7s-0.1-0.6-0.1-0.9v-1.2c0-0.3,0-0.6,0.1-0.9
				c0.1-0.3,0.2-0.5,0.4-0.7s0.5-0.4,0.8-0.5c0.3-0.1,0.7-0.2,1.2-0.2c0.5,0,0.9,0.1,1.2,0.2c0.3,0.1,0.6,0.3,0.8,0.5
				c0.2,0.2,0.3,0.5,0.4,0.7c0.1,0.3,0.1,0.6,0.1,0.9V399z M447.8,397.7c0-0.2-0.1-0.4-0.2-0.5c-0.1-0.1-0.3-0.1-0.6-0.1
				s-0.5,0-0.6,0.1s-0.2,0.3-0.2,0.5v1.4c0,0.2,0.1,0.4,0.2,0.5s0.3,0.1,0.6,0.1s0.5,0,0.6-0.1c0.1-0.1,0.2-0.3,0.2-0.5V397.7z
				 M452.2,395.5l1.4,0.6l-4.3,10.4l-1.4-0.6L452.2,395.5z M457.2,404.2c0,0.3,0,0.6-0.1,0.9c-0.1,0.3-0.2,0.5-0.4,0.7
				s-0.5,0.4-0.8,0.5c-0.3,0.1-0.7,0.2-1.2,0.2c-0.5,0-0.9-0.1-1.2-0.2c-0.3-0.1-0.6-0.3-0.8-0.5s-0.3-0.5-0.4-0.7
				c-0.1-0.3-0.1-0.6-0.1-0.9V403c0-0.3,0-0.6,0.1-0.9s0.2-0.5,0.4-0.7s0.5-0.4,0.8-0.5c0.3-0.1,0.7-0.2,1.2-0.2
				c0.5,0,0.9,0.1,1.2,0.2c0.3,0.1,0.6,0.3,0.8,0.5s0.3,0.5,0.4,0.7s0.1,0.6,0.1,0.9V404.2z M455.4,402.9c0-0.2-0.1-0.4-0.2-0.5
				c-0.1-0.1-0.3-0.1-0.6-0.1s-0.5,0-0.6,0.1c-0.1,0.1-0.2,0.3-0.2,0.5v1.4c0,0.2,0.1,0.4,0.2,0.5c0.1,0.1,0.3,0.1,0.6,0.1
				s0.5,0,0.6-0.1c0.1-0.1,0.2-0.3,0.2-0.5V402.9z"/>
		</g>
		<rect x="285.5" y="70.4" class="st23" width="100" height="50"/>
		<g id="XMLID_3_">
			<g>
				<ellipse class="st28" cx="335.4" cy="158" rx="4.9" ry="4.9"/>
				<path class="st39" d="M344.6,155.2c0.2,0.8,0.4,1.7,0.4,2.6c0,5.4-4.4,9.8-9.8,9.8s-9.8-4.4-9.8-9.8c0-5.4,4.4-9.8,9.8-9.8
					c2.2,0,4.3,0.8,5.9,2"/>
				<path class="st30" d="M335.5,147.6v-28.3"/>
			</g>
		</g>
		<g>
			<path class="st11" d="M328.9,84.5c0,0.3,0,0.6,0,0.9c0.4,2.7,1.2,4.4,2.7,5.8c-0.3,0.2-0.7,0.6-0.8,1c-1.1-1.1-1.8-2.3-2.3-3.9
				c-0.4,1.4-1.1,2.7-2.3,3.9c-0.1-0.3-0.4-0.6-0.7-0.8c-0.3,0-0.8,0.1-1.3,0.1h-2.9c-1.6,0-2.2-0.6-2.2-2.3v-8h-0.4v-1.1h6.8v1.1
				h-5.2v8.1c0,0.9,0.2,1.1,1,1.1h3c0.4,0,1,0,1.3-0.1c0,0.2,0,0.4,0.1,0.6c1.8-2.1,2-4.7,2-6.4v-1h1.2V84.5z M320.8,86h2.1v3.5
				h-2.1V86z M324.8,85.2h-3.6V82h3.6V85.2z M321.4,88.7h0.8v-1.9h-0.8V88.7z M323.8,82.8h-1.6v1.6h1.6V82.8z M325.5,89.5h-2.2V86
				h2.2V89.5z M324.8,86.8H324v1.9h0.8V86.8z M327.4,82.7c-0.3,1.1-0.7,2-1.2,2.7c-0.2-0.2-0.8-0.5-1.1-0.7c0.9-1.3,1.5-3.3,1.8-5.4
				l1.2,0.2c-0.1,0.7-0.2,1.3-0.4,1.9h3l0.2,0l0.8,0.3c-0.3,1.3-0.7,2.8-1,3.8l-1-0.3c0.2-0.6,0.4-1.6,0.6-2.5H327.4z"/>
			<path class="st11" d="M335.7,85.6c-0.5-0.4-1.6-1-2.3-1.4l0.7-1c0.8,0.4,1.8,0.9,2.4,1.3L335.7,85.6z M333.6,91.4
				c0.6-1.1,1.3-2.8,1.9-4.4l1.1,0.7c-0.5,1.5-1.2,3.1-1.8,4.4L333.6,91.4z M336.2,82c-0.5-0.4-1.5-1.1-2.2-1.5l0.8-0.9
				c0.7,0.4,1.8,1,2.3,1.4L336.2,82z M340.5,83.6c0.4,1,0.8,2.2,1,3.1l-0.9,0.4c-0.1-0.8-0.5-1.9-0.8-2.8v0.3c0,2.7-0.2,5.5-1.9,7.8
				c-0.3-0.2-0.8-0.6-1.1-0.8c1.1-1.4,1.5-3,1.7-4.6l-0.9,0.3c-0.1-0.9-0.5-2.3-0.9-3.3l0.9-0.3c0.4,0.8,0.7,1.9,0.9,2.7
				c0-0.6,0-1.2,0-1.8v-4.7h1.2v4.1L340.5,83.6z M345.7,79.7v12.5h-1.2v-5.5l-0.7,0.3c-0.2-0.7-0.6-1.8-1.1-2.6v7.5h-1.2v-12h1.2
				v3.7l0.6-0.3c0.4,0.8,0.9,1.7,1.2,2.5v-6.2H345.7z"/>
		</g>
		<g>
			<path class="st11" d="M322.4,110.5v-7.7l-1.8,1l-1-1.9l3-1.7h2.1v10.3H322.4z"/>
			<path class="st11" d="M331.7,106.5c-0.4,0.5-0.7,0.9-1,1.2c-0.3,0.3-0.5,0.6-0.7,0.8h3.3v2h-6.5v-2c0.3-0.3,0.5-0.5,0.7-0.7
				s0.4-0.4,0.5-0.5c0.2-0.2,0.3-0.3,0.5-0.5c0.2-0.2,0.4-0.4,0.6-0.7c0.4-0.4,0.7-0.8,0.9-1.1c0.2-0.3,0.4-0.5,0.5-0.7
				c0.1-0.2,0.2-0.4,0.2-0.6c0-0.2,0.1-0.4,0.1-0.7v-0.3c0-0.3-0.1-0.5-0.3-0.6c-0.2-0.1-0.5-0.2-1-0.2c-0.2,0-0.4,0-0.6,0
				c-0.2,0-0.5,0-0.7,0.1c-0.2,0-0.5,0.1-0.7,0.1c-0.2,0-0.4,0.1-0.6,0.1l-0.3-1.9c0.5-0.1,1-0.2,1.6-0.3c0.5-0.1,1-0.1,1.5-0.1
				c1.2,0,2.1,0.2,2.7,0.6s0.8,1,0.8,1.9v0.4c0,0.4,0,0.7,0,1c0,0.3-0.1,0.5-0.2,0.7c-0.1,0.2-0.2,0.5-0.4,0.8S332,106,331.7,106.5z
				"/>
			<path class="st11" d="M339.9,103.1c0,0.3,0,0.6-0.1,0.9c-0.1,0.3-0.2,0.5-0.4,0.7c-0.2,0.2-0.5,0.4-0.8,0.5
				c-0.3,0.1-0.7,0.2-1.2,0.2c-0.5,0-0.9-0.1-1.2-0.2c-0.3-0.1-0.6-0.3-0.8-0.5c-0.2-0.2-0.3-0.5-0.4-0.7c-0.1-0.3-0.1-0.6-0.1-0.9
				V102c0-0.3,0-0.6,0.1-0.9s0.2-0.5,0.4-0.7s0.5-0.4,0.8-0.5c0.3-0.1,0.7-0.2,1.2-0.2c0.5,0,0.9,0.1,1.2,0.2
				c0.3,0.1,0.6,0.3,0.8,0.5s0.3,0.5,0.4,0.7s0.1,0.6,0.1,0.9V103.1z M338.1,101.8c0-0.2-0.1-0.4-0.2-0.5c-0.1-0.1-0.3-0.1-0.6-0.1
				s-0.5,0-0.6,0.1c-0.1,0.1-0.2,0.3-0.2,0.5v1.4c0,0.2,0.1,0.4,0.2,0.5c0.1,0.1,0.3,0.1,0.6,0.1s0.5,0,0.6-0.1
				c0.1-0.1,0.2-0.3,0.2-0.5V101.8z M342.5,99.6l1.4,0.6l-4.3,10.4l-1.4-0.6L342.5,99.6z M347.5,108.3c0,0.3,0,0.6-0.1,0.9
				c-0.1,0.3-0.2,0.5-0.4,0.7c-0.2,0.2-0.5,0.4-0.8,0.5c-0.3,0.1-0.7,0.2-1.2,0.2s-0.9-0.1-1.2-0.2s-0.6-0.3-0.8-0.5
				s-0.3-0.5-0.4-0.7c-0.1-0.3-0.1-0.6-0.1-0.9v-1.2c0-0.3,0-0.6,0.1-0.9c0.1-0.3,0.2-0.5,0.4-0.7s0.5-0.4,0.8-0.5
				c0.3-0.1,0.7-0.2,1.2-0.2s0.9,0.1,1.2,0.2c0.3,0.1,0.6,0.3,0.8,0.5c0.2,0.2,0.3,0.5,0.4,0.7c0.1,0.3,0.1,0.6,0.1,0.9V108.3z
				 M345.7,107c0-0.2-0.1-0.4-0.2-0.5c-0.1-0.1-0.3-0.1-0.6-0.1s-0.5,0-0.6,0.1c-0.1,0.1-0.2,0.3-0.2,0.5v1.4c0,0.2,0.1,0.4,0.2,0.5
				s0.3,0.1,0.6,0.1s0.5,0,0.6-0.1s0.2-0.3,0.2-0.5V107z"/>
		</g>
		<g>
			<rect x="568.8" y="61.3" class="st23" width="100" height="50"/>
		</g>
		<g>
			<g>
				<path class="st11" d="M613.1,72v11.8h-1.4v-0.9h-6.6v0.9h-1.3V72H613.1z M605.2,73.3v3.4h6.6v-3.4H605.2z M611.8,81.6V78h-6.6
					v3.6H611.8z"/>
				<path class="st11" d="M625.3,75.2c1,2.2,2.6,4.3,4.4,5.4c-0.3,0.3-0.8,0.8-1,1.1c-0.6-0.4-1.2-0.9-1.7-1.5v1.2h-3.1v2.5h-1.4
					v-2.5h-3.1v-1.2c-0.6,0.6-1.1,1.1-1.7,1.6c-0.2-0.3-0.6-0.8-1-1.1c1.8-1.1,3.3-3.2,4.3-5.5h-3.9v-1.3h5.4v-2.8h1.4v2.8h5.4v1.3
					H625.3z M622.4,80.1v-4.9h-0.2c-0.7,1.8-1.7,3.6-2.9,4.9H622.4z M626.8,80.1c-1.2-1.3-2.2-3.1-2.8-4.9h-0.2v4.9H626.8z"/>
			</g>
			<g>
				<path class="st11" d="M611.8,97.4c-0.4,0.5-0.7,0.9-1,1.2s-0.5,0.6-0.7,0.8h3.3v2h-6.5v-2c0.3-0.3,0.5-0.5,0.7-0.7
					c0.2-0.2,0.4-0.4,0.5-0.5c0.2-0.2,0.3-0.3,0.5-0.5s0.4-0.4,0.6-0.7c0.4-0.4,0.7-0.8,0.9-1.1c0.2-0.3,0.4-0.5,0.5-0.7
					c0.1-0.2,0.2-0.4,0.2-0.6s0.1-0.4,0.1-0.7v-0.3c0-0.3-0.1-0.5-0.3-0.6c-0.2-0.1-0.5-0.2-1-0.2c-0.2,0-0.4,0-0.6,0
					c-0.2,0-0.5,0-0.7,0.1c-0.2,0-0.5,0.1-0.7,0.1c-0.2,0-0.4,0.1-0.6,0.1l-0.3-1.9c0.5-0.1,1-0.2,1.6-0.3c0.5-0.1,1-0.1,1.5-0.1
					c1.2,0,2.1,0.2,2.7,0.6c0.5,0.4,0.8,1,0.8,1.9v0.4c0,0.4,0,0.7,0,1c0,0.3-0.1,0.5-0.2,0.7s-0.2,0.5-0.4,0.8
					S612.1,96.9,611.8,97.4z"/>
				<path class="st11" d="M620,94.1c0,0.3,0,0.6-0.1,0.9s-0.2,0.5-0.4,0.7c-0.2,0.2-0.5,0.4-0.8,0.5c-0.3,0.1-0.7,0.2-1.2,0.2
					c-0.5,0-0.9-0.1-1.2-0.2c-0.3-0.1-0.6-0.3-0.8-0.5c-0.2-0.2-0.3-0.5-0.4-0.7s-0.1-0.6-0.1-0.9v-1.2c0-0.3,0-0.6,0.1-0.9
					c0.1-0.3,0.2-0.5,0.4-0.7s0.5-0.4,0.8-0.5c0.3-0.1,0.7-0.2,1.2-0.2c0.5,0,0.9,0.1,1.2,0.2c0.3,0.1,0.6,0.3,0.8,0.5
					s0.3,0.5,0.4,0.7c0.1,0.3,0.1,0.6,0.1,0.9V94.1z M618.2,92.7c0-0.2-0.1-0.4-0.2-0.5s-0.3-0.1-0.6-0.1s-0.5,0-0.6,0.1
					s-0.2,0.3-0.2,0.5v1.4c0,0.2,0.1,0.4,0.2,0.5s0.3,0.1,0.6,0.1s0.5,0,0.6-0.1s0.2-0.3,0.2-0.5V92.7z M622.6,90.6l1.4,0.6
					l-4.3,10.4l-1.4-0.6L622.6,90.6z M627.6,99.2c0,0.3,0,0.6-0.1,0.9c-0.1,0.3-0.2,0.5-0.4,0.7c-0.2,0.2-0.5,0.4-0.8,0.5
					c-0.3,0.1-0.7,0.2-1.2,0.2s-0.9-0.1-1.2-0.2s-0.6-0.3-0.8-0.5s-0.3-0.5-0.4-0.7c-0.1-0.3-0.1-0.6-0.1-0.9V98
					c0-0.3,0-0.6,0.1-0.9s0.2-0.5,0.4-0.7s0.5-0.4,0.8-0.5c0.3-0.1,0.7-0.2,1.2-0.2s0.9,0.1,1.2,0.2c0.3,0.1,0.6,0.3,0.8,0.5
					c0.2,0.2,0.3,0.5,0.4,0.7s0.1,0.6,0.1,0.9V99.2z M625.8,97.9c0-0.2-0.1-0.4-0.2-0.5c-0.1-0.1-0.3-0.1-0.6-0.1s-0.5,0-0.6,0.1
					c-0.1,0.1-0.2,0.3-0.2,0.5v1.4c0,0.2,0.1,0.4,0.2,0.5c0.1,0.1,0.3,0.1,0.6,0.1s0.5,0,0.6-0.1c0.1-0.1,0.2-0.3,0.2-0.5V97.9z"/>
			</g>
		</g>
		<g id="XMLID_2_">
			<g>
				<ellipse class="st28" cx="619.2" cy="151.2" rx="4.9" ry="4.9"/>
				<path class="st39" d="M628.5,148.4c0.2,0.8,0.4,1.7,0.4,2.6c0,5.4-4.4,9.8-9.8,9.8s-9.8-4.4-9.8-9.8c0-5.4,4.4-9.8,9.8-9.8
					c2.2,0,4.3,0.8,5.9,2"/>
				<path class="st30" d="M619.3,140.8v-28.3"/>
			</g>
		</g>
	</g>
</g>
<g id="_x33_" class="st0">
	<g class="st1">
		<rect x="47.2" y="185.3" class="st10" width="136" height="73.7"/>
		<g>
			<path class="st11" d="M103.6,211c0,0.5-0.1,1-0.2,1.5h8.8v1.7h-9.3c-1,2.9-3.4,4.7-9.2,5.7c-0.2-0.6-0.6-1.4-1-1.8
				c4.8-0.7,6.9-1.9,7.9-3.8h-7v-1.7h7.6c0.1-0.5,0.2-0.9,0.2-1.5h-8.4v-1.8h8.6v-1.6h-6.6v-1.7h6.6v-1.5h-7.9v-1.8h4.4
				c-0.4-0.7-0.9-1.6-1.5-2.3l1.8-0.7c0.7,0.8,1.5,1.9,1.8,2.7l-0.7,0.3h5.4c0.6-0.9,1.3-2.1,1.7-3l2.2,0.6
				c-0.5,0.8-1.1,1.7-1.6,2.4h4.5v1.8h-7.9v1.5h6.9v1.7h-6.9v1.6h8.9v1.8H103.6z M111.8,220c-2-1.3-5.9-3.1-8.8-4.2l0.9-1.5
				c2.9,1,6.9,2.8,8.9,4L111.8,220z"/>
			<path class="st11" d="M135.1,200.6v19.3h-2v-1h-14.4v1h-1.9v-19.3H135.1z M133.1,217.1v-14.6h-14.4v14.6H133.1z M131.4,207.7
				c-0.5,2-1.3,3.7-2.4,5.2c0.4,0.9,0.9,1.5,1.4,1.7c0.3,0.1,0.5-0.8,0.6-2.2c0.3,0.3,0.9,0.8,1.3,1c-0.3,2.5-1.2,3.4-2.5,2.9
				c-0.8-0.2-1.5-0.9-2-1.8c-0.8,0.8-1.6,1.6-2.6,2.2c-0.2-0.3-0.8-1-1.1-1.3c0.6-0.4,1.2-0.7,1.7-1.2c-2.2,0.4-4.4,0.8-6.1,1.1
				l-0.2-1.5c1.6-0.2,4-0.6,6.4-1l0,1.4c0.5-0.4,0.9-0.9,1.3-1.4c-0.5-1.7-0.9-3.8-1.1-6.1h-6.4v-1.5h6.3c0-0.7-0.1-1.4-0.1-2.1h1.7
				c0,0.7,0.1,1.4,0.1,2.1h3.1c-0.4-0.5-1.4-1.1-2.2-1.5l0.9-0.9c0.8,0.4,1.8,1,2.2,1.5l-1,1h1.3v1.5h-4.4c0.2,1.6,0.4,3.1,0.6,4.3
				c0.6-1.1,1-2.2,1.4-3.5L131.4,207.7z M125.2,207.7v4.2h-4.9v-4.2H125.2z M123.8,208.9h-2.1v1.9h2.1V208.9z"/>
		</g>
		<g id="XMLID_5_">
			<g>
				<circle class="st36" cx="114.3" cy="147" r="0.9"/>
				<path class="st37" d="M123.9,149.4c0.2-0.8,0.4-1.7,0.4-2.6c0-5.4-4.4-9.8-9.8-9.8c-5.4,0-9.8,4.4-9.8,9.8
					c0,5.4,4.4,9.8,9.8,9.8c2.2,0,4.3-0.8,5.9-2"/>
				<path class="st38" d="M114.7,157v28.3"/>
			</g>
		</g>
		<g>
			<path class="st11" d="M99.3,243.9c-1,0-1.7-0.1-2.3-0.3c-0.6-0.2-1.1-0.5-1.4-0.9c-0.3-0.4-0.6-0.8-0.7-1.4
				c-0.1-0.5-0.2-1.1-0.2-1.6v-5.4c0-1,0.2-1.8,0.5-2.5c0.3-0.6,0.8-1.2,1.4-1.5s1.3-0.6,2.1-0.8c0.8-0.2,1.7-0.2,2.8-0.2
				c0.3,0,0.7,0,1.1,0c0.4,0,0.7,0.1,1.1,0.1l-0.2,2.6c-0.2,0-0.5-0.1-0.8-0.1c-0.3,0-0.5,0-0.7,0c-0.7,0-1.4,0-1.9,0.1
				c-0.5,0.1-0.9,0.2-1.3,0.4c-0.3,0.2-0.6,0.4-0.7,0.7c-0.1,0.3-0.2,0.7-0.2,1.1v1.1c0.4-0.1,0.8-0.2,1.2-0.3
				c0.4-0.1,0.8-0.1,1.3-0.1c1.2,0,2.2,0.3,2.8,0.9c0.6,0.6,0.9,1.5,0.9,2.8v0.9c0,0.6-0.1,1.1-0.2,1.6c-0.1,0.5-0.4,1-0.7,1.4
				s-0.8,0.7-1.4,0.9C101,243.8,100.2,243.9,99.3,243.9z M99.3,241.2c0.6,0,1-0.1,1.2-0.3c0.2-0.2,0.3-0.6,0.3-1v-1
				c0-0.5-0.1-0.8-0.3-0.9c-0.2-0.1-0.5-0.2-0.8-0.2c-0.4,0-0.7,0-1,0.1c-0.3,0.1-0.6,0.2-0.9,0.3v1.7c0,0.5,0.1,0.9,0.3,1.1
				C98.3,241.1,98.7,241.2,99.3,241.2z"/>
			<path class="st11" d="M115.2,240.7v3h-3.1v-3h-6.5V238l5.4-8.4h4.2v8.6h1.8v2.6H115.2z M112.1,232.7l-3.4,5.5h3.4V232.7z"/>
			<path class="st11" d="M125.7,233.7c0,0.5-0.1,0.9-0.2,1.3c-0.1,0.4-0.3,0.7-0.6,1c-0.3,0.3-0.6,0.5-1.1,0.7
				c-0.5,0.2-1,0.2-1.7,0.2s-1.3-0.1-1.7-0.2c-0.5-0.2-0.8-0.4-1.1-0.7c-0.3-0.3-0.5-0.6-0.6-1c-0.1-0.4-0.2-0.8-0.2-1.3V232
				c0-0.5,0.1-0.9,0.2-1.3c0.1-0.4,0.3-0.7,0.6-1s0.6-0.5,1.1-0.7c0.5-0.2,1-0.2,1.7-0.2s1.3,0.1,1.7,0.2c0.5,0.2,0.8,0.4,1.1,0.7
				c0.3,0.3,0.5,0.6,0.6,1s0.2,0.8,0.2,1.3V233.7z M123.2,231.9c0-0.3-0.1-0.6-0.2-0.7s-0.4-0.2-0.8-0.2c-0.4,0-0.7,0.1-0.9,0.2
				c-0.2,0.1-0.2,0.4-0.2,0.7v2c0,0.3,0.1,0.6,0.2,0.7c0.2,0.1,0.4,0.2,0.9,0.2c0.4,0,0.7-0.1,0.8-0.2c0.2-0.1,0.2-0.4,0.2-0.7
				V231.9z M129.3,228.8l1.9,0.8l-5.9,14.3l-1.9-0.8L129.3,228.8z M136.2,240.7c0,0.5-0.1,0.9-0.2,1.3c-0.1,0.4-0.3,0.7-0.6,1
				c-0.3,0.3-0.6,0.5-1.1,0.7c-0.5,0.2-1,0.2-1.7,0.2s-1.3-0.1-1.7-0.2c-0.5-0.2-0.8-0.4-1.1-0.7c-0.3-0.3-0.5-0.6-0.6-1
				c-0.1-0.4-0.2-0.8-0.2-1.3v-1.6c0-0.5,0.1-0.9,0.2-1.3c0.1-0.4,0.3-0.7,0.6-1s0.6-0.5,1.1-0.7c0.5-0.2,1-0.2,1.7-0.2
				s1.3,0.1,1.7,0.2c0.5,0.2,0.8,0.4,1.1,0.7s0.5,0.6,0.6,1c0.1,0.4,0.2,0.8,0.2,1.3V240.7z M133.7,238.9c0-0.3-0.1-0.6-0.2-0.7
				s-0.4-0.2-0.8-0.2c-0.4,0-0.7,0.1-0.9,0.2s-0.2,0.4-0.2,0.7v2c0,0.3,0.1,0.6,0.2,0.7c0.2,0.1,0.4,0.2,0.9,0.2
				c0.4,0,0.7-0.1,0.8-0.2c0.2-0.1,0.2-0.4,0.2-0.7V238.9z"/>
		</g>
	</g>
</g>
</svg>
