<?xml version="1.0" encoding="utf-8"?>
<!-- Generator: Adobe Illustrator 25.3.1, SVG Export Plug-In . SVG Version: 6.00 Build 0)  -->
<svg version="1.1" id="圖層_1" xmlns="http://www.w3.org/2000/svg" xmlns:xlink="http://www.w3.org/1999/xlink" x="0px" y="0px"
	 viewBox="0 0 310 290" style="enable-background:new 0 0 310 290;" xml:space="preserve">
<style type="text/css">
	.st0{fill:none;}
	.st1{fill:#E1E1E1;}
	.st2{opacity:0.6;fill:#1CD8C0;enable-background:new    ;}
	.st3{fill:#1E9BD7;}
	.st4{fill:#8C8C8C;}
	.st5{fill:none;stroke:#1CD8C0;stroke-width:2;stroke-linecap:round;stroke-linejoin:round;stroke-miterlimit:10;}
</style>
<g id="_x31_">
	<g>
		<rect class="st0" width="310" height="290"/>
		<g>
			<g>
				<g>
					<path class="st1" d="M154.6,57.7c-26.7,0.9-50.3,14.1-65.2,34.1l65.2,49.1V57.7z"/>
					<path class="st1" d="M87.6,94.2C78,108,72.4,124.7,72.4,142.8c0,1,0,2.1,0.1,3.1l79.3-3.3L87.6,94.2z"/>
					<path class="st2" d="M158,143.4l-0.1,0.2l58.2,60.9c16.4-15.5,26.6-37.4,26.6-61.8c0-47-38.1-85.1-85.1-85.2V143L158,143.4z"/>
					<path class="st1" d="M72.6,148.9c2.1,29.3,19,54.5,43.2,68.1l37.7-71.5L72.6,148.9z"/>
					<path class="st1" d="M118.5,218.4c11.7,6.1,25,9.5,39.1,9.5c21.6,0,41.3-8.1,56.4-21.4l-57.5-60.2L118.5,218.4z"/>
				</g>
			</g>
			<g>
				<path class="st3" d="M221.4,42.4c0,0.4-0.1,0.7-0.2,1.1h6.4v1.3h-6.8c-0.8,2.1-2.4,3.4-6.7,4.1c-0.1-0.4-0.5-1-0.8-1.3
					c3.5-0.5,5-1.4,5.7-2.8h-5.1v-1.3h5.6c0.1-0.3,0.1-0.7,0.2-1.1h-6.1v-1.3h6.3V40h-4.8v-1.3h4.8v-1.1h-5.7v-1.3h3.2
					c-0.3-0.5-0.7-1.2-1.1-1.7l1.3-0.5c0.5,0.6,1.1,1.4,1.3,1.9l-0.5,0.2h3.9c0.4-0.6,1-1.5,1.2-2.2l1.6,0.4
					c-0.4,0.6-0.8,1.2-1.2,1.7h3.3v1.3h-5.7v1.1h5v1.3h-5v1.1h6.5v1.3h-6.6V42.4z M227.3,49c-1.4-0.9-4.3-2.3-6.4-3.1l0.7-1.1
					c2.1,0.8,5,2,6.5,2.9L227.3,49z"/>
				<path class="st3" d="M243.5,34.9v14H242v-0.7h-10.5v0.7h-1.4v-14H243.5z M242,46.9V36.2h-10.5v10.7H242z M240.8,40.1
					c-0.4,1.5-1,2.7-1.7,3.8c0.3,0.7,0.6,1.1,1,1.2c0.2,0.1,0.3-0.6,0.4-1.6c0.2,0.2,0.7,0.6,0.9,0.7c-0.2,1.8-0.9,2.4-1.8,2.1
					c-0.6-0.2-1.1-0.6-1.5-1.3c-0.6,0.6-1.2,1.2-1.9,1.6c-0.2-0.2-0.6-0.7-0.8-0.9c0.4-0.3,0.8-0.5,1.2-0.9
					c-1.6,0.3-3.2,0.6-4.5,0.8l-0.2-1.1c1.2-0.2,2.9-0.4,4.6-0.7v1c0.4-0.3,0.7-0.6,1-1c-0.4-1.2-0.6-2.8-0.8-4.5H232v-1.1h4.6
					c0-0.5-0.1-1-0.1-1.5h1.2c0,0.5,0,1,0.1,1.5h2.3c-0.3-0.4-1-0.8-1.6-1.1l0.7-0.7c0.6,0.3,1.3,0.7,1.6,1.1l-0.7,0.7h1v1.1h-3.2
					c0.1,1.2,0.3,2.2,0.5,3.1c0.4-0.8,0.8-1.6,1-2.5L240.8,40.1z M236.3,40.1v3.1h-3.5v-3.1H236.3z M235.2,40.9h-1.5v1.4h1.5V40.9z"
					/>
			</g>
			<g>
				<path class="st3" d="M216.4,62.7c0.6,0,1-0.1,1.2-0.3s0.3-0.5,0.3-0.9v-0.7c0-0.4-0.1-0.6-0.3-0.7c-0.2-0.1-0.6-0.2-1.2-0.2
					c-0.4,0-0.8,0-1.2,0.1c-0.4,0-0.8,0.1-1.3,0.2l-0.3-2c0.5-0.1,1-0.2,1.5-0.2c0.5-0.1,1-0.1,1.5-0.1c0.8,0,1.4,0.1,1.9,0.2
					c0.5,0.1,0.9,0.3,1.2,0.5s0.5,0.5,0.6,0.8s0.2,0.7,0.2,1.2v0.8c0,0.5-0.1,1-0.3,1.4s-0.5,0.7-0.9,1c0.5,0.2,0.9,0.5,1.1,0.8
					c0.2,0.3,0.3,0.8,0.3,1.4v0.9c0,0.4-0.1,0.8-0.2,1.2s-0.3,0.7-0.6,0.9s-0.7,0.4-1.3,0.6s-1.2,0.2-2,0.2c-0.6,0-1.1,0-1.5-0.1
					c-0.5-0.1-0.9-0.2-1.4-0.3l0.3-2c0.4,0.1,0.9,0.1,1.2,0.2c0.4,0,0.8,0.1,1.4,0.1c0.6,0,1-0.1,1.3-0.2c0.2-0.1,0.3-0.4,0.3-0.7
					v-0.9c0-0.6-0.4-1-1.3-1h-2.4v-2.2H216.4z"/>
				<path class="st3" d="M222.4,65.8c0-0.4,0.1-0.8,0.3-1.2s0.6-0.7,1.2-1c-0.5-0.3-0.8-0.6-1-0.9c-0.2-0.3-0.3-0.7-0.3-1.1v-1
					c0-0.5,0.1-0.9,0.2-1.2s0.3-0.7,0.6-0.9s0.7-0.4,1.1-0.6c0.5-0.1,1-0.2,1.7-0.2s1.2,0.1,1.7,0.2s0.8,0.3,1.1,0.6
					c0.3,0.2,0.5,0.5,0.6,0.9s0.2,0.8,0.2,1.2v1c0,0.4-0.1,0.8-0.3,1.1s-0.5,0.6-1,0.9c0.6,0.3,1,0.6,1.2,1c0.2,0.3,0.3,0.7,0.3,1.2
					v0.9c0,0.6-0.1,1-0.2,1.4c-0.1,0.4-0.4,0.7-0.7,0.9c-0.3,0.2-0.7,0.4-1.2,0.5c-0.5,0.1-1.1,0.2-1.8,0.2s-1.3-0.1-1.8-0.2
					c-0.5-0.1-0.9-0.3-1.2-0.5c-0.3-0.2-0.5-0.6-0.7-0.9c-0.1-0.4-0.2-0.9-0.2-1.4v-0.9H222.4z M224.9,66.7c0,0.4,0.1,0.6,0.3,0.8
					c0.2,0.1,0.6,0.2,1.1,0.2s0.9-0.1,1.1-0.2c0.2-0.2,0.3-0.4,0.3-0.7v-0.6c0-0.1,0-0.3,0-0.4s-0.1-0.2-0.2-0.3
					c-0.1-0.1-0.2-0.2-0.4-0.3s-0.5-0.2-0.8-0.3c-0.3,0.1-0.6,0.2-0.8,0.3s-0.3,0.2-0.4,0.3c-0.1,0.1-0.1,0.2-0.2,0.3
					c0,0.1,0,0.2,0,0.4L224.9,66.7L224.9,66.7z M225.2,61.7c0,0.1,0,0.2,0,0.3s0.1,0.2,0.1,0.3c0.1,0.1,0.2,0.2,0.4,0.2
					s0.4,0.2,0.6,0.3c0.3-0.1,0.5-0.2,0.6-0.3s0.3-0.2,0.3-0.2c0.1-0.1,0.1-0.2,0.1-0.3s0-0.2,0-0.3v-0.9c0-0.3-0.1-0.5-0.2-0.6
					c-0.1-0.1-0.4-0.2-0.9-0.2s-0.8,0.1-0.9,0.2c-0.1,0.1-0.2,0.4-0.2,0.6L225.2,61.7L225.2,61.7z"/>
				<path class="st3" d="M237.6,61.4c0,0.4,0,0.7-0.1,1s-0.2,0.6-0.5,0.8c-0.2,0.2-0.5,0.4-0.9,0.5s-0.8,0.2-1.4,0.2
					c-0.6,0-1-0.1-1.4-0.2c-0.4-0.1-0.7-0.3-0.9-0.5s-0.4-0.5-0.5-0.8s-0.1-0.7-0.1-1v-1.3c0-0.4,0-0.7,0.1-1s0.2-0.6,0.5-0.8
					c0.2-0.2,0.5-0.4,0.9-0.5s0.8-0.2,1.4-0.2c0.6,0,1,0.1,1.4,0.2c0.4,0.1,0.7,0.3,0.9,0.5s0.4,0.5,0.5,0.8s0.1,0.7,0.1,1V61.4z
					 M235.6,59.9c0-0.3-0.1-0.5-0.2-0.6s-0.4-0.2-0.7-0.2s-0.6,0.1-0.7,0.2c-0.1,0.1-0.2,0.3-0.2,0.6v1.6c0,0.3,0.1,0.5,0.2,0.6
					c0.1,0.1,0.4,0.2,0.7,0.2s0.6-0.1,0.7-0.2c0.1-0.1,0.2-0.3,0.2-0.6V59.9z M240.5,57.5l1.6,0.6l-4.8,11.7l-1.6-0.6L240.5,57.5z
					 M246.1,67.2c0,0.4,0,0.7-0.1,1s-0.2,0.6-0.5,0.8c-0.2,0.2-0.5,0.4-0.9,0.5c-0.4,0.1-0.8,0.2-1.4,0.2c-0.6,0-1-0.1-1.4-0.2
					c-0.4-0.1-0.7-0.3-0.9-0.5c-0.2-0.2-0.4-0.5-0.5-0.8s-0.1-0.7-0.1-1v-1.3c0-0.4,0-0.7,0.1-1c0.1-0.3,0.2-0.6,0.5-0.8
					c0.2-0.2,0.5-0.4,0.9-0.5s0.8-0.2,1.4-0.2c0.6,0,1,0.1,1.4,0.2s0.7,0.3,0.9,0.5c0.2,0.2,0.4,0.5,0.5,0.8c0.1,0.3,0.1,0.7,0.1,1
					V67.2z M244.1,65.7c0-0.3-0.1-0.5-0.2-0.6c-0.1-0.1-0.4-0.2-0.7-0.2s-0.6,0.1-0.7,0.2c-0.1,0.1-0.2,0.3-0.2,0.6v1.6
					c0,0.3,0.1,0.5,0.2,0.6c0.1,0.1,0.4,0.2,0.7,0.2s0.6-0.1,0.7-0.2c0.1-0.1,0.2-0.3,0.2-0.6V65.7z"/>
			</g>
			<g>
				<path class="st4" d="M9.6,191.5c-0.4,1.1-1,2.4-1.6,3.2c-0.2-0.2-0.7-0.5-1-0.7c0.6-0.8,1.1-1.8,1.5-2.9L9.6,191.5z M11.6,190.5
					v5.4h-1.4v-5.4H7.1v-1.3h3.1v-1.5H7v-1.2h1.7c-0.1-0.5-0.3-1.4-0.6-2l1.2-0.3c0.3,0.6,0.5,1.4,0.6,2l-1.2,0.3h2.5
					c0.3-0.7,0.6-1.6,0.8-2.3l1.4,0.3c-0.3,0.7-0.5,1.4-0.8,2h1.9v1.2h-2.9v1.5h2.7v1.3H11.6z M14.3,184.2h-7V183h2.9
					c-0.2-0.4-0.4-1-0.6-1.4l1.5-0.4c0.3,0.5,0.6,1.2,0.8,1.7h2.4C14.3,182.9,14.3,184.2,14.3,184.2z M13.2,191
					c0.5,0.8,1.1,1.8,1.3,2.4l-1,0.6c-0.3-0.7-0.8-1.7-1.3-2.5L13.2,191z M21.6,188H20v7.9h-1.5V188h-1.9v0.4c0,2.3-0.2,5.5-1.6,7.5
					c-0.2-0.3-0.8-0.7-1.1-0.9c1.3-1.9,1.4-4.6,1.4-6.7v-5.5c1.8-0.3,3.7-0.8,4.9-1.3l1.2,1.1c-1.3,0.5-3,0.9-4.7,1.2v2.8h5v1.4
					H21.6z"/>
				<path class="st4" d="M37.5,190.9v1.4H23.1v-1.4h1.2l-0.2-8.4c0.9-0.3,2-0.7,2.7-1l0.7,1.3c-0.6,0.2-1.4,0.4-2,0.6v1.7H27v1.2
					h-1.6l0.1,1.7h1.6v1.2h-1.6v1.7h1.9v-8.8H33v8.8h2c0-0.5,0.1-1.1,0.1-1.7h-1.6V188h1.6c0-0.6,0-1.1,0-1.7h-1.6v-1.2h1.6
					c0-0.6,0-1.2,0-1.8h-1.7V182h3c0,2.8-0.1,6.4-0.3,8.9H37.5z M28.8,193.3c-1.3,0.9-3.3,2-4.8,2.6c-0.2-0.3-0.6-0.8-0.8-1.1
					c1.5-0.6,3.4-1.6,4.5-2.5L28.8,193.3z M28.5,190.9H32v-7.6h-3.4v7.6H28.5z M31.5,184.2v1H29v-1H31.5z M29.1,186.1h2.3v3.6h-2.3
					V186.1z M29.8,188.8h1V187h-1V188.8z M32.5,192.3c1.7,0.8,3.5,1.8,4.6,2.5l-1,1.1c-1.1-0.7-2.8-1.8-4.5-2.6L32.5,192.3z"/>
				<path class="st4" d="M47,185v2h5.1v5.5c0,0.8-0.2,1.2-0.8,1.5c-0.6,0.2-1.5,0.3-2.8,0.3c-0.1-0.4-0.3-1.1-0.5-1.5
					c1,0,1.9,0,2.2,0s0.4-0.1,0.4-0.3v-4H47v7.5h-1.6v-7.5H42v5.8h-1.5V187h4.9v-2h-6.3v-1.5h6.6c-0.3-0.6-0.6-1.4-0.9-2l1.5-0.4
					c0.4,0.7,1,1.8,1.2,2.4h6v1.5H47z"/>
				<path class="st4" d="M60.1,190.9c-1.6,0.8-3.3,1.7-4.7,2.3l-0.6-1.5c0.6-0.2,1.3-0.5,2.1-0.9V186h-1.8v-1.4h1.8v-3.2h1.4v3.2
					h1.6v1.4h-1.6v4.2c0.5-0.2,1-0.4,1.5-0.7L60.1,190.9z M63.2,189c-0.2,0.3-0.4,0.7-0.6,1h6.7c0,0,0,0.4,0,0.6
					c-0.3,3.2-0.5,4.5-0.9,4.9c-0.3,0.3-0.6,0.4-1,0.4s-1,0-1.6,0c0-0.4-0.1-0.9-0.3-1.2c0.5,0.1,1,0.1,1.2,0.1s0.4,0,0.5-0.2
					c0.2-0.3,0.4-1.2,0.6-3.4h-1c-0.6,1.9-1.9,3.9-3.2,4.9c-0.2-0.3-0.7-0.6-1.1-0.8c1.2-0.8,2.4-2.4,3-4h-1.3
					c-0.9,1.6-2.4,3.3-3.8,4.2c-0.2-0.3-0.6-0.7-1-0.9c1.3-0.7,2.6-2,3.5-3.3h-1.3c-0.6,0.7-1.3,1.2-2,1.7c-0.2-0.2-0.7-0.7-1-0.9
					c1.2-0.7,2.3-1.7,3-2.9h-2v-1.3h10v1.3h-6.4V189z M68.5,187h-7.4v-5.2h7.4V187z M67.1,182.8h-4.7v1h4.7V182.8z M67.1,184.9h-4.7
					v1.1h4.7V184.9z"/>
			</g>
			<g>
				<path class="st4" d="M26.4,216.7v-8.6l-2,1.1l-1.1-2.1l3.4-2H29v11.6H26.4z"/>
				<path class="st4" d="M35,216.9c-0.8,0-1.4-0.1-1.9-0.3s-0.9-0.4-1.2-0.7s-0.5-0.7-0.6-1.1c-0.1-0.4-0.2-0.9-0.2-1.3V209
					c0-0.8,0.1-1.5,0.4-2s0.6-0.9,1.1-1.3c0.5-0.3,1.1-0.5,1.7-0.7s1.4-0.2,2.3-0.2c0.3,0,0.6,0,0.9,0c0.3,0,0.6,0.1,0.9,0.1
					l-0.2,2.1c-0.2,0-0.4,0-0.7-0.1c-0.2,0-0.4,0-0.6,0c-0.6,0-1.1,0-1.5,0.1s-0.8,0.2-1,0.3c-0.3,0.2-0.5,0.3-0.6,0.6
					s-0.2,0.6-0.2,0.9v0.9c0.3-0.1,0.6-0.2,1-0.2c0.3,0,0.7-0.1,1-0.1c1,0,1.8,0.2,2.3,0.7s0.8,1.2,0.8,2.3v0.8
					c0,0.5-0.1,0.9-0.2,1.3c-0.1,0.4-0.3,0.8-0.6,1.1s-0.7,0.6-1.2,0.8C36.4,216.8,35.8,216.9,35,216.9z M35,214.7
					c0.5,0,0.8-0.1,1-0.3s0.3-0.5,0.3-0.8v-0.8c0-0.4-0.1-0.6-0.3-0.7c-0.2-0.1-0.4-0.2-0.6-0.2c-0.3,0-0.6,0-0.8,0.1
					c-0.3,0.1-0.5,0.1-0.7,0.2v1.4c0,0.4,0.1,0.7,0.3,0.9S34.5,214.7,35,214.7z"/>
				<path class="st4" d="M46,208.5c0,0.4,0,0.7-0.1,1s-0.2,0.6-0.5,0.8c-0.2,0.2-0.5,0.4-0.9,0.5s-0.8,0.2-1.4,0.2
					c-0.6,0-1-0.1-1.4-0.2c-0.4-0.1-0.7-0.3-0.9-0.5s-0.4-0.5-0.5-0.8s-0.1-0.7-0.1-1v-1.3c0-0.4,0-0.7,0.1-1s0.2-0.6,0.5-0.8
					c0.2-0.2,0.5-0.4,0.9-0.5s0.8-0.2,1.4-0.2c0.6,0,1,0.1,1.4,0.2c0.4,0.1,0.7,0.3,0.9,0.5s0.4,0.5,0.5,0.8s0.1,0.7,0.1,1V208.5z
					 M44,207c0-0.3-0.1-0.5-0.2-0.6s-0.4-0.2-0.7-0.2s-0.6,0.1-0.7,0.2c-0.1,0.1-0.2,0.3-0.2,0.6v1.6c0,0.3,0.1,0.5,0.2,0.6
					c0.1,0.1,0.4,0.2,0.7,0.2s0.6-0.1,0.7-0.2c0.1-0.1,0.2-0.3,0.2-0.6V207z M49,204.6l1.6,0.6l-4.8,11.7l-1.6-0.6L49,204.6z
					 M54.6,214.3c0,0.4,0,0.7-0.1,1s-0.2,0.6-0.5,0.8c-0.2,0.2-0.5,0.4-0.9,0.5s-0.8,0.2-1.4,0.2c-0.6,0-1-0.1-1.4-0.2
					c-0.4-0.1-0.7-0.3-0.9-0.5s-0.4-0.5-0.5-0.8s-0.1-0.7-0.1-1V213c0-0.4,0-0.7,0.1-1s0.2-0.6,0.5-0.8c0.2-0.2,0.5-0.4,0.9-0.5
					s0.8-0.2,1.4-0.2c0.6,0,1,0.1,1.4,0.2s0.7,0.3,0.9,0.5s0.4,0.5,0.5,0.8s0.1,0.7,0.1,1V214.3z M52.6,212.8c0-0.3-0.1-0.5-0.2-0.6
					c-0.1-0.1-0.4-0.2-0.7-0.2s-0.6,0.1-0.7,0.2c-0.1,0.1-0.2,0.3-0.2,0.6v1.6c0,0.3,0.1,0.5,0.2,0.6c0.1,0.1,0.4,0.2,0.7,0.2
					s0.6-0.1,0.7-0.2c0.1-0.1,0.2-0.3,0.2-0.6V212.8z"/>
			</g>
			<g>
				<path class="st4" d="M164.6,250.9c0,0.3,0,0.7,0,1.1c0.5,3.1,1.3,5,3.1,6.7c-0.4,0.3-0.8,0.7-0.9,1.2c-1.3-1.3-2.1-2.7-2.7-4.5
					c-0.4,1.6-1.2,3.1-2.6,4.5c-0.2-0.3-0.5-0.7-0.8-0.9c-0.4,0-0.9,0.1-1.4,0.1H156c-1.8,0-2.5-0.7-2.5-2.6v-9.2H153V246h7.8v1.3
					h-6v9.3c0,1,0.3,1.3,1.1,1.3h3.4c0.5,0,1.1,0,1.5-0.1c0,0.2,0,0.4,0.1,0.7c2.1-2.4,2.3-5.3,2.3-7.3v-1.1h1.3L164.6,250.9
					L164.6,250.9z M155.3,252.7h2.4v4h-2.4V252.7z M159.9,251.7h-4.1v-3.6h4.1V251.7z M156.1,255.8h0.9v-2.2h-0.9V255.8z M158.8,249
					H157v1.8h1.8V249z M160.7,256.7h-2.5v-4h2.5V256.7z M159.9,253.6H159v2.1h0.9V253.6z M162.9,248.9c-0.4,1.2-0.8,2.3-1.4,3.1
					c-0.3-0.2-0.9-0.6-1.2-0.8c1.1-1.4,1.7-3.7,2-6.1l1.4,0.2c-0.1,0.8-0.2,1.5-0.4,2.2h3.4h0.2l1,0.3c-0.3,1.5-0.8,3.2-1.2,4.3
					l-1.1-0.4c0.3-0.7,0.5-1.8,0.7-2.8H162.9z"/>
				<path class="st4" d="M183.6,258.1v1.3H169v-1.3h1.9v-3.7h11v3.7H183.6z M171.3,253.1h-1.4v-7.2h5.2v6.4h-3.8V253.1z M171.3,247
					v1.5h2.5V247H171.3z M173.8,251.1v-1.5h-2.5v1.5H173.8z M172.3,258.1h1.8v-2.6h-1.8V258.1z M177.6,251.3c-0.3,1-0.8,2-1.8,2.8
					c-0.2-0.3-0.7-0.8-1-1c1.6-1.2,1.7-2.9,1.7-4.3v-3.2h6.1v6.8c0,0.7-0.2,1.1-0.6,1.3c-0.5,0.2-1.2,0.2-2.3,0.2
					c-0.1-0.4-0.3-0.9-0.5-1.2c0.8,0,1.5,0,1.7,0s0.3-0.1,0.3-0.3v-1.1H177.6z M175.4,255.5v2.6h1.8v-2.6H175.4z M181.2,250.3v-1.2
					h-3.3c0,0.4,0,0.8-0.1,1.2H181.2z M177.9,246.8v1.2h3.3v-1.2H177.9z M178.6,255.5v2.6h1.8v-2.6H178.6z"/>
				<path class="st4" d="M190,254.6c-0.4,0.5-0.7,0.9-1,1.2s-0.5,0.6-0.7,0.8h3.3v2h-6.5v-2c0.3-0.3,0.5-0.5,0.7-0.7
					s0.4-0.4,0.5-0.5c0.2-0.2,0.3-0.3,0.5-0.5s0.4-0.4,0.6-0.7c0.4-0.4,0.7-0.8,0.9-1.1s0.4-0.5,0.5-0.7s0.2-0.4,0.2-0.6
					c0-0.2,0.1-0.4,0.1-0.7v-0.3c0-0.3-0.1-0.5-0.3-0.6s-0.5-0.2-1-0.2c-0.2,0-0.4,0-0.6,0c-0.2,0-0.5,0-0.7,0.1
					c-0.2,0-0.5,0.1-0.7,0.1s-0.4,0.1-0.6,0.1l-0.3-1.9c0.5-0.1,1-0.2,1.6-0.3c0.5-0.1,1-0.1,1.5-0.1c1.2,0,2.1,0.2,2.7,0.6
					s0.8,1,0.8,1.9v0.4c0,0.4,0,0.7,0,1s-0.1,0.5-0.2,0.7c-0.1,0.2-0.2,0.5-0.4,0.8S190.4,254.1,190,254.6z"/>
				<path class="st4" d="M195.9,258.6h-2.4l3.4-8.3h-4.3v-2h6.7v2L195.9,258.6z"/>
				<path class="st4" d="M214.4,245.8v14h-1.5v-0.7h-10.5v0.7H201v-14L214.4,245.8L214.4,245.8z M212.9,257.8v-10.6h-10.5v10.6
					H212.9z M211.7,251c-0.4,1.5-1,2.7-1.7,3.8c0.3,0.7,0.6,1.1,1,1.2c0.2,0.1,0.3-0.6,0.4-1.6c0.2,0.2,0.7,0.6,0.9,0.7
					c-0.2,1.8-0.9,2.4-1.8,2.1c-0.6-0.2-1.1-0.6-1.5-1.3c-0.6,0.6-1.2,1.2-1.9,1.6c-0.2-0.2-0.6-0.7-0.8-0.9
					c0.4-0.3,0.8-0.5,1.2-0.9c-1.6,0.3-3.2,0.6-4.5,0.8l-0.2-1.1c1.2-0.2,2.9-0.4,4.6-0.7v1c0.4-0.3,0.7-0.6,1-1
					c-0.4-1.2-0.6-2.8-0.8-4.5h-4.7v-1.1h4.6c0-0.5-0.1-1-0.1-1.5h1.2c0,0.5,0,1,0.1,1.5h2.3c-0.3-0.4-1-0.8-1.6-1.1l0.7-0.7
					c0.6,0.3,1.3,0.7,1.6,1.1l-0.7,0.7h1v1.1h-3.2c0.1,1.2,0.3,2.2,0.5,3.1c0.4-0.8,0.8-1.6,1-2.5L211.7,251z M207.2,251v3.1h-3.5
					V251H207.2z M206.1,251.9h-1.5v1.4h1.5V251.9z"/>
			</g>
			<g>
				<path class="st4" d="M175.7,276.1c-0.4,0.5-0.8,1-1.1,1.3s-0.6,0.7-0.8,0.9h3.7v2.3h-7.3v-2.2c0.3-0.3,0.6-0.6,0.8-0.8
					s0.4-0.4,0.6-0.6c0.2-0.2,0.4-0.4,0.5-0.6c0.2-0.2,0.4-0.5,0.7-0.8c0.4-0.5,0.8-0.9,1.1-1.2c0.3-0.3,0.5-0.5,0.6-0.8
					c0.1-0.2,0.2-0.4,0.3-0.6c0-0.2,0.1-0.5,0.1-0.8v-0.3c0-0.3-0.1-0.5-0.3-0.7c-0.2-0.1-0.6-0.2-1.1-0.2c-0.2,0-0.5,0-0.7,0
					c-0.3,0-0.5,0-0.8,0.1c-0.3,0-0.5,0.1-0.8,0.1s-0.5,0.1-0.7,0.1l-0.3-2.2c0.6-0.1,1.1-0.3,1.7-0.3c0.6-0.1,1.2-0.1,1.7-0.1
					c1.4,0,2.4,0.2,3,0.7c0.6,0.4,0.9,1.2,0.9,2.2v0.5c0,0.4,0,0.8,0,1.1c0,0.3-0.1,0.6-0.2,0.8c-0.1,0.3-0.3,0.6-0.5,0.9
					C176.4,275.2,176.1,275.6,175.7,276.1z"/>
				<path class="st4" d="M187.3,277.6c0,0.5-0.1,0.9-0.2,1.3c-0.1,0.4-0.4,0.7-0.7,1s-0.7,0.5-1.2,0.7s-1.1,0.2-1.9,0.2
					s-1.4-0.1-1.9-0.2c-0.5-0.2-0.9-0.4-1.2-0.7c-0.3-0.3-0.5-0.6-0.7-1c-0.1-0.4-0.2-0.8-0.2-1.3V272c0-0.4,0.1-0.9,0.2-1.3
					c0.1-0.4,0.4-0.7,0.7-1s0.7-0.5,1.2-0.7s1.1-0.2,1.9-0.2s1.4,0.1,1.9,0.2c0.5,0.2,0.9,0.4,1.2,0.7c0.3,0.3,0.5,0.6,0.7,1
					c0.1,0.4,0.2,0.8,0.2,1.3V277.6z M182,277.2c0,0.5,0.1,0.8,0.3,1s0.6,0.3,1.1,0.3c0.6,0,0.9-0.1,1.1-0.3c0.2-0.2,0.3-0.5,0.3-1
					v-4.9c0-0.4-0.1-0.8-0.3-1s-0.6-0.3-1.1-0.3c-0.6,0-0.9,0.1-1.1,0.3c-0.2,0.2-0.3,0.5-0.3,1V277.2z"/>
				<path class="st4" d="M194.7,272.3c0,0.4,0,0.7-0.1,1s-0.2,0.6-0.5,0.8c-0.2,0.2-0.5,0.4-0.9,0.5s-0.8,0.2-1.4,0.2
					c-0.6,0-1-0.1-1.4-0.2s-0.7-0.3-0.9-0.5s-0.4-0.5-0.5-0.8s-0.1-0.7-0.1-1V271c0-0.4,0-0.7,0.1-1s0.2-0.6,0.5-0.8
					c0.2-0.2,0.5-0.4,0.9-0.5s0.8-0.2,1.4-0.2c0.6,0,1,0.1,1.4,0.2s0.7,0.3,0.9,0.5s0.4,0.5,0.5,0.8s0.1,0.7,0.1,1V272.3z
					 M192.7,270.9c0-0.3-0.1-0.5-0.2-0.6c-0.1-0.1-0.4-0.2-0.7-0.2s-0.6,0.1-0.7,0.2c-0.1,0.1-0.2,0.3-0.2,0.6v1.6
					c0,0.3,0.1,0.5,0.2,0.6c0.1,0.1,0.4,0.2,0.7,0.2s0.6-0.1,0.7-0.2s0.2-0.3,0.2-0.6V270.9z M197.7,268.4l1.6,0.6l-4.8,11.7
					l-1.6-0.6L197.7,268.4z M203.3,278.1c0,0.4,0,0.7-0.1,1s-0.2,0.6-0.5,0.8s-0.5,0.4-0.9,0.5s-0.8,0.2-1.4,0.2
					c-0.6,0-1-0.1-1.4-0.2s-0.7-0.3-0.9-0.5s-0.4-0.5-0.5-0.8s-0.1-0.7-0.1-1v-1.3c0-0.4,0-0.7,0.1-1s0.2-0.6,0.5-0.8
					s0.5-0.4,0.9-0.5s0.8-0.2,1.4-0.2c0.6,0,1,0.1,1.4,0.2s0.7,0.3,0.9,0.5s0.4,0.5,0.5,0.8s0.1,0.7,0.1,1V278.1z M201.3,276.7
					c0-0.3-0.1-0.5-0.2-0.6s-0.4-0.2-0.7-0.2s-0.6,0.1-0.7,0.2c-0.1,0.1-0.2,0.3-0.2,0.6v1.6c0,0.3,0.1,0.5,0.2,0.6
					c0.1,0.1,0.4,0.2,0.7,0.2s0.6-0.1,0.7-0.2s0.2-0.3,0.2-0.6V276.7z"/>
			</g>
			<g>
				<path class="st4" d="M39.7,97.3v13.4h-1.6v-1h-7.5v1H29V97.3H39.7z M30.5,98.8v3.9H38v-3.9H30.5z M38.1,108.3v-4.1h-7.5v4.1
					H38.1z"/>
				<path class="st4" d="M52.7,101c1.1,2.5,2.9,4.9,5,6.1c-0.4,0.3-0.9,0.9-1.2,1.3c-0.7-0.5-1.3-1.1-1.9-1.7v1.4H51v2.8h-1.6v-2.8
					h-3.5v-1.4c-0.6,0.7-1.3,1.3-2,1.8c-0.3-0.4-0.7-0.9-1.1-1.2c2-1.3,3.8-3.7,4.9-6.3h-4.4v-1.5h6.1v-3.2H51v3.2h6.2v1.5
					C57.2,101,52.7,101,52.7,101z M49.5,106.6V101h-0.2c-0.8,2.1-1.9,4.1-3.3,5.6H49.5z M54.5,106.6c-1.3-1.5-2.5-3.5-3.2-5.6H51
					v5.6H54.5z"/>
			</g>
			<g>
				<path class="st4" d="M30.4,131.7v-8.6l-2,1.1l-1.1-2.1l3.4-2H33v11.6H30.4z"/>
				<path class="st4" d="M40.7,127.2c-0.4,0.5-0.8,1-1.1,1.3s-0.6,0.7-0.8,0.9h3.7v2.3h-7.3v-2.2c0.3-0.3,0.6-0.6,0.8-0.8
					s0.4-0.4,0.6-0.6c0.2-0.2,0.4-0.4,0.5-0.6c0.2-0.2,0.4-0.5,0.7-0.8c0.4-0.5,0.8-0.9,1.1-1.2c0.3-0.3,0.5-0.5,0.6-0.8
					s0.2-0.4,0.3-0.6s0.1-0.5,0.1-0.8V123c0-0.3-0.1-0.5-0.3-0.7c-0.2-0.1-0.6-0.2-1.1-0.2c-0.2,0-0.5,0-0.7,0c-0.3,0-0.5,0-0.8,0.1
					c-0.3,0-0.5,0.1-0.8,0.1s-0.5,0.1-0.7,0.1l-0.3-2.2c0.6-0.1,1.1-0.3,1.7-0.3c0.6-0.1,1.2-0.1,1.7-0.1c1.4,0,2.4,0.2,3,0.7
					c0.6,0.4,0.9,1.2,0.9,2.2v0.5c0,0.4,0,0.8,0,1.1c0,0.3-0.1,0.6-0.2,0.8s-0.3,0.6-0.5,0.9C41.4,126.3,41.1,126.7,40.7,127.2z"/>
				<path class="st4" d="M49.7,123.5c0,0.4,0,0.7-0.1,1s-0.2,0.6-0.5,0.8c-0.2,0.2-0.5,0.4-0.9,0.5s-0.8,0.2-1.4,0.2
					c-0.6,0-1-0.1-1.4-0.2s-0.7-0.3-0.9-0.5s-0.4-0.5-0.5-0.8s-0.1-0.7-0.1-1v-1.3c0-0.4,0-0.7,0.1-1s0.2-0.6,0.5-0.8
					c0.2-0.2,0.5-0.4,0.9-0.5s0.8-0.2,1.4-0.2c0.6,0,1,0.1,1.4,0.2s0.7,0.3,0.9,0.5s0.4,0.5,0.5,0.8s0.1,0.7,0.1,1V123.5z M47.7,122
					c0-0.3-0.1-0.5-0.2-0.6s-0.4-0.2-0.7-0.2s-0.6,0.1-0.7,0.2c-0.1,0.1-0.2,0.3-0.2,0.6v1.6c0,0.3,0.1,0.5,0.2,0.6
					c0.1,0.1,0.4,0.2,0.7,0.2s0.6-0.1,0.7-0.2c0.1-0.1,0.2-0.3,0.2-0.6V122z M52.7,119.6l1.6,0.6l-4.8,11.7l-1.6-0.6L52.7,119.6z
					 M58.3,129.3c0,0.4,0,0.7-0.1,1s-0.2,0.6-0.5,0.8c-0.2,0.2-0.5,0.4-0.9,0.5s-0.8,0.2-1.4,0.2c-0.6,0-1-0.1-1.4-0.2
					c-0.4-0.1-0.7-0.3-0.9-0.5s-0.4-0.5-0.5-0.8s-0.1-0.7-0.1-1V128c0-0.4,0-0.7,0.1-1s0.2-0.6,0.5-0.8c0.2-0.2,0.5-0.4,0.9-0.5
					s0.8-0.2,1.4-0.2c0.6,0,1,0.1,1.4,0.2s0.7,0.3,0.9,0.5s0.4,0.5,0.5,0.8s0.1,0.7,0.1,1V129.3z M56.3,127.8c0-0.3-0.1-0.5-0.2-0.6
					c-0.1-0.1-0.4-0.2-0.7-0.2s-0.6,0.1-0.7,0.2c-0.1,0.1-0.2,0.3-0.2,0.6v1.6c0,0.3,0.1,0.5,0.2,0.6c0.1,0.1,0.4,0.2,0.7,0.2
					s0.6-0.1,0.7-0.2c0.1-0.1,0.2-0.3,0.2-0.6V127.8z"/>
			</g>
			<g>
				<path class="st4" d="M81.3,38.7c-1.4,0.9-3.6,1.8-5.3,2.3c-0.2-0.3-0.7-0.8-1-1.1c1.7-0.5,3.9-1.4,5-2.1L81.3,38.7z M89.4,37.6
					H75.2v-1.4H78v-6.8h-2.4V28H78v-1.7h1.5V28H85v-1.7h1.5V28H89v1.4h-2.4v6.8h2.8V37.6z M79.5,29.4v1.3H85v-1.3H79.5z M79.5,33.5
					H85V32h-5.5V33.5z M79.5,36.2H85v-1.5h-5.5V36.2z M84.3,37.8c1.8,0.6,3.9,1.5,5.1,2.1l-1.4,1c-1.1-0.6-2.9-1.5-4.8-2.2
					L84.3,37.8z"/>
				<path class="st4" d="M95.8,26.8c-0.4,1.2-1,2.4-1.6,3.5V41h-1.4v-8.5c-0.4,0.6-0.9,1.1-1.3,1.6c-0.1-0.4-0.6-1.2-0.8-1.5
					c1.5-1.5,2.9-3.8,3.8-6.2L95.8,26.8z M103.1,39.5c0.9,0,1.1-0.4,1.2-2.3c0.4,0.2,0.9,0.5,1.3,0.6c-0.2,2.3-0.7,3-2.5,3h-3.9
					c-2,0-2.6-0.5-2.6-2.5v-4.9l-1.4,0.5l-0.6-1.3l2-0.8v-4H98v3.4l2-0.8v-4.3h1.3v3.7l2.4-0.9L104,29l1.1,0.4v0.3
					c-0.1,2.3-0.2,5.3-0.5,7.2l-1.2-0.3c0.2-1.4,0.3-3.7,0.3-5.7l-2.2,0.9v5.7h-1.3v-5.2L98,33v5.4c0,0.9,0.2,1.1,1.3,1.1H103.1z"/>
			</g>
			<g>
				<path class="st4" d="M77.4,61.7v-8.6l-2,1.1l-1.1-2.1l3.4-2H80v11.6C80,61.7,77.4,61.7,77.4,61.7z"/>
				<path class="st4" d="M89.4,59.3v2.5h-2.6v-2.5h-5.3V57l4.4-6.9h3.4v7.1h1.5v2.1C90.8,59.3,89.4,59.3,89.4,59.3z M86.8,52.7
					L84,57.2h2.8V52.7z"/>
				<path class="st4" d="M97.8,53.5c0,0.4,0,0.7-0.1,1s-0.2,0.6-0.5,0.8c-0.2,0.2-0.5,0.4-0.9,0.5S95.5,56,94.9,56s-1-0.1-1.4-0.2
					c-0.4-0.1-0.7-0.3-0.9-0.5c-0.2-0.2-0.4-0.5-0.5-0.8s-0.1-0.7-0.1-1v-1.3c0-0.4,0-0.7,0.1-1s0.2-0.6,0.5-0.8
					c0.2-0.2,0.5-0.4,0.9-0.5s0.8-0.2,1.4-0.2s1,0.1,1.4,0.2c0.4,0.1,0.7,0.3,0.9,0.5c0.2,0.2,0.4,0.5,0.5,0.8s0.1,0.7,0.1,1V53.5z
					 M95.8,52c0-0.3-0.1-0.5-0.2-0.6s-0.4-0.2-0.7-0.2s-0.6,0.1-0.7,0.2C94.1,51.6,94,51.7,94,52v1.6c0,0.3,0.1,0.5,0.2,0.6
					s0.4,0.2,0.7,0.2s0.6-0.1,0.7-0.2c0.1-0.1,0.2-0.3,0.2-0.6L95.8,52L95.8,52z M100.8,49.6l1.6,0.6l-4.8,11.7L96,61.3L100.8,49.6z
					 M106.4,59.3c0,0.4,0,0.7-0.1,1s-0.2,0.6-0.5,0.8c-0.2,0.2-0.5,0.4-0.9,0.5s-0.8,0.2-1.4,0.2s-1-0.1-1.4-0.2
					c-0.4-0.1-0.7-0.3-0.9-0.5c-0.2-0.2-0.4-0.5-0.5-0.8s-0.1-0.7-0.1-1V58c0-0.4,0-0.7,0.1-1s0.2-0.6,0.5-0.8
					c0.2-0.2,0.5-0.4,0.9-0.5s0.8-0.2,1.4-0.2s1,0.1,1.4,0.2s0.7,0.3,0.9,0.5c0.2,0.2,0.4,0.5,0.5,0.8s0.1,0.7,0.1,1V59.3z
					 M104.4,57.8c0-0.3-0.1-0.5-0.2-0.6s-0.4-0.2-0.7-0.2s-0.6,0.1-0.7,0.2c-0.1,0.1-0.2,0.3-0.2,0.6v1.6c0,0.3,0.1,0.5,0.2,0.6
					s0.4,0.2,0.7,0.2s0.6-0.1,0.7-0.2c0.1-0.1,0.2-0.3,0.2-0.6V57.8z"/>
			</g>
		</g>
	</g>
	<g>
		<path class="st5" d="M231.2,89c11,15.1,17.6,33.7,17.6,53.8c0,50.4-40.8,91.2-91.2,91.2s-91.2-40.8-91.2-91.2s40.8-91.2,91.2-91.2
			c13.8,0,26.9,3.1,38.6,8.5"/>
	</g>
</g>
<g id="圖層_4">
</g>
<g id="_x32_">
</g>
</svg>
