<?xml version="1.0" encoding="utf-8"?>
<!-- Generator: Adobe Illustrator 25.3.1, SVG Export Plug-In . SVG Version: 6.00 Build 0)  -->
<svg version="1.1" xmlns="http://www.w3.org/2000/svg" xmlns:xlink="http://www.w3.org/1999/xlink" x="0px" y="0px"
	 viewBox="0 0 160 160" style="enable-background:new 0 0 160 160;" xml:space="preserve">
<style type="text/css">
	.st0{fill-rule:evenodd;clip-rule:evenodd;fill:#FFFFFF;}
	.st1{opacity:0.7;}
	.st2{fill:none;stroke:#FFBF27;stroke-width:1.073;stroke-linecap:round;stroke-linejoin:round;stroke-miterlimit:10;}
	
		.st3{fill-rule:evenodd;clip-rule:evenodd;fill:none;stroke:#FFBF27;stroke-width:1.073;stroke-linecap:round;stroke-linejoin:round;stroke-miterlimit:10;}
	.st4{fill:none;stroke:#1CD8C0;stroke-width:2.0785;stroke-linecap:round;stroke-linejoin:round;stroke-miterlimit:10;}
	.st5{fill:none;stroke:#FFBF27;stroke-width:2;stroke-linecap:round;stroke-linejoin:round;stroke-miterlimit:10;}
	
		.st6{fill-rule:evenodd;clip-rule:evenodd;fill:none;stroke:#FFBF27;stroke-width:2;stroke-linecap:round;stroke-linejoin:round;stroke-miterlimit:10;}
	.st7{fill:none;}
	.st8{fill:#1CD8C0;}
	.st9{fill:#FFFFFF;}
	.st10{fill:none;stroke:#37B0AC;stroke-width:2;stroke-miterlimit:10;}
	.st11{fill:#FFD572;}
	.st12{fill:#FFE5A8;}
	.st13{fill:#FFBF27;}
	.st14{fill:none;stroke:#1E9BD7;stroke-width:2;stroke-linecap:round;stroke-linejoin:round;stroke-miterlimit:10;}
	.st15{fill:none;stroke:#8DEBDF;stroke-width:2;stroke-linecap:round;stroke-linejoin:round;stroke-miterlimit:10;}
	.st16{fill:#FFDF92;stroke:#FFDF92;stroke-width:0.1;stroke-miterlimit:10;}
	.st17{fill:#1E9BD7;}
	.st18{fill-rule:evenodd;clip-rule:evenodd;fill:#1E9BD7;}
	.st19{fill:none;stroke:#1E9BD7;stroke-width:2;stroke-linecap:round;}
	.st20{fill:none;stroke:#1E9BD7;stroke-width:2;stroke-linecap:square;}
	.st21{fill:#8DEBDF;}
	.st22{fill:none;stroke:#1E9BD7;stroke-width:2;stroke-miterlimit:10;}
	.st23{fill:none;stroke:#FFFFFF;stroke-width:2;stroke-linecap:round;stroke-linejoin:round;stroke-miterlimit:10;}
</style>
<g id="_x31_">
	<g>
		<line class="st14" x1="126.9" y1="117.2" x2="143.7" y2="134"/>
		<path class="st14" d="M124.4,100.7c0,0,0,7-6.3,11"/>
		<circle class="st14" cx="108" cy="98.1" r="25.4"/>
		<line class="st14" x1="29.8" y1="51.1" x2="119" y2="51.1"/>
		<line class="st14" x1="29.8" y1="106.2" x2="79.4" y2="106.2"/>
		<line class="st14" x1="24.3" y1="78.7" x2="84.3" y2="78.7"/>
		<path class="st14" d="M85.7,118.8c-2.7,4.4-5.9,8.6-9.9,12.4"/>
		<path class="st14" d="M75.8,26.1c0,0,17.3,15.7,20.8,43.4"/>
		<path class="st14" d="M73.1,26.1c0,0-21.2,19.1-21.3,52.5c0,0,0,32.5,21.3,52.5"/>
		<path class="st14" d="M98,125.6c-7.1,3.6-15.1,5.6-23.6,5.6c-29,0-52.5-23.5-52.5-52.5s23.5-52.5,52.5-52.5
			c28.1,0,51,22,52.4,49.7"/>
	</g>
</g>
<g id="_x31__x2B_">
</g>
<g id="圖層_4">
</g>
<g id="_x32_">
</g>
</svg>
