<?xml version="1.0" encoding="utf-8"?>
<!-- Generator: Adobe Illustrator 25.3.1, SVG Export Plug-In . SVG Version: 6.00 Build 0)  -->
<svg version="1.1" xmlns="http://www.w3.org/2000/svg" xmlns:xlink="http://www.w3.org/1999/xlink" x="0px" y="0px"
	 viewBox="0 0 160 160" style="enable-background:new 0 0 160 160;" xml:space="preserve">
<style type="text/css">
	.st0{fill-rule:evenodd;clip-rule:evenodd;fill:#FFFFFF;}
	.st1{opacity:0.7;}
	.st2{fill:none;stroke:#FFBF27;stroke-width:1.073;stroke-linecap:round;stroke-linejoin:round;stroke-miterlimit:10;}
	
		.st3{fill-rule:evenodd;clip-rule:evenodd;fill:none;stroke:#FFBF27;stroke-width:1.073;stroke-linecap:round;stroke-linejoin:round;stroke-miterlimit:10;}
	.st4{fill:none;stroke:#1CD8C0;stroke-width:2.0785;stroke-linecap:round;stroke-linejoin:round;stroke-miterlimit:10;}
	.st5{fill:#1E9BD7;}
	.st6{fill:none;stroke:#1E9BD7;stroke-width:1.9905;stroke-linecap:round;stroke-linejoin:round;stroke-miterlimit:10;}
	.st7{fill:#FFFFFF;}
	.st8{fill:none;stroke:#FFBF27;stroke-width:2;stroke-linecap:round;stroke-linejoin:round;stroke-miterlimit:10;}
	
		.st9{fill-rule:evenodd;clip-rule:evenodd;fill:none;stroke:#FFBF27;stroke-width:2;stroke-linecap:round;stroke-linejoin:round;stroke-miterlimit:10;}
	.st10{fill:none;}
	.st11{fill:#1CD8C0;}
	.st12{fill:none;stroke:#37B0AC;stroke-width:2;stroke-miterlimit:10;}
	.st13{fill:#FFD572;}
	.st14{fill:#FFE5A8;}
	.st15{fill:#FFBF27;}
	.st16{fill:none;stroke:#1E9BD7;stroke-width:2;stroke-linecap:round;stroke-linejoin:round;stroke-miterlimit:10;}
	.st17{fill:none;stroke:#8DEBDF;stroke-width:2;stroke-linecap:round;stroke-linejoin:round;stroke-miterlimit:10;}
	.st18{fill:#FFDF92;stroke:#FFDF92;stroke-width:0.1;stroke-miterlimit:10;}
	.st19{display:none;}
	.st20{fill-rule:evenodd;clip-rule:evenodd;fill:#1E9BD7;}
	.st21{fill:none;stroke:#1E9BD7;stroke-width:2;stroke-linecap:round;}
	.st22{fill:none;stroke:#1E9BD7;stroke-width:2;stroke-linecap:square;}
	.st23{fill:#8DEBDF;}
	.st24{fill:none;stroke:#1E9BD7;stroke-width:2;stroke-miterlimit:10;}
	.st25{fill:none;stroke:#FFFFFF;stroke-width:2;stroke-linecap:round;stroke-linejoin:round;stroke-miterlimit:10;}
</style>
<g id="_x31_">
	<line class="st8" x1="58.2" y1="127.3" x2="102.3" y2="127.3"/>
	<g>
		<line class="st8" x1="59.6" y1="126" x2="71.6" y2="89.6"/>
		<line class="st8" x1="100.9" y1="126" x2="88.9" y2="89.6"/>
		<path class="st8" d="M126.5,68h-11.7c-4.7-0.4-6.8,0.1-8-4.6c-0.1-4.7-0.1-4.7-0.1-4.7h41.1v4.6C147.7,67,144,68,144,68h-14.8
			h-1.9l0,6.6c0,0-0.1,2-2.5,2.3c-2.3,0.3-31,0-31,0"/>
		<path class="st8" d="M66,77c0,0-28.7,0.3-31,0c-2.3-0.3-2.5-2.3-2.5-2.3l0-6.6h-1.9H15.8c0,0-3.7-1.1-3.8-4.6v-4.6h41.1
			c0,0,0,0-0.1,4.7c-1.2,4.7-3.3,4.2-8,4.6H33.3"/>
		<circle class="st8" cx="79.9" cy="77.1" r="13.5"/>
		<circle class="st8" cx="79.9" cy="77.1" r="4.5"/>
		<path class="st8" d="M14.1,42.9c11.6,0,11.6-10.2,22.3-10.2s11.3,10.2,22.3,10.2c11.6,0,11.6-10.2,22.3-10.2s11.3,10.2,22.3,10.2
			c11.6,0,11.6-10.2,22.3-10.2s11.3,10.2,22.3,10.2"/>
	</g>
</g>
<g id="_x31__x2B_" class="st19">
</g>
<g id="_x32_">
</g>
</svg>
