<svg id="ae0494e1-07d3-4a66-94bd-40e4f50103e4" data-name="1" xmlns="http://www.w3.org/2000/svg" viewBox="0 0 160 160"><line x1="15" y1="142" x2="145" y2="142" style="fill:none;stroke:#1cd8c0;stroke-linecap:round;stroke-linejoin:round;stroke-width:2.07852782939841px"/><polyline points="137 142 137 108 117 108 117 126" style="fill:none;stroke:#1cd8c0;stroke-linecap:round;stroke-linejoin:round;stroke-width:2.07852782939841px"/><polyline points="109 85 126 85 126 108" style="fill:none;stroke:#1cd8c0;stroke-linecap:round;stroke-linejoin:round;stroke-width:2.07852782939841px"/><polyline points="49 99 26 99 26 142" style="fill:none;stroke:#1cd8c0;stroke-linecap:round;stroke-linejoin:round;stroke-width:2.07852782939841px"/><line x1="79" y1="18" x2="79" y2="26" style="fill:none;stroke:#1cd8c0;stroke-linecap:round;stroke-linejoin:round;stroke-width:2.07852782939841px"/><polyline points="75 42 75 26 83 26 83 42" style="fill:none;stroke:#1cd8c0;stroke-linecap:round;stroke-linejoin:round;stroke-width:2.07852782939841px"/><polyline points="68 49 68 42 90 42 90 49" style="fill:none;stroke:#1cd8c0;stroke-linecap:round;stroke-linejoin:round;stroke-width:2.07852782939841px"/><polyline points="63 66 63 50 95 50 95 66" style="fill:none;stroke:#1cd8c0;stroke-linecap:round;stroke-linejoin:round;stroke-width:2.07852782939841px"/><line x1="62" y1="78" x2="62" y2="105" style="fill:none;stroke:#1cd8c0;stroke-linecap:round;stroke-linejoin:round;stroke-width:2.07852782939841px"/><line x1="72" y1="75" x2="72" y2="117" style="fill:none;stroke:#1cd8c0;stroke-linecap:round;stroke-linejoin:round;stroke-width:2.07852782939841px"/><line x1="95" y1="77" x2="95" y2="104" style="fill:none;stroke:#1cd8c0;stroke-linecap:round;stroke-linejoin:round;stroke-width:2.07852782939841px"/><line x1="84" y1="75" x2="84" y2="117" style="fill:none;stroke:#1cd8c0;stroke-linecap:round;stroke-linejoin:round;stroke-width:2.07852782939841px"/><polyline points="107 120 107 67 84 67" style="fill:none;stroke:#1cd8c0;stroke-linecap:round;stroke-linejoin:round;stroke-width:2.07852782939841px"/><polyline points="51 120 51 67 74 67" style="fill:none;stroke:#1cd8c0;stroke-linecap:round;stroke-linejoin:round;stroke-width:2.07852782939841px"/><polyline points="45 128 45 121 112 121 112 128" style="fill:none;stroke:#1cd8c0;stroke-linecap:round;stroke-linejoin:round;stroke-width:2.07852782939841px"/><polyline points="36 142 36 131 67 131 123 131 123 142" style="fill:none;stroke:#1cd8c0;stroke-linecap:round;stroke-linejoin:round;stroke-width:2.07852782939841px"/></svg>