<svg xmlns="http://www.w3.org/2000/svg" xmlns:xlink="http://www.w3.org/1999/xlink" viewBox="0 0 491 649.28"><defs><style>.cls-1{fill:#fff;}.cls-2,.cls-3,.cls-6{fill:none;stroke-linecap:round;stroke-linejoin:round;stroke-width:3px;}.cls-2{stroke:#1e9bd7;}.cls-3{stroke:#fcba17;}.cls-4{isolation:isolate;}.cls-5{mask:url(#mask);}.cls-6{stroke:#fff;}</style><mask id="mask" x="0" y="-1.67" width="491" height="650.94" maskUnits="userSpaceOnUse"><rect class="cls-1" x="99.36" y="-1.67" width="375.81" height="143.77"/></mask></defs><title>資產 42</title><g id="圖層_2" data-name="圖層 2"><g id="sandwich"><line class="cls-2" x1="283.17" y1="622.73" x2="282.97" y2="647.78"/><line class="cls-2" x1="353.78" y1="389.15" x2="353.31" y2="463.27"/><line class="cls-2" x1="353.63" y1="478.86" x2="353.46" y2="504.83"/><line class="cls-2" x1="89.17" y1="192.44" x2="158.39" y2="152.21"/><line class="cls-3" x1="274.83" y1="166.67" x2="223.23" y2="196.66"/><polyline class="cls-2" points="141.88 451.9 212.31 410.97 283.2 451.9"/><line class="cls-2" x1="283.17" y1="463.27" x2="282.97" y2="608.82"/><polyline class="cls-2" points="157.29 460.8 212.77 492.83 212.54 574.29"/><line class="cls-2" x1="141.69" y1="515.92" x2="141.88" y2="451.9"/><polyline class="cls-2" points="283.38 242.57 212.94 283.5 142.05 242.57"/><polyline class="cls-2" points="283.31 267.2 283.15 324.04 231.74 353.91"/><line class="cls-3" x1="141.82" y1="315.49" x2="141.9" y2="294.83"/><line class="cls-2" x1="212.94" y1="283.5" x2="212.71" y2="364.97"/><line class="cls-2" x1="141.98" y1="264.82" x2="142.05" y2="242.57"/><polyline class="cls-2" points="353.44 201.64 424.33 242.57 353.9 283.5 283 242.57"/><polygon class="cls-2" points="424.33 242.57 424.1 324.04 353.67 364.97 353.9 283.5 424.33 242.57"/><g class="cls-4"><polygon class="cls-2" points="353.66 120.6 283.22 161.54 212.33 120.6 282.76 79.67 353.66 120.6"/><polyline class="cls-2" points="282.99 243 283.22 161.54 353.66 120.6 353.43 202.07"/><polygon class="cls-2" points="283.22 161.54 282.99 243 212.09 202.07 212.33 120.6 283.22 161.54"/></g><g class="cls-4"><line class="cls-2" x1="267.43" y1="5.53" x2="213.06" y2="37.12"/><line class="cls-2" x1="151.36" y1="1.5" x2="213.06" y2="37.12"/><line class="cls-2" x1="183.57" y1="101.69" x2="141.93" y2="77.66"/></g><line class="cls-2" x1="57.5" y1="297.38" x2="112.55" y2="264.82"/><polyline class="cls-2" points="124.62 271.79 183.44 305.75 113.88 346.9"/><polyline class="cls-2" points="183.4 322.89 183.21 387.22 112.78 428.15"/><polyline class="cls-2" points="112.96 361.83 112.78 428.15 53.96 394.19"/><line class="cls-2" x1="283.48" y1="1.5" x2="283.28" y2="72.35"/><line class="cls-2" x1="424.39" y1="126.11" x2="424.19" y2="196.96"/><line class="cls-2" x1="424.39" y1="1.5" x2="424.19" y2="72.35"/><line class="cls-2" x1="57.5" y1="210.84" x2="77.44" y2="199.25"/><line class="cls-3" x1="283.46" y1="95.98" x2="283.3" y2="152.21"/><line class="cls-3" x1="212.54" y1="270.41" x2="212.77" y2="216.54"/><line class="cls-2" x1="204.39" y1="207.61" x2="156.21" y2="235.61"/><line class="cls-2" x1="212.54" y1="106.61" x2="212.77" y2="52.73"/><line class="cls-2" x1="292.83" y1="166.65" x2="353.44" y2="201.64"/><line class="cls-2" x1="293.28" y1="236.6" x2="343.16" y2="207.61"/><line class="cls-3" x1="353.71" y1="216.54" x2="353.38" y2="268.35"/><line class="cls-3" x1="340.17" y1="290.9" x2="297.85" y2="315.49"/><line class="cls-3" x1="414.17" y1="318.3" x2="367.5" y2="291.36"/><line class="cls-2" x1="414.17" y1="396.12" x2="367.5" y2="369.18"/><line class="cls-2" x1="438.89" y1="499.47" x2="367.5" y2="458.26"/><line class="cls-2" x1="329.66" y1="349.83" x2="282.99" y2="322.89"/><line class="cls-2" x1="489.5" y1="361.79" x2="435.5" y2="330.62"/><line class="cls-2" x1="364.06" y1="195.47" x2="435.5" y2="153.95"/><line class="cls-2" x1="294.9" y1="72.35" x2="353.67" y2="38.2"/><line class="cls-2" x1="448.25" y1="146.54" x2="463.5" y2="137.68"/><line class="cls-2" x1="212.59" y1="409.59" x2="212.71" y2="382.65"/><line class="cls-3" x1="212.54" y1="474.16" x2="212.76" y2="422.48"/><line class="cls-2" x1="156.21" y1="210.84" x2="85.67" y2="170.12"/><line class="cls-2" x1="309.36" y1="436.43" x2="225.5" y2="485.17"/><line class="cls-2" x1="191.67" y1="504.83" x2="118.27" y2="547.48"/><line class="cls-2" x1="343.16" y1="371.08" x2="283.31" y2="405.86"/><line class="cls-2" x1="99.36" y1="355.15" x2="23.83" y2="399.04"/><line class="cls-2" x1="11.48" y1="406.22" x2="1.5" y2="412.02"/><line class="cls-2" x1="89.09" y1="474.16" x2="89.25" y2="433.65"/><line class="cls-2" x1="112.39" y1="511.09" x2="112.7" y2="456.74"/><line class="cls-3" x1="269.19" y1="314.92" x2="225.5" y2="289.7"/><line class="cls-2" x1="318.38" y1="463.27" x2="318.06" y2="575.29"/><line class="cls-2" x1="455.88" y1="432.88" x2="390.83" y2="470.68"/><line class="cls-2" x1="367.5" y1="112.56" x2="404.9" y2="90.83"/><line class="cls-2" x1="240.24" y1="55.12" x2="269.19" y2="71.84"/><g class="cls-5"><line class="cls-6" x1="283.17" y1="622.73" x2="282.97" y2="647.78"/><line class="cls-6" x1="353.78" y1="389.15" x2="353.31" y2="463.27"/><line class="cls-6" x1="353.63" y1="478.86" x2="353.46" y2="504.83"/><line class="cls-6" x1="89.17" y1="192.44" x2="158.39" y2="152.21"/><line class="cls-6" x1="274.83" y1="166.67" x2="223.23" y2="196.66"/><polyline class="cls-6" points="141.88 451.9 212.31 410.97 283.2 451.9"/><line class="cls-6" x1="283.17" y1="463.27" x2="282.97" y2="608.82"/><polyline class="cls-6" points="157.29 460.8 212.77 492.83 212.54 574.29"/><line class="cls-6" x1="141.69" y1="515.92" x2="141.88" y2="451.9"/><polyline class="cls-6" points="283.38 242.57 212.94 283.5 142.05 242.57"/><polyline class="cls-6" points="283.31 267.2 283.15 324.04 231.74 353.91"/><line class="cls-6" x1="141.82" y1="315.49" x2="141.9" y2="294.83"/><line class="cls-6" x1="212.94" y1="283.5" x2="212.71" y2="364.97"/><line class="cls-6" x1="141.98" y1="264.82" x2="142.05" y2="242.57"/><polyline class="cls-6" points="353.44 201.64 424.33 242.57 353.9 283.5 283 242.57"/><polygon class="cls-6" points="424.33 242.57 424.1 324.04 353.67 364.97 353.9 283.5 424.33 242.57"/><g class="cls-4"><polygon class="cls-6" points="353.66 120.6 283.22 161.54 212.33 120.6 282.76 79.67 353.66 120.6"/><polyline class="cls-6" points="282.99 243 283.22 161.54 353.66 120.6 353.43 202.07"/><polygon class="cls-6" points="283.22 161.54 282.99 243 212.09 202.07 212.33 120.6 283.22 161.54"/></g><g class="cls-4"><line class="cls-6" x1="267.43" y1="5.53" x2="213.06" y2="37.12"/><line class="cls-6" x1="151.36" y1="1.5" x2="213.06" y2="37.12"/><line class="cls-6" x1="183.57" y1="101.69" x2="141.93" y2="77.66"/></g><line class="cls-6" x1="57.5" y1="297.38" x2="112.55" y2="264.82"/><polyline class="cls-6" points="124.62 271.79 183.44 305.75 113.88 346.9"/><polyline class="cls-6" points="183.4 322.89 183.21 387.22 112.78 428.15"/><polyline class="cls-6" points="112.96 361.83 112.78 428.15 53.96 394.19"/><line class="cls-6" x1="283.48" y1="1.5" x2="283.28" y2="72.35"/><line class="cls-6" x1="424.39" y1="126.11" x2="424.19" y2="196.96"/><line class="cls-6" x1="424.39" y1="1.5" x2="424.19" y2="72.35"/><line class="cls-6" x1="57.5" y1="210.84" x2="77.44" y2="199.25"/><line class="cls-6" x1="283.46" y1="95.98" x2="283.3" y2="152.21"/><line class="cls-6" x1="212.54" y1="270.41" x2="212.77" y2="216.54"/><line class="cls-6" x1="204.39" y1="207.61" x2="156.21" y2="235.61"/><line class="cls-6" x1="212.54" y1="106.61" x2="212.77" y2="52.73"/><line class="cls-6" x1="292.83" y1="166.65" x2="353.44" y2="201.64"/><line class="cls-6" x1="293.28" y1="236.6" x2="343.16" y2="207.61"/><line class="cls-6" x1="353.71" y1="216.54" x2="353.38" y2="268.35"/><line class="cls-6" x1="340.17" y1="290.9" x2="297.85" y2="315.49"/><line class="cls-6" x1="414.17" y1="318.3" x2="367.5" y2="291.36"/><line class="cls-6" x1="414.17" y1="396.12" x2="367.5" y2="369.18"/><line class="cls-6" x1="438.89" y1="499.47" x2="367.5" y2="458.26"/><line class="cls-6" x1="329.66" y1="349.83" x2="282.99" y2="322.89"/><line class="cls-6" x1="489.5" y1="361.79" x2="435.5" y2="330.62"/><line class="cls-6" x1="364.06" y1="195.47" x2="435.5" y2="153.95"/><line class="cls-6" x1="294.9" y1="72.35" x2="353.67" y2="38.2"/><line class="cls-6" x1="448.25" y1="146.54" x2="463.5" y2="137.68"/><line class="cls-6" x1="212.59" y1="409.59" x2="212.71" y2="382.65"/><line class="cls-6" x1="212.54" y1="474.16" x2="212.76" y2="422.48"/><line class="cls-6" x1="156.21" y1="210.84" x2="85.67" y2="170.12"/><line class="cls-6" x1="309.36" y1="436.43" x2="225.5" y2="485.17"/><line class="cls-6" x1="191.67" y1="504.83" x2="118.27" y2="547.48"/><line class="cls-6" x1="343.16" y1="371.08" x2="283.31" y2="405.86"/><line class="cls-6" x1="99.36" y1="355.15" x2="23.83" y2="399.04"/><line class="cls-6" x1="11.48" y1="406.22" x2="1.5" y2="412.02"/><line class="cls-6" x1="89.09" y1="474.16" x2="89.25" y2="433.65"/><line class="cls-6" x1="112.39" y1="511.09" x2="112.7" y2="456.74"/><line class="cls-6" x1="269.19" y1="314.92" x2="225.5" y2="289.7"/><line class="cls-6" x1="318.38" y1="463.27" x2="318.06" y2="575.29"/><line class="cls-6" x1="455.88" y1="432.88" x2="390.83" y2="470.68"/><line class="cls-6" x1="367.5" y1="112.56" x2="404.9" y2="90.83"/><line class="cls-6" x1="240.24" y1="55.12" x2="269.19" y2="71.84"/></g></g></g></svg>