<?xml version="1.0" encoding="utf-8"?>
<!-- Generator: Adobe Illustrator 23.0.3, SVG Export Plug-In . SVG Version: 6.00 Build 0)  -->
<svg version="1.0" id="圖層_1" xmlns="http://www.w3.org/2000/svg" xmlns:xlink="http://www.w3.org/1999/xlink" x="0px" y="0px"
	 viewBox="0 0 79 58" enable-background="new 0 0 79 58" xml:space="preserve">
<path fill="#FFFFFF" d="M22,23.9c0.9-7.6,6.4-12.8,10.9-14.1c0.3-0.1,0.5-0.5,0.3-0.8l-2.4-5.1c-0.1-0.2-0.3-0.3-0.6-0.3
	c-14,2.6-30,18.1-25.8,38c0,0.1,0.1,0.3,0.1,0.4c0,0.1,0,0.1,0,0.2l0,0c1.6,6.7,7.7,11.6,15.1,11.6c8.6,0,15.5-6.7,15.5-15
	C35.1,31.3,29.4,25,22,23.9z"/>
<path fill="#FFFFFF" d="M61.9,23.9c0.9-7.6,6.4-12.8,10.9-14.1c0.3-0.1,0.5-0.5,0.3-0.8l-2.4-5.1c-0.1-0.2-0.3-0.3-0.6-0.3
	c-14,2.6-30,18.1-25.8,38c0,0.1,0.1,0.3,0.1,0.4c0,0.1,0,0.1,0,0.2l0,0c1.6,6.7,7.7,11.6,15.1,11.6c8.6,0,15.5-6.7,15.5-15
	C75.1,31.3,69.4,25,61.9,23.9z"/>
</svg>
