<!--?xml version="1.0" encoding="utf-8"?-->
<!-- Generator: Adobe Illustrator 23.0.3, SVG Export Plug-In . SVG Version: 6.00 Build 0)  -->
<svg version="1.0" id="圖層_1" xmlns="http://www.w3.org/2000/svg" xmlns:xlink="http://www.w3.org/1999/xlink" x="0px" y="0px" viewBox="0 0 130 130" enable-background="new 0 0 130 130" xml:space="preserve" style="">
<path fill="none" stroke="#B1C425" stroke-width="2" stroke-linecap="round" stroke-linejoin="round" stroke-miterlimit="10" d="
	M35.8,85.3c-2.5-8.5-5.9-16.4-9.7-16.4c-0.1,0-0.3,0-0.4,0c-0.2,0-0.3,0-0.5,0V69c-7.2,2.4-11.8,30.7-11.8,35.1
	c0,4.2,4.1,8.8,10.7,9.4V130H7.3" class="wZbuAWsc_0"></path>
<path fill="none" stroke="#B1C425" stroke-width="2" stroke-linecap="round" stroke-linejoin="round" stroke-miterlimit="10" d="
	M38.3,93.4c1.7,7,1.5,9.4,1.5,11.3c0,2.1-3.2,8.4-9.1,8.4h-0.2V130h18.8V37.1h54.4V130h19.1" class="wZbuAWsc_1"></path>
<path fill="none" stroke="#B1C425" stroke-width="2" stroke-linecap="round" stroke-linejoin="round" stroke-miterlimit="10" d="M60.4,83L92.1,83" class="wZbuAWsc_2"></path>
<path fill="none" stroke="#B1C425" stroke-width="2" stroke-linecap="round" stroke-linejoin="round" stroke-miterlimit="10" d="M60.4,95L92.1,95" class="wZbuAWsc_3"></path>
<path fill="none" stroke="#B1C425" stroke-width="2" stroke-linecap="round" stroke-linejoin="round" stroke-miterlimit="10" d="M60.4,107.1L92.1,107.1" class="wZbuAWsc_4"></path>
<path fill="none" stroke="#B1C425" stroke-width="2" stroke-linecap="round" stroke-linejoin="round" stroke-miterlimit="10" d="M60.4,120.1L92.1,120.1" class="wZbuAWsc_5"></path>
<path fill="none" stroke="#B1C425" stroke-width="2" stroke-linecap="round" stroke-linejoin="round" stroke-miterlimit="10" d="M60.7,34.1L60.7,22.6L91.7,22.6L91.7,34.1" class="wZbuAWsc_6"></path>
<path fill="none" stroke="#B1C425" stroke-width="2" stroke-linecap="round" stroke-linejoin="round" stroke-miterlimit="10" d="M76.2,20.1L76.2,10.6" class="wZbuAWsc_7"></path>
<path fill="none" stroke="#55469B" stroke-width="2" stroke-linecap="round" stroke-linejoin="round" stroke-miterlimit="10" d="M80.2,68.1L59,68.1L59,48.8L93.5,48.8L93.5,68.1L88.4,68.1" class="wZbuAWsc_8"></path>
<style data-made-with="vivus-instant">.wZbuAWsc_0{stroke-dasharray:108 110;stroke-dashoffset:109;animation:wZbuAWsc_draw 666ms linear 0ms forwards;}.wZbuAWsc_1{stroke-dasharray:321 323;stroke-dashoffset:322;animation:wZbuAWsc_draw 666ms linear 41ms forwards;}.wZbuAWsc_2{stroke-dasharray:32 34;stroke-dashoffset:33;animation:wZbuAWsc_draw 666ms linear 83ms forwards;}.wZbuAWsc_3{stroke-dasharray:32 34;stroke-dashoffset:33;animation:wZbuAWsc_draw 666ms linear 125ms forwards;}.wZbuAWsc_4{stroke-dasharray:32 34;stroke-dashoffset:33;animation:wZbuAWsc_draw 666ms linear 166ms forwards;}.wZbuAWsc_5{stroke-dasharray:32 34;stroke-dashoffset:33;animation:wZbuAWsc_draw 666ms linear 208ms forwards;}.wZbuAWsc_6{stroke-dasharray:54 56;stroke-dashoffset:55;animation:wZbuAWsc_draw 666ms linear 250ms forwards;}.wZbuAWsc_7{stroke-dasharray:10 12;stroke-dashoffset:11;animation:wZbuAWsc_draw 666ms linear 291ms forwards;}.wZbuAWsc_8{stroke-dasharray:100 102;stroke-dashoffset:101;animation:wZbuAWsc_draw 666ms linear 333ms forwards;}@keyframes wZbuAWsc_draw{100%{stroke-dashoffset:0;}}@keyframes wZbuAWsc_fade{0%{stroke-opacity:1;}92.3076923076923%{stroke-opacity:1;}100%{stroke-opacity:0;}}</style></svg>
