<!--?xml version="1.0" encoding="utf-8"?-->
<!-- Generator: Adobe Illustrator 23.0.3, SVG Export Plug-In . SVG Version: 6.00 Build 0)  -->
<svg version="1.0" id="圖層_1" xmlns="http://www.w3.org/2000/svg" xmlns:xlink="http://www.w3.org/1999/xlink" x="0px" y="0px" viewBox="0 0 130 130" enable-background="new 0 0 130 130" xml:space="preserve" style="">
<path fill="none" stroke="#B1C425" stroke-width="2" stroke-linecap="round" stroke-linejoin="round" stroke-miterlimit="10" d="
	M20.8,23.3c-0.7-1.1-1.2-2.1-1.3-3.1c-0.1-1,0.1-2,0.6-3.1c0.5-1.1,1.2-2.4,2.3-3.9c0.9-1.4,1.9-2.5,2.8-3.2c0.9-0.8,2-1.2,3.1-1.4
	c1.1-0.1,2.4,0.1,3.9,0.6c1.4,0.6,3.1,1.5,5,2.8c1.2,0.8,2.5,1.8,3.8,2.9c1.3,1.1,2.6,2.4,4,3.7l-4.2,4.8c-1.4-1.4-2.6-2.5-3.7-3.4
	c-1.1-0.9-2.2-1.8-3.5-2.6c-0.7-0.5-1.3-0.8-1.8-1.1c-0.5-0.2-0.9-0.3-1.3-0.3c-0.4,0-0.7,0.2-1.1,0.4c-0.3,0.3-0.7,0.6-1,1.1
	c-0.5,0.7-0.8,1.2-1,1.6c-0.2,0.4-0.2,0.8-0.1,1.3c0.1,0.4,0.4,1,0.9,1.5c0.5,0.6,1.2,1.4,2.1,2.4c1.6,1.7,2.7,3.2,3.4,4.3
	c0.7,1.2,1.2,2.3,1.3,3.2c0.1,1-0.1,2-0.6,3c-0.5,1-1.2,2.2-2.2,3.5c-1,1.4-1.9,2.5-2.9,3.3c-1,0.8-2.1,1.3-3.3,1.5
	c-1.2,0.2-2.6,0-4.2-0.6c-1.5-0.6-3.4-1.6-5.4-3c-1.6-1.1-3.1-2.4-4.5-3.8s-2.4-2.8-3.3-4.2l4.4-4.1c1,1.3,2.1,2.5,3.2,3.6
	c1.1,1.1,2.4,2.2,3.9,3.2c0.8,0.5,1.5,1,2,1.2c0.6,0.3,1.1,0.4,1.5,0.3c0.4,0,0.8-0.2,1.2-0.5c0.4-0.3,0.7-0.8,1.1-1.3
	c0.4-0.6,0.7-1.1,0.9-1.6c0.2-0.4,0.2-0.9,0.1-1.3c-0.1-0.5-0.4-1-0.9-1.6c-0.3-0.4-0.6-0.8-1.1-1.3" class="HUJpeFMQ_0"></path>
<path fill="none" stroke="#55469B" stroke-width="2" stroke-linecap="round" stroke-linejoin="round" stroke-miterlimit="10" d="
	M51.6,53.9l-10-21.5l6.1-2.8 M53.4,26.9c1.9-0.9,3.5-1.4,5.1-1.6c1.5-0.2,2.9-0.1,4,0.3c1.2,0.3,2.1,0.9,3,1.7
	c0.8,0.8,1.4,1.7,1.9,2.7l6.8,14.6c0.5,1,0.7,2.1,0.8,3.2c0.1,1.1-0.1,2.3-0.6,3.4c-0.2,0.5-0.5,1-0.9,1.5 M63.9,51.7
	c1.7-0.8,2.7-1.6,3-2.5c0.3-0.9,0.1-1.9-0.4-3.1l-5.1-10.9c-0.6-1.2-1.3-2-2.1-2.3c-0.9-0.4-2.1-0.2-3.9,0.6l-4.1,1.9l6.5,14" class="HUJpeFMQ_1"></path>
<path fill="none" stroke="#B1C425" stroke-width="2" stroke-linecap="round" stroke-linejoin="round" stroke-miterlimit="10" d="
	M75.2,27.7c-0.7-1.2-1-2.5-1.1-3.8c-0.1-1.4,0.1-2.8,0.6-4.2l4.6-13.2c0.5-1.5,1.2-2.7,2.1-3.7c0.9-1,2-1.8,3.3-2.3
	C86,0,87.4-0.3,89-0.2c1.6,0,3.4,0.4,5.3,1.1C96.2,1.5,98,2.2,99.7,3c1.7,0.8,3.2,1.6,4.5,2.3l-3,5.9c-0.7-0.3-1.4-0.7-2.2-1.1
	c-0.8-0.4-1.6-0.8-2.4-1.1c-0.8-0.4-1.6-0.7-2.4-1c-0.8-0.3-1.4-0.6-2-0.8c-0.9-0.3-1.7-0.5-2.3-0.4c-0.7,0-1.2,0.2-1.7,0.4
	c-0.5,0.3-0.9,0.6-1.2,1.1c-0.3,0.5-0.6,1-0.8,1.6L82.3,21c-0.2,0.6-0.4,1.2-0.4,1.8c-0.1,0.6,0,1.1,0.2,1.7c0.2,0.5,0.5,1,1,1.5
	c0.5,0.4,1.2,0.8,2.1,1.1c0.7,0.3,1.4,0.5,2,0.6c0.6,0.2,1.4,0.4,2.3,0.5l3.4-9.7l6.7,2.3l-5.2,14.9c-1.9-0.1-3.9-0.3-5.8-0.7
	c-1.9-0.4-3.8-0.9-5.7-1.6c-1.4-0.5-2.7-1.1-3.8-1.8" class="HUJpeFMQ_2"></path>
<path fill="none" stroke="#B1C425" stroke-width="2" stroke-linecap="round" stroke-linejoin="round" stroke-miterlimit="10" d="
	M114.4,41.9c0.6,0.8,0.9,1.5,1.1,2.2c0.1,0.7,0,1.4-0.3,2.1c-0.3,0.7-0.7,1.5-1.3,2.4c-0.6,1-1.2,1.8-1.9,2.4
	c-0.7,0.6-1.4,1-2.3,1.2c-0.8,0.2-1.8,0.2-2.9-0.1c-1.1-0.3-2.3-0.8-3.6-1.6c-0.5-0.3-1.1-0.7-1.6-1.1c-0.6-0.4-1.1-0.9-1.7-1.3
	c-0.6-0.4-1.1-0.9-1.6-1.4c-0.5-0.5-0.9-0.9-1.3-1.4l3.3-3.6c0.6,0.7,1.4,1.4,2.3,2.2c0.9,0.7,1.9,1.4,2.9,2.1
	c0.8,0.5,1.4,0.7,1.8,0.6c0.4-0.1,0.7-0.4,1.1-1c0.2-0.3,0.3-0.6,0.4-0.8c0.1-0.2,0-0.4-0.1-0.7c-0.1-0.3-0.3-0.6-0.7-0.9
	c-0.3-0.4-0.8-0.9-1.5-1.5c-1-1-1.7-1.8-2.2-2.5c-0.5-0.7-0.8-1.4-0.8-2c-0.1-0.6,0-1.3,0.3-2c0.3-0.7,0.7-1.4,1.2-2.3
	c0.6-1,1.2-1.8,1.9-2.4c0.6-0.6,1.4-0.9,2.2-1.1c0.8-0.1,1.7,0,2.8,0.3c1.1,0.3,2.3,0.9,3.7,1.8c0.4,0.2,0.8,0.5,1.2,0.8
	c0.5,0.3,0.9,0.6,1.4,1c0.5,0.4,1,0.7,1.5,1.1c0.5,0.4,0.9,0.7,1.2,1.1l-3.1,4c-0.7-0.6-1.5-1.3-2.4-2c-0.9-0.7-1.7-1.2-2.4-1.7
	c-0.8-0.5-1.4-0.7-1.8-0.7c-0.4,0.1-0.7,0.3-1,0.7c-0.2,0.3-0.3,0.5-0.4,0.7c-0.1,0.2-0.1,0.4,0,0.6c0.1,0.2,0.3,0.5,0.5,0.8
	c0.3,0.3,0.6,0.7,1.1,1.1" class="HUJpeFMQ_3"></path>
<path fill="none" stroke="#B1C425" stroke-width="2" stroke-linecap="round" stroke-linejoin="round" stroke-miterlimit="10" d="M15.4,66.1L104.5,66.1" class="HUJpeFMQ_4"></path>
<path fill="none" stroke="#B1C425" stroke-width="2" stroke-linecap="round" stroke-linejoin="round" stroke-miterlimit="10" d="M25.1,76.6L15.4,66.1L15.4,56.6L114.6,56.6L114.6,66.1L73.2,104.6" class="HUJpeFMQ_5"></path>
<path fill="none" stroke="#B1C425" stroke-width="2" stroke-linecap="round" stroke-linejoin="round" stroke-miterlimit="10" d="M72.5,105.6L72.4,130.2L56.2,123.6L56.2,105.6L33.1,83.9" class="HUJpeFMQ_6"></path>
<style data-made-with="vivus-instant">.HUJpeFMQ_0{stroke-dasharray:145 147;stroke-dashoffset:146;animation:HUJpeFMQ_draw 666ms linear 0ms forwards;}.HUJpeFMQ_1{stroke-dasharray:118 120;stroke-dashoffset:119;animation:HUJpeFMQ_draw 666ms linear 55ms forwards;}.HUJpeFMQ_2{stroke-dasharray:149 151;stroke-dashoffset:150;animation:HUJpeFMQ_draw 666ms linear 111ms forwards;}.HUJpeFMQ_3{stroke-dasharray:96 98;stroke-dashoffset:97;animation:HUJpeFMQ_draw 666ms linear 166ms forwards;}.HUJpeFMQ_4{stroke-dasharray:90 92;stroke-dashoffset:91;animation:HUJpeFMQ_draw 666ms linear 222ms forwards;}.HUJpeFMQ_5{stroke-dasharray:190 192;stroke-dashoffset:191;animation:HUJpeFMQ_draw 666ms linear 277ms forwards;}.HUJpeFMQ_6{stroke-dasharray:92 94;stroke-dashoffset:93;animation:HUJpeFMQ_draw 666ms linear 333ms forwards;}@keyframes HUJpeFMQ_draw{100%{stroke-dashoffset:0;}}@keyframes HUJpeFMQ_fade{0%{stroke-opacity:1;}92.3076923076923%{stroke-opacity:1;}100%{stroke-opacity:0;}}</style></svg>
