<!--?xml version="1.0" encoding="utf-8"?-->
<!-- Generator: Adobe Illustrator 23.0.3, SVG Export Plug-In . SVG Version: 6.00 Build 0)  -->
<svg version="1.0" id="圖層_1" xmlns="http://www.w3.org/2000/svg" xmlns:xlink="http://www.w3.org/1999/xlink" x="0px" y="0px" viewBox="0 0 130 130" enable-background="new 0 0 130 130" xml:space="preserve" style="">
<path fill="none" stroke="#B1C425" stroke-width="2" stroke-linecap="round" stroke-linejoin="round" stroke-miterlimit="10" d="
	M74.2,115.8c9.3,2.1,17.4,7.2,23.3,14.2l29.3,0" class="xANnQmrm_0"></path>
<path fill="none" stroke="#B1C425" stroke-width="2" stroke-linecap="round" stroke-linejoin="round" stroke-miterlimit="10" d="
	M3.2,130l29.3,0c7.8-9.3,19.5-15.2,32.5-15.2l0-39.4" class="xANnQmrm_1"></path>
<path fill="none" stroke="#55469B" stroke-width="2" stroke-linecap="round" stroke-linejoin="round" stroke-miterlimit="10" d="
	M12.6,36.2c0,0,23.6-3.7,36.9,7.9c11.9,10.4,11.3,22.9,11.3,22.9s-14.2,6.7-27.5-1.8c-8.1-5.2-14-14.9-17.4-21.6" class="xANnQmrm_2"></path>
<path fill="none" stroke="#B1C425" stroke-width="2" stroke-linecap="round" stroke-linejoin="round" stroke-miterlimit="10" d="
	M122.3,17.7c-1.1,11.2-5.1,28.2-17.9,39.6c-15.6,13.9-35.8,9.9-35.8,9.9s-3.8-17.7,9.8-35.6c13.9-18.4,44.3-25.3,44.3-25.3" class="xANnQmrm_3"></path>
<path fill="none" stroke="#B1C425" stroke-width="2" stroke-linecap="round" stroke-linejoin="round" stroke-miterlimit="10" d="M75.9,60.7L113.9,17.6" class="xANnQmrm_4"></path>
<path fill="none" stroke="#55469B" stroke-width="2" stroke-linecap="round" stroke-linejoin="round" stroke-miterlimit="10" d="M54.1,62.5L21.7,41.3" class="xANnQmrm_5"></path>
<style data-made-with="vivus-instant">.xANnQmrm_0{stroke-dasharray:58 60;stroke-dashoffset:59;animation:xANnQmrm_draw 666ms linear 0ms forwards;}.xANnQmrm_1{stroke-dasharray:106 108;stroke-dashoffset:107;animation:xANnQmrm_draw 666ms linear 66ms forwards;}.xANnQmrm_2{stroke-dasharray:122 124;stroke-dashoffset:123;animation:xANnQmrm_draw 666ms linear 133ms forwards;}.xANnQmrm_3{stroke-dasharray:173 175;stroke-dashoffset:174;animation:xANnQmrm_draw 666ms linear 199ms forwards;}.xANnQmrm_4{stroke-dasharray:58 60;stroke-dashoffset:59;animation:xANnQmrm_draw 666ms linear 266ms forwards;}.xANnQmrm_5{stroke-dasharray:39 41;stroke-dashoffset:40;animation:xANnQmrm_draw 666ms linear 333ms forwards;}@keyframes xANnQmrm_draw{100%{stroke-dashoffset:0;}}@keyframes xANnQmrm_fade{0%{stroke-opacity:1;}92.3076923076923%{stroke-opacity:1;}100%{stroke-opacity:0;}}</style></svg>
