<!--?xml version="1.0" encoding="utf-8"?-->
<!-- Generator: Adobe Illustrator 23.0.3, SVG Export Plug-In . SVG Version: 6.00 Build 0)  -->
<svg version="1.0" id="圖層_1" xmlns="http://www.w3.org/2000/svg" xmlns:xlink="http://www.w3.org/1999/xlink" x="0px" y="0px" viewBox="0 0 130 130" enable-background="new 0 0 130 130" xml:space="preserve" style="">
<path fill="none" stroke="#B1C425" stroke-width="2" stroke-linecap="round" stroke-linejoin="round" stroke-miterlimit="10" d="
	M50.6,75.4c-2-2.9-3.1-6.4-3.1-10.2c0-10,8.1-18.1,18.1-18.1s18.1,8.1,18.1,18.1c0,8.5-5.9,15.7-13.9,17.6" class="hWspXExA_0"></path>
<path fill="none" stroke="#B1C425" stroke-width="2" stroke-linecap="round" stroke-linejoin="round" stroke-miterlimit="10" d="
	M27.2,75.9c-2-7.4-1.9-15.5,0.8-23.3C35,31.9,57.6,20.9,78.3,28s31.7,29.7,24.6,50.4c-6.1,17.7-23.4,28.3-41.2,26.6" class="hWspXExA_1"></path>
<path fill="none" stroke="#55469B" stroke-width="2" stroke-linecap="round" stroke-linejoin="round" stroke-miterlimit="10" d="
	M66.8,62l-18,36.2L37.4,80.7l-10.3,20.6l-13-19.7l-17,33.8" class="hWspXExA_2"></path>
<path fill="none" stroke="#55469B" stroke-width="2" stroke-linecap="round" stroke-linejoin="round" stroke-miterlimit="10" d="
	M60.6,64l6.2-2l2.3,6" class="hWspXExA_3"></path>
<path fill="none" stroke="#B1C425" stroke-width="2" stroke-linecap="round" stroke-linejoin="round" stroke-miterlimit="10" d="
	M111.3,24.1c10.1,11.3,16.1,26.5,15.6,42.9c-1.1,33.9-29.4,60.4-63.3,59.3c-19.8-0.6-37.1-10.6-47.8-25.5" class="hWspXExA_4"></path>
<path fill="none" stroke="#B1C425" stroke-width="2" stroke-linecap="round" stroke-linejoin="round" stroke-miterlimit="10" d="
	M5.7,78.5c-1.1-5-1.6-10.2-1.5-15.5C5.4,29.1,33.7,2.6,67.6,3.7c12.3,0.4,23.6,4.4,33,10.9" class="hWspXExA_5"></path>
<style data-made-with="vivus-instant">.hWspXExA_0{stroke-dasharray:92 94;stroke-dashoffset:93;animation:hWspXExA_draw 666ms linear 0ms forwards;}.hWspXExA_1{stroke-dasharray:202 204;stroke-dashoffset:203;animation:hWspXExA_draw 666ms linear 66ms forwards;}.hWspXExA_2{stroke-dasharray:146 148;stroke-dashoffset:147;animation:hWspXExA_draw 666ms linear 133ms forwards;}.hWspXExA_3{stroke-dasharray:13 15;stroke-dashoffset:14;animation:hWspXExA_draw 666ms linear 199ms forwards;}.hWspXExA_4{stroke-dasharray:200 202;stroke-dashoffset:201;animation:hWspXExA_draw 666ms linear 266ms forwards;}.hWspXExA_5{stroke-dasharray:148 150;stroke-dashoffset:149;animation:hWspXExA_draw 666ms linear 333ms forwards;}@keyframes hWspXExA_draw{100%{stroke-dashoffset:0;}}@keyframes hWspXExA_fade{0%{stroke-opacity:1;}92.3076923076923%{stroke-opacity:1;}100%{stroke-opacity:0;}}</style></svg>
