<?xml version="1.0" encoding="utf-8"?>
<!-- Generator: Adobe Illustrator 25.3.1, SVG Export Plug-In . SVG Version: 6.00 Build 0)  -->
<svg version="1.1" xmlns="http://www.w3.org/2000/svg" xmlns:xlink="http://www.w3.org/1999/xlink" x="0px" y="0px"
	 viewBox="0 0 800 560" style="enable-background:new 0 0 800 560;" xml:space="preserve">
<style type="text/css">
	.st0{display:none;}
	.st1{display:inline;}
	.st2{fill:none;stroke:#A0E9DF;stroke-width:1.5;stroke-miterlimit:10;}
	.st3{fill:none;stroke:#A0E9DF;stroke-width:1.8;stroke-miterlimit:10;}
	.st4{display:inline;fill:none;stroke:#1CD8C0;stroke-width:2;stroke-miterlimit:10;}
	.st5{fill:#FFFFFF;stroke:#1CD8C0;stroke-width:1.8;stroke-miterlimit:10;}
	.st6{fill:none;stroke:#1CD7BF;stroke-width:1.8;stroke-miterlimit:10;}
	.st7{fill:#1CD7BF;}
	.st8{fill:#4E4E4E;}
	.st9{fill:#CCE5F4;}
	.st10{fill:none;stroke:#F7C13F;stroke-width:2;stroke-linecap:round;stroke-miterlimit:10;}
	.st11{fill:none;stroke:#F7C13F;stroke-width:2;stroke-linecap:round;stroke-linejoin:round;stroke-miterlimit:10;}
	.st12{fill:#CCE5F4;stroke:#F7C13F;stroke-width:0.25;stroke-miterlimit:10;}
	.st13{fill:#CCE5F4;stroke:#FFFFFF;stroke-width:0.25;stroke-miterlimit:10;}
	.st14{fill:none;stroke:#CCE5F4;stroke-width:2;stroke-linecap:round;stroke-miterlimit:10;}
	.st15{fill:none;stroke:#CCE5F4;stroke-width:2;stroke-linecap:round;stroke-linejoin:round;stroke-miterlimit:10;}
	.st16{fill:#F7C13F;}
	.st17{fill:#F6C03F;stroke:#F6C03F;stroke-width:0.25;stroke-miterlimit:10;}
	.st18{display:inline;fill:none;stroke:#F7C13F;stroke-width:2;stroke-linecap:round;stroke-linejoin:round;stroke-miterlimit:10;}
	.st19{display:inline;fill:none;stroke:#F7C13F;stroke-width:2;stroke-linecap:round;stroke-miterlimit:10;}
	.st20{fill:#FFBF27;}
	.st21{fill:#FFBF27;stroke:#FFFFFF;stroke-width:0.25;stroke-miterlimit:10;}
	.st22{font-family:'NotoSansTC-Medium-83pv-RKSJ-H';}
	.st23{font-size:22.2642px;}
	.st24{letter-spacing:1;}
</style>

<g id="flower1_1_">
	<g id="florwer2_2_">
		<g>
			<path class="st2" d="M243.8,483.1c-2.5,3-5.8,8.9,0.3,15.2c1,1,2.7,1,3.7-0.1c2.3-2.6,5.2-8.1-0.1-14.9
				C246.6,482,244.8,481.9,243.8,483.1z"/>
			<line class="st2" x1="245.7" y1="489.7" x2="245.7" y2="513.1"/>
			<path class="st2" d="M245.8,509.6c0,0,0.4-8.3,13.2-8.3"/>
			<path class="st2" d="M245.7,510.3c0,0,0.2-8.4-12.6-8.4"/>
			<path class="st2" d="M267.4,500.7c-2.9-2.7-8.6-6.3-15.2-0.5c-1.1,1-1.1,2.7-0.1,3.7c2.5,2.4,7.8,5.6,14.9,0.7
				C268.4,503.6,268.6,501.7,267.4,500.7z"/>
			<path class="st2" d="M225.2,498.6c3.3-2,9.7-4.4,14.9,2.6c0.9,1.2,0.6,2.8-0.7,3.6c-3,1.8-8.8,3.9-14.8-2.4
				C223.7,501.3,223.9,499.4,225.2,498.6z"/>
		</g>
		<g>
			<path class="st2" d="M350.7,483.1c-2.5,3-5.8,8.9,0.3,15.2c1,1,2.7,1,3.7-0.1c2.3-2.6,5.2-8.1-0.1-14.9
				C353.5,482,351.7,481.9,350.7,483.1z"/>
			<line class="st2" x1="352.6" y1="489.7" x2="352.6" y2="513.1"/>
			<path class="st2" d="M352.7,509.6c0,0,0.4-8.3,13.2-8.3"/>
			<path class="st2" d="M352.6,510.3c0,0,0.2-8.4-12.6-8.4"/>
			<path class="st2" d="M374.3,500.7c-2.9-2.7-8.6-6.3-15.2-0.5c-1.1,1-1.1,2.7-0.1,3.7c2.5,2.4,7.8,5.6,14.9,0.7
				C375.3,503.6,375.5,501.7,374.3,500.7z"/>
			<path class="st2" d="M332.1,498.6c3.3-2,9.7-4.4,14.9,2.6c0.9,1.2,0.6,2.8-0.7,3.6c-3,1.8-8.8,3.9-14.8-2.4
				C330.6,501.3,330.8,499.4,332.1,498.6z"/>
		</g>
		<g>
			<path class="st2" d="M457.6,483.1c-2.5,3-5.8,8.9,0.3,15.2c1,1,2.7,1,3.7-0.1c2.3-2.6,5.2-8.1-0.1-14.9
				C460.4,482,458.6,481.9,457.6,483.1z"/>
			<line class="st2" x1="459.5" y1="489.7" x2="459.5" y2="513.1"/>
			<path class="st2" d="M459.6,509.6c0,0,0.4-8.3,13.2-8.3"/>
			<path class="st2" d="M459.5,510.3c0,0,0.2-8.4-12.6-8.4"/>
			<path class="st2" d="M481.2,500.7c-2.9-2.7-8.6-6.3-15.2-0.5c-1.1,1-1.1,2.7-0.1,3.7c2.5,2.4,7.8,5.6,14.9,0.7
				C482.2,503.6,482.4,501.7,481.2,500.7z"/>
			<path class="st2" d="M439,498.6c3.3-2,9.7-4.4,14.9,2.6c0.9,1.2,0.6,2.8-0.7,3.6c-3,1.8-8.8,3.9-14.8-2.4
				C437.5,501.3,437.7,499.4,439,498.6z"/>
		</g>
		<g>
			<path class="st2" d="M564.5,483.1c-2.5,3-5.8,8.9,0.3,15.2c1,1,2.7,1,3.7-0.1c2.3-2.6,5.2-8.1-0.1-14.9
				C567.3,482,565.5,481.9,564.5,483.1z"/>
			<line class="st2" x1="566.4" y1="489.7" x2="566.4" y2="513.1"/>
			<path class="st2" d="M566.5,509.6c0,0,0.4-8.3,13.2-8.3"/>
			<path class="st2" d="M566.4,510.3c0,0,0.2-8.4-12.6-8.4"/>
			<path class="st2" d="M588.1,500.7c-2.9-2.7-8.6-6.3-15.2-0.5c-1.1,1-1.1,2.7-0.1,3.7c2.5,2.4,7.8,5.6,14.9,0.7
				C589.1,503.6,589.3,501.7,588.1,500.7z"/>
			<path class="st2" d="M545.9,498.6c3.3-2,9.7-4.4,14.9,2.6c0.9,1.2,0.6,2.8-0.7,3.6c-3,1.8-8.8,3.9-14.8-2.4
				C544.4,501.3,544.6,499.4,545.9,498.6z"/>
		</g>
	</g>
</g>
<g id="flower2" class="st0">
	<g id="flower1" class="st1">
		<g>
			<path class="st2" d="M297.2,483.1c-2.5,3-5.8,8.9,0.3,15.2c1,1,2.7,1,3.7-0.1c2.3-2.6,5.2-8.1-0.1-14.9
				C300.1,482,298.2,481.9,297.2,483.1z"/>
			<line class="st2" x1="299.2" y1="489.7" x2="299.2" y2="513.1"/>
			<path class="st2" d="M299.2,509.6c0,0,0.4-8.3,13.2-8.3"/>
			<path class="st2" d="M299.2,510.3c0,0,0.2-8.4-12.6-8.4"/>
			<path class="st2" d="M320.9,500.7c-2.9-2.7-8.6-6.3-15.2-0.5c-1.1,1-1.1,2.7-0.1,3.7c2.5,2.4,7.8,5.6,14.9,0.7
				C321.9,503.6,322,501.7,320.9,500.7z"/>
			<path class="st2" d="M278.7,498.6c3.3-2,9.7-4.4,14.9,2.6c0.9,1.2,0.6,2.8-0.7,3.6c-3,1.8-8.8,3.9-14.8-2.4
				C277.1,501.3,277.3,499.4,278.7,498.6z"/>
		</g>
		<g>
			<path class="st2" d="M190.3,483.1c-2.5,3-5.8,8.9,0.3,15.2c1,1,2.7,1,3.7-0.1c2.3-2.6,5.2-8.1-0.1-14.9
				C193.2,482,191.3,481.9,190.3,483.1z"/>
			<line class="st2" x1="192.3" y1="489.7" x2="192.3" y2="513.1"/>
			<path class="st2" d="M192.3,509.6c0,0,0.4-8.3,13.2-8.3"/>
			<path class="st2" d="M192.3,510.3c0,0,0.2-8.4-12.6-8.4"/>
			<path class="st2" d="M214,500.7c-2.9-2.7-8.6-6.3-15.2-0.5c-1.1,1-1.1,2.7-0.1,3.7c2.5,2.4,7.8,5.6,14.9,0.7
				C215,503.6,215.1,501.7,214,500.7z"/>
			<path class="st2" d="M171.8,498.6c3.3-2,9.7-4.4,14.9,2.6c0.9,1.2,0.6,2.8-0.7,3.6c-3,1.8-8.8,3.9-14.8-2.4
				C170.2,501.3,170.4,499.4,171.8,498.6z"/>
		</g>
		<g>
			<path class="st2" d="M404.1,483.1c-2.5,3-5.8,8.9,0.3,15.2c1,1,2.7,1,3.7-0.1c2.3-2.6,5.2-8.1-0.1-14.9
				C407,482,405.1,481.9,404.1,483.1z"/>
			<line class="st2" x1="406.1" y1="489.7" x2="406.1" y2="513.1"/>
			<path class="st2" d="M406.1,509.6c0,0,0.4-8.3,13.2-8.3"/>
			<path class="st2" d="M406.1,510.3c0,0,0.2-8.4-12.6-8.4"/>
			<path class="st2" d="M427.8,500.7c-2.9-2.7-8.6-6.3-15.2-0.5c-1.1,1-1.1,2.7-0.1,3.7c2.5,2.4,7.8,5.6,14.9,0.7
				C428.8,503.6,428.9,501.7,427.8,500.7z"/>
			<path class="st2" d="M385.6,498.6c3.3-2,9.7-4.4,14.9,2.6c0.9,1.2,0.6,2.8-0.7,3.6c-3,1.8-8.8,3.9-14.8-2.4
				C384,501.3,384.2,499.4,385.6,498.6z"/>
		</g>
		<g>
			<path class="st2" d="M511,483.1c-2.5,3-5.8,8.9,0.3,15.2c1,1,2.7,1,3.7-0.1c2.3-2.6,5.2-8.1-0.1-14.9
				C513.9,482,512,481.9,511,483.1z"/>
			<line class="st2" x1="513" y1="489.7" x2="513" y2="513.1"/>
			<path class="st2" d="M513,509.6c0,0,0.4-8.3,13.2-8.3"/>
			<path class="st2" d="M513,510.3c0,0,0.2-8.4-12.6-8.4"/>
			<path class="st2" d="M534.7,500.7c-2.9-2.7-8.6-6.3-15.2-0.5c-1.1,1-1.1,2.7-0.1,3.7c2.5,2.4,7.8,5.6,14.9,0.7
				C535.7,503.6,535.8,501.7,534.7,500.7z"/>
			<path class="st2" d="M492.5,498.6c3.3-2,9.7-4.4,14.9,2.6c0.9,1.2,0.6,2.8-0.7,3.6c-3,1.8-8.8,3.9-14.8-2.4
				C490.9,501.3,491.1,499.4,492.5,498.6z"/>
		</g>
		<g>
			<path class="st2" d="M617.9,483.1c-2.5,3-5.8,8.9,0.3,15.2c1,1,2.7,1,3.7-0.1c2.3-2.6,5.2-8.1-0.1-14.9
				C620.8,482,618.9,481.9,617.9,483.1z"/>
			<line class="st2" x1="619.9" y1="489.7" x2="619.9" y2="513.1"/>
			<path class="st2" d="M619.9,509.6c0,0,0.4-8.3,13.2-8.3"/>
			<path class="st2" d="M619.9,510.3c0,0,0.2-8.4-12.6-8.4"/>
			<path class="st2" d="M641.6,500.7c-2.9-2.7-8.6-6.3-15.2-0.5c-1.1,1-1.1,2.7-0.1,3.7c2.5,2.4,7.8,5.6,14.9,0.7
				C642.6,503.6,642.7,501.7,641.6,500.7z"/>
			<path class="st2" d="M599.4,498.6c3.3-2,9.7-4.4,14.9,2.6c0.9,1.2,0.6,2.8-0.7,3.6c-3,1.8-8.8,3.9-14.8-2.4
				C597.8,501.3,598,499.4,599.4,498.6z"/>
		</g>
	</g>
</g>

</svg>
