<?xml version="1.0" encoding="utf-8"?>
<!-- Generator: Adobe Illustrator 25.3.1, SVG Export Plug-In . SVG Version: 6.00 Build 0)  -->
<svg version="1.1" xmlns="http://www.w3.org/2000/svg" xmlns:xlink="http://www.w3.org/1999/xlink" x="0px" y="0px"
	 viewBox="0 0 800 560" style="enable-background:new 0 0 800 560;" xml:space="preserve">
<style type="text/css">
	.st0{display:none;}
	.st1{display:inline;}
	.st2{fill:none;stroke:#A0E9DF;stroke-width:1.5;stroke-miterlimit:10;}
	.st3{fill:none;stroke:#A0E9DF;stroke-width:1.8;stroke-miterlimit:10;}
	.st4{fill:none;stroke:#1CD8C0;stroke-width:2;stroke-miterlimit:10;}
	.st5{fill:#FFFFFF;stroke:#1CD8C0;stroke-width:1.8;stroke-miterlimit:10;}
	.st6{fill:none;stroke:#1CD7BF;stroke-width:1.8;stroke-miterlimit:10;}
	.st7{fill:#1CD7BF;}
	.st8{fill:#4E4E4E;}
	.st9{fill:#CCE5F4;}
	.st10{fill:none;stroke:#F7C13F;stroke-width:2;stroke-linecap:round;stroke-miterlimit:10;}
	.st11{fill:none;stroke:#F7C13F;stroke-width:2;stroke-linecap:round;stroke-linejoin:round;stroke-miterlimit:10;}
	.st12{fill:#CCE5F4;stroke:#F7C13F;stroke-width:0.25;stroke-miterlimit:10;}
	.st13{fill:#CCE5F4;stroke:#FFFFFF;stroke-width:0.25;stroke-miterlimit:10;}
	.st14{fill:none;stroke:#CCE5F4;stroke-width:2;stroke-linecap:round;stroke-miterlimit:10;}
	.st15{fill:none;stroke:#CCE5F4;stroke-width:2;stroke-linecap:round;stroke-linejoin:round;stroke-miterlimit:10;}
	.st16{fill:#F7C13F;}
	.st17{fill:#F6C03F;stroke:#F6C03F;stroke-width:0.25;stroke-miterlimit:10;}
	.st18{display:inline;fill:none;stroke:#F7C13F;stroke-width:2;stroke-linecap:round;stroke-linejoin:round;stroke-miterlimit:10;}
	.st19{display:inline;fill:none;stroke:#F7C13F;stroke-width:2;stroke-linecap:round;stroke-miterlimit:10;}
	.st20{fill:#FFBF27;}
	.st21{fill:#FFBF27;stroke:#FFFFFF;stroke-width:0.25;stroke-miterlimit:10;}
	.st22{font-family:'NotoSansTC-Medium-83pv-RKSJ-H';}
	.st23{font-size:22.2642px;}
	.st24{letter-spacing:1;}
</style>

<g id="house">
	<line class="st4" x1="0" y1="534.4" x2="800" y2="534.4"/>
	<g>
		<rect x="168.4" y="528.8" class="st5" width="111.5" height="10.3"/>
		<g>
			<rect x="268.4" y="526.3" class="st5" width="390.8" height="15.5"/>
			<rect x="140.7" y="526.3" class="st5" width="28.2" height="15.5"/>
		</g>
	</g>
	<g>
		<g>
			<path class="st7" d="M306.2,421.5h5.1c5.6,0,9.1,2.9,9.1,9.2c0,6.2-3.5,9.3-8.9,9.3h-5.3V421.5z M311,437c3.4,0,5.6-1.8,5.6-6.3
				c0-4.5-2.2-6.2-5.6-6.2h-1.1V437H311z"/>
			<path class="st7" d="M333.6,435.3h-6l-1.3,4.7h-3.7l5.9-18.5h4.3l5.9,18.5h-3.9L333.6,435.3z M332.8,432.4l-0.5-2
				c-0.6-1.9-1.1-4-1.6-6h-0.1c-0.5,2-1,4.1-1.6,6l-0.5,2H332.8z"/>
			<path class="st7" d="M350.8,435.3h-6l-1.3,4.7h-3.7l5.9-18.5h4.3L356,440h-3.9L350.8,435.3z M350,432.4l-0.5-2
				c-0.6-1.9-1.1-4-1.6-6h-0.1c-0.5,2-1,4.1-1.6,6l-0.5,2H350z"/>
			<path class="st7" d="M371.1,438.9h9.2v2.6h-21.3v-2.6h8.9v-3h-6.5v-2.6h6.5v-2.8h-5.2v-2.1c-1.1,0.7-2.1,1.3-3.2,1.9
				c-0.4-0.7-1.2-1.8-1.8-2.4c2.8-1.1,5.9-3.2,8.2-5.4h-3.3v-2.8h8.5c2.1,3.1,6.1,6.3,10.4,7.8c-0.6,0.6-1.5,1.9-2,2.7
				c-1.1-0.5-2.1-1.1-3.1-1.8v2h-5.3v2.8h6.5v2.6h-6.5V438.9z M375.6,427.8c-2.3-1.6-4.4-3.5-6-5.5c-1.6,1.9-3.9,3.9-6.1,5.5H375.6z
				"/>
			<path class="st7" d="M398,431.1c1.8,4,4.9,6.9,9.8,8.2c-0.7,0.6-1.6,1.9-2,2.8c-4.7-1.5-7.7-4.4-9.8-8.5
				c-1.4,3.3-4.2,6.5-9.8,8.6c-0.4-0.8-1.3-2-2-2.6c5.8-2,8.2-5.3,9.2-8.4h-8.4v-3h9c0-0.7,0.1-1.3,0.1-1.9v-2.5H386v-3h19.8v3h-8.5
				v2.6c0,0.6,0,1.2,0,1.9h9.5v3H398z"/>
			<path class="st7" d="M417.7,419.7c-0.5,1.7-1.2,3.5-1.9,5.2v17.3h-2.8v-12c-0.4,0.6-0.8,1.2-1.2,1.7c-0.2-0.7-1-2.4-1.4-3.2
				c1.9-2.4,3.6-6,4.6-9.7L417.7,419.7z M419.6,437.2H417v-13.4h2.6V437.2z M428.2,436c-0.7,2.3-2.6,4.6-7.2,6.3
				c-0.4-0.6-1.3-1.6-2-2.2c3.7-1.1,5.3-2.6,6-4.1h-4.7v-2.5h5.2v0v-2.3h-1.8c-0.5,0.9-1,1.6-1.6,2.3c-0.6-0.5-1.7-1.2-2.3-1.5
				c1.2-1.3,2.3-3.2,2.8-5.1h-2.3v-2.5h8.2c0.1-0.6,0.2-1.3,0.3-2h-7.4v-2.4h8l0.4-0.1l2.1,0.2c-0.2,1.4-0.4,2.9-0.6,4.3h2.4v2.5
				H423l2.3,0.5c-0.2,0.4-0.3,0.8-0.5,1.3h8.2v2.4h-4.5v2.4h5.3v2.5H428.2z M429.7,436.1c1.4,1.3,3.5,3.1,4.5,4.2l-2.1,1.8
				c-1-1.1-3-3-4.4-4.4L429.7,436.1z"/>
			<path class="st7" d="M456.8,439h3v2.5H437V439h2.9v-5.7h16.9V439z M459.8,422.4v2.5h-7.5c-0.5,1.1-1.2,2.2-1.8,3
				c-0.5-0.4-1.5-1.2-2.2-1.6v2.1h-3.4v1.5h4.2v2.2h-11.4v-12.4h11.2v2.2h-4.1v1.3h3.4v2.9c1.5-1.7,2.6-4.5,3.2-7.2l2.7,0.5
				c-0.2,1-0.5,2-0.9,3H459.8z M440.4,421.9v1.3h2.1v-1.3H440.4z M445.8,425.1h-5.4v1.3h5.4V425.1z M442.5,428.3h-2.1v1.5h2.1V428.3
				z M442.7,439h1.9v-3.4h-1.9V439z M447.3,435.6v3.4h2v-3.4H447.3z M459.4,431.3h-8.6v-2.7h8.6V431.3z M452,435.6v3.4h1.9v-3.4H452
				z"/>
			<path class="st7" d="M468.5,433.5v5.5c0,1.4-0.2,2.1-1,2.6c-0.7,0.5-1.8,0.6-3.4,0.5c-0.1-0.7-0.4-2-0.7-2.8c0.9,0.1,1.7,0.1,2,0
				c0.3,0,0.4-0.1,0.4-0.4v-4.6l-2.4,0.8l-0.6-2.9c0.9-0.2,1.8-0.5,2.9-0.8v-5.1h-2.6v-2.7h2.6v-4.7h2.7v4.7h2v2.7h-2v4.3l2.2-0.7
				l0.5,2.6L468.5,433.5z M486.3,438.8v2.7h-15.8v-2.7h6.4v-4h-5v-2.7H485v2.7h-5.2v4H486.3z M473.4,426.3h-2.6v-4.7h6.1
				c-0.3-0.7-0.6-1.4-0.9-2.1l2.7-0.8c0.5,0.9,1,2,1.4,2.9h6v4.7h-2.7V424h-1.6v3.4c0,0.7,0.1,0.9,0.5,0.9h2c0.5,0,1.2-0.1,1.5-0.2
				c0.1,0.7,0.1,1.7,0.2,2.3c-0.4,0.2-1.1,0.2-1.8,0.2h-2.2c-2.5,0-3.1-0.9-3.1-3.3V424h-1.2c-0.2,3.8-1,6.1-5.5,7.2
				c-0.2-0.6-0.9-1.6-1.4-2.1c3.6-0.8,4.1-2.2,4.3-5.1h-1.8V426.3z"/>
			<path class="st7" d="M512.4,422.6h-4.3c0.8,0.6,1.5,1.2,1.9,1.7l-1.6,1.5h3.3v4.3h-3V428h-15.4v2.1h-2.9v-4.3h0.9
				c-0.5-0.5-1.4-1.5-1.9-1.9c1.5-1.3,2.9-3.3,3.6-5.2l2.6,0.8c-0.1,0.3-0.3,0.7-0.5,1h5.5v2.1c1.1-1,2.1-2.4,2.6-3.8l2.7,0.7
				c-0.1,0.4-0.3,0.7-0.5,1h6.9L512.4,422.6z M496.7,425.8c-0.5-0.7-1.5-1.6-2.3-2.3l0.9-0.8h-1.5c-0.8,1.2-1.7,2.3-2.5,3.1H496.7z
				 M496.4,435.8h13.5v6.4h-3v-0.7h-10.5v0.7h-3V429h15.2v5.6h-12.2V435.8z M496.4,431.2v1.3h9.3v-1.3H496.4z M496.4,437.9v1.4h10.5
				v-1.4H496.4z M501.6,423.9c-0.5-0.4-1-0.8-1.4-1l0.2-0.2h-3.3c0.6,0.5,1.1,1.1,1.5,1.5l-1.8,1.6h2.8c-0.2-0.5-0.4-1-0.7-1.4
				L501.6,423.9z M507.7,425.8c-0.6-0.7-1.7-1.6-2.5-2.2l1.1-0.9h-2.2c-0.5,0.8-1.1,1.4-1.7,1.9c-0.2-0.2-0.4-0.4-0.7-0.6
				c0.3,0.5,0.7,1.2,1,1.8H507.7z"/>
			<path class="st7" d="M524.2,437.2c-2.8,1-5.7,1.9-8.1,2.7l-0.7-3c0.9-0.2,1.9-0.5,3-0.8v-5.9h-2.5v-2.7h2.5V423h-2.8v-2.8h8.2
				v2.8h-2.7v4.4h2.2v2.7h-2.2v5c0.8-0.2,1.6-0.5,2.4-0.8L524.2,437.2z M539,438.7v2.7h-16.1v-2.7h6.9v-2.4h-5.2v-2.7h5.2v-2.1h-5
				v-11.6h13v11.6h-5v2.1h5.3v2.7h-5.3v2.4H539z M527.5,424.5h2.6v-2.1h-2.6V424.5z M527.5,429h2.6v-2.1h-2.6V429z M535,422.4h-2.5
				v2.1h2.5V422.4z M535,426.8h-2.5v2.1h2.5V426.8z"/>
			<path class="st7" d="M547.9,432.9v5.9c0,1.5-0.3,2.2-1.1,2.6c-0.8,0.5-2,0.5-3.8,0.5c-0.1-0.8-0.5-1.9-0.8-2.7c1,0,2,0,2.3,0
				c0.3,0,0.5-0.1,0.5-0.5v-5.2l-2.5,0.7l-0.8-2.8c1-0.2,2.1-0.5,3.3-0.7v-4.4h-3v-2.7h3v-4.7h2.9v4.7h2.6v2.7h-2.6v3.7l1.8-0.5
				l0.4,2.7L547.9,432.9z M563.6,430.3c-0.9,3-2.3,5.4-4.3,7.2c1.7,0.8,3.6,1.5,5.8,1.9c-0.6,0.7-1.4,1.9-1.9,2.7
				c-2.5-0.6-4.6-1.5-6.4-2.7c-2,1.2-4.3,2.1-6.8,2.7c-0.3-0.8-1-2-1.5-2.7c2.1-0.4,4.1-1,5.8-1.9c-1.4-1.4-2.5-3-3.4-4.8l0.9-0.3
				h-1.4v-2.8h10.8l0.5-0.1L563.6,430.3z M551.2,429.3c-0.4-0.5-1.4-1.7-2-2.1c2.9-1.3,3.3-3.1,3.3-4.9v-2.7h8.8v5.4
				c0,0.7,0,1,0.4,1h1.3c0.4,0,1-0.1,1.4-0.2c0.1,0.8,0.1,1.8,0.2,2.5c-0.4,0.1-1,0.2-1.6,0.2h-1.7c-2.4,0-3-1-3-3.5v-2.6l-3.2,0
				C555.3,424.9,554.5,427.7,551.2,429.3z M553.8,432.4c0.7,1.3,1.8,2.5,3.1,3.5c1.2-1,2.1-2.1,2.9-3.5H553.8z"/>
			<path class="st7" d="M583.9,423.3c1.3,1.3,4,1.9,7.4,2.1c-0.6,0.6-1.3,1.6-1.6,2.4c-2.8-0.4-5-1.2-6.5-2.5c-1,1.1-3,2.1-7.2,2.5
				c-0.2-0.5-0.6-1.1-1-1.6h-6.6v-2.3h7.5v1.5c4.8-0.5,5.4-1.6,5.4-2.5v-0.4h-1.5c-0.5,0.8-1.1,1.6-1.7,2.1
				c-0.5-0.4-1.6-1.2-2.2-1.5c1.3-1.1,2.3-2.7,2.9-4.4l2.6,0.6c-0.1,0.4-0.3,0.8-0.4,1.1h7.1l0.5-0.1l2,0.6
				c-0.6,1.4-1.5,2.9-2.3,3.9l-2.3-0.8c0.3-0.4,0.6-0.9,0.9-1.5h-2.8v0.5V423.3z M584.6,438c2.3,0.8,4.7,1.8,6.2,2.6l-2.7,1.6
				c-1.4-0.8-4-2-6.5-2.9l1.5-1.2h-7l2.2,1c-2,1.3-5.3,2.5-7.8,3.2c-0.5-0.6-1.5-1.7-2.2-2.2c2.4-0.4,5.1-1.2,6.8-2.1h-3.6v-10.1
				h16.7V438H584.6z M575.2,422.2h-6.4v-2.2h6.4V422.2z M574.4,430.7h10.8v-1.1h-10.8V430.7z M574.4,433.4h10.8v-1.1h-10.8V433.4z
				 M574.4,436.2h10.8v-1.1h-10.8V436.2z"/>
			<path class="st7" d="M602.3,434.4c0-0.4-0.1-0.8-0.2-1.2c-5.4,0.8-6.3,1-6.9,1.3c-0.1-0.5-0.6-1.9-1-2.7c0.7-0.2,1.2-0.7,2-1.6
				c0.3-0.4,1-1,1.7-2c-2,0.2-2.6,0.4-3,0.5c-0.1-0.5-0.6-1.8-0.9-2.5c0.5-0.1,1-0.6,1.5-1.3c0.6-0.7,2.2-3.5,3.2-6.1l2.6,1.1
				c-1,2-2.2,4.2-3.6,6l1.8-0.1c0.7-1,1.3-2.1,1.8-3.2l2.5,1.6c-1.5,2.5-3.4,5.1-5.4,7.3l2.8-0.4c-0.2-0.6-0.4-1.3-0.6-1.8l2.2-0.7
				c0.6,1.7,1.3,3.9,1.6,5.2L602.3,434.4z M597.7,435.7c-0.2,2.2-0.6,4.6-1.1,6.1c-0.5-0.3-1.7-0.7-2.3-0.8c0.6-1.5,0.9-3.7,1-5.7
				L597.7,435.7z M600.6,435.1c0.3,1.8,0.6,3.9,0.7,5.4l-2.4,0.5c0-1.4-0.3-3.7-0.6-5.4L600.6,435.1z M603.4,434.4
				c0.5,1.2,0.9,2.8,1.2,3.9l-2.3,0.8c-0.1-1.1-0.6-2.8-1-4L603.4,434.4z M617.5,439.1v2.7h-14.2v-2.6h1.9v-19H616v19H617.5z
				 M607.9,422.8v3.6h5.2v-3.6H607.9z M613.1,429.1h-5.2v3.6h5.2V429.1z M607.9,439.1l5.2,0v-3.8h-5.2V439.1z"/>
			<path class="st7" d="M635,420.1c-0.3,0.4-0.6,0.8-0.8,1.1c3.2,3,6.5,4.7,9.9,5.9c-0.8,0.7-1.6,1.8-2,2.7
				c-1.2-0.6-2.4-1.2-3.6-1.8v1.6H626v-1.2c-1.1,0.7-2.2,1.3-3.3,1.8c-0.5-0.9-1.3-2-2.2-2.7c4.6-1.8,9.3-4.8,11.9-8.7L635,420.1z
				 M624.4,431.7h16.1v10.3h-3.2v-1h-9.9v1.1h-3V431.7z M627.4,434.4v3.9h9.9v-3.9H627.4z M636.7,426.9c-1.4-1-2.9-2.1-4.3-3.6
				c-1.3,1.3-2.6,2.5-4.1,3.6H636.7z"/>
		</g>
		<g>
			<line class="st6" x1="220" y1="316.2" x2="577.1" y2="316.2"/>
			<line class="st6" x1="257.1" y1="353.9" x2="614.1" y2="353.9"/>
			<line class="st6" x1="586.6" y1="467.2" x2="651" y2="467.2"/>
			<line class="st6" x1="273.3" y1="467.2" x2="337.7" y2="467.2"/>
			<line class="st6" x1="145.4" y1="467.2" x2="164.3" y2="467.2"/>
			<g>
				<line class="st6" x1="220" y1="316.6" x2="145.7" y2="390.6"/>
				<line class="st6" x1="220" y1="316.6" x2="294.3" y2="390.6"/>
				<line class="st6" x1="308.9" y1="316.6" x2="383.2" y2="390.6"/>
				<line class="st6" x1="398.4" y1="316.6" x2="472.7" y2="390.6"/>
				<line class="st6" x1="488.7" y1="316.6" x2="563" y2="390.6"/>
				<line class="st6" x1="577.4" y1="316.6" x2="651.7" y2="390.6"/>
				<line class="st6" x1="145.7" y1="390.6" x2="650.7" y2="390.6"/>
				<line class="st6" x1="383.1" y1="390.5" x2="383.1" y2="409.3"/>
				<line class="st6" x1="472.3" y1="390.5" x2="472.3" y2="409.3"/>
				<line class="st6" x1="561" y1="390.5" x2="561" y2="409.3"/>
				<g>
					<line class="st6" x1="145.7" y1="390.5" x2="145.7" y2="525.7"/>
					<line class="st6" x1="163.3" y1="390.5" x2="163.3" y2="525.7"/>
					<line class="st6" x1="274.2" y1="390.5" x2="274.2" y2="525.7"/>
					<line class="st6" x1="293.9" y1="390.5" x2="293.9" y2="525.7"/>
					<line class="st6" x1="650.7" y1="390.5" x2="650.7" y2="525.7"/>
				</g>
			</g>
		</g>
		<g>
			<path class="st8" d="M396.3,462.9c-3.1,6.5-10.7,9.1-18.5,10.1c-0.1-0.5-0.4-1.2-0.7-1.6c3.7-0.4,7.3-1.1,10.4-2.5
				c-0.8-0.8-2-1.9-3.1-2.8c-1.1,0.6-2.2,1.1-3.5,1.6c-0.2-0.4-0.7-1-1-1.2c4.5-1.6,7.7-4.1,9.3-6.3l1.8,0.4
				c-0.4,0.6-0.9,1.1-1.5,1.6h5.4l0.3-0.1L396.3,462.9z M393,455.1c-2.8,4.9-9.3,7.9-15,9.1c-0.1-0.4-0.5-1.1-0.8-1.5
				c2.5-0.4,5.1-1.2,7.4-2.4c-0.7-0.8-1.9-1.8-3-2.5c-0.8,0.5-1.7,0.9-2.6,1.4c-0.2-0.4-0.8-0.9-1.1-1.2c3.5-1.5,6.2-3.7,7.6-5.5
				l1.8,0.4c-0.4,0.5-0.9,1-1.4,1.6h5.8l0.3-0.1L393,455.1z M384.2,456c-0.4,0.4-0.8,0.7-1.3,1c1.2,0.8,2.4,1.8,3.2,2.6
				c1.8-1,3.3-2.2,4.4-3.6H384.2z M387.8,463.8c-0.6,0.5-1.3,1-2.1,1.5c1.2,0.8,2.5,2,3.3,2.8c2-1.1,3.7-2.5,4.8-4.3H387.8z"/>
			<path class="st8" d="M417.3,470.9c0.9,0,1-0.6,1.1-4c0.4,0.3,1.1,0.6,1.5,0.7c-0.2,3.8-0.6,4.8-2.6,4.8h-3.2
				c-2,0-2.5-0.6-2.5-2.5v-7.9h-4.2c-0.4,4.8-1.5,8.7-6.6,10.7c-0.2-0.4-0.7-1-1-1.3c4.7-1.8,5.6-5.3,5.9-9.4h-5.6v-1.6h19.5v1.6
				h-6.3v7.9c0,0.8,0.2,0.9,1,0.9H417.3z M417.8,455.9h-15.7v-1.6h15.7V455.9z"/>
			<path class="st8" d="M429.6,458.7h-6.4v-1.3h6.4V458.7z M431.4,470.2c-1.8,1.1-4.6,2.1-6.8,2.7c-0.3-0.3-0.8-1-1.2-1.2
				c2.3-0.5,4.9-1.3,6.5-2.1L431.4,470.2z M429.1,455.2h-5.3v-1.3h5.3V455.2z M426.2,460.4h14.4v8.9h-14.4V460.4z M427.8,463.1h11.2
				v-1.5h-11.2V463.1z M427.8,465.7h11.2v-1.5h-11.2V465.7z M427.8,468.3h11.2v-1.6h-11.2V468.3z M433.1,455.4
				c-0.5,0.8-1.1,1.6-1.7,2.2c-0.3-0.2-0.9-0.7-1.2-0.8c1.2-1,2.1-2.6,2.6-4.2l1.5,0.3c-0.1,0.4-0.3,0.8-0.5,1.2h7.5l0.3-0.1
				l1.1,0.4c-0.6,1.1-1.3,2.4-1.9,3.2l-1.3-0.5c0.3-0.5,0.7-1.1,1-1.8H437v0.3c0,0.2,0,0.5-0.1,0.7c1.2,1.3,3.6,2.2,6.5,2.4
				c-0.3,0.3-0.7,0.9-0.9,1.3c-2.5-0.4-4.7-1.2-6.1-2.6c-0.7,1.1-2.5,2.1-6.4,2.7c-0.2-0.4-0.6-1-0.9-1.2c5.8-0.8,6.3-2.3,6.3-3.5
				v-0.2H433.1z M436.5,469.5c2.4,0.7,5,1.7,6.5,2.4l-1.4,1c-1.4-0.7-3.8-1.7-6.2-2.5L436.5,469.5z"/>
			<path class="st8" d="M449.9,461.6v3.3c0,2.5-0.4,5.9-2.4,8.2c-0.2-0.3-0.9-0.9-1.2-1.1c1.8-2.1,2-4.9,2-7.2v-4.7h2.8
				c-0.2-0.3-0.6-0.6-0.8-0.8c1.8-0.3,3.8-0.8,5.7-1.3c-1.7-0.5-3.4-0.9-5-1.3l1-0.8h-3.6v-1.4h8.2c-0.4-0.6-0.8-1.2-1.2-1.6
				l1.2-0.6c0.6,0.7,1.3,1.6,1.7,2.2h7.5v1.4h-3.4l0.9,0.5c-1,0.5-2.1,1-3.4,1.5c1.6,0.5,3.1,1,4.3,1.4l-0.9,0.8h3.2v1.4H449.9z
				 M466.8,470.8v1.4h-16.5v-1.4h7.3v-2.2h-5.2v-1.3h5.2v-2h-4.7c-0.6,1.1-1.4,2-2.1,2.7c-0.2-0.3-0.6-1.1-0.9-1.4
				c1.2-1.2,2.3-2.9,2.9-4.7l1.4,0.4c-0.2,0.5-0.4,1-0.6,1.5h3.9V462h1.6v1.9h6v1.4h-6v2h5.5v1.3h-5.5v2.2H466.8z M462.7,460.2
				c-1.3-0.5-2.9-1-4.7-1.6c-2,0.6-4.1,1.2-6,1.6H462.7z M452.5,456c1.7,0.4,3.7,0.9,5.6,1.5c1.4-0.5,2.7-1,3.7-1.5H452.5z"/>
			<path class="st8" d="M495.4,453.5v19.4h-1.6v-1.1h-15.4v1.1h-1.5v-19.4H495.4z M493.8,470.4V455h-15.4v15.4H493.8z M486.7,461.1
				c-0.1,0.4-0.1,0.8-0.2,1.1c2.3,1.9,4.8,4.6,6,6.3l-1.2,1c-1.1-1.6-3.2-3.9-5.2-5.8c-0.8,2.6-2.4,4.7-5.3,6c-0.2-0.4-0.7-1-1-1.3
				c3.5-1.5,4.8-4.1,5.3-7.3h-5.3v-1.5h5.5c0.1-1.1,0.2-2.4,0.2-3.6h1.6c0,1.3-0.1,2.5-0.2,3.6h5.6v1.5H486.7z"/>
			<path class="st8" d="M506.4,468.6h-4.8v1.8h-1.5v-16.3h6.3V468.6z M501.6,455.6v4.9h3.2v-4.9H501.6z M504.9,467.1V462h-3.2v5.1
				H504.9z M514,456.7v2.9h4.9v1.5h-1.9v2.4h2.6v1.5h-2.6v6c0,1-0.2,1.4-0.9,1.7c-0.7,0.3-1.8,0.3-3.6,0.3c-0.1-0.5-0.3-1.1-0.5-1.6
				c1.4,0,2.6,0,3,0c0.4,0,0.5-0.1,0.5-0.4V465h-8.4v-1.5h8.4v-2.4h-7.5v-1.5h4.6v-2.9h-5.5v-1.5h5.5v-2.7h1.6v2.7h5.6v1.5H514z
				 M509.6,465.8c1,1.1,2.3,2.8,2.9,3.8l-1.4,0.9c-0.5-1.1-1.7-2.7-2.8-3.9L509.6,465.8z"/>
			<path class="st8" d="M529.8,459.6h5.4v1.5h-5.4v2.2h4.6v6.1c0,0.8-0.1,1.2-0.7,1.4c-0.5,0.2-1.4,0.3-2.6,0.3
				c-0.1-0.4-0.3-1-0.5-1.4c1,0,1.7,0,1.9,0c0.2,0,0.3-0.1,0.3-0.3v-4.5h-3.1v8h-1.6v-8h-2.9v6.2h-1.5v-7.7h4.4v-2.2h-5.4v-1.5h5.4
				v-2.3h-2.9c-0.4,0.9-0.7,1.7-1.1,2.3c-0.3-0.2-1.1-0.5-1.5-0.6c1-1.5,1.8-3.7,2.2-5.9l1.6,0.3c-0.2,0.8-0.4,1.6-0.7,2.4h2.4v-3.1
				h1.6v3.1h4.5v1.5h-4.5V459.6z M538.3,466.9h-1.6v-12.2h1.6V466.9z M542.3,452.8v17.8c0,1.1-0.2,1.6-0.9,1.9
				c-0.7,0.3-1.9,0.3-3.6,0.3c-0.1-0.5-0.3-1.2-0.5-1.7c1.3,0,2.6,0,2.9,0c0.4,0,0.5-0.1,0.5-0.5v-17.8H542.3z"/>
			<path class="st8" d="M566,470.8v1.5h-19.6v-1.5h4.2V459h11.1v11.8H566z M548.6,459.8H547v-4.7h8.8c-0.2-0.7-0.6-1.6-1-2.3
				l1.6-0.4c0.5,0.8,1,1.8,1.2,2.5l-0.7,0.2h8.6v4.7h-1.6v-3.1h-15.2V459.8z M552.2,460.5v2.4h7.8v-2.4H552.2z M560.1,464.3h-7.8
				v2.5h7.8V464.3z M552.2,470.8h7.8v-2.6h-7.8V470.8z"/>
		</g>
	</g>
</g>

</svg>
