<?xml version="1.0" encoding="utf-8"?>
<!-- Generator: Adobe Illustrator 25.3.1, SVG Export Plug-In . SVG Version: 6.00 Build 0)  -->
<svg version="1.1" id="圖層_1" xmlns="http://www.w3.org/2000/svg" xmlns:xlink="http://www.w3.org/1999/xlink" x="0px" y="0px"
	 viewBox="0 0 800 560" style="enable-background:new 0 0 800 560;" xml:space="preserve">
<style type="text/css">
	.st0{display:none;}
	.st1{display:inline;}
	.st2{fill:none;stroke:#A0E9DF;stroke-width:1.5;stroke-miterlimit:10;}
	.st3{fill:none;stroke:#A0E9DF;stroke-width:1.8;stroke-miterlimit:10;}
	.st4{display:inline;fill:none;stroke:#1CD8C0;stroke-width:2;stroke-miterlimit:10;}
	.st5{fill:#FFFFFF;stroke:#1CD8C0;stroke-width:1.8;stroke-miterlimit:10;}
	.st6{fill:#1CD7BF;}
	.st7{fill:none;stroke:#1CD7BF;stroke-width:1.8;stroke-miterlimit:10;}
	.st8{fill:#4E4E4E;}
	.st9{fill:#CCE5F4;}
	.st10{fill:none;stroke:#F7C13F;stroke-width:2;stroke-linecap:round;stroke-miterlimit:10;}
	.st11{fill:none;stroke:#F7C13F;stroke-width:2;stroke-linecap:round;stroke-linejoin:round;stroke-miterlimit:10;}
	.st12{fill:#CCE5F4;stroke:#F7C13F;stroke-width:0.25;stroke-miterlimit:10;}
	.st13{fill:#CCE5F4;stroke:#FFFFFF;stroke-width:0.25;stroke-miterlimit:10;}
	.st14{fill:none;stroke:#CCE5F4;stroke-width:2;stroke-linecap:round;stroke-miterlimit:10;}
	.st15{fill:none;stroke:#CCE5F4;stroke-width:2;stroke-linecap:round;stroke-linejoin:round;stroke-miterlimit:10;}
	.st16{fill:#F7C13F;}
	.st17{display:inline;fill:none;stroke:#F7C13F;stroke-width:2;stroke-linecap:round;stroke-linejoin:round;stroke-miterlimit:10;}
	.st18{fill:#F6C03F;stroke:#F6C03F;stroke-width:0.25;stroke-miterlimit:10;}
	.st19{display:inline;fill:none;stroke:#F7C13F;stroke-width:2;stroke-linecap:round;stroke-miterlimit:10;}
	.st20{fill:#FFBF27;}
	.st21{fill:#FFBF27;stroke:#FFFFFF;stroke-width:0.25;stroke-miterlimit:10;}
	.st22{display:inline;fill:#4E4E4E;}
	.st23{font-family:'NotoSansTC-Medium-83pv-RKSJ-H';}
	.st24{font-size:22.2642px;}
</style>

<g id="item1">
	<g>
		<g>
			<g>
				<g>
					<path class="st16" d="M149.7,197.9c-13.7,0-24.9,11.2-24.9,24.9s11.2,24.9,24.9,24.9s24.9-11.2,24.9-24.9
						S163.5,197.9,149.7,197.9z M149.7,245.2c-12.3,0-22.4-10-22.4-22.4s10-22.4,22.4-22.4c12.3,0,22.4,10,22.4,22.4
						S162.1,245.2,149.7,245.2z"/>
					<path class="st16" d="M149.7,247.8c-13.8,0-25-11.2-25-25s11.2-25,25-25s25,11.2,25,25S163.5,247.8,149.7,247.8z M149.7,198.1
						c-13.6,0-24.8,11.1-24.8,24.8s11.1,24.8,24.8,24.8s24.8-11.1,24.8-24.8S163.4,198.1,149.7,198.1z M149.7,245.3
						c-12.4,0-22.5-10.1-22.5-22.5s10.1-22.5,22.5-22.5s22.5,10.1,22.5,22.5C172.3,235.2,162.2,245.3,149.7,245.3z M149.7,200.5
						c-12.3,0-22.3,10-22.3,22.3s10,22.3,22.3,22.3s22.3-10,22.3-22.3S162,200.5,149.7,200.5z"/>
				</g>
				<g>
					<path class="st16" d="M149.7,195.4c0.7,0,1.2-0.6,1.2-1.2v-7.5c0-0.7-0.6-1.2-1.2-1.2c-0.7,0-1.2,0.6-1.2,1.2v7.5
						C148.5,194.9,149.1,195.4,149.7,195.4z"/>
					<path class="st16" d="M149.7,195.6c-0.8,0-1.4-0.6-1.4-1.4v-7.5c0-0.8,0.6-1.4,1.4-1.4s1.4,0.6,1.4,1.4v7.5
						C151.1,194.9,150.5,195.6,149.7,195.6z M149.7,185.6c-0.6,0-1.1,0.5-1.1,1.1v7.5c0,0.6,0.5,1.1,1.1,1.1s1.1-0.5,1.1-1.1v-7.5
						C150.9,186.1,150.4,185.6,149.7,185.6z"/>
				</g>
				<g>
					<path class="st16" d="M149.7,250.2c-0.7,0-1.2,0.6-1.2,1.2v7.5c0,0.7,0.6,1.2,1.2,1.2c0.7,0,1.2-0.6,1.2-1.2v-7.5
						C151,250.7,150.4,250.2,149.7,250.2z"/>
					<path class="st16" d="M149.7,260.2c-0.8,0-1.4-0.6-1.4-1.4v-7.5c0-0.8,0.6-1.4,1.4-1.4s1.4,0.6,1.4,1.4v7.5
						C151.1,259.6,150.5,260.2,149.7,260.2z M149.7,250.3c-0.6,0-1.1,0.5-1.1,1.1v7.5c0,0.6,0.5,1.1,1.1,1.1s1.1-0.5,1.1-1.1v-7.5
						C150.9,250.8,150.4,250.3,149.7,250.3z"/>
				</g>
				<g>
					<path class="st16" d="M185.8,221.6h-7.5c-0.7,0-1.2,0.6-1.2,1.2c0,0.7,0.6,1.2,1.2,1.2h7.5c0.7,0,1.2-0.6,1.2-1.2
						C187.1,222.1,186.5,221.6,185.8,221.6z"/>
					<path class="st16" d="M185.8,224.2h-7.5c-0.8,0-1.4-0.6-1.4-1.4s0.6-1.4,1.4-1.4h7.5c0.8,0,1.4,0.6,1.4,1.4
						S186.6,224.2,185.8,224.2z M178.3,221.7c-0.6,0-1.1,0.5-1.1,1.1s0.5,1.1,1.1,1.1h7.5c0.6,0,1.1-0.5,1.1-1.1s-0.5-1.1-1.1-1.1
						H178.3z"/>
				</g>
				<g>
					<path class="st16" d="M121.1,221.6h-7.5c-0.7,0-1.2,0.6-1.2,1.2s0.6,1.2,1.2,1.2h7.5c0.7,0,1.2-0.6,1.2-1.2
						C122.4,222.1,121.8,221.6,121.1,221.6z"/>
					<path class="st16" d="M121.1,224.2h-7.5c-0.8,0-1.4-0.6-1.4-1.4s0.6-1.4,1.4-1.4h7.5c0.8,0,1.4,0.6,1.4,1.4
						S121.9,224.2,121.1,224.2z M113.7,221.7c-0.6,0-1.1,0.5-1.1,1.1s0.5,1.1,1.1,1.1h7.5c0.6,0,1.1-0.5,1.1-1.1s-0.5-1.1-1.1-1.1
						H113.7z"/>
				</g>
				<g>
					<path class="st16" d="M174.4,196.4l-5.3,5.3c-0.5,0.5-0.5,1.3,0,1.8c0.2,0.2,0.6,0.4,0.9,0.4s0.6-0.1,0.9-0.4l5.3-5.3
						c0.5-0.5,0.5-1.3,0-1.8C175.6,195.9,174.9,195.9,174.4,196.4z"/>
					<path class="st16" d="M170,203.9c-0.4,0-0.7-0.1-1-0.4c-0.5-0.5-0.5-1.4,0-1.9l5.3-5.3c0.5-0.5,1.4-0.5,1.9,0s0.5,1.4,0,1.9
						l-5.3,5.3C170.7,203.8,170.3,203.9,170,203.9z M174.5,196.5l-5.3,5.3c-0.4,0.4-0.4,1.1,0,1.6c0.4,0.4,1.2,0.4,1.6,0l5.3-5.3
						c0.4-0.4,0.4-1.1,0-1.6C175.6,196.1,174.9,196.1,174.5,196.5L174.5,196.5z"/>
				</g>
				<g>
					<path class="st16" d="M128.6,242.2l-5.3,5.3c-0.5,0.5-0.5,1.3,0,1.8c0.2,0.2,0.6,0.4,0.9,0.4s0.6-0.1,0.9-0.4l5.3-5.3
						c0.5-0.5,0.5-1.3,0-1.8C129.9,241.7,129.1,241.7,128.6,242.2z"/>
					<path class="st16" d="M124.2,249.7c-0.4,0-0.7-0.1-1-0.4c-0.3-0.3-0.4-0.6-0.4-1s0.1-0.7,0.4-1l5.3-5.3c0.3-0.3,0.6-0.4,1-0.4
						s0.7,0.1,1,0.4c0.3,0.3,0.4,0.6,0.4,1s-0.1,0.7-0.4,1l-5.3,5.3C124.9,249.5,124.6,249.7,124.2,249.7z M129.5,241.9
						c-0.3,0-0.6,0.1-0.8,0.3l0,0l-5.3,5.3c-0.2,0.2-0.3,0.5-0.3,0.8s0.1,0.6,0.3,0.8c0.4,0.4,1.2,0.4,1.6,0l5.3-5.3
						c0.2-0.2,0.3-0.5,0.3-0.8s-0.1-0.6-0.3-0.8C130.1,242,129.8,241.9,129.5,241.9z"/>
				</g>
				<g>
					<path class="st16" d="M170.9,242.2c-0.5-0.5-1.3-0.5-1.8,0s-0.5,1.3,0,1.8l5.3,5.3c0.2,0.2,0.6,0.4,0.9,0.4s0.6-0.1,0.9-0.4
						c0.5-0.5,0.5-1.3,0-1.8L170.9,242.2z"/>
					<path class="st16" d="M175.2,249.7c-0.4,0-0.7-0.1-1-0.4L169,244c-0.3-0.3-0.4-0.6-0.4-1s0.1-0.7,0.4-1c0.3-0.3,0.6-0.4,1-0.4
						s0.7,0.1,1,0.4l0,0l0,0l5.3,5.3c0.3,0.3,0.4,0.6,0.4,1s-0.1,0.7-0.4,1C176,249.5,175.6,249.7,175.2,249.7z M170,241.9
						c-0.3,0-0.6,0.1-0.8,0.3s-0.3,0.5-0.3,0.8s0.1,0.6,0.3,0.8l5.3,5.3c0.4,0.4,1.2,0.4,1.6,0c0.2-0.2,0.3-0.5,0.3-0.8
						s-0.1-0.6-0.3-0.8l-5.3-5.3C170.6,242,170.3,241.9,170,241.9z"/>
				</g>
				<g>
					<path class="st16" d="M128.6,203.5c0.2,0.2,0.6,0.4,0.9,0.4s0.6-0.1,0.9-0.4c0.5-0.5,0.5-1.3,0-1.8l-5.3-5.3
						c-0.5-0.5-1.3-0.5-1.8,0s-0.5,1.3,0,1.8L128.6,203.5z"/>
					<path class="st16" d="M129.5,203.9c-0.4,0-0.7-0.1-1-0.4l-5.3-5.3c-0.5-0.5-0.5-1.4,0-1.9s1.4-0.5,1.9,0l5.3,5.3
						c0.5,0.5,0.5,1.4,0,1.9C130.2,203.8,129.9,203.9,129.5,203.9z M124.2,196.2c-0.3,0-0.6,0.1-0.8,0.3c-0.4,0.4-0.4,1.1,0,1.6
						l5.3,5.3c0.4,0.4,1.2,0.4,1.6,0c0.4-0.4,0.4-1.1,0-1.6l-5.3-5.3C124.8,196.3,124.5,196.2,124.2,196.2z"/>
				</g>
			</g>
		</g>
	</g>
</g>

</svg>
