<?xml version="1.0" encoding="utf-8"?>
<!-- Generator: Adobe Illustrator 25.3.1, SVG Export Plug-In . SVG Version: 6.00 Build 0)  -->
<svg version="1.1" xmlns="http://www.w3.org/2000/svg" xmlns:xlink="http://www.w3.org/1999/xlink" x="0px" y="0px"
	 viewBox="0 0 800 560" style="enable-background:new 0 0 800 560;" xml:space="preserve">
<style type="text/css">
	.st0{display:none;}
	.st1{display:inline;}
	.st2{fill:none;stroke:#A0E9DF;stroke-width:1.5;stroke-miterlimit:10;}
	.st3{fill:none;stroke:#A0E9DF;stroke-width:1.8;stroke-miterlimit:10;}
	.st4{display:inline;fill:none;stroke:#1CD8C0;stroke-width:2;stroke-miterlimit:10;}
	.st5{fill:#FFFFFF;stroke:#1CD8C0;stroke-width:1.8;stroke-miterlimit:10;}
	.st6{fill:none;stroke:#1CD7BF;stroke-width:1.8;stroke-miterlimit:10;}
	.st7{fill:#1CD7BF;}
	.st8{fill:#4E4E4E;}
	.st9{fill:#CCE5F4;}
	.st10{fill:none;stroke:#F7C13F;stroke-width:2;stroke-linecap:round;stroke-miterlimit:10;}
	.st11{fill:none;stroke:#F7C13F;stroke-width:2;stroke-linecap:round;stroke-linejoin:round;stroke-miterlimit:10;}
	.st12{fill:#CCE5F4;stroke:#F7C13F;stroke-width:0.25;stroke-miterlimit:10;}
	.st13{fill:#CCE5F4;stroke:#FFFFFF;stroke-width:0.25;stroke-miterlimit:10;}
	.st14{fill:none;stroke:#CCE5F4;stroke-width:2;stroke-linecap:round;stroke-miterlimit:10;}
	.st15{fill:none;stroke:#CCE5F4;stroke-width:2;stroke-linecap:round;stroke-linejoin:round;stroke-miterlimit:10;}
	.st16{fill:#F7C13F;}
	.st17{fill:#F6C03F;stroke:#F6C03F;stroke-width:0.25;stroke-miterlimit:10;}
	.st18{display:inline;fill:none;stroke:#F7C13F;stroke-width:2;stroke-linecap:round;stroke-linejoin:round;stroke-miterlimit:10;}
	.st19{display:inline;fill:none;stroke:#F7C13F;stroke-width:2;stroke-linecap:round;stroke-miterlimit:10;}
	.st20{fill:#FFBF27;}
	.st21{fill:#FFBF27;stroke:#FFFFFF;stroke-width:0.25;stroke-miterlimit:10;}
	.st22{font-family:'NotoSansTC-Medium-83pv-RKSJ-H';}
	.st23{font-size:22.2642px;}
	.st24{letter-spacing:1;}
</style>

<g id="item_x5F_bg">
	<g>
		<g>
			<g>
				<g>
					<path class="st9" d="M149.7,197.9c-13.7,0-24.9,11.2-24.9,24.9s11.2,24.9,24.9,24.9c13.7,0,24.9-11.2,24.9-24.9
						S163.5,197.9,149.7,197.9z M149.7,245.2c-12.3,0-22.4-10-22.4-22.4s10-22.4,22.4-22.4c12.3,0,22.4,10,22.4,22.4
						S162.1,245.2,149.7,245.2z"/>
					<path class="st9" d="M149.7,247.8c-13.8,0-25-11.2-25-25c0-13.8,11.2-25,25-25s25,11.2,25,25
						C174.7,236.6,163.5,247.8,149.7,247.8z M149.7,198.1c-13.6,0-24.8,11.1-24.8,24.8s11.1,24.8,24.8,24.8s24.8-11.1,24.8-24.8
						S163.4,198.1,149.7,198.1z M149.7,245.3c-12.4,0-22.5-10.1-22.5-22.5c0-12.4,10.1-22.5,22.5-22.5s22.5,10.1,22.5,22.5
						C172.3,235.2,162.2,245.3,149.7,245.3z M149.7,200.5c-12.3,0-22.3,10-22.3,22.3c0,12.3,10,22.3,22.3,22.3s22.3-10,22.3-22.3
						C172,210.5,162,200.5,149.7,200.5z"/>
				</g>
				<g>
					<path class="st9" d="M149.7,195.4c0.7,0,1.2-0.6,1.2-1.2v-7.5c0-0.7-0.6-1.2-1.2-1.2c-0.7,0-1.2,0.6-1.2,1.2v7.5
						C148.5,194.9,149.1,195.4,149.7,195.4z"/>
					<path class="st9" d="M149.7,195.6c-0.8,0-1.4-0.6-1.4-1.4v-7.5c0-0.8,0.6-1.4,1.4-1.4s1.4,0.6,1.4,1.4v7.5
						C151.1,194.9,150.5,195.6,149.7,195.6z M149.7,185.6c-0.6,0-1.1,0.5-1.1,1.1v7.5c0,0.6,0.5,1.1,1.1,1.1c0.6,0,1.1-0.5,1.1-1.1
						v-7.5C150.9,186.1,150.4,185.6,149.7,185.6z"/>
				</g>
				<g>
					<path class="st9" d="M149.7,250.2c-0.7,0-1.2,0.6-1.2,1.2v7.5c0,0.7,0.6,1.2,1.2,1.2c0.7,0,1.2-0.6,1.2-1.2v-7.5
						C151,250.7,150.4,250.2,149.7,250.2z"/>
					<path class="st9" d="M149.7,260.2c-0.8,0-1.4-0.6-1.4-1.4v-7.5c0-0.8,0.6-1.4,1.4-1.4s1.4,0.6,1.4,1.4v7.5
						C151.1,259.6,150.5,260.2,149.7,260.2z M149.7,250.3c-0.6,0-1.1,0.5-1.1,1.1v7.5c0,0.6,0.5,1.1,1.1,1.1c0.6,0,1.1-0.5,1.1-1.1
						v-7.5C150.9,250.8,150.4,250.3,149.7,250.3z"/>
				</g>
				<g>
					<path class="st9" d="M185.8,221.6h-7.5c-0.7,0-1.2,0.6-1.2,1.2c0,0.7,0.6,1.2,1.2,1.2h7.5c0.7,0,1.2-0.6,1.2-1.2
						C187.1,222.1,186.5,221.6,185.8,221.6z"/>
					<path class="st9" d="M185.8,224.2h-7.5c-0.8,0-1.4-0.6-1.4-1.4s0.6-1.4,1.4-1.4h7.5c0.8,0,1.4,0.6,1.4,1.4
						S186.6,224.2,185.8,224.2z M178.3,221.7c-0.6,0-1.1,0.5-1.1,1.1s0.5,1.1,1.1,1.1h7.5c0.6,0,1.1-0.5,1.1-1.1s-0.5-1.1-1.1-1.1
						H178.3z"/>
				</g>
				<g>
					<path class="st9" d="M121.1,221.6h-7.5c-0.7,0-1.2,0.6-1.2,1.2s0.6,1.2,1.2,1.2h7.5c0.7,0,1.2-0.6,1.2-1.2
						C122.4,222.1,121.8,221.6,121.1,221.6z"/>
					<path class="st9" d="M121.1,224.2h-7.5c-0.8,0-1.4-0.6-1.4-1.4s0.6-1.4,1.4-1.4h7.5c0.8,0,1.4,0.6,1.4,1.4
						S121.9,224.2,121.1,224.2z M113.7,221.7c-0.6,0-1.1,0.5-1.1,1.1s0.5,1.1,1.1,1.1h7.5c0.6,0,1.1-0.5,1.1-1.1s-0.5-1.1-1.1-1.1
						H113.7z"/>
				</g>
				<g>
					<path class="st9" d="M174.4,196.4l-5.3,5.3c-0.5,0.5-0.5,1.3,0,1.8c0.2,0.2,0.6,0.4,0.9,0.4s0.6-0.1,0.9-0.4l5.3-5.3
						c0.5-0.5,0.5-1.3,0-1.8C175.6,195.9,174.9,195.9,174.4,196.4z"/>
					<path class="st9" d="M170,203.9c-0.4,0-0.7-0.1-1-0.4c-0.5-0.5-0.5-1.4,0-1.9l5.3-5.3c0.5-0.5,1.4-0.5,1.9,0
						c0.5,0.5,0.5,1.4,0,1.9l-5.3,5.3C170.7,203.8,170.3,203.9,170,203.9z M174.5,196.5l-5.3,5.3c-0.4,0.4-0.4,1.1,0,1.6
						c0.4,0.4,1.2,0.4,1.6,0l5.3-5.3c0.4-0.4,0.4-1.1,0-1.6C175.6,196.1,174.9,196.1,174.5,196.5L174.5,196.5z"/>
				</g>
				<g>
					<path class="st9" d="M128.6,242.2l-5.3,5.3c-0.5,0.5-0.5,1.3,0,1.8c0.2,0.2,0.6,0.4,0.9,0.4c0.3,0,0.6-0.1,0.9-0.4l5.3-5.3
						c0.5-0.5,0.5-1.3,0-1.8C129.9,241.7,129.1,241.7,128.6,242.2z"/>
					<path class="st9" d="M124.2,249.7c-0.4,0-0.7-0.1-1-0.4c-0.3-0.3-0.4-0.6-0.4-1s0.1-0.7,0.4-1l5.3-5.3c0.3-0.3,0.6-0.4,1-0.4
						s0.7,0.1,1,0.4c0.3,0.3,0.4,0.6,0.4,1s-0.1,0.7-0.4,1l-5.3,5.3C124.9,249.5,124.6,249.7,124.2,249.7z M129.5,241.9
						c-0.3,0-0.6,0.1-0.8,0.3v0l-5.3,5.3c-0.2,0.2-0.3,0.5-0.3,0.8s0.1,0.6,0.3,0.8c0.4,0.4,1.2,0.4,1.6,0l5.3-5.3
						c0.2-0.2,0.3-0.5,0.3-0.8s-0.1-0.6-0.3-0.8C130.1,242,129.8,241.9,129.5,241.9z"/>
				</g>
				<g>
					<path class="st9" d="M170.9,242.2c-0.5-0.5-1.3-0.5-1.8,0c-0.5,0.5-0.5,1.3,0,1.8l5.3,5.3c0.2,0.2,0.6,0.4,0.9,0.4
						s0.6-0.1,0.9-0.4c0.5-0.5,0.5-1.3,0-1.8L170.9,242.2z"/>
					<path class="st9" d="M175.2,249.7c-0.4,0-0.7-0.1-1-0.4L169,244c-0.3-0.3-0.4-0.6-0.4-1s0.1-0.7,0.4-1c0.3-0.3,0.6-0.4,1-0.4
						s0.7,0.1,1,0.4l0,0l0,0l5.3,5.3c0.3,0.3,0.4,0.6,0.4,1s-0.1,0.7-0.4,1C176,249.5,175.6,249.7,175.2,249.7z M170,241.9
						c-0.3,0-0.6,0.1-0.8,0.3c-0.2,0.2-0.3,0.5-0.3,0.8s0.1,0.6,0.3,0.8l5.3,5.3c0.4,0.4,1.2,0.4,1.6,0c0.2-0.2,0.3-0.5,0.3-0.8
						s-0.1-0.6-0.3-0.8l-5.3-5.3C170.6,242,170.3,241.9,170,241.9z"/>
				</g>
				<g>
					<path class="st9" d="M128.6,203.5c0.2,0.2,0.6,0.4,0.9,0.4s0.6-0.1,0.9-0.4c0.5-0.5,0.5-1.3,0-1.8l-5.3-5.3
						c-0.5-0.5-1.3-0.5-1.8,0c-0.5,0.5-0.5,1.3,0,1.8L128.6,203.5z"/>
					<path class="st9" d="M129.5,203.9c-0.4,0-0.7-0.1-1-0.4l-5.3-5.3c-0.5-0.5-0.5-1.4,0-1.9c0.5-0.5,1.4-0.5,1.9,0l5.3,5.3
						c0.5,0.5,0.5,1.4,0,1.9C130.2,203.8,129.9,203.9,129.5,203.9z M124.2,196.2c-0.3,0-0.6,0.1-0.8,0.3c-0.4,0.4-0.4,1.1,0,1.6
						l5.3,5.3c0.4,0.4,1.2,0.4,1.6,0c0.4-0.4,0.4-1.1,0-1.6l-5.3-5.3C124.8,196.3,124.5,196.2,124.2,196.2z"/>
				</g>
			</g>
		</g>
	</g>
	<g>
		<g>
			<path class="st10" d="M338.2,146.6c-19,1.8-45,6.4-73.5,18.7c-20.2,8.7-36.3,18.9-48.6,27.9"/>
		</g>
		<polyline class="st11" points="330.4,140.3 338.5,147.2 331.8,155.1 		"/>
	</g>
	<g>
		<g>
			<g>
				<path class="st12" d="M421.4,124.7c-1.3,0-2.7,0.2-4,0.5c-1.6-10.2-10.5-17.9-20.9-17.9c-11.7,0-21.2,9.5-21.2,21.2
					c0,1.3,0.1,2.6,0.4,3.9c-6.6,1-11.6,6.7-11.6,13.5c0,7.6,6.1,13.7,13.7,13.7h43.6c9.6,0,17.4-7.8,17.4-17.4
					S431,124.7,421.4,124.7z M421.4,157.1h-43.6c-6.2,0-11.2-5-11.2-11.2c0-6,4.7-10.9,10.7-11.2c0.4,0,0.7-0.2,0.9-0.5
					c0.2-0.3,0.3-0.7,0.2-1.1c-0.4-1.6-0.6-3.2-0.6-4.7c0-10.3,8.4-18.7,18.7-18.7c9.6,0,17.8,7.5,18.6,17.1c0,0.4,0.2,0.7,0.6,0.9
					c0.3,0.2,0.7,0.3,1.1,0.1c1.5-0.5,3.1-0.8,4.7-0.8c8.2,0,15,6.7,15,15C436.3,150.4,429.6,157.1,421.4,157.1z"/>
				<path class="st12" d="M404.5,162.2c-0.6-0.3-1.4-0.1-1.7,0.6l-5,10c-0.3,0.6-0.1,1.4,0.6,1.7c0.2,0.1,0.4,0.1,0.6,0.1
					c0.5,0,0.9-0.3,1.1-0.7l5-10C405.4,163.2,405.1,162.5,404.5,162.2z"/>
				<path class="st12" d="M412,162.2c-0.6-0.3-1.4-0.1-1.7,0.6l-5,10c-0.3,0.6-0.1,1.4,0.6,1.7c0.2,0.1,0.4,0.1,0.6,0.1
					c0.5,0,0.9-0.3,1.1-0.7l5-10C412.8,163.2,412.6,162.5,412,162.2z"/>
				<path class="st12" d="M397,162.2c-0.6-0.3-1.4-0.1-1.7,0.6l-5,10c-0.3,0.6-0.1,1.4,0.6,1.7c0.2,0.1,0.4,0.1,0.6,0.1
					c0.5,0,0.9-0.3,1.1-0.7l5-10C397.9,163.2,397.6,162.5,397,162.2z"/>
				<path class="st12" d="M389.6,162.2c-0.6-0.3-1.4-0.1-1.7,0.6l-5,10c-0.3,0.6-0.1,1.4,0.6,1.7c0.2,0.1,0.4,0.1,0.6,0.1
					c0.5,0,0.9-0.3,1.1-0.7l5-10C390.4,163.2,390.2,162.5,389.6,162.2z"/>
				<path class="st12" d="M419.5,162.2c-0.6-0.3-1.4-0.1-1.7,0.6l-5,10c-0.3,0.6-0.1,1.4,0.6,1.7c0.2,0.1,0.4,0.1,0.6,0.1
					c0.5,0,0.9-0.3,1.1-0.7l5-10C420.3,163.2,420.1,162.5,419.5,162.2z"/>
				<path class="st12" d="M382.1,162.2c-0.6-0.3-1.4-0.1-1.7,0.6l-5,10c-0.3,0.6-0.1,1.4,0.6,1.7c0.2,0.1,0.4,0.1,0.6,0.1
					c0.5,0,0.9-0.3,1.1-0.7l5-10C382.9,163.2,382.7,162.5,382.1,162.2z"/>
			</g>
		</g>
	</g>
	<g>
		<path class="st10" d="M468.9,145.9c15,2.6,33.6,7.2,53.8,15.7c28.5,12,49.8,27.5,64.2,39.9"/>
		<polyline class="st11" points="585.9,191.4 588.6,201.7 578.6,204.3 		"/>
	</g>
	<g>
		<g>
			<g>
				<path class="st9" d="M609.4,223.8c0,7.2,5.8,13,13,13h17.7c-1.1,2.2-1.8,4.6-1.8,7.2c0,8.8,7.1,15.9,15.9,15.9h28.9
					c7.2,0,13-5.8,13-13c0-5.2-3-9.8-7.7-11.9c0.3-1.3,0.5-2.7,0.5-4c0-9.6-7.8-17.3-17.3-17.3c-2,0-3.9,0.3-5.6,1
					c-2.5-5.9-8.3-9.7-14.9-9.6c-1.4-8.3-8.5-14.5-17.1-14.5c-9.6,0-17.3,7.8-17.3,17.3c0,1.4,0.2,2.7,0.5,4
					C612.5,214,609.4,218.6,609.4,223.8z M641.2,244c0-7.2,5.8-13,13-13c0.5,0,0.9,0,1.4,0.1c0.4,0,0.8-0.1,1.1-0.3
					c0.3-0.2,0.5-0.6,0.5-1c0.6-7.4,7-13.2,14.4-13.2c8,0,14.5,6.5,14.5,14.5c0,1.5-0.2,3-0.7,4.5c-0.1,0.4-0.1,0.8,0.1,1.1
					c0.2,0.3,0.5,0.6,0.8,0.7c4.2,1.4,7,5.2,7,9.6c0,5.6-4.5,10.1-10.1,10.1h-28.9C647,257,641.2,251.2,641.2,244z M612.3,223.8
					c0-4.4,2.8-8.3,7-9.6c0.4-0.1,0.7-0.4,0.8-0.7c0.2-0.3,0.2-0.7,0.1-1.1c-0.5-1.4-0.7-2.9-0.7-4.4c0-8,6.5-14.5,14.5-14.5
					c7.6,0,13.7,5.7,14.4,13.2c0,0.4,0.2,0.7,0.5,1c0.3,0.2,0.7,0.4,1.1,0.3c0.5-0.1,0.9-0.1,1.4-0.1c5.3,0,9.9,3.1,12,7.9
					c-4.6,2.5-7.9,7-8.8,12.3c-0.1,0-0.2,0-0.3,0c-4.9,0-9.3,2.3-12.3,5.8h-19.5C616.8,233.9,612.3,229.4,612.3,223.8z"/>
			</g>
		</g>
		<g>
			<path class="st13" d="M699.2,210.6c-2.3-10.5-12.7-17.2-23.2-14.9c-5.2,1.2-9.8,4.5-12.6,9.1c-0.5,0.8-0.2,1.8,0.6,2.2
				c0.8,0.5,1.8,0.2,2.2-0.6c2.3-3.9,6-6.6,10.5-7.6c8.8-1.9,17.4,3.6,19.4,12.4c1.3,5.8-0.7,11.8-5.2,15.7
				c-0.7,0.6-0.7,1.6-0.2,2.3c0.4,0.5,1,0.6,1.6,0.5c0.3-0.1,0.5-0.2,0.7-0.4C698.3,224.8,700.7,217.5,699.2,210.6z"/>
			<path class="st13" d="M676.5,190.6l-1-4.8c-0.2-0.9-1.1-1.4-1.9-1.2c-0.9,0.2-1.4,1.1-1.2,1.9l1,4.8c0.2,0.9,1.1,1.4,1.9,1.2
				C676.1,192.3,676.6,191.5,676.5,190.6z"/>
			<path class="st13" d="M702.3,209.9c0.2,0.9,1.1,1.4,1.9,1.2l4.8-1c0.9-0.2,1.4-1.1,1.2-1.9c-0.2-0.9-1.1-1.4-1.9-1.2l-4.8,1
				C702.7,208.1,702.1,209,702.3,209.9z"/>
			<path class="st13" d="M660.9,202.5c0.5-0.8,0.3-1.8-0.5-2.2l-4.1-2.6c-0.8-0.5-1.8-0.3-2.2,0.5c-0.5,0.8-0.3,1.8,0.5,2.2l4.1,2.6
				c0.4,0.2,0.8,0.3,1.2,0.2C660.3,203.1,660.7,202.9,660.9,202.5z"/>
			<path class="st13" d="M699.3,227c-0.5,0.8-0.3,1.8,0.5,2.2l4.1,2.6c0.4,0.2,0.8,0.3,1.2,0.2c0.4-0.1,0.8-0.3,1-0.7
				c0.5-0.8,0.3-1.8-0.5-2.2l-4.1-2.6C700.8,226,699.8,226.3,699.3,227z"/>
			<path class="st13" d="M697.2,191c0.5-0.8,0.3-1.8-0.5-2.2c-0.8-0.5-1.8-0.3-2.2,0.5l-2.6,4.1c-0.5,0.8-0.3,1.8,0.5,2.2
				c0.4,0.2,0.8,0.3,1.2,0.2c0.4-0.1,0.8-0.3,1-0.7L697.2,191z"/>
		</g>
	</g>
	<g>
		<g>
			<g>
				<g>
					<path class="st9" d="M149.7,197.9c-13.7,0-24.9,11.2-24.9,24.9s11.2,24.9,24.9,24.9c13.7,0,24.9-11.2,24.9-24.9
						S163.5,197.9,149.7,197.9z M149.7,245.2c-12.3,0-22.4-10-22.4-22.4s10-22.4,22.4-22.4c12.3,0,22.4,10,22.4,22.4
						S162.1,245.2,149.7,245.2z"/>
					<path class="st9" d="M149.7,247.8c-13.8,0-25-11.2-25-25c0-13.8,11.2-25,25-25s25,11.2,25,25
						C174.7,236.6,163.5,247.8,149.7,247.8z M149.7,198.1c-13.6,0-24.8,11.1-24.8,24.8s11.1,24.8,24.8,24.8s24.8-11.1,24.8-24.8
						S163.4,198.1,149.7,198.1z M149.7,245.3c-12.4,0-22.5-10.1-22.5-22.5c0-12.4,10.1-22.5,22.5-22.5s22.5,10.1,22.5,22.5
						C172.3,235.2,162.2,245.3,149.7,245.3z M149.7,200.5c-12.3,0-22.3,10-22.3,22.3c0,12.3,10,22.3,22.3,22.3s22.3-10,22.3-22.3
						C172,210.5,162,200.5,149.7,200.5z"/>
				</g>
				<g>
					<path class="st9" d="M149.7,195.4c0.7,0,1.2-0.6,1.2-1.2v-7.5c0-0.7-0.6-1.2-1.2-1.2c-0.7,0-1.2,0.6-1.2,1.2v7.5
						C148.5,194.9,149.1,195.4,149.7,195.4z"/>
					<path class="st9" d="M149.7,195.6c-0.8,0-1.4-0.6-1.4-1.4v-7.5c0-0.8,0.6-1.4,1.4-1.4s1.4,0.6,1.4,1.4v7.5
						C151.1,194.9,150.5,195.6,149.7,195.6z M149.7,185.6c-0.6,0-1.1,0.5-1.1,1.1v7.5c0,0.6,0.5,1.1,1.1,1.1c0.6,0,1.1-0.5,1.1-1.1
						v-7.5C150.9,186.1,150.4,185.6,149.7,185.6z"/>
				</g>
				<g>
					<path class="st9" d="M149.7,250.2c-0.7,0-1.2,0.6-1.2,1.2v7.5c0,0.7,0.6,1.2,1.2,1.2c0.7,0,1.2-0.6,1.2-1.2v-7.5
						C151,250.7,150.4,250.2,149.7,250.2z"/>
					<path class="st9" d="M149.7,260.2c-0.8,0-1.4-0.6-1.4-1.4v-7.5c0-0.8,0.6-1.4,1.4-1.4s1.4,0.6,1.4,1.4v7.5
						C151.1,259.6,150.5,260.2,149.7,260.2z M149.7,250.3c-0.6,0-1.1,0.5-1.1,1.1v7.5c0,0.6,0.5,1.1,1.1,1.1c0.6,0,1.1-0.5,1.1-1.1
						v-7.5C150.9,250.8,150.4,250.3,149.7,250.3z"/>
				</g>
				<g>
					<path class="st9" d="M185.8,221.6h-7.5c-0.7,0-1.2,0.6-1.2,1.2c0,0.7,0.6,1.2,1.2,1.2h7.5c0.7,0,1.2-0.6,1.2-1.2
						C187.1,222.1,186.5,221.6,185.8,221.6z"/>
					<path class="st9" d="M185.8,224.2h-7.5c-0.8,0-1.4-0.6-1.4-1.4s0.6-1.4,1.4-1.4h7.5c0.8,0,1.4,0.6,1.4,1.4
						S186.6,224.2,185.8,224.2z M178.3,221.7c-0.6,0-1.1,0.5-1.1,1.1s0.5,1.1,1.1,1.1h7.5c0.6,0,1.1-0.5,1.1-1.1s-0.5-1.1-1.1-1.1
						H178.3z"/>
				</g>
				<g>
					<path class="st9" d="M121.1,221.6h-7.5c-0.7,0-1.2,0.6-1.2,1.2s0.6,1.2,1.2,1.2h7.5c0.7,0,1.2-0.6,1.2-1.2
						C122.4,222.1,121.8,221.6,121.1,221.6z"/>
					<path class="st9" d="M121.1,224.2h-7.5c-0.8,0-1.4-0.6-1.4-1.4s0.6-1.4,1.4-1.4h7.5c0.8,0,1.4,0.6,1.4,1.4
						S121.9,224.2,121.1,224.2z M113.7,221.7c-0.6,0-1.1,0.5-1.1,1.1s0.5,1.1,1.1,1.1h7.5c0.6,0,1.1-0.5,1.1-1.1s-0.5-1.1-1.1-1.1
						H113.7z"/>
				</g>
				<g>
					<path class="st9" d="M174.4,196.4l-5.3,5.3c-0.5,0.5-0.5,1.3,0,1.8c0.2,0.2,0.6,0.4,0.9,0.4s0.6-0.1,0.9-0.4l5.3-5.3
						c0.5-0.5,0.5-1.3,0-1.8C175.6,195.9,174.9,195.9,174.4,196.4z"/>
					<path class="st9" d="M170,203.9c-0.4,0-0.7-0.1-1-0.4c-0.5-0.5-0.5-1.4,0-1.9l5.3-5.3c0.5-0.5,1.4-0.5,1.9,0
						c0.5,0.5,0.5,1.4,0,1.9l-5.3,5.3C170.7,203.8,170.3,203.9,170,203.9z M174.5,196.5l-5.3,5.3c-0.4,0.4-0.4,1.1,0,1.6
						c0.4,0.4,1.2,0.4,1.6,0l5.3-5.3c0.4-0.4,0.4-1.1,0-1.6C175.6,196.1,174.9,196.1,174.5,196.5L174.5,196.5z"/>
				</g>
				<g>
					<path class="st9" d="M128.6,242.2l-5.3,5.3c-0.5,0.5-0.5,1.3,0,1.8c0.2,0.2,0.6,0.4,0.9,0.4c0.3,0,0.6-0.1,0.9-0.4l5.3-5.3
						c0.5-0.5,0.5-1.3,0-1.8C129.9,241.7,129.1,241.7,128.6,242.2z"/>
					<path class="st9" d="M124.2,249.7c-0.4,0-0.7-0.1-1-0.4c-0.3-0.3-0.4-0.6-0.4-1s0.1-0.7,0.4-1l5.3-5.3c0.3-0.3,0.6-0.4,1-0.4
						s0.7,0.1,1,0.4c0.3,0.3,0.4,0.6,0.4,1s-0.1,0.7-0.4,1l-5.3,5.3C124.9,249.5,124.6,249.7,124.2,249.7z M129.5,241.9
						c-0.3,0-0.6,0.1-0.8,0.3v0l-5.3,5.3c-0.2,0.2-0.3,0.5-0.3,0.8s0.1,0.6,0.3,0.8c0.4,0.4,1.2,0.4,1.6,0l5.3-5.3
						c0.2-0.2,0.3-0.5,0.3-0.8s-0.1-0.6-0.3-0.8C130.1,242,129.8,241.9,129.5,241.9z"/>
				</g>
				<g>
					<path class="st9" d="M170.9,242.2c-0.5-0.5-1.3-0.5-1.8,0c-0.5,0.5-0.5,1.3,0,1.8l5.3,5.3c0.2,0.2,0.6,0.4,0.9,0.4
						s0.6-0.1,0.9-0.4c0.5-0.5,0.5-1.3,0-1.8L170.9,242.2z"/>
					<path class="st9" d="M175.2,249.7c-0.4,0-0.7-0.1-1-0.4L169,244c-0.3-0.3-0.4-0.6-0.4-1s0.1-0.7,0.4-1c0.3-0.3,0.6-0.4,1-0.4
						s0.7,0.1,1,0.4l0,0l0,0l5.3,5.3c0.3,0.3,0.4,0.6,0.4,1s-0.1,0.7-0.4,1C176,249.5,175.6,249.7,175.2,249.7z M170,241.9
						c-0.3,0-0.6,0.1-0.8,0.3c-0.2,0.2-0.3,0.5-0.3,0.8s0.1,0.6,0.3,0.8l5.3,5.3c0.4,0.4,1.2,0.4,1.6,0c0.2-0.2,0.3-0.5,0.3-0.8
						s-0.1-0.6-0.3-0.8l-5.3-5.3C170.6,242,170.3,241.9,170,241.9z"/>
				</g>
				<g>
					<path class="st9" d="M128.6,203.5c0.2,0.2,0.6,0.4,0.9,0.4s0.6-0.1,0.9-0.4c0.5-0.5,0.5-1.3,0-1.8l-5.3-5.3
						c-0.5-0.5-1.3-0.5-1.8,0c-0.5,0.5-0.5,1.3,0,1.8L128.6,203.5z"/>
					<path class="st9" d="M129.5,203.9c-0.4,0-0.7-0.1-1-0.4l-5.3-5.3c-0.5-0.5-0.5-1.4,0-1.9c0.5-0.5,1.4-0.5,1.9,0l5.3,5.3
						c0.5,0.5,0.5,1.4,0,1.9C130.2,203.8,129.9,203.9,129.5,203.9z M124.2,196.2c-0.3,0-0.6,0.1-0.8,0.3c-0.4,0.4-0.4,1.1,0,1.6
						l5.3,5.3c0.4,0.4,1.2,0.4,1.6,0c0.4-0.4,0.4-1.1,0-1.6l-5.3-5.3C124.8,196.3,124.5,196.2,124.2,196.2z"/>
				</g>
			</g>
		</g>
	</g>
	<g>
		<g>
			<path class="st14" d="M338.2,146.6c-19,1.8-45,6.4-73.5,18.7c-20.2,8.7-36.3,18.9-48.6,27.9"/>
		</g>
		<polyline class="st15" points="330.4,140.3 338.5,147.2 331.8,155.1 		"/>
	</g>
	<g>
		<g>
			<g>
				<g>
					<path class="st9" d="M421.4,124.7c-1.3,0-2.7,0.2-4,0.5c-1.6-10.2-10.5-17.9-20.9-17.9c-11.7,0-21.2,9.5-21.2,21.2
						c0,1.3,0.1,2.6,0.4,3.9c-6.6,1-11.6,6.7-11.6,13.5c0,7.6,6.1,13.7,13.7,13.7h43.6c9.6,0,17.4-7.8,17.4-17.4
						S431,124.7,421.4,124.7z M421.4,157.1h-43.6c-6.2,0-11.2-5-11.2-11.2c0-6,4.7-10.9,10.7-11.2c0.4,0,0.7-0.2,0.9-0.5
						c0.2-0.3,0.3-0.7,0.2-1.1c-0.4-1.6-0.6-3.2-0.6-4.7c0-10.3,8.4-18.7,18.7-18.7c9.6,0,17.8,7.5,18.6,17.1c0,0.4,0.2,0.7,0.6,0.9
						c0.3,0.2,0.7,0.3,1.1,0.1c1.5-0.5,3.1-0.8,4.7-0.8c8.2,0,15,6.7,15,15C436.3,150.4,429.6,157.1,421.4,157.1z"/>
					<path class="st9" d="M421.4,159.7h-43.6c-7.6,0-13.8-6.2-13.8-13.8c0-6.8,4.9-12.5,11.6-13.6c-0.2-1.3-0.4-2.6-0.4-3.8
						c0-11.7,9.6-21.3,21.3-21.3c10.3,0,19.4,7.7,21,17.9c1.3-0.3,2.6-0.4,3.9-0.4c9.7,0,17.6,7.9,17.6,17.6
						S431.1,159.7,421.4,159.7z M396.5,107.4c-11.6,0-21.1,9.4-21.1,21.1c0,1.3,0.1,2.6,0.4,3.9l0,0.1l-0.1,0
						c-6.7,1-11.5,6.7-11.5,13.4c0,7.5,6.1,13.6,13.6,13.6h43.6c9.5,0,17.3-7.8,17.3-17.3c0-9.5-7.8-17.3-17.3-17.3
						c-1.3,0-2.7,0.2-4,0.5l-0.1,0l0-0.1C415.7,115,406.7,107.4,396.5,107.4z M421.4,157.2h-43.6c-6.3,0-11.3-5.1-11.3-11.3
						c0-6.1,4.7-11,10.8-11.3c0.3,0,0.6-0.2,0.8-0.5c0.2-0.3,0.3-0.6,0.2-0.9c-0.4-1.6-0.6-3.2-0.6-4.7c0-10.4,8.4-18.8,18.8-18.8
						c9.7,0,17.9,7.6,18.7,17.2c0,0.3,0.2,0.7,0.5,0.8c0.3,0.2,0.6,0.2,1,0.1c1.5-0.5,3.1-0.8,4.7-0.8c8.3,0,15.1,6.8,15.1,15.1
						S429.7,157.2,421.4,157.2z M396.5,109.9c-10.2,0-18.6,8.3-18.6,18.6c0,1.5,0.2,3.1,0.6,4.7c0.1,0.4,0,0.8-0.2,1.2
						c-0.2,0.3-0.6,0.5-1,0.6c-5.9,0.3-10.6,5.1-10.6,11.1c0,6.1,5,11.1,11.1,11.1h43.6c8.2,0,14.8-6.7,14.8-14.8
						s-6.7-14.8-14.8-14.8c-1.6,0-3.1,0.3-4.6,0.8c-0.4,0.1-0.8,0.1-1.2-0.2c-0.4-0.2-0.6-0.6-0.6-1
						C414.2,117.3,406,109.9,396.5,109.9z"/>
				</g>
				<g>
					<path class="st9" d="M404.5,162.2c-0.6-0.3-1.4-0.1-1.7,0.6l-5,10c-0.3,0.6-0.1,1.4,0.6,1.7c0.2,0.1,0.4,0.1,0.6,0.1
						c0.5,0,0.9-0.3,1.1-0.7l5-10C405.4,163.2,405.1,162.5,404.5,162.2z"/>
					<path class="st9" d="M399,174.6c-0.2,0-0.4,0-0.6-0.1c-0.3-0.2-0.6-0.4-0.7-0.8c-0.1-0.3-0.1-0.7,0.1-1l5-10
						c0.3-0.7,1.2-1,1.8-0.6l0,0c0.3,0.2,0.6,0.4,0.7,0.8c0.1,0.3,0.1,0.7-0.1,1l-5,10C400,174.4,399.5,174.6,399,174.6z M404,162.2
						c-0.4,0-0.8,0.2-1,0.6l-5,10c-0.1,0.3-0.2,0.6-0.1,0.9s0.3,0.5,0.6,0.6c0.2,0.1,0.3,0.1,0.5,0.1c0.4,0,0.8-0.2,1-0.6l5-10
						c0.1-0.3,0.2-0.6,0.1-0.9s-0.3-0.5-0.6-0.6l0,0C404.3,162.2,404.1,162.2,404,162.2z"/>
				</g>
				<g>
					<path class="st9" d="M412,162.2c-0.6-0.3-1.4-0.1-1.7,0.6l-5,10c-0.3,0.6-0.1,1.4,0.6,1.7c0.2,0.1,0.4,0.1,0.6,0.1
						c0.5,0,0.9-0.3,1.1-0.7l5-10C412.8,163.2,412.6,162.5,412,162.2z"/>
					<path class="st9" d="M406.4,174.6c-0.2,0-0.4,0-0.6-0.1c-0.3-0.2-0.6-0.4-0.7-0.8c-0.1-0.3-0.1-0.7,0.1-1l5-10
						c0.3-0.7,1.2-0.9,1.8-0.6l0,0c0.3,0.2,0.6,0.4,0.7,0.8c0.1,0.3,0.1,0.7-0.1,1l-5,10C407.4,174.4,407,174.6,406.4,174.6z
						 M411.4,162.2c-0.4,0-0.8,0.2-1,0.6l-5,10c-0.1,0.3-0.2,0.6-0.1,0.9s0.3,0.5,0.6,0.6c0.2,0.1,0.3,0.1,0.5,0.1
						c0.4,0,0.8-0.2,1-0.6l5-10c0.1-0.3,0.2-0.6,0.1-0.9c-0.1-0.3-0.3-0.5-0.6-0.6l0,0C411.8,162.2,411.6,162.2,411.4,162.2z"/>
				</g>
				<g>
					<path class="st9" d="M397,162.2c-0.6-0.3-1.4-0.1-1.7,0.6l-5,10c-0.3,0.6-0.1,1.4,0.6,1.7c0.2,0.1,0.4,0.1,0.6,0.1
						c0.5,0,0.9-0.3,1.1-0.7l5-10C397.9,163.2,397.6,162.5,397,162.2z"/>
					<path class="st9" d="M391.5,174.6c-0.2,0-0.4,0-0.6-0.1c-0.3-0.2-0.6-0.4-0.7-0.8c-0.1-0.3-0.1-0.7,0.1-1l5-10
						c0.3-0.7,1.2-1,1.8-0.6l0,0c0.3,0.2,0.6,0.4,0.7,0.8c0.1,0.3,0.1,0.7-0.1,1l-5,10C392.5,174.4,392,174.6,391.5,174.6z
						 M396.5,162.2c-0.4,0-0.8,0.2-1,0.6l-5,10c-0.1,0.3-0.2,0.6-0.1,0.9c0.1,0.3,0.3,0.5,0.6,0.6c0.2,0.1,0.3,0.1,0.5,0.1
						c0.4,0,0.8-0.2,1-0.6l5-10c0.1-0.3,0.2-0.6,0.1-0.9s-0.3-0.5-0.6-0.6l0,0C396.8,162.2,396.6,162.2,396.5,162.2z"/>
				</g>
				<g>
					<path class="st9" d="M389.6,162.2c-0.6-0.3-1.4-0.1-1.7,0.6l-5,10c-0.3,0.6-0.1,1.4,0.6,1.7c0.2,0.1,0.4,0.1,0.6,0.1
						c0.5,0,0.9-0.3,1.1-0.7l5-10C390.4,163.2,390.2,162.5,389.6,162.2z"/>
					<path class="st9" d="M384,174.6c-0.2,0-0.4,0-0.6-0.1c-0.3-0.2-0.6-0.4-0.7-0.8c-0.1-0.3-0.1-0.7,0.1-1l5-10
						c0.3-0.7,1.2-0.9,1.8-0.6l0,0c0.3,0.2,0.6,0.4,0.7,0.8c0.1,0.3,0.1,0.7-0.1,1l-5,10C385,174.4,384.5,174.6,384,174.6z
						 M389,162.2c-0.4,0-0.8,0.2-1,0.6l-5,10c-0.1,0.3-0.2,0.6-0.1,0.9s0.3,0.5,0.6,0.6c0.2,0.1,0.3,0.1,0.5,0.1
						c0.4,0,0.8-0.2,1-0.6l5-10c0.1-0.3,0.2-0.6,0.1-0.9c-0.1-0.3-0.3-0.5-0.6-0.6l0,0C389.3,162.2,389.2,162.2,389,162.2z"/>
				</g>
				<g>
					<path class="st9" d="M419.5,162.2c-0.6-0.3-1.4-0.1-1.7,0.6l-5,10c-0.3,0.6-0.1,1.4,0.6,1.7c0.2,0.1,0.4,0.1,0.6,0.1
						c0.5,0,0.9-0.3,1.1-0.7l5-10C420.3,163.2,420.1,162.5,419.5,162.2z"/>
					<path class="st9" d="M413.9,174.6c-0.2,0-0.4,0-0.6-0.1c-0.3-0.2-0.6-0.4-0.7-0.8c-0.1-0.3-0.1-0.7,0.1-1l5-10
						c0.3-0.7,1.2-1,1.8-0.6l0,0c0.3,0.2,0.6,0.4,0.7,0.8c0.1,0.3,0.1,0.7-0.1,1l-5,10C414.9,174.4,414.4,174.6,413.9,174.6z
						 M418.9,162.2c-0.4,0-0.8,0.2-1,0.6l-5,10c-0.1,0.3-0.2,0.6-0.1,0.9c0.1,0.3,0.3,0.5,0.6,0.6c0.2,0.1,0.3,0.1,0.5,0.1
						c0.4,0,0.8-0.2,1-0.6l5-10c0.1-0.3,0.2-0.6,0.1-0.9s-0.3-0.5-0.6-0.6l0,0C419.2,162.2,419.1,162.2,418.9,162.2z"/>
				</g>
				<g>
					<path class="st9" d="M382.1,162.2c-0.6-0.3-1.4-0.1-1.7,0.6l-5,10c-0.3,0.6-0.1,1.4,0.6,1.7c0.2,0.1,0.4,0.1,0.6,0.1
						c0.5,0,0.9-0.3,1.1-0.7l5-10C382.9,163.2,382.7,162.5,382.1,162.2z"/>
					<path class="st9" d="M376.5,174.6c-0.2,0-0.4,0-0.6-0.1c-0.7-0.3-1-1.2-0.6-1.8l5-10c0.3-0.7,1.2-0.9,1.8-0.6
						c0.3,0.2,0.6,0.4,0.7,0.8c0.1,0.3,0.1,0.7-0.1,1l-5,10C377.5,174.4,377.1,174.6,376.5,174.6z M381.5,162.2
						c-0.4,0-0.8,0.2-1,0.6l-5,10c-0.3,0.6-0.1,1.2,0.5,1.5c0.2,0.1,0.3,0.1,0.5,0.1c0.4,0,0.8-0.2,1-0.6l5-10
						c0.1-0.3,0.2-0.6,0.1-0.9s-0.3-0.5-0.6-0.6l0,0C381.9,162.2,381.7,162.2,381.5,162.2z"/>
				</g>
			</g>
		</g>
	</g>
	<g>
		<path class="st14" d="M468.9,145.9c15,2.6,33.6,7.2,53.8,15.7c28.5,12,49.8,27.5,64.2,39.9"/>
		<polyline class="st15" points="585.9,191.4 588.6,201.7 578.6,204.3 		"/>
	</g>
	<g>
		<g>
			<g>
				<path class="st9" d="M609.4,223.8c0,7.2,5.8,13,13,13h17.7c-1.1,2.2-1.8,4.6-1.8,7.2c0,8.8,7.1,15.9,15.9,15.9h28.9
					c7.2,0,13-5.8,13-13c0-5.2-3-9.8-7.7-11.9c0.3-1.3,0.5-2.7,0.5-4c0-9.6-7.8-17.3-17.3-17.3c-2,0-3.9,0.3-5.6,1
					c-2.5-5.9-8.3-9.7-14.9-9.6c-1.4-8.3-8.5-14.5-17.1-14.5c-9.6,0-17.3,7.8-17.3,17.3c0,1.4,0.2,2.7,0.5,4
					C612.5,214,609.4,218.6,609.4,223.8z M641.2,244c0-7.2,5.8-13,13-13c0.5,0,0.9,0,1.4,0.1c0.4,0,0.8-0.1,1.1-0.3
					c0.3-0.2,0.5-0.6,0.5-1c0.6-7.4,7-13.2,14.4-13.2c8,0,14.5,6.5,14.5,14.5c0,1.5-0.2,3-0.7,4.5c-0.1,0.4-0.1,0.8,0.1,1.1
					c0.2,0.3,0.5,0.6,0.8,0.7c4.2,1.4,7,5.2,7,9.6c0,5.6-4.5,10.1-10.1,10.1h-28.9C647,257,641.2,251.2,641.2,244z M612.3,223.8
					c0-4.4,2.8-8.3,7-9.6c0.4-0.1,0.7-0.4,0.8-0.7c0.2-0.3,0.2-0.7,0.1-1.1c-0.5-1.4-0.7-2.9-0.7-4.4c0-8,6.5-14.5,14.5-14.5
					c7.6,0,13.7,5.7,14.4,13.2c0,0.4,0.2,0.7,0.5,1c0.3,0.2,0.7,0.4,1.1,0.3c0.5-0.1,0.9-0.1,1.4-0.1c5.3,0,9.9,3.1,12,7.9
					c-4.6,2.5-7.9,7-8.8,12.3c-0.1,0-0.2,0-0.3,0c-4.9,0-9.3,2.3-12.3,5.8h-19.5C616.8,233.9,612.3,229.4,612.3,223.8z"/>
			</g>
		</g>
		<g>
			<path class="st13" d="M699.2,210.6c-2.3-10.5-12.7-17.2-23.2-14.9c-5.2,1.2-9.8,4.5-12.6,9.1c-0.5,0.8-0.2,1.8,0.6,2.2
				c0.8,0.5,1.8,0.2,2.2-0.6c2.3-3.9,6-6.6,10.5-7.6c8.8-1.9,17.4,3.6,19.4,12.4c1.3,5.8-0.7,11.8-5.2,15.7
				c-0.7,0.6-0.7,1.6-0.2,2.3c0.4,0.5,1,0.6,1.6,0.5c0.3-0.1,0.5-0.2,0.7-0.4C698.3,224.8,700.7,217.5,699.2,210.6z"/>
			<path class="st13" d="M676.5,190.6l-1-4.8c-0.2-0.9-1.1-1.4-1.9-1.2c-0.9,0.2-1.4,1.1-1.2,1.9l1,4.8c0.2,0.9,1.1,1.4,1.9,1.2
				C676.1,192.3,676.6,191.5,676.5,190.6z"/>
			<path class="st13" d="M702.3,209.9c0.2,0.9,1.1,1.4,1.9,1.2l4.8-1c0.9-0.2,1.4-1.1,1.2-1.9c-0.2-0.9-1.1-1.4-1.9-1.2l-4.8,1
				C702.7,208.1,702.1,209,702.3,209.9z"/>
			<path class="st13" d="M660.9,202.5c0.5-0.8,0.3-1.8-0.5-2.2l-4.1-2.6c-0.8-0.5-1.8-0.3-2.2,0.5c-0.5,0.8-0.3,1.8,0.5,2.2l4.1,2.6
				c0.4,0.2,0.8,0.3,1.2,0.2C660.3,203.1,660.7,202.9,660.9,202.5z"/>
			<path class="st13" d="M699.3,227c-0.5,0.8-0.3,1.8,0.5,2.2l4.1,2.6c0.4,0.2,0.8,0.3,1.2,0.2c0.4-0.1,0.8-0.3,1-0.7
				c0.5-0.8,0.3-1.8-0.5-2.2l-4.1-2.6C700.8,226,699.8,226.3,699.3,227z"/>
			<path class="st13" d="M697.2,191c0.5-0.8,0.3-1.8-0.5-2.2c-0.8-0.5-1.8-0.3-2.2,0.5l-2.6,4.1c-0.5,0.8-0.3,1.8,0.5,2.2
				c0.4,0.2,0.8,0.3,1.2,0.2c0.4-0.1,0.8-0.3,1-0.7L697.2,191z"/>
		</g>
	</g>
</g>

</svg>
