<?xml version="1.0" encoding="utf-8"?>
<!-- Generator: Adobe Illustrator 25.3.1, SVG Export Plug-In . SVG Version: 6.00 Build 0)  -->
<svg version="1.1" id="圖層_1" xmlns="http://www.w3.org/2000/svg" xmlns:xlink="http://www.w3.org/1999/xlink" x="0px" y="0px"
	 viewBox="0 0 800 560" style="enable-background:new 0 0 800 560;" xml:space="preserve">
<style type="text/css">
	.st0{display:none;}
	.st1{display:inline;}
	.st2{fill:none;stroke:#A0E9DF;stroke-width:1.5;stroke-miterlimit:10;}
	.st3{fill:none;stroke:#A0E9DF;stroke-width:1.8;stroke-miterlimit:10;}
	.st4{display:inline;fill:none;stroke:#1CD8C0;stroke-width:2;stroke-miterlimit:10;}
	.st5{fill:#FFFFFF;stroke:#1CD8C0;stroke-width:1.8;stroke-miterlimit:10;}
	.st6{fill:#1CD7BF;}
	.st7{fill:none;stroke:#1CD7BF;stroke-width:1.8;stroke-miterlimit:10;}
	.st8{fill:#4E4E4E;}
	.st9{fill:#CCE5F4;}
	.st10{fill:none;stroke:#F7C13F;stroke-width:2;stroke-linecap:round;stroke-miterlimit:10;}
	.st11{fill:none;stroke:#F7C13F;stroke-width:2;stroke-linecap:round;stroke-linejoin:round;stroke-miterlimit:10;}
	.st12{fill:#CCE5F4;stroke:#F7C13F;stroke-width:0.25;stroke-miterlimit:10;}
	.st13{fill:#CCE5F4;stroke:#FFFFFF;stroke-width:0.25;stroke-miterlimit:10;}
	.st14{fill:none;stroke:#CCE5F4;stroke-width:2;stroke-linecap:round;stroke-miterlimit:10;}
	.st15{fill:none;stroke:#CCE5F4;stroke-width:2;stroke-linecap:round;stroke-linejoin:round;stroke-miterlimit:10;}
	.st16{fill:#F7C13F;}
	.st17{fill:#F6C03F;stroke:#F6C03F;stroke-width:0.25;stroke-miterlimit:10;}
	.st18{display:inline;fill:none;stroke:#F7C13F;stroke-width:2;stroke-linecap:round;stroke-linejoin:round;stroke-miterlimit:10;}
	.st19{display:inline;fill:none;stroke:#F7C13F;stroke-width:2;stroke-linecap:round;stroke-miterlimit:10;}
	.st20{fill:#FFBF27;}
	.st21{fill:#FFBF27;stroke:#FFFFFF;stroke-width:0.25;stroke-miterlimit:10;}
</style>


<g id="item3">
	<g>
		<g>
			<g>
				<path class="st20" d="M609.4,224.1c0,7.2,5.9,13,13.1,12.9l17.7-0.1c-1.1,2.2-1.7,4.6-1.7,7.2c0.1,8.8,7.2,15.9,16,15.8
					l28.9-0.2c7.2,0,13-5.9,12.9-13.1c0-5.2-3.1-9.8-7.8-11.8c0.3-1.3,0.5-2.7,0.5-4c-0.1-9.6-7.9-17.3-17.4-17.2
					c-2,0-3.9,0.4-5.6,1c-2.6-5.9-8.4-9.7-14.9-9.5c-1.4-8.3-8.6-14.4-17.2-14.4c-9.6,0.1-17.3,7.9-17.2,17.4c0,1.4,0.2,2.7,0.5,4
					C612.4,214.3,609.4,218.9,609.4,224.1z M641.3,244.1c0-7.2,5.8-13,12.9-13.1c0.5,0,0.9,0,1.4,0.1c0.4,0,0.8-0.1,1.1-0.3
					s0.5-0.6,0.5-1c0.6-7.4,6.9-13.3,14.3-13.3c8,0,14.5,6.4,14.5,14.4c0,1.5-0.2,3-0.7,4.5c-0.1,0.4-0.1,0.8,0.1,1.1
					c0.2,0.3,0.5,0.6,0.8,0.7c4.2,1.3,7,5.2,7.1,9.6c0,5.6-4.5,10.1-10.1,10.2l-28.9,0.2C647.2,257.1,641.4,251.3,641.3,244.1z
					 M612.3,224.1c0-4.4,2.8-8.3,6.9-9.7c0.4-0.1,0.7-0.4,0.8-0.7c0.2-0.3,0.2-0.7,0.1-1.1c-0.5-1.4-0.7-2.9-0.7-4.4
					c0-8,6.4-14.5,14.4-14.5c7.6,0,13.8,5.6,14.5,13.1c0,0.4,0.2,0.7,0.5,1c0.3,0.2,0.7,0.4,1.1,0.3c0.5-0.1,0.9-0.1,1.4-0.1
					c5.3,0,10,3.1,12,7.9c-4.5,2.5-7.9,7-8.7,12.4c-0.1,0-0.2,0-0.3,0c-4.9,0-9.3,2.3-12.2,5.9l-19.5,0.1
					C616.9,234.1,612.3,229.6,612.3,224.1z"/>
			</g>
		</g>
		<g>
			<path class="st21" d="M699.1,210.3c-2.4-10.5-12.8-17.1-23.3-14.7c-5.2,1.2-9.8,4.5-12.5,9.2c-0.5,0.8-0.2,1.8,0.6,2.2
				c0.8,0.5,1.8,0.2,2.2-0.6c2.3-3.9,6-6.6,10.4-7.6c8.7-2,17.5,3.5,19.4,12.3c1.3,5.8-0.6,11.8-5.1,15.8c-0.7,0.6-0.7,1.6-0.1,2.3
				c0.4,0.5,1,0.6,1.6,0.5c0.3-0.1,0.5-0.2,0.7-0.4C698.3,224.5,700.7,217.3,699.1,210.3z"/>
			<path class="st21" d="M676.3,190.5l-1.1-4.8c-0.2-0.9-1.1-1.4-1.9-1.2c-0.9,0.2-1.4,1.1-1.2,1.9l1.1,4.8c0.2,0.9,1.1,1.4,1.9,1.2
				S676.5,191.4,676.3,190.5z"/>
			<path class="st21" d="M702.3,209.6c0.2,0.9,1.1,1.4,1.9,1.2l4.8-1.1c0.9-0.2,1.4-1.1,1.2-1.9c-0.2-0.9-1.1-1.4-1.9-1.2l-4.8,1.1
				C702.6,207.9,702.1,208.7,702.3,209.6z"/>
			<path class="st21" d="M660.8,202.5c0.5-0.8,0.3-1.8-0.5-2.2l-4.1-2.6c-0.8-0.5-1.8-0.3-2.2,0.5c-0.5,0.8-0.3,1.8,0.5,2.2l4.1,2.6
				c0.4,0.2,0.8,0.3,1.2,0.2C660.2,203.1,660.6,202.9,660.8,202.5z"/>
			<path class="st21" d="M699.3,226.8c-0.5,0.8-0.3,1.8,0.5,2.2l4.1,2.6c0.4,0.2,0.8,0.3,1.2,0.2s0.8-0.3,1-0.7
				c0.5-0.8,0.3-1.8-0.5-2.2l-4.1-2.6C700.8,225.8,699.8,226,699.3,226.8z"/>
			<path class="st21" d="M697.1,190.8c0.5-0.8,0.3-1.8-0.5-2.2c-0.8-0.5-1.8-0.3-2.2,0.5l-2.6,4.1c-0.5,0.8-0.3,1.8,0.5,2.2
				c0.4,0.2,0.8,0.3,1.2,0.2s0.8-0.3,1-0.7L697.1,190.8z"/>
		</g>
	</g>
</g>
</svg>
