<?xml version="1.0" encoding="utf-8"?>
<!-- Generator: Adobe Illustrator 25.3.1, SVG Export Plug-In . SVG Version: 6.00 Build 0)  -->
<svg version="1.1" id="圖層_1" xmlns="http://www.w3.org/2000/svg" xmlns:xlink="http://www.w3.org/1999/xlink" x="0px" y="0px"
	 viewBox="0 0 800 560" style="enable-background:new 0 0 800 560;" xml:space="preserve">
<style type="text/css">
	.st0{display:none;}
	.st1{display:inline;}
	.st2{fill:none;stroke:#A0E9DF;stroke-width:1.5;stroke-miterlimit:10;}
	.st3{fill:none;stroke:#A0E9DF;stroke-width:1.8;stroke-miterlimit:10;}
	.st4{display:inline;fill:none;stroke:#1CD8C0;stroke-width:2;stroke-miterlimit:10;}
	.st5{fill:#FFFFFF;stroke:#1CD8C0;stroke-width:1.8;stroke-miterlimit:10;}
	.st6{fill:#1CD7BF;}
	.st7{fill:none;stroke:#1CD7BF;stroke-width:1.8;stroke-miterlimit:10;}
	.st8{fill:#4E4E4E;}
	.st9{fill:#CCE5F4;}
	.st10{fill:none;stroke:#F7C13F;stroke-width:2;stroke-linecap:round;stroke-miterlimit:10;}
	.st11{fill:none;stroke:#F7C13F;stroke-width:2;stroke-linecap:round;stroke-linejoin:round;stroke-miterlimit:10;}
	.st12{fill:#CCE5F4;stroke:#F7C13F;stroke-width:0.25;stroke-miterlimit:10;}
	.st13{fill:#CCE5F4;stroke:#FFFFFF;stroke-width:0.25;stroke-miterlimit:10;}
	.st14{fill:none;stroke:#CCE5F4;stroke-width:2;stroke-linecap:round;stroke-miterlimit:10;}
	.st15{fill:none;stroke:#CCE5F4;stroke-width:2;stroke-linecap:round;stroke-linejoin:round;stroke-miterlimit:10;}
	.st16{fill:#F7C13F;}
	.st17{fill:#F6C03F;stroke:#F6C03F;stroke-width:0.25;stroke-miterlimit:10;}
	.st18{display:inline;fill:none;stroke:#F7C13F;stroke-width:2;stroke-linecap:round;stroke-linejoin:round;stroke-miterlimit:10;}
	.st19{display:inline;fill:none;stroke:#F7C13F;stroke-width:2;stroke-linecap:round;stroke-miterlimit:10;}
	.st20{fill:#FFBF27;}
	.st21{fill:#FFBF27;stroke:#FFFFFF;stroke-width:0.25;stroke-miterlimit:10;}
	.st22{display:inline;fill:#4E4E4E;}
	.st23{font-family:'NotoSansTC-Medium-83pv-RKSJ-H';}
	.st24{font-size:22.2642px;}
</style>

<g id="item2">
	<g>
		<g>
			<g>
				<g>
					<path class="st16" d="M421.4,124.7c-1.3,0-2.7,0.2-4,0.5c-1.6-10.2-10.5-17.9-20.9-17.9c-11.7,0-21.2,9.5-21.2,21.2
						c0,1.3,0.1,2.6,0.4,3.9c-6.6,1-11.6,6.7-11.6,13.5c0,7.6,6.1,13.7,13.7,13.7h43.6c9.6,0,17.4-7.8,17.4-17.4
						S431,124.7,421.4,124.7z M421.4,157.1h-43.6c-6.2,0-11.2-5-11.2-11.2c0-6,4.7-10.9,10.7-11.2c0.4,0,0.7-0.2,0.9-0.5
						c0.2-0.3,0.3-0.7,0.2-1.1c-0.4-1.6-0.6-3.2-0.6-4.7c0-10.3,8.4-18.7,18.7-18.7c9.6,0,17.8,7.5,18.6,17.1c0,0.4,0.2,0.7,0.6,0.9
						c0.3,0.2,0.7,0.3,1.1,0.1c1.5-0.5,3.1-0.8,4.7-0.8c8.2,0,15,6.7,15,15C436.3,150.4,429.6,157.1,421.4,157.1z"/>
					<path class="st16" d="M421.4,159.7h-43.6c-7.6,0-13.8-6.2-13.8-13.8c0-6.8,4.9-12.5,11.6-13.6c-0.2-1.3-0.4-2.6-0.4-3.8
						c0-11.7,9.6-21.3,21.3-21.3c10.3,0,19.4,7.7,21,17.9c1.3-0.3,2.6-0.4,3.9-0.4c9.7,0,17.6,7.9,17.6,17.6
						S431.1,159.7,421.4,159.7z M396.5,107.4c-11.6,0-21.1,9.4-21.1,21.1c0,1.3,0.1,2.6,0.4,3.9v0.1h-0.1c-6.7,1-11.5,6.7-11.5,13.4
						c0,7.5,6.1,13.6,13.6,13.6h43.6c9.5,0,17.3-7.8,17.3-17.3s-7.8-17.3-17.3-17.3c-1.3,0-2.7,0.2-4,0.5h-0.1v-0.1
						C415.7,115,406.7,107.4,396.5,107.4z M421.4,157.2h-43.6c-6.3,0-11.3-5.1-11.3-11.3c0-6.1,4.7-11,10.8-11.3
						c0.3,0,0.6-0.2,0.8-0.5c0.2-0.3,0.3-0.6,0.2-0.9c-0.4-1.6-0.6-3.2-0.6-4.7c0-10.4,8.4-18.8,18.8-18.8c9.7,0,17.9,7.6,18.7,17.2
						c0,0.3,0.2,0.7,0.5,0.8c0.3,0.2,0.6,0.2,1,0.1c1.5-0.5,3.1-0.8,4.7-0.8c8.3,0,15.1,6.8,15.1,15.1S429.7,157.2,421.4,157.2z
						 M396.5,109.9c-10.2,0-18.6,8.3-18.6,18.6c0,1.5,0.2,3.1,0.6,4.7c0.1,0.4,0,0.8-0.2,1.2c-0.2,0.3-0.6,0.5-1,0.6
						c-5.9,0.3-10.6,5.1-10.6,11.1c0,6.1,5,11.1,11.1,11.1h43.6c8.2,0,14.8-6.7,14.8-14.8s-6.7-14.8-14.8-14.8
						c-1.6,0-3.1,0.3-4.6,0.8c-0.4,0.1-0.8,0.1-1.2-0.2c-0.4-0.2-0.6-0.6-0.6-1C414.2,117.3,406,109.9,396.5,109.9z"/>
				</g>
				<g>
					<path class="st16" d="M404.5,162.2c-0.6-0.3-1.4-0.1-1.7,0.6l-5,10c-0.3,0.6-0.1,1.4,0.6,1.7c0.2,0.1,0.4,0.1,0.6,0.1
						c0.5,0,0.9-0.3,1.1-0.7l5-10C405.4,163.2,405.1,162.5,404.5,162.2z"/>
					<path class="st16" d="M399,174.6c-0.2,0-0.4,0-0.6-0.1c-0.3-0.2-0.6-0.4-0.7-0.8c-0.1-0.3-0.1-0.7,0.1-1l5-10
						c0.3-0.7,1.2-1,1.8-0.6l0,0c0.3,0.2,0.6,0.4,0.7,0.8c0.1,0.3,0.1,0.7-0.1,1l-5,10C400,174.4,399.5,174.6,399,174.6z M404,162.2
						c-0.4,0-0.8,0.2-1,0.6l-5,10c-0.1,0.3-0.2,0.6-0.1,0.9s0.3,0.5,0.6,0.6c0.2,0.1,0.3,0.1,0.5,0.1c0.4,0,0.8-0.2,1-0.6l5-10
						c0.1-0.3,0.2-0.6,0.1-0.9s-0.3-0.5-0.6-0.6l0,0C404.3,162.2,404.1,162.2,404,162.2z"/>
				</g>
				<g>
					<path class="st16" d="M412,162.2c-0.6-0.3-1.4-0.1-1.7,0.6l-5,10c-0.3,0.6-0.1,1.4,0.6,1.7c0.2,0.1,0.4,0.1,0.6,0.1
						c0.5,0,0.9-0.3,1.1-0.7l5-10C412.8,163.2,412.6,162.5,412,162.2z"/>
					<path class="st16" d="M406.4,174.6c-0.2,0-0.4,0-0.6-0.1c-0.3-0.2-0.6-0.4-0.7-0.8c-0.1-0.3-0.1-0.7,0.1-1l5-10
						c0.3-0.7,1.2-0.9,1.8-0.6l0,0c0.3,0.2,0.6,0.4,0.7,0.8c0.1,0.3,0.1,0.7-0.1,1l-5,10C407.4,174.4,407,174.6,406.4,174.6z
						 M411.4,162.2c-0.4,0-0.8,0.2-1,0.6l-5,10c-0.1,0.3-0.2,0.6-0.1,0.9s0.3,0.5,0.6,0.6c0.2,0.1,0.3,0.1,0.5,0.1
						c0.4,0,0.8-0.2,1-0.6l5-10c0.1-0.3,0.2-0.6,0.1-0.9c-0.1-0.3-0.3-0.5-0.6-0.6l0,0C411.8,162.2,411.6,162.2,411.4,162.2z"/>
				</g>
				<g>
					<path class="st16" d="M397,162.2c-0.6-0.3-1.4-0.1-1.7,0.6l-5,10c-0.3,0.6-0.1,1.4,0.6,1.7c0.2,0.1,0.4,0.1,0.6,0.1
						c0.5,0,0.9-0.3,1.1-0.7l5-10C397.9,163.2,397.6,162.5,397,162.2z"/>
					<path class="st16" d="M391.5,174.6c-0.2,0-0.4,0-0.6-0.1c-0.3-0.2-0.6-0.4-0.7-0.8c-0.1-0.3-0.1-0.7,0.1-1l5-10
						c0.3-0.7,1.2-1,1.8-0.6l0,0c0.3,0.2,0.6,0.4,0.7,0.8c0.1,0.3,0.1,0.7-0.1,1l-5,10C392.5,174.4,392,174.6,391.5,174.6z
						 M396.5,162.2c-0.4,0-0.8,0.2-1,0.6l-5,10c-0.1,0.3-0.2,0.6-0.1,0.9c0.1,0.3,0.3,0.5,0.6,0.6c0.2,0.1,0.3,0.1,0.5,0.1
						c0.4,0,0.8-0.2,1-0.6l5-10c0.1-0.3,0.2-0.6,0.1-0.9s-0.3-0.5-0.6-0.6l0,0C396.8,162.2,396.6,162.2,396.5,162.2z"/>
				</g>
				<g>
					<path class="st16" d="M389.6,162.2c-0.6-0.3-1.4-0.1-1.7,0.6l-5,10c-0.3,0.6-0.1,1.4,0.6,1.7c0.2,0.1,0.4,0.1,0.6,0.1
						c0.5,0,0.9-0.3,1.1-0.7l5-10C390.4,163.2,390.2,162.5,389.6,162.2z"/>
					<path class="st16" d="M384,174.6c-0.2,0-0.4,0-0.6-0.1c-0.3-0.2-0.6-0.4-0.7-0.8c-0.1-0.3-0.1-0.7,0.1-1l5-10
						c0.3-0.7,1.2-0.9,1.8-0.6l0,0c0.3,0.2,0.6,0.4,0.7,0.8c0.1,0.3,0.1,0.7-0.1,1l-5,10C385,174.4,384.5,174.6,384,174.6z
						 M389,162.2c-0.4,0-0.8,0.2-1,0.6l-5,10c-0.1,0.3-0.2,0.6-0.1,0.9s0.3,0.5,0.6,0.6c0.2,0.1,0.3,0.1,0.5,0.1
						c0.4,0,0.8-0.2,1-0.6l5-10c0.1-0.3,0.2-0.6,0.1-0.9c-0.1-0.3-0.3-0.5-0.6-0.6l0,0C389.3,162.2,389.2,162.2,389,162.2z"/>
				</g>
				<g>
					<path class="st16" d="M419.5,162.2c-0.6-0.3-1.4-0.1-1.7,0.6l-5,10c-0.3,0.6-0.1,1.4,0.6,1.7c0.2,0.1,0.4,0.1,0.6,0.1
						c0.5,0,0.9-0.3,1.1-0.7l5-10C420.3,163.2,420.1,162.5,419.5,162.2z"/>
					<path class="st16" d="M413.9,174.6c-0.2,0-0.4,0-0.6-0.1c-0.3-0.2-0.6-0.4-0.7-0.8c-0.1-0.3-0.1-0.7,0.1-1l5-10
						c0.3-0.7,1.2-1,1.8-0.6l0,0c0.3,0.2,0.6,0.4,0.7,0.8c0.1,0.3,0.1,0.7-0.1,1l-5,10C414.9,174.4,414.4,174.6,413.9,174.6z
						 M418.9,162.2c-0.4,0-0.8,0.2-1,0.6l-5,10c-0.1,0.3-0.2,0.6-0.1,0.9c0.1,0.3,0.3,0.5,0.6,0.6c0.2,0.1,0.3,0.1,0.5,0.1
						c0.4,0,0.8-0.2,1-0.6l5-10c0.1-0.3,0.2-0.6,0.1-0.9s-0.3-0.5-0.6-0.6l0,0C419.2,162.2,419.1,162.2,418.9,162.2z"/>
				</g>
				<g>
					<path class="st16" d="M382.1,162.2c-0.6-0.3-1.4-0.1-1.7,0.6l-5,10c-0.3,0.6-0.1,1.4,0.6,1.7c0.2,0.1,0.4,0.1,0.6,0.1
						c0.5,0,0.9-0.3,1.1-0.7l5-10C382.9,163.2,382.7,162.5,382.1,162.2z"/>
					<path class="st16" d="M376.5,174.6c-0.2,0-0.4,0-0.6-0.1c-0.7-0.3-1-1.2-0.6-1.8l5-10c0.3-0.7,1.2-0.9,1.8-0.6
						c0.3,0.2,0.6,0.4,0.7,0.8c0.1,0.3,0.1,0.7-0.1,1l-5,10C377.5,174.4,377.1,174.6,376.5,174.6z M381.5,162.2
						c-0.4,0-0.8,0.2-1,0.6l-5,10c-0.3,0.6-0.1,1.2,0.5,1.5c0.2,0.1,0.3,0.1,0.5,0.1c0.4,0,0.8-0.2,1-0.6l5-10
						c0.1-0.3,0.2-0.6,0.1-0.9s-0.3-0.5-0.6-0.6l0,0C381.9,162.2,381.7,162.2,381.5,162.2z"/>
				</g>
			</g>
		</g>
	</g>
</g>

</svg>
