<?xml version="1.0" encoding="utf-8"?>
<!-- Generator: Adobe Illustrator 25.3.1, SVG Export Plug-In . SVG Version: 6.00 Build 0)  -->
<svg version="1.1" xmlns="http://www.w3.org/2000/svg" xmlns:xlink="http://www.w3.org/1999/xlink" x="0px" y="0px"
	 viewBox="0 0 800 560" style="enable-background:new 0 0 800 560;" xml:space="preserve">
<style type="text/css">
	.st0{fill:none;stroke:#A0E9DF;stroke-width:1.5;stroke-miterlimit:10;}
	.st1{fill:none;stroke:#A0E9DF;stroke-width:1.8;stroke-miterlimit:10;}
	.st2{display:none;}
	.st3{display:inline;}
	.st4{display:inline;fill:none;stroke:#1CD8C0;stroke-width:2;stroke-miterlimit:10;}
	.st5{fill:#FFFFFF;stroke:#1CD8C0;stroke-width:1.8;stroke-miterlimit:10;}
	.st6{fill:none;stroke:#1CD7BF;stroke-width:1.8;stroke-miterlimit:10;}
	.st7{fill:#1CD7BF;}
	.st8{fill:#4E4E4E;}
	.st9{fill:#CCE5F4;}
	.st10{fill:none;stroke:#F7C13F;stroke-width:2;stroke-linecap:round;stroke-miterlimit:10;}
	.st11{fill:none;stroke:#F7C13F;stroke-width:2;stroke-linecap:round;stroke-linejoin:round;stroke-miterlimit:10;}
	.st12{fill:#CCE5F4;stroke:#F7C13F;stroke-width:0.25;stroke-miterlimit:10;}
	.st13{fill:#CCE5F4;stroke:#FFFFFF;stroke-width:0.25;stroke-miterlimit:10;}
	.st14{fill:none;stroke:#CCE5F4;stroke-width:2;stroke-linecap:round;stroke-miterlimit:10;}
	.st15{fill:none;stroke:#CCE5F4;stroke-width:2;stroke-linecap:round;stroke-linejoin:round;stroke-miterlimit:10;}
	.st16{fill:#F7C13F;}
	.st17{fill:#F6C03F;stroke:#F6C03F;stroke-width:0.25;stroke-miterlimit:10;}
	.st18{display:inline;fill:none;stroke:#F7C13F;stroke-width:2;stroke-linecap:round;stroke-linejoin:round;stroke-miterlimit:10;}
	.st19{display:inline;fill:none;stroke:#F7C13F;stroke-width:2;stroke-linecap:round;stroke-miterlimit:10;}
	.st20{fill:#FFBF27;}
	.st21{fill:#FFBF27;stroke:#FFFFFF;stroke-width:0.25;stroke-miterlimit:10;}
	.st22{font-family:'NotoSansTC-Medium-83pv-RKSJ-H';}
	.st23{font-size:22.2642px;}
	.st24{letter-spacing:1;}
</style>
<g id="tu_1_">
	<g id="tu">
		<path class="st0" d="M325,518.9c0.1-3.2-2.2-5.3-5.4-5.3c-3.4,0-5,2.3-5.1,4.9c-0.1-3-2.4-4.9-5.4-4.9c-3.4,0-5,2.3-5.1,4.9
			c-0.1-3-2.4-4.9-5.4-4.9c-3.4,0-5,2.3-5.1,4.9c-0.1-3-2.4-4.9-5.4-4.9c-3.4,0-5,2.3-5.1,4.9c-0.1-3-2.4-4.9-5.4-4.9
			c-3.6,0-5.2,2.6-5.2,5.3"/>
		<path class="st0" d="M271.3,518.9c0.1-3.2-2.2-5.3-5.4-5.3c-3.4,0-5,2.3-5.1,4.9c-0.1-3-2.4-4.9-5.4-4.9c-3.4,0-5,2.3-5.1,4.9
			c-0.1-3-2.4-4.9-5.4-4.9c-3.4,0-5,2.3-5.1,4.9c-0.1-3-2.4-4.9-5.4-4.9c-3.4,0-5,2.3-5.1,4.9c-0.1-3-2.4-4.9-5.4-4.9
			c-3.6,0-5.2,2.6-5.2,5.3"/>
		<path class="st0" d="M217.7,518.9c0.1-3.2-2.2-5.3-5.4-5.3c-3.4,0-5,2.3-5.1,4.9c-0.1-3-2.4-4.9-5.4-4.9c-3.4,0-5,2.3-5.1,4.9
			c-0.1-3-2.4-4.9-5.4-4.9c-3.4,0-5,2.3-5.1,4.9c-0.1-3-2.4-4.9-5.4-4.9c-3.4,0-5,2.3-5.1,4.9c-0.1-3-2.4-4.9-5.4-4.9
			c-3.6,0-5.2,2.6-5.2,5.3"/>
		<path class="st1" d="M379.5,518.9c0.1-3.2-2.2-5.3-5.4-5.3c-3.4,0-5,2.3-5.1,4.9c-0.1-3-2.4-4.9-5.4-4.9c-3.4,0-5,2.3-5.1,4.9
			c-0.1-3-2.4-4.9-5.4-4.9c-3.4,0-5,2.3-5.1,4.9c-0.1-3-2.4-4.9-5.4-4.9c-3.4,0-5,2.3-5.1,4.9c-0.1-3-2.4-4.9-5.4-4.9
			c-3.6,0-5.2,2.6-5.2,5.3"/>
		<path class="st0" d="M433.1,518.9c0.1-3.2-2.2-5.3-5.4-5.3c-3.4,0-5,2.3-5.1,4.9c-0.1-3-2.4-4.9-5.4-4.9c-3.4,0-5,2.3-5.1,4.9
			c-0.1-3-2.4-4.9-5.4-4.9c-3.4,0-5,2.3-5.1,4.9c-0.1-3-2.4-4.9-5.4-4.9c-3.4,0-5,2.3-5.1,4.9c-0.1-3-2.4-4.9-5.4-4.9
			c-3.6,0-5.2,2.6-5.2,5.3"/>
		<path class="st0" d="M487.5,518.9c0.1-3.2-2.2-5.3-5.4-5.3c-3.4,0-5,2.3-5.1,4.9c-0.1-3-2.4-4.9-5.4-4.9c-3.4,0-5,2.3-5.1,4.9
			c-0.1-3-2.4-4.9-5.4-4.9c-3.4,0-5,2.3-5.1,4.9c-0.1-3-2.4-4.9-5.4-4.9c-3.4,0-5,2.3-5.1,4.9c-0.1-3-2.4-4.9-5.4-4.9
			c-3.6,0-5.2,2.6-5.2,5.3"/>
		<path class="st1" d="M540.2,518.9c0.1-3.2-2.2-5.3-5.4-5.3c-3.4,0-5,2.3-5.1,4.9c-0.1-3-2.4-4.9-5.4-4.9c-3.4,0-5,2.3-5.1,4.9
			c-0.1-3-2.4-4.9-5.4-4.9c-3.4,0-5,2.3-5.1,4.9c-0.1-3-2.4-4.9-5.4-4.9c-3.4,0-5,2.3-5.1,4.9c-0.1-3-2.4-4.9-5.4-4.9
			c-3.6,0-5.2,2.6-5.2,5.3"/>
		<path class="st0" d="M594.6,518.9c0.1-3.2-2.2-5.3-5.4-5.3c-3.4,0-5,2.3-5.1,4.9c-0.1-3-2.4-4.9-5.4-4.9c-3.4,0-5,2.3-5.1,4.9
			c-0.1-3-2.4-4.9-5.4-4.9c-3.4,0-5,2.3-5.1,4.9c-0.1-3-2.4-4.9-5.4-4.9c-3.4,0-5,2.3-5.1,4.9c-0.1-3-2.4-4.9-5.4-4.9
			c-3.6,0-5.2,2.6-5.2,5.3"/>
		<path class="st0" d="M648.2,518.9c0.1-3.2-2.2-5.3-5.4-5.3c-3.4,0-5,2.3-5.1,4.9c-0.1-3-2.4-4.9-5.4-4.9c-3.4,0-5,2.3-5.1,4.9
			c-0.1-3-2.4-4.9-5.4-4.9c-3.4,0-5,2.3-5.1,4.9c-0.1-3-2.4-4.9-5.4-4.9c-3.4,0-5,2.3-5.1,4.9c-0.1-3-2.4-4.9-5.4-4.9
			c-3.6,0-5.2,2.6-5.2,5.3"/>
	</g>
</g>

</svg>
