<?xml version="1.0" encoding="iso-8859-1"?>
<!-- Generator: Adobe Illustrator 19.0.0, SVG Export Plug-In . SVG Version: 6.00 Build 0)  -->
<svg version="1.1" id="&#x5716;&#x5C64;_1" xmlns="http://www.w3.org/2000/svg" xmlns:xlink="http://www.w3.org/1999/xlink"
    x="0px" y="0px" viewBox="-299 15 601 601" style="enable-background:new -299 15 601 601;" xml:space="preserve">
    <title>Group 103 Copy 4</title>
    <desc>Created with Sketch.</desc>
    <g id="UI-KIT" style="opacity:0.2;">
        <g id="Group-103-Copy-4"
            transform="translate(300.500000, 300.500000) rotate(-90.000000) translate(-300.500000, -300.500000) ">
            <g id="Clip-2">
            </g>
            <g id="Clip-5">
            </g>
            <g id="Clip-8">
            </g>
            <g id="Clip-11">
            </g>
            <g id="Clip-14">
            </g>
            <g id="Clip-17">
            </g>
            <g id="Clip-20">
            </g>
            <g id="Clip-23">
            </g>
            <g id="Clip-26">
            </g>
            <g id="Clip-29">
            </g>
            <g id="Clip-32">
            </g>
            <g id="Clip-35">
            </g>
            <g id="Clip-38">
            </g>
            <g id="Clip-41">
            </g>
            <g id="Clip-44">
            </g>
            <g id="Clip-47">
            </g>
            <g id="Clip-50">
            </g>
            <g id="Clip-53">
            </g>
            <g id="Clip-56">
            </g>
            <g id="Clip-59">
            </g>
            <g id="Clip-62">
            </g>
            <g id="Clip-65">
            </g>
            <g id="Clip-68">
            </g>
            <g id="Clip-71">
            </g>
            <g id="Clip-74">
            </g>
            <g id="Clip-77">
            </g>
            <g id="Clip-80">
            </g>
            <g id="Clip-83">
            </g>
            <g id="Clip-86">
            </g>
            <g id="Clip-89">
            </g>
            <g id="Clip-92">
            </g>
            <g id="Clip-95">
            </g>
            <g id="Clip-98">
            </g>
            <g id="Group-102">
                <g id="Clip-101">
                </g>
            </g>
        </g>
    </g>
    <path style="opacity:0.2;fill:#fff;"
        d="M295.48,333.296c2.209-1.413,4.201-2.696,5.866-4.209c-0.06,1.34-0.13,2.676-0.207,4.011
	c-1.293,0.957-2.657,1.837-4.043,2.724c-6.011,3.847-12.824,8.205-16.962,20.763c-1.841,5.584-0.798,12.847,0.306,20.536
	c1.288,8.979,2.62,18.262,0.056,27.139c-1.952,6.757-6.998,12.665-12.341,18.92c-5.617,6.577-11.426,13.378-13.371,21.233
	c-1.683,6.796,0.068,14.577,1.921,22.815c0.347,1.54,0.695,3.09,1.023,4.645c-0.763,1.247-1.541,2.484-2.322,3.719
	c-0.474-2.571-1.053-5.152-1.628-7.706c-1.848-8.216-3.759-16.711-1.906-24.194c2.115-8.544,8.158-15.619,14.002-22.461
	c5.126-6.002,9.968-11.671,11.739-17.804c2.387-8.257,1.101-17.217-0.143-25.881c-1.155-8.047-2.246-15.648-0.186-21.901
	C281.758,342.075,289.366,337.207,295.48,333.296z M301.649,314.084h-15.278c-0.489-11.545-6.325-15.342-12.506-19.329
	c-6.054-3.903-12.914-8.327-17.176-21.102c-1.902-5.703-0.926-13.101,0.107-20.933c1.204-9.122,2.449-18.554-0.198-27.563
	c-2.021-6.875-7.132-12.888-12.543-19.254c-5.688-6.692-11.569-13.612-13.592-21.604c-1.758-6.945-0.076-14.886,1.704-23.293
	c1.771-8.366,3.604-17.017,1.936-25.051c-1.557-7.5-6.48-14.45-11.241-21.17c-1.678-2.369-3.373-4.766-4.929-7.197
	c-2.393-2.489-4.834-4.93-7.311-7.336c2.311,5.695,6.093,11.046,9.791,16.267c4.794,6.767,9.322,13.159,10.752,20.045
	c1.54,7.418-0.226,15.756-1.933,23.819c-1.773,8.373-3.606,17.03-1.678,24.651c2.193,8.667,8.305,15.857,14.214,22.81
	c5.199,6.117,10.109,11.894,11.95,18.157c2.469,8.4,1.267,17.513,0.104,26.325c-1.08,8.185-2.101,15.916,0.021,22.274
	c4.596,13.776,12.247,18.709,18.396,22.674c6.175,3.982,10.701,6.926,11.136,16.807h-20.032
	c-0.49-11.545-6.325-15.342-12.507-19.329c-6.053-3.903-12.913-8.326-17.175-21.102c-1.902-5.703-0.926-13.101,0.107-20.933
	c1.204-9.122,2.449-18.554-0.198-27.563c-2.021-6.875-7.132-12.888-12.543-19.254c-5.688-6.692-11.57-13.612-13.593-21.603
	c-1.758-6.945-0.076-14.887,1.704-23.294c1.772-8.366,3.604-17.016,1.937-25.05c-1.557-7.5-6.48-14.45-11.242-21.17
	c-4.937-6.968-10.041-14.173-11.216-21.805c-0.571-3.713-0.201-7.624,0.634-11.602c-0.87-0.698-1.733-1.405-2.611-2.094
	c-1.124,4.774-1.698,9.535-0.987,14.152c1.282,8.332,6.596,15.831,11.733,23.083c4.794,6.767,9.322,13.159,10.752,20.045
	c1.54,7.418-0.226,15.756-1.934,23.819c-1.773,8.373-3.606,17.031-1.678,24.652c2.193,8.667,8.305,15.856,14.215,22.81
	c5.199,6.117,10.109,11.895,11.95,18.157c2.469,8.4,1.267,17.513,0.104,26.325c-1.08,8.185-2.101,15.916,0.021,22.274
	c4.596,13.776,12.247,18.709,18.396,22.674c6.175,3.982,10.701,6.926,11.136,16.807h-20.033
	c-0.489-11.545-6.325-15.342-12.506-19.329c-6.053-3.903-12.913-8.327-17.175-21.102c-1.902-5.703-0.926-13.101,0.107-20.933
	c1.203-9.122,2.448-18.554-0.199-27.563c-2.021-6.875-7.132-12.888-12.543-19.254c-5.688-6.692-11.569-13.612-13.592-21.603
	c-1.758-6.945-0.076-14.886,1.704-23.293c1.771-8.366,3.604-17.017,1.936-25.051c-1.557-7.5-6.48-14.449-11.241-21.17
	c-4.937-6.968-10.041-14.173-11.216-21.806c-1.163-7.556,1.564-15.932,4.201-24.032c0.173-0.531,0.346-1.064,0.519-1.598
	c-0.86-0.585-1.726-1.161-2.592-1.738c-0.258,0.804-0.519,1.607-0.78,2.407c-2.746,8.434-5.586,17.156-4.313,25.417
	c1.282,8.332,6.595,15.831,11.732,23.083c4.794,6.767,9.322,13.159,10.752,20.045c1.54,7.418-0.226,15.756-1.933,23.819
	c-1.773,8.373-3.606,17.03-1.678,24.651c2.193,8.667,8.305,15.856,14.214,22.81c5.199,6.117,10.11,11.895,11.95,18.157
	c2.469,8.4,1.267,17.513,0.104,26.326c-1.08,8.185-2.1,15.915,0.021,22.274c4.596,13.776,12.247,18.709,18.395,22.674
	c6.175,3.982,10.701,6.926,11.136,16.807h-20.032c-0.489-11.545-6.325-15.342-12.506-19.329
	c-6.053-3.903-12.913-8.327-17.175-21.102c-1.902-5.703-0.926-13.101,0.107-20.933c1.203-9.122,2.448-18.554-0.199-27.563
	c-2.021-6.875-7.132-12.888-12.543-19.254c-5.688-6.692-11.569-13.612-13.592-21.603c-1.758-6.945-0.076-14.886,1.704-23.293
	c1.771-8.366,3.604-17.017,1.936-25.051c-1.557-7.5-6.48-14.449-11.241-21.17c-4.937-6.968-10.041-14.173-11.216-21.806
	c-1.163-7.556,1.564-15.932,4.201-24.032c1.495-4.59,3.015-9.272,3.884-13.912c-0.919-0.527-1.85-1.034-2.774-1.551
	c-0.79,4.781-2.391,9.71-3.962,14.535c-2.746,8.434-5.586,17.156-4.313,25.417c1.282,8.332,6.595,15.831,11.732,23.083
	c4.794,6.767,9.322,13.159,10.752,20.045c1.54,7.418-0.226,15.756-1.933,23.819c-1.773,8.373-3.606,17.03-1.678,24.651
	c2.193,8.667,8.305,15.856,14.214,22.81c5.199,6.117,10.11,11.895,11.95,18.157c2.469,8.4,1.267,17.513,0.104,26.326
	c-1.08,8.185-2.1,15.915,0.021,22.274c4.596,13.776,12.247,18.709,18.395,22.674c6.175,3.982,10.701,6.926,11.136,16.807h-20.032
	c-0.489-11.545-6.325-15.342-12.506-19.329c-6.053-3.903-12.913-8.327-17.175-21.102c-1.902-5.703-0.926-13.101,0.107-20.933
	c1.203-9.122,2.448-18.554-0.199-27.563c-2.021-6.875-7.132-12.888-12.543-19.254c-5.688-6.692-11.57-13.612-13.593-21.603
	c-1.758-6.945-0.075-14.885,1.705-23.292c1.771-8.367,3.604-17.018,1.936-25.052c-1.557-7.5-6.48-14.449-11.241-21.17
	c-4.937-6.968-10.041-14.173-11.216-21.806c-1.163-7.556,1.563-15.931,4.201-24.031c2.548-7.825,5.183-15.917,4.51-23.613
	c-0.059-0.674-0.151-1.347-0.257-2.018c-1.116-0.519-2.228-1.045-3.352-1.551c0.293,1.278,0.509,2.556,0.62,3.83
	c0.619,7.087-1.919,14.883-4.374,22.423c-2.746,8.434-5.586,17.155-4.313,25.417c1.282,8.332,6.595,15.831,11.732,23.083
	c4.794,6.767,9.322,13.159,10.752,20.045c1.541,7.418-0.226,15.756-1.934,23.82c-1.772,8.372-3.606,17.029-1.678,24.65
	c2.193,8.667,8.305,15.856,14.215,22.81c5.199,6.117,10.109,11.895,11.95,18.157c2.469,8.4,1.267,17.513,0.104,26.326
	c-1.08,8.185-2.1,15.915,0.021,22.274c4.596,13.776,12.247,18.709,18.395,22.674c6.175,3.982,10.702,6.926,11.136,16.807h-20.032
	c-0.489-11.545-6.325-15.342-12.506-19.329c-6.053-3.903-12.913-8.327-17.175-21.102c-1.902-5.703-0.926-13.101,0.107-20.933
	c1.203-9.122,2.448-18.554-0.199-27.563c-2.021-6.875-7.132-12.888-12.543-19.254c-5.688-6.692-11.569-13.612-13.592-21.604
	c-1.758-6.945-0.076-14.886,1.704-23.293c1.771-8.366,3.604-17.017,1.936-25.051c-1.557-7.5-6.48-14.449-11.241-21.17
	c-4.937-6.968-10.041-14.173-11.216-21.806c-1.163-7.556,1.563-15.931,4.201-24.031c2.548-7.825,5.183-15.917,4.51-23.613
	c-0.378-4.331-1.772-8.59-3.591-12.776c-1.308-0.462-2.612-0.934-3.929-1.379c2.273,4.782,4.113,9.62,4.532,14.416
	c0.619,7.087-1.919,14.883-4.374,22.423c-2.746,8.434-5.586,17.155-4.313,25.417c1.282,8.332,6.595,15.831,11.732,23.083
	c4.794,6.767,9.322,13.159,10.752,20.045c1.54,7.418-0.226,15.756-1.933,23.819c-1.773,8.373-3.606,17.03-1.678,24.651
	c2.193,8.667,8.305,15.857,14.214,22.81c5.199,6.117,10.109,11.894,11.95,18.157c2.469,8.4,1.267,17.513,0.104,26.326
	c-1.08,8.185-2.1,15.915,0.021,22.274c4.596,13.776,12.247,18.709,18.395,22.674c6.175,3.982,10.701,6.926,11.136,16.807h-19.75
	c-0.489-11.545-6.325-15.342-12.506-19.329c-6.053-3.903-12.913-8.327-17.175-21.102c-1.902-5.703-0.926-13.101,0.107-20.933
	c1.203-9.122,2.448-18.554-0.199-27.563c-2.021-6.875-7.132-12.888-12.543-19.254c-5.688-6.692-11.569-13.612-13.592-21.603
	c-1.758-6.945-0.076-14.886,1.704-23.293c1.771-8.366,3.604-17.017,1.936-25.051c-1.557-7.5-6.48-14.45-11.241-21.171
	c-4.937-6.968-10.041-14.173-11.216-21.804c-1.163-7.556,1.564-15.932,4.202-24.032c2.548-7.826,5.183-15.917,4.51-23.613
	c-0.624-7.138-4.003-14.083-7.51-20.821c-1.398-0.351-2.799-0.694-4.204-1.026c0.101,0.193,0.202,0.386,0.302,0.578
	c3.693,7.05,7.512,14.339,8.141,21.531c0.619,7.087-1.919,14.884-4.374,22.424c-2.746,8.434-5.586,17.154-4.314,25.416
	c1.283,8.332,6.596,15.83,11.733,23.082c4.794,6.768,9.322,13.159,10.752,20.046c1.541,7.418-0.226,15.756-1.933,23.819
	c-1.773,8.373-3.606,17.03-1.678,24.651c2.193,8.667,8.305,15.857,14.214,22.81c5.199,6.117,10.109,11.894,11.95,18.157
	c2.469,8.4,1.267,17.512,0.104,26.324c-1.08,8.186-2.101,15.917,0.021,22.275c4.596,13.776,12.247,18.709,18.395,22.674
	c6.175,3.982,10.702,6.926,11.136,16.807h-19.75c-0.489-11.545-6.325-15.342-12.506-19.329c-6.053-3.903-12.913-8.327-17.175-21.102
	c-1.902-5.703-0.926-13.101,0.107-20.933c1.203-9.122,2.448-18.554-0.199-27.563c-2.021-6.875-7.132-12.888-12.543-19.254
	c-5.688-6.692-11.569-13.612-13.592-21.603c-1.758-6.945-0.076-14.886,1.704-23.293c1.771-8.366,3.604-17.017,1.936-25.051
	c-1.557-7.5-6.48-14.449-11.241-21.17c-4.937-6.968-10.041-14.173-11.216-21.806c-1.163-7.556,1.564-15.932,4.201-24.032
	c2.549-7.825,5.184-15.917,4.511-23.612c-0.681-7.79-4.642-15.349-8.471-22.66c-0.605-1.155-1.203-2.299-1.787-3.437
	c-1.211-0.193-2.424-0.379-3.64-0.557c0.897,1.808,1.835,3.604,2.768,5.385c3.693,7.049,7.512,14.338,8.141,21.529
	c0.619,7.087-1.92,14.883-4.375,22.422c-2.746,8.434-5.586,17.156-4.313,25.417c1.282,8.332,6.595,15.831,11.732,23.083
	c4.794,6.767,9.322,13.159,10.752,20.045c1.54,7.418-0.226,15.756-1.933,23.819c-1.773,8.373-3.606,17.03-1.678,24.651
	c2.193,8.667,8.305,15.856,14.214,22.81c5.199,6.117,10.11,11.895,11.95,18.157c2.469,8.4,1.267,17.513,0.104,26.326
	c-1.08,8.185-2.1,15.915,0.021,22.274c4.596,13.776,12.247,18.709,18.395,22.674c6.175,3.982,10.701,6.926,11.136,16.807h-20.032
	c-0.489-11.545-6.325-15.342-12.506-19.329c-6.053-3.903-12.913-8.327-17.175-21.102c-1.902-5.703-0.926-13.101,0.107-20.933
	c1.203-9.122,2.448-18.554-0.199-27.563c-2.021-6.875-7.132-12.888-12.543-19.254c-5.688-6.692-11.569-13.612-13.592-21.603
	c-1.758-6.945-0.076-14.886,1.704-23.293c1.771-8.366,3.604-17.017,1.936-25.051c-1.557-7.5-6.48-14.449-11.241-21.17
	c-4.937-6.968-10.041-14.173-11.216-21.806c-1.163-7.556,1.564-15.932,4.201-24.032c2.549-7.825,5.184-15.917,4.511-23.612
	c-0.681-7.79-4.642-15.349-8.471-22.66c-1.12-2.138-2.22-4.242-3.233-6.326c-1.136-0.086-2.279-0.143-3.419-0.217
	c1.24,2.671,2.623,5.318,3.993,7.935c3.693,7.049,7.512,14.338,8.141,21.529c0.619,7.087-1.92,14.883-4.375,22.422
	c-2.746,8.434-5.586,17.156-4.313,25.417c1.282,8.332,6.595,15.831,11.732,23.083c4.794,6.767,9.322,13.159,10.752,20.045
	c1.54,7.418-0.226,15.756-1.933,23.819c-1.773,8.373-3.606,17.03-1.678,24.651c2.193,8.667,8.305,15.856,14.214,22.81
	c5.199,6.117,10.11,11.895,11.95,18.157c2.469,8.4,1.267,17.513,0.104,26.326c-1.08,8.185-2.1,15.915,0.021,22.274
	c4.596,13.776,12.247,18.709,18.395,22.674c6.175,3.982,10.701,6.926,11.136,16.807H79.398
	c-0.489-11.545-6.325-15.342-12.506-19.329c-6.053-3.903-12.913-8.327-17.175-21.102c-1.902-5.703-0.926-13.101,0.107-20.933
	c1.203-9.122,2.448-18.554-0.199-27.563c-2.021-6.875-7.132-12.888-12.543-19.254c-5.688-6.692-11.569-13.612-13.592-21.604
	c-1.758-6.945-0.076-14.886,1.704-23.293c1.771-8.366,3.604-17.017,1.936-25.051c-1.557-7.5-6.48-14.449-11.241-21.17
	c-4.937-6.968-10.041-14.173-11.216-21.806C3.51,85.425,6.236,77.05,8.874,68.95c2.548-7.825,5.183-15.917,4.51-23.613
	c-0.681-7.79-4.641-15.351-8.471-22.662c-1.275-2.435-2.528-4.827-3.652-7.193c-1.096,0.001-2.186,0.028-3.279,0.042
	c1.309,2.878,2.799,5.728,4.274,8.544c3.692,7.05,7.511,14.339,8.14,21.531c0.619,7.087-1.919,14.883-4.374,22.423
	c-2.746,8.434-5.586,17.155-4.313,25.417c1.282,8.332,6.595,15.831,11.732,23.083c4.794,6.767,9.322,13.159,10.752,20.045
	c1.54,7.418-0.226,15.756-1.933,23.819c-1.773,8.373-3.606,17.03-1.678,24.651c2.193,8.667,8.305,15.857,14.214,22.81
	c5.199,6.117,10.109,11.894,11.95,18.157c2.469,8.4,1.267,17.513,0.104,26.326c-1.08,8.185-2.1,15.915,0.021,22.274
	c4.596,13.776,12.247,18.709,18.395,22.674c6.175,3.982,10.701,6.926,11.136,16.807H56.369
	c-0.489-11.545-6.325-15.342-12.506-19.329c-6.053-3.903-12.913-8.327-17.175-21.102c-1.902-5.703-0.926-13.101,0.107-20.933
	c1.203-9.122,2.448-18.554-0.199-27.563c-2.021-6.875-7.132-12.888-12.543-19.254C8.366,199.212,2.484,192.292,0.462,184.3
	c-1.758-6.945-0.076-14.886,1.704-23.293c1.771-8.366,3.604-17.017,1.936-25.051c-1.558-7.5-6.48-14.45-11.241-21.17
	c-4.937-6.968-10.041-14.173-11.216-21.805c-1.163-7.556,1.564-15.932,4.202-24.032c2.548-7.825,5.183-15.917,4.51-23.613
	c-0.681-7.79-4.641-15.349-8.471-22.66c-1.12-2.139-2.221-4.245-3.234-6.33c-1.067,0.081-2.126,0.189-3.189,0.281
	c1.18,2.503,2.48,4.985,3.766,7.441c3.693,7.049,7.511,14.338,8.14,21.529c0.619,7.087-1.919,14.884-4.375,22.423
	c-2.746,8.434-5.586,17.155-4.314,25.417c1.283,8.332,6.595,15.831,11.733,23.083c4.794,6.767,9.322,13.159,10.752,20.046
	c1.54,7.418-0.225,15.756-1.933,23.819c-1.773,8.373-3.606,17.03-1.677,24.651c2.193,8.667,8.305,15.857,14.214,22.81
	c5.199,6.117,10.109,11.894,11.95,18.157c2.469,8.4,1.267,17.513,0.104,26.326c-1.08,8.185-2.1,15.915,0.021,22.274
	c4.596,13.776,12.247,18.709,18.395,22.674c6.175,3.982,10.701,6.926,11.136,16.807H33.341
	c-0.489-11.545-6.325-15.342-12.506-19.329c-6.053-3.903-12.913-8.327-17.175-21.102c-1.903-5.703-0.927-13.101,0.107-20.933
	c1.203-9.122,2.448-18.554-0.199-27.563c-2.021-6.875-7.132-12.888-12.543-19.254c-5.688-6.692-11.569-13.612-13.592-21.603
	c-1.758-6.945-0.076-14.886,1.704-23.293c1.772-8.366,3.604-17.017,1.936-25.051c-1.557-7.5-6.48-14.45-11.241-21.17
	c-4.937-6.968-10.041-14.173-11.216-21.805c-1.163-7.556,1.564-15.932,4.202-24.032c2.548-7.825,5.183-15.917,4.51-23.613
	c-0.681-7.79-4.641-15.349-8.471-22.66c-0.681-1.3-1.354-2.588-2.006-3.867c-1.04,0.156-2.075,0.326-3.111,0.493
	c0.803,1.599,1.633,3.188,2.46,4.766c3.693,7.049,7.511,14.338,8.14,21.529c0.619,7.087-1.919,14.883-4.375,22.423
	c-2.746,8.434-5.586,17.155-4.314,25.417c1.283,8.332,6.595,15.831,11.733,23.083c4.794,6.767,9.322,13.159,10.752,20.046
	c1.541,7.418-0.225,15.756-1.933,23.819c-1.773,8.373-3.606,17.03-1.677,24.651c2.193,8.667,8.304,15.856,14.214,22.81
	c5.199,6.117,10.109,11.895,11.95,18.157c2.468,8.4,1.266,17.513,0.103,26.325c-1.08,8.185-2.1,15.916,0.021,22.275
	c4.596,13.776,12.247,18.709,18.395,22.674c6.175,3.982,10.701,6.926,11.136,16.807H10.313
	c-0.489-11.545-6.325-15.342-12.506-19.329c-6.053-3.903-12.913-8.327-17.175-21.102c-1.902-5.703-0.926-13.101,0.107-20.933
	c1.204-9.122,2.448-18.554-0.199-27.563c-2.021-6.875-7.131-12.888-12.542-19.254c-5.688-6.692-11.57-13.612-13.592-21.603
	c-1.758-6.945-0.076-14.886,1.705-23.293c1.771-8.366,3.604-17.017,1.936-25.051c-1.557-7.5-6.48-14.45-11.242-21.17
	c-4.937-6.968-10.041-14.173-11.216-21.805c-1.163-7.556,1.564-15.932,4.202-24.031c2.548-7.826,5.183-15.917,4.51-23.613
	c-0.679-7.77-4.621-15.311-8.442-22.605c-1.01,0.226-2.02,0.451-3.026,0.687c0.113,0.216,0.226,0.433,0.339,0.649
	c3.693,7.049,7.511,14.339,8.14,21.53c0.619,7.087-1.919,14.884-4.375,22.424c-2.746,8.434-5.585,17.154-4.314,25.416
	c1.283,8.332,6.595,15.831,11.733,23.083c4.794,6.767,9.322,13.159,10.752,20.046c1.54,7.418-0.226,15.756-1.933,23.819
	c-1.773,8.373-3.606,17.03-1.678,24.651c2.193,8.667,8.305,15.857,14.214,22.81c5.199,6.117,10.11,11.894,11.951,18.157
	c2.468,8.4,1.266,17.513,0.103,26.326c-1.08,8.185-2.1,15.915,0.021,22.274c4.596,13.776,12.247,18.709,18.395,22.674
	c6.175,3.982,10.702,6.926,11.136,16.807h-20.032c-0.489-11.545-6.325-15.342-12.506-19.329
	c-6.053-3.903-12.913-8.326-17.175-21.102c-1.902-5.703-0.926-13.101,0.107-20.933c1.204-9.122,2.449-18.554-0.199-27.563
	c-2.02-6.875-7.131-12.888-12.543-19.255c-5.688-6.692-11.569-13.611-13.592-21.603c-1.757-6.945-0.076-14.886,1.705-23.292
	c1.772-8.366,3.604-17.017,1.936-25.051c-1.557-7.5-6.48-14.45-11.242-21.17c-4.937-6.968-10.041-14.173-11.216-21.805
	c-1.163-7.556,1.564-15.932,4.202-24.031c2.548-7.826,5.183-15.917,4.51-23.614c-0.516-5.902-2.915-11.671-5.713-17.301
	c-0.973,0.291-1.952,0.568-2.921,0.869c2.766,5.519,5.159,11.135,5.645,16.693c0.619,7.087-1.919,14.884-4.375,22.424
	c-2.746,8.434-5.585,17.154-4.314,25.416c1.283,8.332,6.595,15.831,11.733,23.083c4.794,6.767,9.322,13.159,10.752,20.046
	c1.541,7.418-0.226,15.756-1.934,23.82c-1.773,8.372-3.607,17.029-1.678,24.65c2.194,8.667,8.305,15.856,14.215,22.81
	c5.199,6.117,10.11,11.894,11.951,18.157c2.469,8.4,1.266,17.513,0.103,26.325c-1.08,8.185-2.1,15.916,0.021,22.274
	c4.596,13.776,12.247,18.709,18.395,22.674c6.175,3.982,10.702,6.926,11.136,16.807h-20.033
	c-0.489-11.545-6.324-15.342-12.506-19.329c-6.053-3.903-12.913-8.327-17.175-21.102c-1.902-5.703-0.926-13.101,0.107-20.933
	c1.204-9.122,2.448-18.554-0.199-27.563c-2.02-6.875-7.131-12.888-12.542-19.254c-5.688-6.692-11.569-13.612-13.592-21.603
	c-1.758-6.945-0.076-14.886,1.704-23.293c1.772-8.366,3.604-17.017,1.936-25.05c-1.557-7.5-6.48-14.45-11.242-21.17
	c-4.937-6.968-10.041-14.173-11.216-21.805c-1.163-7.556,1.564-15.932,4.202-24.031c2.548-7.826,5.183-15.917,4.51-23.614
	c-0.312-3.563-1.314-7.078-2.671-10.544c-0.936,0.354-1.874,0.704-2.805,1.067c1.273,3.245,2.205,6.502,2.488,9.738
	c0.619,7.087-1.919,14.884-4.375,22.424c-2.746,8.434-5.585,17.154-4.314,25.416c1.283,8.332,6.595,15.831,11.733,23.083
	c4.794,6.767,9.322,13.159,10.752,20.046c1.54,7.417-0.226,15.755-1.933,23.819c-1.773,8.373-3.607,17.03-1.678,24.651
	c2.193,8.667,8.304,15.856,14.214,22.81c5.199,6.117,10.109,11.895,11.95,18.157c2.468,8.4,1.266,17.513,0.103,26.325
	c-1.08,8.185-2.1,15.916,0.021,22.275c4.596,13.776,12.247,18.709,18.395,22.674c6.175,3.982,10.701,6.926,11.135,16.807h-19.101
	c-0.489-11.545-6.325-15.342-12.506-19.329c-6.052-3.903-12.913-8.326-17.175-21.102c-1.902-5.703-0.926-13.101,0.107-20.933
	c1.204-9.122,2.449-18.554-0.199-27.563c-2.02-6.875-7.131-12.888-12.543-19.255c-5.688-6.692-11.569-13.611-13.592-21.603
	c-1.757-6.945-0.076-14.886,1.705-23.292c1.772-8.366,3.604-17.017,1.936-25.051c-1.557-7.5-6.48-14.45-11.242-21.17
	c-4.937-6.968-10.041-14.173-11.216-21.805c-1.163-7.556,1.564-15.932,4.202-24.031c2.548-7.826,5.183-15.917,4.51-23.614
	c-0.066-0.758-0.172-1.514-0.297-2.267c-0.945,0.437-1.89,0.874-2.829,1.321c0.055,0.403,0.103,0.805,0.138,1.208
	c0.619,7.087-1.919,14.884-4.375,22.424c-2.746,8.434-5.585,17.154-4.314,25.416c1.283,8.332,6.595,15.831,11.733,23.083
	c4.794,6.767,9.322,13.159,10.752,20.046c1.541,7.418-0.226,15.756-1.934,23.82c-1.773,8.372-3.606,17.029-1.678,24.65
	c2.194,8.667,8.305,15.856,14.215,22.81c5.199,6.117,10.11,11.894,11.951,18.157c2.469,8.4,1.266,17.513,0.103,26.325
	c-1.08,8.185-2.1,15.916,0.021,22.274c4.596,13.776,12.247,18.709,18.395,22.674c6.175,3.982,10.702,6.926,11.136,16.807H-80.87
	c-0.489-11.545-6.324-15.342-12.506-19.329c-6.053-3.903-12.913-8.326-17.175-21.102c-1.903-5.703-0.926-13.101,0.107-20.933
	c1.204-9.122,2.448-18.554-0.199-27.563c-2.02-6.875-7.131-12.888-12.542-19.254c-5.688-6.692-11.569-13.612-13.592-21.603
	c-1.758-6.945-0.076-14.886,1.704-23.293c1.772-8.366,3.604-17.017,1.936-25.051c-1.557-7.5-6.48-14.45-11.241-21.17
	c-4.937-6.968-10.041-14.173-11.216-21.805c-1.163-7.556,1.564-15.932,4.202-24.032c1.484-4.557,2.992-9.204,3.865-13.812
	c-1.18,0.678-2.344,1.379-3.514,2.073c-0.856,3.593-2.037,7.23-3.203,10.81c-2.746,8.434-5.586,17.155-4.314,25.417
	c1.283,8.332,6.595,15.831,11.733,23.083c4.794,6.767,9.322,13.159,10.752,20.046c1.541,7.418-0.225,15.756-1.933,23.819
	c-1.773,8.373-3.606,17.03-1.677,24.651c2.193,8.667,8.304,15.856,14.214,22.81c5.199,6.117,10.109,11.895,11.95,18.157
	c2.468,8.4,1.266,17.513,0.103,26.325c-1.08,8.185-2.1,15.916,0.021,22.275c4.596,13.776,12.247,18.709,18.395,22.674
	c6.176,3.982,10.702,6.926,11.136,16.807h-20.032c-0.489-11.545-6.324-15.342-12.506-19.329
	c-6.053-3.903-12.913-8.326-17.175-21.102c-1.903-5.703-0.926-13.101,0.107-20.933c1.204-9.122,2.448-18.554-0.199-27.563
	c-2.02-6.875-7.131-12.888-12.542-19.254c-5.688-6.692-11.569-13.612-13.592-21.603c-1.758-6.945-0.076-14.886,1.704-23.293
	c1.772-8.366,3.604-17.017,1.936-25.051c-1.557-7.5-6.48-14.45-11.241-21.17c-4.937-6.968-10.041-14.173-11.216-21.805
	c-0.938-6.093,0.654-12.719,2.689-19.303c-1.342,0.987-2.674,1.985-3.998,2.994c-1.537,5.646-2.496,11.306-1.656,16.766
	c1.283,8.332,6.595,15.831,11.733,23.083c4.794,6.767,9.322,13.159,10.752,20.046c1.541,7.418-0.225,15.756-1.933,23.819
	c-1.773,8.373-3.606,17.03-1.677,24.651c2.193,8.667,8.304,15.856,14.214,22.81c5.199,6.117,10.109,11.895,11.95,18.157
	c2.468,8.4,1.266,17.513,0.103,26.325c-1.08,8.185-2.1,15.916,0.021,22.275c4.596,13.776,12.247,18.709,18.395,22.674
	c6.176,3.982,10.702,6.926,11.136,16.807h-20.032c-0.489-11.545-6.324-15.342-12.506-19.329
	c-6.053-3.903-12.913-8.327-17.175-21.102c-1.902-5.703-0.926-13.101,0.107-20.933c1.204-9.122,2.448-18.554-0.199-27.563
	c-2.021-6.875-7.131-12.888-12.542-19.254c-5.688-6.692-11.569-13.612-13.592-21.604c-1.758-6.945-0.076-14.886,1.704-23.293
	c1.771-8.366,3.604-17.017,1.936-25.05c-1.557-7.5-6.48-14.45-11.242-21.17c-4.587-6.476-9.315-13.156-10.904-20.194
	c-0.837,0.769-1.668,1.545-2.496,2.324c2.007,6.964,6.54,13.376,10.953,19.604c4.794,6.767,9.322,13.159,10.752,20.045
	c1.54,7.417-0.226,15.755-1.933,23.819c-1.773,8.373-3.606,17.03-1.677,24.651c2.193,8.667,8.304,15.857,14.214,22.81
	c5.199,6.117,10.109,11.894,11.95,18.157c2.468,8.4,1.266,17.513,0.103,26.326c-1.08,8.185-2.1,15.915,0.021,22.274
	c4.596,13.776,12.247,18.709,18.395,22.674c6.176,3.982,10.702,6.926,11.136,16.807h-20.032
	c-0.489-11.545-6.325-15.342-12.506-19.329c-6.053-3.903-12.913-8.326-17.175-21.102c-1.902-5.703-0.926-13.101,0.107-20.933
	c1.204-9.122,2.448-18.554-0.199-27.563c-2.021-6.875-7.131-12.888-12.542-19.254c-5.688-6.692-11.57-13.612-13.592-21.603
	c-1.758-6.945-0.076-14.886,1.704-23.293c1.772-8.366,3.604-17.017,1.936-25.05c-1.557-7.5-6.48-14.45-11.242-21.17
	c-1.138-1.606-2.283-3.225-3.388-4.859c-0.703,0.747-1.402,1.499-2.097,2.253c0.998,1.459,2.021,2.905,3.038,4.34
	c4.794,6.767,9.322,13.159,10.752,20.046c1.54,7.417-0.226,15.755-1.933,23.819c-1.773,8.373-3.607,17.03-1.678,24.651
	c2.193,8.667,8.305,15.857,14.214,22.81c5.199,6.117,10.11,11.894,11.951,18.157c2.468,8.4,1.266,17.513,0.103,26.326
	c-1.08,8.185-2.1,15.915,0.021,22.274c4.596,13.776,12.247,18.709,18.395,22.674c6.175,3.982,10.702,6.926,11.136,16.807h-20.032
	c-0.489-11.545-6.325-15.342-12.506-19.329c-6.053-3.903-12.913-8.326-17.175-21.102c-1.902-5.703-0.926-13.101,0.107-20.933
	c1.204-9.122,2.449-18.554-0.199-27.563c-2.02-6.875-7.131-12.888-12.542-19.254c-5.688-6.692-11.569-13.612-13.592-21.603
	c-1.758-6.945-0.076-14.886,1.704-23.293c1.772-8.366,3.604-17.017,1.936-25.05c-0.807-3.886-2.521-7.623-4.644-11.257
	c-0.681,0.826-1.342,1.668-2.014,2.501c1.718,3.073,3.056,6.166,3.72,9.366c1.54,7.417-0.226,15.755-1.933,23.819
	c-1.773,8.373-3.607,17.03-1.678,24.651c2.193,8.667,8.304,15.856,14.214,22.81c5.199,6.117,10.109,11.895,11.95,18.157
	c2.469,8.4,1.266,17.513,0.103,26.325c-1.08,8.185-2.1,15.916,0.021,22.274c4.596,13.776,12.247,18.709,18.395,22.674
	c6.175,3.982,10.702,6.926,11.136,16.807h-20.033c-0.489-11.545-6.324-15.342-12.506-19.329
	c-6.053-3.903-12.913-8.327-17.175-21.102c-1.902-5.703-0.926-13.101,0.107-20.933c1.204-9.122,2.448-18.554-0.199-27.563
	c-2.02-6.875-7.131-12.888-12.542-19.254c-5.688-6.692-11.569-13.612-13.592-21.603c-1.758-6.945-0.076-14.886,1.704-23.293
	c0.83-3.918,1.668-7.898,2.159-11.848c-1.383,2.072-2.739,4.163-4.072,6.271c-0.324,1.656-0.673,3.312-1.022,4.956
	c-1.773,8.373-3.607,17.03-1.678,24.651c2.193,8.667,8.304,15.856,14.214,22.81c5.199,6.117,10.109,11.895,11.95,18.157
	c2.468,8.4,1.266,17.513,0.103,26.325c-1.08,8.185-2.1,15.916,0.021,22.275c4.596,13.776,12.247,18.709,18.395,22.674
	c6.175,3.982,10.701,6.926,11.135,16.807h-20.032c-0.489-11.545-6.324-15.342-12.506-19.329
	c-6.053-3.903-12.913-8.326-17.175-21.102c-1.902-5.703-0.926-13.101,0.107-20.933c1.204-9.122,2.448-18.554-0.199-27.563
	c-2.02-6.875-7.131-12.888-12.542-19.254c-3.805-4.477-7.692-9.058-10.457-13.992c-0.508,1.122-0.991,2.258-1.485,3.388
	c2.756,4.421,6.237,8.525,9.656,12.547c5.199,6.117,10.109,11.895,11.95,18.157c2.468,8.4,1.266,17.513,0.103,26.325
	c-1.08,8.185-2.1,15.916,0.021,22.275c4.596,13.776,12.247,18.709,18.395,22.674c6.175,3.982,10.701,6.926,11.135,16.807h-20.032
	c-0.489-11.545-6.324-15.342-12.506-19.329c-6.053-3.903-12.913-8.327-17.175-21.102c-1.902-5.703-0.926-13.101,0.107-20.933
	c1.204-9.122,2.448-18.554-0.199-27.563c-1.432-4.874-4.421-9.315-7.966-13.756c-0.41,1.107-0.804,2.221-1.2,3.334
	c2.832,3.7,5.149,7.391,6.289,11.268c2.468,8.4,1.266,17.513,0.103,26.326c-1.08,8.185-2.1,15.915,0.021,22.274
	c4.596,13.776,12.247,18.709,18.395,22.674c6.176,3.982,10.702,6.926,11.136,16.807h-20.032
	c-0.489-11.545-6.324-15.342-12.506-19.329c-6.053-3.903-12.913-8.327-17.175-21.102c-0.175-0.524-0.318-1.067-0.446-1.618
	c-0.315,2.169-0.613,4.344-0.881,6.529c4.644,10.798,11.361,15.156,16.876,18.712c6.176,3.982,10.702,6.926,11.136,16.807h-20.032
	c-0.412-9.729-4.624-13.953-9.638-17.428c-0.073,1.177-0.161,2.349-0.22,3.529c3.904,2.973,6.536,6.481,6.862,13.898h-7.23
	c-0.002,0.471-0.018,0.939-0.018,1.411c0,0.531,0.017,1.058,0.02,1.589h7.236c-0.307,7.19-2.962,10.573-6.879,13.486
	c0.058,1.176,0.142,2.345,0.214,3.517c5.02-3.417,9.267-7.511,9.66-17.003h20.034c-0.405,9.46-4.867,12.332-10.931,16.212
	c-5.629,3.601-12.52,8.032-17.069,19.303c0.299,2.421,0.628,4.833,0.984,7.236c0.161-1.135,0.401-2.221,0.74-3.25
	c4.138-12.558,10.951-16.917,16.962-20.763c6.092-3.897,11.848-7.608,12.309-18.738h20.034c-0.405,9.46-4.867,12.332-10.931,16.212
	c-6.114,3.911-13.723,8.779-18.195,22.35c-2.061,6.254-0.97,13.854,0.185,21.902c1.244,8.664,2.529,17.623,0.144,25.88
	c-1.241,4.293-3.987,8.359-7.28,12.47c0.391,1.102,0.775,2.208,1.179,3.304c3.999-4.843,7.448-9.63,8.983-14.942
	c2.565-8.876,1.233-18.16-0.056-27.139c-1.104-7.688-2.146-14.951-0.305-20.536c4.138-12.558,10.951-16.917,16.962-20.763
	c6.092-3.897,11.848-7.608,12.309-18.738h20.034c-0.405,9.46-4.867,12.332-10.931,16.212c-6.114,3.911-13.723,8.779-18.195,22.35
	c-2.061,6.254-0.97,13.854,0.185,21.902c1.244,8.664,2.529,17.623,0.144,25.88c-1.772,6.133-6.614,11.802-11.74,17.803
	c-3.909,4.577-7.9,9.26-10.752,14.415c0.518,1.183,1.026,2.371,1.558,3.546c2.699-5.724,7.14-10.936,11.476-16.012
	c5.342-6.255,10.389-12.163,12.34-18.92c2.565-8.876,1.233-18.16-0.056-27.139c-1.104-7.688-2.146-14.951-0.305-20.536
	c4.138-12.558,10.951-16.917,16.962-20.763c6.092-3.897,11.848-7.608,12.309-18.738H-199c-0.405,9.46-4.867,12.332-10.931,16.212
	c-6.114,3.911-13.723,8.779-18.195,22.35c-2.061,6.254-0.97,13.854,0.186,21.902c1.243,8.664,2.529,17.623,0.144,25.88
	c-1.772,6.133-6.614,11.802-11.74,17.803c-5.844,6.843-11.887,13.918-14.002,22.462c-1.853,7.483,0.058,15.979,1.906,24.195
	c0.896,3.986,1.807,8.039,2.305,12.013c1.109,1.69,2.232,3.37,3.375,5.036c-0.089-5.836-1.433-11.843-2.753-17.708
	c-1.853-8.238-3.604-16.02-1.921-22.815c1.945-7.855,7.753-14.657,13.371-21.234c5.342-6.255,10.388-12.162,12.34-18.919
	c2.565-8.876,1.232-18.16-0.056-27.138c-1.104-7.689-2.146-14.952-0.305-20.537c4.138-12.558,10.951-16.916,16.962-20.763
	c6.092-3.897,11.848-7.608,12.309-18.738h20.035c-0.405,9.46-4.867,12.332-10.932,16.212c-6.114,3.911-13.723,8.779-18.195,22.35
	c-2.06,6.253-0.969,13.854,0.186,21.901c1.243,8.664,2.529,17.624,0.144,25.881c-1.772,6.133-6.614,11.802-11.74,17.803
	c-5.844,6.843-11.887,13.918-14.002,22.462c-1.853,7.483,0.058,15.979,1.906,24.194c1.783,7.925,3.626,16.12,2.152,23.418
	c-0.856,4.24-2.94,8.296-5.545,12.375c0.66,0.818,1.309,1.644,1.977,2.455c2.978-4.567,5.508-9.281,6.508-14.237
	c1.601-7.925-0.314-16.438-2.166-24.67c-1.853-8.238-3.604-16.02-1.921-22.815c1.945-7.855,7.753-14.656,13.371-21.233
	c5.342-6.255,10.388-12.163,12.34-18.92c2.565-8.877,1.233-18.16-0.056-27.139c-1.104-7.689-2.146-14.952-0.306-20.536
	c4.138-12.558,10.951-16.917,16.962-20.763c6.092-3.897,11.848-7.608,12.309-18.738h20.034c-0.405,9.46-4.867,12.332-10.932,16.212
	c-6.114,3.911-13.723,8.779-18.195,22.35c-2.06,6.253-0.969,13.854,0.186,21.901c1.243,8.664,2.529,17.624,0.144,25.881
	c-1.772,6.133-6.614,11.802-11.74,17.803c-5.844,6.843-11.887,13.918-14.002,22.462c-1.853,7.483,0.058,15.979,1.906,24.194
	c1.783,7.925,3.626,16.12,2.152,23.418c-1.361,6.741-5.825,13.018-10.552,19.662c-1.774,2.494-3.565,5.02-5.202,7.598
	c0.701,0.762,1.408,1.519,2.117,2.274c1.708-2.753,3.63-5.461,5.531-8.132c4.7-6.608,9.561-13.441,11.047-20.808
	c1.601-7.925-0.314-16.438-2.166-24.67c-1.853-8.238-3.604-16.02-1.921-22.815c1.945-7.855,7.753-14.656,13.371-21.233
	c5.342-6.255,10.388-12.163,12.34-18.92c2.565-8.877,1.233-18.16-0.056-27.139c-1.104-7.689-2.146-14.952-0.306-20.536
	c4.138-12.558,10.951-16.917,16.962-20.763c6.092-3.897,11.848-7.608,12.309-18.738h20.034c-0.405,9.46-4.867,12.332-10.931,16.212
	c-6.114,3.911-13.723,8.779-18.195,22.35c-2.061,6.254-0.97,13.854,0.185,21.902c1.244,8.664,2.529,17.623,0.144,25.88
	c-1.772,6.133-6.614,11.802-11.74,17.803c-5.844,6.843-11.887,13.918-14.002,22.462c-1.853,7.483,0.059,15.979,1.907,24.195
	c1.783,7.925,3.626,16.12,2.153,23.417c-1.361,6.74-5.826,13.017-10.552,19.661c-5.08,7.142-10.332,14.525-11.553,22.739
	c-0.072,0.483-0.127,0.968-0.171,1.455c0.966,0.899,1.926,1.803,2.903,2.689c-0.012-1.252,0.055-2.489,0.235-3.702
	c1.115-7.502,6.155-14.589,11.03-21.441c4.7-6.608,9.561-13.44,11.048-20.807c1.6-7.925-0.315-16.437-2.167-24.669
	c-1.854-8.238-3.604-16.021-1.921-22.816c1.945-7.855,7.753-14.656,13.371-21.233c5.342-6.255,10.388-12.163,12.34-18.92
	c2.565-8.876,1.233-18.16-0.056-27.139c-1.104-7.688-2.146-14.951-0.305-20.536c4.138-12.558,10.951-16.917,16.962-20.763
	c6.092-3.897,11.848-7.608,12.309-18.738h20.034c-0.405,9.46-4.867,12.332-10.931,16.212c-6.114,3.911-13.723,8.779-18.195,22.35
	c-2.061,6.254-0.97,13.854,0.185,21.902c1.244,8.664,2.529,17.623,0.144,25.88c-1.772,6.133-6.614,11.802-11.739,17.803
	c-5.844,6.843-11.887,13.918-14.002,22.462c-1.853,7.483,0.058,15.979,1.906,24.195c1.782,7.925,3.625,16.119,2.152,23.417
	c-1.361,6.74-5.825,13.018-10.552,19.662c-5.079,7.141-10.331,14.525-11.552,22.738c-1.165,7.838,1.515,16.096,4.226,24.11
	c1.386,1.013,2.774,2.023,4.178,3.013c-0.356-1.076-0.718-2.149-1.08-3.216c-2.681-7.913-5.452-16.096-4.356-23.465
	c1.115-7.502,6.155-14.588,11.029-21.44c4.7-6.608,9.561-13.441,11.047-20.808c1.601-7.925-0.314-16.438-2.166-24.669
	c-1.854-8.239-3.604-16.021-1.921-22.816c1.945-7.855,7.753-14.656,13.371-21.233c5.342-6.255,10.389-12.163,12.34-18.92
	c2.565-8.876,1.233-18.16-0.056-27.139c-1.104-7.688-2.146-14.951-0.305-20.536c4.138-12.558,10.951-16.917,16.962-20.763
	c6.092-3.897,11.848-7.608,12.309-18.738h20.034c-0.405,9.46-4.867,12.332-10.931,16.212c-6.114,3.911-13.723,8.779-18.195,22.35
	c-2.061,6.254-0.97,13.854,0.185,21.902c1.244,8.664,2.529,17.623,0.144,25.88c-1.772,6.133-6.614,11.802-11.739,17.803
	c-5.844,6.843-11.887,13.918-14.002,22.462c-1.853,7.483,0.058,15.979,1.906,24.195c1.782,7.925,3.625,16.119,2.152,23.417
	c-1.361,6.74-5.825,13.018-10.552,19.662c-5.079,7.141-10.331,14.525-11.552,22.738c-1.202,8.086,1.688,16.617,4.483,24.868
	c1.951,5.761,3.947,11.674,4.471,17.302c1.031,0.592,2.077,1.162,3.116,1.742c-0.211-6.6-2.508-13.4-4.746-20.007
	c-2.68-7.913-5.452-16.095-4.356-23.464c1.115-7.502,6.155-14.588,11.029-21.44c4.7-6.608,9.561-13.441,11.047-20.808
	c1.601-7.925-0.314-16.438-2.166-24.669c-1.854-8.239-3.604-16.021-1.921-22.816c1.945-7.855,7.753-14.656,13.371-21.233
	c5.342-6.255,10.389-12.163,12.34-18.92c2.565-8.876,1.233-18.16-0.056-27.139c-1.104-7.688-2.146-14.951-0.305-20.536
	c4.138-12.558,10.951-16.917,16.962-20.763c6.092-3.897,11.848-7.608,12.309-18.738h20.035c-0.405,9.46-4.867,12.332-10.932,16.212
	c-6.114,3.911-13.723,8.779-18.195,22.35c-2.06,6.253-0.969,13.854,0.186,21.901c1.244,8.664,2.529,17.624,0.144,25.881
	c-1.772,6.133-6.614,11.802-11.74,17.803c-5.844,6.843-11.887,13.918-14.002,22.462c-1.853,7.483,0.058,15.979,1.906,24.194
	c1.783,7.925,3.626,16.12,2.152,23.418c-1.361,6.741-5.825,13.018-10.552,19.662c-5.079,7.142-10.331,14.525-11.552,22.738
	c-1.202,8.086,1.688,16.618,4.483,24.869c2.513,7.417,5.111,15.087,4.526,22.074c-0.181,2.165-0.668,4.342-1.36,6.52
	c0.912,0.428,1.822,0.859,2.738,1.279c0.816-2.492,1.399-5.008,1.611-7.548c0.637-7.608-2.063-15.579-4.674-23.287
	c-2.681-7.913-5.452-16.096-4.356-23.465c1.115-7.502,6.155-14.588,11.029-21.44c4.7-6.608,9.561-13.441,11.047-20.808
	c1.601-7.925-0.314-16.438-2.166-24.67c-1.853-8.238-3.604-16.02-1.921-22.815c1.945-7.855,7.753-14.656,13.371-21.233
	c5.342-6.255,10.388-12.163,12.34-18.92c2.565-8.877,1.232-18.16-0.056-27.139c-1.104-7.689-2.146-14.952-0.306-20.536
	c4.138-12.558,10.951-16.917,16.962-20.763c6.092-3.897,11.848-7.608,12.308-18.738h19.103c-0.405,9.46-4.867,12.332-10.931,16.212
	c-6.114,3.911-13.723,8.779-18.195,22.35c-2.061,6.254-0.97,13.854,0.186,21.902c1.243,8.664,2.529,17.623,0.144,25.88
	c-1.772,6.133-6.614,11.802-11.74,17.803c-5.844,6.843-11.887,13.918-14.002,22.462c-1.853,7.483,0.058,15.979,1.907,24.196
	c1.783,7.925,3.626,16.119,2.153,23.416c-1.361,6.74-5.826,13.017-10.552,19.661c-5.079,7.142-10.332,14.525-11.553,22.739
	c-1.202,8.086,1.688,16.617,4.483,24.868c2.513,7.418,5.111,15.088,4.526,22.075c-0.405,4.839-2.329,9.735-4.686,14.574
	c0.935,0.364,1.876,0.716,2.816,1.071c2.433-5.025,4.421-10.16,4.859-15.395c0.637-7.608-2.063-15.579-4.674-23.288
	c-2.68-7.913-5.452-16.095-4.356-23.464c1.115-7.502,6.156-14.589,11.03-21.441c4.7-6.608,9.56-13.44,11.048-20.807
	c1.6-7.925-0.315-16.437-2.167-24.668c-1.854-8.239-3.604-16.021-1.921-22.817c1.945-7.855,7.753-14.657,13.371-21.234
	c5.342-6.255,10.388-12.162,12.34-18.919c2.565-8.876,1.232-18.16-0.056-27.138c-1.104-7.689-2.146-14.952-0.305-20.537
	c4.138-12.558,10.951-16.916,16.962-20.763c6.092-3.897,11.848-7.608,12.309-18.738h20.035c-0.405,9.46-4.867,12.332-10.932,16.212
	c-6.114,3.911-13.723,8.779-18.195,22.35c-2.06,6.253-0.969,13.854,0.186,21.901c1.243,8.664,2.529,17.624,0.144,25.881
	c-1.772,6.133-6.614,11.802-11.74,17.803c-5.844,6.843-11.887,13.918-14.002,22.462c-1.853,7.483,0.058,15.979,1.906,24.194
	c1.783,7.925,3.626,16.12,2.152,23.418c-1.361,6.741-5.825,13.018-10.552,19.662c-5.079,7.142-10.331,14.525-11.552,22.738
	c-1.202,8.086,1.688,16.618,4.483,24.869c2.513,7.417,5.111,15.087,4.526,22.074c-0.588,7.027-4.381,14.178-8.049,21.094
	c-0.054,0.102-0.108,0.204-0.162,0.306c0.973,0.302,1.956,0.58,2.933,0.872c3.772-7.111,7.635-14.463,8.267-22.022
	c0.637-7.608-2.063-15.579-4.674-23.287c-2.681-7.913-5.452-16.096-4.356-23.465c1.115-7.502,6.155-14.588,11.029-21.44
	c4.7-6.608,9.561-13.441,11.047-20.808c1.601-7.925-0.314-16.438-2.166-24.67c-1.853-8.238-3.604-16.02-1.921-22.815
	c1.945-7.855,7.753-14.656,13.371-21.233c5.342-6.255,10.388-12.163,12.34-18.92c2.565-8.877,1.233-18.16-0.056-27.139
	c-1.104-7.689-2.146-14.952-0.306-20.536c4.138-12.558,10.951-16.917,16.962-20.763c6.092-3.897,11.848-7.608,12.309-18.738H7.325
	c-0.405,9.46-4.867,12.332-10.931,16.212c-6.114,3.911-13.723,8.779-18.195,22.35c-2.06,6.253-0.969,13.854,0.186,21.901
	c1.244,8.664,2.529,17.624,0.144,25.881c-1.772,6.133-6.614,11.802-11.74,17.803c-5.844,6.843-11.887,13.918-14.002,22.462
	c-1.853,7.483,0.059,15.979,1.907,24.195c1.783,7.925,3.626,16.12,2.153,23.417c-1.361,6.74-5.826,13.017-10.552,19.661
	c-5.079,7.142-10.332,14.525-11.553,22.739c-1.202,8.086,1.688,16.618,4.483,24.869c2.513,7.417,5.111,15.087,4.526,22.074
	c-0.588,7.027-4.381,14.178-8.049,21.094c-1.016,1.916-2.041,3.849-3.008,5.795c1.001,0.235,2.005,0.461,3.01,0.687
	c0.846-1.675,1.74-3.365,2.648-5.077c3.81-7.182,7.749-14.609,8.388-22.249c0.637-7.608-2.063-15.579-4.674-23.287
	c-2.681-7.913-5.452-16.096-4.356-23.465c1.115-7.502,6.156-14.589,11.03-21.441c4.7-6.608,9.56-13.44,11.048-20.807
	c1.6-7.925-0.315-16.437-2.167-24.669c-1.854-8.238-3.604-16.021-1.921-22.816c1.945-7.855,7.753-14.656,13.371-21.233
	c5.342-6.255,10.388-12.163,12.34-18.92c2.565-8.877,1.232-18.16-0.056-27.139c-1.104-7.689-2.146-14.952-0.306-20.536
	c4.138-12.558,10.951-16.916,16.962-20.763c6.092-3.897,11.848-7.608,12.309-18.738h20.034c-0.405,9.46-4.867,12.332-10.931,16.212
	c-6.114,3.911-13.724,8.779-18.195,22.35c-2.06,6.254-0.969,13.854,0.186,21.902c1.243,8.664,2.529,17.623,0.144,25.88
	c-1.772,6.133-6.614,11.802-11.74,17.803c-5.844,6.843-11.887,13.918-14.002,22.462c-1.853,7.483,0.058,15.979,1.906,24.195
	c1.782,7.925,3.625,16.119,2.152,23.417c-1.361,6.74-5.825,13.018-10.552,19.662c-5.079,7.141-10.331,14.525-11.552,22.738
	c-1.202,8.086,1.688,16.618,4.482,24.868c2.513,7.418,5.111,15.088,4.526,22.075c-0.587,7.027-4.381,14.179-8.049,21.094
	c-1.736,3.273-3.494,6.594-4.948,9.953c1.018,0.163,2.034,0.331,3.055,0.484c1.329-2.964,2.916-5.963,4.543-9.031
	c3.81-7.183,7.749-14.61,8.388-22.25c0.637-7.608-2.063-15.579-4.674-23.287c-2.681-7.913-5.452-16.096-4.356-23.465
	c1.115-7.502,6.155-14.588,11.029-21.44c4.7-6.608,9.561-13.441,11.047-20.808c1.601-7.925-0.314-16.438-2.166-24.669
	c-1.854-8.239-3.604-16.021-1.921-22.816c1.945-7.855,7.753-14.657,13.371-21.234c5.342-6.255,10.388-12.163,12.341-18.919
	c2.564-8.877,1.231-18.16-0.057-27.139c-1.104-7.689-2.146-14.952-0.306-20.536c4.138-12.558,10.951-16.916,16.962-20.763
	c6.093-3.897,11.849-7.608,12.309-18.738h20.034c-0.405,9.46-4.867,12.332-10.931,16.212c-6.114,3.911-13.724,8.779-18.195,22.35
	c-2.06,6.253-0.969,13.854,0.186,21.901c1.244,8.664,2.529,17.624,0.144,25.881c-1.772,6.133-6.613,11.802-11.739,17.803
	c-5.844,6.843-11.887,13.918-14.002,22.462c-1.853,7.483,0.058,15.979,1.906,24.195c1.782,7.925,3.626,16.119,2.151,23.417
	c-1.36,6.74-5.825,13.018-10.551,19.662c-5.079,7.141-10.331,14.525-11.552,22.738c-1.202,8.086,1.688,16.618,4.483,24.869
	c2.513,7.417,5.111,15.087,4.526,22.074c-0.588,7.027-4.381,14.178-8.049,21.094c-2.198,4.145-4.431,8.365-6.035,12.644
	c1.031,0.088,2.059,0.19,3.093,0.268c1.49-3.77,3.51-7.583,5.592-11.507c3.81-7.182,7.749-14.609,8.388-22.249
	c0.637-7.608-2.063-15.579-4.674-23.287c-2.681-7.913-5.452-16.096-4.356-23.465c1.115-7.502,6.155-14.588,11.029-21.44
	c4.7-6.608,9.561-13.441,11.048-20.808c1.601-7.925-0.314-16.438-2.166-24.669c-1.854-8.239-3.604-16.021-1.921-22.816
	c1.944-7.855,7.754-14.657,13.371-21.234c5.342-6.255,10.388-12.163,12.341-18.919c2.564-8.877,1.232-18.161-0.057-27.139
	c-1.104-7.689-2.146-14.952-0.306-20.536c4.138-12.558,10.951-16.916,16.962-20.763c6.093-3.897,11.849-7.608,12.309-18.738H76.41
	c-0.405,9.46-4.867,12.332-10.931,16.212c-6.114,3.911-13.723,8.779-18.194,22.35c-2.061,6.254-0.97,13.854,0.186,21.902
	c1.243,8.664,2.528,17.623,0.143,25.88c-1.772,6.133-6.613,11.802-11.739,17.803c-5.844,6.843-11.887,13.918-14.002,22.462
	c-1.854,7.483,0.059,15.979,1.906,24.196c1.782,7.925,3.626,16.119,2.152,23.416c-1.36,6.74-5.825,13.017-10.551,19.661
	c-5.08,7.142-10.332,14.525-11.553,22.739c-1.202,8.087,1.688,16.618,4.482,24.869c2.512,7.418,5.11,15.088,4.525,22.074
	c-0.587,7.027-4.38,14.178-8.049,21.094c-2.384,4.495-4.809,9.079-6.427,13.729c1.054,0.011,2.103,0.039,3.159,0.04
	c1.513-4.049,3.679-8.143,5.918-12.364c3.81-7.182,7.749-14.609,8.389-22.249c0.636-7.608-2.063-15.578-4.675-23.286
	c-2.68-7.914-5.452-16.097-4.356-23.466c1.115-7.502,6.155-14.589,11.03-21.441c4.7-6.608,9.561-13.44,11.048-20.807
	c1.6-7.925-0.315-16.437-2.167-24.668c-1.854-8.239-3.604-16.021-1.921-22.817c1.944-7.855,7.754-14.657,13.371-21.234
	c5.342-6.255,10.388-12.163,12.341-18.919c2.564-8.876,1.232-18.16-0.057-27.138c-1.104-7.689-2.146-14.952-0.305-20.537
	c4.138-12.558,10.95-16.917,16.962-20.763c6.092-3.897,11.848-7.608,12.308-18.738h20.034c-0.405,9.46-4.867,12.332-10.931,16.212
	c-6.114,3.911-13.723,8.779-18.194,22.35c-2.061,6.254-0.97,13.854,0.186,21.902c1.243,8.664,2.528,17.623,0.143,25.88
	c-1.772,6.133-6.613,11.802-11.739,17.803c-5.844,6.843-11.887,13.918-14.002,22.462c-1.854,7.483,0.058,15.979,1.906,24.195
	c1.782,7.925,3.626,16.119,2.151,23.417c-1.36,6.74-5.824,13.018-10.551,19.662c-5.079,7.141-10.331,14.525-11.552,22.738
	c-1.202,8.086,1.688,16.618,4.482,24.868c2.513,7.418,5.11,15.088,4.525,22.075c-0.587,7.027-4.38,14.178-8.049,21.094
	c-2.275,4.29-4.591,8.661-6.204,13.094c1.091-0.072,2.186-0.128,3.274-0.211c1.489-3.76,3.504-7.564,5.58-11.477
	c3.81-7.182,7.749-14.609,8.389-22.249c0.637-7.608-2.063-15.579-4.675-23.287c-2.68-7.913-5.452-16.096-4.356-23.465
	c1.115-7.502,6.155-14.588,11.029-21.44c4.7-6.608,9.561-13.441,11.048-20.808c1.601-7.925-0.314-16.438-2.166-24.669
	c-1.854-8.239-3.604-16.021-1.921-22.816c1.944-7.855,7.754-14.657,13.371-21.234c5.342-6.255,10.388-12.163,12.341-18.919
	c2.564-8.876,1.232-18.16-0.057-27.138c-1.104-7.689-2.146-14.952-0.305-20.537c4.138-12.558,10.95-16.917,16.962-20.763
	c6.092-3.897,11.848-7.608,12.308-18.738h20.034c-0.405,9.46-4.867,12.332-10.931,16.212c-6.114,3.911-13.723,8.779-18.194,22.35
	c-2.061,6.254-0.97,13.854,0.186,21.902c1.243,8.664,2.528,17.623,0.143,25.88c-1.771,6.133-6.613,11.802-11.739,17.803
	c-5.844,6.843-11.887,13.918-14.002,22.462c-1.854,7.483,0.058,15.979,1.906,24.195c1.782,7.925,3.626,16.119,2.151,23.417
	c-1.36,6.74-5.824,13.018-10.551,19.662c-5.079,7.141-10.331,14.525-11.552,22.738c-1.202,8.086,1.688,16.618,4.482,24.868
	c2.513,7.418,5.11,15.088,4.525,22.075c-0.587,7.027-4.38,14.178-8.049,21.094c-1.839,3.468-3.703,6.989-5.203,10.552
	c1.168-0.172,2.334-0.351,3.497-0.536c1.289-2.828,2.806-5.689,4.356-8.611c3.81-7.182,7.749-14.609,8.389-22.249
	c0.637-7.608-2.063-15.579-4.675-23.287c-2.68-7.913-5.452-16.096-4.356-23.465c1.115-7.502,6.155-14.588,11.029-21.44
	c4.7-6.608,9.561-13.441,11.048-20.808c1.601-7.925-0.314-16.438-2.166-24.669c-1.854-8.239-3.604-16.021-1.921-22.816
	c1.944-7.855,7.754-14.656,13.371-21.233c5.343-6.255,10.389-12.163,12.341-18.92c2.564-8.876,1.232-18.16-0.057-27.138
	c-1.104-7.689-2.146-14.952-0.305-20.537c4.138-12.558,10.95-16.917,16.962-20.763c6.092-3.897,11.848-7.608,12.308-18.738h19.752
	c-0.405,9.46-4.867,12.332-10.931,16.212c-6.114,3.911-13.723,8.779-18.195,22.35c-2.06,6.253-0.969,13.854,0.186,21.901
	c1.243,8.664,2.529,17.624,0.144,25.881c-1.772,6.133-6.613,11.802-11.739,17.803c-5.844,6.843-11.887,13.918-14.002,22.462
	c-1.853,7.483,0.058,15.979,1.906,24.195c1.782,7.925,3.626,16.119,2.151,23.417c-1.36,6.74-5.825,13.018-10.552,19.662
	c-5.079,7.141-10.331,14.525-11.552,22.738c-1.202,8.087,1.688,16.618,4.482,24.869c2.513,7.418,5.111,15.088,4.526,22.074
	c-0.587,7.027-4.381,14.178-8.049,21.094c-1.017,1.918-2.043,3.853-3.011,5.802c1.392-0.327,2.779-0.669,4.164-1.016
	c0.581-1.119,1.177-2.245,1.779-3.381c3.81-7.182,7.749-14.609,8.389-22.249c0.637-7.608-2.063-15.579-4.675-23.287
	c-2.68-7.913-5.452-16.096-4.356-23.465c1.116-7.502,6.155-14.588,11.029-21.44c4.7-6.608,9.561-13.441,11.048-20.808
	c1.601-7.925-0.314-16.438-2.166-24.67c-1.854-8.238-3.604-16.02-1.921-22.815c1.944-7.855,7.754-14.656,13.371-21.233
	c5.343-6.255,10.389-12.163,12.341-18.92c2.564-8.876,1.232-18.16-0.057-27.138c-1.104-7.689-2.146-14.952-0.305-20.537
	c4.138-12.558,10.951-16.916,16.962-20.763c6.092-3.897,11.848-7.608,12.308-18.738h19.752c-0.405,9.46-4.867,12.332-10.931,16.212
	c-6.114,3.911-13.724,8.779-18.195,22.35c-2.06,6.253-0.969,13.854,0.186,21.901c1.244,8.664,2.529,17.624,0.144,25.881
	c-1.772,6.133-6.613,11.802-11.739,17.803c-5.844,6.843-11.887,13.918-14.002,22.462c-1.854,7.483,0.058,15.979,1.906,24.195
	c1.782,7.925,3.626,16.119,2.151,23.417c-1.36,6.74-5.824,13.018-10.551,19.662c-5.079,7.141-10.331,14.525-11.552,22.738
	c-1.203,8.087,1.688,16.619,4.482,24.87c2.512,7.417,5.11,15.087,4.525,22.073c-0.533,6.382-3.71,12.864-7.037,19.181
	c1.383-0.467,2.754-0.961,4.128-1.447c2.889-5.688,5.4-11.521,5.899-17.484c0.636-7.608-2.063-15.578-4.675-23.285
	c-2.681-7.914-5.452-16.098-4.356-23.467c1.115-7.502,6.155-14.588,11.029-21.44c4.7-6.608,9.561-13.441,11.048-20.808
	c1.601-7.925-0.314-16.438-2.166-24.669c-1.854-8.239-3.604-16.021-1.921-22.816c1.944-7.855,7.754-14.657,13.371-21.234
	c5.342-6.255,10.388-12.163,12.341-18.919c2.564-8.877,1.232-18.161-0.057-27.139c-1.104-7.689-2.146-14.952-0.306-20.536
	c4.138-12.558,10.951-16.916,16.962-20.763c6.093-3.897,11.849-7.608,12.309-18.738h20.034c-0.405,9.46-4.867,12.332-10.931,16.212
	c-6.113,3.911-13.723,8.779-18.194,22.35c-2.061,6.254-0.97,13.854,0.185,21.902c1.244,8.664,2.529,17.623,0.144,25.88
	c-1.772,6.133-6.613,11.802-11.739,17.803c-5.844,6.843-11.887,13.918-14.002,22.462c-1.853,7.483,0.058,15.979,1.906,24.195
	c1.782,7.925,3.626,16.119,2.151,23.417c-1.36,6.74-5.824,13.018-10.551,19.662c-5.079,7.141-10.331,14.525-11.552,22.738
	c-1.202,8.087,1.688,16.618,4.482,24.869c2.512,7.418,5.11,15.088,4.525,22.074c-0.223,2.667-0.909,5.351-1.873,8.034
	c1.244-0.566,2.477-1.15,3.711-1.733c0.573-2.002,0.982-4.019,1.152-6.051c0.636-7.608-2.063-15.578-4.675-23.286
	c-2.68-7.914-5.452-16.097-4.356-23.466c1.115-7.502,6.155-14.588,11.029-21.44c4.7-6.608,9.561-13.441,11.048-20.808
	c1.601-7.925-0.314-16.438-2.166-24.669c-1.854-8.239-3.604-16.021-1.921-22.816c1.944-7.855,7.754-14.657,13.371-21.234
	c5.342-6.255,10.388-12.163,12.341-18.919c2.564-8.876,1.232-18.16-0.057-27.138c-1.103-7.689-2.146-14.952-0.305-20.537
	c4.138-12.558,10.95-16.917,16.962-20.763c6.092-3.897,11.848-7.608,12.308-18.738h20.034c-0.405,9.46-4.867,12.332-10.931,16.212
	c-6.114,3.911-13.723,8.779-18.194,22.35c-2.061,6.254-0.97,13.854,0.186,21.902c1.243,8.664,2.528,17.623,0.143,25.88
	c-1.771,6.133-6.613,11.802-11.739,17.803c-5.844,6.843-11.887,13.918-14.002,22.462c-1.854,7.483,0.059,15.979,1.906,24.196
	c1.782,7.925,3.626,16.119,2.152,23.416c-1.36,6.74-5.825,13.017-10.551,19.661c-5.08,7.142-10.332,14.525-11.553,22.739
	c-1.202,8.086,1.688,16.618,4.482,24.868c1.959,5.784,3.963,11.719,4.476,17.366c0.952-0.546,1.892-1.111,2.837-1.667
	c-0.711-5.536-2.611-11.165-4.473-16.66c-2.68-7.913-5.452-16.096-4.356-23.465c1.115-7.502,6.155-14.589,11.03-21.441
	c4.7-6.608,9.561-13.44,11.048-20.807c1.6-7.925-0.315-16.437-2.167-24.668c-1.854-8.239-3.604-16.021-1.921-22.817
	c1.944-7.855,7.754-14.656,13.371-21.233c5.343-6.255,10.389-12.163,12.341-18.92c2.564-8.876,1.232-18.16-0.057-27.138
	c-1.104-7.689-2.146-14.952-0.305-20.537c4.138-12.558,10.95-16.917,16.962-20.763c6.092-3.897,11.848-7.608,12.308-18.738h20.034
	c-0.405,9.46-4.867,12.332-10.931,16.212c-6.114,3.911-13.723,8.779-18.194,22.35c-2.061,6.254-0.97,13.854,0.186,21.902
	c1.243,8.664,2.528,17.623,0.143,25.88c-1.771,6.133-6.613,11.802-11.739,17.803c-5.844,6.843-11.887,13.918-14.002,22.462
	c-1.854,7.483,0.058,15.979,1.906,24.195c1.782,7.925,3.626,16.119,2.151,23.417c-1.36,6.741-5.824,13.018-10.551,19.663
	c-5.079,7.141-10.331,14.524-11.552,22.737c-1.202,8.086,1.688,16.618,4.482,24.868c0.531,1.568,1.064,3.147,1.572,4.728
	c0.862-0.59,1.719-1.187,2.575-1.785c-0.427-1.307-0.868-2.61-1.306-3.905c-2.68-7.913-5.452-16.096-4.356-23.465
	c1.116-7.502,6.155-14.588,11.029-21.44c4.7-6.608,9.561-13.441,11.048-20.808c1.601-7.925-0.314-16.438-2.166-24.669
	c-1.854-8.239-3.604-16.021-1.921-22.816c1.944-7.855,7.754-14.656,13.371-21.233c5.343-6.255,10.389-12.163,12.341-18.92
	c2.564-8.876,1.232-18.16-0.057-27.138c-1.104-7.689-2.146-14.952-0.305-20.537c4.138-12.558,10.95-16.917,16.962-20.763
	c6.092-3.897,11.848-7.608,12.308-18.738h20.035c-0.405,9.46-4.867,12.332-10.931,16.212c-6.114,3.911-13.723,8.779-18.195,22.35
	c-2.061,6.253-0.97,13.854,0.186,21.901c1.243,8.664,2.529,17.624,0.143,25.881c-1.771,6.133-6.613,11.802-11.739,17.804
	c-5.844,6.842-11.887,13.917-14.002,22.461c-1.853,7.483,0.059,15.979,1.906,24.193c1.783,7.926,3.626,16.121,2.151,23.419
	c-1.36,6.741-5.824,13.018-10.551,19.663c-5.079,7.141-10.331,14.524-11.552,22.737c-0.766,5.151,0.131,10.482,1.604,15.806
	c0.853-0.685,1.712-1.365,2.557-2.06c-1.174-4.567-1.824-9.07-1.194-13.305c1.116-7.502,6.155-14.588,11.029-21.44
	c4.7-6.608,9.561-13.441,11.048-20.808c1.601-7.926-0.314-16.438-2.166-24.671c-1.853-8.238-3.603-16.02-1.921-22.814
	c1.945-7.855,7.754-14.656,13.371-21.233c5.343-6.255,10.389-12.163,12.341-18.92c2.564-8.877,1.232-18.16-0.056-27.139
	c-1.104-7.689-2.146-14.952-0.306-20.536c4.138-12.558,10.951-16.916,16.962-20.763c6.093-3.897,11.849-7.608,12.309-18.738h20.034
	c-0.405,9.46-4.867,12.332-10.931,16.212c-6.114,3.911-13.724,8.779-18.195,22.35c-2.061,6.253-0.97,13.854,0.186,21.901
	c1.243,8.664,2.529,17.624,0.143,25.881c-1.771,6.133-6.613,11.802-11.739,17.804c-5.844,6.842-11.887,13.917-14.002,22.461
	c-1.853,7.483,0.059,15.979,1.906,24.194c1.783,7.926,3.627,16.12,2.152,23.418c-1.36,6.74-5.825,13.018-10.552,19.662
	c-4.228,5.944-8.567,12.058-10.609,18.677c1.954-1.917,3.884-3.857,5.785-5.826c2.067-3.787,4.689-7.483,7.27-11.112
	c4.7-6.608,9.561-13.441,11.048-20.808c1.601-7.925-0.314-16.438-2.166-24.67c-1.854-8.238-3.604-16.02-1.922-22.815
	c1.945-7.855,7.754-14.656,13.371-21.233c5.343-6.255,10.389-12.163,12.341-18.92c2.564-8.877,1.232-18.16-0.056-27.139
	c-1.104-7.689-2.146-14.952-0.306-20.536c4.138-12.558,10.951-16.916,16.962-20.763c6.093-3.897,11.849-7.608,12.309-18.738h15.27
	c0.003-0.531,0.02-1.058,0.02-1.589C301.667,315.023,301.651,314.555,301.649,314.084z M264.798,207.847
	c5.199,6.117,10.109,11.894,11.95,18.157c2.469,8.4,1.267,17.513,0.104,26.325c-1.08,8.185-2.101,15.916,0.021,22.274
	c4.596,13.776,12.247,18.709,18.396,22.674c2.293,1.479,4.358,2.816,6.071,4.417c-0.061-1.354-0.136-2.705-0.215-4.055
	c-1.349-1.018-2.778-1.947-4.23-2.883c-6.053-3.903-12.914-8.327-17.176-21.102c-1.902-5.703-0.926-13.101,0.107-20.933
	c1.204-9.122,2.449-18.554-0.198-27.563c-2.021-6.875-7.132-12.888-12.543-19.254c-5.688-6.692-11.569-13.612-13.592-21.604
	c-1.758-6.945-0.076-14.886,1.704-23.293c0.313-1.481,0.628-2.97,0.926-4.464c-0.778-1.243-1.557-2.486-2.353-3.717
	c-0.441,2.522-0.977,5.054-1.507,7.559c-1.773,8.373-3.606,17.03-1.678,24.651C252.777,193.704,258.889,200.894,264.798,207.847z" />
</svg>