<svg xmlns="http://www.w3.org/2000/svg" xmlns:xlink="http://www.w3.org/1999/xlink" width="102" height="37" viewBox="0 0 102 37">
    <defs>
        <path id="a" d="M0 35.913h100.61V.34H0z"/>
    </defs>
    <g fill="none" fill-rule="evenodd">
        <path fill="#231F20" d="M0 36.665h35V1.666H0z"/>
        <g transform="translate(0 1)">
            <path fill="#FEFEFE" d="M19.531 28.49c0-.548-.335-.941-.965-.941h-2.297v2.4h1.965c.742 0 1.297-.143 1.297-.852v-.607zm-3.263-2.97h2.296c.631 0 .966-.392.966-.94v-.606c0-.71-.556-.854-1.297-.854h-1.965v2.4zm5.587-2.011v.901c0 .902-.578 1.618-1.356 1.881a1.973 1.973 0 0 1 1.356 1.886v1.026c0 1.482-.878 2.62-2.975 2.62h-4.977V21.244h5.324c1.674 0 2.628.877 2.628 2.264zM4.098 4.432v27.39h3.924V29.6H6.32V6.655h1.7V4.432H4.099zm23.455 0v2.223h1.7V29.6h-1.7v2.222h3.923V4.432h-3.923zm-10.798 6.377h2.033L17.778 7.1l-1.023 3.708zm-1.164 4.2h-2.71l3.242-10.577h3.312l.028.064 3.23 10.514h-2.71l-.56-2.026h-3.271l-.561 2.026zm-6.697 3.563H26.68v-.89H8.894v.89z"/>
            <path fill="#231F20" d="M54.142 18.673h.867v3.485h-.867v-.531h-1.19v2.868h-.91v-5.949h.91v2.17h1.19v-2.043zm.727-2.884c.336.742.728 1.75.91 2.338l-.672.265a6.826 6.826 0 0 0-.252-.756c-2.449.338-2.813.407-3.037.533a5.308 5.308 0 0 0-.238-.924c.224-.042.462-.293.756-.658.154-.196.504-.685.896-1.316-1.093.099-1.358.155-1.498.225a10.313 10.313 0 0 0-.251-.896c.18-.043.35-.21.545-.46.196-.269.882-1.29 1.246-2.284l.727.336c-.406.882-.924 1.764-1.427 2.408l1.091-.056c.196-.35.407-.742.574-1.12l.742.378c-.643 1.217-1.4 2.45-2.155 3.36l1.791-.21c-.112-.337-.252-.659-.378-.966l.63-.197zm-4.66 2.773h.895v2.155c0 1.343-.42 2.882-2.421 3.863-.098-.211-.406-.574-.574-.714 1.316-.617 1.82-1.414 2-2.226h-1.944v-3.078h.853v2.182h1.19v-2.182zm.601-2.59c.28.741.588 1.721.714 2.281l-.686.223c-.042-.195-.112-.447-.181-.727-2.436.294-2.814.378-3.01.49a7.173 7.173 0 0 0-.252-.952c.238-.042.504-.292.812-.672.182-.196.546-.657.98-1.259-1.036.083-1.274.14-1.414.224a7.564 7.564 0 0 0-.266-.965c.196-.03.364-.226.56-.49.21-.266.91-1.29 1.287-2.338l.784.364c-.448.923-1.008 1.86-1.553 2.533l1.092-.056c.238-.378.49-.812.7-1.218l.741.392c-.756 1.26-1.623 2.505-2.478 3.443l1.82-.183c-.098-.32-.21-.643-.307-.923l.657-.167zm-4.646 5.01V18.94h-1.582v2.282l1.582-.239zm-1.582-2.91h1.582V16.07h-1.582v2.001zm0-2.884h1.582v-1.96h-1.582v1.96zm2.477-1.96v11.238h-.895v-2.589c-1.12.183-2.199.379-3.094.547l-.21-.938c.266-.042.546-.084.853-.127v-8.13h-.699v-.953h4.591v.952h-.546z"/>
            <mask id="b" fill="#fff">
                <use xlink:href="#a"/>
            </mask>
            <path fill="#231F20" d="M66.605 17.65h2.184v-.727h-2.184v.728zm0-1.384h2.184v-.785h-2.184v.785zm-3.093 1.385h2.127v-.728h-2.127v.728zm0-1.385h2.127v-.785h-2.127v.785zm2.127-2.225h-3.638v-.84h3.638v-1.513h.966V13.2h2.421c-.531-.28-1.217-.643-1.763-.924l.476-.588c.686.308 1.595.756 2.1 1.036l-.336.476h.784v.841h-3.682v.712h3.108v4.018c0 .434-.085.6-.406.714-.295.126-.77.126-1.47.126a3.032 3.032 0 0 0-.294-.686c.49.014.925.014 1.05.014.153 0 .196-.042.196-.181v-.449h-2.184v1.05h-.966v-1.05h-2.127v1.273h-.91v-4.829h3.037v-.712zm4.802 7.206h-2.03v2.114c0 .532-.112.784-.519.939-.405.153-1.063.153-2.071.153a3.415 3.415 0 0 0-.293-.881c.783.012 1.47.012 1.666 0 .223-.014.265-.057.265-.223v-2.102h-3.751c.672.477 1.54 1.121 2.002 1.513l-.658.7a27.704 27.704 0 0 0-2.1-1.679l.546-.534h-1.932v-.866h5.893v-.714h.952v.714h2.03v.866zm-10.036-4.912v8.118h-1.008v-8.118h-1.721v-.965h1.72v-3.682h1.009v3.682h1.512v.965h-1.512zM78.954 18.8c.49 1.02 1.231 1.916 2.128 2.673.908-.729 1.679-1.61 2.183-2.673h-4.311zm.924-5.054c0 1.246-.379 2.743-2.1 3.737-.126-.21-.49-.602-.672-.77 1.54-.853 1.79-2 1.79-2.996V12.18h4.41v3.232c0 .393.042.532.266.532h1.079c.208 0 .518-.027.699-.069.014.266.043.657.084.895-.182.056-.476.07-.755.07h-1.177c-.965 0-1.19-.406-1.19-1.441v-2.239h-2.434v.587zm4.787 4.338a8.76 8.76 0 0 1-2.73 4.003c1.05.66 2.31 1.15 3.71 1.443-.239.223-.52.658-.66.95-1.496-.362-2.826-.95-3.917-1.748-1.218.825-2.631 1.386-4.103 1.763-.096-.293-.321-.728-.517-.95 1.343-.297 2.645-.784 3.779-1.485a9.853 9.853 0 0 1-2.282-3.206l.141-.054h-.546v-.98h6.256l.197-.042.672.306zm-8.777 1.121v3.933c0 .588-.154.868-.518 1.023-.35.166-.937.195-1.89.195-.04-.267-.195-.686-.321-.966.672.027 1.274.013 1.442.013.195 0 .266-.07.266-.265v-3.612l-1.764.518-.308-1.007c.574-.14 1.289-.337 2.072-.56v-3.01h-1.904v-.98h1.904v-2.8h1.021v2.8h1.736v.98h-1.736v2.73l1.302-.377.14.951-1.442.434zM95.935 13.9c-.181-.49-.615-1.288-.965-1.862l.881-.364c.408.588.826 1.33 1.022 1.82l-.938.406zm-2.462 9.153h5.247v-2.211h-5.247v2.211zm-.714-4.253h6.746v-.854h-6.746v.854zm0-1.96h6.746v-.855h-6.746v.855zm-.197 3.134h7.083v4.451h-.925v-.503h-5.247v.545h-.911v-4.493zm-.812-5.109h8.86v-.881h-8.86v.881zm.182-2.855a21.452 21.452 0 0 1-1.175 2.757v9.742h-.965v-8.06c-.42.67-.883 1.27-1.33 1.805a6.571 6.571 0 0 0-.574-.967c1.259-1.357 2.408-3.442 3.12-5.556l.924.279z" mask="url(#b)"/>
        </g>
    </g>
</svg>
