<svg xmlns="http://www.w3.org/2000/svg" xmlns:xlink="http://www.w3.org/1999/xlink" width="175" height="62" viewBox="0 0 175 62">
    <defs>
        <path id="a" d="M0 61.5h171.32V0H0z"/>
    </defs>
    <g fill="none" fill-rule="evenodd">
        <path fill="#FEFEFE" d="M94.993 36.894v-.661h-2.167v3.21c0 .627.03 1.322.093 2.076h-1.696c.062-.754.095-1.415.095-1.981v-5.476c0-.945-.033-1.762-.095-2.455h1.696a16.282 16.282 0 0 0-.093 1.794v1.415h2.167v-1.415c0-.629-.033-1.228-.095-1.794h1.696A16.275 16.275 0 0 0 96.5 33.4v3.493h-1.507zm-3.581-14.068c.565-.88 1.068-1.919 1.507-3.116.566.567 1.193.945 1.885 1.134-.504.44-1.022 1.054-1.555 1.841a33.848 33.848 0 0 1-1.555 2.124h1.885c.627-1.07 1.067-1.856 1.32-2.36.438.441.972.818 1.6 1.132-.565.505-1.177 1.245-1.836 2.219a55.57 55.57 0 0 1-2.403 3.257c.566-.062 1.38-.155 2.45-.283-.252-.628-.41-1.1-.472-1.416.439-.125.91-.251 1.414-.378.189.505.502 1.606.942 3.305a8.561 8.561 0 0 0-1.507.472 6.309 6.309 0 0 0-.189-.85c-.565.064-1.178.158-1.837.283a27.48 27.48 0 0 0-2.025.472 10.988 10.988 0 0 0-.66-1.7c.438-.188.942-.674 1.507-1.462.565-.787.943-1.306 1.13-1.558-.187 0-1.036.127-2.543.377a9.205 9.205 0 0 0-.566-1.7c.438-.314.943-.91 1.508-1.793zm-4.853 15.531a5.64 5.64 0 0 0 1.178-2.124h-3.204c.062-.756.094-1.542.094-2.36 0-.817-.032-1.573-.094-2.266h1.697a20.662 20.662 0 0 0-.094 1.888v1.321h1.79c.125-1.383.188-2.454.188-3.21h1.79a85.67 85.67 0 0 0-.235 2.596c-.033.473-.094 1.04-.189 1.7-.094.662-.393 1.45-.894 2.36-.505.912-1.635 1.997-3.393 3.257a25.527 25.527 0 0 0-1.225-1.51c1.192-.505 2.056-1.055 2.591-1.652zm.095-15.767a335.07 335.07 0 0 1-1.649 2.408c.753 0 1.413-.062 1.978-.19.25-.438.472-.85.66-1.227.188-.377.344-.755.47-1.132.503.377 1.068.724 1.698 1.038-.441.505-1.085 1.386-1.932 2.644-.849 1.26-1.619 2.298-2.309 3.116.815-.125 1.664-.252 2.544-.379l-.377-1.322c.377-.188.849-.344 1.414-.472.125.379.282.883.47 1.512.19.629.377 1.322.566 2.076a9.338 9.338 0 0 0-1.414.473c-.127-.503-.251-.88-.376-1.134a28.06 28.06 0 0 0-2.214.331c-.849.158-1.618.364-2.31.614a31.44 31.44 0 0 1-.658-1.794c.69-.19 1.286-.614 1.79-1.275.501-.66.942-1.305 1.318-1.935-.314.064-.675.142-1.083.236a85.16 85.16 0 0 0-1.367.33 15.4 15.4 0 0 0-.658-1.794c.376-.25.847-.803 1.412-1.652.566-.85 1.193-1.997 1.885-3.445a8.169 8.169 0 0 0 1.79 1.227c-.565.377-1.116.96-1.648 1.746zm-6.078 12.226v-3.115h-3.11v3.588c.88-.125 1.915-.284 3.11-.473zm-3.11-4.531h3.11v-3.493h-3.11v3.493zm0-4.91h3.11v-3.21h-3.11v3.21zm4.146-4.626c.69 0 1.414-.031 2.168-.094v1.604c-.63-.06-1.164-.094-1.602-.094v12.274c.438-.062.909-.125 1.413-.19a9.9 9.9 0 0 0-.094 1.417c-.504.064-.942.127-1.32.19v2.17c0 .881.032 1.92.095 3.116h-1.79a61.61 61.61 0 0 0 .094-3.116v-1.793c-.943.189-2.026.44-3.251.755-1.225.316-2.059.6-2.497.85a68.111 68.111 0 0 1-.659-2.077c.438 0 .972-.062 1.602-.19V22.166a8.98 8.98 0 0 0-1.225.094v-1.604c.69.063 1.225.094 1.601.094h5.465zM115.787 19.994l1.414-.944c.312.44.753.944 1.318 1.51-.565.252-1.036.536-1.413.85a24.26 24.26 0 0 1-1.32-1.416zm-2.168 10.008h3.675V28.68h-3.675v1.322zm0-2.738h3.675v-1.228h-3.675v1.228zm-4.899 2.738h3.11V28.68h-3.11v1.322zm0-2.738h3.11v-1.228h-3.11v1.228zm3.11 11.234c-.566.379-1.1.756-1.603 1.134a20.56 20.56 0 0 0-1.884-2.55 21.678 21.678 0 0 0 1.508-1.039c.754.883 1.413 1.7 1.979 2.455zm0-16.9c0-1.068-.034-1.854-.095-2.36h1.978c-.063.63-.093 1.417-.093 2.36h3.768c1.444 0 2.512-.03 3.204-.094v1.7c-.692-.062-1.728-.094-3.11-.094h-3.862v1.51h5.465a40.542 40.542 0 0 0-.094 2.738v2.077c0 1.197.03 2.172.094 2.927h-1.791v-.944h-3.674c0 .566.03 1.132.093 1.699h-1.978c.061-.628.095-1.194.095-1.7h-3.11v1.605h-1.885c.061-.691.095-1.572.095-2.643v-2.926c0-1.195-.034-2.14-.095-2.833h4.995v-1.51h-1.98a70.77 70.77 0 0 0-3.674.094v-1.7c1.13.064 2.323.094 3.58.094h2.074zm4.522 12.652c0-.503-.032-1.006-.094-1.51h1.884a12.187 12.187 0 0 0-.094 1.51h.66c1.13 0 2.104-.03 2.92-.094v1.794a41.778 41.778 0 0 0-2.92-.095h-.66v3.116c0 1.006-.33 1.605-.989 1.794-.66.188-1.493.377-2.497.566a5.875 5.875 0 0 0-.754-1.983c1.067 0 1.758-.032 2.073-.094.314-.063.471-.44.471-1.133v-2.266h-7.915c-1.32 0-2.356.063-3.11.188v-1.887c.754.063 1.79.094 3.11.094h7.915zm-14.51-11.896c0-1.133-.033-2.138-.095-3.021h1.884a51.67 51.67 0 0 0-.094 3.021v3.777c.816 0 1.633-.03 2.45-.095v1.794a35.073 35.073 0 0 0-2.45-.095v10.197c0 1.195.032 2.138.094 2.833h-1.884c.062-.63.094-1.574.094-2.833V27.735c-.88 0-1.76.033-2.639.095v-1.794c.943.064 1.822.095 2.64.095v-3.777zM140.35 30.19c-1.508-1.07-3.016-2.549-4.523-4.437h-.095v5.004h5.466l-.849-.567zm-10.366 8.026h9.894v-2.36h-9.894v2.36zm0-3.683h9.894v-2.36h-9.894v2.36zm4.146-3.776v-4.91c-1.446 1.574-3 2.833-4.664 3.777-1.665.944-2.938 1.605-3.817 1.983 0-.503-.409-1.04-1.225-1.606 1.697-.44 3.205-1.069 4.524-1.888 1.32-.817 2.355-1.605 3.11-2.36h-3.77c-1.07 0-2.167.033-3.298.094v-1.51c1.131.063 2.228.095 3.298.095h5.842v-2.455c-1.194.127-3.424.315-6.69.566a7.164 7.164 0 0 0-.848-1.7c2.952 0 5.842-.188 8.668-.566 2.828-.378 4.773-.786 5.843-1.228.377.63.91 1.292 1.602 1.983a56.73 56.73 0 0 0-3.204.284c-1.069.127-2.324.283-3.769.472v2.644h6.219c.943 0 2.01-.032 3.204-.095v1.51c-1.13-.06-2.2-.094-3.204-.094h-3.957c.754.944 1.757 1.84 3.015 2.69 1.255.85 2.858 1.528 4.805 2.031-.692.504-1.163 1.133-1.413 1.887a25.276 25.276 0 0 1-2.638-1.227c-.127 1.134-.189 2.708-.189 4.721 0 2.141.03 3.87.095 5.193h-1.79V39.63h-9.895v1.511h-1.601v-5.098c0-2.139-.033-3.902-.095-5.287h5.842z"/>
        <mask id="b" fill="#fff">
            <use xlink:href="#a"/>
        </mask>
        <path fill="#FEFEFE" d="M160.39 27.264h4.051v-3.21h-4.051v3.21zm-1.037 7.931h5.56v-1.983h-5.56v1.983zm6.879-3.4c-.754-.816-1.414-1.888-1.98-3.21h-3.768a12.027 12.027 0 0 1-1.979 3.21h7.727zm2.026 8.686c-.346.314-.801.473-1.367.473h-6.972c-1.508 0-2.262-.63-2.262-1.889V32.74a16.494 16.494 0 0 1-2.544 2.078c-.188-.44-.598-.945-1.224-1.511.815-.378 1.695-.975 2.637-1.794a8.281 8.281 0 0 0 2.168-2.927h-.66c-1.258 0-2.42.033-3.487.095v-1.51c1.004.063 2.168.093 3.487.093h.753v-3.21h-.847c-.63 0-1.414.033-2.356.095v-1.51c1.067.063 1.946.094 2.638.094h.565c0-1.195-.032-2.233-.093-3.116h1.79c-.064.819-.094 1.858-.094 3.116h4.051c0-1.322-.032-2.36-.094-3.116h1.79a42.051 42.051 0 0 0-.094 3.116h.848c.88 0 1.821-.03 2.827-.095v1.511a41.664 41.664 0 0 0-2.732-.094h-.943v3.21h1.697c.753 0 1.632-.031 2.638-.094v1.51a42.62 42.62 0 0 0-2.545-.095h-1.978c1.004 1.953 2.827 3.493 5.465 4.627-.504.315-.975.819-1.413 1.51-1.383-.816-2.483-1.636-3.299-2.455v2.455c0 .505.032 1.133.095 1.888h-7.35V38.5c0 .691.408 1.038 1.225 1.038h5.277c.377 0 .69-.094.942-.283.25-.189.502-.787.754-1.794.501.378 1.13.694 1.885.944-.44 1.07-.834 1.761-1.178 2.077zM150.025 21.41c.376-.377.72-.817 1.036-1.322.627.316 1.79 1.072 3.486 2.266-.376.441-.753.944-1.13 1.51-.881-.88-2.012-1.698-3.392-2.454zm2.497 15.767c-.535 1.449-1.053 2.8-1.555 4.06a28.21 28.21 0 0 0-1.885-1.039c.438-.693.958-1.7 1.555-3.021.596-1.322 1.146-2.864 1.65-4.626a4.597 4.597 0 0 0 1.602 1.321c-.378.756-.834 1.858-1.367 3.305zm-3.44-9.82c.378-.376.722-.848 1.037-1.415a44.89 44.89 0 0 0 1.79 1.133c.627.377 1.226.788 1.79 1.227a35.117 35.117 0 0 0-1.13 1.605c-.818-.816-1.979-1.667-3.487-2.55z" mask="url(#b)"/>
        <path fill="#231F20" d="M.895 60.606h59.591V.896H.895z" mask="url(#b)"/>
        <path fill="#FEFEFE" d="M33.612 48.144c0-.917-.56-1.58-1.617-1.58h-3.847v4.03h3.292c1.24 0 2.172-.239 2.172-1.432v-1.018zm-5.466-4.982h3.847c1.056 0 1.617-.662 1.617-1.58v-1.019c0-1.191-.931-1.432-2.172-1.432h-3.292v4.031zm9.36-3.376v1.509c0 1.515-.97 2.718-2.273 3.157a3.314 3.314 0 0 1 2.272 3.168v1.719c0 2.49-1.471 4.399-4.983 4.399h-8.337V35.984h8.917c2.804 0 4.403 1.47 4.403 3.802zM7.757 7.763v45.975h6.572v-3.732h-2.848V11.495h2.848V7.763H7.758zm39.292 0v3.732h2.847v38.511H47.05v3.732h6.574V7.763H47.05zM28.96 18.467h3.407l-1.69-6.223-1.716 6.223zm-1.949 7.052h-4.54l5.432-17.756h5.549l.05.108 5.407 17.648h-4.54l-.94-3.401h-5.477l-.94 3.401zm-11.219 5.979h29.796v-1.494H15.792v1.494zM.895 60.605h59.591V.895H.895v59.71zM0 61.501h61.38V.001H0v61.5z" mask="url(#b)"/>
    </g>
</svg>
