<?xml version="1.0" encoding="utf-8"?>
<!-- Generator: Adobe Illustrator 25.3.1, SVG Export Plug-In . SVG Version: 6.00 Build 0)  -->
<svg version="1.1" xmlns="http://www.w3.org/2000/svg" xmlns:xlink="http://www.w3.org/1999/xlink" x="0px" y="0px"
	 viewBox="0 0 540 520" style="enable-background:new 0 0 540 520;" xml:space="preserve">
<style type="text/css">
	.st4{fill:#FFFFFF;}
	.st26{fill:none;stroke:#000000;stroke-width:2;stroke-linecap:round;stroke-linejoin:round;stroke-miterlimit:10;}
</style>
<g id="brain-svg">
	<circle class="st4" cx="269.9" cy="260.7" r="142.2"/>
	<path class="st26" d="M302.7,268.7V242c0,0,1.3-4.7,4.3-9c6-9.7,9.3-23.3,3.3-38.7c-4.1-10.5-18.3-24.7-39-25.3
		c-20.3,1.3-27.2,9.6-34,18.7c-5,6.7-7.7,17.3-7.3,22c0,4.3,0.7,7.3-2,14l-5,10.7c0,0-2,2.3,1,4.7l6.3,1.3c0,0,3.3,1,3.3,5l2,14.7
		c0,0,0.3,3.3,5,5.3L258,265c0,0,7.3-1.3,9.3-7.7l1-5.3"/>
	<path class="st26" d="M264.3,208.8c0,0-7.7,1-7.7,8c0,0-0.7,5.1,5.9,7l7.2,0.1c0,0,5.9,0.7,6.9,6.2l0.2,8.2"/>
	<path class="st26" d="M256,216.5c-3.7,0.2-12.5-2.6-12.3-11.9c0.2-11.1,10.8-11.4,10.8-11.4s1.6-0.2,2.2-0.1"/>
	<path class="st26" d="M265.2,197.8c1.2-2,5.5-4.9,10.2-1.2c2.7,2.1,2,6.3,2,6.3"/>
	<path class="st26" d="M285.8,204.5c0.7,2.3,0,7.4-5.8,8.5c-3.3,0.6-6.1-2.7-6.1-2.7"/>
	<path class="st26" d="M256.8,197.1c-0.8-3.6,2-13.7,11.2-15c11-1.6,14.2,7.9,14.2,7.9s3.3-0.5,6.8,1.2c4.5,2.2,9.1,7.5,4.8,16.8"/>
	<path class="st26" d="M295.5,204.3c3.1,1.6,5.2,4.9,5.2,8.7c0,5.4-4.4,9.9-9.7,9.9c-5.4,0-9.7-4.4-9.7-9.9c0-0.5,0,0,0.1-0.5"/>
</g>
</svg>
