<?xml version="1.0" encoding="utf-8"?>
<!-- Generator: Adobe Illustrator 25.3.1, SVG Export Plug-In . SVG Version: 6.00 Build 0)  -->
<svg version="1.1" id="圖層_3" xmlns="http://www.w3.org/2000/svg" xmlns:xlink="http://www.w3.org/1999/xlink" x="0px" y="0px"
	 viewBox="0 0 160 160" style="enable-background:new 0 0 160 160;" xml:space="preserve">
<style type="text/css">
	.st0{fill:none;stroke:#1E9BD7;stroke-width:2;stroke-linecap:round;stroke-linejoin:round;stroke-miterlimit:10;}
</style>
<path class="st0" d="M88.2,118.2c0,0-1.4-6.8-0.8-10.2c1.5-5.2,9.8-16.5,9.8-16.5c-0.7-5-4.3-1.9-4.3-1.9l-5.2,5.8
	c0,0-1.7,0.2-2.1-0.9c-0.6-1.2,2.8-13.8,0.9-14.7c-3.2-2.7-5.2,0.6-5.2,0.6s-2.2,10.7-3,16.9c-0.6,1.9-2.8,0.5-2.8,0.5
	s-7.8-11.2-9.2-11.8c-1.7-0.3-2.9-0.2-4,0.6s-1.6,1.4-1.2,3c0.9,1.8,11.1,18.4,11.1,18.4c1.6,5.1-1.1,15.6-1.1,15.6
	c-3,9.7-7.8,16.3-7.8,16.3H84"/>
<path class="st0" d="M68.5,104c0,0-3.5,2.5-7.3,2.3"/>
<circle class="st0" cx="52.2" cy="107.6" r="8.4"/>
<path class="st0" d="M47.2,100.5c0,0-1.5-1.7-1.8-3.8c0,0-14.5-1.2-18.7-15.3c0,0-4.2-16.8,11.7-23.7c0,0-6-12.5,4.7-22
	c0,0,6.5-7.5,19-2.8c0,0,5.2-12.5,16.8-12.7c0,0,13.3-1.3,18.5,12.7c0,0,11.3-4.5,18.3,2c0,0,12.3,6.5,5.7,23c0,0,13.5,5,12.2,20.2
	c0,0-1.5,12.5-11.2,16.7"/>
<circle class="st0" cx="114.5" cy="98.6" r="8.4"/>
<path class="st0" d="M106.8,104c0,0-8.3,4.7-16.2-0.3"/>
<circle class="st0" cx="89.1" cy="50.1" r="8.4"/>
<circle class="st0" cx="55" cy="66.4" r="8.4"/>
<circle class="st0" cx="104.5" cy="74.6" r="8.4"/>
<rect x="85" y="125.2" class="st0" width="30" height="14.5"/>
<line class="st0" x1="86" y1="132.1" x2="114.3" y2="132.1"/>
<path class="st0" d="M101.1,124.6c0-3.8,3.1-6.9,6.9-6.9s6.9,3.1,6.9,6.9"/>
<path class="st0" d="M85.1,125c0-3.8,3.1-6.9,6.9-6.9s6.9,3.1,6.9,6.9"/>
<path class="st0" d="M93,117.7c0-3.4,3.1-6.2,6.9-6.2c3.8,0,6.9,2.8,6.9,6.2"/>
</svg>
