<?xml version="1.0" encoding="utf-8"?>
<!-- Generator: Adobe Illustrator 25.3.1, SVG Export Plug-In . SVG Version: 6.00 Build 0)  -->
<svg version="1.1" id="圖層_3" xmlns="http://www.w3.org/2000/svg" xmlns:xlink="http://www.w3.org/1999/xlink" x="0px" y="0px"
	 viewBox="0 0 160 160" style="enable-background:new 0 0 160 160;" xml:space="preserve">
<style type="text/css">
	.st0{fill:none;stroke:#1CD8C0;stroke-width:2;stroke-linecap:round;stroke-linejoin:round;stroke-miterlimit:10;}
</style>
<polygon class="st0" points="21.7,54.7 44,21 70.5,37.8 51.5,72.5 "/>
<line class="st0" x1="25" y1="49.5" x2="53" y2="66.5"/>
<path class="st0" d="M38,29c0,0-3.2-2.7-7.5,0.8c0,0-4.8,3.7-0.2,9.5"/>
<path class="st0" d="M40.6,24.1c0,0-7.2-5.4-15.2,1.9c0,0-8,7.7,1.5,18.8"/>
<line class="st0" x1="59.7" y1="44.7" x2="56" y2="51"/>
<line class="st0" x1="80.7" y1="46" x2="78.7" y2="59.1"/>
<line class="st0" x1="66.8" y1="45.7" x2="79.5" y2="48.5"/>
<line class="st0" x1="61.9" y1="56.1" x2="77.7" y2="56.2"/>
<path class="st0" d="M45.7,105.3c0,0-3.5-9.2-12.5-9.5c0,0-4,0.5,0.3,6.7c0,0,3.3,5.2,11.2,5.2"/>
<path class="st0" d="M47.5,113c0,0,4.7-9,12.4-8.4c0,0,3.7,0.8-0.7,6.9c0,0-3.2,4.9-11,4.7"/>
<path class="st0" d="M46,130.8c0,0-0.5-21.8,2.2-34.5"/>
<path class="st0" d="M79.7,105.3c0,0-3.5-9.2-12.5-9.5c0,0-4,0.5,0.3,6.7c0,0,3.3,5.2,11.2,5.2"/>
<path class="st0" d="M81.5,113c0,0,4.7-9,12.4-8.4c0,0,3.7,0.8-0.7,6.9c0,0-3.2,4.9-11,4.7"/>
<path class="st0" d="M80,130.8c0,0-0.5-21.8,2.2-34.5"/>
<path class="st0" d="M113.8,105.3c0,0-3.5-9.2-12.5-9.5c0,0-4,0.5,0.3,6.7c0,0,3.3,5.2,11.2,5.2"/>
<path class="st0" d="M115.7,113c0,0,4.7-9,12.4-8.4c0,0,3.7,0.8-0.7,6.9c0,0-3.2,4.9-11,4.7"/>
<path class="st0" d="M114.2,130.8c0,0-0.5-21.8,2.2-34.5"/>
<path class="st0" d="M35.3,139.7c0,0,2.3-3,5.5-3c0,0,4.3-8.8,14.7-4.2c0,0,8-4,11.3,1.2c0,0,5.8-5,13-1.2c0,0,5.7-4.2,12,2.8
	c0,0,5.5-7.2,13.7-3c0,0,9-4.2,12.5,2.7c0,0,4.5-0.5,7.7,4.8"/>
<circle class="st0" cx="86.2" cy="50.6" r="0.6"/>
<circle class="st0" cx="84.9" cy="57.8" r="0.6"/>
<circle class="st0" cx="95.2" cy="52.5" r="0.6"/>
<circle class="st0" cx="93.5" cy="64.2" r="0.6"/>
<circle class="st0" cx="102.9" cy="56.8" r="0.6"/>
<circle class="st0" cx="99.4" cy="73" r="0.6"/>
<circle class="st0" cx="109.5" cy="62.3" r="0.6"/>
<circle class="st0" cx="102.4" cy="83.2" r="0.6"/>
<circle class="st0" cx="114.6" cy="69.6" r="0.6"/>
<circle class="st0" cx="118.4" cy="78.2" r="0.6"/>
<line class="st0" x1="20.7" y1="140.7" x2="140.2" y2="140.7"/>
</svg>
