<?xml version="1.0" encoding="utf-8"?>
<!-- Generator: Adobe Illustrator 25.3.1, SVG Export Plug-In . SVG Version: 6.00 Build 0)  -->
<svg version="1.1" id="圖層_3" xmlns="http://www.w3.org/2000/svg" xmlns:xlink="http://www.w3.org/1999/xlink" x="0px" y="0px"
	 viewBox="0 0 160 160" style="enable-background:new 0 0 160 160;" xml:space="preserve">
<style type="text/css">
	.st0{fill:none;stroke:#FFBF27;stroke-width:2;stroke-linecap:round;stroke-linejoin:round;stroke-miterlimit:10;}
</style>
<g>
	<line class="st0" x1="89.1" y1="31.2" x2="89.1" y2="136.5"/>
	<path class="st0" d="M89.3,31.3c25.8,0,46.7,20.9,46.7,46.7s-20.9,46.7-46.7,46.7"/>
	<path class="st0" d="M136.3,81.1c0.1,1.6,0.2,3.2,0.2,4.9c0,28.2-21.1,51-47.1,51"/>
</g>
<g>
	<line class="st0" x1="80.5" y1="21.3" x2="80.5" y2="67.8"/>
	<path class="st0" d="M45.8,36.1c8.7-9.3,20.7-15,34-15"/>
	<line class="st0" x1="45.9" y1="36.4" x2="80.1" y2="67.7"/>
	<line class="st0" x1="45.9" y1="47.9" x2="80.1" y2="79.2"/>
	<line class="st0" x1="46" y1="36.4" x2="46" y2="47.1"/>
	<line class="st0" x1="80.2" y1="67.9" x2="80.2" y2="78.6"/>
</g>
<g>
	<line class="st0" x1="80" y1="124.5" x2="80" y2="78.1"/>
	<path class="st0" d="M79.8,125.1c-14.5,0-26.8-5.7-35.3-16.1"/>
	<path class="st0" d="M79.5,136.5c-14,0-26.6-6.3-34.9-16.1"/>
	<line class="st0" x1="44.5" y1="109" x2="79.6" y2="78.2"/>
	<line class="st0" x1="44.9" y1="108.5" x2="44.9" y2="121"/>
	<line class="st0" x1="79.7" y1="125.2" x2="79.7" y2="136.8"/>
</g>
<g>
	<path class="st0" d="M37.9,103.7c-7-7.8-11.4-18-11.9-29.3c-0.5-12.9,4.2-24.7,12.3-33.5"/>
	<path class="st0" d="M37.9,114.8c-7.1-7.7-11.7-17.9-12.3-29.1c-0.2-3.7-0.3-11.4,0.3-14.9"/>
	<line class="st0" x1="38.1" y1="103" x2="72.5" y2="73.2"/>
	<line class="st0" x1="72.7" y1="73.2" x2="72.7" y2="83.9"/>
	<line class="st0" x1="37.7" y1="103.7" x2="37.7" y2="114.4"/>
	<line class="st0" x1="38.3" y1="114.5" x2="72.8" y2="84.7"/>
	<line class="st0" x1="38.6" y1="41" x2="72.9" y2="72.3"/>
</g>
</svg>
