<?xml version="1.0" encoding="utf-8"?>
<!-- Generator: Adobe Illustrator 25.3.1, SVG Export Plug-In . SVG Version: 6.00 Build 0)  -->
<svg version="1.1" xmlns="http://www.w3.org/2000/svg" xmlns:xlink="http://www.w3.org/1999/xlink" x="0px" y="0px"
	 viewBox="0 0 260 150" style="enable-background:new 0 0 260 150;" xml:space="preserve">
<style type="text/css">
	.st0{fill-rule:evenodd;clip-rule:evenodd;fill:#FFFFFF;}
	.st1{opacity:0.7;}
	.st2{fill:none;stroke:#FFBF27;stroke-width:1.073;stroke-linecap:round;stroke-linejoin:round;stroke-miterlimit:10;}
	
		.st3{fill-rule:evenodd;clip-rule:evenodd;fill:none;stroke:#FFBF27;stroke-width:1.073;stroke-linecap:round;stroke-linejoin:round;stroke-miterlimit:10;}
	.st4{fill:none;stroke:#1CD8C0;stroke-width:2.0785;stroke-linecap:round;stroke-linejoin:round;stroke-miterlimit:10;}
	.st5{fill:none;stroke:#FFBF27;stroke-width:2;stroke-linecap:round;stroke-linejoin:round;stroke-miterlimit:10;}
	
		.st6{fill-rule:evenodd;clip-rule:evenodd;fill:none;stroke:#FFBF27;stroke-width:2;stroke-linecap:round;stroke-linejoin:round;stroke-miterlimit:10;}
	.st7{fill:none;}
	.st8{fill:#1CD8C0;}
	.st9{fill:#FFFFFF;}
	.st10{fill:none;stroke:#37B0AC;stroke-width:2;stroke-miterlimit:10;}
	.st11{fill:#FFD572;}
	.st12{fill:#FFE5A8;}
	.st13{fill:#FFBF27;}
	.st14{fill:none;stroke:#1E9BD7;stroke-width:2;stroke-linecap:round;stroke-linejoin:round;stroke-miterlimit:10;}
	.st15{fill:none;stroke:#8DEBDF;stroke-width:2;stroke-linecap:round;stroke-linejoin:round;stroke-miterlimit:10;}
	.st16{fill:none;stroke:#FFDF92;stroke-width:2;stroke-linecap:round;stroke-linejoin:round;stroke-miterlimit:10;}
	.st17{fill:none;stroke:#1CD8C0;stroke-width:2;stroke-linecap:round;stroke-linejoin:round;}
	.st18{fill:#E1E1E1;}
	.st19{fill:#8C8C8C;}
	.st20{opacity:0.6;}
	.st21{fill:none;stroke:#1CD8C0;stroke-width:2;stroke-linecap:round;stroke-linejoin:round;stroke-miterlimit:10;}
	.st22{opacity:0.6;fill:#1CD8C0;}
	.st23{fill:#1E9BD7;}
	.st24{fill-rule:evenodd;clip-rule:evenodd;fill:#1E9BD7;}
	.st25{fill:none;stroke:#1E9BD7;stroke-width:2;stroke-linecap:round;}
	.st26{fill:none;stroke:#1E9BD7;stroke-width:2;stroke-linecap:square;}
	.st27{fill:#8DEBDF;}
	.st28{fill:none;stroke:#1E9BD7;stroke-width:2;stroke-miterlimit:10;}
	.st29{fill:none;stroke:#FFFFFF;stroke-width:2;stroke-linecap:round;stroke-linejoin:round;stroke-miterlimit:10;}
</style>
<g id="_x31_">
	<g>
		<rect x="4.8" y="1" class="st8" width="250.4" height="101.7"/>
		<g>
			<g>
				<path class="st9" d="M59.2,36.2c-0.2,0.1-0.3,0.3-0.5,0.4c-0.2-0.2-0.5-0.6-0.9-0.9c0.2,1,0.2,2.1,0.2,3.2c0,2.4-0.2,4.8-1,5.9
					c-0.3,0.4-0.6,0.6-1.1,0.7c-0.7,0.2-1.4,0.2-2.3,0.1c0-0.7-0.2-1.4-0.6-2.1c0.9,0.1,1.5,0.1,1.9,0c0.2,0,0.4-0.1,0.5-0.3
					c0.4-0.5,0.5-2.2,0.5-4.2c-0.8,1.1-1.7,2-2.5,2.7c-0.3-0.5-0.8-1.3-1.2-1.8c1.3-0.8,2.7-2.4,3.5-3.9c-0.1-0.6-0.2-1.2-0.4-1.7
					c-0.7,0.7-1.4,1.3-2,1.9c-0.3-0.6-0.7-1.4-1.2-1.9c0.7-0.5,1.5-1.1,2.2-1.8c-0.4-0.6-1-1.3-1.7-1.9l1.4-1.2
					c0.6,0.5,1.1,1,1.5,1.6c0.4-0.5,0.8-1,1.1-1.5l1.5,1c-0.4,0.7-0.9,1.4-1.5,2.1c0.4,0.7,0.6,1.5,0.8,2.2c0.8-0.7,1.7-1.7,2.2-2.6
					l1.1,0.4v-0.9h-2.6v-1.5h2.6v-1.1h1.9v3.6l1.1-0.6c0.2,0.2,0.3,0.3,0.5,0.5v-3.5h2v1.1h2.8v1.5h-2.8v1h-1.9
					c0.3,0.3,0.6,0.7,0.8,1h3.2V35h-3.5v0.6h3v1.1h-3v0.6h3v1.1h-3v0.6h3.7v1.3h-7.8v0.3h-1.8V36.2z M68.9,41.5
					c-0.7,1-1.7,1.7-3,2.4c1.2,0.2,2.4,0.4,3.7,0.5c-0.4,0.4-1,1.2-1.2,1.6c-1.8-0.2-3.5-0.6-5.1-1.1c-1.6,0.5-3.3,0.8-5,1
					c-0.1-0.5-0.6-1.3-0.9-1.7c1.2-0.1,2.4-0.3,3.4-0.5c-0.7-0.4-1.3-0.8-1.8-1.3l0.8-0.3h-1.1v-1.5h8.6l0.3-0.1L68.9,41.5z
					 M63.3,35h-2.2v0.6h2.2V35z M63.3,36.6h-2.2v0.6h2.2V36.6z M63.3,38.3h-2.2v0.6h2.2V38.3z M61.2,32.8l0.6,0.2
					c-0.2,0.3-0.3,0.5-0.5,0.8h2c-0.2-0.3-0.5-0.6-0.7-0.8l0.4-0.2H61.2z M61.4,42.3c0.6,0.4,1.2,0.7,2,0.9c0.8-0.2,1.4-0.5,2-0.9
					H61.4z"/>
				<path class="st9" d="M77.3,34.5h3.2v2h-3.2v0.6c0.9,0.7,2.7,2.3,3.1,2.7l-1.2,1.8c-0.5-0.6-1.2-1.4-1.9-2.2v6.5h-2.2v-6.4
					c-0.8,1.6-1.7,3.1-2.7,4.1c-0.2-0.6-0.8-1.5-1.1-2.1c1.3-1.2,2.6-3.3,3.4-5.1h-3v-2h3.4v-2.2c-1,0.2-2,0.4-3,0.5
					c-0.1-0.5-0.4-1.2-0.6-1.7c2.6-0.4,5.5-1.1,7.2-1.9l1.5,1.6c-0.9,0.4-1.9,0.7-3,0.9V34.5z M83.7,41.4h-2.1V31.3h2.1V41.4z
					 M87.5,29.5v13.8c0,1.3-0.3,1.8-1,2.2c-0.7,0.4-1.9,0.4-3.6,0.4c-0.1-0.6-0.4-1.6-0.7-2.2c1.2,0.1,2.3,0.1,2.7,0.1
					c0.3,0,0.5-0.1,0.5-0.5V29.5H87.5z"/>
				<path class="st9" d="M106.1,35.4c-0.7,2.3-1.8,4.4-3.1,6.2c0.5,1.3,1.1,2.1,1.7,2.1c0.4,0,0.6-0.9,0.7-3.2
					c0.5,0.5,1.2,1,1.8,1.2c-0.3,3.3-1.1,4.1-2.7,4.1c-1.3,0-2.2-0.9-3-2.4c-0.9,1-1.9,1.8-3,2.4c-0.3-0.5-1.1-1.3-1.5-1.8
					c1.4-0.8,2.6-1.7,3.7-2.9c-0.6-2-1-4.6-1.2-7.3H94v1.9h4.4c0,0,0,0.6,0,0.8c-0.1,3.8-0.2,5.4-0.6,5.9c-0.3,0.5-0.7,0.6-1.2,0.7
					c-0.5,0.1-1.2,0.1-2.1,0.1c0-0.6-0.3-1.5-0.6-2c0.6,0.1,1.3,0.1,1.5,0.1c0.3,0,0.4,0,0.5-0.2c0.2-0.3,0.3-1.1,0.3-3.4H94
					c-0.1,2.6-0.4,6.1-1.9,8.3c-0.4-0.4-1.3-1.2-1.8-1.5c1.4-2.2,1.5-5.3,1.5-7.6v-5.3h7.3c0-0.9-0.1-1.8-0.1-2.7h2.3
					c0,0.9,0,1.8,0,2.7h2.8c-0.7-0.5-1.6-1.1-2.3-1.6l1.3-1.3c1,0.5,2.3,1.3,2.9,1.9l-0.9,0.9h1.9V34h-5.6c0.2,1.8,0.4,3.5,0.7,4.9
					c0.7-1.2,1.3-2.5,1.7-4L106.1,35.4z"/>
				<path class="st9" d="M125.3,40.6c-1,0.7-2.1,1.4-3.2,2c1.1,0.7,2.5,1.2,4.1,1.5c-0.5,0.4-1.1,1.3-1.4,1.9c-4-0.9-6.4-3-8-6.3
					h-2.6v3.8l3.9-0.8c-0.1,0.6-0.2,1.5-0.2,1.9c-4.3,1-5.3,1.2-5.8,1.4l-0.1,0.1c-0.1-0.5-0.6-1.6-0.9-2.1c0.4-0.2,0.9-0.6,0.9-1.4
					v-2.9h-2.6v-1.9h3v-8h11.4v1.7h-9.2v1h8.7v1.7h-8.7v0.9h8.7v1.7h-8.7v1h11.1v1.9h-1.9L125.3,40.6z M119.2,39.6
					c0.4,0.7,0.9,1.3,1.5,1.8c0.9-0.6,1.9-1.2,2.6-1.8H119.2z"/>
				<path class="st9" d="M132.6,39.4c-0.1-0.4-0.4-1.1-0.7-1.7V46H130v-7c-0.4,1.3-0.8,2.4-1.2,3.2c-0.2-0.6-0.6-1.6-0.8-2.1
					c0.8-1.3,1.5-3.6,1.9-5.6h-1.5v-2h1.6v-3.3h1.8v3.3h1.2v2h-1.2v0.8c0.4,0.6,1.4,2.2,1.7,2.6L132.6,39.4z M144,40.6
					c-0.5,1-1.2,1.9-2,2.6c0.3,0.4,0.7,0.6,1.1,0.6c0.3,0,0.6-0.6,0.7-1.9c0.3,0.4,1,0.9,1.3,1.1c-0.5,2.2-1.2,2.9-2,2.8
					c-1.1-0.1-1.9-0.6-2.6-1.5c-0.8,0.6-1.8,1.1-2.8,1.5c-0.2-0.4-0.7-1-1.1-1.4c1.2-0.4,2.2-1,3.1-1.6c-0.4-0.8-0.7-1.8-0.9-2.9
					h-2.4c0,0.1,0,0.3,0,0.4c0.7,0.6,1.8,1.4,2.3,1.9l-1.3,1.3c-0.3-0.4-0.8-0.8-1.4-1.3c-0.4,1.3-1.2,2.6-2.4,3.6
					c-0.3-0.3-1-1-1.4-1.2c1.9-1.4,2.4-3.2,2.4-4.7h-1.1v-1.6h5c-0.3-1.8-0.5-4-0.6-6.3c-0.7,1.3-1.6,2.7-2.4,3.7l1-0.1
					c-0.1-0.3-0.2-0.6-0.2-0.8l1.2-0.3c0.3,0.8,0.6,1.9,0.7,2.6l-1.3,0.4c0-0.2-0.1-0.4-0.1-0.6c-2.2,0.3-2.6,0.5-2.8,0.6
					c-0.1-0.3-0.3-1.1-0.5-1.5c0.3-0.1,0.6-0.4,0.9-0.8c0.2-0.2,0.5-0.7,0.9-1.3c-1,0.1-1.3,0.2-1.4,0.3c-0.1-0.3-0.3-1-0.5-1.4
					c0.2-0.1,0.5-0.3,0.6-0.6c0.2-0.3,0.9-1.6,1.2-2.9l1.5,0.4c-0.4,1-1,2.1-1.5,3l0.8-0.1c0.2-0.4,0.4-0.7,0.5-1.1l1.5,0.5
					c0-0.9-0.1-1.8-0.1-2.7h1.8c0.1,3.5,0.3,6.7,0.8,9.1h1.7c-0.3-0.3-0.6-0.5-0.9-0.8l0.8-0.7c-0.8,0.1-1.1,0.2-1.3,0.3
					c-0.1-0.3-0.3-1.1-0.5-1.5c0.3-0.1,0.6-0.4,0.9-0.8c0.2-0.2,0.5-0.7,0.8-1.3c-0.9,0.1-1.2,0.2-1.4,0.3c-0.1-0.3-0.3-1-0.5-1.4
					c0.2-0.1,0.4-0.3,0.6-0.6c0.2-0.3,0.8-1.5,1.1-2.7l1.5,0.4c-0.4,1-0.9,2-1.4,2.8l0.8-0.1c0.2-0.4,0.3-0.8,0.5-1.1l1.5,0.5
					c-0.7,1.4-1.5,2.7-2.4,3.8l1-0.1c-0.1-0.3-0.2-0.5-0.3-0.8l1.2-0.3c0.3,0.8,0.7,2,0.8,2.6l-1.3,0.5c0-0.2-0.1-0.5-0.2-0.7
					c-0.4,0.1-0.8,0.1-1.1,0.2c0.5,0.4,1.1,0.8,1.4,1.1l-0.5,0.4h1.4v1.6h-2.1L144,40.6z M140.6,40.1c0.1,0.6,0.3,1.1,0.5,1.6
					c0.4-0.5,0.8-1,1.1-1.6H140.6z"/>
				<path class="st9" d="M157,29.7c-0.1,0.1-0.2,0.2-0.3,0.3c1.7,1.4,4.6,2.7,7.5,3.2c-0.5,0.4-1.1,1.1-1.4,1.6
					c-0.4-0.1-0.7-0.2-1.1-0.3v4.6h-12.5v-4.5c-0.4,0.1-0.8,0.3-1.1,0.3c-0.2-0.4-0.8-1.3-1.2-1.7c3.3-0.8,6.5-2.3,8.2-4.4L157,29.7
					z M161.1,34.3c-0.8-0.3-1.7-0.7-2.4-1.1v0.5h-6.3v-0.4c-0.7,0.4-1.4,0.7-2.2,1H161.1z M150.3,39.8h10.6v6.1h-2.2v-0.4h-6.3V46
					h-2.1V39.8z M152.3,37.9c-0.1-0.6-0.3-1.3-0.6-1.9l1.4-0.4h-2v2.3H152.3z M152.4,41.2v0.7h6.3v-0.7H152.4z M158.6,44.1v-0.7
					h-6.3v0.7H158.6z M154.6,35.7h-1.4c0.3,0.6,0.6,1.4,0.7,1.9l-1.2,0.4h1.8V35.7z M157.2,32.3c-0.5-0.4-1.1-0.8-1.5-1.2
					c-0.5,0.4-1,0.8-1.5,1.2H157.2z M156.3,35.7v2.3h1.7l-1.1-0.3c0.3-0.5,0.5-1.4,0.7-2H156.3z M159.9,35.7H158l1.4,0.3
					c-0.4,0.7-0.7,1.4-1,1.9h1.5V35.7z"/>
				<path class="st9" d="M182.8,45.1h-5.7v0.8h-1.9v-9.6c-0.1,0.2-0.2,0.3-0.3,0.5c-0.2-0.2-0.6-0.6-0.9-0.8v1.7h-2.6v0.7h2.7v1.5
					h-2.7c0,0.2,0,0.4,0,0.6h3.2v1.6h-3.5l0,0.1c1.1,0.6,2.4,1.4,3.1,1.9l-1.1,1.4c-0.6-0.5-1.7-1.3-2.8-1.9
					c-0.6,0.8-1.5,1.6-2.9,2.3c-0.3-0.4-0.8-1-1.3-1.4c1.5-0.6,2.4-1.5,2.8-2.4h-2.7v-1.6h3.2c0-0.2,0.1-0.4,0.1-0.6h-2.6v-1.5h2.6
					v-0.7h-2.7V34h2.8v-0.5h-1.8v-1.8h-1.4v-1.5h1.4v-0.9h1.9v0.9h1.8v-0.9h2v0.9h1.2v1.5h-1.2v1.8h-2.1V34h2.8v0.5
					c1-1.5,1.8-3.4,2.3-5.4l1.9,0.5c-0.3,1-0.6,1.9-1,2.8h5.5v1.9h-2v1.7h1.8v1.8h-1.8v1.7h1.8v1.8h-1.8v1.8h2.1V45.1z M168.2,36.3
					h1.2v-1h-1.2V36.3z M169.4,31.7v0.6h1.8v-0.6H169.4z M172.2,35.4h-1.1v1h1.1V35.4z M178.8,34.4h-1.7v1.7h1.7V34.4z M178.8,37.9
					h-1.7v1.7h1.7V37.9z M177.1,43.2h1.7v-1.8h-1.7V43.2z M179.4,32.4c-0.2-0.7-0.6-1.7-1-2.4l1.8-0.6c0.4,0.7,0.9,1.7,1.1,2.3
					L179.4,32.4z"/>
				<path class="st9" d="M201.5,42.3H198v1.5c0,1-0.2,1.5-1,1.8c-0.7,0.3-1.7,0.3-3,0.3c-0.1-0.6-0.4-1.4-0.7-1.9c0.9,0,1.9,0,2.2,0
					c0.3,0,0.4-0.1,0.4-0.3v-1.5h-5.3c0.6,0.5,1.2,1,1.6,1.4l-1.5,1.3c-0.5-0.6-1.5-1.6-2.4-2.2l0.6-0.5h-3.7v-1.8h10.7v-0.8h-2.4
					v-4h7.1v4H198v0.8h3.5V42.3z M185.4,38.6c0.8,0,1.7-0.1,2.6-0.1v-1.2h-2.3v-1.5h6.9v1.5h-2.5v1.1l2.8-0.1l0,1.5
					c-2.6,0.2-5.3,0.3-7.2,0.4L185.4,38.6z M197.1,33.1h-11.3v-1.3h11.3v-0.6h-10v-1.4h12.1v2.1h1.4v1.3h-1.4v2.1h-12.1v-1.4h10
					V33.1z M195.5,38.4h3v-1.2h-3V38.4z"/>
				<path class="st9" d="M78.5,69.3v2.1H62.4v-2.1h6.8v-3.5h-5.1v-2.1h5.1v-3.1h-6.1v-2.1h7.2c-0.8-0.7-1.8-1.6-2.7-2.2l1.8-1.2
					c1.2,0.7,2.7,1.9,3.5,2.7l-1,0.7h5.7v2.1h-6v3.1h5.2v2.1h-5.2v3.5H78.5z"/>
				<path class="st9" d="M93.9,67.1c-0.5,0.8-1,1.4-1.6,1.9c1.9,0.5,3.6,0.9,5,1.4l-1.9,1.5c-1.3-0.5-3.1-1-5.2-1.6
					c-2.1,1-4.8,1.4-8.3,1.7c-0.1-0.6-0.5-1.4-0.8-1.9c2.2-0.1,4.1-0.3,5.6-0.6c-1.2-0.2-2.3-0.5-3.5-0.7c0.4-0.5,0.9-1.1,1.4-1.7
					h-3.4v-1.8h4.6c0.3-0.6,0.6-1.1,0.9-1.6h-4.4v-5h3.9v-1h-4.7v-1.9h15.7v1.9h-4.9v1h4.3v5h-9.7l1.9,0.4c-0.2,0.4-0.4,0.8-0.6,1.2
					h4.3c0.1-0.3,0.3-0.7,0.4-1l2.1,0.5c-0.1,0.2-0.1,0.3-0.2,0.5h2.7v1.8H93.9z M84.3,62h1.9v-1.7h-1.9V62z M87.1,67.1
					c-0.2,0.2-0.3,0.5-0.5,0.7c1.1,0.2,2.1,0.4,3.2,0.6c0.6-0.4,1.2-0.8,1.6-1.3H87.1z M88.2,58.7h2v-1h-2V58.7z M90.2,62v-1.7h-2
					V62H90.2z M92.3,60.4V62h2.2v-1.7H92.3z"/>
				<path class="st9" d="M102.1,60.5c-0.3,0.3-0.6,0.6-1,0.8c-0.3-0.5-1-1.1-1.5-1.4c2-1.4,3.5-3.3,4.3-4.8l2.2,0.4
					c-0.3,0.5-0.6,0.9-0.9,1.4h2.8c-0.2-0.5-0.4-0.9-0.6-1.3l2-0.6c0.3,0.6,0.6,1.3,0.9,1.9h5.1v1.6H110v0.8h4.7v1.4H110v0.7h4.7
					v1.4H110v0.8h5.9v1.6h-11.6v0.5h-2.1V60.5z M106.6,69.1c-1.3,1-3.5,2-5.4,2.4c-0.3-0.5-0.9-1.2-1.3-1.6c1.8-0.3,4-0.8,5.1-1.5
					L106.6,69.1z M109.3,68v3.9h-2.1V68h-7v-1.7h7v-0.9h2.1v0.9h7.1V68H109.3z M107.9,58.5h-3.6v0.8h3.6V58.5z M107.9,60.7h-3.6v0.7
					h3.6V60.7z M107.9,62.8h-3.6v0.8h3.6V62.8z M111.2,68.2c1.6,0.5,4,1.4,5.2,1.9l-1.3,1.4c-1.2-0.6-3.5-1.5-5.1-2.1L111.2,68.2z"
					/>
				<path class="st9" d="M134.6,58.3v9h-2.3v-0.9h-4.1V72H126v-5.6h-4.1v1h-2.2v-9.1h6.2v-3.1h2.3v3.1H134.6z M126,64.3v-3.9h-4.1
					v3.9H126z M132.3,64.3v-3.9h-4.1v3.9H132.3z"/>
				<path class="st9" d="M154.1,57.6v2.1h-9.6c-0.6,1.2-1.3,2.4-2.1,3.5V72h-2.2v-6.3c-0.5,0.5-1,0.9-1.6,1.3
					c-0.2-0.6-0.7-1.5-1.1-2.1c1.9-1.2,3.4-3.1,4.5-5.2h-3.9v-2.1h4.9c0.3-0.8,0.6-1.7,0.8-2.5l2.2,0.5c-0.2,0.7-0.4,1.3-0.7,2
					H154.1z M149.7,69.5h4.3v2h-10.8v-2h4.4v-4.1h-3.7v-2h3.7v-3h2.2v3h3.6v2h-3.6V69.5z"/>
				<path class="st9" d="M166.7,67.5c2.2,0.8,5,1.9,6.5,2.6l-1,1.8c-1.6-0.9-4.9-2.3-7.2-3.1l0.8-1.4h-0.6c-0.9,2.2-2.8,3.6-7.6,4.4
					c-0.1-0.6-0.6-1.5-1.1-1.9c3.6-0.5,5.3-1.3,6.2-2.5h-5.4v-1.8h6.1c0.1-0.3,0.1-0.6,0.1-0.9h-6.6v-1.9h6.9v-1h-5.3v-1.8h5.3v-0.9
					h-6.4v-1.9h3.4c-0.3-0.5-0.6-1.1-1-1.6l1.9-0.8c0.6,0.6,1.1,1.5,1.3,2.1l-0.5,0.2h4c0.4-0.7,1-1.6,1.3-2.3l2.3,0.6
					c-0.4,0.6-0.8,1.2-1.2,1.7h3.5v1.9H166v0.9h5.5V62H166v1h7.2v1.9h-7.4c0,0.3-0.1,0.6-0.1,0.9h7v1.8H166.7z"/>
				<path class="st9" d="M191.5,55.9V72h-2.1v-0.8h-11.2V72h-2V55.9H191.5z M189.4,69.4V57.8h-2.2c0.6,0.3,1.2,0.7,1.5,1l-0.7,0.8
					h0.9v1.5h-3.2c0.1,1,0.2,1.9,0.3,2.8c0.4-0.7,0.6-1.4,0.8-2.3l1.6,0.3c-0.4,1.6-1.1,2.9-1.9,4.1c0.2,0.5,0.5,0.9,0.8,1
					c0.2,0.1,0.3-0.6,0.4-1.7c0.3,0.3,1,0.8,1.3,1c-0.3,2.2-1.2,2.9-2.4,2.4c-0.5-0.2-1-0.6-1.4-1.2c-0.6,0.6-1.2,1.1-1.9,1.5
					c-0.2-0.3-0.8-1-1.2-1.3c0.2-0.1,0.4-0.2,0.6-0.4c-1.4,0.2-2.8,0.4-4,0.6l-0.2-1.6c1.3-0.1,3.2-0.4,5.1-0.6l0,0.9
					c0.3-0.3,0.6-0.6,0.9-0.9c-0.4-1.3-0.6-2.9-0.8-4.7h-5v-1.5h4.9c0-0.5-0.1-1-0.1-1.5h1.8c0,0.5,0,1,0.1,1.5h1.9
					c-0.4-0.3-0.9-0.7-1.4-1l0.8-0.8h-8.7v11.5H189.4z M183.3,65.4h-4v-3.4h4V65.4z M181.9,63.1h-1.2v1.2h1.2V63.1z"/>
			</g>
		</g>
		<polyline class="st10" points="133.4,137 126.6,143.7 126.6,101.7 4.8,101.6 4.8,1 255.2,1 255.2,101.6 134.2,101.5 		"/>
	</g>
</g>
<g id="圖層_4">
</g>
<g id="_x32_">
</g>
</svg>
