<?xml version="1.0" encoding="utf-8"?>
<!-- Generator: Adobe Illustrator 25.3.1, SVG Export Plug-In . SVG Version: 6.00 Build 0)  -->
<svg version="1.1" xmlns="http://www.w3.org/2000/svg" xmlns:xlink="http://www.w3.org/1999/xlink" x="0px" y="0px"
	 viewBox="0 0 700 440" style="enable-background:new 0 0 700 440;" xml:space="preserve">
<style type="text/css">
	.st0{fill:none;stroke:#1CD8C0;stroke-width:2.0785;stroke-linecap:round;stroke-linejoin:round;stroke-miterlimit:10;}
	.st1{fill:#FFBF27;}
	.st2{fill:none;stroke:#FFBF27;stroke-width:2.0736;stroke-linecap:round;stroke-linejoin:round;stroke-miterlimit:10;}
	.st3{fill:#1E9BD7;}
	.st4{fill:none;stroke:#1E9BD7;stroke-width:1.9905;stroke-linecap:round;stroke-linejoin:round;stroke-miterlimit:10;}
	.st5{fill:#FFFFFF;}
	.st6{fill-rule:evenodd;clip-rule:evenodd;fill:#FFFFFF;}
	.st7{opacity:0.7;}
	.st8{fill:none;stroke:#FFBF27;stroke-width:2;stroke-linecap:round;stroke-linejoin:round;stroke-miterlimit:10;}
	
		.st9{fill-rule:evenodd;clip-rule:evenodd;fill:none;stroke:#FFBF27;stroke-width:2;stroke-linecap:round;stroke-linejoin:round;stroke-miterlimit:10;}
	.st10{fill:none;}
	.st11{display:none;}
	.st12{display:inline;}
</style>
<symbol  id="map-marker" viewBox="-10.8 -25.1 21.5 50.3">
	<ellipse style="fill-rule:evenodd;clip-rule:evenodd;fill:#1E9BD7;" cx="0.1" cy="14.5" rx="4.9" ry="4.9"/>
	<path style="fill:none;stroke:#1E9BD7;stroke-width:2;stroke-linecap:round;" d="M9.4,11.7c0.2,0.8,0.4,1.7,0.4,2.6
		c0,5.4-4.4,9.8-9.8,9.8s-9.8-4.4-9.8-9.8S-5.4,4.6,0,4.6c2.2,0,4.3,0.8,5.9,2"/>
	<path style="fill:none;stroke:#1E9BD7;stroke-width:2;stroke-linecap:square;" d="M0.2,4.1v-28.3"/>
</symbol>
<g id="_x31_">
	<g>
		<g>
			<g>
				<g>
					<path class="st6" d="M106.8,81.6c2.8-0.3,5.6,0.1,8.3,1.1c4.2,1.6,13.1-0.7,16.9,1.7c5.8,3.7,9.3,11,16,12.7
						c2.4,0.6,4.9,0.4,7.3,0.5c8.3,0.4,16.7,5.2,19.9,12.9c3.1,7.7-0.1,17.6-7.9,20.5c-6.5-2.2-14.3,2-16.2,8.5
						c-1.8,6.6,2.7,14.2,9.4,15.7c2,0.4,4,0.4,5.8,1.3c2.4,1.1,3.8,3.5,5.7,5.3c1.3,1.3,2.9,2.4,4.7,2.5c3.5,0.1,5.9-3.8,6-7.3
						c0.1-3.5-1.3-6.8-1.9-10.3c-0.6-3.5,0.1-7.6,3.1-9.4c3.1-1.8,7.3-0.2,9.5,2.7c2.2,2.8,2.9,6.5,3.5,10c3.1-1.6,7.3-1.5,10.8-1.7
						c2.2,2.6,2.4,6.3,3.1,9.7c0.7,3.7,2.2,7.2,4.2,10.3c1.5,2.3,3.3,4.4,4.1,7c1.6,5.5-2.8,11.8-8.5,12.2
						c-3.9,0.3-8.3-1.7-11.5,0.5c-2.1,1.5-2.7,4.4-4,6.6c-1.8,3.1-3.7,5.4-7.3,5.2c-4.1-0.2-8.3,0.6-12.1,2.2
						c-1.4,0.6-2.8,1.4-3.3,2.8c-0.6,1.8,0.6,3.7,1.1,5.5c1,3.4-0.5,7.2-3,9.7c-2.5,2.5-5,6-8.5,6c-3.4,0-6.7,2.3-7.7,5.6
						c-0.4,1.4-0.5,2.9-0.8,4.3s-1,2.9-2.3,3.6c-1.3,0.7-3.6,0.6-3.6-0.9c-0.1-5.8-6.2-10-12-10.2c-5.9-0.2-12,3.2-14.3,8.6
						c-2.3,5.4-0.2,12.6,5.1,15.2c2.7,1.4,5.8,1.5,8.9,1.6c3,0.1,6.2,0.2,8.9,1.5c2.7,1.3,5,4.2,4.6,7.2c-0.3,1.9-1.4,4.2,0.1,5.4
						c0.9,0.8,2.2,0.6,3.2,1c2,0.8,2.4,3.4,3.6,5.2c1.6,2.5,6.8,3.3,9.6,2.4c0.5-6.2,8.3-10.4,13.8-7.5c2.6,1.4,5,4.2,7.9,3.6
						c1.1-0.2,2-0.8,3-1.2c2.6-0.9,5.4,0.3,7.9,1.5c6.6,3.1,13.5,6.3,18.2,11.8c2.8,3.3,4.8,7.4,8.3,9.9c3.9,2.7,8.9,3.1,13.6,3.2
						c4.7,0.1,9.7,0.2,13.8,2.5c4.1,2.3,7.1,7.7,6,12.3c-0.9,4-2.7,7.9-5.2,11.2c-2.1,2.8-4.8,5.5-5.2,9c-0.2,2.5,0.8,4.9,1.2,7.3
						c0.3,2,0.2,4.1-0.7,5.9c-0.9,1.8-2.3,3.6-4.3,4c-4.9,0.8-10.7-1.4-14.5,1.9c-4.1,3.5-2.1,10.1-2.6,15.5
						c-0.6,6.7-5.6,12.5-11.7,15.5c-1.4,0.7-3,1.3-4.1,2.5c-2.3,2.6-1.8,7.4-4.9,8.8c-1,0.4-2.1,0.4-3.1,0.7
						c-2.2,0.7-3.4,3.2-3.5,5.5c-0.1,2.3,1.3,4.6,1.3,6.9c0.1,2.4-0.8,4.9-2.3,6.8c-1,1.2-2.4,2.4-2.5,4c-0.1,1.4,0.8,2.7,1.7,3.8
						c2.8,3.6,6.7,7,8.9,11c0.7,1.3,0.5,3-0.5,4c-1,1.1-2.6,2-4,1.5c-12.1-4.9-21.2-16-25-28.5c-3.9-12.5-2.9-26.1,1.2-38.5
						c2.2-6.6,5.2-13.1,6.3-20s0-14.7-5.1-19.5c-5.5-5.2-11.6-7.9-16.6-13.5c-2.7-3-5.4-6.2-6.7-10.1c-1.3-3.9-0.8-8.6,2.2-11.3
						c1.7-1.6,4.2-2.6,5.1-4.7c1-2.7-2.3-6-1.5-8.8c-3.6,0.3-7.4-1.3-9.7-4.1c-0.9-1.1-1.5-2.3-2.5-3.2c-3.8-3.7-10.7-2.1-14.4-5.8
						c-0.8-0.8-1.4-1.7-2.2-2.4c-1.8-1.6-4.3-1.9-6.6-2.3c-4.5-0.8-10.3-1.8-13.9-4.7c-4.9-3.9-8.5-9.4-10.2-15.4
						c-1-3.5-1.3-7.1-2.4-10.6c-2.2-6.8-7.6-12.7-13.9-16.2c-6-3.3-11.9-8.4-12.6-15.3c-0.3-3.8,1-7.5,1.2-11.3
						c0.2-4.7-1.5-10.5-4.2-14.3c-2.6-3.7-3.1-8.4-3.5-12.9c-0.3-3.6-0.6-7.4,0.5-10.9c1.2-3.7,3.8-6.8,5.6-10.2
						c1.8-3.4,2.8-7.9,0.6-11.1c-1.7-2.4-4.7-3.5-7.5-4.1c-8.3-1.9-18.4-4.7-24.9,0.7c-2.5,2-6.1,1.4-9.3,0.5
						c-1.5-0.4-3.1-0.9-3.6-2.3c-0.4-1.2,0.2-2.6,0.6-3.8c1-3.3,0.7-7.9-1.5-10.6c-0.4-4-0.3-8.8,3-10.9c1.1-0.7,2.4-1,3.5-1.5
						c1.1-0.6,2.2-1.6,2.2-2.9c0-1.6-1.6-2.7-2.5-4c-1.2-1.7,0-2.6,1.1-4.4c-0.6-1.4,0.7-3.1,2.2-3.5c1.5-0.5,3.1-0.2,4.7-0.1
						c2.7,0.1,5.9,0.1,8.2-1.2c0.5-2.9-2-5.3-3.9-7.5c-2-2.2-4.5-6.7-2.2-8.6c5.1-4.2,12.4-6.4,18.8-4.7c5-1.1,13.5,0.9,15,5.8
						c0.9,3.1,4.3,4.7,7.1,6.1c4.3,2.2,8.5,5.3,12,8.7C99.7,84.6,104.3,83.9,106.8,81.6L106.8,81.6z M220.4,58.8
						c3.7-5.6,12.1-2.4,16.6-6.5c5.3-4.7,2.9-12.6,10.9-16c5.2-2.2,11.2,0.1,16.5,0.3c9.9,0.4,19.6-1.7,29.3,1.7
						c7.8,2.8,14.8,9.6,15,17.9c0.1,2.6-0.5,5.1-1.4,7.5c-4.3,12.4-15.4,21.8-18.2,34.6c-1.7,7.6-0.8,16.9-6.9,21.7
						c-4.9,3.9-12.2,2.9-17.9,5.7c-3.9,1.9-6.7,5.5-10,8.5c-3.2,3-7.5,5.5-11.8,4.4c-3.4-0.8-5.8-3.6-7.7-6.5
						c-1.9-3-3.3-6.4-3.7-9.9c-0.9-7.5,2.8-14.6,5.4-21.7c2.6-7.1,4-15.7-0.8-21.6c-3-3.6-7.6-5.3-11.4-8.2
						C220.7,68.1,217.8,62.8,220.4,58.8L220.4,58.8z M437.5,109c2.4,2.3,12.5,1,14.4-1.8c1.9-2.7,2-6.3,2.1-9.6
						c0.1-3.3,0.5-7,2.8-9.3c2-2,5.1-2.8,6.3-5.3c0.8-1.8,0.4-3.9,0.6-5.8c0.6-6.9,8.3-10.6,14.9-12.8c3.1-1,6.3-2,9.5-1.7
						c3.2,0.3,6.5,2.1,7.5,5.2c1,2.9,0.1,7,2.9,8.4c7.3-6,18-7.6,26.8-4.1c5.4,2.2,10.6,6.2,16.4,5.5c8.2-1,12.4-10.6,19.8-14.5
						c5-2.6,11-2.3,16.7-1.9c6.3,0.4,12.7,0.9,19,1.3c3.5,0.2,7.2,0.5,10.6-0.4c2.3-0.6,4.5-1.7,6.8-2.5c7-2.3,15.1-0.8,20.9,3.8
						c5.8,4.6,9,12.2,8.3,19.5c-0.2,2-0.6,4-0.2,5.9c1.1,4.8,7.3,7.6,7.1,12.5c-0.2,6-9.2,7.2-12.5,12.3c-2.1,3.4-1.4,7.7-1.6,11.7
						c-0.3,4-2.8,8.7-6.8,8.2c-3.2-0.4-5.1-4.2-4.7-7.4c0.3-3.2,2.1-6.1,3.4-9.1c1.3-3,2-6.6,0.2-9.4c-1.4-2.2-4.4-3.3-6.9-2.6
						c-2.5,0.7-4.4,3.3-4.4,5.9c0,1,0.2,1.9,0.1,2.9c-0.3,1.5-1.1,3-2.6,3c-5.7,4.6-13.3,6.3-19.4,10.4c-6.2,4-10.9,12.3-7.1,18.6
						c3.1,5.1,10.3,6.1,14.5,10.4c2.3,2.4,3.6,5.6,4.3,8.9c3.6,17.3-11.1,36.1-28.8,36.8c-1.4,0.1-2.8,0-4,0.6
						c-4.7,2-3.5,8.9-1.1,13.4c2.8,5.2,6.3,10.3,7.5,16.1c1.2,5.8-0.6,12.8-5.9,15.5c-4.4,2.2-9.8,0.8-14.7,1.7
						c-4.9,0.8-9.7,6.7-6.4,10.3c3.7,2.1,7.3,5.2,8.1,9.4c0.7,4.2-3,9.1-7.1,8.1c-4.2-1-6.2-6.9-10.5-7c-3.1,2.4-1,7.3,1.2,10.6
						c2.2,3.3,3.8,8.6,0.3,10.4c-6.4-8.1-10-18.3-10-28.6c-2,0.3-4.1,0.6-6.1,0.9c-3.8-2.6-4.4-7.7-6.2-11.9
						c-1.8-4.2-7.2-8-10.6-4.9c-2.7,2.5-1.5,7.2-3.8,10c-1.8,2.2-5.2,2.5-7.3,4.5c-2.6,2.6-2.2,6.8-2.5,10.4
						c-0.3,3.7-2.8,8.1-6.4,7.3c-3.5-12.3-10.5-23.6-19.9-32.2c-1.1-1-2.2-1.9-3.4-2.6c-1.8-0.9-3.9-1.2-5.9-1.6
						c-8.1-1.4-16.1-3.9-23.6-7.3c-4.2-1.9-9.8-3.9-12.9-0.5c4.5,5.2,10.4,10.5,17.3,9.7c1.1-0.1,2.3-0.4,3.4-0.2
						c2.9,0.5,4.4,4.1,3.6,7c-0.8,2.8-3.1,4.9-5.5,6.7c-7.4,5.5-16.1,9.3-25.2,11c-4.4-9.4-9.5-18.5-15.2-27.3
						c-1.6-2.5-5.7-4.7-6.7-2c-0.4,1,0.1,2.1,0.6,3.1c3.5,7.4,7,14.7,10.6,22.1c1.2,2.4,2.4,5,4.4,6.8c5.7,5.4,14.9,3.4,22.3,1
						c-1.4,9.9-7,19.2-15.1,25.2c-5.4,3.9-12.5,7.4-13.4,14.1c-0.5,4.1,1.7,8,3.2,11.9c1.5,3.9,2.2,8.8-0.8,11.7
						c-1.3,1.3-3.2,2-4.9,2.8c-6.2,3.1-10.5,9.8-10.7,16.8c-0.1,2.3,0.3,4.7-0.2,7c-1.7,8-12.1,10.5-20.3,9.9
						c-1.6-0.1-3.3-0.3-4.6-1.2c-2.9-1.9-2.9-6.1-3.5-9.5c-2.3-12.7-17.1-22.9-13.5-35.3c0.8-2.7,2.4-5.2,2.5-8.1
						c0.1-5.5-5.4-9.1-8.3-13.7c-2.7-4.3-3.3-9.8-1.4-14.5c-1.7,2-5,1.2-7-0.5c-2-1.6-3.5-4-5.9-4.9c-2.4-1-5.1-0.4-7.7-0.1
						c-11.3,1.4-23.5-2.9-30.4-11.9c-6.9-9.1-7.5-22.8-0.4-31.7c6.5-8.2,18.3-11.7,23-21c7.5,5.2,16.7-4.1,25.8-5.2
						c2.1-0.2,4.5,0.2,5.6,2c0.8,1.3,0.6,2.9,1,4.3c1.1,5.4,7.9,7.5,13.3,6.9c5.5-0.6,10.8-3,16.2-2.4c5,0.5,9.5,3.3,14.5,3.5
						c5,0.2,10.6-4.9,8.1-9.2c-3.6-6.1-15.2,0.7-19.6-4.9c-1.5-1.9-1.4-4.7-2.5-6.9c-1.1-2.2-4.7-3.5-5.7-1.3c1.8,2.7,0.1,7-3.1,7.7
						c-2-9.4-9.5-17.4-18.7-20.1c-1.5,2.4,0.1,5.5,2.1,7.6c2,2,4.4,4,4.8,6.8c0.4,2.8-3.5,5.7-5.2,3.4c-0.6-6.1-4.4-11.8-9.8-14.7
						c-1.3,2.1-4.2,2.1-6.5,2.6c-4.2,1-7.7,4.3-8.8,8.5c-0.5,1.8-0.6,3.9-1.8,5.4c-1.2,1.6-3.4,2.1-5.4,2.3
						c-5,0.4-10.5-1.3-13.2-5.5c-2.7-4.2-1-11,3.9-12.3c2.8-0.7,5.7,0.4,8.6,0.6c2.9,0.2,6.5-1.3,6.5-4.2c0-4.8-9.1-5.3-9.3-10.1
						c6.5-1.8,12.9-4.1,19.1-7c-0.2-4.4,4.6-7.6,9.1-8c4.4-0.4,8.9,0.9,13.3,0.6c4.4-0.3,9.4-3.2,9.4-7.7c0-2.3-1.2-4.8,0.2-6.7
						c2.3-3.1,9.4-0.6,9.9-4.4c0.5-3.6-5.4-2.9-8.9-3.8c-3.4-0.9-5.3-5.3-3.6-8.3c0.9-1.6,2.5-2.8,3.3-4.4c0.8-1.7,0.2-4.3-1.6-4.4
						c-8.1,1.2-12.2,11.1-10.9,19.2c0.4,2.7,1.3,5.5,0.7,8.1c-0.6,2.7-3.5,5.1-6,4c-2.2-0.9-2.8-3.8-4.5-5.5
						c-2.2-2.2-5.9-2.2-8.2-4.4c-2.7-2.7-1.8-7.5,0.5-10.6c2.2-3.1,5.5-5.5,7.4-8.8c3.1-5.3,2.6-12.2,5.7-17.5
						c3.7-6.2,11.8-8.6,19-7.6c7.1,1,13.6,4.6,19.8,8.2c3.4,2,7.3,6.2,4.7,9.1c-3,3.3-9.4-1.2-12.6,1.8c0.2,4.8,5.9,7.8,10.6,7
						c4.7-0.8,8.6-4.1,12.1-7.3c4.8-4.3,9.5-8.5,14.3-12.8C425.4,108.8,432.9,104.5,437.5,109L437.5,109z M561.4,300.3
						c-6.6-9.6,14.6-11.8,20.4-10.7c3.6,0.7,4.7,0.5,3.9,4.1c-0.4,1.8-6.6,10.3-8.4,11.6c-2.7,1.8-6.3,0.8-9.3-0.4
						C565.5,303.8,562.9,302.5,561.4,300.3L561.4,300.3z M540.5,299.1c-2-3.7-4.9-7.5-6.6-11c6.4-3,16.5,9.6,19.1,14.6
						c0.9,1.7,1.7,3.6,2.7,5.2c2.6,3.9,7,6.2,11.4,7.8c4.4,1.5,9.1,2.5,13.4,4.3c1.6,0.7,3.3,2.5,2.1,3.7
						C565.6,323.9,548.7,314.1,540.5,299.1L540.5,299.1z M585.2,334c4.8-5.3,13.5-10.6,21-9.6c6.1,0.8,10.6,9,16.1,8.8
						c-1.9-8.3,5.1-7.7,8.6-1.8c1.7,2.9,2.2,6.4,2.7,9.8c8.5,6.5,17.8,15,16.6,25.5c-0.6,5.5-4.1,10.1-7.5,14.5
						c-2.5,3.3-5.1,6.6-7.6,9.9c-1.2,1.6-2.5,3.3-4.2,4.4c-5.1,3.2-12.2,0.2-15.5-4.8c-3.7-5.7-4.3-14-10.2-17.3
						c-5.6-3-12.4,0.2-18,3.3c-5.6,3-12.8,5.8-17.9,2c-1.1-0.8-2.1-2-2.1-3.4c0-1.1,0.6-2.2,1-3.3c2.1-5.3-0.5-11.2-1.8-16.8
						c-1.3-5.6,0-13.1,5.6-14.4c1.9-0.4,3.9,0,5.8-0.5C581,339.5,583,336.5,585.2,334L585.2,334z M619.6,176.6
						c2.1-4.4,2-15.6,6.6-17.9c7.5-3.8,6.5,5.6,6.6,10.1c0.1,3.3,0.1,6.6-1.2,9.6c-1,2.2-2.6,4-4,5.8c-3.4,4.4-6.2,9.3-8.1,14.5
						c-2,5.4-3.9,11.9-9.3,13.7c-2.5-8.3-1.5-17.5,2.7-25.1C614.9,183.7,617.7,180.4,619.6,176.6z M588.5,246.7
						c1-0.8,6.8-5.2,7.2-2.1c0.1,0.8-0.3,1.6-0.7,2.3c-1,1.9-1.9,4-2.5,6.1c-0.6,2.2-1.2,4.6-3,6c-0.1,0.1-0.3,0.2-0.5,0.2
						c-0.3,0-0.5-0.4-0.6-0.7l-2.1-5c-0.3-0.7-0.6-1.5-0.6-2.3C585.6,249.3,587,247.8,588.5,246.7L588.5,246.7z"/>
					<g class="st7">
						<path class="st8" d="M206.8,286c-4.7-5.6-11.6-8.8-18.2-11.9c-2.5-1.2-5.3-2.3-7.9-1.5c-1,0.3-2,1-3,1.2
							c-2.9,0.6-5.3-2.2-7.9-3.6c-5.4-2.9-13.3,1.3-13.8,7.5c-2.8,1-8,0.1-9.6-2.4c-1.2-1.8-1.6-4.3-3.6-5.2c-1.1-0.4-2.4-0.3-3.2-1
							c-1.4-1.3-0.3-3.5-0.1-5.4c0.4-3-1.8-5.9-4.6-7.2c-2.7-1.3-5.9-1.4-8.9-1.5c-3-0.1-6.2-0.2-8.9-1.6c-5.3-2.6-7.4-9.8-5.1-15.2
							c2.3-5.4,8.4-8.8,14.3-8.6c5.8,0.2,11.9,4.4,12,10.2c0,1.5,2.4,1.6,3.6,0.9c1.3-0.7,1.9-2.2,2.3-3.6c0.3-1.4,0.4-2.9,0.8-4.3
							c1-3.2,4.3-5.6,7.7-5.6c3.5,0,6-3.5,8.5-6c2.5-2.5,4-6.3,3-9.7c-0.5-1.8-1.8-3.7-1.1-5.5c0.5-1.4,1.9-2.2,3.3-2.8
							c3.8-1.6,8-2.4,12.1-2.2c3.6,0.2,5.5-2.1,7.3-5.2c1.3-2.2,1.9-5.1,4-6.6c3.2-2.3,7.6-0.3,11.5-0.5c5.7-0.4,10.1-6.8,8.5-12.2
							c-0.8-2.6-2.6-4.7-4.1-7c-2-3.1-3.5-6.7-4.2-10.3c-0.7-3.4-0.9-7.1-3.1-9.7c-3.5,0.2-7.7,0.1-10.8,1.7
							c-0.6-3.5-1.3-7.2-3.5-10.1c-2.2-2.8-6.4-4.5-9.5-2.7c-3,1.8-3.7,5.9-3.1,9.4s2,6.8,1.9,10.3c-0.1,3.5-2.5,7.4-6,7.3
							c-1.8,0-3.5-1.2-4.7-2.5c-1.8-1.9-3.3-4.2-5.7-5.3c-1.8-0.9-3.9-0.8-5.8-1.3c-6.7-1.5-11.2-9.1-9.4-15.7
							c1.8-6.6,9.7-10.7,16.2-8.6c7.8-2.9,11-12.7,7.9-20.5c-3.1-7.7-11.5-12.5-19.9-12.9c-2.4-0.1-4.9,0.1-7.3-0.5
							c-6.7-1.7-10.2-9-16-12.7c-3.8-2.4-12.7-0.1-16.9-1.7"/>
						<path class="st8" d="M87.1,85.7c-3.5-3.4-7.7-6.5-12-8.7c-2.9-1.5-6.3-3-7.1-6.1c-1.4-5-9.9-7-15-5.8
							c-6.4-1.7-13.7,0.5-18.8,4.7c-2.3,1.8,0.3,6.4,2.2,8.6c2,2.2,4.4,4.6,3.9,7.5C38,87,34.8,87.1,32.2,87
							c-1.6-0.1-3.2-0.4-4.7,0.1c-1.5,0.5-2.8,2.1-2.2,3.5c-1,1.8-2.3,2.7-1.1,4.4c0.9,1.3,2.5,2.4,2.5,4c0,1.3-1.1,2.3-2.2,2.9
							c-1.1,0.6-2.4,0.9-3.5,1.5c-3.4,2.1-3.4,7-3,10.9c2.2,2.7,2.5,7.3,1.5,10.6c-0.4,1.3-1,2.6-0.6,3.8c0.5,1.4,2.2,2,3.6,2.3
							c3.1,0.8,6.8,1.5,9.3-0.5c6.5-5.4,16.7-2.6,24.9-0.7c2.9,0.6,5.9,1.7,7.5,4.1c2.2,3.2,1.3,7.7-0.6,11.1
							c-1.8,3.4-4.5,6.5-5.6,10.2c-1.1,3.5-0.8,7.2-0.5,10.9c0.4,4.5,0.9,9.2,3.5,12.9c2.7,3.9,4.4,9.6,4.2,14.3
							c-0.2,3.8-1.5,7.5-1.2,11.3c0.6,6.8,6.5,12,12.6,15.3c6.3,3.4,11.8,9.3,13.9,16.2c1.1,3.4,1.4,7.1,2.4,10.6
							c1.7,6,5.3,11.5,10.2,15.4c3.6,2.8,9.4,3.8,13.9,4.7c2.3,0.4,4.8,0.8,6.6,2.3c0.8,0.7,1.4,1.7,2.2,2.4
							c3.7,3.7,10.6,2.2,14.4,5.8c1,0.9,1.6,2.2,2.5,3.2c2.3,2.8,6.1,4.4,9.7,4.1c-0.9,2.8,2.5,6.1,1.5,8.8
							c-0.8,2.2-3.3,3.2-5.1,4.7c-3,2.8-3.5,7.5-2.2,11.3c1.3,3.9,4,7.1,6.7,10.1c5.1,5.6,11.1,8.3,16.6,13.5
							c5.1,4.8,6.2,12.6,5.1,19.5c-1.1,6.9-4.1,13.3-6.3,20c-4,12.4-5,26.1-1.2,38.6c3.9,12.5,12.9,23.6,25,28.5
							c1.3,0.5,3-0.4,4-1.5c1-1.1,1.2-2.8,0.5-4c-2.2-4-6.1-7.5-8.9-11.1c-0.9-1.1-1.8-2.4-1.7-3.8c0.1-1.6,1.5-2.8,2.5-4
							c1.6-1.9,2.4-4.4,2.3-6.8c-0.1-2.3-1.4-4.6-1.3-6.9c0.1-2.3,1.3-4.7,3.5-5.5c1-0.3,2.1-0.3,3.1-0.7c3.2-1.4,2.7-6.2,4.9-8.8
							c1.1-1.2,2.6-1.8,4.1-2.5c6.1-2.9,11.1-8.8,11.7-15.5c0.4-5.4-1.5-12,2.6-15.5c3.8-3.2,9.6-1.1,14.5-1.9c2-0.3,3.3-2.2,4.3-4
							s1-3.9,0.7-5.9c-0.4-2.5-1.5-4.9-1.2-7.3c0.3-3.5,3.1-6.2,5.2-9c2.5-3.3,4.3-7.1,5.2-11.2c1.1-4.6-1.9-10.1-6-12.3
							c-4.1-2.3-9.1-2.4-13.8-2.5"/>
						<path class="st8" d="M273.1,121.2c6.1-4.9,5.2-14.1,6.9-21.8c2.8-12.8,13.9-22.3,18.2-34.6c0.8-2.4,1.4-5,1.4-7.5
							c-0.2-8.3-7.2-15.2-15-17.9c-9.6-3.4-19.4-1.3-29.3-1.7c-5.4-0.2-11.3-2.5-16.5-0.3c-8,3.4-5.7,11.3-10.9,16
							c-4.6,4.1-13,0.9-16.6,6.5c-2.6,3.9,0.3,9.3,4.1,12.1c3.7,2.8,8.4,4.5,11.4,8.2c4.8,5.9,3.4,14.5,0.8,21.6
							c-2.6,7.1-6.3,14.2-5.4,21.7c0.4,3.5,1.9,6.9,3.7,9.9c1.8,2.9,4.3,5.7,7.7,6.5c4.3,1,8.6-1.5,11.8-4.4c3.2-3,6-6.5,10-8.5"/>
						<path class="st8" d="M564,217c-2.4-4.5-3.6-11.4,1.1-13.4c1.3-0.5,2.7-0.5,4-0.6c17.7-0.7,32.4-19.5,28.8-36.9
							c-0.7-3.3-1.9-6.5-4.3-8.9c-4.2-4.3-11.4-5.3-14.5-10.4c-3.8-6.3,0.9-14.6,7.1-18.6c6.2-4,13.7-5.8,19.4-10.4
							c1.5,0,2.4-1.5,2.6-3c0.2-0.9-0.1-1.9-0.1-2.9c0-2.6,1.9-5.2,4.4-5.9c2.5-0.7,5.5,0.4,6.9,2.6c1.7,2.8,1,6.4-0.2,9.4
							c-1.3,3-3.1,5.9-3.4,9.1c-0.3,3.2,1.5,7.1,4.7,7.4c4,0.4,6.5-4.3,6.8-8.2c0.3-4-0.5-8.3,1.6-11.7c3.2-5.1,12.2-6.3,12.5-12.4
							c0.2-4.9-6-7.8-7.1-12.5c-0.4-1.9,0-3.9,0.2-5.9c0.7-7.3-2.6-14.9-8.3-19.5c-5.8-4.6-13.9-6.1-20.9-3.8
							c-2.3,0.7-4.4,1.9-6.8,2.5c-3.4,0.9-7,0.7-10.6,0.4c-6.3-0.4-12.7-0.9-19-1.3c-5.7-0.4-11.7-0.7-16.7,1.9
							c-7.3,3.9-11.5,13.5-19.8,14.5"/>
						<path class="st8" d="M516.1,73.1c-8.8-3.5-19.4-1.8-26.8,4.1c-2.8-1.4-1.9-5.5-2.9-8.5c-1-3.1-4.3-4.9-7.5-5.2
							c-3.2-0.3-6.4,0.7-9.5,1.7c-6.6,2.2-14.3,5.9-14.9,12.8c-0.2,2,0.3,4-0.6,5.8c-1.2,2.5-4.3,3.4-6.3,5.4
							c-2.4,2.4-2.7,6-2.8,9.3c-0.1,3.3-0.1,6.9-2.1,9.6s-12.1,4.1-14.4,1.8c-4.6-4.5-12.1-0.1-16.9,4.1c-4.8,4.3-9.5,8.5-14.3,12.8
							c-3.6,3.2-7.4,6.5-12.1,7.3c-4.7,0.8-10.4-2.2-10.6-7c3.2-3,9.7,1.5,12.6-1.8c2.6-2.9-1.3-7.2-4.7-9.1
							c-6.2-3.6-12.7-7.3-19.8-8.3c-7.1-1-15.2,1.4-19,7.6c-3.2,5.3-2.6,12.2-5.7,17.5c-2,3.3-5.2,5.7-7.4,8.8
							c-2.2,3.2-3.2,7.9-0.5,10.6c2.2,2.2,6,2.2,8.2,4.4c1.7,1.7,2.3,4.6,4.5,5.5c2.5,1.1,5.4-1.4,6-4c0.6-2.7-0.2-5.4-0.7-8.1
							c-1.3-8.1,2.8-18.1,10.9-19.2c1.8,0.1,2.5,2.7,1.6,4.4c-0.8,1.7-2.4,2.8-3.3,4.4c-1.6,3.1,0.3,7.5,3.6,8.3
							c3.5,0.9,9.4,0.2,8.9,3.8c-0.5,3.8-7.6,1.3-9.9,4.4c-1.4,1.8-0.2,4.4-0.2,6.7c-0.1,4.5-5,7.4-9.4,7.7c-4.4,0.3-8.9-1-13.3-0.6
							c-4.4,0.4-9.3,3.5-9.1,8c-6.1,2.9-12.5,5.2-19.1,7c0.3,4.8,9.4,5.3,9.3,10.1c0,2.9-3.6,4.4-6.5,4.2c-2.9-0.2-5.8-1.4-8.6-0.6
							c-4.8,1.3-6.5,8.1-3.9,12.3s8.2,5.9,13.2,5.5c2-0.2,4.1-0.7,5.4-2.3c1.2-1.5,1.3-3.6,1.8-5.4c1.1-4.1,4.7-7.5,8.8-8.5
							c2.4-0.5,5.2-0.6,6.5-2.6c5.4,2.9,9.2,8.6,9.8,14.7c1.7,2.2,5.6-0.6,5.2-3.5c-0.4-2.8-2.9-4.8-4.8-6.8c-2-2-3.6-5.2-2.1-7.6
							c9.2,2.7,16.7,10.7,18.7,20.1c3.2-0.6,5-5,3.1-7.7c1-2.2,4.7-1,5.7,1.3s1,4.9,2.5,6.9c4.4,5.6,16-1.2,19.6,4.9
							c2.5,4.3-3.1,9.3-8.1,9.2c-5-0.2-9.5-3-14.5-3.5c-5.5-0.5-10.8,1.8-16.2,2.4c-5.5,0.6-12.2-1.5-13.3-6.9c-0.3-1.4-0.2-3-1-4.3
							c-1.1-1.8-3.5-2.2-5.6-2c-9.1,1-18.3,10.4-25.8,5.2c-4.8,9.3-16.5,12.8-23,21c-7.1,8.9-6.5,22.7,0.4,31.8
							c6.9,9.1,19.1,13.4,30.4,11.9c2.6-0.3,5.3-0.9,7.7,0.1c2.4,1,3.9,3.3,5.9,5c2,1.6,5.3,2.5,7,0.5c-1.9,4.7-1.4,10.3,1.4,14.6
							c3,4.6,8.5,8.2,8.3,13.7c-0.1,2.8-1.7,5.4-2.5,8.1c-3.5,12.5,11.2,22.6,13.5,35.4c0.6,3.4,0.6,7.6,3.5,9.5
							c1.3,0.9,3,1.1,4.6,1.2c8.2,0.5,18.6-1.9,20.3-10c0.5-2.3,0.1-4.6,0.2-7c0.2-7,4.5-13.7,10.7-16.8c1.7-0.9,3.5-1.5,4.9-2.8
							c3-2.9,2.3-7.9,0.8-11.7c-1.5-3.9-3.7-7.8-3.2-11.9c0.9-6.6,8-10.1,13.4-14.1c8.1-5.9,13.7-15.3,15.1-25.2
							c-7.5,2.3-16.6,4.4-22.3-1c-2-1.9-3.2-4.4-4.4-6.8c-3.5-7.4-7-14.7-10.6-22.1c-0.5-1-0.9-2.1-0.6-3.1c1-2.7,5.1-0.5,6.7,2
							c5.7,8.8,10.7,17.9,15.2,27.3c9.1-1.7,17.8-5.4,25.2-11c2.4-1.8,4.7-3.9,5.5-6.7c0.8-2.8-0.7-6.5-3.6-7
							c-1.1-0.2-2.3,0.1-3.4,0.2c-6.9,0.7-12.8-4.5-17.3-9.8c3.1-3.4,8.7-1.4,12.9,0.5c7.5,3.5,15.5,5.9,23.6,7.3
							c2,0.4,4.1,0.7,5.9,1.6c1.3,0.7,2.4,1.6,3.4,2.6c9.4,8.7,16.4,20,19.9,32.3c3.6,0.8,6.1-3.6,6.4-7.3c0.3-3.7-0.1-7.9,2.5-10.5
							c2.1-2,5.5-2.3,7.3-4.5c2.3-2.8,1.1-7.6,3.8-10.1c3.4-3.1,8.8,0.7,10.6,4.9c1.8,4.2,2.4,9.4,6.2,11.9c2-0.3,4.1-0.6,6.1-0.9
							c0,10.3,3.6,20.6,10,28.6c3.5-1.8,1.9-7.1-0.3-10.4c-2.2-3.3-4.3-8.2-1.2-10.6c4.3,0,6.3,6,10.5,7c4.1,1,7.9-3.9,7.1-8.1
							c-0.7-4.2-4.4-7.3-8.1-9.4c-3.3-3.7,1.5-9.5,6.4-10.3c4.9-0.8,10.2,0.6,14.7-1.7c5.3-2.7,7.1-9.7,5.9-15.5"/>
						<path class="st8" d="M552.2,301.5c1.5,2.2,4.1,3.5,6.5,4.6c3,1.3,6.6,2.3,9.3,0.4c1.8-1.2,8-9.8,8.4-11.6
							c0.8-3.6-0.4-3.4-3.9-4.1C566.9,289.7,545.6,291.9,552.2,301.5z"/>
						<path class="st8" d="M544.4,313.5c-1.1-1.6-1.8-3.5-2.7-5.2c-2.6-5-12.8-17.6-19.1-14.6c1.7,3.5,4.5,7.3,6.6,11
							c8.2,15,25.1,24.8,42.3,24.6c1.2-1.2-0.6-3.1-2.1-3.7c-4.3-1.8-9-2.7-13.4-4.3"/>
						<path class="st8" d="M596,374.6c6,3.3,6.6,11.5,10.2,17.3c3.2,5,10.4,8.1,15.5,4.8c1.7-1.1,3-2.7,4.2-4.4
							c2.5-3.3,5.1-6.6,7.6-9.9c3.4-4.4,6.8-9.1,7.5-14.5c1.2-10.6-8.1-19.1-16.6-25.6c-0.4-3.4-0.9-6.9-2.7-9.8
							c-3.5-5.9-10.5-6.5-8.6,1.8c-5.5,0.2-10-8-16.1-8.8c-7.5-1-16.2,4.3-21,9.7c-2.2,2.5-4.3,5.5-7.5,6.2c-1.9,0.5-3.9,0-5.8,0.5
							c-5.6,1.3-6.9,8.8-5.6,14.4c1.3,5.6,3.9,11.5,1.8,16.8c-0.4,1.1-1,2.1-1,3.3c0,1.4,1,2.6,2.1,3.4c5.1,3.8,12.3,1.1,17.9-2"/>
						<path class="st9" d="M617.6,174.4c2.4-5,2.3-17.7,7.5-20.3c8.6-4.3,7.4,6.4,7.5,11.5c0.1,3.7,0.1,7.6-1.4,10.9
							c-1.1,2.5-2.9,4.5-4.6,6.6c-3.9,5-7,10.6-9.2,16.5c-2.3,6.1-4.4,13.5-10.6,15.6c-2.9-9.4-1.7-20,3.1-28.5
							C612.2,182.5,615.5,178.8,617.6,174.4z"/>
					</g>
				</g>
			</g>
		</g>
		<rect y="26.7" class="st10" width="700" height="440"/>
	</g>
</g>
<g id="_x32_" class="st11">
	<g class="st12">
		<g>
			<rect x="47.4" y="188.8" class="st3" width="128" height="64"/>
			<g>
				<g>
					<path class="st5" d="M100,209.9c0,0.4-0.1,0.8-0.2,1.2h7.2v1.4h-7.6c-0.8,2.3-2.8,3.9-7.5,4.6c-0.1-0.4-0.5-1.1-0.8-1.5
						c3.9-0.5,5.7-1.5,6.5-3.1h-5.7v-1.4H98c0.1-0.4,0.1-0.8,0.2-1.2h-6.8v-1.5h7v-1.3H93v-1.4h5.4v-1.2H92V203h3.6
						c-0.3-0.6-0.8-1.3-1.2-1.9l1.5-0.6c0.6,0.6,1.2,1.5,1.5,2.2l-0.6,0.3h4.4c0.5-0.7,1.1-1.7,1.4-2.4l1.8,0.5
						c-0.4,0.7-0.9,1.4-1.3,2h3.7v1.5h-6.5v1.2h5.6v1.4h-5.6v1.3h7.3v1.5H100z M106.6,217.2c-1.6-1-4.8-2.5-7.2-3.5l0.7-1.3
						c2.4,0.8,5.6,2.3,7.3,3.3L106.6,217.2z"/>
					<path class="st5" d="M125.7,201.4v15.8h-1.7v-0.8h-11.8v0.8h-1.6v-15.8H125.7z M124.1,214.9v-12h-11.8v12H124.1z M122.7,207.2
						c-0.4,1.6-1.1,3.1-1.9,4.3c0.3,0.8,0.7,1.3,1.2,1.3c0.2,0.1,0.4-0.7,0.5-1.8c0.3,0.3,0.8,0.6,1.1,0.8c-0.3,2.1-1,2.8-2.1,2.3
						c-0.7-0.2-1.2-0.7-1.6-1.5c-0.6,0.7-1.4,1.3-2.1,1.8c-0.2-0.3-0.7-0.8-0.9-1c0.5-0.3,1-0.6,1.4-1c-1.8,0.3-3.6,0.6-5,0.9
						l-0.2-1.3c1.3-0.2,3.3-0.5,5.2-0.8l0,1.1c0.4-0.3,0.8-0.7,1.1-1.1c-0.4-1.4-0.7-3.1-0.9-5h-5.3v-1.2h5.2c0-0.6-0.1-1.2-0.1-1.7
						h1.4c0,0.6,0.1,1.2,0.1,1.7h2.5c-0.4-0.4-1.1-0.9-1.8-1.2l0.8-0.8c0.6,0.3,1.4,0.8,1.8,1.2l-0.8,0.8h1.1v1.2h-3.6
						c0.1,1.3,0.3,2.5,0.5,3.5c0.5-0.9,0.8-1.8,1.1-2.9L122.7,207.2z M117.7,207.3v3.5h-4v-3.5H117.7z M116.5,208.2h-1.7v1.5h1.7
						V208.2z"/>
				</g>
			</g>
			
				<use xlink:href="#map-marker"  width="21.5" height="50.3" id="XMLID_7_" x="-10.8" y="-25.1" transform="matrix(1 0 0 -1 110.6032 164.0971)" style="overflow:visible;"/>
			<g>
				<path class="st5" d="M94.5,241c-1,0-1.7-0.1-2.3-0.3c-0.6-0.2-1.1-0.5-1.4-0.9c-0.3-0.4-0.6-0.8-0.7-1.4
					c-0.1-0.5-0.2-1.1-0.2-1.6v-5.4c0-1,0.2-1.8,0.5-2.5c0.3-0.6,0.8-1.2,1.4-1.5c0.6-0.4,1.3-0.6,2.1-0.8c0.8-0.2,1.7-0.2,2.8-0.2
					c0.3,0,0.7,0,1.1,0c0.4,0,0.7,0.1,1.1,0.1l-0.2,2.6c-0.2,0-0.5-0.1-0.8-0.1c-0.3,0-0.5,0-0.7,0c-0.7,0-1.4,0-1.9,0.1
					c-0.5,0.1-0.9,0.2-1.3,0.4s-0.6,0.4-0.7,0.7c-0.1,0.3-0.2,0.7-0.2,1.1v1.1c0.4-0.1,0.8-0.2,1.2-0.3c0.4-0.1,0.8-0.1,1.3-0.1
					c1.2,0,2.2,0.3,2.8,0.9s0.9,1.5,0.9,2.8v0.9c0,0.6-0.1,1.1-0.2,1.6s-0.4,1-0.7,1.4c-0.3,0.4-0.8,0.7-1.4,0.9
					C96.2,240.9,95.5,241,94.5,241z M94.5,238.2c0.6,0,1-0.1,1.2-0.3s0.3-0.6,0.3-1v-1c0-0.5-0.1-0.8-0.3-0.9s-0.5-0.2-0.8-0.2
					c-0.4,0-0.7,0-1,0.1c-0.3,0.1-0.6,0.2-0.9,0.3v1.7c0,0.5,0.1,0.9,0.3,1.1C93.6,238.1,93.9,238.2,94.5,238.2z"/>
				<path class="st5" d="M110.4,237.7v3h-3.1v-3h-6.5V235l5.4-8.4h4.2v8.6h1.8v2.6H110.4z M107.3,229.7l-3.4,5.5h3.4V229.7z"/>
				<path class="st5" d="M120.9,230.7c0,0.5-0.1,0.9-0.2,1.3c-0.1,0.4-0.3,0.7-0.6,1c-0.3,0.3-0.6,0.5-1.1,0.7
					c-0.5,0.2-1,0.2-1.7,0.2s-1.3-0.1-1.7-0.2c-0.5-0.2-0.8-0.4-1.1-0.7c-0.3-0.3-0.5-0.6-0.6-1c-0.1-0.4-0.2-0.8-0.2-1.3v-1.6
					c0-0.5,0.1-0.9,0.2-1.3c0.1-0.4,0.3-0.7,0.6-1s0.6-0.5,1.1-0.7c0.5-0.2,1-0.2,1.7-0.2s1.3,0.1,1.7,0.2c0.5,0.2,0.8,0.4,1.1,0.7
					c0.3,0.3,0.5,0.6,0.6,1s0.2,0.8,0.2,1.3V230.7z M118.5,228.9c0-0.3-0.1-0.6-0.2-0.7s-0.4-0.2-0.8-0.2c-0.4,0-0.7,0.1-0.9,0.2
					c-0.2,0.1-0.2,0.4-0.2,0.7v2c0,0.3,0.1,0.6,0.2,0.7c0.2,0.1,0.4,0.2,0.9,0.2c0.4,0,0.7-0.1,0.8-0.2s0.2-0.4,0.2-0.7V228.9z
					 M124.5,225.9l1.9,0.8l-5.9,14.3l-1.9-0.8L124.5,225.9z M131.4,237.8c0,0.5-0.1,0.9-0.2,1.3c-0.1,0.4-0.3,0.7-0.6,1
					c-0.3,0.3-0.6,0.5-1.1,0.7c-0.5,0.2-1,0.2-1.7,0.2s-1.3-0.1-1.7-0.2c-0.5-0.2-0.8-0.4-1.1-0.7c-0.3-0.3-0.5-0.6-0.6-1
					c-0.1-0.4-0.2-0.8-0.2-1.3v-1.6c0-0.5,0.1-0.9,0.2-1.3c0.1-0.4,0.3-0.7,0.6-1s0.6-0.5,1.1-0.7c0.5-0.2,1-0.2,1.7-0.2
					s1.3,0.1,1.7,0.2c0.5,0.2,0.8,0.4,1.1,0.7s0.5,0.6,0.6,1c0.1,0.4,0.2,0.8,0.2,1.3V237.8z M128.9,236c0-0.3-0.1-0.6-0.2-0.7
					s-0.4-0.2-0.8-0.2c-0.4,0-0.7,0.1-0.9,0.2s-0.2,0.4-0.2,0.7v2c0,0.3,0.1,0.6,0.2,0.7s0.4,0.2,0.9,0.2c0.4,0,0.7-0.1,0.8-0.2
					s0.2-0.4,0.2-0.7V236z"/>
			</g>
		</g>
		<g>
			<rect x="405.4" y="166.3" class="st3" width="160" height="64"/>
			<g>
				<g>
					<path class="st5" d="M438.3,191.2v1.5h-16.1v-1.5h5.2v-2.9h-3.9v-6.2h3.9v-2.6h-4.8V178h15.3v1.5h-5v2.5h4.1v6.2H433v2.9H438.3
						z M429,186.8v4.4h2.3v-4.4h4v-3.3h-4v-4H429v4h-3.9v3.3H429z"/>
					<path class="st5" d="M443.8,185c-0.6-0.5-2-1.3-3-1.8l1-1.2c1,0.5,2.3,1.2,3,1.7L443.8,185z M441.2,192.4
						c0.7-1.4,1.7-3.7,2.4-5.7l1.4,0.9c-0.6,1.9-1.5,4-2.3,5.7L441.2,192.4z M444.5,180.3c-0.6-0.6-1.9-1.4-2.9-1.9l1-1.2
						c1,0.5,2.3,1.3,3,1.8L444.5,180.3z M450,182.4c0.5,1.2,1,2.9,1.3,3.9l-1.2,0.5c-0.2-1-0.6-2.4-1.1-3.7v0.4
						c0,3.5-0.3,7.1-2.5,10c-0.3-0.3-1-0.8-1.4-1c1.4-1.8,2-3.8,2.2-6l-1.1,0.4c-0.1-1.2-0.6-2.9-1.2-4.2l1.2-0.4
						c0.5,1.1,0.9,2.4,1.1,3.5c0-0.8,0.1-1.5,0.1-2.3v-6.1h1.6v5.3L450,182.4z M456.7,177.4v16.1h-1.6v-7.1l-0.9,0.4
						c-0.2-0.9-0.8-2.3-1.4-3.4v9.7h-1.5v-15.4h1.5v4.7l0.7-0.3c0.6,1,1.2,2.2,1.5,3.2v-7.9H456.7z"/>
					<path class="st5" d="M460.6,186.5c0-3.5,1-6.5,2.7-9.2l1.3,0.6c-1.5,2.6-2.3,5.6-2.3,8.6c0,3,0.7,6.1,2.3,8.6l-1.3,0.6
						C461.6,192.9,460.6,190,460.6,186.5z"/>
					<path class="st5" d="M481.4,178.1v15.1h-1.8v-1.1h-8.5v1.2h-1.7v-15.2H481.4z M471.1,179.8v4.4h8.5v-4.4H471.1z M479.6,190.4
						v-4.6h-8.5v4.6H479.6z"/>
					<path class="st5" d="M497,182.3c1.2,2.8,3.3,5.5,5.6,6.9c-0.4,0.3-1,1-1.3,1.5c-0.8-0.5-1.5-1.2-2.2-2v1.6h-4v3.2h-1.8v-3.2h-4
						v-1.6c-0.7,0.8-1.5,1.5-2.2,2.1c-0.3-0.4-0.8-1-1.2-1.4c2.3-1.4,4.3-4.2,5.5-7.1h-5v-1.7h6.9V177h1.8v3.6h7v1.7H497z
						 M493.3,188.6v-6.3h-0.2c-0.9,2.4-2.2,4.6-3.7,6.3H493.3z M498.9,188.6c-1.5-1.7-2.8-4-3.7-6.3h-0.2v6.3H498.9z"/>
					<path class="st5" d="M512.5,188.4c-2.4,1.1-5.1,2.3-7.1,3.1l-0.6-1.7c0.7-0.3,1.5-0.6,2.4-0.9l-0.3-10.8l1.7-0.1l0.3,10.2
						c1-0.4,2.1-0.9,3.2-1.3L512.5,188.4z M520.2,193.5c-0.8-1.2-2.3-3-3.7-4.6c-1.3,2-3.2,3.5-5.9,4.6c-0.2-0.4-0.9-1.1-1.3-1.5
						c6-2.2,7.8-6.6,8.6-14.1l1.8,0.2c-0.4,3.8-1.1,6.8-2.3,9.2c1.5,1.6,3.3,3.5,4.2,4.8L520.2,193.5z M513.3,184.3
						c-0.5-1.2-1.6-3.1-2.7-4.4l1.5-0.7c1.2,1.3,2.3,3,2.8,4.3L513.3,184.3z"/>
					<path class="st5" d="M531.5,179.6l1.2,0.3c-0.9,7.1-3.6,11.4-7.5,13.5c-0.3-0.4-1-1.1-1.4-1.4c2.1-1,3.8-2.6,5-4.9
						c-0.7-0.8-1.7-1.9-2.6-2.8c-0.3,0.6-0.7,1.1-1,1.5c-0.3-0.3-1-0.8-1.4-1.1c1.6-1.8,2.7-4.8,3.3-7.9l1.7,0.3
						c-0.2,0.8-0.4,1.6-0.6,2.4h3.1L531.5,179.6z M527.6,181.2c-0.2,0.6-0.4,1.2-0.7,1.7c0.9,0.8,1.9,1.7,2.7,2.6
						c0.5-1.2,0.9-2.7,1.1-4.3H527.6z M536.2,182.4c1.4,1.2,3.3,2.9,4.2,4.1l-1.4,1.2c-0.7-1-2.1-2.4-3.4-3.6v9.5h-1.8V177h1.8v5.8
						L536.2,182.4z"/>
					<path class="st5" d="M542.7,195.1c1.5-2.6,2.3-5.6,2.3-8.6c0-3-0.7-6-2.3-8.6l1.3-0.6c1.7,2.7,2.7,5.7,2.7,9.2
						c0,3.6-1,6.5-2.7,9.2L542.7,195.1z"/>
				</g>
			</g>
			<g>
				<path class="st5" d="M470.6,220.1v-10.5l-2.5,1.3l-1.4-2.6l4.2-2.4h2.9v14.2H470.6z"/>
				<path class="st5" d="M481.1,205.7c1,0,1.7,0.1,2.3,0.3c0.6,0.2,1.1,0.5,1.4,0.9c0.3,0.4,0.6,0.8,0.7,1.4
					c0.1,0.5,0.2,1.1,0.2,1.6v5.4c0,1-0.2,1.8-0.5,2.5c-0.3,0.6-0.8,1.2-1.4,1.5s-1.3,0.6-2.1,0.8s-1.7,0.2-2.8,0.2
					c-0.4,0-0.7,0-1.1-0.1c-0.4,0-0.7-0.1-1-0.1l0.2-2.6c0.2,0,0.4,0.1,0.7,0.1s0.5,0,0.8,0c1.4,0,2.4-0.2,3.1-0.5s0.9-0.9,0.9-1.9
					v-1.1c-0.4,0.1-0.8,0.2-1.2,0.3c-0.4,0.1-0.8,0.1-1.3,0.1c-1.2,0-2.2-0.3-2.8-0.9c-0.6-0.6-0.9-1.5-0.9-2.8v-0.9
					c0-0.5,0.1-1.1,0.2-1.6c0.1-0.5,0.4-1,0.7-1.4c0.3-0.4,0.8-0.7,1.4-0.9S480.2,205.7,481.1,205.7z M481.1,208.4
					c-0.6,0-1,0.1-1.2,0.3c-0.2,0.2-0.3,0.6-0.3,1v1c0,0.5,0.1,0.8,0.3,0.9s0.5,0.2,0.8,0.2c0.4,0,0.7,0,1-0.1
					c0.3-0.1,0.6-0.2,0.9-0.3v-1.7c0-0.5-0.1-0.9-0.3-1.1C482.1,208.5,481.7,208.4,481.1,208.4z"/>
				<path class="st5" d="M494.9,210c0,0.5-0.1,0.9-0.2,1.3c-0.1,0.4-0.3,0.7-0.6,1c-0.3,0.3-0.6,0.5-1.1,0.7c-0.5,0.2-1,0.2-1.7,0.2
					s-1.3-0.1-1.7-0.2c-0.5-0.2-0.8-0.4-1.1-0.7c-0.3-0.3-0.5-0.6-0.6-1s-0.2-0.8-0.2-1.3v-1.6c0-0.5,0.1-0.9,0.2-1.3s0.3-0.7,0.6-1
					c0.3-0.3,0.6-0.5,1.1-0.7c0.5-0.2,1-0.2,1.7-0.2s1.3,0.1,1.7,0.2c0.5,0.2,0.8,0.4,1.1,0.7c0.3,0.3,0.4,0.6,0.6,1
					c0.1,0.4,0.2,0.8,0.2,1.3V210z M492.5,208.2c0-0.3-0.1-0.6-0.2-0.7s-0.4-0.2-0.8-0.2s-0.7,0.1-0.9,0.2c-0.2,0.1-0.2,0.4-0.2,0.7
					v2c0,0.3,0.1,0.6,0.2,0.7c0.2,0.1,0.4,0.2,0.9,0.2s0.7-0.1,0.8-0.2c0.2-0.1,0.2-0.4,0.2-0.7V208.2z M498.5,205.2l1.9,0.8
					l-5.9,14.3l-1.9-0.8L498.5,205.2z M505.4,217.1c0,0.5-0.1,0.9-0.2,1.3c-0.1,0.4-0.3,0.7-0.6,1c-0.3,0.3-0.6,0.5-1.1,0.7
					s-1,0.2-1.7,0.2s-1.3-0.1-1.7-0.2s-0.8-0.4-1.1-0.7c-0.3-0.3-0.5-0.6-0.6-1c-0.1-0.4-0.2-0.8-0.2-1.3v-1.6
					c0-0.5,0.1-0.9,0.2-1.3c0.1-0.4,0.3-0.7,0.6-1c0.3-0.3,0.6-0.5,1.1-0.7c0.5-0.2,1-0.2,1.7-0.2s1.3,0.1,1.7,0.2
					c0.5,0.2,0.8,0.4,1.1,0.7c0.3,0.3,0.5,0.6,0.6,1c0.1,0.4,0.2,0.8,0.2,1.3V217.1z M502.9,215.3c0-0.3-0.1-0.6-0.2-0.7
					s-0.4-0.2-0.8-0.2c-0.4,0-0.7,0.1-0.9,0.2c-0.2,0.1-0.2,0.4-0.2,0.7v2c0,0.3,0.1,0.6,0.2,0.7c0.2,0.1,0.4,0.2,0.9,0.2
					c0.4,0,0.7-0.1,0.8-0.2c0.2-0.1,0.2-0.4,0.2-0.7V215.3z"/>
			</g>
			
				<use xlink:href="#map-marker"  width="21.5" height="50.3" id="XMLID_8_" x="-10.8" y="-25.1" transform="matrix(1 0 0 -1 485.3638 141.7988)" style="overflow:visible;"/>
		</g>
		<g>
			<rect x="383.9" y="367.4" class="st3" width="128" height="64"/>
			<g>
				<g>
					<path class="st5" d="M416.9,394.6c-1.6,1-4,2-5.9,2.6c-0.3-0.4-0.7-0.9-1.1-1.3c1.9-0.5,4.3-1.5,5.6-2.4L416.9,394.6z
						 M426,393.3h-15.9v-1.5h3.2v-7.7h-2.6v-1.5h2.6v-1.9h1.7v1.9h6.2v-1.9h1.7v1.9h2.8v1.5h-2.8v7.7h3.2V393.3z M414.9,384.1v1.5
						h6.2v-1.5H414.9z M414.9,388.7h6.2v-1.6h-6.2V388.7z M414.9,391.8h6.2v-1.7h-6.2V391.8z M420.3,393.6c2.1,0.7,4.3,1.7,5.7,2.4
						l-1.5,1.1c-1.2-0.7-3.3-1.7-5.3-2.4L420.3,393.6z"/>
					<path class="st5" d="M434.1,381.2c-0.5,1.3-1.1,2.6-1.8,3.9v12h-1.6v-9.6c-0.5,0.7-1,1.3-1.5,1.8c-0.2-0.4-0.6-1.3-0.9-1.7
						c1.7-1.7,3.3-4.3,4.3-6.9L434.1,381.2z M442.4,395.5c1.1,0,1.2-0.5,1.4-2.5c0.4,0.3,1,0.5,1.5,0.6c-0.3,2.6-0.8,3.4-2.8,3.4
						H438c-2.3,0-3-0.6-3-2.8v-5.5l-1.6,0.6l-0.7-1.5l2.3-0.9v-4.5h1.6v3.9l2.3-0.9v-4.8h1.5v4.2l2.7-1.1l0.2-0.2l1.3,0.4l-0.1,0.3
						c-0.1,2.6-0.3,6-0.6,8.1l-1.4-0.4c0.2-1.6,0.3-4.2,0.4-6.4l-2.5,1v6.5h-1.5v-5.9l-2.3,0.9v6.1c0,1,0.2,1.3,1.5,1.3H442.4z"/>
					<path class="st5" d="M453.2,390.2l0.4,1.5c-1.9,0.9-3.9,1.8-5.5,2.5l-0.7-1.7c0.6-0.2,1.5-0.6,2.4-0.9v-5.2h-2.1v-1.6h2.1v-4
						h1.6v4h1.8v1.6h-1.8v4.5L453.2,390.2z M461.4,395.3c1,0,1.2-0.5,1.3-2.4c0.4,0.3,1,0.5,1.5,0.6c-0.2,2.5-0.7,3.3-2.7,3.3h-4.1
						c-2.2,0-2.8-0.6-2.8-2.7v-5.2l-1.2,0.5l-0.6-1.5l1.9-0.8v-4.8h1.6v4.1l2-0.8v-5h1.6v4.3l2.4-1l1.2,0.4l-0.1,0.3
						c-0.1,2.5-0.4,5.8-0.9,7.9l-1.4-0.4c0.3-1.5,0.5-4.1,0.6-6.2l-1.9,0.8v6.5h-1.6v-5.8l-2,0.9v5.9c0,1,0.2,1.2,1.4,1.2H461.4z"/>
					<path class="st5" d="M479.5,394.9c1,0,2.4-0.1,3.1-0.2c0.1,0.4,0.2,1.2,0.3,1.6c-0.6,0.1-2,0.2-3.4,0.2h-7.5
						c-2.9,0-4.3-0.9-4.3-3.8v-9.7h-0.7v-1.5H482v1.5h-12.7v9.8c0,1.5,0.6,2.1,2.5,2.1H479.5z M470.4,389h4.8v4.7h-4.8V389z
						 M471.7,392.5h2v-2.3h-2V392.5z M479.1,388h-6.8v-4.1h6.8V388z M477.4,385h-3.6v1.8h3.6V385z M481.1,393.7h-4.9V389h4.9V393.7z
						 M479.7,390.2h-2.1v2.3h2.1V390.2z"/>
				</g>
			</g>
			<g>
				<path class="st5" d="M436.1,411.3c0.7,0,1.2-0.1,1.4-0.3c0.2-0.2,0.4-0.6,0.4-1V409c0-0.5-0.1-0.8-0.4-0.9
					c-0.2-0.1-0.7-0.2-1.4-0.2c-0.5,0-1,0-1.5,0.1c-0.5,0.1-1,0.1-1.6,0.2l-0.3-2.5c0.6-0.1,1.2-0.2,1.8-0.3
					c0.6-0.1,1.2-0.1,1.8-0.1c0.9,0,1.7,0.1,2.3,0.2s1.1,0.3,1.4,0.6c0.4,0.3,0.6,0.6,0.7,1c0.1,0.4,0.2,0.9,0.2,1.4v1
					c0,0.7-0.1,1.2-0.4,1.7s-0.6,0.9-1.1,1.2c0.6,0.3,1.1,0.6,1.3,1c0.3,0.4,0.4,1,0.4,1.7v1.1c0,0.5-0.1,1-0.2,1.5
					c-0.1,0.4-0.4,0.8-0.8,1.1c-0.4,0.3-0.9,0.5-1.5,0.7c-0.7,0.2-1.5,0.3-2.5,0.3c-0.7,0-1.3,0-1.9-0.1c-0.6-0.1-1.2-0.2-1.7-0.4
					l0.3-2.4c0.5,0.1,1,0.2,1.5,0.2s1,0.1,1.7,0.1c0.8,0,1.3-0.1,1.6-0.3s0.4-0.5,0.4-0.9v-1c0-0.8-0.5-1.2-1.6-1.2h-2.9v-2.7H436.1
					z"/>
				<path class="st5" d="M450.5,409.7c0,0.5-0.1,0.9-0.2,1.3c-0.1,0.4-0.3,0.7-0.6,1c-0.3,0.3-0.6,0.5-1.1,0.7
					c-0.5,0.2-1,0.2-1.7,0.2s-1.3-0.1-1.7-0.2c-0.5-0.2-0.8-0.4-1.1-0.7c-0.3-0.3-0.5-0.6-0.6-1c-0.1-0.4-0.2-0.8-0.2-1.3v-1.6
					c0-0.5,0.1-0.9,0.2-1.3c0.1-0.4,0.3-0.7,0.6-1s0.6-0.5,1.1-0.7c0.5-0.2,1-0.2,1.7-0.2s1.3,0.1,1.7,0.2c0.5,0.2,0.8,0.4,1.1,0.7
					c0.3,0.3,0.5,0.6,0.6,1s0.2,0.8,0.2,1.3V409.7z M448,407.9c0-0.3-0.1-0.6-0.2-0.7s-0.4-0.2-0.8-0.2c-0.4,0-0.7,0.1-0.9,0.2
					c-0.2,0.1-0.2,0.4-0.2,0.7v2c0,0.3,0.1,0.6,0.2,0.7c0.2,0.1,0.4,0.2,0.9,0.2c0.4,0,0.7-0.1,0.8-0.2s0.2-0.4,0.2-0.7V407.9z
					 M454.1,404.9l1.9,0.8l-5.9,14.3l-1.9-0.8L454.1,404.9z M460.9,416.8c0,0.5-0.1,0.9-0.2,1.3c-0.1,0.4-0.3,0.7-0.6,1
					c-0.3,0.3-0.6,0.5-1.1,0.7c-0.5,0.2-1,0.2-1.7,0.2s-1.3-0.1-1.7-0.2c-0.5-0.2-0.8-0.4-1.1-0.7c-0.3-0.3-0.5-0.6-0.6-1
					c-0.1-0.4-0.2-0.8-0.2-1.3v-1.6c0-0.5,0.1-0.9,0.2-1.3c0.1-0.4,0.3-0.7,0.6-1s0.6-0.5,1.1-0.7c0.5-0.2,1-0.2,1.7-0.2
					s1.3,0.1,1.7,0.2c0.5,0.2,0.8,0.4,1.1,0.7s0.5,0.6,0.6,1c0.1,0.4,0.2,0.8,0.2,1.3V416.8z M458.5,415c0-0.3-0.1-0.6-0.2-0.7
					s-0.4-0.2-0.8-0.2c-0.4,0-0.7,0.1-0.9,0.2s-0.2,0.4-0.2,0.7v2c0,0.3,0.1,0.6,0.2,0.7s0.4,0.2,0.9,0.2c0.4,0,0.7-0.1,0.8-0.2
					s0.2-0.4,0.2-0.7V415z"/>
			</g>
		</g>
		<g>
			<g>
				<rect x="271.4" y="55.3" class="st3" width="128" height="64"/>
				
					<use xlink:href="#map-marker"  width="21.5" height="50.3" id="XMLID_9_" x="-10.8" y="-25.1" transform="matrix(1 0 0 1 335.3638 144.4305)" style="overflow:visible;"/>
			</g>
			<g>
				<g>
					<g>
						<path class="st5" d="M326.9,73.3c0,0.4,0,0.8,0,1.2c0.6,3.5,1.5,5.7,3.5,7.5c-0.4,0.3-0.8,0.8-1.1,1.3c-1.5-1.5-2.4-3-3-5
							c-0.5,1.7-1.4,3.5-2.9,5.1c-0.2-0.3-0.5-0.8-0.9-1.1c-0.4,0.1-1,0.1-1.6,0.1h-3.7c-2.1,0-2.8-0.7-2.8-3V69h-0.6v-1.4h8.8V69
							h-6.7v10.4c0,1.1,0.3,1.5,1.2,1.5h3.8c0.5,0,1.3-0.1,1.7-0.1c0,0.2,0.1,0.5,0.1,0.8c2.4-2.6,2.6-6,2.6-8.3V72h1.5V73.3z
							 M316.5,75.2h2.8v4.5h-2.8V75.2z M321.7,74.2h-4.6v-4.1h4.6V74.2z M317.3,78.7h1v-2.4h-1V78.7z M320.3,71.1h-2v2h2V71.1z
							 M322.6,79.8h-2.8v-4.5h2.8V79.8z M321.7,76.3h-1v2.4h1V76.3z M325,71c-0.4,1.4-0.9,2.6-1.5,3.5c-0.3-0.3-1-0.7-1.4-0.9
							c1.2-1.6,1.9-4.2,2.3-6.9l1.5,0.3c-0.1,0.9-0.3,1.7-0.5,2.5h3.8l0.3-0.1l1.1,0.3c-0.4,1.7-0.9,3.6-1.4,4.9l-1.3-0.4
							c0.3-0.8,0.6-2,0.8-3.2H325z"/>
						<path class="st5" d="M335.7,74.7c-0.6-0.5-2-1.3-3-1.8l1-1.2c1,0.5,2.3,1.2,3,1.7L335.7,74.7z M333,82.2
							c0.7-1.4,1.7-3.7,2.4-5.7l1.4,0.9c-0.6,1.9-1.5,4-2.3,5.7L333,82.2z M336.3,70.1c-0.6-0.6-1.9-1.4-2.9-1.9l1-1.2
							c1,0.5,2.3,1.3,3,1.8L336.3,70.1z M341.8,72.1c0.5,1.2,1,2.9,1.3,3.9l-1.2,0.5c-0.2-1-0.6-2.4-1.1-3.7v0.4
							c0,3.5-0.3,7.1-2.5,10c-0.3-0.3-1-0.8-1.4-1c1.4-1.8,2-3.8,2.2-6l-1.1,0.4c-0.1-1.2-0.6-2.9-1.2-4.2l1.2-0.4
							c0.5,1.1,0.9,2.4,1.1,3.5c0-0.8,0.1-1.5,0.1-2.3v-6.1h1.6v5.3L341.8,72.1z M348.5,67.2v16.1h-1.6v-7.1l-0.9,0.4
							c-0.2-0.9-0.8-2.3-1.4-3.4v9.7h-1.5V67.5h1.5v4.7l0.7-0.3c0.6,1,1.2,2.2,1.5,3.2v-7.9H348.5z"/>
					</g>
				</g>
				<g>
					<g>
						<path class="st5" d="M317.5,107.9V97.3l-2.5,1.3l-1.4-2.6l4.2-2.4h2.9v14.2H317.5z"/>
						<path class="st5" d="M330.3,102.4c-0.5,0.6-1,1.2-1.3,1.6c-0.4,0.4-0.7,0.8-1,1.1h4.5v2.8h-8.9v-2.7c0.4-0.4,0.7-0.7,1-1
							c0.3-0.3,0.5-0.5,0.7-0.7c0.2-0.2,0.4-0.5,0.7-0.7c0.2-0.2,0.5-0.6,0.8-0.9c0.5-0.6,1-1.1,1.3-1.5c0.3-0.4,0.6-0.7,0.7-0.9
							c0.2-0.3,0.3-0.5,0.3-0.8s0.1-0.6,0.1-0.9v-0.4c0-0.4-0.1-0.6-0.4-0.8c-0.3-0.2-0.7-0.2-1.3-0.2c-0.3,0-0.6,0-0.9,0
							s-0.6,0.1-1,0.1c-0.3,0-0.6,0.1-1,0.1c-0.3,0.1-0.6,0.1-0.8,0.2l-0.4-2.7c0.7-0.2,1.4-0.3,2.1-0.4s1.4-0.2,2.1-0.2
							c1.7,0,2.9,0.3,3.7,0.8c0.7,0.5,1.1,1.4,1.1,2.6v0.6c0,0.5,0,1,0,1.3c0,0.3-0.1,0.7-0.2,1s-0.3,0.7-0.6,1.1
							S330.8,101.8,330.3,102.4z"/>
						<path class="st5" d="M341.6,97.8c0,0.5-0.1,0.9-0.2,1.3c-0.1,0.4-0.3,0.7-0.6,1c-0.3,0.3-0.6,0.5-1.1,0.7
							c-0.5,0.2-1,0.2-1.7,0.2s-1.3-0.1-1.7-0.2c-0.5-0.2-0.8-0.4-1.1-0.7c-0.3-0.3-0.5-0.6-0.6-1c-0.1-0.4-0.2-0.8-0.2-1.3v-1.6
							c0-0.5,0.1-0.9,0.2-1.3c0.1-0.4,0.3-0.7,0.6-1s0.6-0.5,1.1-0.7c0.5-0.2,1-0.2,1.7-0.2s1.3,0.1,1.7,0.2
							c0.5,0.2,0.8,0.4,1.1,0.7c0.3,0.3,0.5,0.6,0.6,1s0.2,0.8,0.2,1.3V97.8z M339.1,96c0-0.3-0.1-0.6-0.2-0.7s-0.4-0.2-0.8-0.2
							c-0.4,0-0.7,0.1-0.9,0.2c-0.2,0.1-0.2,0.4-0.2,0.7v2c0,0.3,0.1,0.6,0.2,0.7c0.2,0.1,0.4,0.2,0.9,0.2c0.4,0,0.7-0.1,0.8-0.2
							c0.2-0.1,0.2-0.4,0.2-0.7V96z M345.2,93l1.9,0.8l-5.9,14.3l-1.9-0.8L345.2,93z M352,104.9c0,0.5-0.1,0.9-0.2,1.3
							c-0.1,0.4-0.3,0.7-0.6,1c-0.3,0.3-0.6,0.5-1.1,0.7c-0.5,0.2-1,0.2-1.7,0.2s-1.3-0.1-1.7-0.2c-0.5-0.2-0.8-0.4-1.1-0.7
							c-0.3-0.3-0.5-0.6-0.6-1c-0.1-0.4-0.2-0.8-0.2-1.3v-1.6c0-0.5,0.1-0.9,0.2-1.3c0.1-0.4,0.3-0.7,0.6-1s0.6-0.5,1.1-0.7
							c0.5-0.2,1-0.2,1.7-0.2s1.3,0.1,1.7,0.2c0.5,0.2,0.8,0.4,1.1,0.7s0.5,0.6,0.6,1c0.1,0.4,0.2,0.8,0.2,1.3V104.9z M349.6,103.1
							c0-0.3-0.1-0.6-0.2-0.7s-0.4-0.2-0.8-0.2c-0.4,0-0.7,0.1-0.9,0.2s-0.2,0.4-0.2,0.7v2c0,0.3,0.1,0.6,0.2,0.7
							c0.2,0.1,0.4,0.2,0.9,0.2c0.4,0,0.7-0.1,0.8-0.2c0.2-0.1,0.2-0.4,0.2-0.7V103.1z"/>
					</g>
				</g>
			</g>
		</g>
		<g>
			<g>
				<rect x="555.2" y="48.5" class="st3" width="128" height="64"/>
			</g>
			<g>
				<g>
					<g>
						<path class="st5" d="M612,62.1v15.1h-1.8v-1.1h-8.5v1.2H600V62.1H612z M601.7,63.8v4.4h8.5v-4.4H601.7z M610.2,74.4v-4.6h-8.5
							v4.6H610.2z"/>
						<path class="st5" d="M627.6,66.2c1.2,2.8,3.3,5.5,5.6,6.9c-0.4,0.3-1,1-1.3,1.5c-0.8-0.5-1.5-1.2-2.2-2v1.6h-4v3.2h-1.8v-3.2
							h-4v-1.6c-0.7,0.8-1.5,1.5-2.2,2.1c-0.3-0.4-0.8-1-1.2-1.4c2.3-1.4,4.3-4.2,5.5-7.1h-5v-1.7h6.9v-3.6h1.8v3.6h7v1.7H627.6z
							 M623.9,72.5v-6.3h-0.2c-0.9,2.4-2.2,4.6-3.7,6.3H623.9z M629.6,72.5c-1.5-1.7-2.8-4-3.7-6.3h-0.2v6.3H629.6z"/>
					</g>
				</g>
				<g>
					<path class="st5" d="M609.7,95.5c-0.5,0.6-1,1.2-1.3,1.6c-0.4,0.4-0.7,0.8-1,1.1h4.5v2.8H603v-2.7c0.4-0.4,0.7-0.7,1-1
						c0.3-0.3,0.5-0.5,0.7-0.7c0.2-0.2,0.4-0.5,0.7-0.7c0.2-0.2,0.5-0.6,0.8-0.9c0.5-0.6,1-1.1,1.3-1.5c0.3-0.4,0.6-0.7,0.7-0.9
						c0.2-0.3,0.3-0.5,0.3-0.8s0.1-0.6,0.1-0.9v-0.4c0-0.4-0.1-0.6-0.4-0.8c-0.3-0.2-0.7-0.2-1.3-0.2c-0.3,0-0.6,0-0.9,0
						s-0.6,0.1-1,0.1c-0.3,0-0.6,0.1-1,0.1c-0.3,0.1-0.6,0.1-0.8,0.2l-0.4-2.7c0.7-0.2,1.4-0.3,2.1-0.4s1.4-0.2,2.1-0.2
						c1.7,0,2.9,0.3,3.7,0.8c0.7,0.5,1.1,1.4,1.1,2.6v0.6c0,0.5,0,1,0,1.3c0,0.3-0.1,0.7-0.2,1s-0.3,0.7-0.6,1.1
						S610.2,94.9,609.7,95.5z"/>
					<path class="st5" d="M621,91c0,0.5-0.1,0.9-0.2,1.3c-0.1,0.4-0.3,0.7-0.6,1c-0.3,0.3-0.6,0.5-1.1,0.7c-0.5,0.2-1,0.2-1.7,0.2
						s-1.3-0.1-1.7-0.2c-0.5-0.2-0.8-0.4-1.1-0.7c-0.3-0.3-0.5-0.6-0.6-1c-0.1-0.4-0.2-0.8-0.2-1.3v-1.6c0-0.5,0.1-0.9,0.2-1.3
						c0.1-0.4,0.3-0.7,0.6-1s0.6-0.5,1.1-0.7c0.5-0.2,1-0.2,1.7-0.2s1.3,0.1,1.7,0.2c0.5,0.2,0.8,0.4,1.1,0.7c0.3,0.3,0.5,0.6,0.6,1
						s0.2,0.8,0.2,1.3V91z M618.6,89.2c0-0.3-0.1-0.6-0.2-0.7s-0.4-0.2-0.8-0.2c-0.4,0-0.7,0.1-0.9,0.2c-0.2,0.1-0.2,0.4-0.2,0.7v2
						c0,0.3,0.1,0.6,0.2,0.7c0.2,0.1,0.4,0.2,0.9,0.2c0.4,0,0.7-0.1,0.8-0.2c0.2-0.1,0.2-0.4,0.2-0.7V89.2z M624.6,86.2l1.9,0.8
						l-5.9,14.3l-1.9-0.8L624.6,86.2z M631.5,98.1c0,0.5-0.1,0.9-0.2,1.3c-0.1,0.4-0.3,0.7-0.6,1c-0.3,0.3-0.6,0.5-1.1,0.7
						c-0.5,0.2-1,0.2-1.7,0.2s-1.3-0.1-1.7-0.2c-0.5-0.2-0.8-0.4-1.1-0.7c-0.3-0.3-0.5-0.6-0.6-1c-0.1-0.4-0.2-0.8-0.2-1.3v-1.6
						c0-0.5,0.1-0.9,0.2-1.3c0.1-0.4,0.3-0.7,0.6-1s0.6-0.5,1.1-0.7c0.5-0.2,1-0.2,1.7-0.2s1.3,0.1,1.7,0.2c0.5,0.2,0.8,0.4,1.1,0.7
						s0.5,0.6,0.6,1c0.1,0.4,0.2,0.8,0.2,1.3V98.1z M629,96.3c0-0.3-0.1-0.6-0.2-0.7s-0.4-0.2-0.8-0.2c-0.4,0-0.7,0.1-0.9,0.2
						s-0.2,0.4-0.2,0.7v2c0,0.3,0.1,0.6,0.2,0.7c0.2,0.1,0.4,0.2,0.9,0.2c0.4,0,0.7-0.1,0.8-0.2c0.2-0.1,0.2-0.4,0.2-0.7V96.3z"/>
				</g>
			</g>
			
				<use xlink:href="#map-marker"  width="21.5" height="50.3" id="XMLID_11_" x="-10.8" y="-25.1" transform="matrix(1 0 0 1 619.197 137.6355)" style="overflow:visible;"/>
		</g>
	</g>
</g>
</svg>
