<?xml version="1.0" encoding="utf-8"?>
<!-- Generator: Adobe Illustrator 25.3.1, SVG Export Plug-In . SVG Version: 6.00 Build 0)  -->
<svg version="1.1" id="圖層_1" xmlns="http://www.w3.org/2000/svg" xmlns:xlink="http://www.w3.org/1999/xlink" x="0px" y="0px"
	 viewBox="0 0 180 180" style="enable-background:new 0 0 180 180;" xml:space="preserve">
<style type="text/css">
	.st0{fill:#E1E1E1;}
	.st1{fill:#8C8C8C;}
	.st2{fill:#1E9BD7;}
	.st3{opacity:0.6;fill:#1CD8C0;enable-background:new    ;}
	.st4{fill:none;}
	.st5{fill:none;stroke:#1CD8C0;stroke-width:1.6;stroke-linecap:round;stroke-linejoin:round;stroke-miterlimit:10;}
</style>
<g id="_x31_">
</g>
<g id="_x32_">
	<g>
		<g>
			<g>
				<g>
					<g>
						<path class="st0" d="M67.8,128.3c8.1,5.1,17.7,8.1,28,8.1c9,0,17.4-2.2,24.8-6.2L95.7,85.6L67.8,128.3z"/>
						<path class="st0" d="M94.9,31.3c-28.6,0.5-51.7,23.8-51.7,52.6c0,18.1,9.1,34.1,23.1,43.5l28.6-43.8V31.3z"/>
						<path class="st0" d="M97.3,84.7l24.9,44.6c15.7-9.1,26.2-26.1,26.2-45.5c0-0.6,0-1.2,0-1.8L97.3,84.7z"/>
					</g>
				</g>
				<g>
					<path class="st1" d="M16.1,60.1c-1.2,0.8-3.1,1.5-4.6,2c-0.2-0.3-0.6-0.7-0.9-1c1.5-0.4,3.4-1.2,4.3-1.9L16.1,60.1z M23.1,59.1
						H10.7v-1.2h2.5v-6h-2.1v-1.2h2.1v-1.5h1.3v1.5h4.8v-1.5h1.3v1.5h2.1V52h-2.1v6h2.5V59.1z M14.5,52v1.2h4.8V52H14.5z M14.5,55.5
						h4.8v-1.3h-4.8C14.5,54.2,14.5,55.5,14.5,55.5z M14.5,57.9h4.8v-1.3h-4.8C14.5,56.6,14.5,57.9,14.5,57.9z M18.7,59.3
						c1.6,0.5,3.4,1.3,4.4,1.9L22,62.1c-1-0.6-2.6-1.3-4.2-1.9L18.7,59.3z"/>
					<path class="st1" d="M28.8,49.7c-0.4,1-0.9,2.1-1.4,3v9.4h-1.2v-7.5c-0.4,0.5-0.8,1-1.2,1.4c-0.1-0.3-0.5-1-0.7-1.3
						c1.3-1.3,2.6-3.3,3.3-5.4L28.8,49.7z M35.1,60.8c0.8,0,1-0.4,1.1-2c0.3,0.2,0.8,0.4,1.2,0.5c-0.2,2-0.6,2.6-2.2,2.6h-3.4
						c-1.8,0-2.3-0.4-2.3-2.2v-4.3L28.2,56l-0.5-1.1l1.8-0.7v-3.5h1.2v3l1.8-0.7v-3.7h1.2v3.3l2.1-0.8l0.2-0.1l1,0.3v0.2
						c-0.1,2-0.2,4.6-0.5,6.3l-1.1-0.3c0.2-1.2,0.2-3.2,0.3-5L33.8,54v5h-1.2v-4.6l-1.8,0.7v4.8c0,0.8,0.2,1,1.1,1h3.2V60.8z"/>
				</g>
				<g>
					<path class="st2" d="M136.7,18.2c0,0.3-0.1,0.6-0.1,0.9h5.6v1.1h-5.9c-0.7,1.8-2.1,3-5.8,3.6c-0.1-0.3-0.4-0.9-0.7-1.2
						c3.1-0.4,4.4-1.2,5-2.4h-4.5v-1.1h4.9c0.1-0.3,0.1-0.6,0.2-0.9h-5.3v-1.1h5.5v-1h-4.2V15h4.2v-1h-5v-1.1h2.8
						c-0.2-0.5-0.6-1-0.9-1.5l1.1-0.4c0.5,0.5,1,1.2,1.1,1.7l-0.5,0.2h3.4c0.4-0.6,0.9-1.3,1.1-1.9l1.4,0.4c-0.3,0.5-0.7,1.1-1,1.5
						h2.9V14h-5.1v1h4.4v1.1h-4.4v1h5.6v1.1H136.7z M141.9,23.9c-1.2-0.8-3.8-2-5.6-2.7l0.6-1c1.8,0.7,4.4,1.8,5.7,2.5L141.9,23.9z"
						/>
					<path class="st2" d="M156.1,11.6v12.3h-1.3v-0.6h-9.2v0.6h-1.2V11.6H156.1z M154.8,22.1v-9.3h-9.2v9.3H154.8z M153.8,16.1
						c-0.3,1.3-0.9,2.4-1.5,3.3c0.2,0.6,0.5,1,0.9,1c0.2,0.1,0.3-0.5,0.4-1.4c0.2,0.2,0.6,0.5,0.8,0.6c-0.2,1.6-0.8,2.1-1.6,1.8
						c-0.5-0.1-0.9-0.5-1.3-1.2c-0.5,0.5-1.1,1-1.7,1.4c-0.1-0.2-0.5-0.6-0.7-0.8c0.4-0.2,0.7-0.5,1.1-0.8c-1.4,0.2-2.8,0.5-3.9,0.7
						l-0.1-1c1-0.1,2.5-0.4,4.1-0.6V20c0.3-0.3,0.6-0.6,0.8-0.9c-0.3-1.1-0.5-2.4-0.7-3.9h-4.1v-1h4c0-0.4-0.1-0.9-0.1-1.3h1.1
						c0,0.4,0,0.9,0.1,1.3h2c-0.3-0.3-0.9-0.7-1.4-1l0.6-0.6c0.5,0.2,1.1,0.6,1.4,0.9l-0.6,0.6h0.9v1h-2.8c0.1,1,0.2,2,0.4,2.7
						c0.4-0.7,0.7-1.4,0.9-2.2L153.8,16.1z M149.8,16.2v2.7h-3.1v-2.7H149.8z M148.9,16.9h-1.3v1.2h1.3V16.9z"/>
				</g>
				<g>
					<path class="st2" d="M135.2,35.9c-0.3,0.4-0.6,0.7-0.8,1s-0.4,0.5-0.7,0.7h2.9v1.8h-5.7v-1.7c0.3-0.3,0.5-0.5,0.6-0.6
						c0.2-0.2,0.3-0.3,0.5-0.5c0.1-0.1,0.3-0.3,0.4-0.4c0.1-0.2,0.3-0.4,0.5-0.6c0.3-0.4,0.6-0.7,0.8-0.9s0.4-0.4,0.5-0.6
						c0.1-0.2,0.2-0.3,0.2-0.5s0-0.4,0-0.6v-0.3c0-0.2-0.1-0.4-0.3-0.5s-0.5-0.1-0.8-0.1c-0.2,0-0.4,0-0.6,0c-0.2,0-0.4,0-0.6,0.1
						s-0.4,0.1-0.6,0.1c-0.2,0-0.4,0.1-0.5,0.1l-0.3-1.7c0.4-0.1,0.9-0.2,1.4-0.3s0.9-0.1,1.3-0.1c1.1,0,1.9,0.2,2.3,0.5
						c0.5,0.4,0.7,0.9,0.7,1.7v0.4c0,0.3,0,0.6,0,0.8s-0.1,0.4-0.1,0.6s-0.2,0.4-0.4,0.7S135.5,35.5,135.2,35.9z"/>
					<path class="st2" d="M143.5,37.4v1.9h-2v-1.9h-4.1v-1.8l3.5-5.4h2.6v5.5h1.1v1.6L143.5,37.4L143.5,37.4z M141.5,32.3l-2.1,3.5
						h2.1V32.3z"/>
					<path class="st2" d="M150.1,33c0,0.3,0,0.6-0.1,0.8s-0.2,0.5-0.4,0.6c-0.2,0.2-0.4,0.3-0.7,0.4s-0.7,0.2-1.1,0.2
						s-0.8-0.1-1.1-0.2c-0.3-0.1-0.5-0.2-0.7-0.4s-0.3-0.4-0.4-0.6c-0.1-0.2-0.1-0.5-0.1-0.8v-1c0-0.3,0-0.6,0.1-0.8
						c0.1-0.2,0.2-0.5,0.4-0.6s0.4-0.3,0.7-0.4s0.7-0.2,1.1-0.2s0.8,0.1,1.1,0.2s0.5,0.2,0.7,0.4c0.2,0.2,0.3,0.4,0.4,0.6
						c0.1,0.2,0.1,0.5,0.1,0.8V33z M148.5,31.8c0-0.2,0-0.4-0.1-0.4c-0.1-0.1-0.3-0.1-0.5-0.1c-0.3,0-0.4,0-0.5,0.1
						s-0.2,0.2-0.2,0.4v1.3c0,0.2,0.1,0.4,0.2,0.4c0.1,0.1,0.3,0.1,0.5,0.1c0.3,0,0.4,0,0.5-0.1s0.1-0.2,0.1-0.4V31.8z M152.4,29.9
						l1.2,0.5l-3.8,9.1l-1.2-0.5L152.4,29.9z M156.7,37.5c0,0.3,0,0.6-0.1,0.8s-0.2,0.5-0.4,0.6c-0.2,0.2-0.4,0.3-0.7,0.4
						s-0.7,0.2-1.1,0.2c-0.4,0-0.8-0.1-1.1-0.2c-0.3-0.1-0.5-0.2-0.7-0.4s-0.3-0.4-0.4-0.6c-0.1-0.2-0.1-0.5-0.1-0.8v-1
						c0-0.3,0-0.6,0.1-0.8s0.2-0.5,0.4-0.6c0.2-0.2,0.4-0.3,0.7-0.4c0.3-0.1,0.7-0.2,1.1-0.2c0.4,0,0.8,0.1,1.1,0.2s0.5,0.2,0.7,0.4
						s0.3,0.4,0.4,0.6s0.1,0.5,0.1,0.8V37.5z M155.2,36.3c0-0.2,0-0.4-0.1-0.4c-0.1-0.1-0.3-0.1-0.5-0.1c-0.3,0-0.4,0-0.5,0.1
						s-0.2,0.2-0.2,0.4v1.3c0,0.2,0.1,0.4,0.2,0.4c0.1,0.1,0.3,0.1,0.5,0.1c0.3,0,0.4,0,0.5-0.1s0.1-0.2,0.1-0.4V36.3z"/>
				</g>
				<g>
					<path class="st1" d="M155.2,117.5v6.7h-1.4v-0.8h-3.6v4.5h-1.4v-4.5h-3.6v0.8h-1.3v-6.8h4.9V115h1.4v2.4h5V117.5z M148.8,122.2
						v-3.4h-3.6v3.4H148.8z M153.8,122.2v-3.4h-3.6v3.4H153.8z"/>
					<path class="st1" d="M169.4,115.7V128h-1.3v-0.6h-9.2v0.6h-1.2v-12.3H169.4z M168.1,126.2v-9.3h-9.2v9.3H168.1z M167,120.2
						c-0.3,1.3-0.9,2.4-1.5,3.3c0.2,0.6,0.5,1,0.9,1c0.2,0.1,0.3-0.5,0.4-1.4c0.2,0.2,0.6,0.5,0.8,0.6c-0.2,1.6-0.8,2.1-1.6,1.8
						c-0.5-0.1-0.9-0.5-1.3-1.2c-0.5,0.5-1.1,1-1.7,1.4c-0.1-0.2-0.5-0.6-0.7-0.8c0.4-0.2,0.7-0.5,1.1-0.8c-1.4,0.2-2.8,0.5-3.9,0.7
						l-0.1-1c1-0.1,2.5-0.4,4.1-0.6v0.9c0.3-0.3,0.6-0.6,0.8-0.9c-0.3-1.1-0.5-2.4-0.7-3.9h-4.1v-1h4c0-0.4-0.1-0.9-0.1-1.3h1.1
						c0,0.4,0,0.9,0.1,1.3h2c-0.3-0.3-0.9-0.7-1.4-1l0.6-0.6c0.5,0.2,1.1,0.6,1.4,0.9l-0.6,0.6h0.9v1h-2.8c0.1,1,0.2,2,0.4,2.7
						c0.4-0.7,0.7-1.4,0.9-2.2L167,120.2z M163.1,120.2v2.7H160v-2.7H163.1z M162.2,120.9h-1.3v1.2h1.3V120.9z"/>
				</g>
				<g>
					<path class="st1" d="M147,142.4v-6.7l-1.6,0.9l-0.9-1.7l2.6-1.5h1.8v9H147z"/>
					<path class="st1" d="M150.7,139.4c0-0.3,0.1-0.6,0.2-0.9c0.2-0.3,0.5-0.5,0.9-0.8c-0.4-0.2-0.6-0.5-0.7-0.7
						c-0.1-0.2-0.2-0.5-0.2-0.8v-0.8c0-0.4,0-0.7,0.1-0.9c0.1-0.3,0.3-0.5,0.5-0.7s0.5-0.3,0.9-0.4c0.4-0.1,0.8-0.1,1.3-0.1
						s1,0,1.3,0.1c0.4,0.1,0.6,0.2,0.9,0.4c0.2,0.2,0.4,0.4,0.5,0.7s0.1,0.6,0.1,0.9v0.8c0,0.3-0.1,0.6-0.2,0.9
						c-0.1,0.2-0.4,0.5-0.7,0.7c0.5,0.2,0.8,0.5,0.9,0.7c0.2,0.3,0.2,0.6,0.2,0.9v0.7c0,0.4-0.1,0.8-0.2,1.1s-0.3,0.5-0.5,0.7
						s-0.6,0.3-0.9,0.4c-0.4,0.1-0.9,0.1-1.4,0.1c-0.6,0-1,0-1.4-0.1s-0.7-0.2-0.9-0.4s-0.4-0.4-0.5-0.7s-0.2-0.7-0.2-1.1
						L150.7,139.4L150.7,139.4z M152.6,140.1c0,0.3,0.1,0.5,0.2,0.6c0.2,0.1,0.4,0.2,0.9,0.2s0.7-0.1,0.9-0.2
						c0.2-0.1,0.2-0.3,0.2-0.6v-0.5c0-0.1,0-0.2,0-0.3s-0.1-0.2-0.1-0.2s-0.2-0.2-0.3-0.2c-0.2-0.1-0.4-0.2-0.6-0.3
						c-0.3,0.1-0.5,0.2-0.6,0.3s-0.2,0.2-0.3,0.2c-0.1,0.1-0.1,0.2-0.1,0.2c0,0.1,0,0.2,0,0.3v0.5H152.6z M152.8,136.2
						c0,0.1,0,0.2,0,0.3s0.1,0.1,0.1,0.2s0.2,0.1,0.3,0.2c0.1,0.1,0.3,0.1,0.5,0.2c0.2-0.1,0.4-0.1,0.5-0.2c0.1-0.1,0.2-0.1,0.3-0.2
						s0.1-0.1,0.1-0.2c0-0.1,0-0.2,0-0.3v-0.7c0-0.2-0.1-0.4-0.2-0.5c-0.1-0.1-0.3-0.2-0.7-0.2s-0.6,0.1-0.7,0.2s-0.2,0.3-0.2,0.5
						L152.8,136.2L152.8,136.2z"/>
					<path class="st1" d="M162.4,136c0,0.3,0,0.6-0.1,0.8s-0.2,0.5-0.4,0.6c-0.2,0.2-0.4,0.3-0.7,0.4s-0.7,0.2-1.1,0.2
						s-0.8-0.1-1.1-0.2c-0.3-0.1-0.5-0.2-0.7-0.4s-0.3-0.4-0.4-0.6c-0.1-0.2-0.1-0.5-0.1-0.8v-1c0-0.3,0-0.6,0.1-0.8
						s0.2-0.5,0.4-0.6s0.4-0.3,0.7-0.4c0.3-0.1,0.7-0.2,1.1-0.2s0.8,0.1,1.1,0.2s0.5,0.2,0.7,0.4s0.3,0.4,0.4,0.6
						c0.1,0.2,0.1,0.5,0.1,0.8V136z M160.9,134.8c0-0.2,0-0.4-0.1-0.4c-0.1-0.1-0.3-0.1-0.5-0.1c-0.3,0-0.4,0-0.5,0.1
						s-0.2,0.2-0.2,0.4v1.3c0,0.2,0.1,0.4,0.2,0.4c0.1,0.1,0.3,0.1,0.5,0.1c0.3,0,0.4,0,0.5-0.1s0.1-0.2,0.1-0.4V134.8z
						 M164.7,132.9l1.2,0.5l-3.8,9.1L161,142L164.7,132.9z M169.1,140.5c0,0.3,0,0.6-0.1,0.8s-0.2,0.5-0.4,0.6
						c-0.2,0.2-0.4,0.3-0.7,0.4s-0.7,0.2-1.1,0.2c-0.4,0-0.8-0.1-1.1-0.2c-0.3-0.1-0.5-0.2-0.7-0.4s-0.3-0.4-0.4-0.6
						c-0.1-0.2-0.1-0.5-0.1-0.8v-1c0-0.3,0-0.6,0.1-0.8s0.2-0.5,0.4-0.6c0.2-0.2,0.4-0.3,0.7-0.4c0.3-0.1,0.7-0.2,1.1-0.2
						c0.4,0,0.8,0.1,1.1,0.2s0.5,0.2,0.7,0.4s0.3,0.4,0.4,0.6s0.1,0.5,0.1,0.8V140.5z M167.5,139.3c0-0.2,0-0.4-0.1-0.4
						c-0.1-0.1-0.3-0.1-0.5-0.1c-0.3,0-0.4,0-0.5,0.1s-0.2,0.2-0.2,0.4v1.3c0,0.2,0.1,0.4,0.2,0.4c0.1,0.1,0.3,0.1,0.5,0.1
						c0.3,0,0.4,0,0.5-0.1s0.1-0.2,0.1-0.4V139.3z"/>
				</g>
				<g>
					<path class="st1" d="M75.4,149.5c0,0.3,0,0.6,0,0.9c0.4,2.7,1.2,4.4,2.7,5.8c-0.3,0.2-0.7,0.6-0.8,1c-1.1-1.1-1.8-2.3-2.3-3.9
						c-0.4,1.4-1.1,2.7-2.3,3.9c-0.1-0.3-0.4-0.6-0.7-0.8c-0.3,0-0.8,0.1-1.3,0.1h-2.9c-1.6,0-2.2-0.6-2.2-2.3v-8h-0.4v-1.1H72v1.1
						h-5.2v8.1c0,0.9,0.2,1.1,1,1.1h3c0.4,0,1,0,1.3-0.1c0,0.2,0,0.4,0.1,0.6c1.8-2.1,2-4.7,2-6.4v-1h1.2
						C75.4,148.5,75.4,149.5,75.4,149.5z M67.3,151h2.1v3.5h-2.1V151z M71.3,150.2h-3.6V147h3.6V150.2z M68,153.8h0.8v-1.9H68V153.8
						z M70.3,147.9h-1.6v1.6h1.6V147.9z M72,154.6h-2.2v-3.5H72V154.6z M71.3,151.9h-0.8v1.9h0.8V151.9z M73.9,147.8
						c-0.3,1.1-0.7,2-1.2,2.7c-0.2-0.2-0.8-0.5-1.1-0.7c0.9-1.3,1.5-3.3,1.8-5.4l1.2,0.2c-0.1,0.7-0.2,1.3-0.4,1.9h3h0.2l0.8,0.3
						c-0.3,1.3-0.7,2.8-1,3.8l-1-0.3c0.2-0.6,0.4-1.6,0.6-2.5H73.9z"/>
					<path class="st1" d="M92,155.8v1.1H79.3v-1.1h1.6v-3.3h9.6v3.3H92z M81.2,151.4H80v-6.3h4.6v5.6h-3.4V151.4z M81.2,146.1v1.3
						h2.2v-1.3H81.2z M83.4,149.7v-1.3h-2.2v1.3H83.4z M82.1,155.8h1.6v-2.2h-1.6V155.8z M86.8,149.9c-0.2,0.9-0.7,1.8-1.6,2.5
						c-0.2-0.3-0.6-0.7-0.9-0.9c1.4-1,1.5-2.5,1.5-3.8v-2.8h5.4v6c0,0.6-0.1,0.9-0.6,1.1c-0.4,0.2-1.1,0.2-2,0.2
						c-0.1-0.3-0.3-0.8-0.5-1.1c0.7,0,1.3,0,1.5,0s0.3-0.1,0.3-0.2v-1H86.8z M84.9,153.5v2.2h1.6v-2.2H84.9z M89.9,148.9v-1.1H87
						c0,0.3,0,0.7-0.1,1.1H89.9z M87,145.9v1h2.9v-1H87z M87.6,153.5v2.2h1.6v-2.2H87.6z"/>
				</g>
				<g>
					<path class="st1" d="M69.1,171.8v-6.7l-1.6,0.9l-0.9-1.7l2.6-1.5H71v9H69.1z"/>
					<path class="st1" d="M75.4,171.8h-2.1l3-7.3h-3.7v-1.8h5.8v1.7L75.4,171.8z"/>
					<path class="st1" d="M83.6,165.4c0,0.3,0,0.6-0.1,0.8s-0.2,0.5-0.4,0.6c-0.2,0.2-0.4,0.3-0.7,0.4c-0.3,0.1-0.7,0.2-1.1,0.2
						s-0.8-0.1-1.1-0.2c-0.3-0.1-0.5-0.2-0.7-0.4s-0.3-0.4-0.4-0.6c-0.1-0.2-0.1-0.5-0.1-0.8v-1c0-0.3,0-0.6,0.1-0.8
						s0.2-0.5,0.4-0.6c0.2-0.2,0.4-0.3,0.7-0.4c0.3-0.1,0.7-0.2,1.1-0.2s0.8,0.1,1.1,0.2c0.3,0.1,0.5,0.2,0.7,0.4s0.3,0.4,0.4,0.6
						s0.1,0.5,0.1,0.8V165.4z M82.1,164.2c0-0.2,0-0.4-0.1-0.4c-0.1-0.1-0.3-0.1-0.5-0.1c-0.3,0-0.4,0-0.5,0.1s-0.2,0.2-0.2,0.4v1.3
						c0,0.2,0.1,0.4,0.2,0.4c0.1,0.1,0.3,0.1,0.5,0.1c0.3,0,0.4,0,0.5-0.1s0.1-0.2,0.1-0.4V164.2z M85.9,162.3l1.2,0.5l-3.8,9.1
						l-1.2-0.5L85.9,162.3z M90.3,169.9c0,0.3,0,0.6-0.1,0.8s-0.2,0.5-0.4,0.6c-0.2,0.2-0.4,0.3-0.7,0.4s-0.7,0.2-1.1,0.2
						s-0.8-0.1-1.1-0.2c-0.3-0.1-0.5-0.2-0.7-0.4s-0.3-0.4-0.4-0.6c-0.1-0.2-0.1-0.5-0.1-0.8v-1c0-0.3,0-0.6,0.1-0.8
						s0.2-0.5,0.4-0.6c0.2-0.2,0.4-0.3,0.7-0.4c0.3-0.1,0.7-0.2,1.1-0.2s0.8,0.1,1.1,0.2c0.3,0.1,0.5,0.2,0.7,0.4s0.3,0.4,0.4,0.6
						c0.1,0.2,0.1,0.5,0.1,0.8V169.9z M88.7,168.7c0-0.2,0-0.4-0.1-0.4c-0.1-0.1-0.3-0.1-0.5-0.1c-0.3,0-0.4,0-0.5,0.1
						s-0.2,0.2-0.2,0.4v1.3c0,0.2,0.1,0.4,0.2,0.4c0.1,0.1,0.3,0.1,0.5,0.1c0.3,0,0.4,0,0.5-0.1s0.1-0.2,0.1-0.4V168.7z"/>
				</g>
				<g>
					<path class="st1" d="M18.2,76.7v1.9h-2v-1.9h-4.1v-1.8l3.5-5.4h2.6V75h1.1v1.6L18.2,76.7L18.2,76.7z M16.2,71.5L14.1,75h2.1
						V71.5z"/>
					<path class="st1" d="M22,78.6v-6.7l-1.6,0.9l-0.9-1.7l2.6-1.5H24v9C24,78.6,22,78.6,22,78.6z"/>
					<path class="st1" d="M29.9,72.2c0,0.3,0,0.6-0.1,0.8s-0.2,0.5-0.4,0.6c-0.2,0.2-0.4,0.3-0.7,0.4s-0.7,0.2-1.1,0.2
						s-0.8-0.1-1.1-0.2c-0.3-0.1-0.5-0.2-0.7-0.4c-0.2-0.2-0.3-0.4-0.4-0.6s-0.1-0.5-0.1-0.8v-1c0-0.3,0-0.6,0.1-0.8
						c0.1-0.2,0.2-0.5,0.4-0.6s0.4-0.3,0.7-0.4c0.3-0.1,0.7-0.2,1.1-0.2s0.8,0.1,1.1,0.2s0.5,0.2,0.7,0.4c0.2,0.2,0.3,0.4,0.4,0.6
						s0.1,0.5,0.1,0.8V72.2z M28.4,71c0-0.2,0-0.4-0.1-0.4c-0.1-0.1-0.3-0.1-0.5-0.1c-0.3,0-0.4,0-0.5,0.1C27,70.7,27,70.8,27,71
						v1.3c0,0.2,0.1,0.4,0.2,0.4c0.1,0.1,0.3,0.1,0.5,0.1c0.3,0,0.4,0,0.5-0.1s0.1-0.2,0.1-0.4L28.4,71L28.4,71z M32.2,69.1l1.2,0.5
						l-3.8,9.1l-1.2-0.5L32.2,69.1z M36.6,76.7c0,0.3,0,0.6-0.1,0.8c-0.1,0.2-0.2,0.5-0.4,0.6c-0.2,0.2-0.4,0.3-0.7,0.4
						s-0.7,0.2-1.1,0.2c-0.4,0-0.8-0.1-1.1-0.2s-0.5-0.2-0.7-0.4c-0.2-0.2-0.3-0.4-0.4-0.6C32,77.3,32,77,32,76.7v-1
						c0-0.3,0-0.6,0.1-0.8c0.1-0.2,0.2-0.5,0.4-0.6c0.2-0.2,0.4-0.3,0.7-0.4s0.7-0.2,1.1-0.2c0.4,0,0.8,0.1,1.1,0.2s0.5,0.2,0.7,0.4
						c0.2,0.2,0.3,0.4,0.4,0.6s0.1,0.5,0.1,0.8V76.7z M35,75.5c0-0.2,0-0.4-0.1-0.4C34.8,75,34.6,75,34.4,75c-0.3,0-0.4,0-0.5,0.1
						s-0.2,0.2-0.2,0.4v1.3c0,0.2,0.1,0.4,0.2,0.4c0.1,0.1,0.3,0.1,0.5,0.1c0.3,0,0.4,0,0.5-0.1c0.1,0,0.1-0.2,0.1-0.4V75.5z"/>
				</g>
				<path class="st3" d="M148.2,80.2c-1.8-27.1-24.1-48.5-51.5-49v51.6L148.2,80.2z"/>
			</g>
		</g>
		<rect class="st4" width="180" height="179.1"/>
	</g>
	<path class="st5" d="M141.3,50.6c6.8,9.3,10.8,20.8,10.8,33.2c0,31.1-25.2,56.3-56.3,56.3s-56.3-25.2-56.3-56.3
		s25.2-56.3,56.3-56.3c8.5,0,16.6,1.9,23.8,5.3"/>
</g>
</svg>
