<?xml version="1.0" encoding="utf-8"?>
<!-- Generator: Adobe Illustrator 26.2.1, SVG Export Plug-In . SVG Version: 6.00 Build 0)  -->
<svg version="1.1" id="圖層_1" xmlns="http://www.w3.org/2000/svg" xmlns:xlink="http://www.w3.org/1999/xlink" x="0px" y="0px"
	 viewBox="0 0 180 180" style="enable-background:new 0 0 180 180;" xml:space="preserve">
<style type="text/css">
	.st0{fill:#E1E1E1;}
	.st1{opacity:0.6;fill:#1CD8C0;enable-background:new    ;}
	.st2{fill:#1E9BD7;}
	.st3{fill:#8C8C8C;}
	.st4{fill:none;}
	.st5{fill:none;stroke:#1CD8C0;stroke-width:1.6;stroke-linecap:round;stroke-linejoin:round;stroke-miterlimit:10;}
</style>
<g id="_x32_">
	<g>
		<g>
			<g>
				<g>
					<path class="st0" d="M48.8,102.4c1.2,3.7,2.8,7.1,4.7,10.4l37.8-23.2C81.1,92.7,61.9,98.5,48.8,102.4z"/>
					<path class="st0" d="M96.9,33.6c-28.2,1-50.7,24.1-50.7,52.5c0,5,0.7,9.9,2,14.5C64.7,95.7,90.9,87.8,96.9,86V33.6z"/>
					<path class="st1" d="M98.8,33.6L98.8,33.6v53.1c0,0.1,0,0.1,0,0.2V87c0,0.1-0.1,0.2-0.1,0.3l0,0l0,0l-31.5,40.8
						C76,134.8,87,138.8,99,138.8c29,0,52.6-23.5,52.6-52.6S127.9,33.6,98.8,33.6z"/>
					<path class="st0" d="M54.5,114.4c3,4.8,6.8,9,11.2,12.5l28.4-36.8L54.5,114.4z"/>
				</g>
			</g>
			<g>
				<path class="st2" d="M138,19.2c0,0.3-0.1,0.6-0.1,0.9h5.6v1.1h-5.9c-0.7,1.8-2.1,3-5.8,3.6c-0.1-0.4-0.4-0.9-0.7-1.2
					c3.1-0.4,4.4-1.2,5-2.4h-4.5v-1.1h4.9c0.1-0.3,0.1-0.6,0.2-0.9h-5.3v-1.1h5.5v-1h-4.2V16h4.2v-1h-5v-1.1h2.8
					c-0.2-0.5-0.6-1-0.9-1.5l1.1-0.4c0.5,0.5,1,1.2,1.1,1.7l-0.5,0.2h3.4c0.4-0.6,0.9-1.3,1.1-1.9l1.4,0.4c-0.3,0.5-0.7,1.1-1,1.5
					h2.9V15h-5.1v1h4.4v1.1h-4.4v1h5.6v1.1H138z M143.2,24.9c-1.2-0.8-3.8-2-5.6-2.7l0.6-1c1.8,0.7,4.4,1.8,5.7,2.5L143.2,24.9z"/>
				<path class="st2" d="M157.4,12.6v12.3h-1.3v-0.6h-9.2v0.6h-1.2V12.6H157.4z M156.1,23.1v-9.3h-9.2v9.3H156.1z M155,17.1
					c-0.3,1.3-0.9,2.4-1.5,3.3c0.2,0.6,0.5,1,0.9,1.1c0.2,0.1,0.3-0.5,0.4-1.4c0.2,0.2,0.6,0.5,0.8,0.6c-0.2,1.6-0.8,2.1-1.6,1.8
					c-0.5-0.1-0.9-0.5-1.3-1.2c-0.5,0.5-1.1,1-1.7,1.4c-0.1-0.2-0.5-0.6-0.7-0.8c0.4-0.2,0.7-0.5,1.1-0.8c-1.4,0.2-2.8,0.5-3.9,0.7
					l-0.1-1c1-0.1,2.5-0.4,4.1-0.6v0.9c0.3-0.3,0.6-0.6,0.8-0.9c-0.3-1.1-0.5-2.4-0.7-3.9h-4.1v-1h4c0-0.4-0.1-0.9-0.1-1.3h1.1
					c0,0.4,0,0.9,0.1,1.3h2c-0.3-0.3-0.9-0.7-1.4-1l0.6-0.6c0.5,0.2,1.1,0.6,1.4,0.9l-0.6,0.6h0.9v1h-2.8c0.1,1,0.2,2,0.4,2.7
					c0.4-0.7,0.7-1.4,0.9-2.2L155,17.1z M151.1,17.2v2.7H148v-2.7H151.1z M150.2,17.9h-1.3v1.2h1.3V17.9z"/>
			</g>
			<g>
				<path class="st2" d="M136.2,41.5c-0.6,0-1.1-0.1-1.5-0.2s-0.7-0.3-0.9-0.6c-0.2-0.2-0.4-0.5-0.4-0.9c-0.1-0.3-0.1-0.7-0.1-1
					v-3.4c0-0.6,0.1-1.2,0.3-1.6c0.2-0.4,0.5-0.7,0.9-1c0.4-0.2,0.8-0.4,1.4-0.5c0.5-0.1,1.1-0.1,1.8-0.1c0.2,0,0.4,0,0.7,0
					c0.2,0,0.5,0,0.7,0.1L139,34c-0.1,0-0.3,0-0.5,0s-0.3,0-0.4,0c-0.5,0-0.9,0-1.2,0.1s-0.6,0.1-0.8,0.2c-0.2,0.1-0.4,0.3-0.4,0.5
					s-0.1,0.4-0.1,0.7V36c0.3-0.1,0.5-0.1,0.7-0.2c0.2,0,0.5,0,0.8,0c0.8,0,1.4,0.2,1.8,0.5c0.4,0.4,0.6,1,0.6,1.8v0.6
					c0,0.4,0,0.7-0.1,1s-0.2,0.6-0.5,0.9c-0.2,0.3-0.5,0.5-0.9,0.6S136.8,41.5,136.2,41.5z M136.2,39.8c0.4,0,0.6-0.1,0.7-0.2
					c0.1-0.1,0.2-0.4,0.2-0.7v-0.6c0-0.3-0.1-0.5-0.2-0.6c-0.1-0.1-0.3-0.1-0.5-0.1s-0.5,0-0.7,0.1c-0.2,0-0.4,0.1-0.6,0.2V39
					c0,0.3,0.1,0.6,0.2,0.7S135.8,39.8,136.2,39.8z"/>
				<path class="st2" d="M142.2,41.4v-6.7l-1.6,0.9l-0.9-1.7l2.6-1.5h1.8v9H142.2z"/>
				<path class="st2" d="M150.2,35c0,0.3,0,0.6-0.1,0.8s-0.2,0.5-0.4,0.6c-0.2,0.2-0.4,0.3-0.7,0.4s-0.6,0.2-1,0.2s-0.8-0.1-1.1-0.2
					c-0.3-0.1-0.5-0.2-0.7-0.4s-0.3-0.4-0.4-0.6c-0.1-0.2-0.1-0.5-0.1-0.8v-1c0-0.3,0-0.6,0.1-0.8s0.2-0.5,0.4-0.6s0.4-0.3,0.7-0.4
					c0.3-0.1,0.7-0.2,1.1-0.2s0.8,0.1,1.1,0.2s0.5,0.2,0.7,0.4s0.3,0.4,0.4,0.6c0.1,0.2,0.1,0.5,0.1,0.8v1H150.2z M148.6,33.8
					c0-0.2,0-0.4-0.1-0.4c-0.1-0.1-0.3-0.1-0.5-0.1c-0.3,0-0.4,0-0.5,0.1s-0.2,0.2-0.2,0.4v1.3c0,0.2,0.1,0.4,0.2,0.4
					c0.1,0.1,0.3,0.1,0.5,0.1c0.3,0,0.4,0,0.5-0.1s0.1-0.2,0.1-0.4V33.8z M152.5,31.9l1.2,0.5l-3.8,9.1l-1.2-0.5L152.5,31.9z
					 M156.9,39.5c0,0.3,0,0.6-0.1,0.8s-0.2,0.5-0.4,0.6c-0.2,0.2-0.4,0.3-0.7,0.4s-0.7,0.2-1.1,0.2c-0.4,0-0.8-0.1-1.1-0.2
					c-0.3-0.1-0.5-0.2-0.7-0.4s-0.3-0.4-0.4-0.6c-0.1-0.2-0.1-0.5-0.1-0.8v-1c0-0.3,0-0.6,0.1-0.8s0.2-0.5,0.4-0.6
					c0.2-0.2,0.4-0.3,0.7-0.4c0.3-0.1,0.7-0.2,1.1-0.2c0.4,0,0.8,0.1,1.1,0.2s0.5,0.2,0.7,0.4s0.3,0.4,0.4,0.6s0.1,0.5,0.1,0.8V39.5
					z M155.3,38.3c0-0.2,0-0.4-0.1-0.4c-0.1-0.1-0.3-0.1-0.5-0.1c-0.3,0-0.4,0-0.5,0.1s-0.2,0.2-0.2,0.4v1.3c0,0.2,0.1,0.4,0.2,0.4
					c0.1,0.1,0.3,0.1,0.5,0.1c0.3,0,0.4,0,0.5-0.1s0.1-0.2,0.1-0.4V38.3z"/>
			</g>
			<g>
				<path class="st3" d="M26.5,103.7v6.7h-1.4v-0.8h-3.6v4.5h-1.4v-4.5h-3.6v0.8h-1.3v-6.8h4.9v-2.4h1.4v2.4h5V103.7z M20.1,108.4
					V105h-3.6v3.4H20.1z M25.1,108.4V105h-3.6v3.4H25.1z"/>
				<path class="st3" d="M40.7,101.9v12.3h-1.3v-0.6h-9.2v0.6H29v-12.3H40.7z M39.4,112.4v-9.3h-9.2v9.3H39.4z M38.3,106.4
					c-0.3,1.3-0.9,2.4-1.5,3.3c0.2,0.6,0.5,1,0.9,1c0.2,0.1,0.3-0.5,0.4-1.4c0.2,0.2,0.6,0.5,0.8,0.6c-0.2,1.6-0.8,2.1-1.6,1.8
					c-0.5-0.1-0.9-0.5-1.3-1.2c-0.5,0.5-1.1,1-1.7,1.4c-0.1-0.2-0.5-0.6-0.7-0.8c0.4-0.2,0.7-0.5,1.1-0.8c-1.4,0.2-2.8,0.5-3.9,0.7
					l-0.1-1c1-0.1,2.5-0.4,4.1-0.6v0.9c0.3-0.3,0.6-0.6,0.8-0.9c-0.3-1.1-0.5-2.4-0.7-3.9h-4.1v-1h4c0-0.4-0.1-0.9-0.1-1.3h1.1
					c0,0.4,0,0.9,0.1,1.3h2c-0.3-0.3-0.9-0.7-1.4-1l0.6-0.6c0.5,0.2,1.1,0.6,1.4,0.9l-0.6,0.6h0.9v1H36c0.1,1,0.2,2,0.4,2.7
					c0.4-0.7,0.7-1.4,0.9-2.2L38.3,106.4z M34.4,106.4v2.7h-3.1v-2.7H34.4z M33.5,107.2h-1.3v1.2h1.3V107.2z"/>
			</g>
			<g>
				<path class="st3" d="M24.6,125.7v1.9h-2v-1.9h-4.1V124l3.5-5.4h2.6v5.5h1.1v1.6H24.6z M22.6,120.6l-2.1,3.5h2.1V120.6z"/>
				<path class="st3" d="M31.1,121.2c0,0.3,0,0.6-0.1,0.8s-0.2,0.5-0.4,0.6c-0.2,0.2-0.4,0.3-0.7,0.4s-0.7,0.2-1.1,0.2
					s-0.8-0.1-1.1-0.2c-0.3-0.1-0.5-0.2-0.7-0.4c-0.2-0.2-0.3-0.4-0.4-0.6s-0.1-0.5-0.1-0.8v-1c0-0.3,0-0.6,0.1-0.8
					c0.1-0.2,0.2-0.5,0.4-0.6s0.4-0.3,0.7-0.4c0.3-0.1,0.7-0.2,1.1-0.2s0.8,0.1,1.1,0.2s0.5,0.2,0.7,0.4c0.2,0.2,0.3,0.4,0.4,0.6
					s0.1,0.5,0.1,0.8V121.2z M29.6,120.1c0-0.2,0-0.4-0.1-0.4c-0.1-0.1-0.3-0.1-0.5-0.1c-0.3,0-0.4,0-0.5,0.1s-0.2,0.2-0.2,0.4v1.3
					c0,0.2,0.1,0.4,0.2,0.4c0.1,0.1,0.3,0.1,0.5,0.1c0.3,0,0.4,0,0.5-0.1s0.1-0.2,0.1-0.4V120.1z M33.4,118.2l1.2,0.5l-3.8,9.1
					l-1.2-0.5L33.4,118.2z M37.8,125.7c0,0.3,0,0.6-0.1,0.8c-0.1,0.2-0.2,0.5-0.4,0.6c-0.2,0.2-0.4,0.3-0.7,0.4s-0.7,0.2-1.1,0.2
					c-0.4,0-0.8-0.1-1.1-0.2s-0.5-0.2-0.7-0.4c-0.2-0.2-0.3-0.4-0.4-0.6c-0.1-0.2-0.1-0.5-0.1-0.8v-1c0-0.3,0-0.6,0.1-0.8
					c0.1-0.2,0.2-0.5,0.4-0.6c0.2-0.2,0.4-0.3,0.7-0.4s0.7-0.2,1.1-0.2c0.4,0,0.8,0.1,1.1,0.2s0.5,0.2,0.7,0.4
					c0.2,0.2,0.3,0.4,0.4,0.6s0.1,0.5,0.1,0.8V125.7z M36.2,124.6c0-0.2,0-0.4-0.1-0.4c-0.1-0.1-0.3-0.1-0.5-0.1
					c-0.3,0-0.4,0-0.5,0.1s-0.2,0.2-0.2,0.4v1.3c0,0.2,0.1,0.4,0.2,0.4c0.1,0.1,0.3,0.1,0.5,0.1c0.3,0,0.4,0,0.5-0.1
					s0.1-0.2,0.1-0.4V124.6z"/>
			</g>
			<g>
				<path class="st3" d="M49.2,136.6v11.8h-1.4v-0.9h-6.6v0.9h-1.3v-11.8H49.2z M41.2,137.9v3.4h6.6v-3.4H41.2z M47.8,146.1v-3.6
					h-6.6v3.6H47.8z"/>
				<path class="st3" d="M60.6,139.8c1,2.2,2.6,4.3,4.4,5.4c-0.3,0.3-0.8,0.8-1,1.1c-0.6-0.4-1.2-0.9-1.7-1.5v1.2h-3.1v2.5h-1.4V146
					h-3.1v-1.2c-0.6,0.6-1.1,1.1-1.7,1.6c-0.2-0.3-0.6-0.8-1-1.1c1.8-1.1,3.3-3.2,4.3-5.5h-3.9v-1.3h5.4v-2.8h1.4v2.8h5.4v1.3H60.6z
					 M57.8,144.7v-4.9h-0.2c-0.7,1.8-1.7,3.6-2.9,4.9H57.8z M62.2,144.7c-1.2-1.3-2.2-3.1-2.8-4.9h-0.2v4.9H62.2z"/>
			</g>
			<g>
				<path class="st3" d="M46.6,164.1c-0.6,0-1.1-0.1-1.5-0.2s-0.7-0.3-0.9-0.6c-0.2-0.2-0.4-0.5-0.4-0.9c-0.1-0.3-0.1-0.7-0.1-1V158
					c0-0.6,0.1-1.2,0.3-1.6c0.2-0.4,0.5-0.7,0.9-1c0.4-0.2,0.8-0.4,1.4-0.5s1.1-0.1,1.8-0.1c0.2,0,0.4,0,0.7,0c0.2,0,0.5,0,0.7,0.1
					l-0.1,1.7c-0.1,0-0.3,0-0.5,0s-0.3,0-0.4,0c-0.5,0-0.9,0-1.2,0.1s-0.6,0.1-0.8,0.2c-0.2,0.1-0.4,0.3-0.4,0.5s-0.1,0.4-0.1,0.7
					v0.7c0.3-0.1,0.5-0.1,0.7-0.2c0.2,0,0.5,0,0.8,0c0.8,0,1.4,0.2,1.8,0.5c0.4,0.4,0.6,1,0.6,1.8v0.6c0,0.4,0,0.7-0.1,1
					s-0.2,0.6-0.5,0.9c-0.2,0.3-0.5,0.5-0.9,0.6S47.2,164.1,46.6,164.1z M46.6,162.4c0.4,0,0.6-0.1,0.7-0.2c0.1-0.1,0.2-0.4,0.2-0.7
					v-0.6c0-0.3-0.1-0.5-0.2-0.6c-0.1-0.1-0.3-0.1-0.5-0.1s-0.5,0-0.7,0.1c-0.2,0-0.4,0.1-0.6,0.2v1.1c0,0.3,0.1,0.6,0.2,0.7
					S46.3,162.4,46.6,162.4z"/>
				<path class="st3" d="M55.2,157.6c0,0.3,0,0.6-0.1,0.8s-0.2,0.5-0.4,0.6c-0.2,0.2-0.4,0.3-0.7,0.4c-0.3,0.1-0.7,0.2-1.1,0.2
					s-0.8-0.1-1.1-0.2c-0.3-0.1-0.5-0.2-0.7-0.4s-0.3-0.4-0.4-0.6c-0.1-0.2-0.1-0.5-0.1-0.8v-1c0-0.3,0-0.6,0.1-0.8s0.2-0.5,0.4-0.6
					c0.2-0.2,0.4-0.3,0.7-0.4c0.3-0.1,0.7-0.2,1.1-0.2s0.8,0.1,1.1,0.2c0.3,0.1,0.5,0.2,0.7,0.4s0.3,0.4,0.4,0.6s0.1,0.5,0.1,0.8
					V157.6z M53.7,156.4c0-0.2,0-0.4-0.1-0.4c-0.1-0.1-0.3-0.1-0.5-0.1c-0.3,0-0.4,0-0.5,0.1s-0.2,0.2-0.2,0.4v1.3
					c0,0.2,0.1,0.4,0.2,0.4c0.1,0.1,0.3,0.1,0.5,0.1c0.3,0,0.4,0,0.5-0.1s0.1-0.2,0.1-0.4V156.4z M57.5,154.5l1.2,0.5l-3.8,9.1
					l-1.2-0.5L57.5,154.5z M61.9,162.1c0,0.3,0,0.6-0.1,0.8s-0.2,0.5-0.4,0.6c-0.2,0.2-0.4,0.3-0.7,0.4s-0.7,0.2-1.1,0.2
					c-0.4,0-0.8-0.1-1.1-0.2c-0.3-0.1-0.5-0.2-0.7-0.4s-0.3-0.4-0.4-0.6c-0.1-0.2-0.1-0.5-0.1-0.8v-1c0-0.3,0-0.6,0.1-0.8
					s0.2-0.5,0.4-0.6c0.2-0.2,0.4-0.3,0.7-0.4c0.3-0.1,0.7-0.2,1.1-0.2c0.4,0,0.8,0.1,1.1,0.2c0.3,0.1,0.5,0.2,0.7,0.4
					s0.3,0.4,0.4,0.6c0.1,0.2,0.1,0.5,0.1,0.8V162.1z M60.3,161c0-0.2,0-0.4-0.1-0.4c-0.1-0.1-0.3-0.1-0.5-0.1c-0.3,0-0.4,0-0.5,0.1
					S59,160.8,59,161v1.3c0,0.2,0.1,0.4,0.2,0.4c0.1,0.1,0.3,0.1,0.5,0.1c0.3,0,0.4,0,0.5-0.1s0.1-0.2,0.1-0.4V161z"/>
			</g>
			<g>
				<path class="st3" d="M28.9,30.4c-1.2,0.8-3.1,1.5-4.6,2c-0.2-0.3-0.6-0.7-0.9-1c1.5-0.4,3.4-1.2,4.3-1.9L28.9,30.4z M36,29.4
					H23.6v-1.2H26v-6h-2V21h2v-1.5h1.3V21h4.8v-1.5h1.3V21h2.1v1.2h-2.1v6H36V29.4z M27.3,22.3v1.2h4.8v-1.2H27.3z M27.3,25.8h4.8
					v-1.3h-4.8V25.8z M27.3,28.2h4.8v-1.3h-4.8V28.2z M31.6,29.7c1.6,0.5,3.4,1.3,4.4,1.9l-1.2,0.9c-1-0.6-2.6-1.3-4.2-1.9
					L31.6,29.7z"/>
				<path class="st3" d="M41.6,20c-0.4,1-0.9,2.1-1.4,3v9.4H39v-7.5c-0.4,0.5-0.8,1-1.2,1.4c-0.1-0.3-0.5-1-0.7-1.3
					c1.3-1.3,2.6-3.3,3.3-5.4L41.6,20z M48,31.1c0.8,0,1-0.4,1.1-2c0.3,0.2,0.8,0.4,1.2,0.5c-0.2,2-0.6,2.6-2.2,2.6h-3.4
					c-1.8,0-2.3-0.4-2.3-2.2v-4.3l-1.2,0.5l-0.5-1.1l1.8-0.7V21h1.2v3l1.8-0.7v-3.7h1.2v3.3l2.1-0.8L49,22l1,0.3v0.2
					c-0.1,2-0.2,4.6-0.5,6.3l-1.1-0.3c0.2-1.2,0.2-3.2,0.3-5l-1.9,0.8v5h-1.2v-4.6l-1.8,0.7v4.8c0,0.8,0.2,1,1.1,1H48V31.1z"/>
			</g>
			<g>
				<path class="st3" d="M26.2,46.3h2.9v1.8h-5.7v-1.7c1-1,1.2-1.2,2-2.2c1.4-1.6,1.5-1.7,1.5-2.6v-0.3c0-0.5-0.3-0.7-1.1-0.7
					c-0.7,0-1.7,0.1-2.3,0.3l-0.3-1.7c0.9-0.2,1.9-0.4,2.7-0.4c2.2,0,3,0.7,3,2.2c0,0,0,0.4,0,0.4c0,1.3,0,1.6-1.3,3.1
					C27,45.4,26.6,45.9,26.2,46.3z"/>
				<path class="st3" d="M36.2,41.6V45c0,2.5-1.7,3.2-4.3,3.2c-0.5,0-1-0.1-1.4-0.1l0.1-1.7c0.3,0,0.6,0.1,1,0.1
					c1.8,0,2.6-0.3,2.6-1.5v-0.7c-0.5,0.2-1,0.2-1.5,0.2c-1.6,0-2.4-0.7-2.4-2.4v-0.6c0-1.4,0.5-2.7,3-2.7S36.2,40.1,36.2,41.6z
					 M32.3,41.5v0.6c0,0.6,0.3,0.7,0.7,0.7c0.5,0,0.9-0.1,1.2-0.3v-1.1c0-0.6-0.2-0.9-0.9-0.9C32.6,40.6,32.3,40.9,32.3,41.5z"/>
				<path class="st3" d="M39.7,43.7c-1.8,0-2.3-0.9-2.3-2v-1c0-1.2,0.5-2,2.3-2c1.8,0,2.2,0.9,2.2,2v1
					C41.9,42.9,41.5,43.7,39.7,43.7z M39.7,40c-0.5,0-0.7,0.2-0.7,0.6v1.3c0,0.4,0.2,0.6,0.7,0.6c0.5,0,0.7-0.2,0.7-0.6v-1.3
					C40.4,40.1,40.2,40,39.7,40z M44.2,38.6l1.2,0.5l-3.8,9.1l-1.2-0.5L44.2,38.6z M46.4,48.2c-1.8,0-2.3-0.9-2.3-2v-1
					c0-1.2,0.5-2,2.3-2s2.2,0.9,2.2,2v1C48.6,47.4,48.1,48.2,46.4,48.2z M46.4,44.5c-0.5,0-0.7,0.2-0.7,0.6v1.3
					c0,0.4,0.2,0.6,0.7,0.6s0.7-0.2,0.7-0.6V45C47,44.6,46.9,44.5,46.4,44.5z"/>
			</g>
		</g>
		<rect class="st4" width="180" height="179.1"/>
	</g>
	<path class="st5" d="M144.3,52.9c6.8,9.3,10.8,20.8,10.8,33.2c0,31.1-25.2,56.3-56.3,56.3s-56.3-25.2-56.3-56.3
		s25.2-56.3,56.3-56.3c8.5,0,16.6,1.9,23.8,5.3"/>
</g>
</svg>
