<?xml version="1.0" encoding="utf-8"?>
<!-- Generator: Adobe Illustrator 25.3.1, SVG Export Plug-In . SVG Version: 6.00 Build 0)  -->
<svg version="1.1" id="圖層_1" xmlns="http://www.w3.org/2000/svg" xmlns:xlink="http://www.w3.org/1999/xlink" x="0px" y="0px"
	 viewBox="0 0 360 180" style="enable-background:new 0 0 360 180;" xml:space="preserve">
<style type="text/css">
	.st0{fill:#E1E1E1;}
	.st1{opacity:0.6;fill:#1CD8C0;enable-background:new    ;}
	.st2{fill:#1E9BD7;}
	.st3{fill:#8C8C8C;}
	.st4{fill:none;}
	.st5{fill:none;stroke:#1CD8C0;stroke-width:1.235;stroke-linecap:round;stroke-linejoin:round;stroke-miterlimit:10;}
</style>
<g id="_x31_">
</g>
<g id="_x32_">
	<g>
		<g>
			<g>
				<g>
					<path class="st0" d="M179.7,30.6c-16.5,0.6-31,8.7-40.3,21.1L179.7,82V30.6z"/>
					<path class="st0" d="M138.4,53.2c-5.9,8.5-9.4,18.8-9.4,30c0,0.6,0,1.3,0,1.9l49-2.1L138.4,53.2z"/>
					<path class="st1" d="M181.8,83.6l-0.1,0.1l36,37.6c10.1-9.6,16.4-23.1,16.4-38.1c0-29-23.5-52.6-52.6-52.6v52.8L181.8,83.6z"/>
					<path class="st0" d="M129.1,86.9c1.3,18.1,11.7,33.6,26.7,42.1l23.3-44.2L129.1,86.9z"/>
					<path class="st0" d="M157.5,129.9c7.2,3.7,15.4,5.9,24.1,5.9c13.4,0,25.5-5,34.8-13.2l-35.5-37.1L157.5,129.9z"/>
				</g>
			</g>
			<g>
				<path class="st2" d="M221,18.2c0,0.3-0.1,0.6-0.1,0.9h5.6v1.1h-5.9c-0.7,1.8-2.1,3-5.8,3.6c-0.1-0.3-0.4-0.9-0.7-1.2
					c3.1-0.4,4.4-1.2,5-2.4h-4.5v-1.1h4.9c0.1-0.3,0.1-0.6,0.2-0.9h-5.3v-1.1h5.5v-1h-4.2V15h4.2v-1h-5v-1.1h2.8
					c-0.2-0.5-0.6-1-0.9-1.5l1.1-0.4c0.5,0.5,1,1.2,1.1,1.7l-0.5,0.2h3.4c0.4-0.6,0.9-1.3,1.1-1.9l1.4,0.4c-0.3,0.5-0.7,1.1-1,1.5
					h2.9V14h-5.1v1h4.4v1.1h-4.4v1h5.6v1.1H221z M226.1,23.9c-1.2-0.8-3.8-2-5.6-2.7l0.6-1c1.8,0.7,4.4,1.8,5.7,2.5L226.1,23.9z"/>
				<path class="st2" d="M240.3,11.6v12.3H239v-0.6h-9.2v0.6h-1.2V11.6H240.3z M239,22.1v-9.3h-9.2v9.3H239z M238,16.1
					c-0.3,1.3-0.9,2.4-1.5,3.3c0.2,0.6,0.5,1,0.9,1c0.2,0.1,0.3-0.5,0.4-1.4c0.2,0.2,0.6,0.5,0.8,0.6c-0.2,1.6-0.8,2.1-1.6,1.8
					c-0.5-0.1-0.9-0.5-1.3-1.2c-0.5,0.5-1.1,1-1.7,1.4c-0.1-0.2-0.5-0.6-0.7-0.8c0.4-0.2,0.7-0.5,1.1-0.8c-1.4,0.2-2.8,0.5-3.9,0.7
					l-0.1-1c1-0.1,2.5-0.4,4.1-0.6V20c0.3-0.3,0.6-0.6,0.8-0.9c-0.3-1.1-0.5-2.4-0.7-3.9h-4.1v-1h4c0-0.4-0.1-0.9-0.1-1.3h1.1
					c0,0.4,0,0.9,0.1,1.3h2c-0.3-0.3-0.9-0.7-1.4-1l0.6-0.6c0.5,0.2,1.1,0.6,1.4,0.9l-0.6,0.6h0.9v1h-2.8c0.1,1,0.2,2,0.4,2.7
					c0.4-0.7,0.7-1.4,0.9-2.2L238,16.1z M234,16.2v2.7h-3.1v-2.7H234z M233.1,16.9h-1.3v1.2h1.3V16.9z"/>
			</g>
			<g>
				<path class="st2" d="M218.2,32c0.4,0,0.8-0.1,0.9-0.2c0.2-0.1,0.2-0.4,0.2-0.7v-0.6c0-0.3-0.1-0.5-0.2-0.6
					c-0.2-0.1-0.5-0.1-0.9-0.1c-0.3,0-0.6,0-0.9,0c-0.3,0-0.6,0.1-1,0.1l-0.2-1.6c0.4-0.1,0.8-0.1,1.1-0.2c0.4,0,0.8-0.1,1.2-0.1
					c0.6,0,1.1,0,1.5,0.1s0.7,0.2,0.9,0.4c0.2,0.2,0.4,0.4,0.5,0.7c0.1,0.3,0.1,0.6,0.1,0.9v0.7c0,0.4-0.1,0.8-0.2,1.1
					c-0.1,0.3-0.4,0.6-0.7,0.8c0.4,0.2,0.7,0.4,0.8,0.7c0.2,0.3,0.3,0.6,0.3,1.1v0.7c0,0.3,0,0.7-0.1,0.9c-0.1,0.3-0.3,0.5-0.5,0.7
					s-0.6,0.3-1,0.5s-0.9,0.2-1.6,0.2c-0.4,0-0.8,0-1.2-0.1c-0.4,0-0.7-0.1-1.1-0.2l0.2-1.6c0.3,0.1,0.7,0.1,1,0.1s0.6,0,1.1,0
					s0.8-0.1,1-0.2c0.2-0.1,0.3-0.3,0.3-0.6v-0.6c0-0.5-0.3-0.7-1-0.7h-1.8V32H218.2z"/>
				<path class="st2" d="M223,34.4c0-0.3,0.1-0.6,0.2-0.9c0.2-0.3,0.5-0.5,0.9-0.8c-0.4-0.2-0.6-0.5-0.7-0.7
					c-0.1-0.2-0.2-0.5-0.2-0.8v-0.8c0-0.4,0-0.7,0.1-0.9c0.1-0.3,0.3-0.5,0.5-0.7s0.5-0.3,0.9-0.4s0.8-0.1,1.3-0.1s1,0,1.3,0.1
					s0.6,0.2,0.9,0.4c0.2,0.2,0.4,0.4,0.5,0.7c0.1,0.3,0.1,0.6,0.1,0.9v0.8c0,0.3-0.1,0.6-0.2,0.9c-0.1,0.2-0.4,0.5-0.7,0.7
					c0.5,0.2,0.8,0.5,0.9,0.7c0.2,0.3,0.2,0.6,0.2,0.9v0.7c0,0.4-0.1,0.8-0.2,1.1s-0.3,0.5-0.5,0.7s-0.6,0.3-0.9,0.4
					c-0.4,0.1-0.9,0.1-1.4,0.1c-0.6,0-1,0-1.4-0.1s-0.7-0.2-0.9-0.4s-0.4-0.4-0.5-0.7s-0.2-0.7-0.2-1.1L223,34.4L223,34.4z
					 M224.9,35.1c0,0.3,0.1,0.5,0.2,0.6s0.4,0.2,0.9,0.2s0.7-0.1,0.9-0.2c0.2-0.1,0.2-0.3,0.2-0.6v-0.5c0-0.1,0-0.2,0-0.3
					s-0.1-0.2-0.1-0.2c-0.1-0.1-0.2-0.2-0.3-0.2c-0.2-0.1-0.4-0.2-0.6-0.3c-0.3,0.1-0.5,0.2-0.6,0.3s-0.2,0.2-0.3,0.2
					c-0.1,0.1-0.1,0.2-0.1,0.2c0,0.1,0,0.2,0,0.3v0.5H224.9z M225.1,31.1c0,0.1,0,0.2,0,0.3c0,0.1,0.1,0.1,0.1,0.2
					c0.1,0.1,0.2,0.1,0.3,0.2s0.3,0.1,0.5,0.2c0.2-0.1,0.4-0.1,0.5-0.2s0.2-0.1,0.3-0.2s0.1-0.1,0.1-0.2s0-0.2,0-0.3v-0.7
					c0-0.2-0.1-0.4-0.2-0.5c-0.1-0.1-0.3-0.2-0.7-0.2s-0.6,0.1-0.7,0.2c-0.1,0.1-0.2,0.3-0.2,0.5L225.1,31.1L225.1,31.1z"/>
				<path class="st2" d="M234.7,31c0,0.3,0,0.6-0.1,0.8s-0.2,0.5-0.4,0.6c-0.2,0.2-0.4,0.3-0.7,0.4c-0.3,0.1-0.7,0.2-1.1,0.2
					s-0.8-0.1-1.1-0.2c-0.3-0.1-0.5-0.2-0.7-0.4c-0.2-0.2-0.3-0.4-0.4-0.6c-0.1-0.2-0.1-0.5-0.1-0.8v-1c0-0.3,0-0.6,0.1-0.8
					c0.1-0.2,0.2-0.5,0.4-0.6c0.2-0.2,0.4-0.3,0.7-0.4s0.7-0.2,1.1-0.2s0.8,0.1,1.1,0.2s0.5,0.2,0.7,0.4c0.2,0.2,0.3,0.4,0.4,0.6
					s0.1,0.5,0.1,0.8V31z M233.2,29.8c0-0.2,0-0.4-0.1-0.4c-0.1-0.1-0.3-0.1-0.5-0.1c-0.3,0-0.4,0-0.5,0.1s-0.2,0.2-0.2,0.4v1.3
					c0,0.2,0.1,0.4,0.2,0.4c0.1,0.1,0.3,0.1,0.5,0.1c0.3,0,0.4,0,0.5-0.1s0.1-0.2,0.1-0.4V29.8z M237,27.9l1.2,0.5l-3.8,9.1
					l-1.2-0.5L237,27.9z M241.4,35.5c0,0.3,0,0.6-0.1,0.8s-0.2,0.5-0.4,0.6c-0.2,0.2-0.4,0.3-0.7,0.4s-0.7,0.2-1.1,0.2
					c-0.4,0-0.8-0.1-1.1-0.2c-0.3-0.1-0.5-0.2-0.7-0.4s-0.3-0.4-0.4-0.6c-0.1-0.2-0.1-0.5-0.1-0.8v-1c0-0.3,0-0.6,0.1-0.8
					s0.2-0.5,0.4-0.6c0.2-0.2,0.4-0.3,0.7-0.4c0.3-0.1,0.7-0.2,1.1-0.2c0.4,0,0.8,0.1,1.1,0.2c0.3,0.1,0.5,0.2,0.7,0.4
					c0.2,0.2,0.3,0.4,0.4,0.6c0.1,0.2,0.1,0.5,0.1,0.8V35.5z M239.8,34.3c0-0.2,0-0.4-0.1-0.4c-0.1-0.1-0.3-0.1-0.5-0.1
					c-0.3,0-0.4,0-0.5,0.1s-0.2,0.2-0.2,0.4v1.3c0,0.2,0.1,0.4,0.2,0.4c0.1,0.1,0.3,0.1,0.5,0.1c0.3,0,0.4,0,0.5-0.1
					s0.1-0.2,0.1-0.4V34.3z"/>
			</g>
			<g>
				<path class="st3" d="M74.8,118.5c-0.4,1-0.9,2.1-1.4,2.8c-0.2-0.2-0.6-0.5-0.9-0.6c0.5-0.7,1-1.6,1.3-2.5L74.8,118.5z
					 M76.7,117.6v4.7h-1.3v-4.7h-2.7v-1.1h2.7v-1.3h-2.8v-1.1h1.5c-0.1-0.5-0.3-1.2-0.5-1.8l1.1-0.3c0.2,0.5,0.4,1.3,0.5,1.7l-1,0.3
					h2.2c0.3-0.6,0.5-1.4,0.7-2l1.2,0.3c-0.2,0.6-0.5,1.3-0.7,1.8h1.6v1.1h-2.6v1.3H79v1.1H76.7z M79,112.1h-6.2V111h2.6
					c-0.2-0.4-0.3-0.8-0.5-1.2l1.3-0.3c0.2,0.5,0.5,1.1,0.7,1.5H79V112.1z M78,118.1c0.5,0.7,0.9,1.5,1.2,2.1l-0.9,0.5
					c-0.2-0.6-0.7-1.5-1.1-2.2L78,118.1z M85.4,115.4H84v6.9h-1.3v-6.9H81v0.3c0,2-0.2,4.8-1.4,6.6c-0.2-0.2-0.7-0.6-1-0.8
					c1.1-1.6,1.2-4,1.2-5.8v-4.8c1.6-0.3,3.3-0.7,4.3-1.1l1,1c-1.1,0.4-2.7,0.8-4.1,1v2.5h4.3L85.4,115.4L85.4,115.4z"/>
				<path class="st3" d="M99.2,117.9v1.2H86.7v-1.2h1.1l-0.2-7.4c0.8-0.2,1.7-0.6,2.3-0.9l0.6,1.1c-0.6,0.2-1.2,0.4-1.8,0.5v1.5h1.4
					v1.1h-1.4l0.1,1.5h1.4v1.1h-1.4v1.5h1.7v-7.7h4.9v7.7h1.7c0-0.4,0.1-1,0.1-1.5h-1.4v-1h1.4c0-0.5,0-1,0-1.5h-1.4v-1.1h1.4
					c0-0.5,0-1.1,0-1.6h-1.5v-1.1h2.6c0,2.5-0.1,5.6-0.3,7.8H99.2z M91.7,120.1c-1.2,0.8-2.9,1.7-4.2,2.3c-0.2-0.3-0.5-0.7-0.7-1
					c1.3-0.5,3-1.4,3.9-2.2L91.7,120.1z M91.4,117.9h3v-6.7h-3V117.9z M94.1,112.1v0.9h-2.3v-0.9H94.1z M91.9,113.8h2v3.2h-2V113.8z
					 M92.5,116.1h0.9v-1.6h-0.9V116.1z M94.9,119.1c1.5,0.7,3.1,1.5,4,2.2l-0.8,1c-0.9-0.6-2.5-1.6-3.9-2.2L94.9,119.1z"/>
				<path class="st3" d="M107.6,112.8v1.7h4.5v4.8c0,0.7-0.1,1.1-0.7,1.3c-0.5,0.2-1.3,0.2-2.4,0.2c-0.1-0.4-0.3-0.9-0.5-1.3
					c0.8,0,1.7,0,1.9,0c0.2,0,0.3-0.1,0.3-0.3v-3.5h-3.2v6.6h-1.4v-6.6h-3v5.1H102v-6.3h4.3v-1.7h-5.5v-1.3h5.8
					c-0.2-0.5-0.5-1.2-0.8-1.7l1.3-0.4c0.4,0.6,0.9,1.5,1.1,2.1h5.3v1.3C113.5,112.8,107.6,112.8,107.6,112.8z"/>
				<path class="st3" d="M119,117.9c-1.4,0.7-2.9,1.5-4.1,2l-0.5-1.3c0.5-0.2,1.1-0.5,1.8-0.8v-4.2h-1.5v-1.2h1.5v-2.8h1.2v2.8h1.4
					v1.2h-1.4v3.6c0.4-0.2,0.9-0.4,1.3-0.6L119,117.9z M121.7,116.3c-0.2,0.3-0.3,0.6-0.5,0.8h5.9c0,0,0,0.3,0,0.5
					c-0.2,2.8-0.4,3.9-0.8,4.3c-0.2,0.3-0.5,0.3-0.8,0.4c-0.3,0-0.8,0-1.4,0c0-0.3-0.1-0.8-0.3-1.1c0.5,0.1,0.9,0.1,1.1,0.1
					s0.3,0,0.4-0.2c0.2-0.2,0.4-1,0.6-3H125c-0.6,1.6-1.7,3.4-2.8,4.3c-0.2-0.2-0.6-0.5-0.9-0.7c1.1-0.7,2.1-2.1,2.7-3.5h-1.1
					c-0.8,1.4-2.1,2.9-3.3,3.7c-0.2-0.3-0.6-0.6-0.9-0.8c1.1-0.6,2.3-1.7,3-2.9h-1.2c-0.5,0.6-1.1,1.1-1.7,1.5
					c-0.2-0.2-0.6-0.6-0.9-0.8c1.1-0.6,2-1.5,2.6-2.6h-1.8v-1.1h8.8v1.1C127.5,116.3,121.7,116.3,121.7,116.3z M126.4,114.5H120
					v-4.6h6.5L126.4,114.5L126.4,114.5z M125.2,110.9h-4.1v0.9h4.1V110.9z M125.2,112.7h-4.1v0.9h4.1V112.7z"/>
			</g>
			<g>
				<path class="st3" d="M90.1,138.9v-6.7l-1.6,0.9l-0.9-1.7l2.6-1.5H92v9H90.1z"/>
				<path class="st3" d="M96.8,139c-0.6,0-1.1-0.1-1.5-0.2s-0.7-0.3-0.9-0.6c-0.2-0.2-0.4-0.5-0.4-0.9c-0.1-0.3-0.1-0.7-0.1-1v-3.4
					c0-0.6,0.1-1.2,0.3-1.6c0.2-0.4,0.5-0.7,0.9-1c0.4-0.2,0.8-0.4,1.4-0.5c0.5-0.1,1.1-0.1,1.8-0.1c0.2,0,0.4,0,0.7,0
					c0.2,0,0.5,0,0.7,0.1l-0.1,1.7c-0.1,0-0.3,0-0.5,0s-0.3,0-0.4,0c-0.5,0-0.9,0-1.2,0.1s-0.6,0.1-0.8,0.2
					c-0.2,0.1-0.4,0.3-0.4,0.5s-0.1,0.4-0.1,0.7v0.7c0.3-0.1,0.5-0.1,0.7-0.2c0.2,0,0.5,0,0.8,0c0.8,0,1.4,0.2,1.8,0.5
					c0.4,0.4,0.6,1,0.6,1.8v0.6c0,0.4,0,0.7-0.1,1s-0.2,0.6-0.5,0.9c-0.2,0.3-0.5,0.5-0.9,0.6S97.4,139,96.8,139z M96.8,137.3
					c0.4,0,0.6-0.1,0.7-0.2c0.1-0.1,0.2-0.4,0.2-0.7v-0.6c0-0.3-0.1-0.5-0.2-0.6s-0.3-0.1-0.5-0.1s-0.5,0-0.7,0.1
					c-0.2,0-0.4,0.1-0.6,0.2v1.1c0,0.3,0.1,0.6,0.2,0.7S96.4,137.3,96.8,137.3z"/>
				<path class="st3" d="M105.3,132.5c0,0.3,0,0.6-0.1,0.8s-0.2,0.5-0.4,0.6c-0.2,0.2-0.4,0.3-0.7,0.4s-0.7,0.2-1.1,0.2
					s-0.8-0.1-1.1-0.2c-0.3-0.1-0.5-0.2-0.7-0.4s-0.3-0.4-0.4-0.6c-0.1-0.2-0.1-0.5-0.1-0.8v-1c0-0.3,0-0.6,0.1-0.8s0.2-0.5,0.4-0.6
					s0.4-0.3,0.7-0.4c0.3-0.1,0.7-0.2,1.1-0.2s0.8,0.1,1.1,0.2s0.5,0.2,0.7,0.4s0.3,0.4,0.4,0.6c0.1,0.2,0.1,0.5,0.1,0.8V132.5z
					 M103.8,131.3c0-0.2,0-0.4-0.1-0.4c-0.1-0.1-0.3-0.1-0.5-0.1c-0.3,0-0.4,0-0.5,0.1s-0.2,0.2-0.2,0.4v1.3c0,0.2,0.1,0.4,0.2,0.4
					c0.1,0.1,0.3,0.1,0.5,0.1c0.3,0,0.4,0,0.5-0.1s0.1-0.2,0.1-0.4V131.3z M107.7,129.4l1.2,0.5l-3.8,9.1l-1.2-0.5L107.7,129.4z
					 M112,137c0,0.3,0,0.6-0.1,0.8s-0.2,0.5-0.4,0.6c-0.2,0.2-0.4,0.3-0.7,0.4s-0.7,0.2-1.1,0.2s-0.8-0.1-1.1-0.2
					c-0.3-0.1-0.5-0.2-0.7-0.4s-0.3-0.4-0.4-0.6c-0.1-0.2-0.1-0.5-0.1-0.8v-1c0-0.3,0-0.6,0.1-0.8s0.2-0.5,0.4-0.6
					c0.2-0.2,0.4-0.3,0.7-0.4c0.3-0.1,0.7-0.2,1.1-0.2s0.8,0.1,1.1,0.2s0.5,0.2,0.7,0.4s0.3,0.4,0.4,0.6s0.1,0.5,0.1,0.8V137z
					 M110.5,135.8c0-0.2,0-0.4-0.1-0.4c-0.1-0.1-0.3-0.1-0.5-0.1c-0.3,0-0.4,0-0.5,0.1s-0.2,0.2-0.2,0.4v1.3c0,0.2,0.1,0.4,0.2,0.4
					c0.1,0.1,0.3,0.1,0.5,0.1c0.3,0,0.4,0,0.5-0.1s0.1-0.2,0.1-0.4V135.8z"/>
			</g>
			<g>
				<path class="st3" d="M173.1,151.1c0,0.3,0,0.6,0,0.9c0.4,2.7,1.2,4.4,2.7,5.8c-0.3,0.2-0.7,0.6-0.8,1c-1.1-1.1-1.8-2.3-2.3-3.9
					c-0.4,1.4-1.1,2.7-2.3,3.9c-0.1-0.3-0.4-0.6-0.7-0.8c-0.3,0-0.8,0.1-1.3,0.1h-2.9c-1.6,0-2.2-0.6-2.2-2.3v-8h-0.4v-1.1h6.8v1.1
					h-5.2v8.1c0,0.9,0.2,1.1,1,1.1h3c0.4,0,1,0,1.3-0.1c0,0.2,0,0.4,0.1,0.6c1.8-2.1,2-4.7,2-6.4v-1h1.2L173.1,151.1L173.1,151.1z
					 M165,152.6h2.1v3.5H165V152.6z M169,151.8h-3.6v-3.2h3.6V151.8z M165.6,155.4h0.8v-1.9h-0.8V155.4z M168,149.5h-1.6v1.6h1.6
					V149.5z M169.7,156.2h-2.2v-3.5h2.2V156.2z M169,153.5h-0.8v1.9h0.8V153.5z M171.6,149.4c-0.3,1.1-0.7,2-1.2,2.7
					c-0.2-0.2-0.8-0.5-1.1-0.7c0.9-1.3,1.5-3.3,1.8-5.4l1.2,0.2c-0.1,0.7-0.2,1.3-0.4,1.9h3h0.2l0.8,0.3c-0.3,1.3-0.7,2.8-1,3.8
					l-1-0.3c0.2-0.6,0.4-1.6,0.6-2.5H171.6z"/>
				<path class="st3" d="M189.7,157.4v1.1h-12.8v-1.1h1.6v-3.3h9.6v3.3H189.7z M178.9,153h-1.2v-6.3h4.6v5.6h-3.4L178.9,153
					L178.9,153z M178.9,147.7v1.3h2.2v-1.3H178.9z M181.1,151.3V150h-2.2v1.3H181.1z M179.8,157.4h1.6v-2.2h-1.6V157.4z
					 M184.5,151.5c-0.2,0.9-0.7,1.8-1.6,2.5c-0.2-0.3-0.6-0.7-0.9-0.9c1.4-1,1.5-2.5,1.5-3.8v-2.8h5.4v6c0,0.6-0.1,0.9-0.6,1.1
					c-0.4,0.2-1.1,0.2-2,0.2c-0.1-0.3-0.3-0.8-0.5-1.1c0.7,0,1.3,0,1.5,0s0.3-0.1,0.3-0.2v-1H184.5z M182.5,155.1v2.2h1.6v-2.2
					H182.5z M187.6,150.5v-1.1h-2.9c0,0.3,0,0.7-0.1,1.1H187.6z M184.7,147.5v1h2.9v-1H184.7z M185.3,155.1v2.2h1.6v-2.2H185.3z"/>
				<path class="st3" d="M195.3,154.3c-0.3,0.4-0.6,0.7-0.8,1s-0.4,0.5-0.7,0.7h2.9v1.8H191v-1.7c0.3-0.3,0.5-0.5,0.6-0.6
					c0.2-0.2,0.3-0.3,0.5-0.5c0.1-0.1,0.3-0.3,0.4-0.4c0.1-0.2,0.3-0.4,0.5-0.6c0.3-0.4,0.6-0.7,0.8-0.9s0.4-0.4,0.5-0.6
					c0.1-0.2,0.2-0.3,0.2-0.5s0-0.4,0-0.6v-0.3c0-0.2-0.1-0.4-0.3-0.5s-0.5-0.1-0.8-0.1c-0.2,0-0.4,0-0.6,0c-0.2,0-0.4,0-0.6,0.1
					s-0.4,0.1-0.6,0.1c-0.2,0-0.4,0.1-0.5,0.1l-0.3-1.7c0.4-0.1,0.9-0.2,1.4-0.3s0.9-0.1,1.3-0.1c1.1,0,1.9,0.2,2.3,0.5
					c0.5,0.4,0.7,0.9,0.7,1.7v0.4c0,0.3,0,0.6,0,0.8s-0.1,0.4-0.1,0.6s-0.2,0.4-0.4,0.7S195.6,153.9,195.3,154.3z"/>
				<path class="st3" d="M200.5,157.8h-2.1l3-7.3h-3.7v-1.8h5.8v1.7L200.5,157.8z"/>
				<path class="st3" d="M216.6,146.7V159h-1.3v-0.6h-9.2v0.6h-1.2v-12.3H216.6z M215.3,157.2v-9.3h-9.2v9.3H215.3z M214.3,151.2
					c-0.3,1.3-0.9,2.4-1.5,3.3c0.2,0.6,0.5,1,0.9,1.1c0.2,0.1,0.3-0.5,0.4-1.4c0.2,0.2,0.6,0.5,0.8,0.6c-0.2,1.6-0.8,2.1-1.6,1.8
					c-0.5-0.1-0.9-0.5-1.3-1.2c-0.5,0.5-1.1,1-1.7,1.4c-0.1-0.2-0.5-0.6-0.7-0.8c0.4-0.2,0.7-0.5,1.1-0.8c-1.4,0.2-2.8,0.5-3.9,0.7
					l-0.1-1c1-0.1,2.5-0.4,4.1-0.6v0.9c0.3-0.3,0.6-0.6,0.8-0.9c-0.3-1.1-0.5-2.4-0.7-3.9h-4.1v-1h4c0-0.4-0.1-0.9-0.1-1.3h1.1
					c0,0.4,0,0.9,0.1,1.3h2c-0.3-0.3-0.9-0.7-1.4-1l0.6-0.6c0.5,0.2,1.1,0.6,1.4,0.9l-0.6,0.6h0.9v1H212c0.1,1,0.2,2,0.4,2.7
					c0.4-0.7,0.7-1.4,0.9-2.2L214.3,151.2z M210.4,151.2v2.7h-3.1v-2.7H210.4z M209.4,151.9h-1.3v1.2h1.3V151.9z"/>
			</g>
			<g>
				<path class="st3" d="M182.8,169.6c-0.3,0.4-0.6,0.7-0.8,1s-0.4,0.5-0.7,0.7h2.9v1.8h-5.7v-1.7c0.3-0.3,0.5-0.5,0.6-0.6
					c0.2-0.2,0.3-0.3,0.5-0.5c0.1-0.1,0.3-0.3,0.4-0.4c0.1-0.2,0.3-0.4,0.5-0.6c0.3-0.4,0.6-0.7,0.8-0.9s0.4-0.4,0.5-0.6
					c0.1-0.2,0.2-0.3,0.2-0.5s0-0.4,0-0.6v-0.3c0-0.2-0.1-0.4-0.3-0.5s-0.5-0.1-0.8-0.1c-0.2,0-0.4,0-0.6,0c-0.2,0-0.4,0-0.6,0.1
					s-0.4,0.1-0.6,0.1c-0.2,0-0.4,0.1-0.5,0.1l-0.3-1.7c0.4-0.1,0.9-0.2,1.4-0.3s0.9-0.1,1.3-0.1c1.1,0,1.9,0.2,2.3,0.5
					c0.5,0.4,0.7,0.9,0.7,1.7v0.4c0,0.3,0,0.6,0,0.8s-0.1,0.4-0.1,0.6s-0.2,0.4-0.4,0.7S183.1,169.2,182.8,169.6z"/>
				<path class="st3" d="M191.8,170.7c0,0.4-0.1,0.7-0.2,1s-0.3,0.6-0.5,0.8s-0.6,0.4-1,0.5s-0.9,0.2-1.5,0.2s-1.1-0.1-1.5-0.2
					s-0.7-0.3-1-0.5c-0.2-0.2-0.4-0.5-0.5-0.8s-0.2-0.6-0.2-1v-4.4c0-0.3,0.1-0.7,0.2-1s0.3-0.6,0.5-0.8s0.6-0.4,1-0.5
					s0.9-0.2,1.5-0.2s1.1,0.1,1.5,0.2s0.7,0.3,1,0.5s0.4,0.5,0.5,0.8s0.2,0.6,0.2,1V170.7z M187.7,170.5c0,0.4,0.1,0.6,0.2,0.8
					c0.1,0.2,0.4,0.2,0.9,0.2c0.4,0,0.7-0.1,0.9-0.2c0.1-0.2,0.2-0.4,0.2-0.8v-3.8c0-0.3-0.1-0.6-0.2-0.8c-0.1-0.2-0.4-0.2-0.9-0.2
					c-0.4,0-0.7,0.1-0.9,0.2s-0.2,0.4-0.2,0.8V170.5z"/>
				<path class="st3" d="M197.6,166.7c0,0.3,0,0.6-0.1,0.8s-0.2,0.5-0.4,0.6c-0.2,0.2-0.4,0.3-0.7,0.4s-0.7,0.2-1.1,0.2
					s-0.8-0.1-1.1-0.2c-0.3-0.1-0.5-0.2-0.7-0.4s-0.3-0.4-0.4-0.6c-0.1-0.2-0.1-0.5-0.1-0.8v-1c0-0.3,0-0.6,0.1-0.8s0.2-0.5,0.4-0.6
					s0.4-0.3,0.7-0.4c0.3-0.1,0.7-0.2,1.1-0.2s0.8,0.1,1.1,0.2s0.5,0.2,0.7,0.4s0.3,0.4,0.4,0.6c0.1,0.2,0.1,0.5,0.1,0.8V166.7z
					 M196,165.5c0-0.2,0-0.4-0.1-0.4c-0.1-0.1-0.3-0.1-0.5-0.1c-0.3,0-0.4,0-0.5,0.1s-0.2,0.2-0.2,0.4v1.3c0,0.2,0.1,0.4,0.2,0.4
					c0.1,0.1,0.3,0.1,0.5,0.1c0.3,0,0.4,0,0.5-0.1s0.1-0.2,0.1-0.4V165.5z M199.9,163.6l1.2,0.5l-3.8,9.1l-1.2-0.5L199.9,163.6z
					 M204.3,171.2c0,0.3,0,0.6-0.1,0.8s-0.2,0.5-0.4,0.6c-0.2,0.2-0.4,0.3-0.7,0.4s-0.7,0.2-1.1,0.2c-0.4,0-0.8-0.1-1.1-0.2
					c-0.3-0.1-0.5-0.2-0.7-0.4s-0.3-0.4-0.4-0.6c-0.1-0.2-0.1-0.5-0.1-0.8v-1c0-0.3,0-0.6,0.1-0.8s0.2-0.5,0.4-0.6
					c0.2-0.2,0.4-0.3,0.7-0.4c0.3-0.1,0.7-0.2,1.1-0.2c0.4,0,0.8,0.1,1.1,0.2s0.5,0.2,0.7,0.4s0.3,0.4,0.4,0.6s0.1,0.5,0.1,0.8
					V171.2z M202.7,170c0-0.2,0-0.4-0.1-0.4c-0.1-0.1-0.3-0.1-0.5-0.1c-0.3,0-0.4,0-0.5,0.1s-0.2,0.2-0.2,0.4v1.3
					c0,0.2,0.1,0.4,0.2,0.4c0.1,0.1,0.3,0.1,0.5,0.1c0.3,0,0.4,0,0.5-0.1s0.1-0.2,0.1-0.4V170z"/>
			</g>
			<g>
				<path class="st3" d="M96,59.9v11.8h-1.4v-0.9H88v0.9h-1.3V59.9H96z M88,61.2v3.4h6.6v-3.4C94.6,61.2,88,61.2,88,61.2z
					 M94.6,69.5v-3.6H88v3.6H94.6z"/>
				<path class="st3" d="M107.4,63.1c1,2.2,2.6,4.3,4.4,5.4c-0.3,0.3-0.8,0.8-1,1.1c-0.6-0.4-1.2-0.9-1.7-1.5v1.2H106v2.5h-1.4v-2.5
					h-3.1v-1.2c-0.6,0.6-1.1,1.1-1.7,1.6c-0.2-0.3-0.6-0.8-1-1.1c1.8-1.1,3.3-3.2,4.3-5.5h-3.9v-1.3h5.4V59h1.4v2.8h5.4v1.3H107.4z
					 M104.6,68.1v-4.9h-0.2c-0.7,1.8-1.7,3.6-2.9,4.9H104.6z M109,68.1c-1.2-1.3-2.2-3.1-2.8-4.9H106v4.9H109z"/>
			</g>
			<g>
				<path class="st3" d="M89.1,84.5v-6.7l-1.6,0.9L86.7,77l2.6-1.5h1.8v9H89.1z"/>
				<path class="st3" d="M97.1,81c-0.3,0.4-0.6,0.7-0.8,1s-0.4,0.5-0.7,0.7h2.9v1.8h-5.7v-1.7c0.3-0.3,0.5-0.5,0.6-0.6
					c0.2-0.2,0.3-0.3,0.5-0.5c0.1-0.1,0.3-0.3,0.4-0.4c0.1-0.2,0.3-0.4,0.5-0.6c0.3-0.4,0.6-0.7,0.8-0.9c0.2-0.2,0.4-0.4,0.5-0.6
					s0.2-0.3,0.2-0.5s0-0.4,0-0.6v-0.3c0-0.2-0.1-0.4-0.3-0.5c-0.2-0.1-0.5-0.1-0.8-0.1c-0.2,0-0.4,0-0.6,0s-0.4,0-0.6,0.1
					s-0.4,0.1-0.6,0.1s-0.4,0.1-0.5,0.1l-0.3-1.7c0.4-0.1,0.9-0.2,1.4-0.3s0.9-0.1,1.3-0.1c1.1,0,1.9,0.2,2.3,0.5s0.7,0.9,0.7,1.7
					V78c0,0.3,0,0.6,0,0.8c0,0.2-0.1,0.4-0.1,0.6S98,79.8,97.8,80S97.4,80.6,97.1,81z"/>
				<path class="st3" d="M104.2,78.1c0,0.3,0,0.6-0.1,0.8c-0.1,0.2-0.2,0.5-0.4,0.6c-0.2,0.2-0.4,0.3-0.7,0.4
					c-0.3,0.1-0.7,0.2-1.1,0.2s-0.8-0.1-1.1-0.2c-0.3-0.1-0.5-0.2-0.7-0.4s-0.3-0.4-0.4-0.6s-0.1-0.5-0.1-0.8v-1
					c0-0.3,0-0.6,0.1-0.8c0.1-0.2,0.2-0.5,0.4-0.6c0.2-0.2,0.4-0.3,0.7-0.4c0.3-0.1,0.7-0.2,1.1-0.2s0.8,0.1,1.1,0.2
					c0.3,0.1,0.5,0.2,0.7,0.4c0.2,0.2,0.3,0.4,0.4,0.6s0.1,0.5,0.1,0.8V78.1z M102.6,76.9c0-0.2,0-0.4-0.1-0.4
					c-0.1-0.1-0.3-0.1-0.5-0.1c-0.3,0-0.4,0-0.5,0.1s-0.2,0.2-0.2,0.4v1.3c0,0.2,0.1,0.4,0.2,0.4c0.1,0.1,0.3,0.1,0.5,0.1
					c0.3,0,0.4,0,0.5-0.1s0.1-0.2,0.1-0.4V76.9z M106.5,75l1.2,0.5l-3.8,9.1l-1.2-0.5L106.5,75z M110.8,82.6c0,0.3,0,0.6-0.1,0.8
					s-0.2,0.5-0.4,0.6c-0.2,0.2-0.4,0.3-0.7,0.4s-0.7,0.2-1.1,0.2s-0.8-0.1-1.1-0.2c-0.3-0.1-0.5-0.2-0.7-0.4
					c-0.2-0.2-0.3-0.4-0.4-0.6s-0.1-0.5-0.1-0.8v-1c0-0.3,0-0.6,0.1-0.8c0.1-0.2,0.2-0.5,0.4-0.6c0.2-0.2,0.4-0.3,0.7-0.4
					c0.3-0.1,0.7-0.2,1.1-0.2s0.8,0.1,1.1,0.2c0.3,0.1,0.5,0.2,0.7,0.4c0.2,0.2,0.3,0.4,0.4,0.6s0.1,0.5,0.1,0.8V82.6z M109.3,81.4
					c0-0.2,0-0.4-0.1-0.4c-0.1-0.1-0.3-0.1-0.5-0.1c-0.3,0-0.4,0-0.5,0.1s-0.2,0.2-0.2,0.4v1.3c0,0.2,0.1,0.4,0.2,0.4
					c0.1,0.1,0.3,0.1,0.5,0.1c0.3,0,0.4,0,0.5-0.1s0.1-0.2,0.1-0.4V81.4z"/>
			</g>
			<g>
				<path class="st3" d="M120.9,20.6c-1.2,0.8-3.1,1.5-4.6,2c-0.2-0.3-0.6-0.7-0.9-1c1.5-0.4,3.4-1.2,4.3-1.9L120.9,20.6z M128,19.7
					h-12.4v-1.2h2.5v-6H116v-1.2h2.1V9.8h1.3v1.5h4.8V9.8h1.3v1.5h2.1v1.2h-2.1v6h2.5V19.7z M119.3,12.5v1.2h4.8v-1.2H119.3z
					 M119.3,16h4.8v-1.3h-4.8V16z M119.3,18.4h4.8v-1.3h-4.8V18.4z M123.6,19.9c1.6,0.5,3.4,1.3,4.4,1.9l-1.2,0.9
					c-1-0.6-2.6-1.3-4.2-1.9L123.6,19.9z"/>
				<path class="st3" d="M133.6,10.2c-0.4,1-0.9,2.1-1.4,3v9.4H131v-7.5c-0.4,0.5-0.8,1-1.2,1.4c-0.1-0.3-0.5-1-0.7-1.3
					c1.3-1.3,2.6-3.3,3.3-5.4L133.6,10.2z M140,21.3c0.8,0,1-0.4,1.1-2c0.3,0.2,0.8,0.4,1.2,0.5c-0.2,2-0.6,2.6-2.2,2.6h-3.4
					c-1.8,0-2.3-0.4-2.3-2.2v-4.3l-1.2,0.5l-0.5-1.1l1.8-0.7v-3.5h1.2v3l1.8-0.7V9.8h1.2v3.3l2.1-0.8l0.2-0.1l1,0.3v0.2
					c-0.1,2-0.2,4.6-0.5,6.3l-1.1-0.3c0.2-1.2,0.2-3.2,0.3-5l-1.9,0.8v5h-1.2v-4.6l-1.8,0.7v4.8c0,0.8,0.2,1,1.1,1h3.1V21.3z"/>
			</g>
			<g>
				<path class="st3" d="M118.9,36.1v-6.7l-1.6,0.9l-0.9-1.7l2.6-1.5h1.8v9H118.9z"/>
				<path class="st3" d="M128.2,34.2v1.9h-2v-1.9h-4.1v-1.8l3.5-5.4h2.6v5.5h1.1v1.6h-1.1V34.2z M126.2,29.1l-2.1,3.5h2.1V29.1z"/>
				<path class="st3" d="M134.7,29.7c0,0.3,0,0.6-0.1,0.8s-0.2,0.5-0.4,0.6c-0.2,0.2-0.4,0.3-0.7,0.4s-0.7,0.2-1.1,0.2
					s-0.8-0.1-1.1-0.2s-0.5-0.2-0.7-0.4c-0.2-0.2-0.3-0.4-0.4-0.6c-0.1-0.2-0.1-0.5-0.1-0.8v-1c0-0.3,0-0.6,0.1-0.8
					c0.1-0.2,0.2-0.5,0.4-0.6s0.4-0.3,0.7-0.4s0.7-0.2,1.1-0.2s0.8,0.1,1.1,0.2s0.5,0.2,0.7,0.4c0.2,0.2,0.3,0.4,0.4,0.6
					c0.1,0.2,0.1,0.5,0.1,0.8V29.7z M133.2,28.6c0-0.2,0-0.4-0.1-0.4c-0.1-0.1-0.3-0.1-0.5-0.1c-0.3,0-0.4,0-0.5,0.1
					s-0.2,0.2-0.2,0.4v1.3c0,0.2,0.1,0.4,0.2,0.4c0.1,0.1,0.3,0.1,0.5,0.1c0.3,0,0.4,0,0.5-0.1s0.1-0.2,0.1-0.4V28.6z M137,26.7
					l1.2,0.5l-3.8,9.1l-1.2-0.5L137,26.7z M141.4,34.2c0,0.3,0,0.6-0.1,0.8s-0.2,0.5-0.4,0.6c-0.2,0.2-0.4,0.3-0.7,0.4
					s-0.7,0.2-1.1,0.2c-0.4,0-0.8-0.1-1.1-0.2c-0.3-0.1-0.5-0.2-0.7-0.4s-0.3-0.4-0.4-0.6c-0.1-0.2-0.1-0.5-0.1-0.8v-1
					c0-0.3,0-0.6,0.1-0.8s0.2-0.5,0.4-0.6c0.2-0.2,0.4-0.3,0.7-0.4s0.7-0.2,1.1-0.2c0.4,0,0.8,0.1,1.1,0.2s0.5,0.2,0.7,0.4
					s0.3,0.4,0.4,0.6s0.1,0.5,0.1,0.8V34.2z M139.8,33.1c0-0.2,0-0.4-0.1-0.4c-0.1-0.1-0.3-0.1-0.5-0.1c-0.3,0-0.4,0-0.5,0.1
					s-0.2,0.2-0.2,0.4v1.3c0,0.2,0.1,0.4,0.2,0.4c0.1,0.1,0.3,0.1,0.5,0.1c0.3,0,0.4,0,0.5-0.1s0.1-0.2,0.1-0.4V33.1z"/>
			</g>
		</g>
		<rect class="st4" width="360" height="179.1"/>
	</g>
	<path class="st4" d="M227,49.9c6.8,9.3,10.8,20.8,10.8,33.2c0,31.1-25.2,56.3-56.3,56.3s-56.3-25.2-56.3-56.3s25.2-56.3,56.3-56.3
		c8.5,0,16.6,1.9,23.8,5.3"/>
	<g>
		<path class="st5" d="M227,49.9c6.8,9.3,10.8,20.8,10.8,33.2c0,31.1-25.2,56.3-56.3,56.3s-56.3-25.2-56.3-56.3s25.2-56.3,56.3-56.3
			c8.5,0,16.6,1.9,23.8,5.3"/>
	</g>
</g>
</svg>
