<?xml version="1.0" encoding="utf-8"?>
<!-- Generator: Adobe Illustrator 25.3.1, SVG Export Plug-In . SVG Version: 6.00 Build 0)  -->
<svg version="1.1" xmlns="http://www.w3.org/2000/svg" xmlns:xlink="http://www.w3.org/1999/xlink" x="0px" y="0px"
	 viewBox="0 0 360 280" style="enable-background:new 0 0 360 280;" xml:space="preserve">
<style type="text/css">
	.st0{display:none;}
	.st1{display:inline;}
	.st2{fill-rule:evenodd;clip-rule:evenodd;fill:#FFFFFF;}
	.st3{opacity:0.7;}
	.st4{fill:none;stroke:#FFBF27;stroke-width:1.073;stroke-linecap:round;stroke-linejoin:round;stroke-miterlimit:10;}
	
		.st5{fill-rule:evenodd;clip-rule:evenodd;fill:none;stroke:#FFBF27;stroke-width:1.073;stroke-linecap:round;stroke-linejoin:round;stroke-miterlimit:10;}
	.st6{fill:none;stroke:#1CD8C0;stroke-width:2.0785;stroke-linecap:round;stroke-linejoin:round;stroke-miterlimit:10;}
	.st7{fill:none;stroke:#FFBF27;stroke-width:2;stroke-linecap:round;stroke-linejoin:round;stroke-miterlimit:10;}
	
		.st8{fill-rule:evenodd;clip-rule:evenodd;fill:none;stroke:#FFBF27;stroke-width:2;stroke-linecap:round;stroke-linejoin:round;stroke-miterlimit:10;}
	.st9{fill:none;}
	.st10{fill:#1CD8C0;}
	.st11{fill:#FFFFFF;}
	.st12{fill:none;stroke:#37B0AC;stroke-width:2;stroke-miterlimit:10;}
	.st13{fill:#FFD572;}
	.st14{fill:#FFE5A8;}
	.st15{fill:#FFBF27;}
	.st16{fill:none;stroke:#1E9BD7;stroke-width:2;stroke-linecap:round;stroke-linejoin:round;stroke-miterlimit:10;}
	.st17{display:inline;fill:none;stroke:#FFBF27;stroke-width:2;stroke-linecap:round;stroke-linejoin:round;stroke-miterlimit:10;}
	.st18{fill:none;stroke:#8DEBDF;stroke-width:2;stroke-linecap:round;stroke-linejoin:round;stroke-miterlimit:10;}
	.st19{fill:none;stroke:#FFDF92;stroke-width:2;stroke-linecap:round;stroke-linejoin:round;stroke-miterlimit:10;}
	.st20{display:inline;fill:none;stroke:#1CD8C0;stroke-width:2;stroke-linecap:round;stroke-linejoin:round;}
	.st21{fill:#E1E1E1;}
	.st22{fill:#8C8C8C;}
	.st23{fill:#1E9BD7;}
	.st24{opacity:0.6;}
	.st25{display:inline;fill:none;stroke:#1CD8C0;stroke-width:2;stroke-linecap:round;stroke-linejoin:round;stroke-miterlimit:10;}
	.st26{opacity:0.6;fill:#1CD8C0;}
	.st27{fill:none;stroke:#1CD8C0;stroke-width:2;stroke-linecap:round;stroke-linejoin:round;stroke-miterlimit:10;}
	.st28{fill:#8DEBDF;}
	.st29{fill:none;stroke:#1E9BD7;stroke-width:2;stroke-miterlimit:10;}
	.st30{fill:none;stroke:#FFFFFF;stroke-width:2;stroke-linecap:round;stroke-linejoin:round;stroke-miterlimit:10;}
	.st31{fill:none;stroke:#1CD8C0;stroke-width:1.6;stroke-linecap:round;stroke-linejoin:round;stroke-miterlimit:10;}
	.st32{fill:none;stroke:#1CD8C0;stroke-width:1.235;stroke-linecap:round;stroke-linejoin:round;stroke-miterlimit:10;}
	.st33{fill:none;stroke:#50BEAF;stroke-width:8;stroke-linecap:square;}
	.st34{fill:none;stroke:#50BEAF;stroke-width:2;stroke-linecap:round;}
	.st35{fill:none;stroke:#50BEAF;stroke-width:2;stroke-linecap:square;}
	.st36{fill-rule:evenodd;clip-rule:evenodd;fill:#1E9BD7;}
	.st37{fill:none;stroke:#1E9BD7;stroke-width:2;stroke-linecap:round;stroke-linejoin:round;}
	.st38{fill:none;stroke:#1E9BD7;stroke-width:2;stroke-linecap:square;}
	.st39{fill:none;stroke:#50BEAF;stroke-width:4;stroke-linecap:square;}
	.st40{fill:none;stroke:#50BEAF;stroke-linecap:round;}
	.st41{fill:none;stroke:#50BEAF;stroke-linecap:square;}
</style>
<symbol  id="map-marker" viewBox="-10.8 -25.1 21.5 50.3">
	<ellipse class="st36" cx="0.1" cy="14.5" rx="4.9" ry="4.9"/>
	<path style="fill:none;stroke:#1E9BD7;stroke-width:2;stroke-linecap:round;" d="M9.4,11.7c0.2,0.8,0.4,1.7,0.4,2.6
		c0,5.4-4.4,9.8-9.8,9.8s-9.8-4.4-9.8-9.8S-5.4,4.6,0,4.6c2.2,0,4.3,0.8,5.9,2"/>
	<path class="st38" d="M0.2,4.1v-28.3"/>
</symbol>
<g id="_x31_" class="st0">
	<g class="st1">
		<g>
			<g>
				<path class="st2" d="M55.3,44.2c1.5-0.2,3,0,4.4,0.6c2.3,0.9,7-0.4,9.1,0.9c3.1,2,5,5.9,8.6,6.8c1.3,0.3,2.6,0.2,3.9,0.3
					c4.5,0.2,9,2.8,10.7,6.9c1.7,4.1,0,9.4-4.2,11c-3.5-1.2-7.7,1.1-8.7,4.6c-1,3.5,1.5,7.6,5,8.4c1,0.2,2.2,0.2,3.1,0.7
					c1.3,0.6,2,1.9,3,2.9c0.7,0.7,1.6,1.3,2.5,1.3c1.9,0.1,3.2-2,3.2-3.9c0.1-1.9-0.7-3.7-1-5.5c-0.3-1.9,0.1-4.1,1.7-5
					c1.7-1,3.9-0.1,5.1,1.4c1.2,1.5,1.5,3.5,1.9,5.4c1.7-0.9,3.9-0.8,5.8-0.9c1.2,1.4,1.3,3.4,1.7,5.2c0.4,2,1.2,3.8,2.3,5.5
					c0.8,1.2,1.8,2.4,2.2,3.8c0.9,2.9-1.5,6.4-4.6,6.6c-2.1,0.1-4.4-0.9-6.1,0.3c-1.1,0.8-1.5,2.3-2.2,3.5c-1,1.7-2,2.9-3.9,2.8
					c-2.2-0.1-4.5,0.3-6.5,1.2c-0.7,0.3-1.5,0.8-1.8,1.5c-0.3,1,0.3,2,0.6,2.9c0.5,1.8-0.3,3.8-1.6,5.2c-1.3,1.3-2.7,3.2-4.6,3.2
					c-1.8,0-3.6,1.3-4.1,3c-0.2,0.7-0.3,1.5-0.4,2.3s-0.5,1.6-1.2,1.9c-0.7,0.4-1.9,0.3-2-0.5c0-3.1-3.3-5.4-6.4-5.5
					c-3.2-0.1-6.4,1.7-7.7,4.6c-1.2,2.9-0.1,6.7,2.7,8.2c1.5,0.7,3.1,0.8,4.8,0.9c1.6,0.1,3.3,0.1,4.8,0.8c1.5,0.7,2.7,2.2,2.5,3.8
					c-0.1,1-0.7,2.2,0,2.9c0.5,0.4,1.2,0.3,1.7,0.6c1.1,0.4,1.3,1.8,1.9,2.8c0.9,1.3,3.7,1.8,5.2,1.3c0.3-3.3,4.5-5.6,7.4-4
					c1.4,0.8,2.7,2.2,4.3,1.9c0.6-0.1,1.1-0.5,1.6-0.6c1.4-0.5,2.9,0.2,4.3,0.8c3.6,1.6,7.2,3.4,9.8,6.4c1.5,1.8,2.6,4,4.5,5.3
					c2.1,1.5,4.8,1.7,7.3,1.7c2.5,0.1,5.2,0.1,7.4,1.3c2.2,1.2,3.8,4.1,3.2,6.6c-0.5,2.2-1.5,4.2-2.8,6c-1.1,1.5-2.6,2.9-2.8,4.8
					c-0.1,1.3,0.4,2.6,0.7,3.9c0.2,1.1,0.1,2.2-0.4,3.2c-0.5,1-1.2,2-2.3,2.1c-2.6,0.4-5.7-0.7-7.8,1c-2.2,1.9-1.1,5.4-1.4,8.3
					c-0.3,3.6-3,6.7-6.3,8.3c-0.8,0.4-1.6,0.7-2.2,1.3c-1.2,1.4-1,4-2.6,4.7c-0.5,0.2-1.1,0.2-1.6,0.4c-1.2,0.4-1.8,1.7-1.9,2.9
					c0,1.2,0.7,2.4,0.7,3.7c0,1.3-0.4,2.6-1.2,3.7c-0.5,0.7-1.3,1.3-1.4,2.2c-0.1,0.8,0.4,1.5,0.9,2.1c1.5,1.9,3.6,3.8,4.8,5.9
					c0.4,0.7,0.3,1.6-0.3,2.2c-0.5,0.6-1.4,1.1-2.1,0.8C99.8,233,95,227,92.9,220.3c-2.1-6.7-1.5-14,0.6-20.7
					c1.2-3.6,2.8-7,3.4-10.7c0.6-3.7,0-7.9-2.7-10.5c-2.9-2.8-6.2-4.2-8.9-7.2c-1.5-1.6-2.9-3.3-3.6-5.4c-0.7-2.1-0.4-4.6,1.2-6.1
					c0.9-0.9,2.3-1.4,2.7-2.5c0.6-1.5-1.2-3.2-0.8-4.7c-2,0.2-4-0.7-5.2-2.2c-0.5-0.6-0.8-1.2-1.3-1.7c-2-2-5.7-1.1-7.7-3.1
					c-0.4-0.4-0.7-0.9-1.2-1.3c-0.9-0.8-2.3-1-3.5-1.3c-2.4-0.4-5.5-1-7.5-2.5c-2.6-2.1-4.6-5-5.5-8.3c-0.5-1.9-0.7-3.8-1.3-5.7
					c-1.2-3.7-4.1-6.8-7.5-8.7c-3.2-1.8-6.4-4.5-6.7-8.2c-0.2-2,0.5-4,0.6-6c0.1-2.5-0.8-5.6-2.3-7.7c-1.4-2-1.6-4.5-1.9-6.9
					c-0.2-2-0.3-4,0.3-5.8c0.6-2,2-3.6,3-5.5c1-1.8,1.5-4.2,0.3-6c-0.9-1.3-2.5-1.9-4-2.2c-4.4-1-9.9-2.5-13.4,0.4
					c-1.3,1.1-3.3,0.7-5,0.3c-0.8-0.2-1.7-0.5-2-1.3c-0.2-0.7,0.1-1.4,0.3-2c0.6-1.8,0.4-4.2-0.8-5.7c-0.2-2.1-0.2-4.7,1.6-5.9
					c0.6-0.4,1.3-0.5,1.9-0.8c0.6-0.3,1.2-0.9,1.2-1.5c0-0.9-0.8-1.4-1.3-2.1c-0.6-0.9,0-1.4,0.6-2.4c-0.3-0.8,0.4-1.6,1.2-1.9
					c0.8-0.2,1.7-0.1,2.5,0c1.4,0.1,3.1,0,4.4-0.6c0.2-1.5-1.1-2.8-2.1-4c-1-1.2-2.4-3.6-1.2-4.6c2.8-2.2,6.7-3.4,10.1-2.5
					c2.7-0.6,7.3,0.5,8,3.1c0.5,1.7,2.3,2.5,3.8,3.3c2.3,1.2,4.6,2.9,6.4,4.7C51.5,45.8,53.9,45.5,55.3,44.2L55.3,44.2z M116.2,32
					c2-3,6.5-1.3,8.9-3.5c2.8-2.5,1.6-6.8,5.9-8.6c2.8-1.2,6,0,8.9,0.2c5.3,0.2,10.5-0.9,15.7,0.9c4.2,1.5,7.9,5.2,8,9.6
					c0,1.4-0.3,2.7-0.7,4c-2.3,6.6-8.3,11.7-9.8,18.6c-0.9,4.1-0.4,9.1-3.7,11.7c-2.6,2.1-6.6,1.6-9.6,3c-2.1,1-3.6,3-5.3,4.5
					c-1.7,1.6-4,2.9-6.3,2.4c-1.8-0.4-3.1-1.9-4.1-3.5c-1-1.6-1.8-3.4-2-5.3c-0.5-4,1.5-7.9,2.9-11.6c1.4-3.8,2.1-8.4-0.4-11.6
					c-1.6-2-4.1-2.9-6.1-4.4C116.4,37,114.8,34.1,116.2,32L116.2,32z M232.7,58.9c1.3,1.2,6.7,0.5,7.7-0.9c1-1.5,1-3.4,1.1-5.2
					c0.1-1.8,0.3-3.7,1.5-5c1.1-1.1,2.8-1.5,3.4-2.9c0.4-1,0.2-2.1,0.3-3.1c0.3-3.7,4.5-5.7,8-6.9c1.6-0.5,3.4-1.1,5.1-0.9
					c1.7,0.2,3.5,1.1,4,2.8c0.5,1.6,0.1,3.8,1.5,4.5c3.9-3.2,9.6-4.1,14.4-2.2c2.9,1.2,5.7,3.3,8.8,2.9c4.4-0.5,6.7-5.7,10.6-7.8
					c2.7-1.4,5.9-1.2,9-1c3.4,0.2,6.8,0.5,10.2,0.7c1.9,0.1,3.8,0.3,5.7-0.2c1.2-0.3,2.4-0.9,3.6-1.3c3.8-1.2,8.1-0.4,11.2,2
					c3.1,2.5,4.8,6.5,4.5,10.5c-0.1,1.1-0.3,2.1-0.1,3.2c0.6,2.6,3.9,4.1,3.8,6.7c-0.1,3.2-4.9,3.9-6.7,6.6
					c-1.1,1.8-0.7,4.1-0.9,6.3c-0.1,2.1-1.5,4.6-3.6,4.4c-1.7-0.2-2.7-2.2-2.5-4c0.2-1.7,1.1-3.3,1.8-4.9c0.7-1.6,1.1-3.6,0.1-5
					c-0.8-1.2-2.3-1.8-3.7-1.4c-1.4,0.4-2.4,1.8-2.4,3.2c0,0.5,0.1,1,0,1.5c-0.2,0.8-0.6,1.6-1.4,1.6c-3.1,2.5-7.1,3.4-10.4,5.6
					c-3.3,2.2-5.9,6.6-3.8,10c1.7,2.7,5.5,3.3,7.8,5.6c1.3,1.3,1.9,3,2.3,4.8c1.9,9.3-6,19.3-15.5,19.7c-0.7,0-1.5,0-2.2,0.3
					c-2.5,1.1-1.9,4.8-0.6,7.2c1.5,2.8,3.4,5.5,4,8.6c0.6,3.1-0.3,6.9-3.2,8.3c-2.4,1.2-5.2,0.4-7.9,0.9c-2.6,0.4-5.2,3.6-3.4,5.5
					c2,1.1,3.9,2.8,4.3,5c0.4,2.3-1.6,4.9-3.8,4.4c-2.2-0.5-3.3-3.7-5.6-3.7c-1.7,1.3-0.5,3.9,0.7,5.7c1.2,1.8,2,4.6,0.1,5.6
					c-3.4-4.3-5.3-9.8-5.4-15.3c-1.1,0.2-2.2,0.3-3.3,0.5c-2-1.4-2.4-4.1-3.3-6.4c-1-2.2-3.9-4.3-5.7-2.6c-1.4,1.3-0.8,3.9-2,5.4
					c-1,1.2-2.8,1.4-3.9,2.4c-1.4,1.4-1.2,3.6-1.3,5.6c-0.2,2-1.5,4.3-3.4,3.9c-1.9-6.6-5.6-12.6-10.7-17.3c-0.6-0.5-1.2-1-1.8-1.4
					c-1-0.5-2.1-0.7-3.2-0.9c-4.4-0.8-8.6-2.1-12.7-3.9c-2.3-1-5.2-2.1-6.9-0.3c2.4,2.8,5.6,5.6,9.3,5.2c0.6-0.1,1.2-0.2,1.8-0.1
					c1.6,0.3,2.3,2.2,1.9,3.7c-0.4,1.5-1.7,2.7-3,3.6c-4,3-8.6,5-13.5,5.9c-2.4-5.1-5.1-9.9-8.1-14.6c-0.8-1.3-3.1-2.5-3.6-1.1
					c-0.2,0.5,0.1,1.1,0.3,1.7c1.9,3.9,3.8,7.9,5.7,11.8c0.6,1.3,1.3,2.7,2.3,3.7c3.1,2.9,8,1.8,12,0.6c-0.8,5.3-3.7,10.3-8.1,13.5
					c-2.9,2.1-6.7,4-7.2,7.5c-0.3,2.2,0.9,4.3,1.7,6.4c0.8,2.1,1.2,4.7-0.4,6.3c-0.7,0.7-1.7,1.1-2.6,1.5c-3.3,1.7-5.6,5.3-5.7,9
					c0,1.2,0.1,2.5-0.1,3.7c-0.9,4.3-6.5,5.6-10.9,5.3c-0.9-0.1-1.8-0.2-2.5-0.6c-1.6-1-1.6-3.3-1.9-5.1c-1.2-6.8-9.2-12.3-7.3-19
					c0.4-1.5,1.3-2.8,1.3-4.3c0.1-2.9-2.9-4.9-4.5-7.3c-1.5-2.3-1.7-5.3-0.7-7.8c-0.9,1.1-2.7,0.6-3.7-0.3c-1.1-0.9-1.9-2.1-3.2-2.7
					c-1.3-0.5-2.8-0.2-4.2,0c-6.1,0.8-12.6-1.5-16.3-6.4c-3.7-4.9-4-12.3-0.2-17c3.5-4.4,9.8-6.3,12.4-11.3c4,2.8,9-2.2,13.8-2.8
					c1.1-0.1,2.4,0.1,3,1.1c0.4,0.7,0.3,1.5,0.5,2.3c0.6,2.9,4.2,4,7.2,3.7c2.9-0.3,5.8-1.6,8.7-1.3c2.7,0.3,5.1,1.8,7.8,1.9
					c2.7,0.1,5.7-2.6,4.3-4.9c-1.9-3.3-8.2,0.4-10.5-2.6c-0.8-1-0.8-2.5-1.3-3.7c-0.6-1.2-2.5-1.9-3.1-0.7c1,1.4,0,3.8-1.7,4.1
					c-1.1-5-5.1-9.3-10-10.8c-0.8,1.3,0.1,3,1.1,4.1c1.1,1.1,2.4,2.1,2.6,3.6c0.2,1.5-1.9,3-2.8,1.9c-0.3-3.3-2.4-6.3-5.3-7.9
					c-0.7,1.1-2.2,1.1-3.5,1.4c-2.2,0.5-4.1,2.3-4.7,4.5c-0.3,1-0.3,2.1-1,2.9c-0.7,0.8-1.8,1.1-2.9,1.2c-2.7,0.2-5.6-0.7-7.1-3
					c-1.4-2.3-0.5-5.9,2.1-6.6c1.5-0.4,3.1,0.2,4.6,0.3c1.5,0.1,3.5-0.7,3.5-2.2c0-2.6-4.9-2.8-5-5.4c3.5-0.9,6.9-2.2,10.2-3.7
					c-0.1-2.4,2.5-4.1,4.9-4.3c2.4-0.2,4.8,0.5,7.1,0.3c2.4-0.2,5-1.7,5.1-4.1c0-1.2-0.6-2.6,0.1-3.6c1.2-1.7,5-0.3,5.3-2.4
					c0.2-1.9-2.9-1.5-4.8-2c-1.8-0.5-2.8-2.8-2-4.5c0.5-0.9,1.3-1.5,1.8-2.4c0.4-0.9,0.1-2.3-0.9-2.3c-4.4,0.6-6.5,6-5.8,10.3
					c0.2,1.5,0.7,2.9,0.4,4.4c-0.3,1.4-1.9,2.7-3.2,2.2c-1.2-0.5-1.5-2-2.4-3c-1.2-1.2-3.2-1.2-4.4-2.4c-1.5-1.5-1-4,0.2-5.7
					c1.2-1.7,2.9-3,4-4.7c1.7-2.8,1.4-6.5,3.1-9.4c2-3.3,6.3-4.6,10.2-4.1c3.8,0.5,7.3,2.5,10.6,4.4c1.8,1.1,3.9,3.3,2.5,4.9
					c-1.6,1.8-5-0.6-6.8,1c0.1,2.6,3.2,4.2,5.7,3.8c2.5-0.4,4.6-2.2,6.5-3.9c2.5-2.3,5.1-4.6,7.6-6.9
					C226.2,58.8,230.2,56.5,232.7,58.9L232.7,58.9z M299.2,161.6c-3.5-5.1,7.9-6.3,10.9-5.7c1.9,0.4,2.5,0.3,2.1,2.2
					c-0.2,1-3.5,5.6-4.5,6.2c-1.4,1-3.4,0.4-5-0.2C301.3,163.4,300,162.7,299.2,161.6L299.2,161.6z M287.9,160.9
					c-1.1-2-2.6-4-3.5-5.9c3.4-1.6,8.9,5.1,10.3,7.8c0.5,0.9,0.9,1.9,1.5,2.8c1.4,2.1,3.8,3.3,6.1,4.2c2.4,0.8,4.9,1.3,7.2,2.3
					c0.8,0.4,1.8,1.3,1.1,2C301.4,174.2,292.4,169,287.9,160.9L287.9,160.9z M311.9,179.6c2.6-2.9,7.2-5.7,11.2-5.2
					c3.3,0.4,5.7,4.8,8.7,4.7c-1-4.5,2.7-4.1,4.6-1c0.9,1.6,1.2,3.4,1.4,5.2c4.5,3.5,9.6,8,8.9,13.7c-0.3,2.9-2.2,5.4-4,7.8
					c-1.4,1.8-2.7,3.5-4.1,5.3c-0.7,0.9-1.3,1.8-2.3,2.3c-2.7,1.7-6.6,0.1-8.3-2.6c-2-3.1-2.3-7.5-5.5-9.3c-3-1.6-6.6,0.1-9.7,1.7
					c-3,1.6-6.9,3.1-9.6,1c-0.6-0.4-1.1-1.1-1.1-1.8c0-0.6,0.3-1.2,0.5-1.8c1.1-2.9-0.3-6-1-9c-0.7-3,0-7,3-7.7c1-0.2,2.1,0,3.1-0.2
					C309.7,182.6,310.8,181,311.9,179.6L311.9,179.6z M330.4,95.2c1.1-2.4,1.1-8.4,3.5-9.6c4-2,3.5,3,3.5,5.4c0,1.7,0,3.6-0.7,5.2
					c-0.5,1.2-1.4,2.1-2.2,3.1c-1.8,2.3-3.3,5-4.4,7.8c-1.1,2.9-2.1,6.4-5,7.3c-1.4-4.4-0.8-9.4,1.5-13.4
					C327.8,99,329.4,97.2,330.4,95.2z M313.7,132.8c0.5-0.4,3.6-2.8,3.8-1.2c0.1,0.4-0.2,0.8-0.4,1.2c-0.6,1-1,2.1-1.3,3.3
					c-0.3,1.2-0.6,2.5-1.6,3.2c-0.1,0.1-0.2,0.1-0.3,0.1c-0.2,0-0.3-0.2-0.3-0.4l-1.1-2.7c-0.2-0.4-0.3-0.8-0.3-1.2
					C312.1,134.2,312.9,133.4,313.7,132.8L313.7,132.8z"/>
				<g class="st3">
					<path class="st4" d="M108.9,153.8c-2.5-3-6.2-4.7-9.8-6.4c-1.3-0.6-2.9-1.3-4.3-0.8c-0.6,0.2-1.1,0.5-1.6,0.6
						c-1.6,0.3-2.8-1.2-4.3-1.9c-2.9-1.6-7.1,0.7-7.4,4c-1.5,0.5-4.3,0.1-5.2-1.3c-0.6-1-0.9-2.3-1.9-2.8c-0.6-0.2-1.3-0.1-1.7-0.6
						c-0.8-0.7-0.2-1.9,0-2.9c0.2-1.6-1-3.1-2.5-3.8c-1.5-0.7-3.1-0.8-4.8-0.8c-1.6-0.1-3.3-0.1-4.8-0.9c-2.8-1.4-4-5.3-2.8-8.2
						c1.2-2.9,4.5-4.7,7.7-4.6c3.1,0.1,6.4,2.4,6.4,5.5c0,0.8,1.3,0.9,2,0.5c0.7-0.4,1-1.2,1.2-1.9c0.2-0.8,0.2-1.6,0.4-2.3
						c0.5-1.7,2.3-3,4.1-3c1.9,0,3.2-1.9,4.6-3.2c1.3-1.3,2.2-3.4,1.6-5.2c-0.3-1-0.9-2-0.6-2.9c0.3-0.8,1-1.2,1.8-1.5
						c2.1-0.9,4.3-1.3,6.5-1.2c1.9,0.1,2.9-1.1,3.9-2.8c0.7-1.2,1-2.7,2.2-3.5c1.7-1.2,4.1-0.1,6.1-0.3c3.1-0.2,5.4-3.6,4.6-6.6
						c-0.4-1.4-1.4-2.5-2.2-3.8c-1.1-1.7-1.9-3.6-2.3-5.5c-0.4-1.8-0.5-3.8-1.7-5.2c-1.9,0.1-4.1,0-5.8,0.9
						c-0.3-1.9-0.7-3.9-1.9-5.4c-1.2-1.5-3.4-2.4-5.1-1.4c-1.6,1-2,3.2-1.7,5s1.1,3.6,1,5.5s-1.4,4-3.2,3.9c-1,0-1.9-0.6-2.5-1.3
						c-1-1-1.8-2.3-3-2.9c-1-0.5-2.1-0.4-3.1-0.7c-3.6-0.8-6-4.9-5-8.4c1-3.5,5.2-5.8,8.7-4.6c4.2-1.5,5.9-6.8,4.2-11
						c-1.7-4.1-6.2-6.7-10.7-6.9c-1.3-0.1-2.6,0.1-3.9-0.3c-3.6-0.9-5.5-4.9-8.6-6.8c-2.1-1.3-6.8-0.1-9.1-0.9"/>
					<path class="st4" d="M44.7,46.4c-1.9-1.8-4.1-3.5-6.4-4.7c-1.5-0.8-3.4-1.6-3.8-3.3c-0.8-2.7-5.3-3.7-8-3.1
						c-3.4-0.9-7.3,0.3-10.1,2.5c-1.2,1,0.2,3.5,1.2,4.6c1,1.2,2.4,2.5,2.1,4c-1.3,0.6-3,0.7-4.4,0.6c-0.8,0-1.7-0.2-2.5,0
						c-0.8,0.2-1.5,1.1-1.2,1.9c-0.6,1-1.2,1.5-0.6,2.4c0.5,0.7,1.3,1.3,1.3,2.1c0,0.7-0.6,1.2-1.2,1.5c-0.6,0.3-1.3,0.5-1.9,0.8
						c-1.8,1.1-1.8,3.7-1.6,5.9c1.2,1.4,1.4,3.9,0.8,5.7c-0.2,0.7-0.6,1.4-0.3,2c0.3,0.8,1.2,1.1,2,1.3c1.7,0.4,3.6,0.8,5-0.3
						c3.5-2.9,8.9-1.4,13.4-0.4c1.5,0.3,3.1,0.9,4,2.2c1.2,1.7,0.7,4.1-0.3,6c-1,1.8-2.4,3.5-3,5.5c-0.6,1.9-0.4,3.9-0.3,5.8
						c0.2,2.4,0.5,4.9,1.9,6.9c1.5,2.1,2.4,5.2,2.3,7.7c-0.1,2-0.8,4-0.6,6.1c0.3,3.7,3.5,6.4,6.7,8.2c3.4,1.9,6.3,5,7.5,8.7
						c0.6,1.8,0.8,3.8,1.3,5.7c0.9,3.2,2.8,6.2,5.5,8.3c1.9,1.5,5.1,2.1,7.5,2.5c1.2,0.2,2.6,0.4,3.5,1.3c0.4,0.4,0.7,0.9,1.2,1.3
						c2,2,5.7,1.2,7.7,3.1c0.5,0.5,0.9,1.2,1.3,1.7c1.2,1.5,3.3,2.4,5.2,2.2c-0.5,1.5,1.3,3.2,0.8,4.7c-0.4,1.2-1.8,1.7-2.7,2.5
						c-1.6,1.5-1.9,4-1.2,6.1c0.7,2.1,2.2,3.8,3.6,5.4c2.7,3,6,4.5,8.9,7.3c2.7,2.6,3.3,6.8,2.7,10.5c-0.6,3.7-2.2,7.2-3.4,10.7
						c-2.2,6.7-2.7,14-0.6,20.7c2.1,6.7,6.9,12.7,13.4,15.3c0.7,0.3,1.6-0.2,2.1-0.8s0.6-1.5,0.3-2.2c-1.2-2.2-3.3-4-4.8-5.9
						c-0.5-0.6-1-1.3-0.9-2.1c0.1-0.9,0.8-1.5,1.4-2.2c0.8-1,1.3-2.3,1.2-3.7c0-1.2-0.8-2.4-0.7-3.7c0-1.2,0.7-2.5,1.9-2.9
						c0.5-0.2,1.1-0.2,1.6-0.4c1.7-0.7,1.4-3.3,2.6-4.7c0.6-0.6,1.4-1,2.2-1.3c3.3-1.6,6-4.7,6.3-8.3c0.2-2.9-0.8-6.4,1.4-8.3
						c2-1.7,5.1-0.6,7.8-1c1.1-0.2,1.8-1.2,2.3-2.1s0.6-2.1,0.4-3.2c-0.2-1.3-0.8-2.6-0.7-3.9c0.2-1.9,1.6-3.3,2.8-4.8
						c1.3-1.8,2.3-3.8,2.8-6c0.6-2.5-1-5.4-3.2-6.6c-2.2-1.2-4.9-1.3-7.4-1.3"/>
					<path class="st4" d="M144.5,65.4c3.3-2.6,2.8-7.6,3.7-11.7c1.5-6.9,7.5-11.9,9.8-18.6c0.5-1.3,0.8-2.7,0.7-4
						c-0.1-4.4-3.8-8.1-8-9.6c-5.2-1.8-10.4-0.7-15.7-0.9c-2.9-0.1-6.1-1.4-8.9-0.2c-4.3,1.8-3,6.1-5.9,8.6c-2.4,2.2-7,0.5-8.9,3.5
						c-1.4,2.1,0.2,5,2.2,6.5c2,1.5,4.5,2.4,6.1,4.4c2.6,3.1,1.8,7.8,0.4,11.6c-1.4,3.8-3.4,7.6-2.9,11.7c0.2,1.9,1,3.7,2,5.3
						c1,1.6,2.3,3.1,4.1,3.5c2.3,0.6,4.6-0.8,6.3-2.4c1.7-1.6,3.2-3.5,5.3-4.5"/>
					<path class="st4" d="M300.5,116.9c-1.3-2.4-1.9-6.1,0.6-7.2c0.7-0.3,1.4-0.3,2.2-0.3c9.5-0.4,17.4-10.5,15.5-19.8
						c-0.4-1.8-1-3.5-2.3-4.8c-2.3-2.3-6.1-2.8-7.8-5.6c-2.1-3.4,0.5-7.8,3.8-10c3.3-2.2,7.3-3.1,10.4-5.6c0.8,0,1.3-0.8,1.4-1.6
						c0.1-0.5,0-1,0-1.5c0-1.4,1-2.8,2.4-3.2c1.4-0.4,2.9,0.2,3.7,1.4c0.9,1.5,0.6,3.4-0.1,5c-0.7,1.6-1.6,3.2-1.8,4.9
						c-0.2,1.7,0.8,3.8,2.5,4c2.1,0.2,3.5-2.3,3.6-4.4c0.1-2.1-0.3-4.5,0.9-6.3c1.7-2.7,6.6-3.4,6.7-6.6c0.1-2.6-3.2-4.2-3.8-6.7
						c-0.2-1,0-2.1,0.1-3.2c0.4-3.9-1.4-8-4.5-10.5c-3.1-2.5-7.4-3.3-11.2-2c-1.2,0.4-2.4,1-3.6,1.3c-1.8,0.5-3.8,0.4-5.7,0.2
						c-3.4-0.2-6.8-0.5-10.2-0.7c-3-0.2-6.3-0.4-9,1c-3.9,2.1-6.2,7.2-10.6,7.8"/>
					<path class="st4" d="M274.9,39.6c-4.7-1.9-10.4-1-14.4,2.2c-1.5-0.8-1-3-1.5-4.5c-0.5-1.6-2.3-2.6-4-2.8
						c-1.7-0.2-3.4,0.4-5.1,0.9c-3.6,1.2-7.7,3.1-8,6.9c-0.1,1,0.1,2.2-0.3,3.1c-0.6,1.4-2.3,1.8-3.4,2.9c-1.3,1.3-1.5,3.2-1.5,5
						c-0.1,1.8-0.1,3.7-1.1,5.2s-6.5,2.2-7.7,0.9c-2.5-2.4-6.5-0.1-9.1,2.2c-2.5,2.3-5.1,4.6-7.6,6.9c-1.9,1.7-4,3.5-6.5,3.9
						c-2.5,0.4-5.6-1.2-5.7-3.8c1.7-1.6,5.2,0.8,6.8-1c1.4-1.6-0.7-3.8-2.5-4.9c-3.3-1.9-6.8-3.9-10.6-4.4
						c-3.8-0.5-8.2,0.8-10.2,4.1c-1.7,2.8-1.4,6.5-3.1,9.4c-1.1,1.8-2.8,3.1-4,4.7c-1.2,1.7-1.7,4.2-0.2,5.7
						c1.2,1.2,3.2,1.2,4.4,2.4c0.9,0.9,1.2,2.5,2.4,3c1.4,0.6,2.9-0.7,3.2-2.2c0.3-1.4-0.1-2.9-0.4-4.4c-0.7-4.3,1.5-9.7,5.8-10.3
						c1,0,1.3,1.5,0.9,2.3c-0.4,0.9-1.3,1.5-1.8,2.4c-0.9,1.6,0.1,4,2,4.5c1.9,0.5,5,0.1,4.8,2c-0.3,2.1-4.1,0.7-5.3,2.4
						c-0.7,1-0.1,2.4-0.1,3.6c0,2.4-2.7,3.9-5.1,4.1c-2.4,0.2-4.8-0.5-7.1-0.3c-2.4,0.2-5,1.9-4.9,4.3c-3.3,1.5-6.7,2.8-10.2,3.7
						c0.1,2.6,5,2.8,5,5.4c0,1.6-1.9,2.4-3.5,2.2c-1.5-0.1-3.1-0.7-4.6-0.3c-2.6,0.7-3.5,4.3-2.1,6.6s4.4,3.2,7.1,3
						c1.1-0.1,2.2-0.4,2.9-1.2c0.6-0.8,0.7-1.9,1-2.9c0.6-2.2,2.5-4,4.7-4.6c1.3-0.3,2.8-0.3,3.5-1.4c2.9,1.6,4.9,4.6,5.3,7.9
						c0.9,1.2,3-0.3,2.8-1.9c-0.2-1.5-1.5-2.6-2.6-3.6c-1.1-1.1-1.9-2.8-1.1-4.1c4.9,1.5,8.9,5.8,10,10.8c1.7-0.3,2.7-2.7,1.7-4.1
						c0.5-1.2,2.5-0.5,3.1,0.7c0.6,1.2,0.5,2.7,1.3,3.7c2.3,3,8.6-0.7,10.5,2.6c1.3,2.3-1.7,5-4.3,4.9c-2.7-0.1-5.1-1.6-7.8-1.9
						c-2.9-0.3-5.8,1-8.7,1.3s-6.5-0.8-7.2-3.7c-0.2-0.8-0.1-1.6-0.5-2.3c-0.6-1-1.9-1.2-3-1.1c-4.9,0.6-9.8,5.6-13.8,2.8
						c-2.6,5-8.9,6.9-12.4,11.3c-3.8,4.8-3.5,12.2,0.2,17.1c3.7,4.9,10.3,7.2,16.3,6.4c1.4-0.2,2.9-0.5,4.2,0
						c1.3,0.5,2.1,1.8,3.2,2.7c1.1,0.9,2.8,1.3,3.7,0.3c-1,2.5-0.7,5.5,0.7,7.8c1.6,2.5,4.5,4.4,4.5,7.3c0,1.5-0.9,2.9-1.3,4.3
						c-1.9,6.7,6,12.2,7.3,19c0.3,1.8,0.3,4.1,1.9,5.1c0.7,0.5,1.6,0.6,2.5,0.6c4.4,0.3,10-1,10.9-5.3c0.3-1.2,0.1-2.5,0.1-3.7
						c0.1-3.7,2.4-7.3,5.7-9c0.9-0.5,1.9-0.8,2.6-1.5c1.6-1.6,1.2-4.2,0.4-6.3c-0.8-2.1-2-4.2-1.7-6.4c0.5-3.6,4.3-5.4,7.2-7.6
						c4.4-3.2,7.3-8.2,8.1-13.5c-4,1.3-8.9,2.3-12-0.6c-1.1-1-1.7-2.3-2.3-3.7c-1.9-4-3.8-7.9-5.7-11.9c-0.2-0.5-0.5-1.1-0.3-1.7
						c0.6-1.5,2.8-0.2,3.6,1.1c3,4.7,5.8,9.6,8.1,14.7c4.9-0.9,9.6-2.9,13.5-5.9c1.3-0.9,2.5-2.1,3-3.6c0.4-1.5-0.4-3.5-1.9-3.8
						c-0.6-0.1-1.2,0-1.8,0.1c-3.7,0.4-6.9-2.4-9.3-5.2c1.6-1.8,4.6-0.8,6.9,0.3c4,1.9,8.3,3.2,12.7,3.9c1.1,0.2,2.2,0.4,3.2,0.9
						c0.7,0.4,1.3,0.9,1.9,1.4c5,4.6,8.8,10.7,10.7,17.3c1.9,0.4,3.3-1.9,3.4-3.9c0.2-2-0.1-4.2,1.3-5.6c1.1-1.1,2.9-1.2,3.9-2.4
						c1.2-1.5,0.6-4.1,2-5.4c1.8-1.7,4.7,0.4,5.7,2.6c1,2.3,1.3,5,3.3,6.4c1.1-0.2,2.2-0.3,3.3-0.5c0,5.5,1.9,11,5.4,15.4
						c1.9-1,1-3.8-0.1-5.6c-1.2-1.8-2.3-4.4-0.7-5.7c2.3,0,3.4,3.2,5.6,3.7c2.2,0.5,4.2-2.1,3.8-4.4c-0.4-2.3-2.3-3.9-4.3-5
						c-1.8-2,0.8-5.1,3.4-5.5c2.6-0.4,5.5,0.3,7.9-0.9c2.8-1.4,3.8-5.2,3.2-8.3"/>
					<path class="st4" d="M294.2,162.2c0.8,1.2,2.2,1.9,3.5,2.5c1.6,0.7,3.6,1.2,5,0.2c1-0.7,4.3-5.2,4.5-6.2
						c0.4-1.9-0.2-1.8-2.1-2.2C302.1,155.8,290.7,157,294.2,162.2z"/>
					<path class="st4" d="M290,168.6c-0.6-0.9-1-1.9-1.5-2.8c-1.4-2.7-6.8-9.5-10.3-7.8c0.9,1.9,2.4,3.9,3.5,5.9
						c4.4,8.1,13.5,13.3,22.7,13.2c0.6-0.7-0.3-1.6-1.1-2c-2.3-1-4.8-1.5-7.2-2.3"/>
					<path class="st4" d="M317.7,201.4c3.2,1.8,3.5,6.2,5.5,9.3c1.7,2.7,5.6,4.3,8.3,2.6c0.9-0.6,1.6-1.5,2.3-2.3
						c1.4-1.8,2.7-3.6,4.1-5.3c1.8-2.4,3.7-4.9,4-7.8c0.7-5.7-4.4-10.2-8.9-13.7c-0.2-1.8-0.5-3.7-1.4-5.3c-1.9-3.2-5.6-3.5-4.6,1
						c-3,0.1-5.4-4.3-8.7-4.7c-4-0.5-8.7,2.3-11.3,5.2c-1.2,1.3-2.3,2.9-4,3.3c-1,0.2-2.1,0-3.1,0.2c-3,0.7-3.7,4.7-3,7.7
						c0.7,3,2.1,6.1,1,9c-0.2,0.6-0.6,1.1-0.5,1.8c0,0.7,0.5,1.4,1.1,1.8c2.7,2.1,6.6,0.6,9.6-1"/>
					<path class="st5" d="M329.3,94c1.3-2.7,1.2-9.5,4-10.9c4.6-2.3,4,3.4,4,6.2c0,2,0.1,4.1-0.8,5.9c-0.6,1.3-1.6,2.4-2.5,3.6
						c-2.1,2.7-3.8,5.7-5,8.9c-1.2,3.3-2.4,7.3-5.7,8.4c-1.5-5-0.9-10.7,1.7-15.3C326.4,98.4,328.2,96.3,329.3,94z"/>
				</g>
			</g>
		</g>
	</g>
</g>
<g id="_x32_">
	<g>
		<rect class="st9" width="360" height="280"/>
	</g>
	<g>
		<g>
			<rect x="217.1" y="101.6" class="st23" width="60" height="50"/>
			<g>
				<path class="st11" d="M246.2,117.9v0.9h-9.8v-0.9h3.2v-1.8h-2.4v-3.8h2.4v-1.6h-2.9v-0.9h9.4v0.9h-3v1.6h2.5v3.8H243v1.8H246.2z
					 M240.5,115.2v2.7h1.4v-2.7h2.4v-2H242v-2.4h-1.4v2.4h-2.4v2H240.5z"/>
				<path class="st11" d="M249.6,114.1c-0.4-0.3-1.2-0.8-1.8-1.1l0.6-0.7c0.6,0.3,1.4,0.7,1.9,1L249.6,114.1z M248,118.6
					c0.4-0.8,1-2.2,1.5-3.5l0.8,0.5c-0.4,1.2-0.9,2.5-1.4,3.5L248,118.6z M250,111.2c-0.4-0.3-1.2-0.8-1.8-1.2l0.6-0.7
					c0.6,0.3,1.4,0.8,1.8,1.1L250,111.2z M253.3,112.5c0.3,0.8,0.6,1.8,0.8,2.4l-0.7,0.3c-0.1-0.6-0.4-1.5-0.6-2.2v0.3
					c0,2.1-0.2,4.4-1.5,6.1c-0.2-0.2-0.6-0.5-0.9-0.6c0.9-1.1,1.2-2.3,1.3-3.6l-0.7,0.3c-0.1-0.7-0.4-1.8-0.7-2.6l0.7-0.3
					c0.3,0.7,0.5,1.5,0.7,2.1c0-0.5,0-0.9,0-1.4v-3.7h1v3.3L253.3,112.5z M257.4,109.5v9.8h-1v-4.3l-0.5,0.3
					c-0.1-0.6-0.5-1.4-0.8-2.1v5.9h-0.9v-9.4h0.9v2.9l0.4-0.2c0.4,0.6,0.7,1.4,0.9,2v-4.8H257.4z"/>
				<path class="st11" d="M220.8,128.3c0-2.2,0.6-4,1.6-5.6l0.8,0.3c-0.9,1.6-1.4,3.4-1.4,5.3c0,1.8,0.4,3.7,1.4,5.3l-0.8,0.4
					C221.4,132.2,220.8,130.4,220.8,128.3z"/>
				<path class="st11" d="M233.4,123.2v9.2h-1.1v-0.7h-5.2v0.7h-1v-9.3H233.4z M227.2,124.2v2.7h5.2v-2.7H227.2z M232.4,130.7v-2.8
					h-5.2v2.8H232.4z"/>
				<path class="st11" d="M243,125.7c0.8,1.7,2,3.4,3.4,4.2c-0.3,0.2-0.6,0.6-0.8,0.9c-0.5-0.3-0.9-0.7-1.3-1.2v1h-2.4v1.9h-1.1
					v-1.9h-2.4v-1c-0.4,0.5-0.9,0.9-1.4,1.3c-0.2-0.3-0.5-0.6-0.8-0.8c1.4-0.9,2.6-2.6,3.4-4.3h-3v-1h4.2v-2.2h1.1v2.2h4.3v1H243z
					 M240.7,129.6v-3.8h-0.1c-0.5,1.4-1.3,2.8-2.3,3.8H240.7z M244.2,129.6c-0.9-1.1-1.7-2.4-2.2-3.8h-0.1v3.8H244.2z"/>
				<path class="st11" d="M252.4,129.5c-1.5,0.7-3.1,1.4-4.3,1.9l-0.4-1.1c0.4-0.2,0.9-0.4,1.5-0.6l-0.2-6.6l1.1,0l0.2,6.2
					c0.6-0.3,1.3-0.5,1.9-0.8L252.4,129.5z M257.1,132.5c-0.5-0.7-1.4-1.8-2.3-2.8c-0.8,1.2-2,2.1-3.6,2.8c-0.1-0.2-0.6-0.7-0.8-0.9
					c3.7-1.4,4.8-4,5.2-8.6l1.1,0.1c-0.3,2.3-0.7,4.2-1.4,5.6c0.9,1,2,2.1,2.6,2.9L257.1,132.5z M253,126.9c-0.3-0.7-1-1.9-1.7-2.7
					l0.9-0.5c0.7,0.8,1.4,1.9,1.7,2.6L253,126.9z"/>
				<path class="st11" d="M264.1,124.1l0.7,0.2c-0.5,4.4-2.2,7-4.6,8.3c-0.2-0.3-0.6-0.7-0.9-0.8c1.3-0.6,2.3-1.6,3.1-3
					c-0.4-0.5-1-1.2-1.6-1.7c-0.2,0.4-0.4,0.7-0.6,0.9c-0.2-0.2-0.6-0.5-0.9-0.6c1-1.1,1.7-2.9,2-4.8l1,0.2c-0.1,0.5-0.2,1-0.4,1.5
					h1.9L264.1,124.1z M261.7,125.1c-0.1,0.4-0.3,0.7-0.4,1.1c0.5,0.5,1.2,1.1,1.6,1.6c0.3-0.8,0.5-1.6,0.7-2.6H261.7z M266.9,125.8
					c0.9,0.7,2,1.8,2.6,2.5l-0.9,0.7c-0.4-0.6-1.3-1.5-2.1-2.2v5.8h-1.1v-10.1h1.1v3.6L266.9,125.8z"/>
				<path class="st11" d="M271,133.5c0.9-1.6,1.4-3.4,1.4-5.3c0-1.8-0.4-3.7-1.4-5.3l0.8-0.3c1,1.7,1.6,3.5,1.6,5.6
					c0,2.2-0.6,4-1.6,5.6L271,133.5z"/>
			</g>
			<g>
				<path class="st11" d="M239.3,144.7v-5.3l-1.2,0.7l-0.7-1.3l2.1-1.2h1.4v7.1H239.3z"/>
				<path class="st11" d="M244.5,137.5c0.5,0,0.9,0.1,1.2,0.2c0.3,0.1,0.5,0.3,0.7,0.5c0.2,0.2,0.3,0.4,0.4,0.7
					c0.1,0.3,0.1,0.5,0.1,0.8v2.7c0,0.5-0.1,0.9-0.2,1.2c-0.2,0.3-0.4,0.6-0.7,0.8c-0.3,0.2-0.7,0.3-1.1,0.4s-0.9,0.1-1.4,0.1
					c-0.2,0-0.4,0-0.6,0c-0.2,0-0.4,0-0.5-0.1l0.1-1.3c0.1,0,0.2,0,0.4,0c0.1,0,0.3,0,0.4,0c0.7,0,1.2-0.1,1.5-0.2s0.5-0.5,0.5-0.9
					v-0.5c-0.2,0.1-0.4,0.1-0.6,0.1s-0.4,0-0.6,0c-0.6,0-1.1-0.1-1.4-0.4s-0.5-0.8-0.5-1.4v-0.5c0-0.3,0-0.5,0.1-0.8
					c0.1-0.3,0.2-0.5,0.4-0.7s0.4-0.4,0.7-0.5C243.6,137.5,244,137.5,244.5,137.5z M244.5,138.8c-0.3,0-0.5,0.1-0.6,0.2
					c-0.1,0.1-0.2,0.3-0.2,0.5v0.5c0,0.2,0.1,0.4,0.2,0.4c0.1,0.1,0.2,0.1,0.4,0.1c0.2,0,0.4,0,0.5-0.1c0.2,0,0.3-0.1,0.4-0.1v-0.8
					c0-0.3-0.1-0.4-0.2-0.5C245,138.9,244.8,138.8,244.5,138.8z"/>
				<path class="st11" d="M251.4,139.7c0,0.2,0,0.4-0.1,0.6c-0.1,0.2-0.1,0.4-0.3,0.5c-0.1,0.1-0.3,0.3-0.5,0.3
					c-0.2,0.1-0.5,0.1-0.9,0.1s-0.6,0-0.9-0.1c-0.2-0.1-0.4-0.2-0.5-0.3c-0.1-0.1-0.2-0.3-0.3-0.5c-0.1-0.2-0.1-0.4-0.1-0.6v-0.8
					c0-0.2,0-0.4,0.1-0.6c0.1-0.2,0.2-0.4,0.3-0.5c0.1-0.1,0.3-0.3,0.5-0.3c0.2-0.1,0.5-0.1,0.9-0.1s0.6,0,0.9,0.1
					c0.2,0.1,0.4,0.2,0.5,0.3c0.1,0.1,0.2,0.3,0.3,0.5c0.1,0.2,0.1,0.4,0.1,0.6V139.7z M250.2,138.8c0-0.2,0-0.3-0.1-0.4
					c-0.1-0.1-0.2-0.1-0.4-0.1c-0.2,0-0.3,0-0.4,0.1c-0.1,0.1-0.1,0.2-0.1,0.4v1c0,0.2,0,0.3,0.1,0.4c0.1,0.1,0.2,0.1,0.4,0.1
					c0.2,0,0.3,0,0.4-0.1c0.1-0.1,0.1-0.2,0.1-0.4V138.8z M253.2,137.2l1,0.4l-2.9,7.2l-1-0.4L253.2,137.2z M256.6,143.2
					c0,0.2,0,0.4-0.1,0.6c-0.1,0.2-0.1,0.4-0.3,0.5s-0.3,0.3-0.5,0.3c-0.2,0.1-0.5,0.1-0.9,0.1c-0.3,0-0.6,0-0.9-0.1
					c-0.2-0.1-0.4-0.2-0.5-0.3s-0.2-0.3-0.3-0.5c-0.1-0.2-0.1-0.4-0.1-0.6v-0.8c0-0.2,0-0.4,0.1-0.6c0.1-0.2,0.1-0.4,0.3-0.5
					c0.1-0.1,0.3-0.3,0.5-0.3c0.2-0.1,0.5-0.1,0.9-0.1c0.3,0,0.6,0,0.9,0.1c0.2,0.1,0.4,0.2,0.5,0.3c0.1,0.1,0.2,0.3,0.3,0.5
					c0.1,0.2,0.1,0.4,0.1,0.6V143.2z M255.4,142.3c0-0.2,0-0.3-0.1-0.4s-0.2-0.1-0.4-0.1c-0.2,0-0.3,0-0.4,0.1
					c-0.1,0.1-0.1,0.2-0.1,0.4v1c0,0.2,0,0.3,0.1,0.4c0.1,0.1,0.2,0.1,0.4,0.1c0.2,0,0.3,0,0.4-0.1c0.1-0.1,0.1-0.2,0.1-0.4V142.3z"
					/>
			</g>
			
				<use xlink:href="#map-marker"  width="21.5" height="50.3" id="XMLID_34_" x="-10.8" y="-25.1" transform="matrix(0.5102 0 0 -0.5102 247.0682 88.2993)" style="overflow:visible;"/>
		</g>
		<g>
			<rect x="185.2" y="218.4" class="st23" width="60" height="40"/>
			<g>
				<path class="st11" d="M196.4,235.8c-1,0.6-2.5,1.2-3.6,1.6c-0.2-0.2-0.5-0.6-0.7-0.8c1.2-0.3,2.7-0.9,3.4-1.5L196.4,235.8z
					 M202,235.1h-9.7v-0.9h1.9v-4.7h-1.6v-0.9h1.6v-1.2h1v1.2h3.8v-1.2h1v1.2h1.7v0.9H200v4.7h1.9V235.1z M195.2,229.4v0.9h3.8v-0.9
					H195.2z M195.2,232.2h3.8v-1h-3.8V232.2z M195.2,234.1h3.8v-1h-3.8V234.1z M198.5,235.2c1.3,0.4,2.7,1,3.5,1.5l-0.9,0.7
					c-0.7-0.4-2-1-3.3-1.5L198.5,235.2z"/>
				<path class="st11" d="M207,227.6c-0.3,0.8-0.7,1.6-1.1,2.4v7.4h-1v-5.9c-0.3,0.4-0.6,0.8-0.9,1.1c-0.1-0.3-0.4-0.8-0.6-1
					c1-1,2-2.6,2.6-4.2L207,227.6z M212,236.4c0.6,0,0.8-0.3,0.9-1.6c0.2,0.2,0.6,0.3,0.9,0.4c-0.2,1.6-0.5,2.1-1.7,2.1h-2.7
					c-1.4,0-1.8-0.3-1.8-1.7v-3.3l-1,0.4l-0.4-0.9l1.4-0.5v-2.7h1v2.4l1.4-0.5v-2.9h0.9v2.6l1.6-0.6l0.1-0.1l0.8,0.3l0,0.2
					c0,1.6-0.2,3.6-0.4,5l-0.8-0.2c0.1-1,0.2-2.5,0.2-3.9l-1.5,0.6v4h-0.9v-3.6l-1.4,0.6v3.7c0,0.6,0.1,0.8,0.9,0.8H212z"/>
				<path class="st11" d="M218.6,233.2l0.2,0.9c-1.2,0.6-2.4,1.1-3.3,1.6l-0.4-1c0.4-0.1,0.9-0.3,1.5-0.6v-3.2h-1.3v-1h1.3v-2.4h1
					v2.4h1.1v1h-1.1v2.8L218.6,233.2z M223.6,236.3c0.6,0,0.7-0.3,0.8-1.5c0.2,0.2,0.6,0.3,0.9,0.4c-0.1,1.5-0.5,2-1.6,2h-2.5
					c-1.4,0-1.7-0.3-1.7-1.7v-3.2l-0.8,0.3l-0.4-0.9l1.1-0.5v-2.9h1v2.5l1.2-0.5v-3h1v2.6l1.5-0.6l0.8,0.3l0,0.2
					c-0.1,1.5-0.3,3.5-0.5,4.8l-0.8-0.2c0.2-0.9,0.3-2.5,0.3-3.8l-1.2,0.5v3.9h-1v-3.5l-1.2,0.5v3.6c0,0.6,0.1,0.7,0.8,0.7H223.6z"
					/>
				<path class="st11" d="M234.7,236c0.6,0,1.5,0,1.9-0.1c0,0.3,0.1,0.7,0.2,1c-0.3,0.1-1.2,0.1-2.1,0.1H230c-1.8,0-2.6-0.6-2.6-2.3
					v-5.9H227v-0.9h9.2v0.9h-7.8v6c0,0.9,0.4,1.3,1.5,1.3H234.7z M229.1,232.4h2.9v2.9h-2.9V232.4z M229.9,234.6h1.2v-1.4h-1.2
					V234.6z M234.4,231.8h-4.2v-2.5h4.2V231.8z M233.4,230h-2.2v1.1h2.2V230z M235.7,235.3h-3v-2.9h3V235.3z M234.8,233.1h-1.3v1.4
					h1.3V233.1z"/>
			</g>
			<g>
				<path class="st11" d="M209.3,244.8c0.4,0,0.6-0.1,0.7-0.2c0.1-0.1,0.2-0.3,0.2-0.5v-0.5c0-0.2-0.1-0.4-0.2-0.5
					c-0.1-0.1-0.4-0.1-0.7-0.1c-0.2,0-0.5,0-0.7,0c-0.2,0-0.5,0.1-0.8,0.1l-0.2-1.2c0.3-0.1,0.6-0.1,0.9-0.1s0.6,0,0.9,0
					c0.5,0,0.8,0,1.1,0.1s0.5,0.2,0.7,0.3s0.3,0.3,0.4,0.5c0.1,0.2,0.1,0.4,0.1,0.7v0.5c0,0.3-0.1,0.6-0.2,0.9s-0.3,0.4-0.6,0.6
					c0.3,0.1,0.5,0.3,0.7,0.5c0.1,0.2,0.2,0.5,0.2,0.8v0.6c0,0.3,0,0.5-0.1,0.7c-0.1,0.2-0.2,0.4-0.4,0.6c-0.2,0.2-0.4,0.3-0.8,0.4
					c-0.3,0.1-0.7,0.1-1.2,0.1c-0.3,0-0.7,0-0.9,0s-0.6-0.1-0.9-0.2l0.2-1.2c0.3,0.1,0.5,0.1,0.8,0.1c0.2,0,0.5,0,0.8,0
					c0.4,0,0.6,0,0.8-0.1s0.2-0.2,0.2-0.5v-0.5c0-0.4-0.3-0.6-0.8-0.6h-1.5v-1.4H209.3z"/>
				<path class="st11" d="M216.5,244c0,0.2,0,0.4-0.1,0.6c-0.1,0.2-0.1,0.4-0.3,0.5c-0.1,0.1-0.3,0.3-0.5,0.3
					c-0.2,0.1-0.5,0.1-0.9,0.1s-0.6,0-0.9-0.1c-0.2-0.1-0.4-0.2-0.5-0.3c-0.1-0.1-0.2-0.3-0.3-0.5c-0.1-0.2-0.1-0.4-0.1-0.6v-0.8
					c0-0.2,0-0.4,0.1-0.6c0.1-0.2,0.2-0.4,0.3-0.5c0.1-0.1,0.3-0.3,0.5-0.3c0.2-0.1,0.5-0.1,0.9-0.1s0.6,0,0.9,0.1
					c0.2,0.1,0.4,0.2,0.5,0.3c0.1,0.1,0.2,0.3,0.3,0.5c0.1,0.2,0.1,0.4,0.1,0.6V244z M215.3,243.1c0-0.2,0-0.3-0.1-0.4
					c-0.1-0.1-0.2-0.1-0.4-0.1c-0.2,0-0.3,0-0.4,0.1c-0.1,0.1-0.1,0.2-0.1,0.4v1c0,0.2,0,0.3,0.1,0.4c0.1,0.1,0.2,0.1,0.4,0.1
					c0.2,0,0.3,0,0.4-0.1c0.1-0.1,0.1-0.2,0.1-0.4V243.1z M218.3,241.6l1,0.4l-2.9,7.2l-1-0.4L218.3,241.6z M221.7,247.5
					c0,0.2,0,0.4-0.1,0.6c-0.1,0.2-0.1,0.4-0.3,0.5c-0.1,0.1-0.3,0.3-0.5,0.3c-0.2,0.1-0.5,0.1-0.9,0.1c-0.3,0-0.6,0-0.9-0.1
					c-0.2-0.1-0.4-0.2-0.5-0.3c-0.1-0.1-0.2-0.3-0.3-0.5c-0.1-0.2-0.1-0.4-0.1-0.6v-0.8c0-0.2,0-0.4,0.1-0.6
					c0.1-0.2,0.1-0.4,0.3-0.5s0.3-0.3,0.5-0.3c0.2-0.1,0.5-0.1,0.9-0.1c0.3,0,0.6,0,0.9,0.1c0.2,0.1,0.4,0.2,0.5,0.3
					s0.2,0.3,0.3,0.5c0.1,0.2,0.1,0.4,0.1,0.6V247.5z M220.5,246.6c0-0.2,0-0.3-0.1-0.4c-0.1-0.1-0.2-0.1-0.4-0.1
					c-0.2,0-0.3,0-0.4,0.1c-0.1,0.1-0.1,0.2-0.1,0.4v1c0,0.2,0,0.3,0.1,0.4c0.1,0.1,0.2,0.1,0.4,0.1c0.2,0,0.3,0,0.4-0.1
					s0.1-0.2,0.1-0.4V246.6z"/>
			</g>
		</g>
		<g>
			<rect x="145.5" y="41.5" class="st23" width="50" height="40"/>
			
				<use xlink:href="#map-marker"  width="21.5" height="50.3" id="XMLID_33_" x="-10.8" y="-25.1" transform="matrix(0.5102 0 0 0.5102 170.5425 94.6419)" style="overflow:visible;"/>
			<g>
				<path class="st11" d="M167.7,53c0,0.2,0,0.5,0,0.7c0.4,2.2,0.9,3.5,2.1,4.6c-0.2,0.2-0.5,0.5-0.6,0.8c-0.9-0.9-1.5-1.8-1.8-3.1
					c-0.3,1.1-0.8,2.2-1.8,3.1c-0.1-0.2-0.3-0.5-0.5-0.6c-0.3,0-0.6,0-1,0h-2.2c-1.3,0-1.7-0.5-1.7-1.8v-6.3h-0.4v-0.9h5.4v0.9H161
					v6.4c0,0.7,0.2,0.9,0.8,0.9h2.3c0.3,0,0.8,0,1-0.1c0,0.1,0,0.3,0.1,0.5c1.4-1.6,1.6-3.7,1.6-5v-0.8h0.9V53z M161.3,54.2h1.7V57
					h-1.7V54.2z M164.5,53.5h-2.8V51h2.8V53.5z M161.9,56.3h0.6v-1.5h-0.6V56.3z M163.7,51.7h-1.2v1.2h1.2V51.7z M165.1,57h-1.7
					v-2.8h1.7V57z M164.5,54.8h-0.6v1.5h0.6V54.8z M166.5,51.6c-0.2,0.8-0.6,1.6-0.9,2.1c-0.2-0.2-0.6-0.4-0.8-0.5
					c0.7-1,1.1-2.6,1.4-4.2l0.9,0.2c-0.1,0.5-0.2,1-0.3,1.5h2.3l0.2,0l0.7,0.2c-0.2,1-0.5,2.2-0.8,3l-0.8-0.3
					c0.2-0.5,0.4-1.2,0.5-1.9H166.5z"/>
				<path class="st11" d="M173.1,53.9c-0.4-0.3-1.2-0.8-1.8-1.1l0.6-0.7c0.6,0.3,1.4,0.7,1.9,1L173.1,53.9z M171.5,58.4
					c0.4-0.8,1-2.2,1.5-3.5l0.8,0.5c-0.4,1.2-0.9,2.5-1.4,3.5L171.5,58.4z M173.5,51c-0.4-0.3-1.2-0.8-1.8-1.2l0.6-0.7
					c0.6,0.3,1.4,0.8,1.8,1.1L173.5,51z M176.8,52.3c0.3,0.8,0.6,1.8,0.8,2.4l-0.7,0.3c-0.1-0.6-0.4-1.5-0.6-2.2V53
					c0,2.1-0.2,4.4-1.5,6.1c-0.2-0.2-0.6-0.5-0.9-0.6c0.9-1.1,1.2-2.3,1.3-3.6l-0.7,0.3c-0.1-0.7-0.4-1.8-0.7-2.6l0.7-0.3
					c0.3,0.7,0.5,1.5,0.7,2.1c0-0.5,0-0.9,0-1.4v-3.7h1v3.3L176.8,52.3z M180.9,49.3v9.8h-1v-4.3l-0.5,0.3c-0.1-0.6-0.5-1.4-0.8-2.1
					v5.9h-0.9v-9.4h0.9v2.9l0.4-0.2c0.4,0.6,0.7,1.4,0.9,2v-4.8H180.9z"/>
			</g>
			<g>
				<path class="st11" d="M162.6,72.5v-5.3l-1.2,0.7l-0.7-1.3l2.1-1.2h1.4v7.1H162.6z"/>
				<path class="st11" d="M168.9,69.7c-0.3,0.3-0.5,0.6-0.7,0.8s-0.3,0.4-0.5,0.6h2.3v1.4h-4.4v-1.4c0.2-0.2,0.4-0.4,0.5-0.5
					c0.1-0.1,0.2-0.3,0.4-0.4c0.1-0.1,0.2-0.2,0.3-0.4c0.1-0.1,0.2-0.3,0.4-0.5c0.3-0.3,0.5-0.6,0.6-0.7c0.2-0.2,0.3-0.3,0.4-0.5
					c0.1-0.1,0.1-0.3,0.2-0.4c0-0.1,0-0.3,0-0.5v-0.2c0-0.2-0.1-0.3-0.2-0.4s-0.4-0.1-0.7-0.1c-0.1,0-0.3,0-0.4,0
					c-0.2,0-0.3,0-0.5,0s-0.3,0-0.5,0.1c-0.2,0-0.3,0.1-0.4,0.1l-0.2-1.3c0.3-0.1,0.7-0.2,1.1-0.2c0.4-0.1,0.7-0.1,1-0.1
					c0.9,0,1.5,0.1,1.8,0.4c0.4,0.3,0.5,0.7,0.5,1.3v0.3c0,0.3,0,0.5,0,0.7c0,0.2,0,0.3-0.1,0.5s-0.2,0.3-0.3,0.5
					C169.4,69.2,169.2,69.4,168.9,69.7z"/>
				<path class="st11" d="M174.6,67.5c0,0.2,0,0.4-0.1,0.6c-0.1,0.2-0.1,0.4-0.3,0.5c-0.1,0.1-0.3,0.3-0.5,0.3
					c-0.2,0.1-0.5,0.1-0.9,0.1s-0.6,0-0.9-0.1s-0.4-0.2-0.5-0.3c-0.1-0.1-0.2-0.3-0.3-0.5c-0.1-0.2-0.1-0.4-0.1-0.6v-0.8
					c0-0.2,0-0.4,0.1-0.6c0.1-0.2,0.2-0.4,0.3-0.5c0.1-0.1,0.3-0.3,0.5-0.3c0.2-0.1,0.5-0.1,0.9-0.1s0.6,0,0.9,0.1
					c0.2,0.1,0.4,0.2,0.5,0.3c0.1,0.1,0.2,0.3,0.3,0.5c0.1,0.2,0.1,0.4,0.1,0.6V67.5z M173.4,66.6c0-0.2,0-0.3-0.1-0.4
					c-0.1-0.1-0.2-0.1-0.4-0.1c-0.2,0-0.3,0-0.4,0.1c-0.1,0.1-0.1,0.2-0.1,0.4v1c0,0.2,0,0.3,0.1,0.4c0.1,0.1,0.2,0.1,0.4,0.1
					c0.2,0,0.3,0,0.4-0.1c0.1-0.1,0.1-0.2,0.1-0.4V66.6z M176.4,65.1l1,0.4l-2.9,7.2l-1-0.4L176.4,65.1z M179.8,71
					c0,0.2,0,0.4-0.1,0.6c-0.1,0.2-0.1,0.4-0.3,0.5c-0.1,0.1-0.3,0.3-0.5,0.3s-0.5,0.1-0.9,0.1c-0.3,0-0.6,0-0.9-0.1
					s-0.4-0.2-0.5-0.3c-0.1-0.1-0.2-0.3-0.3-0.5c-0.1-0.2-0.1-0.4-0.1-0.6v-0.8c0-0.2,0-0.4,0.1-0.6c0.1-0.2,0.1-0.4,0.3-0.5
					c0.1-0.1,0.3-0.3,0.5-0.3c0.2-0.1,0.5-0.1,0.9-0.1c0.3,0,0.6,0,0.9,0.1c0.2,0.1,0.4,0.2,0.5,0.3c0.1,0.1,0.2,0.3,0.3,0.5
					c0.1,0.2,0.1,0.4,0.1,0.6V71z M178.6,70.1c0-0.2,0-0.3-0.1-0.4c-0.1-0.1-0.2-0.1-0.4-0.1c-0.2,0-0.3,0-0.4,0.1
					c-0.1,0.1-0.1,0.2-0.1,0.4v1c0,0.2,0,0.3,0.1,0.4c0.1,0.1,0.2,0.1,0.4,0.1c0.2,0,0.3,0,0.4-0.1c0.1-0.1,0.1-0.2,0.1-0.4V70.1z"
					/>
			</g>
		</g>
		<g>
			<g>
				<rect x="303" y="33.2" class="st23" width="50" height="40"/>
			</g>
			<g>
				<path class="st11" d="M325,42.2v9.2h-1.1v-0.7h-5.2v0.7h-1v-9.3H325z M318.7,43.3v2.7h5.2v-2.7H318.7z M323.9,49.7v-2.8h-5.2
					v2.8H323.9z"/>
				<path class="st11" d="M334.5,44.8c0.8,1.7,2,3.4,3.4,4.2c-0.3,0.2-0.6,0.6-0.8,0.9c-0.5-0.3-0.9-0.7-1.3-1.2v1h-2.4v1.9h-1.1
					v-1.9h-2.4v-1c-0.4,0.5-0.9,0.9-1.4,1.3c-0.2-0.3-0.5-0.6-0.8-0.8c1.4-0.9,2.6-2.6,3.4-4.3h-3v-1h4.2v-2.2h1.1v2.2h4.3v1H334.5z
					 M332.3,48.6v-3.9h-0.1c-0.5,1.4-1.3,2.8-2.3,3.9H332.3z M335.7,48.6c-0.9-1.1-1.7-2.4-2.2-3.9h-0.1v3.9H335.7z"/>
			</g>
			<g>
				<path class="st11" d="M324.2,61.7c-0.3,0.3-0.5,0.6-0.7,0.8s-0.3,0.4-0.5,0.6h2.3v1.4h-4.4v-1.4c0.2-0.2,0.4-0.4,0.5-0.5
					c0.1-0.1,0.2-0.3,0.4-0.4c0.1-0.1,0.2-0.2,0.3-0.4c0.1-0.1,0.2-0.3,0.4-0.5c0.3-0.3,0.5-0.6,0.6-0.7c0.2-0.2,0.3-0.3,0.4-0.5
					c0.1-0.1,0.1-0.3,0.2-0.4c0-0.1,0-0.3,0-0.5v-0.2c0-0.2-0.1-0.3-0.2-0.4s-0.4-0.1-0.7-0.1c-0.1,0-0.3,0-0.4,0
					c-0.2,0-0.3,0-0.5,0s-0.3,0-0.5,0.1c-0.2,0-0.3,0.1-0.4,0.1l-0.2-1.3c0.3-0.1,0.7-0.2,1.1-0.2c0.4-0.1,0.7-0.1,1-0.1
					c0.9,0,1.5,0.1,1.8,0.4c0.4,0.3,0.5,0.7,0.5,1.3v0.3c0,0.3,0,0.5,0,0.7c0,0.2,0,0.3-0.1,0.5s-0.2,0.3-0.3,0.5
					C324.7,61.2,324.5,61.4,324.2,61.7z"/>
				<path class="st11" d="M329.9,59.5c0,0.2,0,0.4-0.1,0.6c-0.1,0.2-0.1,0.4-0.3,0.5c-0.1,0.1-0.3,0.3-0.5,0.3
					c-0.2,0.1-0.5,0.1-0.9,0.1s-0.6,0-0.9-0.1s-0.4-0.2-0.5-0.3c-0.1-0.1-0.2-0.3-0.3-0.5c-0.1-0.2-0.1-0.4-0.1-0.6v-0.8
					c0-0.2,0-0.4,0.1-0.6c0.1-0.2,0.2-0.4,0.3-0.5c0.1-0.1,0.3-0.3,0.5-0.3c0.2-0.1,0.5-0.1,0.9-0.1s0.6,0,0.9,0.1
					c0.2,0.1,0.4,0.2,0.5,0.3c0.1,0.1,0.2,0.3,0.3,0.5c0.1,0.2,0.1,0.4,0.1,0.6V59.5z M328.7,58.6c0-0.2,0-0.3-0.1-0.4
					c-0.1-0.1-0.2-0.1-0.4-0.1c-0.2,0-0.3,0-0.4,0.1c-0.1,0.1-0.1,0.2-0.1,0.4v1c0,0.2,0,0.3,0.1,0.4c0.1,0.1,0.2,0.1,0.4,0.1
					c0.2,0,0.3,0,0.4-0.1c0.1-0.1,0.1-0.2,0.1-0.4V58.6z M331.7,57.1l1,0.4l-2.9,7.2l-1-0.4L331.7,57.1z M335.1,63
					c0,0.2,0,0.4-0.1,0.6c-0.1,0.2-0.1,0.4-0.3,0.5c-0.1,0.1-0.3,0.3-0.5,0.3s-0.5,0.1-0.9,0.1c-0.3,0-0.6,0-0.9-0.1
					s-0.4-0.2-0.5-0.3c-0.1-0.1-0.2-0.3-0.3-0.5c-0.1-0.2-0.1-0.4-0.1-0.6v-0.8c0-0.2,0-0.4,0.1-0.6c0.1-0.2,0.1-0.4,0.3-0.5
					c0.1-0.1,0.3-0.3,0.5-0.3c0.2-0.1,0.5-0.1,0.9-0.1c0.3,0,0.6,0,0.9,0.1c0.2,0.1,0.4,0.2,0.5,0.3c0.1,0.1,0.2,0.3,0.3,0.5
					c0.1,0.2,0.1,0.4,0.1,0.6V63z M333.9,62.1c0-0.2,0-0.3-0.1-0.4c-0.1-0.1-0.2-0.1-0.4-0.1c-0.2,0-0.3,0-0.4,0.1
					c-0.1,0.1-0.1,0.2-0.1,0.4v1c0,0.2,0,0.3,0.1,0.4c0.1,0.1,0.2,0.1,0.4,0.1c0.2,0,0.3,0,0.4-0.1c0.1-0.1,0.1-0.2,0.1-0.4V62.1z"
					/>
			</g>
			
				<use xlink:href="#map-marker"  width="21.5" height="50.3" id="XMLID_32_" x="-10.8" y="-25.1" transform="matrix(0.5102 0 0 0.5102 330.0038 86.1753)" style="overflow:visible;"/>
		</g>
	</g>
</g>
<g id="_x33_" class="st0">
	<g class="st1">
		<rect x="26" y="111.3" class="st10" width="60" height="50"/>
		<g>
			<path class="st11" d="M47.1,130c0,0.4-0.1,0.7-0.2,1.1h6.4v1.3h-6.8c-0.8,2.1-2.4,3.4-6.7,4.1c-0.1-0.4-0.5-1-0.8-1.3
				c3.5-0.5,5-1.4,5.7-2.8h-5.1v-1.3h5.6c0.1-0.3,0.1-0.7,0.2-1.1h-6.1v-1.3h6.3v-1.1h-4.8v-1.3h4.8v-1.1H40v-1.3h3.2
				c-0.3-0.5-0.7-1.2-1.1-1.7l1.3-0.5c0.5,0.6,1.1,1.4,1.3,1.9l-0.5,0.2h3.9c0.4-0.6,1-1.5,1.2-2.2l1.6,0.4
				c-0.4,0.6-0.8,1.2-1.2,1.7h3.3v1.3h-5.8v1.1h5v1.3h-5v1.1h6.5v1.3H47.1z M53,136.6c-1.4-0.9-4.3-2.3-6.4-3.1l0.7-1.1
				c2.1,0.8,5,2,6.5,2.9L53,136.6z"/>
			<path class="st11" d="M70,122.5v14h-1.5v-0.7H58.1v0.7h-1.4v-14H70z M68.5,134.5v-10.6H58.1v10.6H68.5z M67.4,127.7
				c-0.4,1.5-1,2.7-1.7,3.8c0.3,0.7,0.6,1.1,1,1.2c0.2,0.1,0.3-0.6,0.4-1.6c0.2,0.2,0.7,0.6,0.9,0.7c-0.2,1.8-0.9,2.4-1.8,2.1
				c-0.6-0.2-1.1-0.6-1.5-1.3c-0.6,0.6-1.2,1.2-1.9,1.6c-0.2-0.2-0.6-0.7-0.8-0.9c0.4-0.3,0.8-0.5,1.2-0.9c-1.6,0.3-3.2,0.6-4.5,0.8
				l-0.2-1.1c1.2-0.2,2.9-0.4,4.6-0.7l0,1c0.4-0.3,0.7-0.6,1-1c-0.4-1.2-0.6-2.8-0.8-4.5h-4.7v-1.1h4.6c0-0.5-0.1-1-0.1-1.5h1.2
				c0,0.5,0,1,0.1,1.5h2.3c-0.3-0.4-1-0.8-1.6-1.1l0.7-0.7c0.6,0.3,1.3,0.7,1.6,1.1l-0.7,0.7h1v1.1h-3.2c0.1,1.2,0.3,2.2,0.5,3.1
				c0.4-0.8,0.8-1.6,1-2.5L67.4,127.7z M62.8,127.7v3.1h-3.5v-3.1H62.8z M61.8,128.5h-1.5v1.4h1.5V128.5z"/>
		</g>
		<g>
			<path class="st11" d="M43.8,152.5c-0.7,0-1.3-0.1-1.7-0.2c-0.4-0.2-0.8-0.4-1-0.7c-0.3-0.3-0.4-0.6-0.5-1
				c-0.1-0.4-0.1-0.8-0.1-1.2v-3.9c0-0.7,0.1-1.3,0.4-1.8c0.2-0.5,0.6-0.8,1-1.1c0.4-0.3,0.9-0.5,1.6-0.6s1.3-0.2,2-0.2
				c0.2,0,0.5,0,0.8,0c0.3,0,0.5,0.1,0.8,0.1l-0.2,1.9c-0.2,0-0.4,0-0.6-0.1s-0.4,0-0.5,0c-0.5,0-1,0-1.4,0.1
				c-0.4,0.1-0.7,0.1-0.9,0.3c-0.2,0.1-0.4,0.3-0.5,0.5s-0.2,0.5-0.2,0.8v0.8c0.3-0.1,0.6-0.1,0.8-0.2s0.6-0.1,0.9-0.1
				c0.9,0,1.6,0.2,2,0.6c0.5,0.4,0.7,1.1,0.7,2.1v0.7c0,0.4,0,0.8-0.1,1.2c-0.1,0.4-0.3,0.7-0.5,1c-0.3,0.3-0.6,0.5-1,0.7
				C45.1,152.4,44.5,152.5,43.8,152.5z M43.8,150.5c0.4,0,0.7-0.1,0.9-0.2c0.2-0.2,0.2-0.4,0.2-0.8v-0.7c0-0.3-0.1-0.5-0.2-0.6
				c-0.2-0.1-0.3-0.2-0.6-0.2c-0.3,0-0.5,0-0.7,0.1c-0.2,0.1-0.4,0.1-0.6,0.2v1.2c0,0.4,0.1,0.6,0.2,0.8
				C43.1,150.5,43.4,150.5,43.8,150.5z"/>
			<path class="st11" d="M55.4,150.2v2.2h-2.3v-2.2h-4.7v-2l4-6.1h3v6.3h1.3v1.9H55.4z M53.1,144.3l-2.4,4h2.4V144.3z"/>
			<path class="st11" d="M63,145c0,0.3,0,0.6-0.1,0.9c-0.1,0.3-0.2,0.5-0.4,0.7c-0.2,0.2-0.5,0.4-0.8,0.5c-0.3,0.1-0.7,0.2-1.2,0.2
				c-0.5,0-0.9-0.1-1.2-0.2c-0.3-0.1-0.6-0.3-0.8-0.5s-0.3-0.5-0.4-0.7c-0.1-0.3-0.1-0.6-0.1-0.9v-1.2c0-0.3,0-0.6,0.1-0.9
				c0.1-0.3,0.2-0.5,0.4-0.7s0.5-0.4,0.8-0.5c0.3-0.1,0.7-0.2,1.2-0.2c0.5,0,0.9,0.1,1.2,0.2c0.3,0.1,0.6,0.3,0.8,0.5
				c0.2,0.2,0.3,0.5,0.4,0.7c0.1,0.3,0.1,0.6,0.1,0.9V145z M61.2,143.7c0-0.2-0.1-0.4-0.2-0.5c-0.1-0.1-0.3-0.1-0.6-0.1
				s-0.5,0-0.6,0.1c-0.1,0.1-0.2,0.3-0.2,0.5v1.4c0,0.2,0.1,0.4,0.2,0.5c0.1,0.1,0.3,0.1,0.6,0.1s0.5,0,0.6-0.1
				c0.1-0.1,0.2-0.3,0.2-0.5V143.7z M65.7,141.5l1.4,0.6l-4.3,10.4l-1.4-0.6L65.7,141.5z M70.6,150.2c0,0.3,0,0.6-0.1,0.9
				c-0.1,0.3-0.2,0.5-0.4,0.7s-0.5,0.4-0.8,0.5c-0.3,0.1-0.7,0.2-1.2,0.2c-0.5,0-0.9-0.1-1.2-0.2c-0.3-0.1-0.6-0.3-0.8-0.5
				s-0.3-0.5-0.4-0.7c-0.1-0.3-0.1-0.6-0.1-0.9V149c0-0.3,0-0.6,0.1-0.9c0.1-0.3,0.2-0.5,0.4-0.7s0.5-0.4,0.8-0.5
				c0.3-0.1,0.7-0.2,1.2-0.2c0.5,0,0.9,0.1,1.2,0.2c0.3,0.1,0.6,0.3,0.8,0.5s0.3,0.5,0.4,0.7c0.1,0.3,0.1,0.6,0.1,0.9V150.2z
				 M68.9,148.9c0-0.2-0.1-0.4-0.2-0.5s-0.3-0.1-0.6-0.1s-0.5,0-0.6,0.1s-0.2,0.3-0.2,0.5v1.4c0,0.2,0.1,0.4,0.2,0.5
				c0.1,0.1,0.3,0.1,0.6,0.1s0.5,0,0.6-0.1c0.1-0.1,0.2-0.3,0.2-0.5V148.9z"/>
		</g>
		<g id="XMLID_6_">
			<g>
				<circle class="st39" cx="54.7" cy="91.8" r="0.5"/>
				<path class="st40" d="M59.5,93c0.1-0.4,0.2-0.9,0.2-1.3c0-2.7-2.2-5-5-5s-5,2.2-5,5c0,2.7,2.2,5,5,5c1.1,0,2.2-0.4,3-1"/>
				<path class="st41" d="M54.9,96.9v14.4"/>
			</g>
		</g>
	</g>
</g>
</svg>
