<svg xmlns="http://www.w3.org/2000/svg" width="179" height="180" viewBox="0 0 179 180">
    <g fill="none" fill-rule="evenodd" stroke="#EDF8F7" stroke-linecap="round" stroke-width="3">
        <path d="M176.894 112.196c-36.137 0-65.432 29.46-65.432 65.804M176.894 98.435c-43.695 0-79.115 35.622-79.115 79.565M176.894 84.674c-51.25 0-92.797 41.783-92.797 93.325M176.894 70.914c-58.807 0-106.48 47.944-106.48 107.085M176.894 57.154c-66.365 0-120.162 54.103-120.162 120.845M176.894 43.392c-73.92 0-133.846 60.267-133.846 134.608M176.894 29.632C95.416 29.632 29.365 96.058 29.365 178M176.894 15.872C87.859 15.872 15.683 88.459 15.683 178M176.894 2.11C80.302 2.11 2 80.858 2 178"/>
    </g>
</svg>
