<svg height="274" viewBox="0 0 455 274" width="455" xmlns="http://www.w3.org/2000/svg"><g fill="none" fill-rule="evenodd" stroke-width="3"><g stroke="#5ac3b4" stroke-linecap="round" transform="translate(2 131)"><path d="m133.78167 49.99293c-27.549 0-49.8825-22.3326-49.8825-49.8825"/><path d="m133.78167 60.42384c-33.3099 0-60.3135-27.0027-60.3135-60.3135"/><path d="m133.78167 70.85556c-39.0717 0-70.7445-31.6737-70.7445-70.7445"/><path d="m133.78167 81.28647c-44.8317 0-81.1755-36.3438-81.1755-81.1755"/><path d="m133.78167 91.71729c-50.5935 0-91.6074-41.013-91.6074-91.6065"/><path d="m133.78167 102.14901c-56.3544 0-102.0384-45.6849-102.0384-102.0384"/><path d="m133.78167 112.57992c-62.1153 0-112.4694-50.3541-112.4694-112.4694"/><path d="m133.78167 123.01074c-67.8762 0-122.9004-55.0242-122.9004-122.9004"/><path d="m133.78167 133.44246c-73.6371 0-133.3314-59.6943-133.3314-133.3314"/><g transform="translate(135.45027 .11034)"><path d="m133.3314 49.88259c-27.549 0-49.8825-22.3326-49.8825-49.8825"/><path d="m133.3314 60.3135c-33.3108 0-60.3135-27.0027-60.3135-60.3135"/><path d="m133.3314 70.74522c-39.0708 0-70.7445-31.6737-70.7445-70.7445"/><path d="m133.3314 81.17613c-44.8317 0-81.1755-36.3438-81.1755-81.1755"/><path d="m133.3314 91.60695c-50.5935 0-91.6065-41.013-91.6065-91.6065"/><path d="m133.3314 102.03867c-56.3535 0-102.0384-45.6849-102.0384-102.0384"/><path d="m133.3314 112.46958c-62.1153 0-112.4694-50.3541-112.4694-112.4694"/><path d="m133.3314 122.9004c-67.8762 0-122.9004-55.0242-122.9004-122.9004"/><path d="m133.3314 133.33212c-73.6371 0-133.3314-59.6943-133.3314-133.3314"/></g></g><g transform="translate(273 2)"><g stroke="#6ac7ba"><path d="m135 185.50638c27.8937 0 50.5062-22.6125 50.5062-50.5062s-22.6125-50.5062-50.5062-50.5062-50.5062 22.6125-50.5062 50.5062 22.6125 50.5062 50.5062 50.5062z"/><path d="m135 196.06815c33.7275 0 61.0686-27.3411 61.0686-61.0686 0-33.7266-27.3411-61.0677-61.0686-61.0677s-61.0686 27.3411-61.0686 61.0677c0 33.7275 27.3411 61.0686 61.0686 61.0686z"/><path d="m135 206.63001c39.5595 0 71.6301-32.0697 71.6301-71.6301 0-39.5595-32.0706-71.6301-71.6301-71.6301-39.5604 0-71.6301 32.0706-71.6301 71.6301 0 39.5604 32.0697 71.6301 71.6301 71.6301z"/><path d="m135 217.19178c45.3933 0 82.1907-36.7992 82.1907-82.1916 0-45.3933-36.7974-82.1916-82.1907-82.1916-45.3942 0-82.1916 36.7983-82.1916 82.1916 0 45.3924 36.7974 82.1916 82.1916 82.1916z"/><path d="m135 227.75364c51.2262 0 92.7531-41.5278 92.7531-92.754s-41.5269-92.7522-92.7531-92.7522-92.754 41.526-92.754 92.7522 41.5278 92.754 92.754 92.754z"/><path d="m135 238.31541c57.0582 0 103.3146-46.2564 103.3146-103.3155s-46.2564-103.3146-103.3146-103.3146c-57.0591 0-103.3155 46.2555-103.3155 103.3146s46.2564 103.3155 103.3155 103.3155z"/><path d="m135 248.87637c62.892 0 113.8761-50.9832 113.8761-113.8761 0-62.892-50.9841-113.877-113.8761-113.877-62.8929 0-113.877 50.985-113.877 113.877 0 62.8929 50.9841 113.8761 113.877 113.8761z"/><path d="m135 259.43823c68.7249 0 124.4385-55.7127 124.4385-124.4385 0-68.7249-55.7136-124.4376-124.4385-124.4376-68.7258 0-124.4385 55.7127-124.4385 124.4376 0 68.7258 55.7127 124.4385 124.4385 124.4385z"/><path d="m135 270c74.5587 0 135-60.4413 135-135s-60.4413-135-135-135-135 60.4413-135 135 60.4413 135 135 135z"/></g><path d="m141.11451 135h11.8854" stroke="#68c3a0" stroke-linecap="round"/><path d="m135 117v36" stroke="#68c3a0" stroke-linecap="round"/><path d="m117 135h18" stroke="#68c3a0" stroke-linecap="round"/></g></g></svg>