<svg xmlns="http://www.w3.org/2000/svg" width="374" height="654" viewBox="0 0 374 654">
    <g fill="none" fill-rule="evenodd" stroke-linecap="round" stroke-width="3">
        <path stroke="#EDF8F7" d="M327.515 449C260.27 448.866 205.866 394.136 206 326.758c.132-67.38 54.753-121.89 122-121.758"/>
        <path stroke="#EDF8F7" d="M327.41 474c-81.575-.16-147.573-66.107-147.41-147.293.161-81.185 66.424-146.871 148-146.707"/>
        <path stroke="#EDF8F7" d="M327.312 501c-95.355-.191-172.5-77.801-172.312-173.345.191-95.545 77.645-172.846 173-172.655"/>
        <path stroke="#EDF8F7" d="M327.213 526C218.08 525.78 129.783 436.957 130 327.606c.22-109.35 88.866-197.82 198-197.606"/>
        <path stroke="#EDF8F7" d="M327.107 551C203.089 550.756 102.753 450.492 103 327.054 103.245 203.62 203.983 103.752 328 104"/>
        <path stroke="#EDF8F7" d="M327.007 576C189.21 575.726 77.727 464.247 78 327.004 78.276 189.762 190.204 78.727 328 79"/>
        <path stroke="#EDF8F7" d="M326.906 602C175.33 601.697 52.7 478.78 53.001 327.454 53.304 176.13 176.424 53.7 328 54"/>
        <path stroke="#EDF8F7" d="M326.803 627c-165.906-.33-300.135-134.912-299.802-300.596C27.33 160.718 162.094 26.669 328 27"/>
        <path stroke="#EDF8F7" d="M326.704 652C147.018 651.642 1.643 505.844 2.001 326.353 2.36 146.858 148.314 1.643 328 2"/>
        <path stroke="#FFF7AB" d="M313 325.5h-29M327.5 281v88M372 325.5h-44"/>
    </g>
</svg>
