<svg xmlns="http://www.w3.org/2000/svg" width="179" height="180" viewBox="0 0 179 180">
    <g fill="none" fill-rule="evenodd" stroke="#EDF8F7" stroke-linecap="round" stroke-width="3">
        <path d="M2.106 67.804c36.137 0 65.432-29.46 65.432-65.804M2.106 81.565c43.695 0 79.115-35.622 79.115-79.565M2.106 95.326c51.25 0 92.797-41.783 92.797-93.325M2.106 109.086c58.807 0 106.48-47.944 106.48-107.085M2.106 122.846c66.365 0 120.162-54.103 120.162-120.845M2.106 136.608c73.92 0 133.846-60.267 133.846-134.608M2.106 150.368c81.478 0 147.529-66.426 147.529-148.368M2.106 164.128c89.035 0 161.211-72.587 161.211-162.128M2.106 177.89C98.698 177.89 177 99.142 177 2"/>
    </g>
</svg>
