<svg height="300" viewBox="0 0 171 300" width="171" xmlns="http://www.w3.org/2000/svg"><g fill="none" fill-rule="evenodd" stroke-linecap="round" stroke-width="3" transform="translate(0 1)"><g stroke="#6ac7ba"><path d="m20.7321 204.0707c30.61-.061 55.375-24.925 55.314-55.535-.06-30.611-24.924-55.375-55.535-55.3151088"/><path d="m20.7556 215.6605c37.011-.073 66.955-30.137 66.881-67.148-.073-37.011-30.137-66.956-67.149-66.8811406"/><path d="m20.779 227.2513c43.412-.087 78.534-35.35 78.448-78.762-.087-43.412-35.349-78.535-78.761-78.4481613"/><path d="m20.8015 238.8412c49.813-.1 90.115-40.562 90.016-90.375-.1-49.813-40.562-90.114-90.375-90.0161784"/><path d="m20.8249 250.431c56.214-.111 101.694-45.773 101.582-101.988-.111-56.214-45.773-101.695-101.987-101.5822101"/><path d="m20.8474 262.0218c62.616-.125 113.274-50.986 113.15-113.602-.125-62.615-50.986-113.274-113.601-113.1492308"/><path d="m20.8708 273.6117c69.017-.138 124.854-56.198 124.717-125.215-.138-69.016-56.198-124.854-125.215-124.7172516"/><path d="m20.8942 285.2015c75.417-.15 136.434-61.41 136.283-136.827-.15-75.418-61.41-136.435-136.827-136.2842797"/><path d="m20.9167 296.7924c81.819-.163 148.015-66.623 147.852-148.441-.164-81.82-66.623-148.014-148.442-147.85130039"/></g><path d="m27.2936 147.6459h13.206" stroke="#68c3a0"/><path d="m20.4997 127.6459v40" stroke="#68c3a0"/><path d="m.4997 147.6459h20" stroke="#68c3a0"/></g></svg>