<svg height="440" viewBox="0 0 689 440" width="689" xmlns="http://www.w3.org/2000/svg"><g fill="none" fill-rule="evenodd"><path d="m95.05833 49.8153656c3.00474-.3042391 6.078426.0960755 8.903587 1.164115 4.580865 1.7293592 14.130615-.7846167 18.26093 1.8414473 6.280452 3.9919376 10.058023 11.914965 17.27485 13.7387985 2.55419.6453072 5.235046.4131247 7.867801.5300166 8.991773.3939096 18.054095 5.567576 21.426009 13.9021268 3.371915 8.3329495-.070548 18.9765152-8.520378 22.0717482-6.97632-2.347445-15.466233 2.136079-17.451222 9.216844-1.983385 7.080765 2.943812 15.314437 10.126968 16.923702 2.108449.47077 4.356392.453156 6.309313 1.37388 2.547776 1.200944 4.117488 3.759755 6.099269 5.759727 1.385323 1.397898 3.145838 2.597241 5.114793 2.650083 3.775967.10248 6.400705-4.065596 6.501718-7.838161s-1.444648-7.376998-2.045917-11.103127c-.602872-3.724527.102617-8.182431 3.355881-10.100739 3.330227-1.963143 7.851768-.187347 10.203931 2.877462s3.080099 7.034329 3.735882 10.838919c3.330227-1.716549 7.864595-1.607664 11.606891-1.783802 2.392248 2.82462 2.602291 6.816558 3.33664 10.441807.800088 3.945501 2.353767 7.737281 4.552005 11.112734 1.595366 2.449926 3.557907 4.747732 4.386856 7.549934 1.744481 5.892632-3.051238 12.77324-9.188988 13.186365-4.205674.281821-8.938862-1.886283-12.362085.570048-2.288027 1.64129-2.926174 4.699694-4.362805 7.119195-1.986592 3.349833-3.987614 5.791753-7.883835 5.628424-4.468629-.187347-8.977342.619687-13.102847 2.345844-1.489543.624491-3.060859 1.511588-3.578751 3.039189-.660594 1.950333.65899 3.947102 1.237812 5.923055 1.072663 3.665281-.551564 7.72287-3.266092 10.414586-2.712924 2.688513-5.396988 6.497907-9.221056 6.454673-3.663731-.040031-7.207208 2.528387-8.302318 6.022333-.472998 1.506785-.5211 3.114448-.85781 4.659663-.336711 1.545214-1.055026 3.127258-2.430729 3.910273-1.375703.783016-3.912255.605276-3.929892-.975166-.070549-6.236902-6.660454-10.792483-12.902425-10.971824-6.368637-.182543-12.908837 3.428295-15.408512 9.282496-2.499674 5.854201-.165148 13.573869 5.531672 16.424109 2.926175 1.465152 6.31252 1.614069 9.583421 1.718151 3.270902.105683 6.65404.220973 9.605869 1.630081 2.953432 1.409107 5.37454 4.488327 4.935213 7.726072-.274178 2.030396-1.470302 4.47872.067342 5.833385.928359.815041 2.356973.637301 3.500186 1.111274 2.137309.888698 2.634358 3.617243 3.87698 5.569177 1.72524 2.709329 7.359529 3.612439 10.399543 2.565216.524306-6.651628 8.969326-11.244037 14.848932-8.073546 2.834781 1.527601 5.390574 4.512347 8.554049 3.907071 1.151229-.220973 2.154947-.914318 3.270901-1.279405 2.826765-.92873 5.860366.341068 8.56367 1.583645 7.162312 3.29539 14.565132 6.770121 19.657477 12.782847 3.017567 3.564401 5.175721 7.972666 8.993376 10.667584 4.167193 2.939911 9.572197 3.325814 14.672559 3.471529 5.101965.145714 10.450852.21617 14.90986 2.693317 4.460612 2.477147 7.641724 8.340955 6.498512 13.308059-1.002114 4.347417-2.932588 8.478665-5.623065 12.036661-2.278407 3.011967-5.222219 5.908644-5.574963 9.666798-.251731 2.670899.885068 5.256932 1.332412 7.903812.362364 2.148889.246921 4.446695-.763211 6.379414-1.008528 1.934321-2.446763 3.937495-4.601709 4.288171-5.297578.856673-11.553979-1.465152-15.620159 2.035199-4.428544 3.810996-2.308872 10.875749-2.788283 16.694722-.602872 7.272917-6.019101 13.540243-12.605799 16.704329-1.555281.747788-3.240437 1.391494-4.383649 2.685311-2.462797 2.78619-1.920853 7.974268-5.326439 9.474647-1.035786.456359-2.225496.422732-3.298159.787819-2.35537.799028-3.697402 3.413883-3.780778 5.895834-.084979 2.481951 1.362876 4.91106 1.430218 7.393011.073756 2.640475-.832156 5.295362-2.506088 7.343372-1.103127 1.348259-2.600687 2.603646-2.740182 4.33941-.12346 1.545215.891482 2.927101 1.853511 4.144058 3.062462 3.875045 7.258516 7.578756 9.620299 11.914965.74397 1.367474.514686 3.199314-.54515 4.341011-1.058233 1.143299-2.834781 2.155295-4.27943 1.569234-13.077193-5.29216-22.832176-17.291991-26.999368-30.753772-4.168797-13.461781-3.11377-28.186954 1.247432-41.587887 2.332922-7.173639 5.600617-14.102285 6.806361-21.548137s-.044895-15.838048-5.530068-21.021322c-5.921294-5.598-12.485545-8.531506-17.945065-14.577858-2.940604-3.25696-5.879606-6.694862-7.271342-10.854932-1.391737-4.16007-.889878-9.247268 2.337733-12.222406 1.861527-1.713347 4.568038-2.752564 5.464329-5.116022 1.111145-2.931904-2.48845-6.459477-1.569712-9.458634-3.933099.350676-7.992865-1.356266-10.489332-4.411467-.926756-1.135293-1.653088-2.443521-2.706511-3.461921-4.091834-3.947103-11.537945-2.305813-15.581678-6.300953-.836966-.82785-1.467095-1.849453-2.339336-2.638874-1.893595-1.708543-4.600106-2.072028-7.111004-2.528387-4.83901-.879091-11.159547-1.963143-15.009269-5.019946-5.2863547-4.1985-9.1937994-10.095935-10.9927953-16.595443-1.0373889-3.75335-1.3901332-7.679636-2.5686198-11.389752-2.3489563-7.39141-8.2237522-13.716381-15.0381306-17.434504-6.5113389-3.551591-12.8944072-9.085541-13.5742417-16.46414-.3751917-4.067197 1.0662498-8.079951 1.255449-12.161559.2356973-5.083996-1.6210204-11.287272-4.5648318-15.442538-2.8075239-3.964716-3.3157964-9.058319-3.7342794-13.897323-.3383138-3.927887-.6670074-7.975868.5082725-11.740427 1.2506389-4.015957 4.088627-7.319353 6.0655984-11.032672 1.9785748-3.71492 3.0031367-8.513892.6012687-11.971009-1.8022026-2.592437-5.0458467-3.72773-8.1291525-4.419473-8.9276374-2.0063774-19.8707274-5.0247498-26.9208031.80223-2.6744431 2.209737-6.6283859 1.460348-9.989077.592466-1.5729189-.40672-3.3703114-1.007192-3.9266853-2.53159-.48422173-1.3322471.2100432-2.7653736.6413532-4.1168358 1.1303852-3.5403827.761607-8.5058854-1.58734928-11.3865496-.38641534-4.2849679-.35434767-9.4794507 3.28052188-11.785263 1.1624528-.7381802 2.5445691-1.0472231 3.774364-1.6653089 1.2313982-.6164845 2.3906442-1.7245555 2.4002645-3.0984353.0128271-1.7293593-1.686759-2.891873-2.6872701-4.3009805-1.2859133-1.8110234.0464981-2.8182151 1.1528325-4.7429279-.6205093-1.5644296.7808476-3.3082001 2.3906442-3.8061916 1.6114001-.4995926 3.3414505-.1729359 5.0266062-.0960755 2.8636423.129702 6.3285533.0592466 8.8811393-1.2441779.493842-3.1128466-2.1292929-5.7277018-4.2425518-8.0703431-2.1100523-2.3426413-4.8630611-7.282524-2.4162984-9.2744896 5.5396887-4.5107454 13.4139034-6.9110319 20.3132611-5.047167 5.440279-1.2297666 14.6180441.92873 16.1508784 6.2833386.9604265 3.3530354 4.5968995 5.0183443 7.7090662 6.5971853 4.6594314 2.3634576 9.1777651 5.7501195 12.9232681 9.3897802 3.6396798-.2417901 8.5909269-.9527489 11.2397159-3.4603198zm122.66314-24.5897271c3.952339-6.0223334 13.027488-2.5812288 17.941857-6.967076 5.68239-5.0695846 3.136218-13.61229897 11.810521-17.24555464 5.623064-2.35545135 12.041407.09927803 17.850464.36188443 10.686549.48518134 21.204742-1.81582721 31.617112 1.85265616 8.435399 2.97193588 15.96649 10.39537055 16.17012 19.32558955.062531 2.7653735-.565995 5.5067282-1.481527 8.1167796-4.677068 13.3368826-16.633496 23.5304946-19.676717 37.3317421-1.811823 8.2192602-.836966 18.2223224-7.426871 23.4664442-5.324836 4.2369302-13.187827 3.1224542-19.301527 6.1152065-4.242551 2.0768323-7.269739 5.9390676-10.75389 9.1287746-3.484152 3.189707-8.138773 5.891031-12.734069 4.784561-3.615629-.869483-6.293279-3.90547-8.257423-7.058348-2.02828-3.255358-3.583562-6.8677977-4.038923-10.6739893-.965236-8.0751469 3.001534-15.7916119 5.815471-23.421609 2.813937-7.629997 4.274619-16.9573281-.86262-23.2662868-3.197146-3.9246848-8.254217-5.7517208-12.296345-8.8021183-4.042129-3.0487963-7.151089-8.8165297-4.375633-13.0486561zm234.294362 54.114373c2.57343 2.5027671 13.500486 1.0296092 15.578471-1.8974914 2.077985-2.9271007 2.110052-6.7765263 2.215876-10.3617442.104219-3.5868192.505065-7.5083014 3.043221-10.0478974 2.126086-2.1280727 5.544499-3.0375875 6.809568-5.7677334.888274-1.9167065.413673-4.1568672.599665-6.2609209.660594-7.4762763 8.970929-11.4506 16.114001-13.7804312 3.315796-1.0824508 6.751846-2.1392815 10.227981-1.8366436 3.474531.3042391 7.035645 2.3010086 8.130756 5.6092088 1.048613 3.1688906.129874 7.5979718 3.10896 9.1143637 7.920713-6.4370594 19.386506-8.2048489 28.884947-4.4514988 5.873193 2.3218249 11.460983 6.6500268 17.730211 5.8910302 8.89076-1.0760457 13.388249-11.4489987 21.315376-15.6106697 5.425848-2.8470377 11.90512-2.5011659 18.020423-2.0832374 6.833619.4659663 13.667238.9335338 20.500857 1.3995 3.819258.2610052 7.72029.514004 11.420898-.4579599 2.509295-.6581173 4.83901-1.8590612 7.301807-2.6644943 7.566365-2.4707419 16.330457-.891901 22.54998 4.0655955 6.22273 4.9574965 9.711692 13.1399278 8.978946 21.0549488-.195613 2.1216676-.671818 4.2801641-.190803 6.3553952 1.192917 5.1448438 7.840544 8.2416778 7.638518 13.5178248-.251731 6.5219261-9.932959 7.8125405-13.436351 13.3224712-2.305665 3.6236481-1.470302 8.2993231-1.749291 12.5826898-.277385 4.2833667-3.040014 9.3465467-7.311427 8.8661687-3.492169-.392308-5.475554-4.497935-5.121206-7.9918815.354348-3.492345 2.284821-6.5923815 3.6493-9.8285251 1.366083-3.2361435 2.124483-7.1512207.242111-10.1183528-1.524817-2.4050904-4.72517-3.6076356-7.458938-2.8038038-2.735372.8054331-4.770065 3.5467878-4.747618 6.3922242.008017 1.0376156.261351 2.0848387.070549 3.1032391-.30304 1.6252774-1.18971 3.2441498-2.842798 3.2857826-6.205093 4.9462877-14.323022 6.830969-20.967442 11.1703797-6.64442 4.3410116-11.776849 13.3064586-7.627293 20.0653706 3.392758 5.525944 11.101824 6.613198 15.644209 11.242437 2.520518 2.57002 3.884997 6.073573 4.608123 9.599545 3.832086 18.710706-11.975669 38.912184-31.081582 39.719218-1.463889.062449-2.977483.036829-4.330738.602074-5.05226 2.118465-3.767951 9.63157-1.168866 14.446554 3.044824 5.638032 6.766276 11.083912 8.073034 17.356042 1.30355 6.27213-.610889 13.822064-6.344587 16.697924-4.781289 2.400287-10.551865.899907-15.828599 1.791808-5.278337.891902-10.490936 7.197658-6.880117 11.143159 4.026095 2.233755 7.925523 5.564373 8.732025 10.092733.808105 4.526757-3.190733 9.842936-7.665775 8.758884-4.499093-1.090457-6.65885-7.46827-11.289421-7.513105-3.338244 2.614855-1.029372 7.884597 1.317981 11.415372 2.34575 3.530775 4.050146 9.240863.288609 11.204006-6.883324-8.714049-10.742667-19.767537-10.776338-30.870664-2.195032.315448-4.391667.632497-6.588301.947945-4.072594-2.765373-4.776479-8.328145-6.710159-12.8501-1.93368-4.525156-7.797252-8.595556-11.420898-5.266539-2.894107 2.656488-1.598573 7.793325-4.074197 10.84052-1.965747 2.419502-5.647115 2.717336-7.885438 4.887042-2.850815 2.758968-2.385834 7.319352-2.69208 11.27286-.306246 3.953507-3.031998 8.720454-6.905772 7.852572-3.785587-13.250415-11.292627-25.418379-21.440439-34.755317-1.144816-1.05523-2.337733-2.084839-3.721452-2.799-1.975368-1.020002-4.226518-1.343456-6.419946-1.722954-8.794557-1.522797-17.391897-4.188893-25.501809-7.910218-4.527954-2.076832-10.559882-4.225721-13.875678-.514004 4.840614 5.647639 11.273387 11.282468 18.679414 10.50906 1.224984-.129702 2.461193-.435542 3.674954-.224176 3.139424.546029 4.723566 4.472315 3.860946 7.533922-.86262 3.061606-3.399172 5.336994-5.953361 7.23929-8.000882 5.956681-17.396707 10.036688-27.217429 11.818889-4.802133-10.161587-10.277686-20.007726-16.373749-29.451949-1.709206-2.64688-6.137751-5.104812-7.252102-2.158496-.410466 1.085653.101013 2.280192.602872 3.327415 3.801622 7.934236 7.603243 15.868472 11.406468 23.802709 1.266673 2.643677 2.57824 5.349804 4.712343 7.360985 6.153784 5.80136 16.040245 3.641262 24.113279 1.109672-1.520007 10.734838-7.531091 20.761919-16.287166 27.171757-5.815471 4.256145-13.492469 8.027109-14.416018 15.168722-.577218 4.448296 1.81503 8.658005 3.460101 12.832486 1.643468 4.17288 2.353767 9.506672-.84819 12.651544-1.454268 1.428323-3.45529 2.11206-5.27513 3.031183-6.708555 3.383459-11.302248 10.59873-11.528325 18.100626-.075359 2.509173.298229 5.053572-.224474 7.509903-1.84389 8.683625-13.011454 11.317696-21.879766 10.736439-1.728447-.11369-3.533857-.307442-4.973695-1.268197-3.1282-2.089643-3.126597-6.544344-3.803224-10.243251-2.512502-13.738799-18.416459-24.705818-14.613234-38.146783.832155-2.935107 2.605497-5.657246 2.668029-8.704441.123461-5.889429-5.817074-9.806108-9.0046-14.762003-2.953431-4.589207-3.519426-10.624351-1.476716-15.682726-1.782962 2.145686-5.356903 1.26019-7.510246-.514004-2.153344-1.775796-3.806432-4.270557-6.387879-5.335394-2.605497-1.074444-5.554119-.449954-8.350419-.096075-12.21778 1.543613-25.387969-3.080822-32.842097-12.870917-7.452525-9.788493-8.097085-24.641768-.42169-34.257325 7.054886-8.837346 19.700769-12.616317 24.870076-22.670619 8.089068 5.620418 18.026837-4.469113 27.818698-5.578785 2.254356-.2546 4.898335.193752 6.073615 2.132877.825742 1.364272.691058 3.07922 1.026165 4.637244 1.239416 5.78855 8.496328 8.083154 14.383951 7.399416 5.886019-.683737 11.614907-3.216928 17.513754-2.629266 5.342472.531617 10.240808 3.596426 15.607331 3.761356 5.368127.16493 11.441742-5.240919 8.746455-9.879765-3.844912-6.613198-16.418643.758996-21.113349-5.284154-1.624227-2.089642-1.521611-5.035958-2.656806-7.423434-1.135195-2.389078-5.085931-3.770964-6.163405-1.354665 1.994609 2.915892.080169 7.601174-3.386345 8.289716-2.195031-10.116752-10.235998-18.750738-20.183387-21.669833-1.665915 2.560413.107427 5.969492 2.233513 8.161615 2.127689 2.193725 4.802132 4.294576 5.209392 7.320954.408862 3.024778-3.761537 6.134422-5.634289 3.722927-.667007-6.576369-4.762048-12.70919-10.580725-15.854061-1.366083 2.220945-4.483059 2.267382-7.027628 2.847037-4.510317 1.028008-8.319956 4.68208-9.532113 9.141585-.541944 1.990365-.646164 4.209709-1.936887 5.823778-1.348445 1.687726-3.660524 2.262578-5.817074 2.43071-5.384161.425935-11.326299-1.381886-14.218802-5.937466-2.889296-4.555581-1.059836-11.887744 4.160779-13.264826 3.022378-.797427 6.168215.440346 9.285192.670927 3.116977.22898 6.989147-1.396297 7.011595-4.51715.038481-5.202489-9.771017-5.68607-10.072453-10.880552 7.064506-1.900694 13.959053-4.421075 20.584233-7.519511-.219664-4.792566 4.991331-8.177627 9.775827-8.613169 4.782892-.433941 9.583421.983172 14.375933.643706 4.790909-.339467 10.093297-3.465124 10.160639-8.262495.033671-2.454729-1.255449-5.205691.20363-7.180043 2.47402-3.348232 10.117347-.645307 10.648067-4.77175.501859-3.884654-5.839521-3.087227-9.633126-4.080007-3.642886-.951148-5.704837-5.671658-3.928289-8.984662.94279-1.758182 2.684064-2.992752 3.580355-4.774953.893084-1.782201.232491-4.63084-1.762118-4.706099-8.764092 1.24738-13.147742 11.974212-11.731955 20.699469.472998 2.919095 1.38853 5.891031.737557 8.774897-.652577 2.885468-3.72947 5.505127-6.452014 4.342614-2.381024-1.015198-3.001533-4.09602-4.816563-5.94067-2.358577-2.397084-6.413533-2.400286-8.797763-4.77175-2.953432-2.936708-1.91925-8.062337.490635-11.458606 2.411488-3.394669 5.911673-5.955081 8.034553-9.535495 3.394362-5.7228983 2.765836-13.1623455 6.192265-18.8644273 4.002045-6.6628368 12.740483-9.2360593 20.451153-8.187235 7.709066 1.0472231 14.667749 5.010338 21.405165 8.8981938 3.684574 2.1248701 7.867801 6.6660394 5.039433 9.8413351-3.189129 3.5788129-10.149416-1.3018232-13.643187 1.9823581.210043 5.1672613 6.351 8.4018033 11.456172 7.5467313 5.106775-.85347 9.253124-4.454701 13.106054-7.9086157 5.129223-4.5956121 10.256842-9.1928254 15.384461-13.7884375 5.159687-4.6244347 13.274409-9.2969072 18.24169-4.4675113zm133.694577 206.5015065c-7.115815-10.33132 15.793324-12.752423 22.006433-11.495435 3.832086.77661 5.114793.557238 4.223312 4.392252-.463378 1.991966-7.102988 11.167177-9.09439 12.509032-2.916554 1.961542-6.851256.895103-10.086883-.477175-2.676046-1.135293-5.400194-2.536394-7.048472-4.928674zm-22.581888-1.293337c-2.178998-3.961513-5.292768-8.09276-7.078937-11.842908 6.85767-3.260162 17.816794 10.340928 20.621111 15.735568.974857 1.873472 1.781359 3.846223 2.964655 5.596399 2.834782 4.190493 7.558348 6.718881 12.334827 8.390594 4.779685 1.671714 9.796671 2.653286 14.459309 4.621233 1.686759.710958 3.575544 2.707728 2.296045 4.015956-18.474181.2546-36.699837-10.34413-45.59701-26.516842zm48.295664 37.665605c5.134033-5.738911 14.563529-11.447398 22.63015-10.411383 6.626782.848667 11.446552 9.68281 17.40312 9.477849-2.073174-8.984662 5.531672-8.310532 9.254728-1.967947 1.856718 3.165689 2.381024 6.912634 2.865246 10.549092 9.134473 6.981487 19.255028 16.142287 17.908186 27.548052-.695868 5.907043-4.446182 10.943001-8.065017 15.666714-2.735372 3.569205-5.470744 7.140012-8.207719 10.710818-1.335618 1.743771-2.711321 3.522769-4.566435 4.702897-5.461123 3.468326-13.181413.211366-16.681598-5.226508-3.9812-6.184061-4.590486-15.106274-11.053724-18.629042-6.036737-3.290587-13.367405.246593-19.415366 3.517965-6.047961 3.271371-13.861247 6.228895-19.362455 2.108857-1.19452-.895103-2.217479-2.20173-2.243133-3.692502-.020844-1.240975.638147-2.376268 1.091904-3.532376 2.25115-5.754924-.572408-12.075091-1.9433-18.100627-1.370893-6.023935.02886-14.115094 6.054374-15.508189 2.052331-.472372 4.232932-.011209 6.280452-.499593 3.461704-.824648 5.679183-4.063994 8.050587-6.714077zm37.067172-169.896095c2.299251-4.763745 2.158154-16.802006 7.088557-19.272748 8.109912-4.063995 7.011594 6.030339 7.098177 10.934994.059325 3.514763.0946 7.159227-1.329205 10.372953-1.035785 2.336236-2.770646 4.275361-4.349978 6.28494-3.710229 4.72051-6.673281 10.023879-8.751265 15.653904-2.138914 5.799758-4.15597 12.832486-10.032369 14.779616-2.727354-8.911004-1.643467-18.920471 2.930985-27.042054 2.262373-4.017558 5.321628-7.56915 7.345098-11.711605zm-33.520649 75.618955c1.096714-.816642 7.285773-5.577184 7.726703-2.318623.117047.858275-.33671 1.678119-.745573 2.440318-1.123971 2.097649-2.031486 4.310588-2.703304 6.590781-.697471 2.361856-1.271483 5.002331-3.243644 6.478692-.158735.120094-.339917.233783-.538737.224176-.355951-.017614-.562787-.398713-.699075-.726971l-2.244736-5.418659c-.335107-.805433-.675024-1.634885-.691058-2.507571-.033671-1.975953 1.556885-3.578813 3.139424-4.762143z" fill="#50beaf"/><g stroke="#f0e14b" stroke-linecap="round" stroke-linejoin="bevel" stroke-width="2" transform="translate(1 2)"><path d="m167.971968 132.860973c-.101013 3.772565-2.725751 7.940641-6.501718 7.838161m-27.650343-26.707392c1.984989-7.080765 10.474902-11.564289 17.451222-9.216844 8.44983-3.095233 11.892293-13.7387986 8.520378-22.0717481-3.371914-8.3345508-12.434236-13.5082172-21.426009-13.9021268-2.632755-.1168919-5.313611.1152906-7.867801-.5300166-7.216827-1.8238335-10.994398-9.7468609-17.27485-13.7387985-4.130315-2.626064-13.6800647-.1120881-18.2609304-1.8414473-2.8251611-1.0680395-5.8988466-1.4683541-8.9035866-1.164115-2.648789 2.5075709-7.6000361 3.2185297-11.2397159 3.4603198-3.745503-3.6396607-8.2638367-7.0263226-12.9232681-9.3897802-3.1121667-1.578841-6.7486397-3.2441499-7.7090662-6.5971853m-44.56924136 30.2990145c-.0096203 1.3738798-1.16886631 2.4819507-2.40026457 3.0984353m-3.77436393 1.6653089c-3.63486959 2.3058123-3.66693726 7.5002951-3.28052192 11.785263m1.58734932 11.3865496c-.43131007 1.3514622-1.12557497 2.7845887-.64135326 4.1168357.55637395 1.524398 2.35376646 2.12487 3.92668533 2.53159 3.36069107.867882 7.31463389 1.617271 9.98907699-.592466 7.0500757-5.8269797 17.9931657-2.808607 26.9208031-.80223 3.0833058.691743 6.3269499 1.827036 8.1291525 4.419473m-.6012687 11.971009c-1.9769714 3.713319-4.8149595 7.016715-6.0655984 11.032672-1.1752799 3.764559-.8465863 7.81254-.5082725 11.740428.418483 4.839003.9267555 9.932606 3.7342794 13.897323 2.9438114 4.155266 4.8005291 10.358541 4.5648318 15.442537-.1891992 4.081608-1.6306407 8.094362-1.255449 12.161559.6798345 7.378599 7.0629028 12.912549 13.5742417 16.46414 6.8143784 3.718123 12.6891743 10.043094 15.0381306 17.434504 1.1784866 3.710116 1.5312309 7.636402 2.5686198 11.389752 1.7989959 6.499508 5.7064406 12.396944 10.9927948 16.595443 3.849723 3.056803 10.1702595 4.140855 15.0092695 5.019946 2.510898.456359 5.217409.819844 7.111004 2.528387.872241.789421 1.50237 1.811024 2.339336 2.638874 4.043733 3.995141 11.489844 2.35385 15.581678 6.300953 1.053423 1.0184 1.779755 2.326629 2.706511 3.461921 2.496467 3.055201 6.556233 4.762143 10.489332 4.411467-.918738 2.999157 2.680857 6.52673 1.569712 9.458635-.896291 2.363457-3.602802 3.402674-5.464329 5.116021-3.227611 2.975138-3.72947 8.062336-2.337733 12.222406 1.391736 4.16007 4.330738 7.597972 7.271342 10.854932 5.45952 6.046352 12.023771 8.979858 17.945065 14.577858m5.530068 21.021322c-1.205744 7.445853-4.473439 14.374498-6.806361 21.548137-4.361202 13.400933-5.416229 28.126106-1.247432 41.587887 4.167192 13.461781 13.922175 25.461612 26.999368 30.753772 1.444649.586061 3.221197-.425935 4.27943-1.569233 1.059836-1.141698 1.28912-2.973538.54515-4.341012m4.277827-264.748888c6.13775-.413125 10.933469-7.293733 9.188988-13.186364-.828949-2.802203-2.79149-5.100009-4.386856-7.549935-2.198238-3.375453-3.751917-7.167233-4.552005-11.112734-.734349-3.625249-.944392-7.617187-3.33664-10.441807"/><path d="m258.324312 1.37489229c-5.809057-.2626064-12.2274-2.71733578-17.850464-.36188443-8.674303 3.63325567-6.128131 12.17597004-11.810521 17.24555464-4.914369 4.3858472-13.989518.9447426-17.941857 6.967076-2.775456 4.2321264.333504 9.9998598 4.375633 13.0486561 4.042128 3.0503975 9.099199 4.8774335 12.296345 8.8021183 5.137239 6.3089587 3.676557 15.6362898.86262 23.2662868-2.813937 7.6299971-6.780707 15.3464621-5.815471 23.421609.455361 3.8061916 2.010643 7.4186313 4.038923 10.6739893m8.257423 7.058348c4.595296 1.10647 9.249917-1.594854 12.734069-4.784561"/><path d="m561 39.6702295c-6.47621.7802742-12.248485-3.6692641-18.315584-6.0561789-9.812039-3.8585711-21.656381-2.0412236-29.838601 4.5762918-3.077442-1.5589023-2.128371-6.1121479-3.211604-9.369875-1.131266-3.400942-4.809953-5.4536887-8.399198-5.7664568-3.590901-.311122-7.140394.7753357-10.565664 1.8881318-7.378904 2.3951455-15.96361 6.4808851-16.646013 14.1667506-.192133 2.1630386.298137 4.4659998-.619464 6.4364391-1.306836 2.8066825-4.83811 3.7416946-7.03439 5.9294255-2.621954 2.6107909-3.036034 6.6422076-3.143695 10.3295793-.109317 3.6857256-.142443 7.6430657-2.289034 10.6522244-2.14659 3.0091587-13.43441 4.523615-16.092803 1.9506855-5.131279-4.9647827-13.513913-.1613225-18.84395 4.5927532m-16 14c-3.921601 3.4344779-8.14185 7.015443-13.339644 7.864111-5.196161.85026-11.446569-2.3660803-11.660356-7.5042631m-34-13.3598479c-3.525319 5.8770809-2.878653 13.5448479-6.370979 19.443384-2.184148 3.690299-5.785351 6.329291-8.266437 9.828143-2.479436 3.500502-3.543465 8.783439-.504795 11.810276 2.453041 2.444245 6.625027 2.447545 9.051674 4.918197m10.368201-7c-1.501223-8.851938 3.146958-19.7345092 12.439921-21 2.114974.0763518 2.815431 2.96635 1.868454 4.774426-.950378 1.808076-2.79673 3.060571-3.796412 4.844279-1.883755 3.361105.302625 8.150151 4.165342 9.115108m-54.954969 56.234189c-3.156198-.238602-6.341619-1.519433-9.402027-.694267-5.286306 1.424987-7.138786 9.012211-4.213134 13.726265m-15.809202 34c-7.824821 9.935949-7.167713 25.284135.4299 35.398781 7.599247 10.116302 21.025837 14.894823 33.481475 13.299776 2.85074-.365669 5.856766-1.010968 8.512988.099277m16 21.357741c3.289029 5.134827 9.418733 9.192916 9.291341 15.294981-.064523 3.157213-1.894335 5.977635-2.75299 9.018713-3.924334 13.926246 12.486067 25.289227 15.078576 39.524061.698174 3.832455.69652 8.447992 3.924334 10.61308 1.485688.995443 3.348589 1.196191 5.132077 1.313985 9.150713.602243 20.673895-2.12693 22.576503-11.124075.539347-2.545016.153863-5.18128.231621-7.781045.233276-7.77275 4.97325-15.248527 11.895432-18.754145 1.87779-.952307 3.942533-1.66073 5.443111-3.140622 3.303919-3.258417 2.571001-8.784784.875199-13.108324-1.697456-4.3252-4.165883-8.686899-3.570284-13.295799.952958-7.399459 8.874422-11.306573 14.87508-15.716385m32.969225-50.650565c.887427-3.140278-.742273-7.167456-3.971982-7.727516-1.248667-.216797-2.520426.096902-3.78064.229937-7.619012.793281-14.236781-4.986342-19.216603-10.779105 3.411153-3.807095 9.616549-1.602988 14.27472.527212 8.34314 3.816949 17.187726 6.551554 26.2352 8.113481 2.256507.38925 4.572397.721016 6.604573 1.767228 1.423513.732513 2.650737 1.788579 3.828475 2.870924 10.439647 9.576865 18.162577 22.057501 22.057032 35.648404m18-24.52635c2.579352-3.15199 1.229536-8.465487 4.244905-11.213333 3.775476-3.443504 9.884731.766879 11.899432 5.447659 2.014701 4.677468 2.748079 10.431547 6.991313 13.292024 2.288673-.326296 4.577347-.654249 6.86435-.980546"/><path d="m596.81847 329.00615c-2.04752.488384-4.228121.027222-6.280451.499593-6.025514 1.393095-7.425268 9.484254-6.054375 15.508189 1.370892 6.025536 4.19445 12.345703 1.9433 18.100627-.453757 1.156108-1.112748 2.291401-1.091904 3.532376.025654 1.490772 1.048613 2.797399 2.243133 3.692502 5.501208 4.120039 13.314494 1.162514 19.362455-2.108857s13.378629-6.808552 19.415367-3.517965c6.463237 3.522769 7.072523 12.444981 11.053723 18.629042 3.500186 5.437874 11.220475 8.694834 16.681598 5.226508 1.855115-1.180128 3.230818-2.959126 4.566436-4.702897 2.736975-3.570806 5.472346-7.141613 8.207718-10.710818 3.618836-4.723713 7.369149-9.759671 8.065017-15.666714"/></g></g></svg>