<svg height="206" viewBox="0 0 336 206" width="336" xmlns="http://www.w3.org/2000/svg"><g fill="none" fill-rule="evenodd"><path d="m45.0688871 23.2887985c1.4078025-.1422325 2.8479078.0449155 4.1715727.5442264 2.1462602.8084794 6.6205779-.3668101 8.5557429.8608809 2.9425626 1.86624 4.7124572 5.5702736 8.0937373 6.42292 1.1967073.3016826 2.4527615.1931367 3.686279.247784 4.2128901.1841536 8.4588344 2.6028546 10.0386682 6.4992763 1.5798338 3.8956732-.033054 8.8715647-3.992029 10.3185932-3.2685957-1.097436-7.2463514.9986218-8.1763724 4.308896-.9292699 3.3102741 1.3792557 7.1595346 4.74476 7.9118696.9878657.2200861 2.0410882.2118516 2.9560847.642292 1.1937023.5614441 1.9291552 1.7576942 2.8576738 2.6926857.6490615.6535209 1.4739105 1.2142163 2.3964193 1.2389199 1.7691434.0479099 2.9989047-1.9006753 3.0462321-3.6643582.0473274-1.763683-.676857-3.4487637-.9585677-5.1907375-.282462-1.7412251.0480786-3.8253055 1.5723215-4.7221188 1.5603019-.9177739 3.6787667-.0875852 4.7808191 1.34522s1.4431102 3.288565 1.7503627 5.0672197c1.5603019-.8024907 3.6847764-.7515864 5.4381441-.8339315 1.1208331 1.3205164 1.2192441 3.1867564 1.5633068 4.8815689.3748631 1.8445308 1.1028036 3.6171969 2.1327381 5.195229.7474727 1.1453458 1.6669767 2.2195755 2.0553617 3.5296116.817337 2.7548188-1.429588 5.971519-4.3052915 6.1646557-1.9704727.1317522-4.1880996-.8818414-5.7919728.2664988-1.0720032.7673069-1.3709922 2.1971177-2.0440931 3.3282404-.9307723 1.5660546-1.8683056 2.7076575-3.6937912 2.6313011-2.0936742-.0875853-4.2061291.2897051-6.1390404 1.0966874-.6978914.2919509-1.4340955.7066709-1.6767423 1.4208278-.3095062.9117851.3087549 1.8452794.5799485 2.769042.5025719 1.7135273-.2584227 3.6104596-1.5302528 4.8688429-1.2710788 1.2568861-2.5286356 3.0377866-4.3203158 3.0175746-1.7165575-.0187148-3.3767728 1.1820269-3.8898619 2.8154548-.2216125.7044252-.2441493 1.4560118-.4019073 2.1784028-.1577581.722392-.4943085 1.462-1.1388627 1.828062-.6445541.366062-1.8329978.282968-1.8412613-.455893-.0330541-2.9157657-3.1206038-5.0455101-6.0451369-5.1293524-2.9838801-.0853395-6.0481417 1.6027356-7.2193072 4.3395884-1.1711654 2.736852-.0773765 6.345815 2.5917388 7.678309 1.3709923.684961 2.9575872.754581 4.4900936.803239 1.5325064.049407 3.1175988.103306 4.5006107.762067 1.3837632.658761 2.5181184 2.098303 2.3122818 3.611956-.1284601.949215-.6888767 2.093813.0315516 2.727121.4349614.381034 1.1043061.29794 1.6399321.519523 1.0013878.415469 1.2342686 1.69107 1.8164708 2.603604.808322 1.266617 3.4481395 1.688823 4.872469 1.199244.2456517-3.109651 4.202373-5.256613 6.9571284-3.774401 1.3281722.714157 2.5256306 2.109532 4.0078047 1.826564.5393822-.103305 1.0096513-.427446 1.5325065-.598125 1.3244161-.434183 2.7457406.159451 4.0123121.740358 3.3557383 1.540602 6.8241609 3.165047 9.2100626 5.976011 1.413813 1.666365 2.424967 3.727239 4.213642 4.98712 1.952443 1.374415 4.484835 1.554826 6.874493 1.622948 2.39041.068121 4.896508.101059 6.985675 1.259131 2.089918 1.158072 3.580356 3.899417 3.04473 6.221549-.469518 2.032428-1.373997 3.963795-2.634559 5.627167-1.067496 1.408101-2.446752 2.762304-2.612022 4.51925-.117943 1.248652.414678 2.457628.624271 3.695051.169778 1.00461.115689 2.07884-.357585 2.98239-.472523.9043-1.146375 1.840788-2.156026 2.00473-2.482059.400497-5.413353-.684962-7.318469.95146-2.074894 1.78165-1.08177 5.084438-1.306387 7.804821-.282462 3.400106-2.820112 6.330095-5.9061594 7.809313-.7286918.349592-1.5182331.650526-2.0538591 1.255389-1.1538872 1.30255-.8999719 3.727988-2.4955815 4.429419-.4852937.213349-1.0427054.197628-1.5452773.368307-1.1035549.373548-1.7323333 1.595999-1.7713972 2.756317-.0398151 1.160317.6385444 2.295931.670096 3.456249.0345565 1.234428-.3898877 2.475594-1.1741704 3.433043-.5168453.630315-1.2184928 1.217211-1.2838497 2.028685-.0578446.722391.4176831 1.368426.8684203 1.937356 1.4348467 1.811593 3.400812 3.543086 4.5073718 5.570274.3485701.639297.2411444 1.495687-.2554177 2.029433-.4958109.534495-1.3281723 1.007605-2.0050293.73362-6.1270207-2.474097-10.6974957-8.084046-12.649939-14.377459-1.9531944-6.293414-1.458886-13.177467.5844559-19.442434 1.0930377-3.353692 2.6240416-6.59285 3.1889656-10.073803.5649239-3.480953-.0210344-7.404324-2.5909876-9.827517-2.7742873-2.617078-5.8498174-3.988498-8.4077509-6.815182-1.3777533-1.522636-2.7547554-3.129864-3.4068219-5.074706-.6520664-1.944842-.4169319-4.323119 1.0952914-5.714003.8721764-.800994 2.1402504-1.28683 2.5601872-2.391752.5206014-1.370672-1.1659069-3.01982-.7354528-4.421933-1.8427639.163942-3.7448748-.634058-4.9145378-2.062371-.4342101-.530752-.7745167-1.142352-1.2680739-1.618456-1.9171355-1.84528-5.4058413-1.077973-7.3004399-2.94571-.3921414-.387022-.6873742-.864624-1.0960426-1.23368-.887201-.798748-2.155275-.968678-3.331699-1.182027-2.267208-.410977-5.2285513-.917774-7.0322513-2.346836-2.4768008-1.962808-4.307545-4.719873-5.1504235-7.758408-.4860449-1.7547-.6513152-3.590248-1.2034683-5.324736-1.1005499-3.4555007-3.8530516-6.4124394-7.0457733-8.1506702-3.0507395-1.6603772-6.0413807-4.2475114-6.3599017-7.6970237-.1757875-1.9014238.4995671-3.7773956.588212-5.6855568.1104306-2.3767798-.7594921-5.2768255-2.1387479-7.2194219-1.3154013-1.853514-1.5535408-4.2347854-1.7496115-6.4970306-.1585092-1.8362964-.3125111-3.7287372.2381395-5.4886771.5859583-1.877469 1.915633-3.4218144 2.8418979-5.1577994.9270162-1.7367336 1.4070513-3.9802641.2817108-5.5964744-.844381-1.2119705-2.3641166-1.7427223-3.8087292-2.0661141-4.1828411-.9379859-9.3099765-2.3490819-12.6131288.3750446-1.2530494 1.0330571-3.10557921.682716-4.68015443.2769791-.73695529-.1901424-1.5790826-.4708644-1.83975893-1.1835241-.22687105-.6228286.09841095-1.2928185.30049145-1.9246302.52961619-1.6551371.3568336-3.9765211-.74371635-5.3232382-.1810461-2.0032324-.16602153-4.4316651 1.53701379-5.5096377.54464076-.3451009 1.19219985-.4895792 1.76839221-.7785358.57694359-.2882079 1.1200819-.8062336 1.12458927-1.4485256.00600983-.8084795-.79029252-1.3519573-1.25905919-2.0107183-.60248537-.8466577.02178563-1.3175221.54013339-2.2173297-.29072549-.7313745.36584834-1.5465913 1.12008189-1.7794034.7549848-.2335607 1.5655605-.080848 2.3551018-.0449155 1.3416943.0606359 2.9650994.0276979 4.1610554-.5816561.2313784-1.455263-.9976316-2.6777138-1.987751-3.772904-.9886169-1.0951902-2.2784764-3.4045968-1.1321015-4.3358453 2.5954949-2.1087839 6.2847787-3.2309234 9.5173156-2.3595622 2.5489187-.5749188 6.8489514.4341834 7.567126 2.9374753.449986 1.5675518 2.1537725 2.3460875 3.6119073 3.0841993 2.1830704 1.1049219 4.3000327 2.6881941 6.0549028 4.3897439 1.705289-.1130374 4.025083-.4454123 5.2661127-1.6177074zm57.4710189-11.4957542c1.851779-2.81545483 6.103733-1.2067305 8.406249-3.25712415 2.662354-2.37004251 1.469403-6.36378122 5.53355-8.06233664 2.634559-1.10117894 5.641727.04641271 8.363428.16918181 5.006939.2268234 9.934999-.84890341 14.813478.86612103 3.952213 1.38938689 7.480734 4.85985975 7.57614 9.03475775.029298 1.2928185-.265183 2.5744081-.694135 3.7946132-2.191334 6.2350234-7.793246 11.0005605-9.219078 17.4526756-.848888 3.8425232-.392141 8.5189778-3.479691 10.9706169-2.49483 1.9807746-6.178855 1.4597545-9.04329 2.8588731-1.987751.9709239-3.406071 2.776528-5.038491 4.2677234-1.632419 1.4911954-3.813236 2.7540703-5.966257 2.2367931-1.694021-.4064854-2.948573-1.825816-3.868828-3.2997938-.950304-1.5218877-1.678996-3.2107114-1.892345-4.9901148-.452239-3.7751498 1.4063-7.382615 2.724707-10.9496563 1.318406-3.5670412 2.002775-7.92759-.404161-10.8770428-1.49795-1.8347992-3.867326-2.6889427-5.761173-4.1150106-1.893847-1.4253193-3.35048-4.121748-2.050103-6.1002768zm109.773285 25.2985943c1.205722 1.1700494 6.325345.4813447 7.298937-.8870817.973592-1.3684263.988617-3.1680416 1.038198-4.8441393.04883-1.6768462.236637-3.5101482 1.425832-4.6974152.996129-.9948789 2.597749-1.4200792 3.190468-2.6964287.416181-.8960647.193817-1.943345.28096-2.926995.309506-3.4951764 4.203124-5.3531819 7.549847-6.4423834 1.553541-.5060482 3.163424-1.000119 4.792088-.8586351 1.627912.1422325 3.296391 1.0757268 3.80948 2.622318.491304 1.4814638.06085 3.5520694 1.456633 4.2609861 3.711069-3.0093401 9.083105-3.8357858 13.533383-2.0810859 2.751751 1.0854585 5.369783 3.1089028 8.307087 2.7540702 4.165562-.5030539 6.272759-5.3524333 9.986833-7.2980241 2.542158-1.3309967 5.577873-1.1693008 8.443059-.9739183 3.201736.2178403 6.403473.4364292 9.605209.6542695 1.789427.1220205 3.617166.240298 5.351002-.2140974 1.175673-.3076713 2.267208-.8691154 3.421095-1.2456572 3.545048-1.1550776 7.651264-.4169658 10.565279 1.9006753 2.915519 2.3176411 4.550192 6.1429466 4.206881 9.8432372-.09165.9918845-.314765 2.0009866-.089396 2.9711619.558914 2.4052264 3.673508 3.8530034 3.578853 6.3196143-.117943 3.0490155-4.653862 3.6523807-6.295296 6.2282861-1.080267 1.6940638-.688877 3.8799527-.819591 5.8824365-.129962 2.0024838-1.424329 4.3695319-3.425602 4.1449543-1.636176-.1834051-2.565446-2.1027951-2.399424-3.736223.166021-1.6326794 1.0705-3.0819536 1.709796-4.5948582.640047-1.5129046.995378-3.3432122.113436-4.7303533-.714419-1.1243853-2.213871-1.686578-3.494716-1.3107847-1.281596.3765418-2.234905 1.6581314-2.224388 2.9883795.003756.4850877.12245.9746669.033054 1.4507715-.141982.7598209-.557412 1.5166475-1.331928 1.5361109-2.907255 2.3124009-6.710726 3.1934938-9.823817 5.2221783-3.113092 2.0294331-5.517775 6.2208001-3.573595 9.3806073 1.5896 2.5833912 5.201507 3.0916853 7.329738 5.2558649 1.180931 1.2014903 1.820227 2.8394098 2.159031 4.4878095 1.795436 8.7472984-5.610927 18.191536-14.562567 18.5688264-.685872.0291951-1.395032.0172176-2.029069.2814707-2.367121.9903873-1.765387 4.5027813-.547645 6.7537976 1.426583 2.6357927 3.170184 5.1817544 3.782436 8.1139895.610749 2.9322354-.286218 6.4618464-2.972612 7.8063184-2.240164 1.122139-4.943836.420709-7.416129.837674-2.473045.416966-4.915289 3.364922-3.223522 5.209453 1.886335 1.044286 3.713323 2.601357 4.091191 4.718375.378619 2.11627-1.494945 4.601596-3.591624 4.094799-2.107948-.509791-3.119853-3.491433-5.289401-3.512394-1.564058 1.222451-.482289 3.686067.61751 5.336713 1.099048 1.650645 1.897604 4.320125.135221 5.237899-3.225024-4.073838-5.033232-9.241369-5.049007-14.432107-1.028432.147473-2.057616.295694-3.086799.443167-1.908121-1.292819-2.23791-3.893428-3.143892-6.007452-.905981-2.115521-3.653225-4.018442-5.351001-2.462119-1.355968 1.241914-.748975 3.643397-1.908872 5.067968-.921007 1.131123-2.645828 1.270361-3.694543 2.284703-1.335684 1.289824-1.117828 3.421815-1.261313 5.270088-.143484 1.848274-1.420573 4.076833-3.235541 3.671096-1.773651-6.194599-5.290904-11.883151-10.04543-16.248191-.536377-.493322-1.095291-.974667-1.743601-1.308539-.925514-.476853-1.980239-.628069-3.00792-.805485-4.120489-.711911-8.148577-1.958317-11.948291-3.698045-2.12147-.9709238-4.947592-1.9755344-6.501133-.240298 2.267959 2.640284 5.281889 5.27458 8.751814 4.91301.573938-.060636 1.153136-.203617 1.721816-.104803 1.470905.25527 2.213119 2.090818 1.808958 3.522126s-1.592604 2.495057-2.789312 3.384384c-3.74863 2.784763-8.15083 4.692176-12.752106 5.525359-2.249929-4.750566-4.815375-9.353658-7.671547-13.768854-.800809-1.237423-2.875703-2.386512-3.397807-1.009103-.192314.507546.047328 1.065996.282462 1.555575 1.781163 3.709273 3.562327 7.418547 5.344241 11.127821.59347 1.235925 1.207976 2.501046 2.207861 3.441278 2.883215 2.712149 7.515291 1.702298 11.297727.518774-.712164 5.018561-3.528521 9.706245-7.63098 12.702859-2.724706 1.989758-6.321589 3.752692-6.754297 7.091413-.270442 2.079588.850391 4.047637 1.621152 5.999216.770009 1.950831 1.102803 4.444392-.3974 5.914626-.681365.667745-1.618898.987393-2.471543 1.417085-3.14314 1.581775-5.29541 4.954931-5.401334 8.462085-.035307 1.173044.139729 2.362557-.105172 3.510897-.863912 4.059615-6.09622 5.291049-10.251266 5.01931-.809824-.05315-1.655707-.14373-2.330311-.592885-1.465647-.976913-1.464896-3.059496-1.781914-4.788744-1.177175-6.42292-8.628612-11.550027-6.846698-17.833709.389888-1.372169 1.220747-2.644775 1.250045-4.069346.057844-2.753322-2.725458-4.584378-4.2189-6.901271-1.383764-2.145464-1.648947-4.966908-.691882-7.33171-.835366 1.003113-2.509855.589142-3.518755-.240298-1.0089-.830189-1.783417-1.996495-2.992895-2.494309-1.220746-.502305-2.602256-.210354-3.912399-.044916-5.724362.721643-11.894954-1.440291-15.387416-6.017183-3.49171-4.576143-3.793704-11.520083-.197573-16.015379 3.305406-4.1314792 9.230346-5.8981565 11.652308-10.5985662 3.789948 2.6275582 8.446063-2.0893204 13.033816-2.6080947 1.056228-.1190262 2.295004.0905796 2.845654.9971246.386883.6378004.32378 1.4395426.480787 2.1679226.580699 2.7061604 3.98076 3.7788928 6.739272 3.459244 2.75776-.3196488 5.4419-1.5039215 8.20567-1.2291882 2.503094.2485326 4.798098 1.6813378 7.31246 1.7584428 2.515113.077105 5.360767-2.4501418 4.097952-4.6188131-1.801446-3.0916853-7.692581.3548327-9.892179-2.4703538-.760994-.9769127-.712916-2.3543221-1.244786-3.4704729-.531869-1.1168994-2.382897-1.7629343-2.887722-.6333089.934528 1.3631862.037561 3.5535666-1.586595 3.8754612-1.028432-4.7296047-4.795844-8.7660132-9.456466-10.1306966-.780527 1.1969988.050332 2.7907513 1.046461 3.8155738.996881 1.0255712 2.24993 2.007724 2.440742 3.422563.191563 1.4140904-1.762382 2.8678562-2.639817 1.7404766-.312512-3.0744677-2.23115-5.9415753-4.957358-7.4118101-.640047 1.0382972-2.100435 1.0600063-3.292635 1.3309967-2.113206.4805961-3.898126 2.1888832-4.466055 4.2737121-.253915.9305-.302745 1.9680486-.907484 2.7226294-.631783.789016-1.715055 1.0577606-2.725457 1.1363628-2.522626.1991255-5.306679-.646035-6.661896-2.7757795-1.353714-2.1297444-.496562-5.5575475 1.949438-6.2013367 1.416066-.3727988 2.889977.2058628 4.350366.3136601 1.460388.1070487 3.274605-.6527723 3.285122-2.1117783.01803-2.4321756-4.577987-2.6582504-4.719218-5.0866831 3.309913-.8885788 6.540197-2.0668627 9.644273-3.5153884-.102918-2.2405361 2.338575-3.8230597 4.580241-4.0266767 2.240915-.2028685 4.490094.4596355 6.735516.300934 2.244671-.1587016 4.728985-1.6199533 4.760536-3.8627351.015776-1.1475917-.588212-2.4336729.095406-3.3566869 1.159146-1.565306 4.740253-.3016826 4.98891-2.2308044.235134-1.8160844-2.735975-1.4432855-4.513382-1.9074126-1.706792-.4446637-2.672872-2.6515131-1.84051-4.2003501.441722-.8219541 1.257556-1.3991186 1.677493-2.2323016.418435-.833183.108928-2.1649283-.8256-2.2001121-4.106216.5831532-6.160075 5.5979715-5.49674 9.6770498.221613 1.3646833.650564 2.7540702.345565 4.1022845-.30575 1.3489629-1.747358 2.5736596-3.022944 2.0301817-1.115574-.4746073-1.4063-1.9148985-2.256691-2.7772766-1.105057-1.1206423-3.004914-1.1221395-4.121991-2.2308043-1.383763-1.3729179-.899221-3.7691611.229876-5.3569249 1.129848-1.5870152 2.76978-2.784014 3.764407-4.4578658 1.590351-2.6754681 1.295869-6.1534269 2.901245-8.8191633 1.875066-3.1148916 5.969262-4.317879 9.581921-3.8275512 3.611907.4895792 6.872239 2.3423446 10.028902 4.1599261 1.726323.9933817 3.686279 3.1163888 2.361112 4.6008469-1.494194 1.6731033-4.755278-.6086053-6.392205.926757.098411 2.4157066 2.975617 3.9278626 5.367529 3.5281144 2.392663-.3989995 4.33534-2.0825831 6.140543-3.6972962 2.40318-2.1484593 4.805609-4.2976671 7.208038-6.4461264 2.417454-2.1619339 6.219422-4.3463255 8.546729-2.0885718zm62.639547 96.5399314c-3.333953-4.829916 7.399602-5.961788 10.310613-5.374143 1.795436.363067 2.396419.26051 1.978736 2.053388-.217105.931249-3.327943 5.220681-4.260969 5.848001-1.366485.917026-3.21.418463-4.725979-.22308-1.253801-.530752-2.530138-1.18577-3.302401-2.304166zm-10.580229-.604638c-1.02092-1.852017-2.479806-3.783385-3.316675-5.536587 3.213005-1.524134 8.347653 4.834407 9.661552 7.356414.456747.875853.834615 1.798118 1.389022 2.616329 1.328172 1.959066 3.541291 3.141093 5.779201 3.922623 2.239413.78153 4.590007 1.240417 6.77458 2.160437.790293.332375 1.67524 1.265869 1.07576 1.877469-8.655657.119026-17.194873-4.835905-21.36344-12.396685zm22.627833 17.608757c2.405434-2.682954 6.823409-5.351685 10.602841-4.867346 3.104828.396754 5.363021 4.526736 8.153835 4.430917-.971338-4.20035 2.591739-3.885193 4.336092-.92002.869923 1.479967 1.115574 3.231672 1.342446 4.931725 4.279749 3.263861 9.021504 7.546556 8.390472 12.878778-.326033 2.761556-2.083157 5.115878-3.77868 7.324225-1.281596 1.668611-2.563192 3.337972-3.845539 5.007332-.625774.815217-1.270328 1.646902-2.139499 2.198615-2.558685 1.62145-6.175851.098814-7.815783-2.443405-1.865301-2.891062-2.150768-7.062217-5.17897-8.70912-2.828376-1.538357-6.262994.115283-9.096628 1.644657s-6.494372 2.912023-9.071837.985896c-.559665-.418463-1.038949-1.029314-1.050969-1.726254-.009766-.580159.298989-1.11091.511587-1.651394 1.054725-2.69044-.268189-5.645133-.910489-8.462085-.642301-2.816203.013522-6.598839 2.836639-7.250114.961573-.220834 1.983244-.00524 2.942563-.233561 1.621902-.385524 2.660852-1.899926 3.771919-3.138846zm17.366978-79.4268169c1.077262-2.2270615 1.011154-7.8549767 3.321182-9.0100543 3.799715-1.8999266 3.285123 2.8191978 3.325689 5.1121353.027796 1.6431596.044323 3.3469552-.622768 4.8493795-.485294 1.0921958-1.298123 1.9987408-2.038083 2.9382239-1.738344 2.2068494-3.126614 4.6861864-4.100206 7.3182361-1.002139 2.7114005-1.947185 5.9992169-4.700438 6.9095048-1.27784-4.1659149-.770009-8.8453639 1.373246-12.6422229 1.059984-1.8782175 2.493328-3.5385947 3.441378-5.4752024zm-15.705336 35.3520359c.513841-.381782 3.413583-2.607346 3.620171-1.083961.05484.401245-.157758.784524-.349321 1.140854-.526612.980656-.951807 2.01521-1.266572 3.081205-.326784 1.104173-.595724 2.338602-1.519735 3.028804-.074372.056144-.159261.109294-.252413.104803-.166773-.008235-.263681-.1864-.327536-.339861l-1.05172-2.533236c-.157007-.376542-.316267-.764312-.323779-1.172295-.015776-.923763.729443-1.673103 1.470905-2.226313z" fill="#50beaf"/><g stroke="#f0e14b" stroke-linecap="round" stroke-linejoin="bevel" stroke-width=".937054" transform="translate(1 .935005)"><path d="m78.699438 62.1128117c-.0473274 1.7636829-1.2770887 3.7122681-3.0462321 3.6643582m-12.9549378-12.4857672c.930021-3.3102742 4.9077767-5.406332 8.1763724-4.308896 3.958975-1.4470285 5.5718628-6.42292 3.992029-10.3185932-1.5798338-3.8964217-5.8257781-6.3151227-10.0386682-6.4992764-1.2335175-.0546472-2.4895717.0538987-3.686279-.2477839-3.3812801-.8526464-5.1511747-4.55668-8.0937373-6.42292-1.935165-1.227691-6.4094827-.0524015-8.5557429-.8608809-1.3236649-.4993109-2.7637702-.6864589-4.1715726-.5442265-1.2410298 1.1722952-3.5608238 1.5046701-5.2661128 1.6177075-1.7548701-1.7015498-3.8718324-3.284822-6.0549028-4.3897439-1.4581348-.7381118-3.1619213-1.5166475-3.6119073-3.0841993m-20.88190239 14.1648592c-.00450737.642292-.54764567 1.1603177-1.12458927 1.4485256m-1.76839221.7785358c-1.70303532 1.0779726-1.71805989 3.5064053-1.53701379 5.5096377m.74371635 5.3232382c-.2020805.6318117-.5273625 1.3018016-.30049145 1.9246302.26067634.7126597 1.10280364.9933817 1.83975893 1.1835241 1.57457522.4057369 3.42710504.756078 4.6801544-.2769791 3.30315233-2.7241265 8.43028773-1.3130305 12.61312883-.3750446 1.4446126.3233918 2.9643482.8541436 3.8087292 2.0661141m-.2817108 5.5964744c-.9262649 1.735985-2.2559396 3.2803304-2.8418979 5.1577994-.5506506 1.7599399-.3966487 3.6523807-.2381395 5.4886771.1960707 2.2622452.4342102 4.6435166 1.7496115 6.4970306 1.3792558 1.9425964 2.2491785 4.8426421 2.1387479 7.2194219-.0886449 1.9081612-.7639995 3.784133-.588212 5.6855568.318521 3.4495123 3.3091622 6.0366465 6.3599017 7.6970237 3.1927217 1.7382308 5.9452234 4.6951695 7.0457733 8.1506708.5521531 1.734488.7174234 3.570035 1.2034683 5.324735.8428785 3.038535 2.6736227 5.7956 5.1504235 7.758408 1.8037 1.429063 4.7650433 1.93586 7.0322513 2.346837 1.176424.213348 2.444498.383279 3.331699 1.182026.4086684.369056.7039012.846658 1.0960426 1.23368 1.8945986 1.867737 5.3833044 1.100431 7.3004399 2.94571.4935572.476105.8338638 1.087704 1.2680739 1.618456 1.169663 1.428314 3.0717739 2.226313 4.9145378 2.062371-.4304541 1.402113 1.2560542 3.051262.7354528 4.421934-.4199368 1.104922-1.6880108 1.590758-2.5601872 2.391751-1.5122233 1.390884-1.7473578 3.769161-1.0952914 5.714004.6520665 1.944842 2.0290686 3.552069 3.4068219 5.074705 2.5579335 2.826684 5.6334636 4.198105 8.4077509 6.815183m2.5909876 9.827516c-.564924 3.480953-2.0959279 6.720111-3.1889656 10.073804-2.0433419 6.264967-2.5376503 13.14902-.5844559 19.442433 1.9524433 6.293414 6.5229183 11.903363 12.649939 14.37746.676857.273984 1.5092184-.199126 2.0050293-.733621.4965621-.533746.6039878-1.390135.2554177-2.029433m2.004278-123.7707162c2.8757032-.1931367 5.1226281-3.4098369 4.3052913-6.1646557-.3883852-1.3100361-1.307889-2.3842658-2.0553615-3.5296116-1.0299345-1.5780321-1.757875-3.3506982-2.1327381-5.195229-.3440627-1.6948125-.4424737-3.5610525-1.5633068-4.8815689"/><path d="m121.03197.64276532c-2.721701-.1227691-5.72887-1.27036075-8.363429-.16918181-4.064146 1.69855542-2.871195 5.69229413-5.53355 8.06233664-2.302515 2.05039365-6.55447.44166932-8.4062481 3.25712415-1.3003768 1.9785288.1562555 4.6749575 2.0501031 6.1002768 1.893847 1.4260679 4.263222 2.2802114 5.761172 4.1150106 2.406937 2.9494528 1.722567 7.3100016.404161 10.8770428-1.318406 3.5670413-3.176946 7.1745065-2.724706 10.9496563.213349 1.7794034.942041 3.4682271 1.892345 4.9901148m3.868827 3.2997938c2.153022.5172772 4.333838-.7455977 5.966258-2.2367931"/><path d="m262.843766 18.5459239c-3.034281.36478-5.738748-1.7153894-8.581349-2.8312776-4.597207-1.8038909-10.146604-.9542768-13.980197 2.1394269-1.441865-.7287904-.9972-2.8574432-1.504724-4.3804382-.530029-1.5899482-2.253594-2.549612-3.935252-2.6958318-1.682435-.1454503-3.34547.3624712-4.950302.882706-3.457217 1.119736-7.479385 3.0298287-7.79911 6.6229886-.09002 1.0112255.139686 2.0878652-.290236 3.0090501-.612288 1.3121306-2.266786 1.7492509-3.295803 2.7720201-1.228457 1.2205508-1.422464 3.1052474-1.472906 4.8291022-.051218 1.7230852-.066739 3.5731509-1.072475 4.9799395-1.005736 1.4067887-6.294387 2.1148005-7.539916.91195-2.404144-2.3210474-6.331636-.0754187-8.828904 2.1471227m-7.496435 6.5450323c-1.837377 1.6056264-3.814678 3.2797356-6.249986 3.6764899-2.434543.3974986-5.363029-1.1061478-5.463194-3.5082601m-15.929925-6.2457598c-1.651708 2.7475489-1.348728 6.3322477-2.984978 9.089827-1.023332 1.725223-2.710594 2.9589581-3.87305 4.5946795-1.161683 1.6364929-1.66021 4.1062778-.23651 5.5213311 1.149316 1.1426902 3.104005 1.1442333 4.240955 2.2992686m4.857785-3.2725161c-.703364-4.1383014 1.474435-9.2259286 5.828441-9.8175485.990923.0356946 1.319106 1.3867752.875421 2.232055-.445278.8452797-1.310344 1.4308239-1.778722 2.2647118-.88259 1.5713242.141788 3.8102143 1.951576 4.261334m-25.747898 26.2896132c-1.478765-.1115472-2.971221-.7103386-4.405106-.3245713-2.476778.6661845-3.344715 4.2132294-1.973968 6.4170605m-7.407041 15.8950785c-3.666142 4.645079-3.358268 11.820391.20142 16.549012 3.560454 4.729394 9.851177 6.963364 15.686982 6.217676 1.335649-.170951 2.744054-.47263 3.988567.046412m7.496435 9.984794c1.541 2.400543 4.412933 4.297709 4.353246 7.150438-.030231 1.476005-.887547 2.794558-1.289851 4.216269-1.838657 6.510553 5.850063 11.822772 7.064724 18.47759.327113 1.791682.326338 3.949456 1.838657 4.96164.696085.465371 1.568905.559221 2.404517.61429 4.287359.28155 9.686283-.994344 10.577706-5.20053.252699-1.189801.072089-2.422261.108521-3.637657.109297-3.633778 2.330103-7.128721 5.573334-8.767606.879796-.445205 1.847184-.776395 2.550245-1.468248 1.547976-1.523317 1.204585-4.106907.410055-6.128172-.795304-2.02204-1.951829-4.061145-1.672775-6.215816.446487-3.459265 4.157908-5.285849 6.96938-7.347447m15.446978-23.679256c.415785-1.468087-.347774-3.350802-1.860981-3.612631-.585034-.101354-1.180888.045302-1.771332.107496-3.569715.370861-6.67032-2.331127-9.003502-5.039257 1.598218-1.7798254 4.505615-.7494 6.688095.246473 3.908988 1.784433 8.052917 3.062867 12.291905 3.793071 1.057235.181976 2.142292.337077 3.094422.826184.666955.342451 1.241942.836164 1.793745 1.342163 4.891258 4.477206 8.509661 10.311933 10.334319 16.665711m8.43349-11.466125c1.208497-1.473562.576071-3.957635 1.988854-5.242259 1.768913-1.609846 4.631265.358518 5.575207 2.546793.943943 2.186727 1.28755 4.876773 3.275621 6.214052 1.072306-.152544 2.144611-.305863 3.216135-.458407"/><path d="m279.625694 153.811135c-.959319.22832-1.98099.012726-2.942562.233561-2.823118.651275-3.47894 4.43391-2.83664 7.250114.642301 2.816952 1.965214 5.771645.910489 8.462085-.212597.540483-.521352 1.071235-.511586 1.651394.012019.696939.491303 1.30779 1.050969 1.726253 2.577465 1.926127 6.238202.543478 9.071837-.985896 2.833634-1.529373 6.268251-3.183013 9.096627-1.644656 3.028203 1.646902 3.31367 5.818057 5.17897 8.70912 1.639932 2.542218 5.257098 4.064855 7.815783 2.443404.869172-.551712 1.513726-1.383398 2.139499-2.198615 1.282348-1.66936 2.563944-3.33872 3.84554-5.007332 1.695523-2.208347 3.452646-4.562669 3.77868-7.324225"/></g></g></svg>