<?xml version="1.0" encoding="utf-8"?>
<!-- Generator: Adobe Illustrator 17.0.0, SVG Export Plug-In . SVG Version: 6.00 Build 0)  -->
<!DOCTYPE svg PUBLIC "-//W3C//DTD SVG 1.1//EN" "http://www.w3.org/Graphics/SVG/1.1/DTD/svg11.dtd">
<svg version="1.1" id="圖層_1" xmlns="http://www.w3.org/2000/svg" xmlns:xlink="http://www.w3.org/1999/xlink" x="0px" y="0px"
	 width="185px" height="185px" viewBox="0 0 185 185" enable-background="new 0 0 185 185" xml:space="preserve">
<g id="left_x5F_body">
	<g>
		<path fill="none" stroke="#50BEAF" stroke-linecap="round" stroke-linejoin="round" stroke-miterlimit="10" d="M7.1,150.2v14.6
			c0,5.7,4.6,10.3,10.3,10.3H131c5.7,0,10.3-4.6,10.3-10.3V24c0-5.7-4.6-10.3-10.3-10.3H17.4c-5.7,0-10.3,4.6-10.3,10.3v109.5"/>
	</g>
</g>
<g id="left_x5F_cube">
	<path fill="none" stroke="#50BEAF" stroke-linecap="round" stroke-linejoin="round" stroke-miterlimit="10" d="M28.6,115.3h21.8
		c0.9,0,1.7-0.8,1.7-1.7V91.9c0-0.9-0.8-1.7-1.7-1.7H28.6c-0.9,0-1.7,0.8-1.7,1.7v21.6C26.9,114.5,27.7,115.3,28.6,115.3z"/>
	<path fill="none" stroke="#50BEAF" stroke-linecap="round" stroke-linejoin="round" stroke-miterlimit="10" d="M28.6,154h21.8
		c0.9,0,1.7-0.8,1.7-1.7v-21.6c0-0.9-0.8-1.7-1.7-1.7H28.6c-0.9,0-1.7,0.8-1.7,1.7v21.6C26.9,153.3,27.7,154,28.6,154z"/>
	<path fill="none" stroke="#50BEAF" stroke-linecap="round" stroke-linejoin="round" stroke-miterlimit="10" d="M85.1,90.2H63.3
		c-0.9,0-1.7,0.8-1.7,1.7v21.6c0,0.9,0.8,1.7,1.7,1.7h21.8c0.9,0,1.7-0.8,1.7-1.7V91.9C86.8,91,86,90.2,85.1,90.2z"/>
	<path fill="none" stroke="#50BEAF" stroke-linecap="round" stroke-linejoin="round" stroke-miterlimit="10" d="M85.1,129H63.3
		c-0.9,0-1.7,0.8-1.7,1.7v21.6c0,0.9,0.8,1.7,1.7,1.7h21.8c0.9,0,1.7-0.8,1.7-1.7v-21.6C86.8,129.7,86,129,85.1,129z"/>
</g>
<g id="left_x5F_top">
	<path fill="none" stroke="#50BEAF" stroke-linecap="round" stroke-linejoin="round" stroke-miterlimit="10" d="M88.7,66.1h31
		c0.9,0,1.7-0.8,1.7-1.7V37c0-0.9-0.8-1.7-1.7-1.7H28.6c-0.9,0-1.7,0.8-1.7,1.7v27.5c0,0.9,0.8,1.7,1.7,1.7h31"/>
</g>
<g id="left_x5F_point">
	
		<line fill="none" stroke="#50BEAF" stroke-linecap="round" stroke-linejoin="round" stroke-miterlimit="10" x1="73" y1="66.2" x2="74.1" y2="66.2"/>
</g>
<g id="right_x5F_body">
	<path fill="#FFFFFF" stroke="#50BEAF" stroke-linecap="round" stroke-linejoin="round" stroke-miterlimit="10" d="M83.3,18.9v36.7
		c0,20.3,16.4,36.7,36.7,36.7h11c20.3,0,36.7-16.4,36.7-36.7V18.9 M167.8,165.9v-36.7c0-20.3-16.4-36.7-36.7-36.7h-11
		c-20.3,0-36.7,16.4-36.7,36.7v36.7"/>
</g>
<g id="right_x5F_bottom">
	<path fill="#FFFFFF" stroke="#50BEAF" stroke-linecap="round" stroke-linejoin="round" stroke-miterlimit="10" d="M180.7,169.6
		c0-2-1.6-3.7-3.7-3.7H74.1c-2,0-3.7,1.6-3.7,3.7v7.3c0,2,1.6,3.7,3.7,3.7H177c2,0,3.7-1.6,3.7-3.7V169.6z"/>
</g>
<g id="right_x5F_top">
	<path fill="#FFFFFF" stroke="#50BEAF" stroke-linecap="round" stroke-linejoin="round" stroke-miterlimit="10" d="M157.2,4.2H74.1
		c-2,0-3.7,1.6-3.7,3.7v7.3c0,2,1.6,3.7,3.7,3.7H177c2,0,3.7-1.6,3.7-3.7V7.8c0-2-1.6-3.7-3.7-3.7h-6.4"/>
</g>
<g id="right_x5F_b">
	<path fill="none" stroke="#50BEAF" stroke-linecap="round" stroke-linejoin="round" stroke-miterlimit="10" d="M126.7,111
		c-0.9-0.4-1.9-0.4-2.9,0c-9.5,3.8-31,9.8-31,34.3v10.4c0,2.1,1.7,3.8,3.8,3.8h57.1c2.1,0,3.8-1.7,3.8-3.8v-10.4
		C157.6,121.8,138,115.6,126.7,111z"/>
</g>
<g id="right_x5F_a">
	<path fill="none" stroke="#50BEAF" stroke-linecap="round" stroke-linejoin="round" stroke-miterlimit="10" d="M124.5,84.4
		c0.5,0.2,1,0.2,1.5,0c5-2,16.2-1.3,16.2-14.1v-2.6c0-1.1-0.9-2-2-2h-29.9c-1.1,0-2,0.9-2,2v2.6C108.3,82.6,118.5,82,124.5,84.4z"/>
</g>
</svg>
