<?xml version="1.0" encoding="utf-8"?>
<!-- Generator: Adobe Illustrator 26.2.1, SVG Export Plug-In . SVG Version: 6.00 Build 0)  -->
<svg version="1.1" id="ed0ihh3a6691" shape-rendering="geometricPrecision" text-rendering="geometricPrecision"
	 xmlns="http://www.w3.org/2000/svg" xmlns:xlink="http://www.w3.org/1999/xlink" x="0px" y="0px" viewBox="0 0 1148.9 768"
	 style="enable-background:new 0 0 1148.9 768;" xml:space="preserve">
<style type="text/css">
	.st0{fill:#F0E14B;}
	.st1{fill:#50BEAF;}
	.st2{fill:#FFFFFF;}
	.st3{fill:#67676E;}
	.st4{fill:#FFFFFF;stroke:#50BEAF;stroke-width:2;stroke-miterlimit:10;}
	.st5{fill:#7C7C7C;}
	.st6{fill:none;stroke:#50BEAF;stroke-width:2;stroke-miterlimit:10;}
	.st7{fill:none;stroke:#F0E14B;stroke-width:2;stroke-miterlimit:10;}
	.st8{fill:none;stroke:#67676E;stroke-width:3;stroke-linecap:round;stroke-linejoin:round;}
	.st9{fill:none;stroke:#67676E;stroke-width:3;stroke-linecap:round;stroke-linejoin:round;stroke-miterlimit:4;}
	.st10{fill:#FFFFFF;stroke:#F0E14B;stroke-width:2;stroke-miterlimit:10;}
</style>
<g id="ed0ihh3a6692">
	<path id="ed0ihh3a6693" class="st0" d="M377.2,376.2l-0.7-0.2L336.2,39.5c-16.7,2-32.9,5.2-48.6,9.6l0,0
		C129.3,92.5,22.4,246.5,42.5,414.4c22.2,185,190.1,316.9,375,294.8C520.7,696.8,607.4,639,660,558.3L377.2,376.2z M358.6,310l18,66
		l0,0L358.6,310z"/>
	<path id="ed0ihh3a6694" class="st1" d="M712.5,334.1c-22.2-184.9-190.1-316.9-375-294.8c-0.3,0-0.6,0.1-0.9,0.1l40.2,335.1
		l-4.8-1.3l287.4,185.1c18.4-28.2,32.6-59.1,42.1-91.9l0.6,0.2C713.9,424.7,717.9,379.9,712.5,334.1z"/>
</g>
<g id="ed0ihh3a6695">
	<path id="ed0ihh3a6696" class="st2" d="M483.2,198.8h-16.8v14.1H461v-14.1h-16.6v-5.2H461v-13.1h-14.5v-5h34.2v5h-14.3v13.1h16.8
		V198.8z M453.9,182c1.4,2.7,3,6.4,3.4,8.8l-5,1.6c-0.4-2.3-1.8-6.1-3.2-8.9L453.9,182z M469.8,190.9c1.4-2.5,2.9-6.3,3.8-9.1
		l5.4,1.4c-1.6,3.2-3.2,6.8-4.7,8.9L469.8,190.9z"/>
	<path id="ed0ihh3a6697" class="st2" d="M499.3,186.8c-0.4-0.4-0.9-0.9-1.4-1.3c-0.5,1.1-1.1,2.1-1.8,3.2V213h-4.7v-17.5
		c-0.7,0.9-1.4,1.8-2.1,2.5c-0.5-1.1-2-3.6-2.7-4.7c3-2.9,6.1-7.3,7.9-11.5l3.2,1.1c2.3-3,3.9-6.8,4.8-9.8l4.5,0.7
		c-0.2,0.7-0.5,1.6-0.9,2.3h4.3l0.7-0.2l3,2c-0.5,1.4-1.4,3.2-2.3,4.8h3.8v14.9h-16.3V186.8L499.3,186.8z M498.4,174.6
		c-2.3,3.8-5.7,7.9-8.9,10.6c-0.5-1.1-1.8-3-2.5-3.9c2.7-2.1,5.4-5.5,6.8-8.2L498.4,174.6z M510.6,204c2,1.4,3.9,3.2,5,4.5l-3,3
		c-1.1-1.3-2.9-3.2-4.8-4.8c-1.3,2.7-3.6,4.7-7.5,6.1c-0.4-1.1-1.6-2.7-2.5-3.4c3.8-1.3,5.5-3,6.6-5.4h-5.9v-4.1h6.8
		c0-0.5,0-1.1,0.2-1.6h4.3c0,0.5,0,1.1-0.2,1.6h6.8v4.1L510.6,204L510.6,204z M502.9,188.6h2.7v-2.3h-2.7V188.6z M502.9,194.1h2.7
		v-2.3h-2.7V194.1z M504.7,180.2c-0.4,0.9-0.9,1.8-1.4,2.7h4.1c0.4-0.9,0.9-1.8,1.3-2.7H504.7z M511.7,186.3h-2.5v2.3h2.5V186.3z
		 M511.7,191.8h-2.5v2.3h2.5V191.8z M527.2,190.7h-2.9v17c0,2.1-0.4,3.4-1.6,4.3c-1.3,0.7-3,0.9-5.5,0.9c0-1.3-0.5-3.2-1.3-4.7
		c1.3,0,2.7,0,3.2,0s0.5-0.2,0.5-0.5v-17h-3.4V186h10.7v4.7H527.2L527.2,190.7z M526.3,180.2h-8.9v-4.7h8.9V180.2z"/>
	<path id="ed0ihh3a6698" class="st2" d="M568.4,185.7c-1.1,6.4-2.9,11.8-5.4,16.1c2.3,2.9,5,5.2,8.2,6.8c-1.1,0.9-2.7,2.9-3.4,4.3
		c-3-1.8-5.5-3.9-7.7-6.8c-2.3,2.9-5.2,5.2-8.6,7c-0.5-1.1-2.3-3.2-3.2-4.1c3.8-1.8,6.6-4.1,8.9-7.2c-1.6-2.9-3-5.9-4.1-9.3
		c-0.7,1.1-1.4,2.1-2.1,3c-0.5-1.1-2-2.9-3-3.9v21.5h-5V202c-6.8,2.3-8.2,3.2-9.1,3.9c-0.4-1.3-1.3-3.6-2-4.7c0.9-0.5,1.6-1.3,1.6-3
		v-20.8h5v20.9l4.5-1.4v-23.6h5v17c3.4-4.1,5.4-10.7,6.4-17.5l5.2,0.9c-0.4,2.3-0.9,4.8-1.4,7.2h13.1v4.8L568.4,185.7L568.4,185.7z
		 M556.2,185.7c-0.2,0.4-0.4,0.7-0.4,1.1c1.1,3.8,2.3,7.2,4.1,10.4c1.6-3.2,2.7-7.2,3.4-11.5H556.2z"/>
	<path id="ed0ihh3a6699" class="st2" d="M614,207.2v4.5h-39.2v-4.5h5V195c-0.5,0.2-1.1,0.5-1.8,0.7c-0.7-1.3-1.8-3.2-2.9-4.3
		c4.1-1.3,9.7-3.8,12.5-5.7l3.6,2.5c-2.7,2-7,4.5-10.7,6.3h28.6V207h4.8L614,207.2L614,207.2z M613.5,185.6h-38.1v-4.5h10.2
		c-0.9-2-2.5-4.3-3.8-6.3l4.3-2c1.8,2.1,3.6,5,4.5,6.8l-2.3,1.3h12.5l-2.3-0.9c1.3-2,3-5,3.9-7.3l5.2,1.6c-1.4,2.3-3,4.8-4.3,6.4
		h10.4v4.8L613.5,185.6L613.5,185.6z M584.3,207.2h3.6V199h-3.6V207.2z M592.6,199v8.2h3.6V199H592.6z M600.6,185.9
		c4.1,1.4,10.2,3.8,13.4,5.4l-2.9,4.1c-3-1.6-8.9-4.3-13.2-5.9L600.6,185.9z M600.8,199v8.2h3.6V199H600.8z"/>
	<path id="ed0ihh3a66910" class="st2" d="M483.5,257.7h-12.2c4.1,2,8.4,4.1,10.9,5.7l-3.4,3.9c-2.7-2-7.5-4.7-11.8-6.6l2.3-3h-12.7
		l3.6,3c-3.8,2.5-9.1,5.2-13.2,6.8c-0.7-1.1-2-2.7-2.9-3.8c3.8-1.4,8.8-3.9,11.6-5.9H444v-4.7h3.9l-0.7-22.2
		c2.7-0.9,6.1-2.1,8.2-3.2l2.1,4.1c-1.8,0.7-3.8,1.1-5.7,1.6l0.2,3.9h4.8v4.1H452l0.2,3.8h4.8v4.1h-4.7l0.2,3.6h22.4
		c0-1.1,0.2-2.1,0.2-3.4h-4.3v-4.3h4.5c0-1.3,0-2.5,0.2-3.8h-4.3v-4.3h4.5c0-1.3,0-2.5,0-3.8h-5V229h9.7c0,7.7-0.2,17.2-0.5,23.6
		h3.8v5.1H483.5z M462.9,243.7c-0.4,2.9-1.1,5.5-2.1,7.5c-0.7-0.5-2.3-1.6-3.2-2c1.1-1.6,1.4-3.8,1.6-6.1L462.9,243.7z M465.1,242.1
		h-6.4v-14.3h4.3v2.9h6.8v4.3H463v3.2h4.8l0,0h1.6v10.9c0,1.8-0.4,2.5-1.4,3c-1.1,0.5-2.9,0.5-4.8,0.5c-0.2-1.1-0.7-2.1-1.1-3.2
		c1.1,0,2.3,0,2.7,0c0.4,0,0.5,0,0.5-0.5v-6.8L465.1,242.1L465.1,242.1z"/>
	<path id="ed0ihh3a66911" class="st2" d="M522.7,229.2c-0.2,16.8-0.2,32.7,1.8,32.7c0.4,0,0.7-2.5,0.7-6.1c0.9,1.4,2,3,2.9,4.1
		c-0.5,5-1.4,7.5-4.1,7.5c-6.3,0-6.3-15.4-6.3-33.6h-21.1V244c0,7.2-0.7,17.2-5.4,23.6c-0.9-0.9-3-2.3-4.1-2.7
		c4.3-5.7,4.7-14.3,4.7-20.8v-15h30.9V229.2z M514.8,255.4c1.8,3,3.4,7,3.9,9.5l-4.1,1.4c-0.2-0.9-0.4-1.8-0.7-2.9
		c-6.3,0.5-12.7,1.1-17.5,1.4l-0.4-4.7c2.3,0,5.4-0.2,8.6-0.5v-4.5H498v-12.5h6.6v-2.9h-6.8v-3.9h18.3v4.1h-7v2.9h7v12.5h-7v4.3
		l3.2-0.2c-0.4-0.9-0.9-1.8-1.4-2.7L514.8,255.4z M504.6,251.4v-4.8h-2.9v4.7h2.9V251.4z M509.1,246.6v4.7h2.9v-4.7H509.1z"/>
	<path id="ed0ihh3a66912" class="st2" d="M550.4,238.4c-1.3,0.9-2.9,1.8-4.3,2.7c-0.7-0.9-2.1-2.5-3.2-3.4c-0.5,1.6-0.9,3.2-1.3,4.5
		c2.1,3.2,2.7,6.4,2.7,8.8c0,2.9-0.5,4.7-1.8,5.7c-0.5,0.5-1.4,0.9-2.3,0.9c-0.7,0.2-1.6,0.2-2.5,0.2c0-1.3-0.4-3.2-1.1-4.5
		c0.7,0,1.1,0,1.6,0c0.4,0,0.7,0,1.1-0.4c0.5-0.4,0.7-1.3,0.7-2.7c0-2-0.4-4.8-2.3-7.7c0.7-2.5,1.4-6.1,2.1-8.9h-3.2v33.8h-4.3
		v-38.3h8.8l0.7-0.2l3.2,1.8c-0.5,2-1.3,4.3-1.8,6.4c4.8-2.5,9.5-6.4,11.8-10.4l4.8,1.8c-0.2,0.4-0.5,0.9-0.9,1.3
		c3.2,2.5,7.9,5.2,12,6.4c-0.7,1.3-1.6,3.4-2,4.8c-2-0.9-4.1-2-6.1-3.2v2.9h-12.7v-2.3L550.4,238.4L550.4,238.4z M553.1,255.4
		c-0.2,0.9-0.5,1.8-0.9,2.5c1.4,1.1,3.2,2.1,4.1,3l-2.5,3.4c-0.7-0.9-2.1-2-3.4-3c-1.6,2.7-3.8,4.8-6.1,6.4
		c-0.7-0.9-2.3-2.5-3.2-3.2c3.8-2.1,6.4-5.9,7.9-10.2L553.1,255.4z M545.4,243h10.4v10.7h-10.4V243z M549,250.5h2.9v-3.9H549V250.5z
		 M561.4,237.1c-1.8-1.3-3.6-2.5-5-3.9c-1.3,1.4-2.7,2.7-4.1,3.9H561.4z M565.1,255c-0.2,1.3-0.5,2.3-1.1,3.4
		c2.3,1.6,5.2,3.8,6.6,5.2l-3,3.4c-1.3-1.3-3.2-3-5.4-4.7c-1.3,2.1-2.9,3.9-4.8,5.4c-0.7-0.9-2.3-2.5-3.2-3.2
		c3.4-2.1,5.4-5.7,6.3-10.2L565.1,255z M557.6,243h10.7v10.7h-10.7V243z M561.4,250.5h3v-3.9h-3V250.5z"/>
</g>
<g id="ed0ihh3a66913">
	<g id="ed0ihh3a66914">
		<path id="ed0ihh3a66915" class="st3" d="M152.6,506.1c-0.9,4.1-2.3,8.4-4.1,11.6c0.5,0.4,1.3,0.9,2,1.3c2.9,1.8,7,2,12,2
			s12.7-0.4,17.4-1.1c-0.5,1.4-1.4,3.9-1.4,5.2c-3.6,0.2-11.1,0.5-16.1,0.5c-5.7,0-9.3-0.5-12.3-2.3c-1.8-1.1-3.2-2.3-4.1-2.3
			c-1.1,0-2.3,2.9-3.4,5.4l-3.4-4.8c1.8-2.1,3.8-3.8,5.4-4.5c1.1-2.1,2-4.7,2.7-7.3h-5.7c1.1-2.3,2.1-5.7,3.2-8.9h-4.5v-4.5h10.6
			c-0.9,2.9-2,6.3-3,9.1h2.5l0.7-0.2L152.6,506.1z M144.5,495c-0.5-2-1.6-5-2.3-7.2l4.7-1.4c0.9,2.1,1.8,5.2,2.5,7L144.5,495z
			 M154.6,490.4h6.8c0.4-1.4,0.9-3,1.1-4.3l6.1,0.7c-0.5,1.3-1.1,2.3-1.6,3.6h8.2v12h-15.7v2.7h17.4v13.2h-22.2L154.6,490.4
			L154.6,490.4z M159.4,494.5v3.8h10.7v-3.8H159.4z M159.4,509.1v4.8h12.3v-4.8L159.4,509.1L159.4,509.1z"/>
		<path id="ed0ihh3a66916" class="st3" d="M220.9,501.8c-2.5,2.9-5.5,5.9-8.2,8.2c3,3.2,6.6,6.1,10.6,7.9c-1.3,1.1-2.9,3.2-3.8,4.7
			c-5.9-3-10.6-8.1-14-14.3v11.8c0,3-0.5,4.5-2.3,5.4s-4.5,1.1-8.4,1.1c-0.2-1.4-0.9-3.8-1.8-5.4c2.5,0.2,5.4,0,6.1,0
			c0.9,0,1.1-0.2,1.1-1.1v-6.6c-4.8,3.2-10,6.4-14.1,8.8l-3.2-4.7c4.1-2.1,11.1-5.9,17.4-9.7v-10.4h-16.1v-5h16.1v-6.4h5.2v6.4h8.6
			c-1.8-1.1-3.9-2.3-5.7-3.4l3-3.2c2.5,1.1,6.1,3,7.9,4.5l-2,2.1h4.7v5h-16.5v0.5c1.1,2.9,2.5,5.7,4.3,8.2c2.3-2.3,4.8-5.2,6.4-7.5
			L220.9,501.8z M192.5,510c-1.3-2.3-4.3-5.7-6.8-8.2l3.9-2.7c2.5,2.1,5.7,5.4,7.2,7.7L192.5,510z"/>
		<path id="ed0ihh3a66917" class="st3" d="M243.1,496.8v15.9h-5.4v2.5h6.1v4.3h-6.1v6.4H233v-6.4h-6.4v-4.3h6.4v-2.5h-5.2v-15.9h5.2
			v-2.3h-5.9v-4.3h5.9v-4.1h4.7v4.1h6.1v4.3h-6.1v2.3L243.1,496.8L243.1,496.8z M231.7,503.1h1.8v-2.7h-1.8V503.1z M231.7,509.1h1.8
			v-2.7h-1.8V509.1z M239.2,500.4h-2v2.7h2V500.4z M239.2,506.5h-2v2.7h2V506.5z M263,507.7c-0.2-0.4-0.4-0.7-0.5-0.9
			c-0.9,3.2-2.3,6.3-3.9,8.8c2.5,2.7,5.4,4.8,8.9,6.3c-1.1,1.1-2.7,3-3.4,4.3c-3.4-1.6-6.3-3.8-8.8-6.4c-2.5,2.7-5.5,4.8-9.1,6.4
			c-0.7-1.1-2.1-3-3.2-3.9c3.8-1.6,6.8-3.9,9.3-6.8c-1.6-2.5-3-5.5-4.1-8.8c-0.4,0.4-0.7,0.9-1.1,1.3c-1.1-0.9-2.9-2.3-4.1-3
			c2.1-2.1,4.3-5.7,5.7-8.8l4.8,1.6c-1.3,2.5-3,5.4-4.7,7.9l3.4-0.9c0.7,2.3,1.6,4.5,2.9,6.4c1.1-2,2-4.3,2.7-6.6l3.8,0.9
			c-1.3-2.1-3.2-4.8-4.7-7l3.8-2.3h-16.5v-4.7h9.3c-0.7-1.3-1.6-3-2.3-4.3l4.3-1.8c1.1,1.6,2.1,3.6,2.9,5l-2.3,1.1h10.2v4.7H261
			c2,2.7,4.8,6.4,6.1,8.6L263,507.7z"/>
		<path id="ed0ihh3a66918" class="st3" d="M309.2,490v4.3h-37.9V490h16.5c-0.4-1.1-0.7-2.1-1.1-3l5.4-1.3c0.5,1.3,1.1,2.9,1.6,4.3
			H309.2L309.2,490z M308.1,521.5c0,2.1-0.5,3.2-2.1,3.8s-3.9,0.5-6.8,0.5c-0.2-1.1-0.9-2.5-1.4-3.6h-12.3v1.8h-4.7v-11.3h18.6v9.5
			h-0.5c1.4,0,3,0,3.4,0c0.5,0,0.9-0.2,0.9-0.7v-10.4h-25.6v15h-5V507h35.8v14.5H308.1L308.1,521.5z M304,505.2h-27v-9.1h27V505.2z
			 M298.6,499.5H282v2.3h16.6V499.5z M294.9,516.3h-9.5v2.5h9.5V516.3z"/>
		<path id="ed0ihh3a66919" class="st3" d="M351.4,498.9c-1.1,6.4-2.9,11.8-5.4,16.1c2.3,2.9,5,5.2,8.2,6.8c-1.1,0.9-2.7,2.9-3.4,4.3
			c-3-1.8-5.5-3.9-7.7-6.8c-2.3,2.9-5.2,5.2-8.6,7c-0.5-1.1-2.3-3.2-3.2-4.1c3.8-1.8,6.6-4.1,8.9-7.2c-1.6-2.9-3-5.9-4.1-9.3
			c-0.7,1.1-1.4,2.1-2.1,3c-0.5-1.1-2-2.9-3-3.9v21.5h-5v-11.1c-6.8,2.3-8.2,3.2-9.1,3.9c-0.4-1.3-1.3-3.6-2-4.7
			c0.9-0.5,1.6-1.3,1.6-3v-20.8h5v20.9l4.5-1.4v-23.4h5v17c3.4-4.1,5.4-10.7,6.4-17.5l5.2,0.9c-0.4,2.3-0.9,4.8-1.4,7.2h13.1v4.8
			h-2.9V498.9L351.4,498.9z M339.2,498.9c-0.2,0.4-0.4,0.7-0.4,1.1c1.1,3.8,2.3,7.2,4.1,10.4c1.6-3.2,2.7-7.2,3.4-11.5H339.2z"/>
		<path id="ed0ihh3a66920" class="st3" d="M397,520.4v4.5h-39.2v-4.5h5v-12.2c-0.5,0.2-1.1,0.5-1.8,0.7c-0.7-1.3-1.8-3.2-2.9-4.3
			c4.1-1.3,9.7-3.8,12.5-5.7l3.6,2.5c-2.7,2-7,4.5-10.7,6.3h28.6v12.5h4.8L397,520.4L397,520.4z M396.5,498.6h-38.1v-4.5h10.2
			c-0.9-2-2.5-4.3-3.8-6.3l4.3-2c1.8,2.1,3.6,5,4.5,6.8l-2.3,1.3h12.5l-2.3-0.9c1.3-2,3-5,3.9-7.3l5.2,1.6c-1.4,2.3-3,4.8-4.3,6.4
			h10.4v4.8L396.5,498.6L396.5,498.6z M367.3,520.4h3.6v-8.2h-3.6V520.4z M375.6,512.2v8.2h3.6v-8.2H375.6z M383.4,498.9
			c4.1,1.4,10.2,3.8,13.4,5.4l-2.9,4.1c-3-1.6-8.9-4.3-13.2-5.9L383.4,498.9z M383.8,512.2v8.2h3.6v-8.2H383.8z"/>
		<path id="ed0ihh3a66921" class="st3" d="M179.3,570h-12.2c4.1,2,8.4,4.1,10.9,5.7l-3.4,3.9c-2.7-2-7.5-4.7-11.8-6.6l2.3-3h-12.7
			l3.6,3c-3.8,2.5-9.1,5.2-13.2,6.8c-0.7-1.1-2-2.7-2.9-3.8c3.8-1.4,8.8-3.9,11.6-5.9h-11.8v-4.7h3.9l-0.7-22.2
			c2.7-0.9,6.1-2.1,8.2-3.2l2.1,4.1c-1.8,0.7-3.8,1.1-5.7,1.6l0.2,3.9h4.8v4.1h-4.8l0.2,3.8h4.8v4.1H148l0.2,3.6h22.4
			c0-1.1,0.2-2.1,0.2-3.4h-4.3v-4.3h4.5c0-1.3,0-2.5,0.2-3.8h-4.3v-4.3h4.5c0-1.3,0-2.5,0-3.8h-5v-4.3h9.7c0,7.7-0.2,17.2-0.5,23.6
			h3.8L179.3,570L179.3,570z M158.9,556c-0.4,2.9-1.1,5.5-2.1,7.5c-0.7-0.5-2.3-1.6-3.2-2c1.1-1.6,1.4-3.8,1.6-6.1L158.9,556z
			 M160.8,554.4h-6.4v-14.3h4.3v2.9h6.8v4.3h-6.8v3.2h4.8l0,0h1.6v10.9c0,1.8-0.4,2.5-1.4,3c-1.1,0.5-2.9,0.5-4.8,0.5
			c-0.2-1.1-0.7-2.1-1.1-3.2c1.1,0,2.3,0,2.7,0s0.5,0,0.5-0.5v-6.8L160.8,554.4L160.8,554.4z"/>
		<path id="ed0ihh3a66922" class="st3" d="M195.5,550.8h6.8v4.3H198l2.5,0.7c-0.7,1.4-1.4,3-2.1,4.3h3v4.3h-6.1v3.4h6.8v4.3h-6.8
			v7.7h-4.7v-7.7h-7.3v-4.3h7.5v-3.6h-6.4V560h3c-0.4-1.3-0.9-2.9-1.4-4.3l2.3-0.7h-5v-4.3h7.3v-3h-6.3v-4.3h6.3v-3.8h4.7v3.8h5.9
			v4.3h-5.9v3.2L195.5,550.8L195.5,550.8z M194.3,560c0.7-1.6,1.6-3.4,2.1-5h-6.6c0.7,1.4,1.4,3.2,1.6,4.3l-2,0.7H194.3z
			 M222.2,557.3c-0.9,5-2.3,9.7-4.5,13.8c1.8,2,3.8,3.4,5.9,4.7c-1.1,0.9-2.5,2.9-3.4,4.1c-2-1.1-3.8-2.7-5.4-4.5
			c-1.4,2-3,3.4-4.8,4.8c-0.5-0.7-1.3-1.6-2-2.3v2.1h-4.7v-38.3H221v8.1c0,2.1-0.5,3.4-2.1,4.1c-1.6,0.7-3.9,0.7-7.2,0.7
			c-0.2-1.4-0.9-3.2-1.4-4.3c2.1,0,4.5,0,5.2,0s0.9-0.2,0.9-0.7V546H208v10.2h10.2l0.9-0.2L222.2,557.3z M208.2,575.5
			c1.6-1.3,2.9-2.7,3.9-4.3c-1.6-2.7-2.9-5.5-3.9-8.8V575.5z M211.6,560.3c0.7,2.1,1.8,4.5,3,6.4c0.9-2,1.6-4.1,2.1-6.4H211.6z"/>
		<path id="ed0ihh3a66923" class="st3" d="M265.3,540.8v39H261v-17.2l-1.3,0.7c-0.4-1.4-0.9-3.4-1.6-5.4v20.6h-3.9v-15.9l-1.6,0.9
			c-0.2-1.6-0.7-3.6-1.4-5.5c0,8.1-0.4,15.9-3.9,22.2c-0.9-0.9-2.5-2.1-3.8-2.5c2.5-4.3,3.2-9.3,3.6-14.7l-2.1,1.1
			c-0.4-2.3-1.1-5.9-2.1-8.8v24h-3.6v-2h-8.6v2.5h-3.4v-29.9h3.9v-4.1h-4.5v-3.9h16.6v3.9h-4.7v4.1h4.1v4.8l2.7-1.4
			c0.5,1.6,1.1,3.2,1.4,5v-0.2v-17h4.1V554l1.4-0.7c0.5,1.3,1.1,2.9,1.4,4.3V542h3.9v11.6l1.1-0.5c0.7,1.3,1.3,2.9,2,4.3v-16.1
			L265.3,540.8z M239.4,573v-10.2h-1.3c-2,0-2.3-0.5-2.3-3v-6.1h-1.3v3.8c0,2.3-0.4,5.4-2.1,7.5c-0.4-0.4-0.9-0.9-1.3-1.3v9.3H239.4
			L239.4,573z M231,553.7v9.1c1.3-1.8,1.3-3.8,1.3-5.5v-3.6H231z M232.4,566.4h5.9v3.6h-5.9V566.4z M234.6,549.6h1.3v-4.1h-1.3
			V549.6z M239.4,553.7h-1.3v6.1c0,0.5,0,0.7,0.4,0.7h0.7h0.2L239.4,553.7L239.4,553.7z"/>
		<path id="ed0ihh3a66924" class="st3" d="M276.6,560.3c-1.4-1.4-4.3-3.6-6.4-5l3.2-3.4c2.1,1.3,5,3.2,6.4,4.5L276.6,560.3z
			 M271.1,576.8c1.6-3.4,3.9-8.8,5.5-13.8l4.1,2.7c-1.4,4.5-3.4,9.7-5,13.8L271.1,576.8z M277.5,548.9c-1.3-1.4-4.1-3.8-6.1-5.2
			l3.2-3.2c2,1.3,4.8,3.4,6.3,4.7L277.5,548.9z M306.8,557.6c0.5,0,0.5-0.2,0.7-2.9c0.7,0.5,2.1,1.1,3,1.3c-0.4,3.9-1.3,4.8-3.2,4.8
			h-1.8c-2.7,0-3.2-0.9-3.2-3.8c-1.3,1.8-2.9,3.4-5.2,4.8c-0.5-0.9-1.8-2-2.5-2.7c-3.4,1.6-4.3,2.1-4.7,2.7c-0.4-0.7-1.3-2-1.8-2.5
			c0.7-0.5,1.6-1.8,1.6-3.9v-1.6c-1.3,2.7-3.4,5.4-7.2,7.7c-0.5-0.9-1.8-2.1-2.7-2.7c3.2-1.8,5.2-3.8,6.3-5.9h-4.7
			c0.4-2.1,0.7-5.4,0.9-8.2h-1.1v-3.6h13.2v3.6h-2.9v1.4c0,0.9,0,2-0.2,2.9h3.8v3.9H293v3.2l2.3-0.9c0.2,0.9,0.7,2,1.1,2.7
			c2.1-1.6,3.4-3.2,4.3-5h-4.8c0.4-2.1,0.7-5.5,0.9-8.2h-1.3v-3.6h14v3.6h-3.6v2c0,0.7,0,1.6-0.2,2.5h4.1v3.9h-5
			c-0.2,0.4-0.4,0.7-0.4,1.1h1.8v2.5C306.5,557.5,306.5,557.6,306.8,557.6L306.8,557.6z M283.2,562.1H307v17.5h-5V578h-14.1v1.8H283
			v-17.7H283.2z M287.3,549c0.2-1.1,0.2-2.1,0.2-3v-1.3h-1.8c-0.2,1.4-0.4,2.9-0.5,4.3H287.3L287.3,549z M288.1,566v2.3h14.1V566
			H288.1z M302.2,574.3v-2.5h-14.1v2.5H302.2z M301.7,549.2c0.2-0.9,0.2-1.8,0.2-2.5v-1.8H300c-0.2,1.4-0.4,2.9-0.5,4.3H301.7z"/>
		<path id="ed0ihh3a66925" class="st3" d="M351.8,548.7c0,0,0,1.8-0.2,2.5c-0.9,17.2-1.8,23.6-3.6,25.8c-1.3,1.6-2.5,2.1-4.3,2.3
			c-1.6,0.2-4.3,0.2-6.8,0c0-1.6-0.7-3.8-1.8-5.4c2.7,0.2,5.2,0.2,6.4,0.2c0.9,0,1.4-0.2,2-0.7c1.3-1.3,2.1-7,2.9-19.7h-12
			c-0.7,8.9-3.8,19.3-15.7,26.1c-0.9-1.3-2.7-3.2-3.9-4.1c10.7-5.7,13.6-14.5,14.3-22h-12.9v-5.2h13.1v-8.8h5.4v8.8h17.2v0.2H351.8z
			"/>
	</g>
</g>
<g id="ed0ihh3a66926">
	<polyline id="ed0ihh3a66927" class="st4" points="1088.5,49.4 1088.5,280 748.7,280 748.7,35.6 1087.7,35.6 1087.7,37.2 	"/>
	<g id="ed0ihh3a66928">
		<path id="ed0ihh3a66929" class="st5" d="M819.6,94.2h12.2v2.7h-27v-2.7h11.8v-4.7H808v-2.7h8.6v-4.3h-7.2v-2.7
			c-1.4,1.1-2.9,1.8-4.1,2.5c-0.4-0.7-1.3-1.8-1.8-2.5c3.8-1.6,8.2-4.8,11.5-8.1h-5.2V69H820c2.9,4.3,8.2,8.4,13.4,10.6
			c-0.5,0.5-1.6,1.8-2,2.7c-1.4-0.7-2.9-1.4-4.1-2.3v2.5H820v4.3h8.8v2.7H820v4.8L819.6,94.2L819.6,94.2z M809.4,79.9H827
			c-3.4-2.1-6.4-5-8.8-7.9C815.9,74.7,812.6,77.5,809.4,79.9z"/>
		<path id="ed0ihh3a66930" class="st5" d="M866.2,79.3c-1.8,2.3-3.8,4.8-5.4,6.6c1.4,3,3.4,5.2,6.3,7.2c-0.7,0.5-1.4,1.4-1.8,2.3
			c-3.2-2.3-5.4-5-6.8-8.4v7.2c0,1.6-0.4,2.5-1.4,2.9c-1.1,0.5-2.5,0.5-5,0.5c-0.2-0.7-0.7-2.1-1.1-2.9c1.8,0,3.2,0,3.8,0
			c0.5,0,0.7-0.2,0.7-0.7v-6.3c-2.5,2.5-5,4.8-7.2,6.8l-1.8-2.7l0.5-0.4c-3.4,1.1-6.8,2.1-9.5,3l-0.7-2.9c1.1-0.4,2.5-0.7,4.1-1.1
			V82h-3.4v-2.7h3.4v-6.4H837v-2.7h10v2.7h-3.6v6.4h3V82h-3v7.5l3.8-1.1l0.4,2.3c2.1-1.8,5-4.1,7.9-6.6V76h-7.7v-2.7h7.7v-5.4h2.9
			v5.4h8.2V76h-8.2v1.3c0.4,2.1,0.9,4.1,1.4,5.7c1.4-1.8,2.9-3.8,3.9-5.5L866.2,79.3z M850.4,78.1c1.4,1.8,2.9,4.1,3.4,5.7l-2.5,1.3
			c-0.5-1.6-1.8-4.1-3.2-5.9L850.4,78.1z M863.3,73.6c-0.7-1.1-2.3-2.5-3.8-3.6l1.6-1.6c1.4,0.9,3,2.3,3.9,3.2L863.3,73.6z"/>
		<path id="ed0ihh3a66931" class="st5" d="M899.6,94.7v2.1h-28.8v-2.1h3.8c-0.4-0.5-1.1-1.3-1.4-1.6c2.1-0.9,3.9-2.1,4.7-3.9
			l2.1,0.4c-0.2,0.5-0.5,0.9-0.7,1.4c1.3,0.5,2.7,1.4,3.6,2.1l-1.1,1.6c-0.9-0.7-2.1-1.6-3.6-2.3c-0.9,0.9-2.1,1.8-3.4,2.3h8.9V89
			h-10.9v-2h25.1v2h-11.3v5.7h2c-0.4-0.5-0.9-1.3-1.4-1.6c2-0.9,3.6-2.1,4.1-3.9l2.1,0.4c-0.2,0.5-0.4,0.9-0.5,1.4
			c1.6,0.5,3.4,1.4,4.3,2.1l-1.1,1.8h3.6L899.6,94.7L899.6,94.7z M874.4,78.3h-2.9v-5.4h12.2v-1.4H873v-2h24.7v2h-11.1v1.4h12.5v5.4
			h-3v-3.6H894l1.1,1.4c-1.6,0.7-3.9,1.3-5.7,1.6c2.3,0.4,4.8,0.9,6.4,1.4l-0.5,1.6c-1.8-0.5-5-1.4-7.5-1.8l0.5-1.4h0.7l-0.7-1.1
			c1.6-0.4,4.1-1.3,5.5-1.8h-7.2v5h-2.9v-5h-9.3V78.3L874.4,78.3z M872.8,80.8h7.3V86h-7.3V80.8z M882.4,79.2c-2.5,0.5-5,1.1-7,1.4
			l-0.7-1.8c2-0.2,4.7-0.5,7.7-1.1V79.2L882.4,79.2z M874.7,84.3h3v-2.1h-3V84.3z M876.5,74.9c1.8,0.4,4.3,1.1,5.5,1.6l-0.7,1.4
			c-1.3-0.5-3.8-1.3-5.7-1.8L876.5,74.9z M888.9,86h-7.5v-5.2h7.5V86z M886.5,82.4h-3v2.1h3V82.4z M895.9,94.7
			c-0.9-0.7-2.7-1.6-4.3-2.3c-0.7,0.9-1.8,1.8-3,2.3H895.9z M890.3,80.8h7.5V86h-7.5V80.8z M892.5,84.3h3.2v-2h-3.2V84.3z"/>
		<path id="ed0ihh3a66932" class="st5" d="M910,83.1c-1.3-0.9-3.9-2.5-5.9-3.4l1.6-2.1c1.8,0.9,4.7,2.3,5.9,3.2L910,83.1z
			 M904.6,95.4c1.8-2.5,4.1-6.6,6.1-10.2l2.1,2c-1.6,3.4-3.8,7.2-5.7,10.2L904.6,95.4z M911.4,74.3c-1.3-0.9-3.9-2.5-5.9-3.6
			l1.6-2.1c1.8,0.9,4.7,2.3,5.9,3.2L911.4,74.3z M924.8,80.4v4.8h6.6v12.3h-2.9v-1.3h-10.7v1.4h-2.7V85.2h6.8v-4.8H913v-2.9h8.9
			v-4.7c-2.3,0.4-4.7,0.5-6.6,0.7c-0.2-0.7-0.5-1.8-0.9-2.5c5.5-0.5,11.8-1.6,15.4-2.9l2.3,2.3c-2.1,0.7-4.7,1.4-7.3,1.8v5h8.6v2.9
			h-8.6L924.8,80.4L924.8,80.4z M928.6,87.9h-10.7v5.7h10.7V87.9z"/>
		<path id="ed0ihh3a66933" class="st5" d="M946.3,68.8h3V98h-3v-8.6c-5.5,2-6.4,2.5-7.2,3c-0.2-0.7-0.7-2.1-1.1-2.7
			c0.5-0.4,1.1-0.9,1.1-2.1V72h2.9v15.9l4.3-1.4V68.8z M964.7,77.2c-0.9,5-2.1,8.9-4.1,12.3c1.8,2.5,3.9,4.3,6.6,5.7
			c-0.7,0.5-1.6,1.6-2.1,2.5c-2.5-1.4-4.5-3.2-6.3-5.5c-1.8,2.3-4.1,4.3-7,5.7c-0.4-0.7-1.4-2-2-2.5c3-1.4,5.4-3.4,7.2-5.9
			c-1.4-2.5-2.5-5.2-3.6-8.2c-0.5,1.3-1.4,2.3-2.1,3.2c-0.4-0.5-1.4-2-2.1-2.5c2.7-3.2,4.3-8.4,5.2-13.8l3,0.5
			c-0.4,2-0.7,3.8-1.3,5.5h10.4v2.9L964.7,77.2L964.7,77.2z M955.3,77.7c0.9,3.2,2,6.3,3.6,8.9c1.4-2.7,2.3-5.9,2.9-9.7h-6.3
			L955.3,77.7z"/>
		<path id="ed0ihh3a66934" class="st5" d="M1000.2,94.2v2.7h-29v-2.7h3.9v-9.7h21.3v9.7H1000.2z M999.6,77h-27.9v-2.7h8.1
			c-0.7-1.4-2-3.4-3-5l2.5-1.1c1.3,1.6,2.7,3.8,3.4,5.2l-1.8,0.9h9.8l-1.8-0.7c1.1-1.4,2.5-3.8,3.2-5.5l3,0.9
			c-1.1,1.8-2.3,3.8-3.6,5.2h8.1V77L999.6,77z M982.8,79.3c-2.3,1.8-6.4,4.3-9.3,5.5c-0.4-0.7-1.1-1.8-1.8-2.5c2.9-0.9,7-3,9.1-4.7
			L982.8,79.3z M977.8,94.2h3.4V87h-3.4V94.2z M983.9,87v7.2h3.4V87H983.9z M990,78.1c3,1.1,7.5,2.9,9.8,4.1l-1.6,2.3
			c-2.1-1.3-6.6-3.2-9.8-4.3L990,78.1z M990.2,87v7.2h3.4V87H990.2z"/>
		<path id="ed0ihh3a66935" class="st5" d="M1021.1,87.6c2.7,2.7,7.5,5.4,13.2,6.4c-0.5,0.7-1.4,1.8-2,2.7c-4.7-1.1-8.6-3.6-11.3-5.9
			v7h-3.2v-7.2c-3,2.9-7.2,5-11.5,6.3c-0.4-0.7-1.3-2-1.8-2.5c5.4-1.1,10.6-3.8,13.2-7.2v-2.5h-7.2v5.9h-3.2v-8.4h10.4v-2.1h-12.5
			v-2.7h12.5v-2h2.7c-0.5-0.5-1.4-1.3-2-1.6c1.8-1.4,3.2-3.8,3.9-5.9l2.7,0.7c-0.2,0.5-0.5,1.1-0.7,1.8h9.3v2.3h-6.3
			c1.1,0.7,2.1,1.8,2.9,2.5l-2,1.8c-0.7-0.9-2.1-2.1-3.2-3l1.4-1.1h-3c-0.7,1.1-1.4,2-2.3,2.9h0.2v2h12v2.7h-12v2.1h10.2v5.7
			c0,1.4-0.4,2-1.3,2.3c-1.1,0.4-2.3,0.4-4.1,0.4c-0.2-0.7-0.7-1.8-1.1-2.3c1.3,0,2.5,0,2.9,0s0.5-0.2,0.5-0.4v-3h-7.2v2.3
			L1021.1,87.6L1021.1,87.6z M1009.8,72.7c-1.1,1.6-2.1,3-3.2,4.1c-0.4-0.5-1.4-1.4-2-2c2-1.8,3.8-4.3,4.7-7l2.7,0.7
			c-0.2,0.5-0.5,1.1-0.7,1.6h7.7v2.3h-5.4c0.9,0.9,2,1.8,2.5,2.5l-2,1.8c-0.7-0.9-2-2.3-3-3.2l1.3-1.1h-2.5L1009.8,72.7L1009.8,72.7
			z"/>
		<path id="ed0ihh3a66936" class="st5" d="M1066.9,72.4c-1.3,3-3.2,5.7-5.5,8.1c2,1.3,4.1,2.3,6.4,3c-0.4,0.7-0.7,2.1-0.9,2.9
			c-0.5-0.2-0.9-0.4-1.4-0.5v11.6h-2.7v-1.6h-7.5v1.6h-2.7V85.6c-0.7,0.4-1.3,0.5-2,0.7c-0.2-0.7-0.7-2.1-1.1-2.7V92h-8.4v2.3h-2.3
			V70.6h10.7v13.1c2.7-0.7,5.2-2,7.3-3.4c-1.1-1.1-2-2.5-2.9-3.8c-0.9,1.1-1.8,2.1-2.7,3c-0.4-0.5-1.3-1.8-1.8-2.3
			c2.5-2.1,4.8-5.5,6.3-9.1l2.5,0.7c-0.4,0.9-0.7,1.8-1.3,2.7h7.3l0.5-0.2L1066.9,72.4z M1041.3,73.3v6.8h2.1v-6.8H1041.3z
			 M1041.3,89.5h2.1v-7.3h-2.1V89.5z M1047.4,73.3h-2.1v6.8h2.1V73.3z M1047.4,89.5v-7.3h-2.1v7.3H1047.4z M1065.1,85.6
			c-2.1-0.9-4.1-2.1-5.9-3.4c-2,1.4-3.9,2.5-6.1,3.4H1065.1z M1063,93.3v-5h-7.5v5H1063z M1056,74.1c0.9,1.6,2,3.2,3.2,4.5
			c1.4-1.3,2.9-2.9,3.8-4.5H1056z"/>
		<path id="ed0ihh3a66937" class="st5" d="M819.4,134.8c0,0.7-0.2,1.4-0.4,2.1h13v2.5h-13.6c-1.4,4.1-5,7-13.4,8.2
			c-0.2-0.9-0.9-2-1.4-2.7c7-0.9,10.2-2.7,11.6-5.5h-10.4V137h11.1c0.2-0.7,0.2-1.4,0.4-2.1h-12.2v-2.7h12.5v-2.3h-9.7v-2.5h9.7
			v-2.1h-11.5v-2.7h6.4c-0.5-1.1-1.4-2.3-2.1-3.4l2.7-1.1c1.1,1.1,2.1,2.7,2.7,3.9l-1.1,0.5h7.9c0.9-1.3,2-3,2.5-4.3l3.2,0.9
			c-0.7,1.3-1.6,2.5-2.3,3.6h6.6v2.7H820v2.1h10v2.5h-10v2.3h13v2.7h-13.6V134.8L819.4,134.8z M831.3,148.1
			c-2.9-1.8-8.6-4.5-12.9-6.3l1.3-2.3c4.3,1.4,10,4.1,13.1,5.9L831.3,148.1z"/>
		<path id="ed0ihh3a66938" class="st5" d="M865.1,119.8V148h-3v-1.4H841v1.4h-2.9v-28.3h27V119.8z M862.2,143.9v-21.5h-21.1v21.5
			H862.2z M859.7,130.2c-0.7,2.9-2,5.5-3.4,7.7c0.5,1.4,1.3,2.3,2.1,2.5c0.4,0.2,0.7-1.3,0.9-3.2c0.5,0.5,1.4,1.1,2,1.4
			c-0.5,3.8-1.8,5-3.8,4.1c-1.3-0.4-2.1-1.3-2.9-2.7c-1.1,1.3-2.5,2.3-3.8,3.2c-0.4-0.5-1.3-1.4-1.6-1.8c0.9-0.5,1.8-1.1,2.5-1.8
			c-3.2,0.5-6.4,1.1-8.9,1.6l-0.4-2.3c2.3-0.4,5.9-0.9,9.3-1.4v2c0.7-0.5,1.4-1.3,2-2c-0.7-2.5-1.3-5.5-1.6-8.9h-9.5v-2.1h9.3
			c0-1.1-0.2-2.1-0.2-3h2.5c0,1.1,0.2,2.1,0.2,3h4.5c-0.7-0.7-2-1.6-3.2-2.1l1.4-1.4c1.1,0.5,2.5,1.4,3.2,2.1l-1.4,1.4h2v2.1h-6.4
			c0.2,2.3,0.5,4.5,0.9,6.3c0.9-1.6,1.4-3.2,2-5.2L859.7,130.2z M850.8,130.2v6.3h-7.2v-6.3H850.8z M848.6,131.8h-3v2.7h3V131.8z"/>
		<path id="ed0ihh3a66939" class="st5" d="M879.4,118.9h3v29.2h-3v-8.6c-5.5,2-6.4,2.5-7.2,3c-0.2-0.7-0.7-2.1-1.1-2.7
			c0.5-0.4,1.1-0.9,1.1-2.1v-15.6h2.9V138l4.3-1.4V118.9L879.4,118.9z M897.6,127.3c-0.9,5-2.1,8.9-4.1,12.3
			c1.8,2.5,3.9,4.3,6.6,5.7c-0.7,0.5-1.6,1.6-2.1,2.5c-2.5-1.4-4.5-3.2-6.3-5.5c-1.8,2.3-4.1,4.3-7,5.7c-0.4-0.7-1.4-2-2-2.5
			c3-1.4,5.4-3.4,7.2-5.9c-1.4-2.5-2.5-5.2-3.6-8.2c-0.5,1.3-1.4,2.3-2.1,3.2c-0.4-0.5-1.4-2-2.1-2.5c2.7-3.2,4.3-8.4,5.2-13.8
			l3,0.5c-0.4,2-0.7,3.8-1.3,5.5h10.4v2.9L897.6,127.3L897.6,127.3z M888.3,127.8c0.9,3.2,2,6.3,3.6,8.9c1.4-2.7,2.3-5.9,2.9-9.7
			h-6.3L888.3,127.8z"/>
		<path id="ed0ihh3a66940" class="st5" d="M933.3,144.3v2.7h-29.2v-2.7h3.9v-9.7h21.3v9.7H933.3z M932.7,127.1h-27.9v-2.7h8.1
			c-0.7-1.4-2-3.4-3-5l2.5-1.1c1.3,1.6,2.7,3.8,3.4,5.2l-1.8,0.9h9.8l-1.8-0.7c1.1-1.4,2.5-3.8,3.2-5.5l3,0.9
			c-1.1,1.8-2.3,3.8-3.6,5.2h8.1V127.1L932.7,127.1z M915.7,129.4c-2.3,1.8-6.4,4.3-9.3,5.5c-0.4-0.7-1.1-1.8-1.8-2.5
			c2.9-0.9,7-3,9.1-4.7L915.7,129.4z M910.9,144.3h3.4v-7.2h-3.4V144.3z M917,137.1v7.2h3.4v-7.2H917z M922.9,128.2
			c3,1.1,7.5,2.9,9.8,4.1l-1.6,2.3c-2.1-1.3-6.6-3.2-9.8-4.3L922.9,128.2z M923.1,137.1v7.2h3.4v-7.2H923.1z"/>
		<path id="ed0ihh3a66941" class="st5" d="M947.7,135c-1.1,0.4-2.1,0.7-3,0.9v8.4c0,1.6-0.4,2.3-1.3,2.7c-0.9,0.5-2.3,0.5-4.7,0.5
			c-0.2-0.7-0.5-2-0.9-2.7c1.4,0,2.7,0,3.2,0s0.7-0.2,0.7-0.7v-7.5l-3.8,1.1l-0.9-2.9c1.3-0.4,2.9-0.7,4.5-1.1v-6.4h-4.1v-2.7h4.1
			v-6.3h2.9v6.3h3.8v2.7h-3.8v5.5l2.7-0.7L947.7,135z M964.9,133c-1.3,3.9-3.4,7-5.9,9.3c2.3,1.3,5,2.3,8.1,2.9
			c-0.7,0.7-1.4,2-2,2.7c-3.4-0.9-6.3-2.1-8.6-3.8c-2.7,1.8-5.7,2.9-9.1,3.8c-0.2-0.9-0.9-2.1-1.4-2.7c2.9-0.5,5.7-1.6,8.2-3
			c-2.1-2-3.8-4.3-5-6.8l0.9-0.4h-1.6v-2.9h14.1l0.5-0.2L964.9,133z M954,123c0,3-0.9,6.4-5,8.6c-0.4-0.5-1.4-1.8-2-2.1
			c3.6-1.8,4.1-4.3,4.1-6.6v-3.4h10.6v7.2c0,0.9,0,1.3,0.5,1.3h2.1c0.5,0,1.3,0,1.6-0.2c0,0.7,0.2,1.8,0.2,2.5
			c-0.5,0.2-1.1,0.2-1.8,0.2h-2.1c-2.7,0-3.2-1.1-3.2-3.8v-4.5h-5L954,123L954,123z M952,135.2c1.1,2.1,2.7,3.9,4.5,5.4
			c1.8-1.4,3.4-3.2,4.5-5.4H952z"/>
		<path id="ed0ihh3a66942" class="st5" d="M991,123.2c0,0.2,0,0.5,0,0.7c1.8,1.8,5.2,2.9,9.5,3c-0.5,0.5-1.3,1.6-1.6,2.5
			c-3.8-0.5-6.6-1.6-8.6-3.6c-1.1,1.4-3.8,2.9-9.3,3.6c-0.4-0.7-0.9-1.6-1.4-2.1h-8.4V125h9.3v2.1c7-0.9,7.7-2.7,7.7-4.1v-0.4h-2.7
			c-0.7,1.1-1.4,2.1-2.3,3c-0.5-0.4-1.6-1.3-2.3-1.4c1.6-1.4,3-3.8,3.8-5.9l2.7,0.5c-0.2,0.5-0.4,1.1-0.5,1.6h10l0.4-0.2l2.1,0.7
			c-0.9,1.8-2,3.6-2.9,4.8l-2.3-0.9c0.4-0.5,0.9-1.4,1.4-2.1H991V123.2L991,123.2z M990.7,142.7c3.4,1.1,7,2.5,9.1,3.6l-2.7,1.6
			c-2-1.1-5.4-2.5-8.6-3.6l1.8-1.4h-9.7l2.7,1.3c-2.7,1.6-6.6,3-9.8,4.1c-0.5-0.5-1.6-1.8-2.1-2.3c3.2-0.7,7-1.8,9.3-3h-5.2v-13
			h20.9v12.9h-5.7V142.7z M979.8,122.3h-7.9V120h7.9V122.3z M978.3,133.4h15v-1.8h-15V133.4z M978.3,137.1h15v-1.8h-15V137.1z
			 M978.3,140.7h15v-1.8h-15V140.7z"/>
		<path id="ed0ihh3a66943" class="st5" d="M1021.1,137.7c2.7,2.7,7.5,5.4,13.2,6.4c-0.5,0.7-1.4,1.8-2,2.7
			c-4.7-1.1-8.6-3.6-11.3-5.9v7h-3.2v-7.2c-3,2.9-7.2,5-11.5,6.3c-0.4-0.7-1.3-2-1.8-2.5c5.4-1.1,10.6-3.8,13.2-7.2v-2.5h-7.2v5.9
			h-3.2v-8.4h10.4v-2.1h-12.5v-2.7h12.5v-2h2.7c-0.5-0.5-1.4-1.3-2-1.6c1.8-1.4,3.2-3.8,3.9-5.9l2.7,0.7c-0.2,0.5-0.5,1.1-0.7,1.8
			h9.3v2.3h-6.3c1.1,0.7,2.1,1.8,2.9,2.5l-2,1.8c-0.7-0.9-2.1-2.1-3.2-3l1.4-1.1h-3c-0.7,1.1-1.4,2-2.3,2.9h0.2v2h12v2.7h-12v2.1
			h10.2v5.7c0,1.4-0.4,2-1.3,2.3c-1.1,0.4-2.3,0.4-4.1,0.4c-0.2-0.7-0.7-1.8-1.1-2.3c1.3,0,2.5,0,2.9,0s0.5-0.2,0.5-0.4v-3h-7.2v2.3
			L1021.1,137.7L1021.1,137.7z M1009.8,122.8c-1.1,1.6-2.1,3-3.2,4.1c-0.4-0.5-1.4-1.4-2-2c2-1.8,3.8-4.3,4.7-7l2.7,0.7
			c-0.2,0.5-0.5,1.1-0.7,1.6h7.7v2.3h-5.4c0.9,0.9,2,1.8,2.5,2.5l-2,1.8c-0.7-0.9-2-2.3-3-3.2l1.3-1.1h-2.5L1009.8,122.8
			L1009.8,122.8z"/>
		<path id="ed0ihh3a66944" class="st5" d="M1066.9,122.5c-1.3,3-3.2,5.7-5.5,8.1c2,1.3,4.1,2.3,6.4,3c-0.4,0.7-0.7,2.1-0.9,2.9
			c-0.5-0.2-0.9-0.4-1.4-0.5v11.6h-2.7V146h-7.5v1.6h-2.7v-11.8c-0.7,0.4-1.3,0.5-2,0.7c-0.2-0.7-0.7-2.1-1.1-2.7v8.4h-8.4v2.3h-2.3
			v-23.8h10.7v13.1c2.7-0.7,5.2-2,7.3-3.4c-1.1-1.1-2-2.5-2.9-3.8c-0.9,1.1-1.8,2.1-2.7,3c-0.4-0.5-1.3-1.8-1.8-2.3
			c2.5-2.1,4.8-5.5,6.3-9.1l2.5,0.7c-0.4,0.9-0.7,1.8-1.3,2.7h7.3l0.5-0.2L1066.9,122.5z M1041.3,123.4v6.8h2.1v-6.8
			C1043.4,123.4,1041.3,123.4,1041.3,123.4z M1041.3,139.6h2.1v-7.3h-2.1V139.6z M1047.4,123.4h-2.1v6.8h2.1V123.4z M1047.4,139.6
			v-7.3h-2.1v7.3H1047.4z M1065.1,135.7c-2.1-0.9-4.1-2.1-5.9-3.4c-2,1.4-3.9,2.5-6.1,3.4H1065.1z M1063,143.4v-5h-7.5v5H1063z
			 M1056,124.3c0.9,1.6,2,3.2,3.2,4.5c1.4-1.3,2.9-2.9,3.8-4.5H1056z"/>
		<path id="ed0ihh3a66945" class="st5" d="M826.8,180.1c0,0.7,0,1.4,0,2.1c1.1,6.3,2.7,10.2,6.3,13.4c-0.7,0.5-1.4,1.4-2,2.3
			c-2.7-2.7-4.3-5.4-5.4-8.9c-0.9,3-2.5,6.3-5.2,9.1c-0.4-0.5-0.9-1.4-1.6-2c-0.7,0.2-1.8,0.2-2.9,0.2h-6.6c-3.8,0-5-1.3-5-5.4
			v-18.4h-1.1V170H819v2.5h-12v18.6c0,2,0.5,2.7,2.1,2.7h6.8c0.9,0,2.3-0.2,3-0.2c0,0.4,0.2,0.9,0.2,1.4c4.3-4.7,4.7-10.7,4.7-14.9
			v-2.3h2.7v2.1L826.8,180.1L826.8,180.1z M808.2,183.7h5v8.1h-5V183.7z M817.5,181.7h-8.2v-7.3h8.2V181.7z M809.6,189.9h1.8v-4.3
			h-1.8V189.9z M815,176.3h-3.6v3.6h3.6V176.3z M819.1,191.7h-5v-8.1h5V191.7z M817.5,185.4h-1.8v4.3h1.8V185.4z M823.4,176
			c-0.7,2.5-1.6,4.7-2.7,6.3c-0.5-0.5-1.8-1.3-2.5-1.6c2.1-2.9,3.4-7.5,4.1-12.3l2.7,0.5c-0.2,1.6-0.5,3-0.9,4.5h6.8l0.5-0.2l2,0.5
			c-0.7,3-1.6,6.4-2.3,8.8l-2.3-0.7c0.5-1.4,1.1-3.6,1.4-5.7h-6.8V176z"/>
		<path id="ed0ihh3a66946" class="st5" d="M842.2,182.8c-1.1-0.9-3.6-2.3-5.4-3.2l1.8-2.1c1.8,0.9,4.1,2.1,5.4,3L842.2,182.8z
			 M837.3,196c1.3-2.5,3-6.6,4.3-10.2l2.5,1.6c-1.1,3.4-2.7,7.2-4.1,10.2L837.3,196z M843.2,174.4c-1.1-1.1-3.4-2.5-5.2-3.4l1.8-2.1
			c1.8,0.9,4.1,2.3,5.4,3.2L843.2,174.4z M853.3,178.1c0.9,2.1,1.8,5.2,2.3,7l-2.1,0.9c-0.4-1.8-1.1-4.3-2-6.6v0.7
			c0,6.3-0.5,12.7-4.5,17.9c-0.5-0.5-1.8-1.4-2.5-1.8c2.5-3.2,3.6-6.8,3.9-10.7l-2,0.7c-0.2-2.1-1.1-5.2-2.1-7.5l2.1-0.7
			c0.9,2,1.6,4.3,2,6.3c0-1.4,0.2-2.7,0.2-4.1v-10.9h2.9v9.5L853.3,178.1z M865.1,169.2V198h-2.9v-12.7l-1.6,0.7
			c-0.4-1.6-1.4-4.1-2.5-6.1v17.4h-2.7v-27.6h2.7v8.4l1.3-0.5c1.1,1.8,2.1,3.9,2.7,5.7v-14.1L865.1,169.2L865.1,169.2z"/>
		<path id="ed0ihh3a66947" class="st5" d="M879.4,169h3v29.2h-3v-8.6c-5.5,2-6.4,2.5-7.2,3c-0.2-0.7-0.7-2.1-1.1-2.7
			c0.5-0.4,1.1-0.9,1.1-2.1v-15.6h2.9v15.9l4.3-1.4V169L879.4,169z M897.6,177.4c-0.9,5-2.1,8.9-4.1,12.3c1.8,2.5,3.9,4.3,6.6,5.7
			c-0.7,0.5-1.6,1.6-2.1,2.5c-2.5-1.4-4.5-3.2-6.3-5.5c-1.8,2.3-4.1,4.3-7,5.7c-0.4-0.7-1.4-2-2-2.5c3-1.4,5.4-3.4,7.2-5.9
			c-1.4-2.5-2.5-5.2-3.6-8.2c-0.5,1.3-1.4,2.3-2.1,3.2c-0.4-0.5-1.4-2-2.1-2.5c2.7-3.2,4.3-8.4,5.2-13.8l3,0.5
			c-0.4,2-0.7,3.8-1.3,5.5h10.4v2.9L897.6,177.4L897.6,177.4z M888.3,177.9c0.9,3.2,2,6.3,3.6,8.9c1.4-2.7,2.3-5.9,2.9-9.7h-6.3
			L888.3,177.9z"/>
		<path id="ed0ihh3a66948" class="st5" d="M933.3,194.4v2.7h-29.2v-2.7h3.9v-9.7h21.3v9.7H933.3z M932.7,177.2h-27.9v-2.7h8.1
			c-0.7-1.4-2-3.4-3-5l2.5-1.1c1.3,1.6,2.7,3.8,3.4,5.2l-1.8,0.9h9.8l-1.8-0.7c1.1-1.4,2.5-3.8,3.2-5.5l3,0.9
			c-1.1,1.8-2.3,3.8-3.6,5.2h8.1V177.2L932.7,177.2z M915.7,179.5c-2.3,1.8-6.4,4.3-9.3,5.5c-0.4-0.7-1.1-1.8-1.8-2.5
			c2.9-0.9,7-3,9.1-4.7L915.7,179.5z M910.9,194.4h3.4v-7.2h-3.4V194.4z M917,187.2v7.2h3.4v-7.2H917z M922.9,178.3
			c3,1.1,7.5,2.9,9.8,4.1l-1.6,2.3c-2.1-1.3-6.6-3.2-9.8-4.3L922.9,178.3z M923.1,187.2v7.2h3.4v-7.2H923.1z"/>
		<path id="ed0ihh3a66949" class="st5" d="M947.7,185.1c-1.1,0.4-2.1,0.7-3,0.9v8.4c0,1.6-0.4,2.3-1.3,2.7c-0.9,0.5-2.3,0.5-4.7,0.5
			c-0.2-0.7-0.5-2-0.9-2.7c1.4,0,2.7,0,3.2,0s0.7-0.2,0.7-0.7v-7.5l-3.8,1.1l-0.9-2.9c1.3-0.4,2.9-0.7,4.5-1.1v-6.4h-4.1v-2.7h4.1
			v-6.3h2.9v6.3h3.8v2.7h-3.8v5.5l2.7-0.7L947.7,185.1z M964.9,183.1c-1.3,3.9-3.4,7-5.9,9.3c2.3,1.3,5,2.3,8.1,2.9
			c-0.7,0.7-1.4,2-2,2.7c-3.4-0.9-6.3-2.1-8.6-3.8c-2.7,1.8-5.7,2.9-9.1,3.8c-0.2-0.9-0.9-2.1-1.4-2.7c2.9-0.5,5.7-1.6,8.2-3
			c-2.1-2-3.8-4.3-5-6.8l0.9-0.4h-1.6v-2.9h14.1l0.5-0.2L964.9,183.1z M954,173.1c0,3-0.9,6.4-5,8.6c-0.4-0.5-1.4-1.8-2-2.1
			c3.6-1.8,4.1-4.3,4.1-6.6v-3.4h10.6v7.2c0,0.9,0,1.3,0.5,1.3h2.1c0.5,0,1.3,0,1.6-0.2c0,0.7,0.2,1.8,0.2,2.5
			c-0.5,0.2-1.1,0.2-1.8,0.2h-2.1c-2.7,0-3.2-1.1-3.2-3.8v-4.5h-5L954,173.1L954,173.1z M952,185.3c1.1,2.1,2.7,3.9,4.5,5.4
			c1.8-1.4,3.4-3.2,4.5-5.4H952z"/>
		<path id="ed0ihh3a66950" class="st5" d="M991,173.3c0,0.2,0,0.5,0,0.7c1.8,1.8,5.2,2.9,9.5,3c-0.5,0.5-1.3,1.6-1.6,2.5
			c-3.8-0.5-6.6-1.6-8.6-3.6c-1.1,1.4-3.8,2.9-9.3,3.6c-0.4-0.7-0.9-1.6-1.4-2.1h-8.4v-2.3h9.3v2.1c7-0.9,7.7-2.7,7.7-4.1v-0.4h-2.7
			c-0.7,1.1-1.4,2.1-2.3,3c-0.5-0.4-1.6-1.3-2.3-1.4c1.6-1.4,3-3.8,3.8-5.9l2.7,0.5c-0.2,0.5-0.4,1.1-0.5,1.6h10l0.4-0.2l2.1,0.7
			c-0.9,1.8-2,3.6-2.9,4.8l-2.3-0.9c0.4-0.5,0.9-1.4,1.4-2.1H991V173.3L991,173.3z M990.7,192.8c3.4,1.1,7,2.5,9.1,3.6l-2.7,1.6
			c-2-1.1-5.4-2.5-8.6-3.6l1.8-1.4h-9.7l2.7,1.3c-2.7,1.6-6.6,3-9.8,4.1c-0.5-0.5-1.6-1.8-2.1-2.3c3.2-0.7,7-1.8,9.3-3h-5.2v-12.9
			h20.9V193h-5.7V192.8z M979.8,172.4h-7.9v-2.3h7.9V172.4z M978.3,183.5h15v-1.8h-15V183.5z M978.3,187.2h15v-1.8h-15V187.2z
			 M978.3,190.8h15V189h-15V190.8z"/>
		<path id="ed0ihh3a66951" class="st5" d="M1021.1,187.8c2.7,2.7,7.5,5.4,13.2,6.4c-0.5,0.7-1.4,1.8-2,2.7
			c-4.7-1.1-8.6-3.6-11.3-5.9v7h-3.2v-7.2c-3,2.9-7.2,5-11.5,6.3c-0.4-0.7-1.3-2-1.8-2.5c5.4-1.1,10.6-3.8,13.2-7.2v-2.5h-7.2v5.9
			h-3.2v-8.4h10.4v-2.1h-12.5v-2.7h12.5v-2h2.7c-0.5-0.5-1.4-1.3-2-1.6c1.8-1.4,3.2-3.8,3.9-5.9l2.7,0.7c-0.2,0.5-0.5,1.1-0.7,1.8
			h9.3v2.3h-6.3c1.1,0.7,2.1,1.8,2.9,2.5l-2,1.8c-0.7-0.9-2.1-2.1-3.2-3l1.4-1.1h-3c-0.7,1.1-1.4,2-2.3,2.9h0.2v2h12v2.7h-12v2.1
			h10.2v5.7c0,1.4-0.4,2-1.3,2.3c-1.1,0.4-2.3,0.4-4.1,0.4c-0.2-0.7-0.7-1.8-1.1-2.3c1.3,0,2.5,0,2.9,0s0.5-0.2,0.5-0.4v-3h-7.2v2.3
			H1021.1L1021.1,187.8z M1009.8,172.9c-1.1,1.6-2.1,3-3.2,4.1c-0.4-0.5-1.4-1.4-2-2c2-1.8,3.8-4.3,4.7-7l2.7,0.7
			c-0.2,0.5-0.5,1.1-0.7,1.6h7.7v2.3h-5.4c0.9,0.9,2,1.8,2.5,2.5l-2,1.8c-0.7-0.9-2-2.3-3-3.2l1.3-1.1h-2.5L1009.8,172.9
			L1009.8,172.9z"/>
		<path id="ed0ihh3a66952" class="st5" d="M1066.9,172.6c-1.3,3-3.2,5.7-5.5,8.1c2,1.3,4.1,2.3,6.4,3c-0.4,0.7-0.7,2.1-0.9,2.9
			c-0.5-0.2-0.9-0.4-1.4-0.5v11.6h-2.7V196h-7.5v1.6h-2.7v-11.8c-0.7,0.4-1.3,0.5-2,0.7c-0.2-0.7-0.7-2.1-1.1-2.7v8.4h-8.4v2.3h-2.3
			v-23.8h10.7v13.1c2.7-0.7,5.2-2,7.3-3.4c-1.1-1.1-2-2.5-2.9-3.8c-0.9,1.1-1.8,2.1-2.7,3c-0.4-0.5-1.3-1.8-1.8-2.3
			c2.5-2.1,4.8-5.5,6.3-9.1l2.5,0.7c-0.4,0.9-0.7,1.8-1.3,2.7h7.3l0.5-0.2L1066.9,172.6z M1041.3,173.5v6.8h2.1v-6.8H1041.3z
			 M1041.3,189.7h2.1v-7.3h-2.1V189.7z M1047.4,173.5h-2.1v6.8h2.1V173.5z M1047.4,189.7v-7.3h-2.1v7.3H1047.4z M1065.1,185.8
			c-2.1-0.9-4.1-2.1-5.9-3.4c-2,1.4-3.9,2.5-6.1,3.4H1065.1z M1063,193.5v-5h-7.5v5H1063z M1056,174.4c0.9,1.6,2,3.2,3.2,4.5
			c1.4-1.3,2.9-2.9,3.8-4.5H1056z"/>
		<path id="ed0ihh3a66953" class="st5" d="M813.9,244.3c-0.7-1.3-2.1-3.4-3.4-5.2c-0.9,3-2.5,6.1-5.2,8.6c-0.4-0.5-1.4-1.6-2.1-2
			c3.8-3.4,5-7.9,5.4-11.8h-5.2v-2.7h5.4c0-0.4,0-0.9,0-1.3v-4.5h-1.4c-0.5,1.8-1.1,3.4-2,4.7c-0.5-0.4-1.6-1.3-2.3-1.6
			c1.4-2.5,2.3-6.3,2.9-9.8l2.7,0.5c-0.2,1.3-0.4,2.5-0.7,3.8h7.3v2.7h-3.8v4.7c0,0.4,0,0.7,0,1.1h4.1v2.7h-4.3
			c0,0.7-0.2,1.4-0.2,2.1c1.3,1.4,3.9,5,4.7,5.9L813.9,244.3z M832.9,244.5v2.7h-17.7v-2.7h9.8c1.1-2.1,2.1-5.4,2.7-7.7l3,0.7
			c-0.9,2.3-1.8,5-2.9,7H832.9L832.9,244.5z M832.5,222.7h-16.1V220h16.1V222.7z M831.4,236.1h-14v-10.4h14V236.1z M820.2,244.1
			c-0.2-1.8-1.1-4.5-2-6.4l2.5-0.7c0.9,2,1.8,4.7,2.1,6.4L820.2,244.1z M828.6,228.2h-8.2v5.2h8.2V228.2z"/>
		<path id="ed0ihh3a66954" class="st5" d="M844,241.6c-1.1,2.5-3,4.8-4.8,6.4c-0.5-0.5-1.6-1.4-2.3-1.8c1.8-1.4,3.4-3.4,4.3-5.5
			L844,241.6z M852.6,240.4H837v-2.7h3v-12.5h-2.7v-2.7h2.7v-3.8h2.7v3.8h5v-3.8h2.7v3.8h2.3v2.7h-2.3v12.5h2.1L852.6,240.4
			L852.6,240.4z M842.5,225.2v2.3h5v-2.3H842.5z M842.5,232.7h5V230h-5V232.7z M842.5,237.7h5V235h-5V237.7z M848.1,240.7
			c1.3,1.4,2.9,3.4,3.4,4.7l-2.5,1.4c-0.7-1.3-2.1-3.4-3.4-4.8L848.1,240.7z M865.4,244.5c0,1.6-0.4,2.5-1.4,2.9
			c-0.9,0.5-2.5,0.5-4.8,0.5c-0.2-0.7-0.5-2.1-0.9-2.9c1.4,0,3,0,3.6,0s0.7-0.2,0.7-0.7v-7.2h-5.9c-0.4,3.8-1.1,7.9-3,10.9
			c-0.5-0.5-1.8-1.4-2.3-1.8c2.5-4.3,2.7-10.2,2.7-14.9v-11.6h11.5L865.4,244.5L865.4,244.5z M862.6,234.7V230h-5.7v1.8
			c0,0.9,0,2,0,3h5.7V234.7z M856.8,222.8v4.5h5.7v-4.5H856.8z"/>
		<path id="ed0ihh3a66955" class="st5" d="M880.1,219.4c-0.9,2.1-1.8,4.3-3,6.3v22.4h-2.9v-17.7c-0.9,1.3-2,2.5-2.9,3.4
			c-0.2-0.7-1.1-2.3-1.6-3c3-2.9,5.9-7.5,7.7-12.2L880.1,219.4z M888.3,244c-1.8,1.6-5,3.2-7.5,4.1c-0.5-0.5-1.6-1.6-2.3-2.1
			c2.5-0.7,5.4-2,7-3.2L888.3,244z M888,222.1h-7.5v-2h7.5v-1.6h3v1.6h7.9v2H891v1.4h7v2h-7v1.4h8.9v2h-20.8v-2h8.9v-1.4h-6.8v-2
			h6.8L888,222.1L888,222.1z M881.5,242.5v-12.2h16.3v12.2H881.5z M884.4,233.9H895v-1.6h-10.6V233.9z M884.4,237.2H895v-1.6h-10.6
			V237.2z M884.4,240.6H895V239h-10.6V240.6z M893.9,242.7c2.1,1.3,4.7,2.9,6.1,4.1l-2.7,1.6c-1.3-1.3-3.9-3-6.1-4.5L893.9,242.7z"
			/>
		<path id="ed0ihh3a66956" class="st5" d="M925.4,232c2.1,2.1,5.2,3.8,8.6,4.7c-0.7,0.5-1.4,1.8-2,2.5c-1.6-0.5-3-1.1-4.5-2
			c-0.4,6.1-0.9,8.6-1.8,9.7c-0.5,0.7-1.3,0.9-2.3,1.1c-0.9,0.2-2.5,0.2-4.3,0c0-0.9-0.4-2.1-0.9-2.9c1.6,0.2,3,0.2,3.8,0.2
			c0.5,0,0.9,0,1.1-0.4c0.5-0.5,0.9-2.3,1.3-6.6h-7.2c-0.9,4.7-3,8.1-9.8,9.8c-0.4-0.7-1.1-2-1.6-2.5c5.9-1.4,7.7-3.8,8.4-7.3h-4.7
			V237c-1.3,0.7-2.5,1.4-3.9,2.1c-0.4-0.7-1.3-2-1.8-2.5c2.9-1.3,5.4-2.9,7.3-4.7h-6.3v-2.7h8.8c0.7-0.9,1.3-1.8,1.8-2.7h-8.6v-2.7
			h5c-0.5-1.1-1.4-2.5-2.3-3.8l2.3-1.1c1.1,1.3,2.1,2.9,2.7,3.9l-1.6,0.9h3.8c0.7-1.8,1.1-3.8,1.4-5.5l3.2,0.4
			c-0.4,1.8-0.7,3.4-1.3,5.2h3.4c0.9-1.4,2.1-3.2,2.7-4.7l2.7,0.9c-0.9,1.4-1.8,2.7-2.7,3.8h4.7v2.7h-12.2c-0.5,0.9-0.9,1.8-1.4,2.7
			h15.7v2.7L925.4,232L925.4,232z M925.2,235.6c-1.3-1.1-2.5-2.1-3.4-3.4h-6.6c-1.1,1.3-2.3,2.5-3.6,3.4H925.2z"/>
		<path id="ed0ihh3a66957" class="st5" d="M947.7,235.2c-1.1,0.4-2.1,0.7-3,0.9v8.4c0,1.6-0.4,2.3-1.3,2.7c-0.9,0.5-2.3,0.5-4.7,0.5
			c-0.2-0.7-0.5-2-0.9-2.7c1.4,0,2.7,0,3.2,0s0.7-0.2,0.7-0.7v-7.5l-3.8,1.1L937,235c1.3-0.4,2.9-0.7,4.5-1.1v-6.4h-4.1v-2.7h4.1
			v-6.3h2.9v6.3h3.8v2.7h-3.8v5.5l2.7-0.7L947.7,235.2z M964.9,233.2c-1.3,3.9-3.4,7-5.9,9.3c2.3,1.3,5,2.3,8.1,2.9
			c-0.7,0.7-1.4,2-2,2.7c-3.4-0.9-6.3-2.1-8.6-3.8c-2.7,1.8-5.7,2.9-9.1,3.8c-0.2-0.9-0.9-2.1-1.4-2.7c2.9-0.5,5.7-1.6,8.2-3
			c-2.1-2-3.8-4.3-5-6.8l0.9-0.4h-1.6v-2.9h14.1l0.5-0.2L964.9,233.2z M954,223.2c0,3-0.9,6.4-5,8.6c-0.4-0.5-1.4-1.8-2-2.1
			c3.6-1.8,4.1-4.3,4.1-6.6v-3.4h10.6v7.2c0,0.9,0,1.3,0.5,1.3h2.1c0.5,0,1.3,0,1.6-0.2c0,0.7,0.2,1.8,0.2,2.5
			c-0.5,0.2-1.1,0.2-1.8,0.2h-2.1c-2.7,0-3.2-1.1-3.2-3.8v-4.5h-5L954,223.2L954,223.2z M952,235.4c1.1,2.1,2.7,3.9,4.5,5.4
			c1.8-1.4,3.4-3.2,4.5-5.4H952z"/>
		<path id="ed0ihh3a66958" class="st5" d="M991,223.4c0,0.2,0,0.5,0,0.7c1.8,1.8,5.2,2.9,9.5,3c-0.5,0.5-1.3,1.6-1.6,2.5
			c-3.8-0.5-6.6-1.6-8.6-3.6c-1.1,1.4-3.8,2.9-9.3,3.6c-0.4-0.7-0.9-1.6-1.4-2.1h-8.4v-2.3h9.3v2.1c7-0.9,7.7-2.7,7.7-4.1v-0.4h-2.7
			c-0.7,1.1-1.4,2.1-2.3,3c-0.5-0.4-1.6-1.3-2.3-1.4c1.6-1.4,3-3.8,3.8-5.9l2.7,0.5c-0.2,0.5-0.4,1.1-0.5,1.6h10l0.4-0.2l2.1,0.7
			c-0.9,1.8-2,3.6-2.9,4.8l-2.3-0.9c0.4-0.5,0.9-1.4,1.4-2.1H991V223.4L991,223.4z M990.7,242.9c3.4,1.1,7,2.5,9.1,3.6l-2.7,1.6
			c-2-1.1-5.4-2.5-8.6-3.6l1.8-1.4h-9.7l2.7,1.3c-2.7,1.6-6.6,3-9.8,4.1c-0.5-0.5-1.6-1.8-2.1-2.3c3.2-0.7,7-1.8,9.3-3h-5.2v-12.9
			h20.9v12.9h-5.7V242.9z M979.8,222.5h-7.9v-2.3h7.9V222.5z M978.3,233.6h15v-1.8h-15V233.6z M978.3,237.3h15v-1.8h-15V237.3z
			 M978.3,240.9h15v-1.8h-15V240.9z"/>
		<path id="ed0ihh3a66959" class="st5" d="M1021.1,237.9c2.7,2.7,7.5,5.4,13.2,6.4c-0.5,0.7-1.4,1.8-2,2.7
			c-4.7-1.1-8.6-3.6-11.3-5.9v7h-3.2v-7.2c-3,2.9-7.2,5-11.5,6.3c-0.4-0.7-1.3-2-1.8-2.5c5.4-1.1,10.6-3.8,13.2-7.2V235h-7.2v5.9
			h-3.2v-8.4h10.4v-2.1h-12.5v-2.7h12.5v-2h2.7c-0.5-0.5-1.4-1.3-2-1.6c1.8-1.4,3.2-3.8,3.9-5.9l2.7,0.7c-0.2,0.5-0.5,1.1-0.7,1.8
			h9.3v2.3h-6.3c1.1,0.7,2.1,1.8,2.9,2.5l-2,1.8c-0.7-0.9-2.1-2.1-3.2-3l1.4-1.1h-3c-0.7,1.1-1.4,2-2.3,2.9h0.2v2h12v2.7h-12v2.1
			h10.2v5.7c0,1.4-0.4,2-1.3,2.3c-1.1,0.4-2.3,0.4-4.1,0.4c-0.2-0.7-0.7-1.8-1.1-2.3c1.3,0,2.5,0,2.9,0s0.5-0.2,0.5-0.4v-3h-7.2v2.3
			H1021.1L1021.1,237.9z M1009.8,223c-1.1,1.6-2.1,3-3.2,4.1c-0.4-0.5-1.4-1.4-2-2c2-1.8,3.8-4.3,4.7-7l2.7,0.7
			c-0.2,0.5-0.5,1.1-0.7,1.6h7.7v2.3h-5.4c0.9,0.9,2,1.8,2.5,2.5l-2,1.8c-0.7-0.9-2-2.3-3-3.2l1.3-1.1h-2.5L1009.8,223L1009.8,223z"
			/>
		<path id="ed0ihh3a66960" class="st5" d="M1066.9,222.7c-1.3,3-3.2,5.7-5.5,8.1c2,1.3,4.1,2.3,6.4,3c-0.4,0.7-0.7,2.1-0.9,2.9
			c-0.5-0.2-0.9-0.4-1.4-0.5v11.6h-2.7v-1.6h-7.5v1.6h-2.7V236c-0.7,0.4-1.3,0.5-2,0.7c-0.2-0.7-0.7-2.1-1.1-2.7v8.4h-8.4v2.3h-2.3
			v-23.8h10.7V234c2.7-0.7,5.2-2,7.3-3.4c-1.1-1.1-2-2.5-2.9-3.8c-0.9,1.1-1.8,2.1-2.7,3c-0.4-0.5-1.3-1.8-1.8-2.3
			c2.5-2.1,4.8-5.5,6.3-9.1l2.5,0.7c-0.4,0.9-0.7,1.8-1.3,2.7h7.3l0.5-0.2L1066.9,222.7z M1041.3,223.6v6.8h2.1v-6.8H1041.3z
			 M1041.3,239.8h2.1v-7.3h-2.1V239.8z M1047.4,223.6h-2.1v6.8h2.1V223.6z M1047.4,239.8v-7.3h-2.1v7.3H1047.4z M1065.1,235.9
			c-2.1-0.9-4.1-2.1-5.9-3.4c-2,1.4-3.9,2.5-6.1,3.4H1065.1z M1063,243.6v-5h-7.5v5H1063z M1056,224.5c0.9,1.6,2,3.2,3.2,4.5
			c1.4-1.3,2.9-2.9,3.8-4.5H1056z"/>
	</g>
	<g id="ed0ihh3a66961">
		<line id="ed0ihh3a66962" class="st6" x1="766.6" y1="83.2" x2="791.1" y2="83.2"/>
		<line id="ed0ihh3a66963" class="st6" x1="778.9" y1="95.5" x2="778.9" y2="71"/>
	</g>
	<g id="ed0ihh3a66964">
		<line id="ed0ihh3a66965" class="st6" x1="766.6" y1="133.7" x2="791.1" y2="133.7"/>
		<line id="ed0ihh3a66966" class="st6" x1="778.9" y1="146" x2="778.9" y2="121.5"/>
	</g>
	<g id="ed0ihh3a66967">
		<line id="ed0ihh3a66968" class="st6" x1="766.6" y1="181.2" x2="791.1" y2="181.2"/>
		<line id="ed0ihh3a66969" class="st6" x1="778.9" y1="193.5" x2="778.9" y2="169"/>
	</g>
	<g id="ed0ihh3a66970">
		<line id="ed0ihh3a66971" class="st6" x1="766.6" y1="234.2" x2="791.1" y2="234.2"/>
		<line id="ed0ihh3a66972" class="st6" x1="778.9" y1="246.5" x2="778.9" y2="222"/>
	</g>
</g>
<path id="ed0ihh3a66973" class="st4" d="M748.5,79H440.7H748.5z"/>
<path id="ed0ihh3a66974" class="st7" d="M594.9,720.7H226H594.9z"/>
<line id="ed0ihh3a66975" class="st7" x1="226.5" y1="645.1" x2="226.5" y2="720.7"/>
<circle id="ed0ihh3a66976" class="st2" cx="378.2" cy="376.1" r="89.5"/>
<g id="ed0ihh3a66977_tr" transform="translate(533.688000,376.806000) rotate(0)">
	<g id="ed0ihh3a66977" transform="translate(-168.988000,-166.156000)">
		<g id="ed0ihh3a66978" transform="matrix(1 0 0 1 -364.69999999999999 -210.65000000000001)">
			<circle id="ed0ihh3a66979" class="st8" cx="376.7" cy="376.7" r="59"/>
			
				<ellipse id="ed0ihh3a66980" transform="matrix(0.7071 -0.7071 0.7071 0.7071 -156.871 378.2862)" class="st9" cx="378.2" cy="378.5" rx="59.2" ry="31.9"/>
			<path id="ed0ihh3a66981" class="st8" d="M318.1,369c13.1,2.3,28.5,10.9,41.9,24.3s22,29,24.3,41.9"/>
			<path id="ed0ihh3a66982" class="st8" d="M435.2,384.6c-13.1-2.3-28.5-10.9-41.9-24.3s-22-29-24.3-41.9"/>
			<line id="ed0ihh3a66983" class="st8" x1="418.4" y1="335" x2="334.8" y2="418.6"/>
			<line id="ed0ihh3a66984" class="st8" x1="418.4" y1="418.6" x2="334.8" y2="335"/>
		</g>
	</g>
</g>
<g id="ed0ihh3a66985">
	<g id="ed0ihh3a66986">
		<polyline id="ed0ihh3a66987" class="st10" points="1034.8,375.8 1034.8,740.5 568.2,740.5 568.2,354.2 1033.9,354.2 1033.9,356.7 
					"/>
		<g id="ed0ihh3a66988">
			<g>
				<path class="st5" d="M638.5,409.1h12.1v2.7h-27v-2.7h11.7v-4.7h-8.6v-2.6h8.6v-4.4h-7.2v-2.6c-1.4,1-2.8,1.9-4.2,2.6
					c-0.4-0.8-1.2-1.8-1.9-2.4c3.8-1.7,8.2-4.8,11.3-8.1h-5.1v-2.8h10.2c2.8,4.3,8.2,8.4,13.4,10.5c-0.6,0.6-1.6,1.9-2,2.7
					c-1.4-0.6-2.8-1.4-4.1-2.3v2.5h-7.3v4.4h8.7v2.6h-8.7L638.5,409.1L638.5,409.1z M628.3,394.8h17.4c-3.3-2.2-6.4-5.1-8.6-7.9
					C634.7,389.7,631.5,392.6,628.3,394.8z"/>
				<path class="st5" d="M684.1,394.3c-1.7,2.2-3.7,4.9-5.4,6.6c1.4,2.9,3.4,5.2,6.2,7.2c-0.7,0.5-1.5,1.5-1.8,2.3
					c-3.1-2.4-5.3-5-6.8-8.3v7.1c0,1.6-0.4,2.4-1.3,2.9c-1,0.5-2.5,0.6-5,0.6c-0.1-0.8-0.6-2.1-1-2.8c1.7,0.1,3.3,0,3.7,0
					c0.5,0,0.7-0.2,0.7-0.7v-6.5c-2.5,2.5-5,4.9-7.1,6.8l-1.8-2.6l0.4-0.4c-3.3,1.1-6.8,2.2-9.4,3l-0.6-2.8c1.1-0.3,2.5-0.7,4-1.2
					v-8.3h-3.4v-2.8h3.4V388h-3.6v-2.8h9.9v2.8h-3.5v6.4h3v2.8h-3v7.5l3.6-1.1l0.4,2.4c2.1-1.7,5-4.2,7.7-6.5v-8h-7.6v-2.8h7.6v-5.3
					h2.9v5.3h8.1v2.8h-8.1v1.3c0.4,2.2,0.8,4,1.3,5.7c1.4-1.7,2.9-3.8,3.8-5.4L684.1,394.3z M668.5,393.1c1.3,1.8,2.8,4.1,3.3,5.7
					l-2.5,1.2c-0.5-1.6-1.9-4-3.2-5.9L668.5,393.1z M681.3,388.6c-0.8-1-2.4-2.5-3.7-3.5l1.7-1.5c1.4,0.9,3,2.3,3.8,3.3L681.3,388.6
					z"/>
				<path class="st5" d="M697.4,383.4h2.9v14.8c0,4.8-1.4,11.2-9,14.8c-0.5-0.7-1.4-1.7-2.1-2.3c3.6-1.4,5.7-3.8,6.9-6.3
					c-2.7,0.5-5.2,1-7.4,1.3l-0.6-2.9c2.3-0.3,5.5-0.8,8.9-1.3c0.3-1.2,0.4-2.4,0.4-3.3v-0.5h-7.9V395h7.9v-4.4h-8.3v-2.8h8.3
					L697.4,383.4L697.4,383.4z M717.2,405.1h-9.5v7.5h-3v-29.2h3v4.4h8.9v2.8h-8.9v4.4h8.2v2.7h-8.2v4.5h9.5V405.1z"/>
				<path class="st5" d="M731.1,399.8c-1,0.3-2.1,0.6-3.1,0.9v8.4c0,1.5-0.3,2.3-1.2,2.7c-0.9,0.5-2.3,0.5-4.5,0.5
					c-0.1-0.7-0.5-2-0.9-2.7c1.4,0,2.8,0,3.1,0c0.4,0,0.6-0.2,0.6-0.6v-7.5l-3.7,1l-0.8-2.8c1.3-0.3,2.8-0.7,4.5-1.1v-6.3H721v-2.8
					h4.1v-6.2h2.9v6.2h3.7v2.8H728v5.6l2.7-0.7L731.1,399.8z M748,397.8c-1.2,3.9-3.3,6.9-5.9,9.2c2.3,1.3,5,2.3,8,2.9
					c-0.6,0.6-1.4,1.9-1.9,2.8c-3.3-0.8-6.2-2-8.6-3.7c-2.7,1.7-5.8,2.9-9,3.7c-0.3-0.8-0.9-2.1-1.5-2.7c2.9-0.6,5.7-1.5,8.1-2.9
					c-2-1.9-3.6-4.2-4.9-6.8l0.8-0.3h-1.6v-2.8h14.1l0.5-0.1L748,397.8z M737.2,387.9c0,3-0.9,6.5-5,8.6c-0.4-0.6-1.4-1.8-1.9-2.2
					c3.6-1.8,4.1-4.3,4.1-6.5v-3.5H745v7.2c0,0.9,0.1,1.2,0.6,1.2h2.1c0.5,0,1.2-0.1,1.7-0.2c0,0.8,0.1,1.8,0.2,2.5
					c-0.4,0.2-1.2,0.2-1.9,0.2h-2.4c-2.6,0-3.2-1.1-3.2-3.8V387h-4.9L737.2,387.9L737.2,387.9z M735.2,399.9
					c1.1,2.1,2.6,3.9,4.5,5.4c1.8-1.5,3.3-3.3,4.4-5.4H735.2z"/>
				<path class="st5" d="M773.5,388c0,0.2,0,0.5-0.1,0.8c1.7,1.8,5.2,2.8,9.4,3.1c-0.6,0.6-1.3,1.7-1.6,2.4
					c-3.6-0.5-6.6-1.7-8.6-3.5c-1.2,1.5-3.7,2.8-9.2,3.6c-0.3-0.7-1-1.7-1.5-2.2h-8.1v-2.3h9.3v2.1c6.9-0.9,7.7-2.7,7.7-4.1v-0.4
					h-2.7c-0.7,1.2-1.5,2.2-2.3,3c-0.5-0.4-1.6-1.2-2.2-1.5c1.7-1.4,3-3.6,3.7-5.9l2.7,0.6c-0.2,0.5-0.4,1.1-0.6,1.6h10l0.4-0.1
					l2,0.7c-0.8,1.7-1.9,3.6-2.8,4.7l-2.3-0.8c0.4-0.6,0.9-1.4,1.3-2.2h-4.4v0.4H773.5z M773.3,407.4c3.3,1.1,6.8,2.4,9,3.5
					l-2.7,1.6c-2-1.1-5.3-2.5-8.6-3.6l1.9-1.5h-9.6l2.7,1.2c-2.6,1.6-6.6,3.1-9.8,4c-0.5-0.6-1.6-1.7-2.2-2.2c3.3-0.6,7-1.7,9.2-3
					H758v-12.9h20.9v12.9H773.3z M762.4,387.2h-7.8V385h7.8V387.2z M760.9,398.3h15v-1.8h-15V398.3z M760.9,401.9h15v-1.8h-15V401.9
					z M760.9,405.5h15v-1.9h-15V405.5z"/>
				<path class="st5" d="M791.5,388c-0.9,1.4-2,2.7-3.1,3.7c-0.4-0.5-1.4-1.6-2-2c2-1.6,3.8-4.1,4.8-6.6l2.7,0.8
					c-0.3,0.6-0.5,1.1-0.8,1.7h7.7v2.5h-5.3c1,0.8,2,1.8,2.6,2.5l-1.9,1.7c-0.6-0.9-2.1-2.3-3.2-3.3l1.1-1L791.5,388L791.5,388z
					 M808.9,402.5h6.2v2.4h-6.2v4.8c0,1.5-0.4,2.2-1.6,2.5c-1.2,0.4-3.1,0.4-5.8,0.4c-0.1-0.8-0.5-1.7-0.8-2.4
					c1.9,0.1,3.9,0.1,4.4,0c0.5,0,0.7-0.2,0.7-0.6v-4.7h-11.5c1.7,1.3,4,3.3,5.1,4.5l-2.2,1.8c-1.1-1.2-3.3-3.4-5.1-4.8l2-1.4h-7.2
					v-2.4h18.9v-2h3.1L808.9,402.5L808.9,402.5z M815.6,385.4v2.6h-6.5c1,0.9,2,2,2.6,2.8l-2,1.7c-0.6-1-1.9-2.4-3-3.4l1.3-1.1h-2.8
					c-0.8,1.5-1.7,2.8-2.6,3.8l-0.1-0.1v0.9H814v2.5h-11.5v2.4h9.6v2.3h-22.5v-2.3h9.8v-2.4H788v-2.5h11.4v-1.8h2
					c-0.4-0.3-0.8-0.6-1.1-0.8c1.7-1.7,3.2-4.4,4-7l2.7,0.6c-0.2,0.6-0.4,1.2-0.6,1.8H815.6z"/>
				<path class="st5" d="M829.8,402.5c-0.1-0.5-0.2-1.1-0.4-1.7c-7.1,1.2-8.2,1.4-8.9,1.8c-0.1-0.6-0.6-2-1-2.7
					c0.8-0.2,1.5-0.9,2.5-2.1c0.5-0.5,1.4-1.6,2.4-3.1c-3,0.4-3.7,0.5-4.2,0.8c-0.2-0.6-0.6-2-0.9-2.7c0.6-0.2,1.2-0.8,1.8-1.7
					c0.7-0.9,2.8-4.4,4-7.8l2.8,1.1c-1.2,2.8-2.9,5.7-4.6,8l2.9-0.3c0.9-1.3,1.7-2.8,2.4-4.2l2.5,1.6c-2,3.5-4.4,7-6.9,9.8l4.6-0.6
					c-0.4-0.9-0.7-1.8-1.1-2.6l2.1-0.7c1,2,2,4.7,2.3,6.4L829.8,402.5z M823.2,404.2c-0.3,2.8-0.9,5.8-1.5,7.7
					c-0.5-0.3-1.6-0.6-2.2-0.8c0.7-1.9,1.2-4.7,1.4-7.3L823.2,404.2z M826.4,403.7c0.4,2,0.7,4.6,0.8,6.3l-2.2,0.6
					c0-1.8-0.4-4.4-0.7-6.4L826.4,403.7z M847.8,394.3c-0.8,4.7-2.3,8.6-4.4,11.7c1.5,1.7,3.2,3.1,5.3,4c-0.7,0.6-1.6,1.7-2,2.5
					c-2-1-3.7-2.4-5.1-4.1c-1.5,1.8-3.3,3.2-5.2,4.4c-0.4-0.7-1.2-1.8-1.9-2.3c2-1,3.7-2.6,5.3-4.5c-1.3-2.2-2.3-4.6-3.1-7.4
					c-0.6,5.6-1.8,10.3-4.4,14c-0.4-0.5-1.9-1.5-2.6-1.9c0.6-0.8,1.1-1.7,1.6-2.6l-2.1,0.7c-0.3-1.4-0.9-3.6-1.5-5.2l2-0.6
					c0.6,1.6,1.3,3.7,1.6,5.1c2.4-5,2.9-12.1,3-20.4h-2.9v-2.8h11.1l0.4-0.1l2,0.3c-0.4,2.7-0.9,6-1.4,8.9h1.8l0.5-0.1L847.8,394.3z
					 M837.3,387.5c0,2.2-0.1,4.2-0.2,6.2h3.7c0.4-2,0.8-4.3,1.1-6.2H837.3z M838.7,396.4c0.7,2.5,1.6,4.9,2.8,7
					c1.2-2.1,2.2-4.4,2.8-7H838.7z"/>
				<path class="st5" d="M861.5,384.1c-0.8,2.1-1.8,4.3-2.9,6.3v22.1h-2.9v-17.6c-0.9,1.2-1.9,2.4-2.9,3.4c-0.3-0.7-1.1-2.3-1.6-3
					c3-2.9,5.9-7.5,7.6-12.1L861.5,384.1z M869.8,408.5c-1.9,1.6-4.9,3.2-7.4,4.2c-0.5-0.5-1.6-1.6-2.3-2c2.5-0.7,5.3-1.9,6.9-3.2
					L869.8,408.5z M869.4,386.9h-7.5v-2h7.5v-1.7h3v1.7h7.8v2h-7.8v1.3h7v1.9h-7v1.4h8.8v2h-20.6v-2h8.8v-1.4h-6.7v-1.9h6.7V386.9z
					 M862.9,407v-12.1h16.3V407H862.9z M865.8,398.5h10.4v-1.6h-10.4V398.5z M865.8,401.7h10.4V400h-10.4V401.7z M865.8,405.1h10.4
					v-1.7h-10.4V405.1z M875.2,407.2c2.2,1.2,4.7,2.8,6.1,4l-2.7,1.6c-1.3-1.2-3.9-3.1-6-4.4L875.2,407.2z"/>
				<path class="st5" d="M895.1,399.8c-1,0.3-2.1,0.6-3.1,0.9v8.4c0,1.5-0.3,2.3-1.2,2.7c-0.9,0.5-2.3,0.5-4.5,0.5
					c-0.1-0.7-0.5-2-0.9-2.7c1.4,0,2.8,0,3.1,0c0.4,0,0.6-0.2,0.6-0.6v-7.5l-3.7,1l-0.8-2.8c1.3-0.3,2.8-0.7,4.5-1.1v-6.3H885v-2.8
					h4.1v-6.2h2.9v6.2h3.7v2.8H892v5.6l2.7-0.7L895.1,399.8z M912,397.8c-1.2,3.9-3.3,6.9-5.9,9.2c2.3,1.3,5,2.3,8,2.9
					c-0.6,0.6-1.4,1.9-1.9,2.8c-3.3-0.8-6.2-2-8.6-3.7c-2.7,1.7-5.8,2.9-9,3.7c-0.3-0.8-0.9-2.1-1.5-2.7c2.9-0.6,5.7-1.5,8.1-2.9
					c-2-1.9-3.6-4.2-4.9-6.8l0.8-0.3h-1.6v-2.8h14.1l0.5-0.1L912,397.8z M901.2,387.9c0,3-0.9,6.5-5,8.6c-0.4-0.6-1.4-1.8-1.9-2.2
					c3.6-1.8,4.1-4.3,4.1-6.5v-3.5H909v7.2c0,0.9,0.1,1.2,0.6,1.2h2.1c0.5,0,1.2-0.1,1.7-0.2c0,0.8,0.1,1.8,0.2,2.5
					c-0.4,0.2-1.2,0.2-1.9,0.2h-2.4c-2.6,0-3.2-1.1-3.2-3.8V387h-4.9L901.2,387.9L901.2,387.9z M899.2,399.9
					c1.1,2.1,2.6,3.9,4.5,5.4c1.8-1.5,3.3-3.3,4.4-5.4H899.2z"/>
				<path class="st5" d="M937.5,388c0,0.2,0,0.5-0.1,0.8c1.7,1.8,5.2,2.8,9.4,3.1c-0.6,0.6-1.3,1.7-1.6,2.4
					c-3.6-0.5-6.6-1.7-8.6-3.5c-1.2,1.5-3.7,2.8-9.2,3.6c-0.3-0.7-1-1.7-1.5-2.2h-8.1v-2.3h9.3v2.1c6.9-0.9,7.7-2.7,7.7-4.1v-0.4
					h-2.7c-0.7,1.2-1.5,2.2-2.3,3c-0.5-0.4-1.6-1.2-2.2-1.5c1.7-1.4,3-3.6,3.7-5.9l2.7,0.6c-0.2,0.5-0.4,1.1-0.6,1.6h10l0.4-0.1
					l2,0.7c-0.8,1.7-1.9,3.6-2.8,4.7l-2.3-0.8c0.4-0.6,0.9-1.4,1.3-2.2h-4.4v0.4H937.5z M937.3,407.4c3.3,1.1,6.8,2.4,9,3.5
					l-2.7,1.6c-2-1.1-5.3-2.5-8.6-3.6l1.9-1.5h-9.6l2.7,1.2c-2.6,1.6-6.6,3.1-9.8,4c-0.5-0.6-1.6-1.7-2.2-2.2c3.3-0.6,7-1.7,9.2-3
					H922v-12.9h20.9v12.9H937.3z M926.4,387.2h-7.8V385h7.8V387.2z M924.9,398.3h15v-1.8h-15V398.3z M924.9,401.9h15v-1.8h-15V401.9
					z M924.9,405.5h15v-1.9h-15V405.5z"/>
				<path class="st5" d="M966.8,402.5c2.6,2.6,7.5,5.3,13.1,6.4c-0.6,0.6-1.5,1.9-1.9,2.6c-4.5-1.2-8.5-3.5-11.2-5.9v7h-3.2v-7.1
					c-3,2.8-7.1,5-11.3,6.1c-0.4-0.7-1.2-1.9-1.9-2.5c5.2-1.2,10.4-3.8,13.2-7.1v-2.5h-7.1v5.9h-3.1V397h10.2v-2h-12.4v-2.6h12.4
					v-1.9h2.6c-0.5-0.5-1.4-1.2-2-1.5c1.7-1.4,3.2-3.6,4-6l2.7,0.7c-0.2,0.6-0.4,1.1-0.7,1.7h9.2v2.3h-6.3c1,0.8,2.1,1.8,2.8,2.5
					l-2,1.8c-0.7-0.9-2.1-2.2-3.3-3.1l1.4-1.1h-3c-0.7,1.1-1.5,2-2.3,2.8h0.1v1.9h11.9v2.6h-11.9v2.1H977v5.6c0,1.3-0.3,2-1.2,2.3
					c-1,0.4-2.3,0.4-4.1,0.4c-0.2-0.8-0.7-1.7-1-2.4c1.2,0.1,2.5,0.1,2.8,0c0.4,0,0.5-0.1,0.5-0.4v-3.1h-7.1v2.9H966.8z
					 M955.8,387.7c-1,1.6-2.1,3-3.3,4.1c-0.4-0.5-1.4-1.5-2-2c1.9-1.7,3.7-4.3,4.7-6.9l2.7,0.8c-0.2,0.5-0.4,1.1-0.7,1.6h7.6v2.3
					h-5.4c1,0.8,2,1.9,2.6,2.5l-1.9,1.7c-0.6-0.9-2-2.2-3.1-3.2l1.2-1h-2.4V387.7z"/>
				<path class="st5" d="M1012,387.4c-1.2,3.1-3.2,5.7-5.6,7.9c1.9,1.3,4.1,2.4,6.5,3c-0.4,0.7-0.7,2.1-0.8,2.9
					c-0.5-0.1-0.9-0.3-1.4-0.5v11.5h-2.7v-1.6h-7.5v1.6h-2.6v-11.7c-0.6,0.3-1.3,0.5-1.9,0.7c-0.2-0.7-0.7-2-1.1-2.7v8.4h-8.4v2.2
					h-2.3v-23.7h10.7v13c2.6-0.8,5.2-1.9,7.4-3.4c-1.1-1.2-2-2.4-2.8-3.7c-0.8,1.1-1.8,2.1-2.7,2.9c-0.3-0.5-1.2-1.7-1.7-2.3
					c2.5-2.1,4.8-5.5,6.2-9l2.5,0.7c-0.3,0.9-0.7,1.8-1.2,2.7h7.2l0.6-0.1L1012,387.4z M986.5,388.2v6.7h2.1v-6.7H986.5z
					 M986.5,404.5h2.1v-7.3h-2.1V404.5z M992.6,388.2h-2v6.7h2V388.2z M992.6,404.5v-7.3h-2v7.3H992.6z M1010.1,400.6
					c-2.1-0.9-4.1-2-5.8-3.4c-1.9,1.4-4,2.5-6.1,3.4H1010.1z M1008,408.1v-5h-7.5v5H1008z M1001.1,389.2c0.8,1.6,1.9,3.1,3.3,4.5
					c1.5-1.3,2.8-2.8,3.8-4.5H1001.1z"/>
			</g>
			<g>
				<path class="st5" d="M638.2,449.6c-0.1,0.7-0.2,1.4-0.3,2.1h12.8v2.5h-13.5c-1.5,4.2-4.9,6.8-13.3,8.2c-0.2-0.8-0.9-2-1.5-2.7
					c7-1,10-2.8,11.5-5.5h-10.2v-2.5h11.1c0.1-0.7,0.3-1.3,0.4-2.1H623V447h12.5v-2.3h-9.7v-2.5h9.7V440H624v-2.6h6.4
					c-0.5-1.1-1.4-2.4-2.1-3.3l2.6-1c1.1,1.2,2.2,2.8,2.6,3.9l-1.1,0.5h7.8c0.9-1.3,2-3.1,2.5-4.4l3.2,0.9c-0.7,1.2-1.6,2.5-2.4,3.5
					h6.5v2.6h-11.6v2.2h10v2.5h-10v2.3h12.9v2.6h-13.1V449.6z M650,462.6c-2.8-1.9-8.6-4.5-12.9-6.2l1.3-2.2c4.2,1.5,10,4,12.9,5.8
					L650,462.6z"/>
				<path class="st5" d="M683.2,434.5v28.1h-2.9v-1.4h-20.9v1.4h-2.8v-28.1H683.2z M680.2,458.5v-21.3h-20.9v21.3H680.2z
					 M677.9,444.8c-0.8,2.9-2,5.4-3.4,7.6c0.5,1.4,1.2,2.2,2.1,2.4c0.4,0.1,0.7-1.2,0.9-3.2c0.5,0.5,1.4,1.1,1.9,1.4
					c-0.4,3.6-1.8,4.9-3.6,4.2c-1.2-0.3-2.1-1.2-2.9-2.7c-1.1,1.2-2.4,2.3-3.8,3.2c-0.3-0.4-1.2-1.4-1.7-1.8
					c0.9-0.5,1.7-1.1,2.5-1.7c-3.1,0.5-6.4,1.1-8.9,1.6l-0.3-2.2c2.3-0.3,5.8-0.9,9.3-1.4l0.1,2c0.7-0.6,1.3-1.3,1.9-2
					c-0.8-2.4-1.2-5.5-1.6-8.9H661V441h9.2c-0.1-1-0.1-2-0.2-3.1h2.5c0,1,0.1,2.1,0.2,3.1h4.5c-0.6-0.7-2-1.6-3.2-2.2l1.4-1.4
					c1.2,0.5,2.6,1.4,3.3,2.1L677,441h2v2.2h-6.3c0.2,2.3,0.5,4.5,0.9,6.3c0.9-1.5,1.5-3.2,2-5.1L677.9,444.8z M668.8,444.9v6.1
					h-7.1v-6.1H668.8z M666.8,446.6h-3v2.8h3V446.6z"/>
				<path class="st5" d="M697.4,433.3h2.9v14.8c0,4.8-1.4,11.2-9,14.8c-0.5-0.7-1.4-1.7-2.1-2.3c3.6-1.4,5.7-3.8,6.9-6.3
					c-2.7,0.5-5.2,1-7.4,1.3l-0.6-2.9c2.3-0.3,5.5-0.8,8.9-1.3c0.3-1.2,0.4-2.4,0.4-3.3v-0.5h-7.9v-2.7h7.9v-4.4h-8.3v-2.8h8.3
					L697.4,433.3L697.4,433.3z M717.2,454.9h-9.5v7.5h-3v-29.2h3v4.4h8.9v2.8h-8.9v4.4h8.2v2.7h-8.2v4.5h9.5V454.9z"/>
				<path class="st5" d="M731.1,449.7c-1,0.3-2.1,0.6-3.1,0.9v8.4c0,1.5-0.3,2.3-1.2,2.7c-0.9,0.5-2.3,0.5-4.5,0.5
					c-0.1-0.7-0.5-2-0.9-2.7c1.4,0,2.8,0,3.1,0c0.4,0,0.6-0.2,0.6-0.6v-7.5l-3.7,1l-0.8-2.8c1.3-0.3,2.8-0.7,4.5-1.1v-6.3H721v-2.8
					h4.1v-6.2h2.9v6.2h3.7v2.8H728v5.6l2.7-0.7L731.1,449.7z M748,447.7c-1.2,3.9-3.3,6.9-5.9,9.2c2.3,1.3,5,2.3,8,2.9
					c-0.6,0.6-1.4,1.9-1.9,2.8c-3.3-0.8-6.2-2-8.6-3.7c-2.7,1.7-5.8,2.9-9,3.7c-0.3-0.8-0.9-2.1-1.5-2.7c2.9-0.6,5.7-1.5,8.1-2.9
					c-2-1.9-3.6-4.2-4.9-6.8l0.8-0.3h-1.6V447h14.1l0.5-0.1L748,447.7z M737.2,437.8c0,3-0.9,6.5-5,8.6c-0.4-0.6-1.4-1.8-1.9-2.2
					c3.6-1.8,4.1-4.3,4.1-6.5v-3.5H745v7.2c0,0.9,0.1,1.2,0.6,1.2h2.1c0.5,0,1.2-0.1,1.7-0.2c0,0.8,0.1,1.8,0.2,2.5
					c-0.4,0.2-1.2,0.2-1.9,0.2h-2.4c-2.6,0-3.2-1.1-3.2-3.8V437h-4.9L737.2,437.8L737.2,437.8z M735.2,449.8
					c1.1,2.1,2.6,3.9,4.5,5.4c1.8-1.5,3.3-3.3,4.4-5.4H735.2z"/>
				<path class="st5" d="M773.5,437.9c0,0.2,0,0.5-0.1,0.8c1.7,1.8,5.2,2.8,9.4,3.1c-0.6,0.6-1.3,1.7-1.6,2.4
					c-3.6-0.5-6.6-1.7-8.6-3.5c-1.2,1.5-3.7,2.8-9.2,3.6c-0.3-0.7-1-1.7-1.5-2.2h-8.1v-2.3h9.3v2.1c6.9-0.9,7.7-2.7,7.7-4.1v-0.4
					h-2.7c-0.7,1.2-1.5,2.2-2.3,3c-0.5-0.4-1.6-1.2-2.2-1.5c1.7-1.4,3-3.6,3.7-5.9l2.7,0.6c-0.2,0.5-0.4,1.1-0.6,1.6h10l0.4-0.1
					l2,0.7c-0.8,1.7-1.9,3.6-2.8,4.7l-2.3-0.8c0.4-0.6,0.9-1.4,1.3-2.2h-4.4v0.4H773.5z M773.3,457.3c3.3,1.1,6.8,2.4,9,3.5
					l-2.7,1.6c-2-1.1-5.3-2.5-8.6-3.6l1.9-1.5h-9.6l2.7,1.2c-2.6,1.6-6.6,3.1-9.8,4c-0.5-0.6-1.6-1.7-2.2-2.2c3.3-0.6,7-1.7,9.2-3
					H758v-12.9h20.9v12.9H773.3z M762.4,437.1h-7.8v-2.2h7.8V437.1z M760.9,448.2h15v-1.8h-15V448.2z M760.9,451.7h15V450h-15V451.7
					z M760.9,455.4h15v-1.9h-15V455.4z"/>
				<path class="st5" d="M791.5,437.8c-0.9,1.4-2,2.7-3.1,3.7c-0.4-0.5-1.4-1.6-2-2c2-1.6,3.8-4.1,4.8-6.6l2.7,0.8
					c-0.3,0.6-0.5,1.1-0.8,1.7h7.7v2.5h-5.3c1,0.8,2,1.8,2.6,2.5l-1.9,1.7c-0.6-0.9-2.1-2.3-3.2-3.3l1.1-1L791.5,437.8L791.5,437.8z
					 M808.9,452.4h6.2v2.4h-6.2v4.8c0,1.5-0.4,2.2-1.6,2.5c-1.2,0.4-3.1,0.4-5.8,0.4c-0.1-0.8-0.5-1.7-0.8-2.4
					c1.9,0.1,3.9,0.1,4.4,0c0.5,0,0.7-0.2,0.7-0.6v-4.7h-11.5c1.7,1.3,4,3.3,5.1,4.5l-2.2,1.8c-1.1-1.2-3.3-3.4-5.1-4.8l2-1.4h-7.2
					v-2.4h18.9v-2h3.1L808.9,452.4L808.9,452.4z M815.6,435.3v2.6h-6.5c1,0.9,2,2,2.6,2.8l-2,1.7c-0.6-1-1.9-2.4-3-3.4l1.3-1.1h-2.8
					c-0.8,1.5-1.7,2.8-2.6,3.8l-0.1-0.1v0.9H814v2.5h-11.5v2.4h9.6v2.3h-22.5v-2.3h9.8V445H788v-2.5h11.4v-1.8h2
					c-0.4-0.3-0.8-0.6-1.1-0.8c1.7-1.7,3.2-4.4,4-7l2.7,0.6c-0.2,0.6-0.4,1.2-0.6,1.8L815.6,435.3L815.6,435.3z"/>
				<path class="st5" d="M829.8,452.4c-0.1-0.5-0.2-1.1-0.4-1.7c-7.1,1.2-8.2,1.4-8.9,1.8c-0.1-0.6-0.6-2-1-2.7
					c0.8-0.2,1.5-0.9,2.5-2.1c0.5-0.5,1.4-1.6,2.4-3.1c-3,0.4-3.7,0.5-4.2,0.8c-0.2-0.6-0.6-2-0.9-2.7c0.6-0.2,1.2-0.8,1.8-1.7
					c0.7-0.9,2.8-4.4,4-7.8l2.8,1.1c-1.2,2.8-2.9,5.7-4.6,8l2.9-0.3c0.9-1.3,1.7-2.8,2.4-4.2l2.5,1.6c-2,3.5-4.4,7-6.9,9.8l4.6-0.6
					c-0.4-0.9-0.7-1.8-1.1-2.6l2.1-0.7c1,2,2,4.7,2.3,6.4L829.8,452.4z M823.2,454.1c-0.3,2.8-0.9,5.8-1.5,7.7
					c-0.5-0.3-1.6-0.6-2.2-0.8c0.7-1.9,1.2-4.7,1.4-7.3L823.2,454.1z M826.4,453.5c0.4,2,0.7,4.6,0.8,6.3l-2.2,0.6
					c0-1.8-0.4-4.4-0.7-6.4L826.4,453.5z M847.8,444.1c-0.8,4.7-2.3,8.6-4.4,11.7c1.5,1.7,3.2,3.1,5.3,4c-0.7,0.6-1.6,1.7-2,2.5
					c-2-1-3.7-2.4-5.1-4.1c-1.5,1.8-3.3,3.2-5.2,4.4c-0.4-0.7-1.2-1.8-1.9-2.3c2-1,3.7-2.6,5.3-4.5c-1.3-2.2-2.3-4.6-3.1-7.4
					c-0.6,5.6-1.8,10.3-4.4,14c-0.4-0.5-1.9-1.5-2.6-1.9c0.6-0.8,1.1-1.7,1.6-2.6l-2.1,0.7c-0.3-1.4-0.9-3.6-1.5-5.2l2-0.6
					c0.6,1.6,1.3,3.7,1.6,5.1c2.4-5,2.9-12.1,3-20.4h-2.9v-2.8h11.1l0.4-0.1l2,0.3c-0.4,2.7-0.9,6-1.4,8.9h1.8l0.5-0.1L847.8,444.1z
					 M837.3,437.4c0,2.2-0.1,4.2-0.2,6.2h3.7c0.4-2,0.8-4.3,1.1-6.2H837.3z M838.7,446.2c0.7,2.5,1.6,4.9,2.8,7
					c1.2-2.1,2.2-4.4,2.8-7H838.7z"/>
				<path class="st5" d="M861.5,434c-0.8,2.1-1.8,4.3-2.9,6.3v22.1h-2.9v-17.6c-0.9,1.2-1.9,2.4-2.9,3.4c-0.3-0.7-1.1-2.3-1.6-3
					c3-2.9,5.9-7.5,7.6-12.1L861.5,434z M869.8,458.3c-1.9,1.6-4.9,3.2-7.4,4.2c-0.5-0.5-1.6-1.6-2.3-2c2.5-0.7,5.3-1.9,6.9-3.2
					L869.8,458.3z M869.4,436.7h-7.5v-2h7.5V433h3v1.7h7.8v2h-7.8v1.3h7v1.9h-7v1.4h8.8v2h-20.6v-2h8.8V440h-6.7v-1.9h6.7V436.7z
					 M862.9,456.9v-12.1h16.3v12.1H862.9z M865.8,448.4h10.4v-1.6h-10.4V448.4z M865.8,451.6h10.4V450h-10.4V451.6z M865.8,454.9
					h10.4v-1.7h-10.4V454.9z M875.2,457.1c2.2,1.2,4.7,2.8,6.1,4l-2.7,1.6c-1.3-1.2-3.9-3.1-6-4.4L875.2,457.1z"/>
				<path class="st5" d="M895.1,449.7c-1,0.3-2.1,0.6-3.1,0.9v8.4c0,1.5-0.3,2.3-1.2,2.7c-0.9,0.5-2.3,0.5-4.5,0.5
					c-0.1-0.7-0.5-2-0.9-2.7c1.4,0,2.8,0,3.1,0c0.4,0,0.6-0.2,0.6-0.6v-7.5l-3.7,1l-0.8-2.8c1.3-0.3,2.8-0.7,4.5-1.1v-6.3H885v-2.8
					h4.1v-6.2h2.9v6.2h3.7v2.8H892v5.6l2.7-0.7L895.1,449.7z M912,447.7c-1.2,3.9-3.3,6.9-5.9,9.2c2.3,1.3,5,2.3,8,2.9
					c-0.6,0.6-1.4,1.9-1.9,2.8c-3.3-0.8-6.2-2-8.6-3.7c-2.7,1.7-5.8,2.9-9,3.7c-0.3-0.8-0.9-2.1-1.5-2.7c2.9-0.6,5.7-1.5,8.1-2.9
					c-2-1.9-3.6-4.2-4.9-6.8l0.8-0.3h-1.6V447h14.1l0.5-0.1L912,447.7z M901.2,437.8c0,3-0.9,6.5-5,8.6c-0.4-0.6-1.4-1.8-1.9-2.2
					c3.6-1.8,4.1-4.3,4.1-6.5v-3.5H909v7.2c0,0.9,0.1,1.2,0.6,1.2h2.1c0.5,0,1.2-0.1,1.7-0.2c0,0.8,0.1,1.8,0.2,2.5
					c-0.4,0.2-1.2,0.2-1.9,0.2h-2.4c-2.6,0-3.2-1.1-3.2-3.8V437h-4.9L901.2,437.8L901.2,437.8z M899.2,449.8
					c1.1,2.1,2.6,3.9,4.5,5.4c1.8-1.5,3.3-3.3,4.4-5.4H899.2z"/>
				<path class="st5" d="M937.5,437.9c0,0.2,0,0.5-0.1,0.8c1.7,1.8,5.2,2.8,9.4,3.1c-0.6,0.6-1.3,1.7-1.6,2.4
					c-3.6-0.5-6.6-1.7-8.6-3.5c-1.2,1.5-3.7,2.8-9.2,3.6c-0.3-0.7-1-1.7-1.5-2.2h-8.1v-2.3h9.3v2.1c6.9-0.9,7.7-2.7,7.7-4.1v-0.4
					h-2.7c-0.7,1.2-1.5,2.2-2.3,3c-0.5-0.4-1.6-1.2-2.2-1.5c1.7-1.4,3-3.6,3.7-5.9l2.7,0.6c-0.2,0.5-0.4,1.1-0.6,1.6h10l0.4-0.1
					l2,0.7c-0.8,1.7-1.9,3.6-2.8,4.7l-2.3-0.8c0.4-0.6,0.9-1.4,1.3-2.2h-4.4v0.4H937.5z M937.3,457.3c3.3,1.1,6.8,2.4,9,3.5
					l-2.7,1.6c-2-1.1-5.3-2.5-8.6-3.6l1.9-1.5h-9.6l2.7,1.2c-2.6,1.6-6.6,3.1-9.8,4c-0.5-0.6-1.6-1.7-2.2-2.2c3.3-0.6,7-1.7,9.2-3
					H922v-12.9h20.9v12.9H937.3z M926.4,437.1h-7.8v-2.2h7.8V437.1z M924.9,448.2h15v-1.8h-15V448.2z M924.9,451.7h15V450h-15V451.7
					z M924.9,455.4h15v-1.9h-15V455.4z"/>
				<path class="st5" d="M966.8,452.4c2.6,2.6,7.5,5.3,13.1,6.4c-0.6,0.6-1.5,1.9-1.9,2.6c-4.5-1.2-8.5-3.5-11.2-5.9v7h-3.2v-7.1
					c-3,2.8-7.1,5-11.3,6.1c-0.4-0.7-1.2-1.9-1.9-2.5c5.2-1.2,10.4-3.8,13.2-7.1v-2.5h-7.1v5.9h-3.1v-8.4h10.2v-2.1h-12.4v-2.6h12.4
					v-1.9h2.6c-0.5-0.5-1.4-1.2-2-1.5c1.7-1.4,3.2-3.6,4-6l2.7,0.7c-0.2,0.6-0.4,1.1-0.7,1.7h9.2v2.3h-6.3c1,0.8,2.1,1.8,2.8,2.5
					l-2,1.8c-0.7-0.9-2.1-2.2-3.3-3.1l1.4-1.1h-3c-0.7,1.1-1.5,2-2.3,2.8h0.1v1.9h11.9v2.6h-11.9v2.1H977v5.6c0,1.3-0.3,2-1.2,2.3
					c-1,0.4-2.3,0.4-4.1,0.4c-0.2-0.8-0.7-1.7-1-2.4c1.2,0.1,2.5,0.1,2.8,0c0.4,0,0.5-0.1,0.5-0.4v-3.1h-7.1v3H966.8z M955.8,437.6
					c-1,1.6-2.1,3-3.3,4.1c-0.4-0.5-1.4-1.5-2-2c1.9-1.7,3.7-4.3,4.7-6.9l2.7,0.8c-0.2,0.5-0.4,1.1-0.7,1.6h7.6v2.3h-5.4
					c1,0.8,2,1.9,2.6,2.5l-1.9,1.7c-0.6-0.9-2-2.2-3.1-3.2l1.2-1h-2.4V437.6z"/>
				<path class="st5" d="M1012,437.3c-1.2,3.1-3.2,5.7-5.6,7.9c1.9,1.3,4.1,2.4,6.5,3c-0.4,0.7-0.7,2.1-0.8,2.9
					c-0.5-0.1-0.9-0.3-1.4-0.5v11.5h-2.7v-1.6h-7.5v1.6h-2.6v-11.7c-0.6,0.3-1.3,0.5-1.9,0.7c-0.2-0.7-0.7-2-1.1-2.7v8.4h-8.4v2.2
					h-2.3v-23.7h10.7v13c2.6-0.8,5.2-1.9,7.4-3.4c-1.1-1.2-2-2.4-2.8-3.7c-0.8,1.1-1.8,2.1-2.7,2.9c-0.3-0.5-1.2-1.7-1.7-2.3
					c2.5-2.1,4.8-5.5,6.2-9l2.5,0.7c-0.3,0.9-0.7,1.8-1.2,2.7h7.2l0.6-0.1L1012,437.3z M986.5,438.1v6.7h2.1v-6.7H986.5z
					 M986.5,454.4h2.1v-7.3h-2.1V454.4z M992.6,438.1h-2v6.7h2V438.1z M992.6,454.4v-7.3h-2v7.3H992.6z M1010.1,450.4
					c-2.1-0.9-4.1-2-5.8-3.4c-1.9,1.4-4,2.5-6.1,3.4H1010.1z M1008,458v-5h-7.5v5H1008z M1001.1,439c0.8,1.6,1.9,3.1,3.3,4.5
					c1.5-1.3,2.8-2.8,3.8-4.5H1001.1z"/>
			</g>
			<g>
				<path class="st5" d="M643.5,494.7c0,0.7,0,1.4,0,2.1c1,6.3,2.7,10.1,6.2,13.3c-0.7,0.5-1.5,1.5-1.9,2.3c-2.6-2.6-4.2-5.3-5.3-9
					c-0.9,3.1-2.4,6.3-5.2,9c-0.3-0.6-1-1.3-1.5-1.9c-0.7,0.1-1.8,0.1-2.9,0.1h-6.5c-3.7,0-5-1.3-5-5.3V487h-1v-2.5H636v2.5h-12
					v18.5c0,2,0.5,2.6,2.2,2.6h6.8c1,0,2.3-0.1,3-0.3c0,0.4,0.1,0.9,0.2,1.3c4.2-4.7,4.6-10.7,4.6-14.7v-2.3h2.7V494.7z M625,498.2
					h4.9v8.1H625V498.2z M634.2,496.3h-8.1V489h8.1V496.3z M626.5,504.4h1.8V500h-1.8V504.4z M631.9,490.9h-3.6v3.6h3.6V490.9z
					 M635.9,506.3h-5v-8h5V506.3z M634.2,500.1h-1.8v4.3h1.8V500.1z M640.1,490.7c-0.7,2.4-1.7,4.6-2.7,6.2
					c-0.5-0.4-1.7-1.2-2.4-1.6c2.1-2.9,3.3-7.5,4-12.3l2.7,0.4c-0.2,1.5-0.5,3-0.8,4.4h6.8l0.4-0.1l1.9,0.6c-0.6,3-1.6,6.4-2.4,8.6
					l-2.2-0.8c0.5-1.4,1-3.6,1.5-5.6h-6.8V490.7z"/>
				<path class="st5" d="M678.2,509.1c1.2,0,1.4-0.8,1.5-5.6c0.7,0.5,2,1.1,2.8,1.3c-0.3,5.5-1.1,7.1-4.1,7.1h-4.3c-3.2,0-4-1-4-4.1
					v-10.7h-5.5c-0.6,6.8-2,12.3-9.5,15.3c-0.3-0.8-1.2-1.8-1.9-2.4c6.7-2.5,7.8-7.3,8.2-12.9h-7.7v-2.9h28.1v2.9h-8.7v10.7
					c0,1.2,0.2,1.3,1.3,1.3L678.2,509.1L678.2,509.1z M679.2,488.4h-22.5v-2.9h22.5V488.4z"/>
				<path class="st5" d="M695.4,483.3h2.9v14.8c0,4.8-1.4,11.2-9,14.8c-0.5-0.7-1.4-1.7-2.1-2.3c3.6-1.4,5.7-3.8,6.9-6.3
					c-2.7,0.5-5.2,1-7.4,1.3l-0.6-2.9c2.3-0.3,5.5-0.8,8.9-1.3c0.3-1.2,0.4-2.4,0.4-3.3v-0.5h-7.9v-2.7h7.9v-4.4h-8.3v-2.8h8.3
					L695.4,483.3L695.4,483.3z M715.2,504.9h-9.5v7.5h-3v-29.2h3v4.4h8.9v2.8h-8.9v4.4h8.2v2.7h-8.2v4.5h9.5V504.9z"/>
				<path class="st5" d="M729.1,499.7c-1,0.3-2.1,0.6-3.1,0.9v8.4c0,1.5-0.3,2.3-1.2,2.7c-0.9,0.5-2.3,0.5-4.5,0.5
					c-0.1-0.7-0.5-2-0.9-2.7c1.4,0,2.8,0,3.1,0c0.4,0,0.6-0.2,0.6-0.6v-7.5l-3.7,1l-0.8-2.8c1.3-0.3,2.8-0.7,4.5-1.1v-6.3H719v-2.8
					h4.1v-6.2h2.9v6.2h3.7v2.8H726v5.6l2.7-0.7L729.1,499.7z M746,497.7c-1.2,3.9-3.3,6.9-5.9,9.2c2.3,1.3,5,2.3,8,2.9
					c-0.6,0.6-1.4,1.9-1.9,2.8c-3.3-0.8-6.2-2-8.6-3.7c-2.7,1.7-5.8,2.9-9,3.7c-0.3-0.8-0.9-2.1-1.5-2.7c2.9-0.6,5.7-1.5,8.1-2.9
					c-2-1.9-3.6-4.2-4.9-6.8l0.8-0.3h-1.6V497h14.1l0.5-0.1L746,497.7z M735.2,487.8c0,3-0.9,6.5-5,8.6c-0.4-0.6-1.4-1.8-1.9-2.2
					c3.6-1.8,4.1-4.3,4.1-6.5v-3.5H743v7.2c0,0.9,0.1,1.2,0.6,1.2h2.1c0.5,0,1.2-0.1,1.7-0.2c0,0.8,0.1,1.8,0.2,2.5
					c-0.4,0.2-1.2,0.2-1.9,0.2h-2.4c-2.6,0-3.2-1.1-3.2-3.8V487h-4.9L735.2,487.8L735.2,487.8z M733.2,499.8
					c1.1,2.1,2.6,3.9,4.5,5.4c1.8-1.5,3.3-3.3,4.4-5.4H733.2z"/>
				<path class="st5" d="M771.5,487.9c0,0.2,0,0.5-0.1,0.8c1.7,1.8,5.2,2.8,9.4,3.1c-0.6,0.6-1.3,1.7-1.6,2.4
					c-3.6-0.5-6.6-1.7-8.6-3.5c-1.2,1.5-3.7,2.8-9.2,3.6c-0.3-0.7-1-1.7-1.5-2.2h-8.1v-2.3h9.3v2.1c6.9-0.9,7.7-2.7,7.7-4.1v-0.4
					h-2.7c-0.7,1.2-1.5,2.2-2.3,3c-0.5-0.4-1.6-1.2-2.2-1.5c1.7-1.4,3-3.6,3.7-5.9l2.7,0.6c-0.2,0.5-0.4,1.1-0.6,1.6h10l0.4-0.1
					l2,0.7c-0.8,1.7-1.9,3.6-2.8,4.7l-2.3-0.8c0.4-0.6,0.9-1.4,1.3-2.2h-4.4v0.4H771.5z M771.3,507.3c3.3,1.1,6.8,2.4,9,3.5
					l-2.7,1.6c-2-1.1-5.3-2.5-8.6-3.6l1.9-1.5h-9.6l2.7,1.2c-2.6,1.6-6.6,3.1-9.8,4c-0.5-0.6-1.6-1.7-2.2-2.2c3.3-0.6,7-1.7,9.2-3
					H756v-12.9h20.9v12.9H771.3z M760.4,487.1h-7.8v-2.2h7.8V487.1z M758.9,498.2h15v-1.8h-15V498.2z M758.9,501.7h15V500h-15V501.7
					z M758.9,505.4h15v-1.9h-15V505.4z"/>
				<path class="st5" d="M789.5,487.8c-0.9,1.4-2,2.7-3.1,3.7c-0.4-0.5-1.4-1.6-2-2c2-1.6,3.8-4.1,4.8-6.6l2.7,0.8
					c-0.3,0.6-0.5,1.1-0.8,1.7h7.7v2.5h-5.3c1,0.8,2,1.8,2.6,2.5l-1.9,1.7c-0.6-0.9-2.1-2.3-3.2-3.3l1.1-1L789.5,487.8L789.5,487.8z
					 M806.9,502.4h6.2v2.4h-6.2v4.8c0,1.5-0.4,2.2-1.6,2.5c-1.2,0.4-3.1,0.4-5.8,0.4c-0.1-0.8-0.5-1.7-0.8-2.4
					c1.9,0.1,3.9,0.1,4.4,0c0.5,0,0.7-0.2,0.7-0.6v-4.7h-11.5c1.7,1.3,4,3.3,5.1,4.5l-2.2,1.8c-1.1-1.2-3.3-3.4-5.1-4.8l2-1.4h-7.2
					v-2.4h18.9v-2h3.1L806.9,502.4L806.9,502.4z M813.6,485.3v2.6h-6.5c1,0.9,2,2,2.6,2.8l-2,1.7c-0.6-1-1.9-2.4-3-3.4l1.3-1.1h-2.8
					c-0.8,1.5-1.7,2.8-2.6,3.8l-0.1-0.1v0.9H812v2.5h-11.5v2.4h9.6v2.3h-22.5v-2.3h9.8V495H786v-2.5h11.4v-1.8h2
					c-0.4-0.3-0.8-0.6-1.1-0.8c1.7-1.7,3.2-4.4,4-7l2.7,0.6c-0.2,0.6-0.4,1.2-0.6,1.8L813.6,485.3L813.6,485.3z"/>
				<path class="st5" d="M827.8,502.4c-0.1-0.5-0.2-1.1-0.4-1.7c-7.1,1.2-8.2,1.4-8.9,1.8c-0.1-0.6-0.6-2-1-2.7
					c0.8-0.2,1.5-0.9,2.5-2.1c0.5-0.5,1.4-1.6,2.4-3.1c-3,0.4-3.7,0.5-4.2,0.8c-0.2-0.6-0.6-2-0.9-2.7c0.6-0.2,1.2-0.8,1.8-1.7
					c0.7-0.9,2.8-4.4,4-7.8l2.8,1.1c-1.2,2.8-2.9,5.7-4.6,8l2.9-0.3c0.9-1.3,1.7-2.8,2.4-4.2l2.5,1.6c-2,3.5-4.4,7-6.9,9.8l4.6-0.6
					c-0.4-0.9-0.7-1.8-1.1-2.6l2.1-0.7c1,2,2,4.7,2.3,6.4L827.8,502.4z M821.2,504.1c-0.3,2.8-0.9,5.8-1.5,7.7
					c-0.5-0.3-1.6-0.6-2.2-0.8c0.7-1.9,1.2-4.7,1.4-7.3L821.2,504.1z M824.4,503.5c0.4,2,0.7,4.6,0.8,6.3l-2.2,0.6
					c0-1.8-0.4-4.4-0.7-6.4L824.4,503.5z M845.8,494.1c-0.8,4.7-2.3,8.6-4.4,11.7c1.5,1.7,3.2,3.1,5.3,4c-0.7,0.6-1.6,1.7-2,2.5
					c-2-1-3.7-2.4-5.1-4.1c-1.5,1.8-3.3,3.2-5.2,4.4c-0.4-0.7-1.2-1.8-1.9-2.3c2-1,3.7-2.6,5.3-4.5c-1.3-2.2-2.3-4.6-3.1-7.4
					c-0.6,5.6-1.8,10.3-4.4,14c-0.4-0.5-1.9-1.5-2.6-1.9c0.6-0.8,1.1-1.7,1.6-2.6l-2.1,0.7c-0.3-1.4-0.9-3.6-1.5-5.2l2-0.6
					c0.6,1.6,1.3,3.7,1.6,5.1c2.4-5,2.9-12.1,3-20.4h-2.9v-2.8h11.1l0.4-0.1l2,0.3c-0.4,2.7-0.9,6-1.4,8.9h1.8l0.5-0.1L845.8,494.1z
					 M835.3,487.4c0,2.2-0.1,4.2-0.2,6.2h3.7c0.4-2,0.8-4.3,1.1-6.2H835.3z M836.7,496.2c0.7,2.5,1.6,4.9,2.8,7
					c1.2-2.1,2.2-4.4,2.8-7H836.7z"/>
				<path class="st5" d="M859.5,484c-0.8,2.1-1.8,4.3-2.9,6.3v22.1h-2.9v-17.6c-0.9,1.2-1.9,2.4-2.9,3.4c-0.3-0.7-1.1-2.3-1.6-3
					c3-2.9,5.9-7.5,7.6-12.1L859.5,484z M867.8,508.3c-1.9,1.6-4.9,3.2-7.4,4.2c-0.5-0.5-1.6-1.6-2.3-2c2.5-0.7,5.3-1.9,6.9-3.2
					L867.8,508.3z M867.4,486.7h-7.5v-2h7.5V483h3v1.7h7.8v2h-7.8v1.3h7v1.9h-7v1.4h8.8v2h-20.6v-2h8.8V490h-6.7v-1.9h6.7V486.7z
					 M860.9,506.9v-12.1h16.3v12.1H860.9z M863.8,498.4h10.4v-1.6h-10.4V498.4z M863.8,501.6h10.4V500h-10.4V501.6z M863.8,504.9
					h10.4v-1.7h-10.4V504.9z M873.2,507.1c2.2,1.2,4.7,2.8,6.1,4l-2.7,1.6c-1.3-1.2-3.9-3.1-6-4.4L873.2,507.1z"/>
				<path class="st5" d="M893.1,499.7c-1,0.3-2.1,0.6-3.1,0.9v8.4c0,1.5-0.3,2.3-1.2,2.7c-0.9,0.5-2.3,0.5-4.5,0.5
					c-0.1-0.7-0.5-2-0.9-2.7c1.4,0,2.8,0,3.1,0c0.4,0,0.6-0.2,0.6-0.6v-7.5l-3.7,1l-0.8-2.8c1.3-0.3,2.8-0.7,4.5-1.1v-6.3H883v-2.8
					h4.1v-6.2h2.9v6.2h3.7v2.8H890v5.6l2.7-0.7L893.1,499.7z M910,497.7c-1.2,3.9-3.3,6.9-5.9,9.2c2.3,1.3,5,2.3,8,2.9
					c-0.6,0.6-1.4,1.9-1.9,2.8c-3.3-0.8-6.2-2-8.6-3.7c-2.7,1.7-5.8,2.9-9,3.7c-0.3-0.8-0.9-2.1-1.5-2.7c2.9-0.6,5.7-1.5,8.1-2.9
					c-2-1.9-3.6-4.2-4.9-6.8l0.8-0.3h-1.6V497h14.1l0.5-0.1L910,497.7z M899.2,487.8c0,3-0.9,6.5-5,8.6c-0.4-0.6-1.4-1.8-1.9-2.2
					c3.6-1.8,4.1-4.3,4.1-6.5v-3.5H907v7.2c0,0.9,0.1,1.2,0.6,1.2h2.1c0.5,0,1.2-0.1,1.7-0.2c0,0.8,0.1,1.8,0.2,2.5
					c-0.4,0.2-1.2,0.2-1.9,0.2h-2.4c-2.6,0-3.2-1.1-3.2-3.8V487h-4.9L899.2,487.8L899.2,487.8z M897.2,499.8
					c1.1,2.1,2.6,3.9,4.5,5.4c1.8-1.5,3.3-3.3,4.4-5.4H897.2z"/>
				<path class="st5" d="M935.5,487.9c0,0.2,0,0.5-0.1,0.8c1.7,1.8,5.2,2.8,9.4,3.1c-0.6,0.6-1.3,1.7-1.6,2.4
					c-3.6-0.5-6.6-1.7-8.6-3.5c-1.2,1.5-3.7,2.8-9.2,3.6c-0.3-0.7-1-1.7-1.5-2.2h-8.1v-2.3h9.3v2.1c6.9-0.9,7.7-2.7,7.7-4.1v-0.4
					h-2.7c-0.7,1.2-1.5,2.2-2.3,3c-0.5-0.4-1.6-1.2-2.2-1.5c1.7-1.4,3-3.6,3.7-5.9l2.7,0.6c-0.2,0.5-0.4,1.1-0.6,1.6h10l0.4-0.1
					l2,0.7c-0.8,1.7-1.9,3.6-2.8,4.7l-2.3-0.8c0.4-0.6,0.9-1.4,1.3-2.2h-4.4v0.4H935.5z M935.3,507.3c3.3,1.1,6.8,2.4,9,3.5
					l-2.7,1.6c-2-1.1-5.3-2.5-8.6-3.6l1.9-1.5h-9.6l2.7,1.2c-2.6,1.6-6.6,3.1-9.8,4c-0.5-0.6-1.6-1.7-2.2-2.2c3.3-0.6,7-1.7,9.2-3
					H920v-12.9h20.9v12.9H935.3z M924.4,487.1h-7.8v-2.2h7.8V487.1z M922.9,498.2h15v-1.8h-15V498.2z M922.9,501.7h15V500h-15V501.7
					z M922.9,505.4h15v-1.9h-15V505.4z"/>
				<path class="st5" d="M964.8,502.4c2.6,2.6,7.5,5.3,13.1,6.4c-0.6,0.6-1.5,1.9-1.9,2.6c-4.5-1.2-8.5-3.5-11.2-5.9v7h-3.2v-7.1
					c-3,2.8-7.1,5-11.3,6.1c-0.4-0.7-1.2-1.9-1.9-2.5c5.2-1.2,10.4-3.8,13.2-7.1v-2.5h-7.1v5.9h-3.1v-8.4h10.2v-2.1h-12.4v-2.6h12.4
					v-1.9h2.6c-0.5-0.5-1.4-1.2-2-1.5c1.7-1.4,3.2-3.6,4-6l2.7,0.7c-0.2,0.6-0.4,1.1-0.7,1.7h9.2v2.3h-6.3c1,0.8,2.1,1.8,2.8,2.5
					l-2,1.8c-0.7-0.9-2.1-2.2-3.3-3.1l1.4-1.1h-3c-0.7,1.1-1.5,2-2.3,2.8h0.1v1.9h11.9v2.6h-11.9v2.1H975v5.6c0,1.3-0.3,2-1.2,2.3
					c-1,0.4-2.3,0.4-4.1,0.4c-0.2-0.8-0.7-1.7-1-2.4c1.2,0.1,2.5,0.1,2.8,0c0.4,0,0.5-0.1,0.5-0.4v-3.1h-7.1v3H964.8z M953.8,487.6
					c-1,1.6-2.1,3-3.3,4.1c-0.4-0.5-1.4-1.5-2-2c1.9-1.7,3.7-4.3,4.7-6.9l2.7,0.8c-0.2,0.5-0.4,1.1-0.7,1.6h7.6v2.3h-5.4
					c1,0.8,2,1.9,2.6,2.5l-1.9,1.7c-0.6-0.9-2-2.2-3.1-3.2l1.2-1h-2.4V487.6z"/>
				<path class="st5" d="M1010,487.3c-1.2,3.1-3.2,5.7-5.6,7.9c1.9,1.3,4.1,2.4,6.5,3c-0.4,0.7-0.7,2.1-0.8,2.9
					c-0.5-0.1-0.9-0.3-1.4-0.5v11.5h-2.7v-1.6h-7.5v1.6h-2.6v-11.7c-0.6,0.3-1.3,0.5-1.9,0.7c-0.2-0.7-0.7-2-1.1-2.7v8.4h-8.4v2.2
					h-2.3v-23.7h10.7v13c2.6-0.8,5.2-1.9,7.4-3.4c-1.1-1.2-2-2.4-2.8-3.7c-0.8,1.1-1.8,2.1-2.7,2.9c-0.3-0.5-1.2-1.7-1.7-2.3
					c2.5-2.1,4.8-5.5,6.2-9l2.5,0.7c-0.3,0.9-0.7,1.8-1.2,2.7h7.2l0.6-0.1L1010,487.3z M984.5,488.1v6.7h2.1v-6.7H984.5z
					 M984.5,504.4h2.1v-7.3h-2.1V504.4z M990.6,488.1h-2v6.7h2V488.1z M990.6,504.4v-7.3h-2v7.3H990.6z M1008.1,500.4
					c-2.1-0.9-4.1-2-5.8-3.4c-1.9,1.4-4,2.5-6.1,3.4H1008.1z M1006,508v-5h-7.5v5H1006z M999.1,489c0.8,1.6,1.9,3.1,3.3,4.5
					c1.5-1.3,2.8-2.8,3.8-4.5H999.1z"/>
			</g>
			<g>
				<path class="st5" d="M630.7,558.9c-0.7-1.3-2.1-3.5-3.3-5.2c-0.9,3.1-2.5,6.1-5.1,8.5c-0.4-0.6-1.5-1.6-2-2
					c3.7-3.4,5-7.7,5.4-11.7h-5.2v-2.7h5.4c0-0.4,0-0.8,0-1.2v-4.5h-1.4c-0.5,1.8-1.2,3.4-1.9,4.7c-0.5-0.4-1.6-1.2-2.3-1.6
					c1.5-2.4,2.3-6.2,2.8-9.9l2.7,0.4c-0.2,1.2-0.4,2.5-0.7,3.7h7.2v2.7h-3.8v4.6c0,0.4,0,0.7,0,1.1h4.1v2.7h-4.3
					c-0.1,0.7-0.2,1.4-0.3,2.1c1.2,1.4,3.9,5,4.6,6L630.7,558.9z M649.6,559v2.8H632V559h9.8c1-2.2,2.1-5.3,2.7-7.6l3,0.7
					c-0.9,2.3-1.9,4.9-2.8,6.9L649.6,559L649.6,559z M649.3,537.4h-15.9v-2.8h15.9V537.4z M648.2,550.7h-13.9v-10.4h13.9V550.7z
					 M637,558.7c-0.3-1.7-1.1-4.4-2-6.4l2.5-0.7c1,2,1.9,4.6,2.1,6.3L637,558.7z M645.3,543H637v5.1h8.3V543z"/>
				<path class="st5" d="M660.1,556.2c-1.2,2.4-3,4.9-4.7,6.4c-0.5-0.5-1.7-1.3-2.4-1.8c1.7-1.4,3.4-3.4,4.3-5.4L660.1,556.2z
					 M668.7,555h-15.6v-2.6h3v-12.5h-2.6v-2.6h2.6v-3.7h2.7v3.7h5v-3.7h2.8v3.7h2.3v2.6h-2.3v12.5h2.2v2.6H668.7z M658.8,539.9v2.4
					h5v-2.4H658.8z M658.8,547.3h5v-2.7h-5V547.3z M658.8,552.4h5v-2.8h-5V552.4z M664.2,555.4c1.2,1.4,2.8,3.4,3.5,4.7l-2.4,1.4
					c-0.6-1.3-2.1-3.4-3.3-4.9L664.2,555.4z M681.5,559.1c0,1.6-0.4,2.4-1.3,2.9c-1,0.5-2.5,0.6-4.9,0.5c-0.1-0.8-0.5-2.1-0.9-2.8
					c1.5,0.1,3.1,0,3.5,0c0.5,0,0.7-0.2,0.7-0.7v-7h-5.9c-0.4,3.8-1.1,7.9-2.9,10.8c-0.5-0.5-1.7-1.4-2.4-1.7
					c2.5-4.2,2.8-10.2,2.8-14.8v-11.5h11.3L681.5,559.1L681.5,559.1z M678.6,549.3v-4.7H673v1.7c0,0.9,0,2-0.1,3H678.6z M673,537.5
					v4.5h5.6v-4.5H673z"/>
				<path class="st5" d="M695.4,533.5h2.9v14.8c0,4.8-1.4,11.2-9,14.8c-0.5-0.7-1.4-1.7-2.1-2.3c3.6-1.4,5.7-3.8,6.9-6.3
					c-2.7,0.5-5.2,1-7.4,1.3l-0.6-2.9c2.3-0.3,5.5-0.8,8.9-1.3c0.3-1.2,0.4-2.4,0.4-3.3v-0.5h-7.9V545h7.9v-4.4h-8.3v-2.8h8.3
					L695.4,533.5L695.4,533.5z M715.2,555.1h-9.5v7.5h-3v-29.2h3v4.4h8.9v2.8h-8.9v4.4h8.2v2.7h-8.2v4.5h9.5V555.1z"/>
				<path class="st5" d="M729.1,549.8c-1,0.3-2.1,0.6-3.1,0.9v8.4c0,1.5-0.3,2.3-1.2,2.7c-0.9,0.5-2.3,0.5-4.5,0.5
					c-0.1-0.7-0.5-2-0.9-2.7c1.4,0,2.8,0,3.1,0c0.4,0,0.6-0.2,0.6-0.6v-7.5l-3.7,1l-0.8-2.8c1.3-0.3,2.8-0.7,4.5-1.1v-6.3H719v-2.8
					h4.1v-6.2h2.9v6.2h3.7v2.8H726v5.6l2.7-0.7L729.1,549.8z M746,547.9c-1.2,3.9-3.3,6.9-5.9,9.2c2.3,1.3,5,2.3,8,2.9
					c-0.6,0.6-1.4,1.9-1.9,2.8c-3.3-0.8-6.2-2-8.6-3.7c-2.7,1.7-5.8,2.9-9,3.7c-0.3-0.8-0.9-2.1-1.5-2.7c2.9-0.6,5.7-1.5,8.1-2.9
					c-2-1.9-3.6-4.2-4.9-6.8l0.8-0.3h-1.6v-2.8h14.1l0.5-0.1L746,547.9z M735.2,537.9c0,3-0.9,6.5-5,8.6c-0.4-0.6-1.4-1.8-1.9-2.2
					c3.6-1.8,4.1-4.3,4.1-6.5v-3.5H743v7.2c0,0.9,0.1,1.2,0.6,1.2h2.1c0.5,0,1.2-0.1,1.7-0.2c0,0.8,0.1,1.8,0.2,2.5
					c-0.4,0.2-1.2,0.2-1.9,0.2h-2.4c-2.6,0-3.2-1.1-3.2-3.8V537h-4.9L735.2,537.9L735.2,537.9z M733.2,549.9
					c1.1,2.1,2.6,3.9,4.5,5.4c1.8-1.5,3.3-3.3,4.4-5.4H733.2z"/>
				<path class="st5" d="M771.5,538.1c0,0.2,0,0.5-0.1,0.8c1.7,1.8,5.2,2.8,9.4,3.1c-0.6,0.6-1.3,1.7-1.6,2.4
					c-3.6-0.5-6.6-1.7-8.6-3.5c-1.2,1.5-3.7,2.8-9.2,3.6c-0.3-0.7-1-1.7-1.5-2.2h-8.1V540h9.3v2.1c6.9-0.9,7.7-2.7,7.7-4.1v-0.4
					h-2.7c-0.7,1.2-1.5,2.2-2.3,3c-0.5-0.4-1.6-1.2-2.2-1.5c1.7-1.4,3-3.6,3.7-5.9l2.7,0.6c-0.2,0.5-0.4,1.1-0.6,1.6h10l0.4-0.1
					l2,0.7c-0.8,1.7-1.9,3.6-2.8,4.7l-2.3-0.8c0.4-0.6,0.9-1.4,1.3-2.2h-4.4v0.4H771.5z M771.3,557.5c3.3,1.1,6.8,2.4,9,3.5
					l-2.7,1.6c-2-1.1-5.3-2.5-8.6-3.6l1.9-1.5h-9.6l2.7,1.2c-2.6,1.6-6.6,3.1-9.8,4c-0.5-0.6-1.6-1.7-2.2-2.2c3.3-0.6,7-1.7,9.2-3
					H756v-12.9h20.9v12.9H771.3z M760.4,537.3h-7.8V535h7.8V537.3z M758.9,548.3h15v-1.8h-15V548.3z M758.9,551.9h15v-1.8h-15V551.9
					z M758.9,555.6h15v-1.9h-15V555.6z"/>
				<path class="st5" d="M789.5,538c-0.9,1.4-2,2.7-3.1,3.7c-0.4-0.5-1.4-1.6-2-2c2-1.6,3.8-4.1,4.8-6.6l2.7,0.8
					c-0.3,0.6-0.5,1.1-0.8,1.7h7.7v2.5h-5.3c1,0.8,2,1.8,2.6,2.5l-1.9,1.7c-0.6-0.9-2.1-2.3-3.2-3.3l1.1-1L789.5,538L789.5,538z
					 M806.9,552.5h6.2v2.4h-6.2v4.8c0,1.5-0.4,2.2-1.6,2.5c-1.2,0.4-3.1,0.4-5.8,0.4c-0.1-0.8-0.5-1.7-0.8-2.4
					c1.9,0.1,3.9,0.1,4.4,0c0.5,0,0.7-0.2,0.7-0.6V555h-11.5c1.7,1.3,4,3.3,5.1,4.5l-2.2,1.8c-1.1-1.2-3.3-3.4-5.1-4.8l2-1.4h-7.2
					v-2.4h18.9v-2h3.1L806.9,552.5L806.9,552.5z M813.6,535.4v2.6h-6.5c1,0.9,2,2,2.6,2.8l-2,1.7c-0.6-1-1.9-2.4-3-3.4l1.3-1.1h-2.8
					c-0.8,1.5-1.7,2.8-2.6,3.8l-0.1-0.1v0.9H812v2.5h-11.5v2.4h9.6v2.3h-22.5v-2.3h9.8v-2.4H786v-2.5h11.4v-1.8h2
					c-0.4-0.3-0.8-0.6-1.1-0.8c1.7-1.7,3.2-4.4,4-7l2.7,0.6c-0.2,0.6-0.4,1.2-0.6,1.8H813.6z"/>
				<path class="st5" d="M827.8,552.5c-0.1-0.5-0.2-1.1-0.4-1.7c-7.1,1.2-8.2,1.4-8.9,1.8c-0.1-0.6-0.6-2-1-2.7
					c0.8-0.2,1.5-0.9,2.5-2.1c0.5-0.5,1.4-1.6,2.4-3.1c-3,0.4-3.7,0.5-4.2,0.8c-0.2-0.6-0.6-2-0.9-2.7c0.6-0.2,1.2-0.8,1.8-1.7
					c0.7-0.9,2.8-4.4,4-7.8l2.8,1.1c-1.2,2.8-2.9,5.7-4.6,8l2.9-0.3c0.9-1.3,1.7-2.8,2.4-4.2l2.5,1.6c-2,3.5-4.4,7-6.9,9.8l4.6-0.6
					c-0.4-0.9-0.7-1.8-1.1-2.6l2.1-0.7c1,2,2,4.7,2.3,6.4L827.8,552.5z M821.2,554.3c-0.3,2.8-0.9,5.8-1.5,7.7
					c-0.5-0.3-1.6-0.6-2.2-0.8c0.7-1.9,1.2-4.7,1.4-7.3L821.2,554.3z M824.4,553.7c0.4,2,0.7,4.6,0.8,6.3l-2.2,0.6
					c0-1.8-0.4-4.4-0.7-6.4L824.4,553.7z M845.8,544.3c-0.8,4.7-2.3,8.6-4.4,11.7c1.5,1.7,3.2,3.1,5.3,4c-0.7,0.6-1.6,1.7-2,2.5
					c-2-1-3.7-2.4-5.1-4.1c-1.5,1.8-3.3,3.2-5.2,4.4c-0.4-0.7-1.2-1.8-1.9-2.3c2-1,3.7-2.6,5.3-4.5c-1.3-2.2-2.3-4.6-3.1-7.4
					c-0.6,5.6-1.8,10.3-4.4,14c-0.4-0.5-1.9-1.5-2.6-1.9c0.6-0.8,1.1-1.7,1.6-2.6l-2.1,0.7c-0.3-1.4-0.9-3.6-1.5-5.2l2-0.6
					c0.6,1.6,1.3,3.7,1.6,5.1c2.4-5,2.9-12.1,3-20.4h-2.9v-2.8h11.1l0.4-0.1l2,0.3c-0.4,2.7-0.9,6-1.4,8.9h1.8l0.5-0.1L845.8,544.3z
					 M835.3,537.5c0,2.2-0.1,4.2-0.2,6.2h3.7c0.4-2,0.8-4.3,1.1-6.2H835.3z M836.7,546.4c0.7,2.5,1.6,4.9,2.8,7
					c1.2-2.1,2.2-4.4,2.8-7H836.7z"/>
				<path class="st5" d="M859.5,534.1c-0.8,2.1-1.8,4.3-2.9,6.3v22.1h-2.9V545c-0.9,1.2-1.9,2.4-2.9,3.4c-0.3-0.7-1.1-2.3-1.6-3
					c3-2.9,5.9-7.5,7.6-12.1L859.5,534.1z M867.8,558.5c-1.9,1.6-4.9,3.2-7.4,4.2c-0.5-0.5-1.6-1.6-2.3-2c2.5-0.7,5.3-1.9,6.9-3.2
					L867.8,558.5z M867.4,536.9h-7.5v-2h7.5v-1.7h3v1.7h7.8v2h-7.8v1.3h7v1.9h-7v1.4h8.8v2h-20.6v-2h8.8v-1.4h-6.7v-1.9h6.7V536.9z
					 M860.9,557v-12h16.3v12H860.9z M863.8,548.5h10.4v-1.6h-10.4V548.5z M863.8,551.8h10.4v-1.7h-10.4V551.8z M863.8,555.1h10.4
					v-1.7h-10.4V555.1z M873.2,557.2c2.2,1.2,4.7,2.8,6.1,4l-2.7,1.6c-1.3-1.2-3.9-3.1-6-4.4L873.2,557.2z"/>
				<path class="st5" d="M893.1,549.8c-1,0.3-2.1,0.6-3.1,0.9v8.4c0,1.5-0.3,2.3-1.2,2.7c-0.9,0.5-2.3,0.5-4.5,0.5
					c-0.1-0.7-0.5-2-0.9-2.7c1.4,0,2.8,0,3.1,0c0.4,0,0.6-0.2,0.6-0.6v-7.5l-3.7,1l-0.8-2.8c1.3-0.3,2.8-0.7,4.5-1.1v-6.3H883v-2.8
					h4.1v-6.2h2.9v6.2h3.7v2.8H890v5.6l2.7-0.7L893.1,549.8z M910,547.9c-1.2,3.9-3.3,6.9-5.9,9.2c2.3,1.3,5,2.3,8,2.9
					c-0.6,0.6-1.4,1.9-1.9,2.8c-3.3-0.8-6.2-2-8.6-3.7c-2.7,1.7-5.8,2.9-9,3.7c-0.3-0.8-0.9-2.1-1.5-2.7c2.9-0.6,5.7-1.5,8.1-2.9
					c-2-1.9-3.6-4.2-4.9-6.8l0.8-0.3h-1.6v-2.8h14.1l0.5-0.1L910,547.9z M899.2,537.9c0,3-0.9,6.5-5,8.6c-0.4-0.6-1.4-1.8-1.9-2.2
					c3.6-1.8,4.1-4.3,4.1-6.5v-3.5H907v7.2c0,0.9,0.1,1.2,0.6,1.2h2.1c0.5,0,1.2-0.1,1.7-0.2c0,0.8,0.1,1.8,0.2,2.5
					c-0.4,0.2-1.2,0.2-1.9,0.2h-2.4c-2.6,0-3.2-1.1-3.2-3.8V537h-4.9L899.2,537.9L899.2,537.9z M897.2,549.9
					c1.1,2.1,2.6,3.9,4.5,5.4c1.8-1.5,3.3-3.3,4.4-5.4H897.2z"/>
				<path class="st5" d="M935.5,538.1c0,0.2,0,0.5-0.1,0.8c1.7,1.8,5.2,2.8,9.4,3.1c-0.6,0.6-1.3,1.7-1.6,2.4
					c-3.6-0.5-6.6-1.7-8.6-3.5c-1.2,1.5-3.7,2.8-9.2,3.6c-0.3-0.7-1-1.7-1.5-2.2h-8.1V540h9.3v2.1c6.9-0.9,7.7-2.7,7.7-4.1v-0.4
					h-2.7c-0.7,1.2-1.5,2.2-2.3,3c-0.5-0.4-1.6-1.2-2.2-1.5c1.7-1.4,3-3.6,3.7-5.9l2.7,0.6c-0.2,0.5-0.4,1.1-0.6,1.6h10l0.4-0.1
					l2,0.7c-0.8,1.7-1.9,3.6-2.8,4.7l-2.3-0.8c0.4-0.6,0.9-1.4,1.3-2.2h-4.4v0.4H935.5z M935.3,557.5c3.3,1.1,6.8,2.4,9,3.5
					l-2.7,1.6c-2-1.1-5.3-2.5-8.6-3.6l1.9-1.5h-9.6l2.7,1.2c-2.6,1.6-6.6,3.1-9.8,4c-0.5-0.6-1.6-1.7-2.2-2.2c3.3-0.6,7-1.7,9.2-3
					H920v-12.9h20.9v12.9H935.3z M924.4,537.3h-7.8V535h7.8V537.3z M922.9,548.3h15v-1.8h-15V548.3z M922.9,551.9h15v-1.8h-15V551.9
					z M922.9,555.6h15v-1.9h-15V555.6z"/>
				<path class="st5" d="M964.8,552.5c2.6,2.6,7.5,5.3,13.1,6.4c-0.6,0.6-1.5,1.9-1.9,2.6c-4.5-1.2-8.5-3.5-11.2-5.9v7h-3.2v-7.1
					c-3,2.8-7.1,5-11.3,6.1c-0.4-0.7-1.2-1.9-1.9-2.5c5.2-1.2,10.4-3.8,13.2-7.1v-2.5h-7.1v5.9h-3.1V547h10.2v-2h-12.4v-2.6h12.4
					v-1.9h2.6c-0.5-0.5-1.4-1.2-2-1.5c1.7-1.4,3.2-3.6,4-6l2.7,0.7c-0.2,0.6-0.4,1.1-0.7,1.7h9.2v2.3h-6.3c1,0.8,2.1,1.8,2.8,2.5
					l-2,1.8c-0.7-0.9-2.1-2.2-3.3-3.1l1.4-1.1h-3c-0.7,1.1-1.5,2-2.3,2.8h0.1v1.9h11.9v2.6h-11.9v2.1H975v5.6c0,1.3-0.3,2-1.2,2.3
					c-1,0.4-2.3,0.4-4.1,0.4c-0.2-0.8-0.7-1.7-1-2.4c1.2,0.1,2.5,0.1,2.8,0c0.4,0,0.5-0.1,0.5-0.4v-3.1h-7.1v2.9H964.8z
					 M953.8,537.7c-1,1.6-2.1,3-3.3,4.1c-0.4-0.5-1.4-1.5-2-2c1.9-1.7,3.7-4.3,4.7-6.9l2.7,0.8c-0.2,0.5-0.4,1.1-0.7,1.6h7.6v2.3
					h-5.4c1,0.8,2,1.9,2.6,2.5l-1.9,1.7c-0.6-0.9-2-2.2-3.1-3.2l1.2-1h-2.4V537.7z"/>
				<path class="st5" d="M1010,537.5c-1.2,3.1-3.2,5.7-5.6,7.9c1.9,1.3,4.1,2.4,6.5,3c-0.4,0.7-0.7,2.1-0.8,2.9
					c-0.5-0.1-0.9-0.3-1.4-0.5v11.5h-2.7v-1.6h-7.5v1.6h-2.6v-11.7c-0.6,0.3-1.3,0.5-1.9,0.7c-0.2-0.7-0.7-2-1.1-2.7v8.4h-8.4v2.2
					h-2.3v-23.7h10.7v13c2.6-0.8,5.2-1.9,7.4-3.4c-1.1-1.2-2-2.4-2.8-3.7c-0.8,1.1-1.8,2.1-2.7,2.9c-0.3-0.5-1.2-1.7-1.7-2.3
					c2.5-2.1,4.8-5.5,6.2-9l2.5,0.7c-0.3,0.9-0.7,1.8-1.2,2.7h7.2l0.6-0.1L1010,537.5z M984.5,538.2v6.7h2.1v-6.7H984.5z
					 M984.5,554.5h2.1v-7.3h-2.1V554.5z M990.6,538.2h-2v6.7h2V538.2z M990.6,554.5v-7.3h-2v7.3H990.6z M1008.1,550.6
					c-2.1-0.9-4.1-2-5.8-3.4c-1.9,1.4-4,2.5-6.1,3.4H1008.1z M1006,558.2v-5h-7.5v5H1006z M999.1,539.2c0.8,1.6,1.9,3.1,3.3,4.5
					c1.5-1.3,2.8-2.8,3.8-4.5H999.1z"/>
			</g>
			<path id="ed0ihh3a669128" class="st5" d="M626.2,603.8c-0.9,2.3-2.1,4.8-3.2,6.4c-0.5-0.4-1.4-1.1-2.1-1.4c1.3-1.4,2.3-3.8,3-5.7
				L626.2,603.8z M630.3,601.7v10.9h-2.9v-10.9h-6.3v-2.5h6.3v-2.9H621v-2.5h3.6c-0.2-1.1-0.5-2.7-1.1-4.1l2.5-0.5
				c0.5,1.3,1.1,2.9,1.3,3.9l-2.3,0.7h5c0.5-1.4,1.3-3.4,1.6-4.7l2.7,0.5c-0.5,1.4-1.1,2.9-1.6,4.1h3.8v2.5h-5.9v2.9h5.5v2.5
				L630.3,601.7L630.3,601.7z M635.9,589h-14.1v-2.5h5.9c-0.4-0.9-0.7-2-1.1-2.7l3-0.7c0.5,1.1,1.3,2.5,1.6,3.6h4.8v2.3L635.9,589
				L635.9,589z M633.5,602.7c1.1,1.4,2.1,3.6,2.7,4.8l-2.1,1.3c-0.5-1.4-1.6-3.4-2.5-5L633.5,602.7z M650.4,596.7h-3.2v15.9h-2.9
				v-15.9h-3.8v0.7c0,4.7-0.4,11.1-3.2,15.2c-0.5-0.5-1.6-1.4-2.3-1.8c2.5-3.8,2.7-9.1,2.7-13.4v-11.1c3.6-0.5,7.5-1.6,9.8-2.7
				l2.3,2.1c-2.7,1.1-6.1,1.8-9.5,2.3v5.7h10v3H650.4z"/>
			<path id="ed0ihh3a669129" class="st5" d="M683.7,602.4v2.7h-29v-2.7h2.5l-0.5-17c1.8-0.5,3.9-1.3,5.4-2l1.4,2.5
				c-1.3,0.5-2.7,0.9-4.1,1.3l0.2,3.4h3.2v2.5h-3.2l0.2,3.4h3.2v2.5h-3l0.2,3.4h3.8v-17.5h11.3v17.7h3.8c0-1.1,0.2-2.1,0.2-3.4h-3.2
				v-2.5h3.4c0-1.1,0-2.3,0.2-3.4h-3.2v-2.5h3.2c0-1.3,0-2.5,0-3.8H676v-2.5h6.1c0,5.7-0.4,12.9-0.5,17.9L683.7,602.4L683.7,602.4z
				 M666.3,607.4c-2.7,2-6.6,3.9-9.7,5.4c-0.4-0.5-1.1-1.6-1.8-2.3c3-1.3,7-3.2,8.9-5L666.3,607.4z M665.8,602.4h7V587h-7V602.4z
				 M671.7,589.1v2h-5.2v-2H671.7z M666.8,592.9h4.7v7.3h-4.7V592.9z M668.3,598.4h2v-3.6h-2V598.4z M673.6,605.2
				c3.4,1.6,7,3.6,9.3,5l-2,2.3c-2.1-1.4-5.7-3.6-8.9-5.2L673.6,605.2z"/>
			<path id="ed0ihh3a669130" class="st5" d="M704.2,590.7v3.9h10.4v11.1c0,1.6-0.4,2.5-1.4,2.9c-1.3,0.5-3,0.5-5.5,0.5
				c-0.2-0.9-0.5-2.1-1.1-2.9c2,0,3.9,0,4.3,0c0.5,0,0.7-0.2,0.7-0.5v-8.1h-7.3v15H701v-15h-6.8v11.6h-3v-14.5h9.8v-3.9h-12.7v-2.9
				h13.4c-0.5-1.3-1.3-2.7-2-3.9l2.9-0.9c0.9,1.4,2,3.6,2.5,4.8h12.2v2.9L704.2,590.7L704.2,590.7L704.2,590.7z"/>
			<path id="ed0ihh3a669131" class="st5" d="M731.8,602.6c-3.2,1.6-6.6,3.4-9.5,4.7l-1.1-3c1.1-0.5,2.7-1.1,4.1-1.8v-9.7h-3.6v-2.9
				h3.6v-6.4h2.7v6.4h3.2v2.9H728v8.4c0.9-0.5,2-0.9,3-1.4L731.8,602.6z M738,598.8c-0.4,0.7-0.7,1.3-1.3,2h13.4c0,0,0,0.7,0,1.1
				c-0.5,6.4-1.1,8.9-1.8,9.8c-0.5,0.5-1.1,0.9-2,0.9c-0.7,0-2,0.2-3.2,0c0-0.7-0.4-1.8-0.7-2.5c1.1,0.2,2.1,0.2,2.5,0.2
				c0.5,0,0.7,0,1.1-0.4c0.5-0.5,0.9-2.3,1.3-7h-2c-1.3,3.8-3.8,7.7-6.4,9.8c-0.5-0.5-1.4-1.3-2.1-1.6c2.5-1.6,4.8-4.8,6.1-8.1h-2.5
				c-1.8,3.2-4.8,6.6-7.7,8.4c-0.5-0.5-1.3-1.4-2-1.8c2.5-1.4,5.2-3.9,7-6.6H735c-1.3,1.4-2.5,2.5-3.9,3.4c-0.4-0.5-1.4-1.4-2-1.8
				c2.5-1.4,4.7-3.4,6.1-5.9h-4.1v-2.5h20.2v2.5L738,598.8L738,598.8z M748.8,594.7h-14.9v-10.6h14.9V594.7z M745.9,586.3h-9.5v2.1
				h9.5V586.3z M745.9,590.4h-9.5v2.1h9.5V590.4z"/>
			<path id="ed0ihh3a669132" class="st5" d="M764.5,584.1c-0.9,2.1-1.8,4.3-3,6.3v22.4h-2.9V595c-0.9,1.3-2,2.5-2.9,3.4
				c-0.2-0.7-1.1-2.3-1.6-3c3-2.9,5.9-7.5,7.7-12.2L764.5,584.1z M772.8,608.6c-1.8,1.6-5,3.2-7.5,4.1c-0.5-0.5-1.6-1.6-2.3-2.1
				c2.5-0.7,5.4-2,7-3.2L772.8,608.6z M772.4,586.8h-7.5v-2h7.5v-1.6h3v1.6h7.9v2h-7.9v1.4h7v2h-7v1.4h8.9v2h-20.8v-2h8.9v-1.4h-6.8
				v-2h6.8L772.4,586.8L772.4,586.8z M766,607.2V595h16.3v12.2H766L766,607.2z M768.8,598.6h10.6V597h-10.6V598.6z M768.8,601.8
				h10.6v-1.6h-10.6V601.8z M768.8,605.2h10.6v-1.6h-10.6V605.2z M778.3,607.4c2.1,1.3,4.7,2.9,6.1,4.1l-2.7,1.6
				c-1.3-1.3-3.9-3-6.1-4.5L778.3,607.4z"/>
			<path id="ed0ihh3a669133" class="st5" d="M798.9,599.9c-1.1,0.4-2.1,0.7-3,0.9v8.4c0,1.6-0.4,2.3-1.3,2.7
				c-0.9,0.5-2.3,0.5-4.7,0.5c-0.2-0.7-0.5-2-0.9-2.7c1.4,0,2.7,0,3.2,0s0.7-0.2,0.7-0.7v-7.5l-3.8,1.1l-0.9-2.9
				c1.3-0.4,2.9-0.7,4.5-1.1v-6.4h-4.1v-2.7h4.1v-6.3h2.9v6.3h3.8v2.7h-3.8v5.5l2.7-0.7L798.9,599.9z M815.9,597.9
				c-1.3,3.9-3.4,7-5.9,9.3c2.3,1.3,5,2.3,8.1,2.9c-0.7,0.7-1.4,2-2,2.7c-3.4-0.9-6.3-2.1-8.6-3.8c-2.7,1.8-5.7,2.9-9.1,3.8
				c-0.2-0.9-0.9-2.1-1.4-2.7c2.9-0.5,5.7-1.6,8.2-3c-2.1-2-3.8-4.3-5-6.8l0.9-0.4h-1.6V597h14.1l0.5-0.2L815.9,597.9z M805,587.9
				c0,3-0.9,6.4-5,8.6c-0.4-0.5-1.4-1.8-2-2.1c3.6-1.8,4.1-4.3,4.1-6.6v-3.4h10.6v7.2c0,0.9,0,1.3,0.5,1.3h2.1c0.5,0,1.3,0,1.6-0.2
				c0,0.7,0.2,1.8,0.2,2.5c-0.5,0.2-1.1,0.2-1.8,0.2h-2.5c-2.7,0-3.2-1.1-3.2-3.8V587h-5v0.9H805L805,587.9z M803,600
				c1.1,2.1,2.7,3.9,4.5,5.4c1.8-1.4,3.4-3.2,4.5-5.4H803z"/>
			<path id="ed0ihh3a669134" class="st5" d="M842,588.1c0,0.2,0,0.5,0,0.7c1.8,1.8,5.2,2.9,9.5,3c-0.5,0.5-1.3,1.6-1.6,2.5
				c-3.8-0.5-6.6-1.6-8.6-3.6c-1.1,1.4-3.8,2.9-9.3,3.6c-0.4-0.7-0.9-1.6-1.4-2.1h-8.2v-2.3h9.3v2.1c7-0.9,7.7-2.7,7.7-4.1v-0.4
				h-2.7c-0.7,1.1-1.4,2.1-2.3,3c-0.5-0.4-1.6-1.3-2.3-1.4c1.6-1.4,3-3.8,3.8-5.9l2.7,0.5c-0.2,0.5-0.4,1.1-0.5,1.6h10l0.4-0.2
				l2.1,0.7c-0.9,1.8-2,3.6-2.9,4.8l-2.3-0.9c0.4-0.5,0.9-1.4,1.4-2.1h-4.5v0.4L842,588.1L842,588.1z M841.8,607.6
				c3.4,1.1,7,2.5,9.1,3.6l-2.7,1.6c-2-1.1-5.4-2.5-8.6-3.6l1.8-1.4h-9.7l2.7,1.3c-2.7,1.6-6.6,3-9.8,4.1c-0.5-0.5-1.6-1.8-2.1-2.3
				c3.2-0.7,7-1.8,9.3-3h-5.2V595h20.9v12.9h-5.7V607.6z M830.7,587.2h-7.9v-2.3h7.9V587.2z M829.3,598.3h15v-1.8h-15V598.3z
				 M829.3,602h15v-1.8h-15V602z M829.3,605.6h15v-1.8h-15V605.6z"/>
			<path id="ed0ihh3a669135" class="st5" d="M872.1,602.6c2.7,2.7,7.5,5.4,13.2,6.4c-0.5,0.7-1.4,1.8-2,2.7
				c-4.7-1.1-8.6-3.6-11.3-5.9v7h-3.2v-7.2c-3,2.9-7.2,5-11.5,6.3c-0.4-0.7-1.3-2-1.8-2.5c5.4-1.1,10.6-3.8,13.2-7.2v-2.5h-7.2v5.9
				h-3.2v-8.4h10.4V595h-12.5v-2.7h12.5v-2h2.7c-0.5-0.5-1.4-1.3-2-1.6c1.8-1.4,3.2-3.8,3.9-5.9l2.7,0.7c-0.2,0.5-0.5,1.1-0.7,1.8
				h9.3v2.3h-6.3c1.1,0.7,2.1,1.8,2.9,2.5l-2,1.8c-0.7-0.9-2.1-2.1-3.2-3l1.4-1.1h-3c-0.7,1.1-1.4,2-2.3,2.9h0.2v2h12v2.7h-12v2.1
				h10.2v5.7c0,1.4-0.4,2-1.3,2.3c-1.1,0.4-2.3,0.4-4.1,0.4c-0.2-0.7-0.7-1.8-1.1-2.3c1.3,0,2.5,0,2.9,0s0.5-0.2,0.5-0.4v-3h-7.2
				v2.3L872.1,602.6L872.1,602.6z M860.8,587.7c-1.1,1.6-2.1,3-3.2,4.1c-0.4-0.5-1.4-1.4-2-2c2-1.8,3.8-4.3,4.7-7l2.7,0.7
				c-0.2,0.5-0.5,1.1-0.7,1.6h7.7v2.3h-5.4c0.9,0.9,2,1.8,2.5,2.5l-2,1.8c-0.7-0.9-2-2.3-3-3.2l1.3-1.1h-2.5L860.8,587.7
				L860.8,587.7z"/>
			<path id="ed0ihh3a669136" class="st5" d="M918.1,587.3c-1.3,3-3.2,5.7-5.5,8.1c2,1.3,4.1,2.3,6.4,3c-0.4,0.7-0.7,2.1-0.9,2.9
				c-0.5-0.2-0.9-0.4-1.4-0.5v11.6H914v-1.6h-7.5v1.6h-2.7v-11.8c-0.7,0.4-1.3,0.5-2,0.7c-0.2-0.7-0.7-2.1-1.1-2.7v8.4h-8.4v2.3H890
				v-23.8h10.7v13.1c2.7-0.7,5.2-2,7.3-3.4c-1.1-1.1-2-2.5-2.9-3.8c-0.9,1.1-1.8,2.1-2.7,3c-0.4-0.5-1.3-1.8-1.8-2.3
				c2.5-2.1,4.8-5.5,6.3-9.1l2.5,0.7c-0.4,0.9-0.7,1.8-1.3,2.7h7.3l0.5-0.2L918.1,587.3z M892.3,588.2v6.8h2.1v-6.8H892.3z
				 M892.3,604.5h2.1v-7.3h-2.1V604.5z M898.4,588.2h-2.1v6.8h2.1V588.2z M898.4,604.5v-7.3h-2.1v7.3H898.4z M916.1,600.6
				c-2.1-0.9-4.1-2.1-5.9-3.4c-2,1.4-3.9,2.5-6.1,3.4H916.1z M913.9,608.3v-5h-7.5v5H913.9z M907,589.1c0.9,1.6,2,3.2,3.2,4.5
				c1.4-1.3,2.9-2.9,3.8-4.5H907z"/>
			<path id="ed0ihh3a669137" class="st5" d="M626.2,653.9c-0.9,2.3-2.1,4.8-3.2,6.4c-0.5-0.4-1.4-1.1-2.1-1.4c1.3-1.4,2.3-3.8,3-5.7
				L626.2,653.9z M630.3,651.8v10.9h-2.9v-10.9h-6.3v-2.5h6.3v-2.9H621v-2.5h3.6c-0.2-1.1-0.5-2.7-1.1-4.1l2.5-0.5
				c0.5,1.3,1.1,2.9,1.3,3.9l-2.3,0.7h5c0.5-1.4,1.3-3.4,1.6-4.7l2.7,0.5c-0.5,1.4-1.1,2.9-1.6,4.1h3.8v2.5h-5.9v2.9h5.5v2.5
				L630.3,651.8L630.3,651.8z M635.9,639.1h-14.1v-2.5h5.9c-0.4-0.9-0.7-2-1.1-2.7l3-0.7c0.5,1.1,1.3,2.5,1.6,3.6h4.8v2.3
				L635.9,639.1L635.9,639.1z M633.5,652.8c1.1,1.4,2.1,3.6,2.7,4.8l-2.1,1.3c-0.5-1.4-1.6-3.4-2.5-5L633.5,652.8z M650.4,646.8
				h-3.2v15.9h-2.9v-15.9h-3.8v0.7c0,4.7-0.4,11.1-3.2,15.2c-0.5-0.5-1.6-1.4-2.3-1.8c2.5-3.8,2.7-9.1,2.7-13.4v-11.1
				c3.6-0.5,7.5-1.6,9.8-2.7l2.3,2.1c-2.7,1.1-6.1,1.8-9.5,2.3v5.7h10v3H650.4z"/>
			<path id="ed0ihh3a669138" class="st5" d="M683.7,652.5v2.7h-29v-2.7h2.5l-0.5-17c1.8-0.5,3.9-1.3,5.4-2l1.4,2.5
				c-1.3,0.5-2.7,0.9-4.1,1.3l0.2,3.4h3.2v2.5h-3.2l0.2,3.4h3.2v2.5h-3l0.2,3.4h3.8V635h11.3v17.7h3.8c0-1.1,0.2-2.1,0.2-3.4h-3.2
				v-2.5h3.4c0-1.1,0-2.3,0.2-3.4h-3.2v-2.5h3.2c0-1.3,0-2.5,0-3.8H676v-2.5h6.1c0,5.7-0.4,12.9-0.5,17.9L683.7,652.5L683.7,652.5z
				 M666.3,657.5c-2.7,2-6.6,3.9-9.7,5.4c-0.4-0.5-1.1-1.6-1.8-2.3c3-1.3,7-3.2,8.9-5L666.3,657.5z M665.8,652.5h7v-15.4h-7V652.5z
				 M671.7,639.2v2h-5.2v-2H671.7z M666.8,643h4.7v7.3h-4.7V643z M668.3,648.5h2V645h-2V648.5z M673.6,655.3c3.4,1.6,7,3.6,9.3,5
				l-2,2.3c-2.1-1.4-5.7-3.6-8.9-5.2L673.6,655.3z"/>
			<path id="ed0ihh3a669139" class="st5" d="M717.1,658.7v2.7h-28.8v-2.7h9.3v-5.2h-7v-11.1h7v-4.7H689V635h27.4v2.7h-8.9v4.5h7.3
				v11.1h-7.3v5.2h9.7v0.2H717.1z M700.5,650.9v7.9h4.1v-7.9h7.2V645h-7.2v-7.2h-4.1v7.2h-7v5.9H700.5z"/>
			<path id="ed0ihh3a669140" class="st5" d="M726.8,647.6c-1.1-0.9-3.6-2.3-5.4-3.2l1.8-2.1c1.8,0.9,4.1,2.1,5.4,3L726.8,647.6z
				 M721.9,660.9c1.3-2.5,3-6.6,4.3-10.2l2.5,1.6c-1.1,3.4-2.7,7.2-4.1,10.2L721.9,660.9z M727.8,639.2c-1.1-1.1-3.4-2.5-5.2-3.4
				l1.8-2.1c1.8,0.9,4.1,2.3,5.4,3.2L727.8,639.2z M737.7,643c0.9,2.1,1.8,5.2,2.3,7l-2.1,0.9c-0.4-1.8-1.1-4.3-2-6.6v0.7
				c0,6.3-0.5,12.7-4.5,17.9c-0.5-0.5-1.8-1.4-2.5-1.8c2.5-3.2,3.6-6.8,3.9-10.7l-2,0.7c-0.2-2.1-1.1-5.2-2.1-7.5l2.1-0.7
				c0.9,2,1.6,4.3,2,6.3c0-1.4,0.2-2.7,0.2-4.1V634h2.9v9.5L737.7,643z M749.7,634v28.8h-2.9v-12.7l-1.6,0.7
				c-0.4-1.6-1.4-4.1-2.5-6.1v17.4H740v-27.6h2.7v8.4l1.3-0.5c1.1,1.8,2.1,3.9,2.7,5.7V634H749.7z"/>
			<path id="ed0ihh3a669141" class="st5" d="M764.5,634.2c-0.9,2.1-1.8,4.3-3,6.3v22.4h-2.9v-17.7c-0.9,1.3-2,2.5-2.9,3.4
				c-0.2-0.7-1.1-2.3-1.6-3c3-2.9,5.9-7.5,7.7-12.2L764.5,634.2z M772.8,658.7c-1.8,1.6-5,3.2-7.5,4.1c-0.5-0.5-1.6-1.6-2.3-2.1
				c2.5-0.7,5.4-2,7-3.2L772.8,658.7z M772.4,636.9h-7.5v-2h7.5v-1.6h3v1.6h7.9v2h-7.9v1.4h7v2h-7v1.4h8.9v2h-20.8v-2h8.9v-1.4h-6.8
				v-2h6.8L772.4,636.9L772.4,636.9z M766,657.3v-12.2h16.3v12.2H766z M768.8,648.7h10.6v-1.6h-10.6V648.7z M768.8,651.9h10.6v-1.6
				h-10.6V651.9z M768.8,655.3h10.6v-1.6h-10.6V655.3z M778.3,657.5c2.1,1.3,4.7,2.9,6.1,4.1l-2.7,1.6c-1.3-1.3-3.9-3-6.1-4.5
				L778.3,657.5z"/>
			<path id="ed0ihh3a669142" class="st5" d="M809.8,646.8c2.1,2.1,5.2,3.8,8.6,4.7c-0.7,0.5-1.4,1.8-2,2.5c-1.6-0.5-3-1.1-4.5-2
				c-0.4,6.1-0.9,8.6-1.8,9.7c-0.5,0.7-1.3,0.9-2.3,1.1c-0.9,0.2-2.5,0.2-4.3,0c0-0.9-0.4-2.1-0.9-2.9c1.6,0.2,3,0.2,3.8,0.2
				c0.5,0,0.9,0,1.1-0.4c0.5-0.5,0.9-2.3,1.3-6.6h-7.2c-0.9,4.7-3,8.1-9.8,9.8c-0.4-0.7-1.1-2-1.6-2.5c5.9-1.4,7.7-3.8,8.4-7.3h-4.5
				v-1.3c-1.3,0.7-2.5,1.4-3.9,2.1c-0.4-0.7-1.3-2-1.8-2.5c2.9-1.3,5.4-2.9,7.3-4.7h-6.3V644h8.8c0.7-0.9,1.3-1.8,1.8-2.7h-8.6v-2.7
				h5c-0.5-1.1-1.4-2.5-2.3-3.8l2.3-1.1c1.1,1.3,2.1,2.9,2.7,3.9l-1.6,0.9h3.8c0.7-1.8,1.1-3.8,1.4-5.5l3.2,0.4
				c-0.4,1.8-0.7,3.4-1.3,5.2h3.4c0.9-1.4,2.1-3.2,2.7-4.7l2.7,0.9c-0.9,1.4-1.8,2.7-2.7,3.8h4.7v2.7H803c-0.5,0.9-0.9,1.8-1.4,2.7
				h15.7v2.7L809.8,646.8L809.8,646.8z M809.6,650.3c-1.3-1.1-2.5-2.1-3.4-3.4h-6.6c-1.1,1.3-2.3,2.5-3.6,3.4H809.6z"/>
			<path id="ed0ihh3a669143" class="st5" d="M832.3,650c-1.1,0.4-2.1,0.7-3,0.9v8.4c0,1.6-0.4,2.3-1.3,2.7c-0.9,0.5-2.3,0.5-4.7,0.5
				c-0.2-0.7-0.5-2-0.9-2.7c1.4,0,2.7,0,3.2,0s0.7-0.2,0.7-0.7v-7.5l-3.8,1.1l-0.9-2.9c1.3-0.4,2.9-0.7,4.5-1.1v-6.4H822v-2.7h4.1
				v-6.3h2.9v6.3h3.8v2.7H829v5.5l2.7-0.7L832.3,650z M849.3,648c-1.3,3.9-3.4,7-5.9,9.3c2.3,1.3,5,2.3,8.1,2.9
				c-0.7,0.7-1.4,2-2,2.7c-3.4-0.9-6.3-2.1-8.6-3.8c-2.7,1.8-5.7,2.9-9.1,3.8c-0.2-0.9-0.9-2.1-1.4-2.7c2.9-0.5,5.7-1.6,8.2-3
				c-2.1-2-3.8-4.3-5-6.8l0.9-0.4h-1.6v-2.9H847l0.5-0.2L849.3,648z M838.6,638c0,3-0.9,6.4-5,8.6c-0.4-0.5-1.4-1.8-2-2.1
				c3.6-1.8,4.1-4.3,4.1-6.6v-3.4h10.6v7.2c0,0.9,0,1.3,0.5,1.3h2.1c0.5,0,1.3,0,1.6-0.2c0,0.7,0.2,1.8,0.2,2.5
				c-0.5,0.2-1.1,0.2-1.8,0.2h-2.5c-2.7,0-3.2-1.1-3.2-3.8v-4.5h-5v0.9h0.4V638z M836.5,650.2c1.1,2.1,2.7,3.9,4.5,5.4
				c1.8-1.4,3.4-3.2,4.5-5.4H836.5z"/>
			<path id="ed0ihh3a669144" class="st5" d="M875.5,638.2c0,0.2,0,0.5,0,0.7c1.8,1.8,5.2,2.9,9.5,3c-0.5,0.5-1.3,1.6-1.6,2.5
				c-3.8-0.5-6.6-1.6-8.6-3.6c-1.1,1.4-3.8,2.9-9.3,3.6c-0.4-0.7-0.9-1.6-1.4-2.1h-8.2V640h9.3v2.1c7-0.9,7.7-2.7,7.7-4.1v-0.4h-2.7
				c-0.7,1.1-1.4,2.1-2.3,3c-0.5-0.4-1.6-1.3-2.3-1.4c1.6-1.4,3-3.8,3.8-5.9l2.7,0.5c-0.2,0.5-0.4,1.1-0.5,1.6h10l0.4-0.2l2.1,0.7
				c-0.9,1.8-2,3.6-2.9,4.8l-2.3-0.9c0.4-0.5,0.9-1.4,1.4-2.1h-4.5v0.4L875.5,638.2L875.5,638.2z M875.3,657.7
				c3.4,1.1,7,2.5,9.1,3.6l-2.7,1.6c-2-1.1-5.4-2.5-8.6-3.6l1.8-1.4h-9.7l2.7,1.3c-2.7,1.6-6.6,3-9.8,4.1c-0.5-0.5-1.6-1.8-2.1-2.3
				c3.2-0.7,7-1.8,9.3-3h-5.2v-13H881v12.9h-5.7V657.7z M864.2,637.3h-7.9V635h7.9V637.3z M862.8,648.4h15v-1.8h-15V648.4z
				 M862.8,652.1h15v-1.8h-15V652.1z M862.8,655.7h15v-1.8h-15V655.7z"/>
			<path id="ed0ihh3a669145" class="st5" d="M905.5,652.7c2.7,2.7,7.5,5.4,13.2,6.4c-0.5,0.7-1.4,1.8-2,2.7
				c-4.7-1.1-8.6-3.6-11.3-5.9v7h-3.2v-7.2c-3,2.9-7.2,5-11.5,6.3c-0.4-0.7-1.3-2-1.8-2.5c5.4-1.1,10.6-3.8,13.2-7.2v-2.5h-7.2v5.9
				h-3.2v-8.4h10.4v-2.1h-12.5v-2.7h12.5v-2h2.7c-0.5-0.5-1.4-1.3-2-1.6c1.8-1.4,3.2-3.8,3.9-5.9l2.7,0.7c-0.2,0.5-0.5,1.1-0.7,1.8
				h9.3v2.3h-6c1.1,0.7,2.1,1.8,2.9,2.5l-2,1.8c-0.7-0.9-2.1-2.1-3.2-3l1.4-1.1h-3c-0.7,1.1-1.4,2-2.3,2.9h0.2v2h12v2.7h-12v2.1
				h10.2v5.7c0,1.4-0.4,2-1.3,2.3c-1.1,0.4-2.3,0.4-4.1,0.4c-0.2-0.7-0.7-1.8-1.1-2.3c1.3,0,2.5,0,2.9,0s0.5-0.2,0.5-0.4v-3h-7.2
				v2.3H905.5z M894.4,637.8c-1.1,1.6-2.1,3-3.2,4.1c-0.4-0.5-1.4-1.4-2-2c2-1.8,3.8-4.3,4.7-7l2.7,0.7c-0.2,0.5-0.5,1.1-0.7,1.6
				h7.7v2.3h-5.4c0.9,0.9,2,1.8,2.5,2.5l-2,1.8c-0.7-0.9-2-2.3-3-3.2l1.3-1.1h-2.5L894.4,637.8L894.4,637.8z"/>
			<path id="ed0ihh3a669146" class="st5" d="M951.5,637.4c-1.3,3-3.2,5.7-5.5,8.1c2,1.3,4.1,2.3,6.4,3c-0.4,0.7-0.7,2.1-0.9,2.9
				c-0.5-0.2-0.9-0.4-1.4-0.5v11.6h-2.7v-1.6h-7.5v1.6h-2.7v-11.8c-0.7,0.4-1.3,0.5-2,0.7c-0.2-0.7-0.7-2.1-1.1-2.7v8.4h-8.4v2.3
				h-2.3v-23.8h10.7v13.1c2.7-0.7,5.2-2,7.3-3.4c-1.1-1.1-2-2.5-2.9-3.8c-0.9,1.1-1.8,2.1-2.7,3c-0.4-0.5-1.3-1.8-1.8-2.3
				c2.5-2.1,4.8-5.5,6.3-9.1l2.5,0.7c-0.4,0.9-0.7,1.8-1.3,2.7h7.3l0.5-0.2L951.5,637.4z M925.8,638.3v6.8h2.1v-6.8H925.8z
				 M925.8,654.6h2.1v-7.3h-2.1V654.6z M932,638.3h-2.1v6.8h2.1V638.3z M932,654.6v-7.3h-2.1v7.3H932z M949.6,650.7
				c-2.1-0.9-4.1-2.1-5.9-3.4c-2,1.4-3.9,2.5-6.1,3.4H949.6z M947.4,658.4v-5h-7.5v5H947.4z M940.4,639.2c0.9,1.6,2,3.2,3.2,4.5
				c1.4-1.3,2.9-2.9,3.8-4.5H940.4z"/>
			<path id="ed0ihh3a669147" class="st5" d="M636.4,701.9c-0.2,0.7-0.2,1.4-0.4,2.1h10.7c0,0,0,0.7,0,1.1c-0.4,4.3-0.9,6.1-1.6,7
				c-0.5,0.5-1.3,0.7-2.3,0.9c-0.9,0.2-2.5,0-4.1,0c0-0.7-0.4-1.8-0.9-2.5c1.6,0.2,3,0.2,3.6,0.2s0.9,0,1.1-0.2
				c0.4-0.4,0.7-1.6,1.1-3.9h-8.4c-1.3,3-3.8,5.2-8.4,6.6c-0.2-0.7-1.1-1.8-1.6-2.3c6.1-1.6,7.5-4.7,8.2-8.9h-6.3
				c-0.5,4.1-1.6,8.2-4.1,11.5c-0.4-0.5-1.6-1.8-2.1-2.1c3.4-4.3,3.8-10.4,3.8-15v-10.2l0,0c7.2-0.4,15.7-1.3,20.6-2.3l2.3,2.3
				c-5.4,1.3-12.9,2-19.9,2.3v1.4h20.6v7.3h-20.6c0,0.9,0,1.8-0.2,2.7h9.3c-0.4-0.7-0.7-1.4-1.1-2l2.9-0.7c0.5,0.7,1.1,1.8,1.4,2.7
				h10.2v2.3h-13.8V701.9L636.4,701.9z M627.5,691.8v2.7H645v-2.7H627.5z"/>
			<path id="ed0ihh3a669148" class="st5" d="M660.4,689.5c-1.3,0.9-2.7,1.8-3.9,2.5c-0.5-0.5-1.4-1.6-2.1-2.1
				c3.4-1.4,7.2-3.9,9.3-6.4l2.7,1.1c-0.9,1.1-1.8,2.1-3,3v6.6h-2.9L660.4,689.5L660.4,689.5z M666.8,709c-2.7,1.6-6.6,3-9.8,3.9
				c-0.5-0.5-1.6-1.8-2.3-2.1c3.4-0.7,7.2-1.8,9.3-3L666.8,709z M659,694.9h21.1v12.9H659V694.9z M661.8,698.5H677v-1.8h-15.2V698.5
				z M661.8,702.2H677v-1.8h-15.2V702.2z M661.8,705.8H677V704h-15.2V705.8z M669.3,687.2c-0.5-1.1-0.9-2.5-1.1-3.8h2.7
				c0.2,1.3,0.5,2.5,1.3,3.6l6.3-0.4c-1.3-0.7-3.4-1.4-5-1.8l1.4-1.4c1.8,0.4,4.3,1.1,5.5,1.8l-1.3,1.4l3.4-0.2l0.2,2.3l-9.1,0.5
				c1.8,1.8,4.1,2.9,5.9,2.9c0.9,0,1.1-0.5,1.3-2.3c0.5,0.5,1.6,0.9,2.3,1.1c-0.4,3.2-1.4,3.9-3.6,3.9c-3.4,0-7-2-9.3-5.2l-6.1,0.4
				l-0.2-2.3L669.3,687.2z M674,707.9c3.4,1.1,7.3,2.7,9.7,3.8l-3.4,1.4c-2-1.1-5.4-2.5-8.6-3.6L674,707.9z"/>
			<path id="ed0ihh3a669149" class="st5" d="M696.9,684h3v29.2h-3v-8.6c-5.5,2-6.4,2.5-7.2,3c-0.2-0.7-0.7-2.1-1.1-2.7
				c0.5-0.4,1.1-0.9,1.1-2.1v-15.6h2.9v15.9l4.3-1.4V684z M715.1,692.4c-0.9,5-2.1,8.9-4.1,12.3c1.8,2.5,3.9,4.3,6.6,5.7
				c-0.7,0.5-1.6,1.6-2.1,2.5c-2.5-1.4-4.5-3.2-6.3-5.5c-1.8,2.3-4.1,4.3-7,5.7c-0.4-0.7-1.4-2-2-2.5c3-1.4,5.4-3.4,7.2-5.9
				c-1.4-2.5-2.5-5.2-3.6-8.2c-0.5,1.3-1.4,2.3-2.1,3.2c-0.4-0.5-1.4-2-2.1-2.5c2.7-3.2,4.3-8.4,5.2-13.8l3,0.5
				c-0.4,2-0.7,3.8-1.3,5.5h10.4v2.9L715.1,692.4L715.1,692.4z M705.8,692.9c0.9,3.2,2,6.3,3.6,8.9c1.4-2.7,2.3-5.9,2.9-9.7H706
				L705.8,692.9z"/>
			<path id="ed0ihh3a669150" class="st5" d="M750.8,709.4v2.7h-29.2v-2.7h3.9v-9.7h21.3v9.7H750.8z M750.2,692.2h-27.9v-2.7h8.1
				c-0.7-1.4-2-3.4-3-5l2.5-1.1c1.3,1.6,2.7,3.8,3.4,5.2l-1.8,0.9h9.8l-1.8-0.7c1.1-1.4,2.5-3.8,3.2-5.5l3,0.9
				c-1.1,1.8-2.3,3.8-3.6,5.2h8.1V692.2L750.2,692.2z M733.2,694.5c-2.3,1.8-6.4,4.3-9.3,5.5c-0.4-0.7-1.1-1.8-1.8-2.5
				c2.9-0.9,7-3,9.1-4.7L733.2,694.5z M728.4,709.4h3.4v-7.2h-3.4V709.4z M734.5,702.2v7.2h3.4v-7.2H734.5z M740.4,693.3
				c3,1.1,7.5,2.9,9.8,4.1l-1.6,2.3c-2.1-1.3-6.6-3.2-9.8-4.3L740.4,693.3z M740.6,702.2v7.2h3.4v-7.2H740.6z"/>
			<path id="ed0ihh3a669151" class="st5" d="M771.5,702.8c2.7,2.7,7.5,5.4,13.2,6.4c-0.5,0.7-1.4,1.8-2,2.7
				c-4.7-1.1-8.6-3.6-11.3-5.9v7h-3.2v-7.2c-3,2.9-7.2,5-11.5,6.3c-0.4-0.7-1.3-2-1.8-2.5c5.4-1.1,10.6-3.8,13.2-7.2v-2.5h-7.2v5.9
				h-3.2v-8.4h10.4v-2.1h-12.5v-2.7h12.5v-2h2.7c-0.5-0.5-1.4-1.3-2-1.6c1.8-1.4,3.2-3.8,3.9-5.9l2.7,0.7c-0.2,0.5-0.5,1.1-0.7,1.8
				h9.3v2.3h-6c1.1,0.7,2.1,1.8,2.9,2.5l-2,1.8c-0.7-0.9-2.1-2.1-3.2-3l1.4-1.1h-3c-0.7,1.1-1.4,2-2.3,2.9h0.2v2h12v2.7h-12v2.1
				h10.2v5.7c0,1.4-0.4,2-1.3,2.3c-1.1,0.4-2.3,0.4-4.1,0.4c-0.2-0.7-0.7-1.8-1.1-2.3c1.3,0,2.5,0,2.9,0s0.5-0.2,0.5-0.4v-3h-7.2
				v2.3H771.5z M760.4,687.9c-1.1,1.6-2.1,3-3.2,4.1c-0.4-0.5-1.4-1.4-2-2c2-1.8,3.8-4.3,4.7-7l2.7,0.7c-0.2,0.5-0.5,1.1-0.7,1.6
				h7.7v2.3h-5.4c0.9,0.9,2,1.8,2.5,2.5l-2,1.8c-0.7-0.9-2-2.3-3-3.2l1.3-1.1h-2.5L760.4,687.9L760.4,687.9z"/>
			<path id="ed0ihh3a669152" class="st5" d="M817.5,687.5c-1.3,3-3.2,5.7-5.5,8.1c2,1.3,4.1,2.3,6.4,3c-0.4,0.7-0.7,2.1-0.9,2.9
				c-0.5-0.2-0.9-0.4-1.4-0.5v11.6h-2.7V711h-7.5v1.6h-2.7v-11.8c-0.7,0.4-1.3,0.5-2,0.7c-0.2-0.7-0.7-2.1-1.1-2.7v8.4h-8.4v2.3
				h-2.3v-23.8h10.7v13.1c2.7-0.7,5.2-2,7.3-3.4c-1.1-1.1-2-2.5-2.9-3.8c-0.9,1.1-1.8,2.1-2.7,3c-0.4-0.5-1.3-1.8-1.8-2.3
				c2.5-2.1,4.8-5.5,6.3-9.1l2.5,0.7c-0.4,0.9-0.7,1.8-1.3,2.7h7.3l0.5-0.2L817.5,687.5z M791.7,688.4v6.8h2.1v-6.8H791.7z
				 M791.7,704.7h2.1v-7.3h-2.1V704.7z M798,688.4h-2.1v6.8h2.1V688.4z M798,704.7v-7.3h-2.1v7.3H798z M815.5,700.8
				c-2.1-0.9-4.1-2.1-5.9-3.4c-2,1.4-3.9,2.5-6.1,3.4H815.5z M813.4,708.5v-5h-7.5v5H813.4z M806.4,689.3c0.9,1.6,2,3.2,3.2,4.5
				c1.4-1.3,2.9-2.9,3.8-4.5H806.4z"/>
		</g>
	</g>
	<g id="ed0ihh3a669153">
		<g id="ed0ihh3a669154">
			<line id="ed0ihh3a669155" class="st7" x1="585.4" y1="396.9" x2="609.9" y2="396.9"/>
			<line id="ed0ihh3a669156" class="st7" x1="597.6" y1="409.2" x2="597.6" y2="384.7"/>
		</g>
		<g id="ed0ihh3a669157">
			<line id="ed0ihh3a669158" class="st7" x1="585.4" y1="448.4" x2="609.9" y2="448.4"/>
			<line id="ed0ihh3a669159" class="st7" x1="597.6" y1="460.7" x2="597.6" y2="436.2"/>
		</g>
		<g id="ed0ihh3a669160">
			<line id="ed0ihh3a669161" class="st7" x1="585.4" y1="497.9" x2="609.9" y2="497.9"/>
			<line id="ed0ihh3a669162" class="st7" x1="597.6" y1="510.2" x2="597.6" y2="485.7"/>
		</g>
		<g id="ed0ihh3a669163">
			<line id="ed0ihh3a669164" class="st7" x1="585.4" y1="546.9" x2="609.9" y2="546.9"/>
			<line id="ed0ihh3a669165" class="st7" x1="597.6" y1="559.2" x2="597.6" y2="534.7"/>
		</g>
		<g id="ed0ihh3a669166">
			<line id="ed0ihh3a669167" class="st7" x1="585.4" y1="597.4" x2="609.9" y2="597.4"/>
			<line id="ed0ihh3a669168" class="st7" x1="597.6" y1="609.7" x2="597.6" y2="585.2"/>
		</g>
		<g id="ed0ihh3a669169">
			<line id="ed0ihh3a669170" class="st7" x1="585.4" y1="644.9" x2="609.9" y2="644.9"/>
			<line id="ed0ihh3a669171" class="st7" x1="597.6" y1="657.2" x2="597.6" y2="632.7"/>
		</g>
		<g id="ed0ihh3a669172">
			<line id="ed0ihh3a669173" class="st7" x1="585.4" y1="697.9" x2="609.9" y2="697.9"/>
			<line id="ed0ihh3a669174" class="st7" x1="597.6" y1="710.2" x2="597.6" y2="685.7"/>
		</g>
	</g>
</g>
</svg>
