<?xml version="1.0" encoding="utf-8"?>
<!-- Generator: Adobe Illustrator 17.0.0, SVG Export Plug-In . SVG Version: 6.00 Build 0)  -->
<!DOCTYPE svg PUBLIC "-//W3C//DTD SVG 1.1//EN" "http://www.w3.org/Graphics/SVG/1.1/DTD/svg11.dtd">
<svg version="1.1" id="圖層_1" xmlns="http://www.w3.org/2000/svg" xmlns:xlink="http://www.w3.org/1999/xlink" x="0px" y="0px"
	 width="185px" height="185px" viewBox="0 0 185 185" enable-background="new 0 0 185 185" xml:space="preserve">
<g id="ligjt">
	<path fill="none" stroke="#50BEAF" stroke-linecap="round" stroke-linejoin="round" stroke-miterlimit="10" d="M42.4,73.5
		c-0.6,3.3-1,6.7-1,10c0,13.7,5.2,26.6,14.7,36.4c5.7,5.9,9.8,10.6,9.8,17.6l0.2,15.5c0,4.5,2.3,8.6,6.2,11l0.5,0.3v3.5
		c0,6.7,5.5,12.2,12.2,12.2h16.1c6.7,0,12.2-5.5,12.2-12.2v-3.5l0.5-0.3c3.9-2.4,6.2-6.5,6.2-11c0-6.5,0-16.3,0-17.3v-0.1v-0.1
		c0.5-6.4,4.5-11.1,9.2-16c9.3-9.7,14.4-22.5,14.4-36.1c0-28.5-22.9-51.8-51-51.8c-9.9,0-19.4,2.9-27.7,8.3
		c-8,5.3-14.4,12.7-18.5,21.4"/>
</g>
<g id="C">
	
		<line fill="none" stroke="#50BEAF" stroke-linecap="round" stroke-linejoin="round" stroke-miterlimit="10" x1="66.5" y1="134.9" x2="119.7" y2="134.9"/>
</g>
<g id="B">
	
		<line fill="none" stroke="#50BEAF" stroke-linecap="round" stroke-linejoin="round" stroke-miterlimit="10" x1="66.5" y1="148.6" x2="99.3" y2="148.6"/>
	
		<line fill="none" stroke="#50BEAF" stroke-linecap="round" stroke-linejoin="round" stroke-miterlimit="10" x1="107.9" y1="148.7" x2="118.8" y2="148.7"/>
</g>
<g id="A">
	
		<line fill="none" stroke="#50BEAF" stroke-linecap="round" stroke-linejoin="round" stroke-miterlimit="10" x1="72.7" y1="164.1" x2="114.1" y2="164.1"/>
</g>
<g id="light">
	<path fill="none" stroke="#50BEAF" stroke-linecap="round" stroke-linejoin="round" stroke-miterlimit="10" d="M92.5,22V4.3"/>
	<path fill="none" stroke="#50BEAF" stroke-linecap="round" stroke-linejoin="round" stroke-miterlimit="10" d="M45.9,40.4
		L33.3,27.9"/>
	<path fill="none" stroke="#50BEAF" stroke-linecap="round" stroke-linejoin="round" stroke-miterlimit="10" d="M139.1,40.4
		l12.6-12.6"/>
	<path fill="none" stroke="#50BEAF" stroke-linecap="round" stroke-linejoin="round" stroke-miterlimit="10" d="M25.1,87.2H7.4"/>
	<path fill="none" stroke="#50BEAF" stroke-linecap="round" stroke-linejoin="round" stroke-miterlimit="10" d="M159.9,87.2h17.8"/>
	<path fill="none" stroke="#50BEAF" stroke-linecap="round" stroke-linejoin="round" stroke-miterlimit="10" d="M43.6,135L31,147.5"
		/>
	<path fill="none" stroke="#50BEAF" stroke-linecap="round" stroke-linejoin="round" stroke-miterlimit="10" d="M141.4,135
		l12.6,12.6"/>
</g>
<g id="good">
	<path fill="none" stroke="#50BEAF" stroke-linecap="round" stroke-linejoin="round" stroke-miterlimit="10" d="M113.4,86.5l5.2-6.7
		c1.2-1.6,1.8-3.5,1.5-5.5s-1.2-3.7-2.8-4.9c-1.6-1.2-3.5-1.8-5.5-1.5c-2,0.2-3.7,1.2-4.9,2.8l-17,21.9c-0.2,0.2-0.5,0.4-0.8,0.4
		s-0.6-0.1-0.8-0.3l-9.8-10.8c-1.4-1.6-3.4-2.4-5.5-2.4c-1.8,0-3.6,0.7-5,1.9c-1.5,1.3-2.3,3.2-2.4,5.1c-0.1,2,0.6,3.9,1.9,5.4
		L84,110.1c1.3,1.5,3.3,2.4,5.5,2.4c2.4,0,4.6-1.1,5.9-2.8l10.4-13.4"/>
</g>
</svg>
