<?xml version="1.0" encoding="UTF-8"?>
<svg id="Layer_1" data-name="Layer 1" xmlns="http://www.w3.org/2000/svg" viewBox="0 0 768.9 406.25">
  <defs>
    <style>
      .cls-1 {
        fill: #1cd8c0;
      }

      .cls-1, .cls-2, .cls-3, .cls-4, .cls-5, .cls-6, .cls-7, .cls-8 {
        stroke-width: 0px;
      }

      .cls-9 {
        fill: none;
        stroke: #bababa;
        stroke-linejoin: round;
        stroke-width: .8px;
      }

      .cls-2 {
        fill: #4d4d4f;
      }

      .cls-3 {
        fill: #ece166;
      }

      .cls-4 {
        fill: #f4c14d;
      }

      .cls-5 {
        fill: #564aa0;
      }

      .cls-6 {
        fill: #b4c248;
      }

      .cls-7 {
        fill: #1e9bd7;
      }

      .cls-8 {
        fill: #534795;
      }
    </style>
  </defs>
  <g>
    <path class="cls-7" d="M135.32,67.05c1.1,2.51,2.91,4.87,4.95,6.11-.37.3-.91.88-1.16,1.3-.68-.48-1.34-1.07-1.93-1.73v1.38h-3.52v2.82h-1.56v-2.82h-3.52v-1.42c-.64.7-1.29,1.31-1.97,1.81-.25-.38-.73-.91-1.1-1.21,2-1.27,3.8-3.69,4.89-6.25h-4.39v-1.5h6.1v-3.21h1.56v3.21h6.17v1.5h-4.52ZM132.1,72.62v-5.57h-.21c-.78,2.08-1.91,4.04-3.26,5.57h3.47ZM137.07,72.62c-1.34-1.53-2.45-3.5-3.23-5.57h-.17v5.57h3.41Z"/>
    <path class="cls-7" d="M153.26,71.09c.89.92,2.15,1.74,3.37,2.17-.32.27-.75.8-.97,1.15-1.53-.67-3.04-1.93-4.01-3.31h-4.74c-.38.56-.88,1.11-1.4,1.61h2.91v-1.19h1.5v1.19h3.15v1.18h-3.15v1.42h5.35v1.23h-11.98v-1.23h5.14v-1.42h-3.04v-1.05c-.8.72-1.72,1.32-2.63,1.75-.21-.35-.64-.88-.96-1.13,1.26-.48,2.53-1.37,3.44-2.36h-3.28v-1.22h3.09v-4.92h-2.31v-1.21h2.31v-1.38h1.48v1.38h5.41v-1.37h1.51v1.37h2.28v1.21h-2.28v4.92h2.99v1.22h-3.18ZM146.53,64.95v.89h5.41v-.89h-5.41ZM146.53,67.83h5.41v-.91h-5.41v.91ZM146.53,69.86h5.41v-.96h-5.41v.96Z"/>
    <path class="cls-7" d="M166.26,68.37v1.93h5.33v1.34h-5.33v3.55h6.1v1.35h-13.66v-1.35h5.98v-3.55h-5.25v-1.34h5.25v-1.93h-3.33v-.83c-.75.4-1.51.73-2.31,1.02-.21-.43-.62-1-.99-1.37,2.96-.91,5.84-2.66,7.35-5l1.38.62c-.14.21-.27.41-.41.6,1.56,1.56,4.23,3.07,6.62,3.79-.33.3-.8.89-1.02,1.29-.78-.29-1.58-.65-2.37-1.1v.97h-3.36ZM161.85,71.79c.6.84,1.24,2,1.5,2.75l-1.29.56c-.22-.75-.84-1.94-1.42-2.83l1.21-.48ZM168.9,67c-1.24-.75-2.42-1.62-3.37-2.58-.92,1-2.01,1.86-3.2,2.58h6.57ZM167.47,74.64c.54-.76,1.21-1.97,1.54-2.85l1.43.52c-.6,1-1.3,2.08-1.85,2.8l-1.13-.48Z"/>
    <path class="cls-7" d="M180.95,73.49h-3.93l-.67,2.2h-2.1l3.34-10.6h2.8l3.34,10.6h-2.1l-.68-2.2ZM177.52,71.76h2.93l-1.45-5.01-1.48,5.01Z"/>
    <path class="cls-7" d="M186.9,66.86h-2.96v-1.77h7.93v1.77h-2.96v8.83h-2v-8.83Z"/>
    <path class="cls-7" d="M198.61,71.92c-.05-.25-.1-.53-.19-.86-3.53.59-4.09.72-4.41.91-.06-.29-.3-.99-.48-1.35.4-.08.75-.46,1.24-1.05.24-.25.68-.81,1.19-1.56-1.48.17-1.83.27-2.07.38-.08-.29-.3-.97-.46-1.34.29-.08.57-.38.89-.86.35-.46,1.4-2.21,2.01-3.9l1.37.56c-.62,1.38-1.45,2.83-2.29,3.99l1.43-.13c.43-.67.83-1.38,1.18-2.1l1.24.78c-.99,1.74-2.21,3.47-3.45,4.87l2.28-.3c-.17-.46-.35-.91-.54-1.3l1.05-.37c.49,1.02,1,2.36,1.16,3.18l-1.15.45ZM195.32,72.78c-.16,1.37-.43,2.86-.76,3.83-.25-.13-.81-.32-1.11-.41.37-.94.57-2.36.7-3.63l1.18.21ZM196.94,72.49c.19,1,.37,2.29.41,3.15l-1.11.29c-.02-.88-.17-2.18-.35-3.2l1.05-.24ZM207.55,67.81c-.4,2.32-1.16,4.27-2.2,5.83.73.86,1.61,1.54,2.64,1.99-.35.29-.78.84-1,1.24-.99-.51-1.83-1.21-2.53-2.05-.76.88-1.64,1.59-2.56,2.16-.21-.37-.62-.88-.94-1.15.97-.51,1.86-1.27,2.63-2.24-.65-1.08-1.15-2.31-1.54-3.66-.3,2.8-.91,5.12-2.16,6.94-.22-.24-.92-.73-1.27-.94.3-.4.56-.83.8-1.29l-1.07.37c-.13-.68-.45-1.77-.73-2.58l1.02-.32c.32.78.65,1.83.8,2.51,1.21-2.5,1.46-6.02,1.5-10.17h-1.46v-1.38h5.51l.22-.06,1.02.13c-.18,1.34-.45,3.01-.72,4.41h.88l.27-.06.92.33ZM202.35,64.45c-.02,1.08-.06,2.1-.11,3.09h1.85c.21-.99.38-2.13.54-3.09h-2.28ZM203.04,68.86c.33,1.26.79,2.45,1.42,3.5.62-1.03,1.1-2.21,1.42-3.5h-2.83Z"/>
    <path class="cls-7" d="M216.94,69.88s0,.41-.02.6c-.17,3.88-.33,5.36-.76,5.86-.29.37-.6.46-1.08.51-.41.06-1.16.06-1.93.03-.03-.4-.17-.94-.41-1.31.73.08,1.43.08,1.7.08.25,0,.41-.02.53-.18.27-.29.43-1.42.56-4.28h-2.23c-.37,2.24-1.1,4.36-2.77,5.76-.22-.35-.65-.81-1.02-1.03,2.13-1.72,2.48-4.81,2.63-7.58h-1.66v-5.28h6.35v5.28h-3.25c-.03.51-.06,1.02-.13,1.53h3.49ZM211.83,67.05h3.57v-2.67h-3.57v2.67ZM219.67,73.03h-1.43v-8.79h1.43v8.79ZM223.53,62.65v12.41c0,.92-.22,1.35-.78,1.62-.59.22-1.54.27-2.99.25-.08-.4-.3-1.08-.53-1.51,1.08.05,2.08.03,2.4.03.3-.02.41-.11.41-.4v-12.41h1.48Z"/>
    <path class="cls-7" d="M226.68,70.71c0-3.13.88-5.73,2.36-8.13l1.15.49c-1.37,2.29-2.01,4.98-2.01,7.64s.64,5.36,2.01,7.64l-1.15.51c-1.48-2.42-2.36-4.98-2.36-8.15Z"/>
    <path class="cls-7" d="M239.84,70.52c-.03.37-.1.72-.16,1.05h6.38v1.26h-6.72c-.75,2.07-2.43,3.41-6.64,4.09-.11-.4-.46-1-.75-1.34,3.49-.48,5-1.37,5.71-2.75h-5.08v-1.26h5.52c.06-.33.13-.67.17-1.05h-6.05v-1.31h6.22v-1.13h-4.81v-1.26h4.81v-1.08h-5.7v-1.31h3.2c-.25-.52-.68-1.18-1.07-1.66l1.29-.51c.54.57,1.08,1.37,1.3,1.93l-.52.24h3.88c.43-.64.97-1.53,1.24-2.16l1.58.43c-.37.59-.8,1.23-1.18,1.73h3.25v1.31h-5.75v1.08h4.98v1.26h-4.98v1.13h6.41v1.31h-6.57ZM245.73,77.01c-1.42-.92-4.27-2.24-6.4-3.07l.65-1.11c2.08.75,4.98,2,6.43,2.88l-.68,1.3Z"/>
    <path class="cls-7" d="M260.73,75.28c.59,0,.68-.41.75-2.77.35.27.99.53,1.38.64-.16,2.75-.54,3.53-2.02,3.53h-2.12c-1.58,0-1.99-.49-1.99-2.05v-5.32h-2.72c-.29,3.36-1,6.11-4.74,7.61-.16-.38-.59-.91-.92-1.19,3.33-1.24,3.87-3.61,4.09-6.41h-3.84v-1.43h13.99v1.43h-4.33v5.3c0,.57.09.67.67.67h1.8ZM261.21,64.95h-11.2v-1.43h11.2v1.43Z"/>
    <path class="cls-7" d="M264.66,78.35c1.37-2.28,2-4.97,2-7.64s-.64-5.35-2-7.64l1.15-.49c1.5,2.4,2.37,5,2.37,8.13s-.88,5.73-2.37,8.15l-1.15-.51Z"/>
    <path class="cls-7" d="M284.18,67.76c-.67,2.05-1.61,3.85-2.77,5.38.54,1.35,1.16,2.18,1.83,2.18.41,0,.6-.81.7-2.86.35.35.88.68,1.27.83-.24,2.8-.78,3.55-2.08,3.55-1.16,0-2.08-.89-2.8-2.39-.91.96-1.91,1.77-3.01,2.44-.22-.32-.75-.94-1.08-1.21,1.32-.73,2.5-1.66,3.47-2.79-.57-1.8-.94-4.07-1.13-6.56h-5.09v1.93h3.99v.57c-.08,3.45-.16,4.82-.49,5.27-.29.33-.59.46-1.02.51-.4.06-1.11.06-1.88.03-.03-.43-.17-1-.4-1.38.65.06,1.27.08,1.53.08.22,0,.38-.05.49-.19.17-.22.27-1.13.32-3.53h-2.55c-.02,2.26-.29,5.44-1.69,7.5-.25-.3-.91-.83-1.24-1.02,1.27-1.91,1.38-4.65,1.38-6.7v-4.5h6.54c-.05-.83-.08-1.69-.08-2.53h1.56c-.02.86,0,1.7.05,2.53h3.07c-.62-.53-1.66-1.21-2.5-1.67l.89-.91c.94.49,2.13,1.22,2.75,1.77l-.76.81h1.62v1.45h-5c.16,1.89.41,3.61.78,5.03.76-1.18,1.35-2.5,1.81-3.96l1.5.37Z"/>
    <path class="cls-7" d="M301.33,74.81v1.5h-14.18v-1.5h7.7c.83-1.97,1.73-5.09,2.21-7.37l1.67.32c-.62,2.32-1.51,5.11-2.29,7.05h4.89ZM300.68,66.74h-12.84v-1.5h12.84v1.5ZM291.35,74.26c-.22-1.75-.86-4.44-1.43-6.48l1.5-.37c.62,2.07,1.24,4.68,1.51,6.45l-1.58.4ZM293.72,65.19c-.13-.7-.48-1.78-.76-2.59l1.46-.37c.3.8.67,1.85.84,2.51l-1.54.45Z"/>
    <path class="cls-7" d="M308.47,73.86h-3.31v1.35h-1.37v-11.87h4.68v10.52ZM305.16,64.68v3.2h1.93v-3.2h-1.93ZM307.08,72.54v-3.36h-1.93v3.36h1.93ZM313.99,65.46v1.81h3.33v1.29h-1.29v1.53h1.7v1.3h-1.7v3.92c0,.76-.17,1.16-.7,1.37-.56.24-1.38.25-2.61.25-.06-.4-.29-.99-.49-1.38.89.03,1.77.03,2.02.03.25-.02.33-.08.33-.3v-3.88h-5.78v-1.3h5.78v-1.53h-5.2v-1.29h3.15v-1.81h-3.77v-1.32h3.77v-1.81h1.46v1.81h3.8v1.32h-3.8ZM310.84,71.79c.7.79,1.58,1.89,1.99,2.63l-1.3.78c-.37-.72-1.21-1.89-1.91-2.74l1.23-.67Z"/>
    <path class="cls-7" d="M322.08,69.66c-.57-.56-1.78-1.29-2.74-1.72l.72-1.1c.94.37,2.16,1.03,2.77,1.58l-.75,1.24ZM319.73,75.77c.76-1.18,1.89-3.17,2.74-4.93l.99.99c-.76,1.62-1.73,3.45-2.58,4.93l-1.15-.99ZM322.86,65.44c-.56-.57-1.75-1.35-2.71-1.83l.75-1.1c.94.43,2.15,1.15,2.74,1.72l-.78,1.21ZM334.08,70.88h-1.19v2.4h-3.69v1.97c0,.78-.16,1.16-.67,1.37-.53.22-1.34.22-2.53.22-.06-.37-.24-.96-.43-1.34.84.03,1.69.03,1.93.03.25-.02.33-.08.33-.3v-1.96h-3.52v-1.18h3.52v-1.22h-4.36v-1.27h4.36v-1.18h-3.42v-1.18h.83c-.13-.56-.49-1.34-.88-1.93l1.03-.45c.41.57.81,1.37.97,1.91l-1.02.46h7.54v2.36h1.19v1.27ZM332.97,63.45c-2.34.67-5.79,1.07-8.74,1.26-.05-.33-.22-.84-.35-1.15,2.87-.21,6.19-.62,8.07-1.18l1.02,1.07ZM328.22,67.06c-.08-.57-.43-1.48-.78-2.16l1.1-.33c.35.65.72,1.53.84,2.12l-1.16.38ZM329.2,69.61h2.42v-1.18h-2.42v1.18ZM331.62,70.88h-2.42v1.22h2.42v-1.22ZM330.41,66.65c.43-.64.96-1.67,1.24-2.42l1.37.4c-.46.88-.99,1.78-1.4,2.39l-1.21-.37Z"/>
    <path class="cls-7" d="M340.61,62.8c-.45,1.19-1,2.4-1.61,3.52v10.63h-1.37v-8.4c-.38.54-.76,1.02-1.16,1.46-.11-.37-.53-1.15-.78-1.51,1.42-1.48,2.75-3.79,3.55-6.11l1.37.41ZM350.4,75.31v1.26h-10.6v-1.26h1.46v-8.83h2.72c.08-.38.17-.84.25-1.3h-3.74v-1.27h3.93c.08-.54.14-1.07.18-1.53l1.56.06c-.08.46-.17.97-.27,1.46h4.09v1.27h-4.34c-.1.46-.21.92-.32,1.3h3.77v8.83h1.31ZM342.59,67.59v1.13h5.14v-1.13h-5.14ZM347.73,69.78h-5.14v1.13h5.14v-1.13ZM342.59,71.95v1.16h5.14v-1.16h-5.14ZM342.59,75.31h5.14v-1.15h-5.14v1.15Z"/>
    <path class="cls-7" d="M358.11,65.9c0-.78.61-1.34,1.34-1.34s1.34.56,1.34,1.34-.6,1.32-1.34,1.32-1.34-.54-1.34-1.32ZM358.11,73.62c0-.8.61-1.34,1.34-1.34s1.34.54,1.34,1.34-.6,1.3-1.34,1.3-1.34-.54-1.34-1.3Z"/>
    <path class="cls-7" d="M369.12,73.91c.78.16,1.53.24,2.28.24,1.4,0,1.66-.29,1.66-1.11v-.62c0-.78-.35-1.02-1.15-1.02h-2.28v-1.73h1.93c1.07,0,1.3-.37,1.3-1.11v-.62c0-.76-.35-.97-1.46-.97-.78,0-1.53.1-2.2.22l-.21-1.64c.7-.17,1.67-.29,2.58-.29,2.5,0,3.23.83,3.23,2.34v.99c0,1.03-.32,1.56-1.15,1.92.91.3,1.34.84,1.34,1.93v.91c0,1.59-.78,2.51-3.53,2.51-.72,0-1.93-.13-2.55-.33l.21-1.61Z"/>
    <path class="cls-7" d="M377.53,73.46h1.97v2.23h-1.97v-2.23Z"/>
    <path class="cls-7" d="M383.99,69.85c.56-.19,1.21-.29,1.89-.29,1.93,0,2.71.8,2.71,2.63v.76c0,1.66-.76,2.9-3.26,2.9-2.74,0-3.28-1.21-3.28-3.04v-3.87c0-2.8,1.5-3.69,4.39-3.69.59,0,1.35.08,1.83.19l-.13,1.62c-.46-.09-1.16-.14-1.5-.14-1.88,0-2.66.32-2.66,1.94v.99ZM383.99,71.57v1.45c0,.88.33,1.16,1.34,1.16s1.32-.35,1.32-1.16v-.78c0-.76-.37-1-1.07-1-.57,0-1.15.14-1.59.33Z"/>
    <path class="cls-7" d="M390.75,68.62l-.81-1.53,2.93-1.69h1.75v10.28h-1.94v-8.13l-1.93,1.07Z"/>
    <path class="cls-7" d="M404.82,70.52c-.03.37-.1.72-.16,1.05h6.38v1.26h-6.72c-.75,2.07-2.43,3.41-6.64,4.09-.11-.4-.46-1-.75-1.34,3.49-.48,5-1.37,5.71-2.75h-5.08v-1.26h5.52c.06-.33.13-.67.17-1.05h-6.05v-1.31h6.22v-1.13h-4.81v-1.26h4.81v-1.08h-5.7v-1.31h3.2c-.25-.52-.68-1.18-1.07-1.66l1.29-.51c.54.57,1.08,1.37,1.3,1.93l-.52.24h3.88c.43-.64.97-1.53,1.24-2.16l1.58.43c-.37.59-.8,1.23-1.18,1.73h3.25v1.31h-5.75v1.08h4.98v1.26h-4.98v1.13h6.41v1.31h-6.57ZM410.71,77.01c-1.42-.92-4.27-2.24-6.4-3.07l.65-1.11c2.08.75,4.98,2,6.43,2.88l-.68,1.3Z"/>
    <path class="cls-7" d="M425.71,75.28c.59,0,.68-.41.75-2.77.35.27.99.53,1.38.64-.16,2.75-.54,3.53-2.02,3.53h-2.12c-1.58,0-1.99-.49-1.99-2.05v-5.32h-2.72c-.29,3.36-1,6.11-4.74,7.61-.16-.38-.59-.91-.92-1.19,3.33-1.24,3.87-3.61,4.09-6.41h-3.84v-1.43h13.99v1.43h-4.33v5.3c0,.57.09.67.67.67h1.8ZM426.18,64.95h-11.2v-1.43h11.2v1.43Z"/>
    <path class="cls-7" d="M139.15,86.85c-.67,2.05-1.61,3.85-2.77,5.38.54,1.35,1.16,2.18,1.83,2.18.41,0,.6-.81.7-2.87.35.35.88.68,1.27.83-.24,2.8-.78,3.55-2.08,3.55-1.16,0-2.08-.89-2.8-2.39-.91.95-1.91,1.77-3.01,2.43-.22-.32-.75-.94-1.08-1.21,1.32-.73,2.5-1.65,3.47-2.78-.57-1.8-.94-4.07-1.13-6.56h-5.09v1.93h3.99v.57c-.08,3.45-.16,4.82-.49,5.27-.29.33-.59.46-1.02.51-.4.06-1.11.06-1.88.03-.03-.43-.17-1-.4-1.38.65.06,1.27.08,1.53.08.22,0,.38-.05.49-.19.17-.22.27-1.13.32-3.53h-2.55c-.02,2.26-.29,5.44-1.69,7.5-.25-.3-.91-.83-1.24-1.02,1.27-1.91,1.38-4.65,1.38-6.7v-4.5h6.54c-.05-.83-.08-1.69-.08-2.53h1.56c-.02.86,0,1.7.05,2.53h3.07c-.62-.53-1.66-1.21-2.5-1.67l.89-.91c.94.49,2.13,1.23,2.75,1.77l-.76.81h1.62v1.45h-5c.16,1.89.41,3.61.78,5.03.76-1.18,1.35-2.5,1.81-3.96l1.5.37Z"/>
    <path class="cls-7" d="M156.3,93.9v1.5h-14.18v-1.5h7.7c.83-1.97,1.73-5.09,2.21-7.37l1.67.32c-.62,2.32-1.51,5.11-2.29,7.05h4.89ZM155.65,85.83h-12.84v-1.5h12.84v1.5ZM146.32,93.35c-.22-1.75-.86-4.44-1.43-6.48l1.5-.37c.62,2.07,1.24,4.68,1.51,6.45l-1.58.4ZM148.69,84.27c-.13-.7-.48-1.78-.76-2.59l1.46-.37c.3.79.67,1.85.84,2.51l-1.54.45Z"/>
    <path class="cls-7" d="M172.62,94.08v1.38h-14.18v-1.38h6.25v-2.61h-4.84v-1.37h4.84v-1.83h1.54v1.83h5v1.37h-5v2.61h6.38ZM170.84,88.65c-.24-.32-.54-.68-.92-1.08-8.36.37-9.29.38-9.95.62-.08-.3-.32-1.05-.48-1.45.32-.06.67-.32,1.08-.73.37-.29,1.29-1.26,2.15-2.39h-3.9v-1.37h13.27v1.37h-7.46c-.83,1.1-1.75,2.12-2.63,2.94l6.67-.22c-.59-.54-1.21-1.07-1.78-1.51l1.18-.78c1.42,1.05,3.21,2.61,4.06,3.71l-1.29.89Z"/>
    <path class="cls-7" d="M183.09,81.98c-.1.14-.21.29-.32.45,1.58,1.74,4.25,3.55,6.45,4.5-.38.32-.91.94-1.16,1.35-2.02-1.05-4.42-2.88-6.16-4.76-1.72,2.02-4,3.72-6.32,4.89-.24-.41-.72-.99-1.15-1.34,2.82-1.24,5.65-3.37,7.21-5.79l1.45.7ZM186.49,88.97l1.16.54c-1.35,1.89-3.42,4.52-5.11,6.59l-1.53-.72c1.29-1.5,2.82-3.37,3.93-4.84h-8.51v-1.5h9.79l.27-.08ZM184.69,86.34v1.4h-5.49v-1.4h5.49Z"/>
    <path class="cls-7" d="M194.55,84.29c-.76,1.21-1.62,2.32-2.45,3.17-.29-.25-.94-.68-1.32-.88,1.46-1.24,2.82-3.26,3.64-5.24l1.48.43c-.17.38-.37.78-.59,1.18h9.52v1.34h-10.28ZM203.1,90.48c-.05.86-.09,1.58-.16,2.18h1.85v1.29h-2.01c-.11.73-.25,1.16-.45,1.42-.3.45-.68.59-1.19.65-.49.05-1.29.05-2.07,0-.02-.35-.16-.84-.35-1.18.76.06,1.43.08,1.75.08.27,0,.41-.05.57-.24.1-.13.19-.35.27-.73h-8.83c.21-.95.4-2.18.59-3.47h-2.21v-1.34h2.42c.16-1.19.3-2.39.4-3.42h9.58s-.02.48-.02.67c-.03,1.04-.06,1.94-.1,2.75h2.24v1.34h-2.29ZM194.57,90.43c-.11.8-.22,1.54-.32,2.23h4.28c-.64-.54-1.61-1.18-2.45-1.59l.65-.64h-2.17ZM195.03,87.01c-.1.7-.19,1.45-.29,2.18h4.07c-.64-.53-1.58-1.11-2.4-1.51l.7-.67h-2.08ZM201.49,92.66c.06-.59.11-1.32.16-2.23h-4.41c.94.46,1.94,1.13,2.5,1.66l-.56.57h2.31ZM201.7,89.19c.02-.65.05-1.38.06-2.18h-4.25c.91.43,1.93,1.03,2.45,1.56l-.6.62h2.34Z"/>
    <path class="cls-7" d="M221.46,93.9h-6.33v2.12h-1.51v-2.12h-6.17v-1.29h6.17v-1.03h-4.63v-5.71h11.04v5.71h-4.9v1.03h6.33v1.29ZM213.9,85.15h-5.4v-3.12h5.4v3.12ZM212.48,82.99h-2.66v1.23h2.66v-1.23ZM210.43,88.16h3.18v-1.11h-3.18v1.11ZM213.61,90.4v-1.15h-3.18v1.15h3.18ZM220.46,85.15h-5.44v-3.12h5.44v3.12ZM218.51,87.04h-3.39v1.11h3.39v-1.11ZM218.51,89.26h-3.39v1.15h3.39v-1.15ZM219.05,82.99h-2.71v1.23h2.71v-1.23Z"/>
    <path class="cls-7" d="M228.58,81.92c-.41,1.11-.95,2.23-1.54,3.29v10.79h-1.5v-8.47c-.41.59-.86,1.11-1.31,1.58-.14-.35-.57-1.15-.83-1.5,1.51-1.48,2.93-3.8,3.77-6.13l1.4.43ZM237.89,93.97v1.42h-9.9v-1.42h5.52c.57-2.1,1.16-5.32,1.43-7.66l1.54.25c-.43,2.4-1.03,5.36-1.61,7.4h3.01ZM237.3,85.64h-8.67v-1.43h8.67v1.43ZM230.63,93.36c-.13-1.66-.56-4.49-1-6.65l1.32-.3c.49,2.15.99,4.92,1.15,6.52l-1.46.43ZM232.45,84.13c-.11-.67-.43-1.72-.73-2.51l1.4-.35c.3.78.64,1.77.8,2.45l-1.46.41Z"/>
    <path class="cls-7" d="M244.74,93.31c-1.05.88-2.59,1.83-3.82,2.42-.25-.27-.81-.75-1.13-.97,1.27-.49,2.71-1.27,3.6-2.02l1.35.57ZM247.85,92.12v2.42c0,.72-.14,1.07-.68,1.27-.53.22-1.29.22-2.32.22-.08-.4-.32-.97-.52-1.32.73.02,1.51.02,1.72,0,.22,0,.29-.05.29-.22v-2.29c-4.14.19-4.79.24-5.3.41-.05-.24-.22-.91-.35-1.27.54-.03,1.18-.24,2.1-.57.46-.14,1.35-.49,2.42-.97-2.61.17-3.07.25-3.37.37-.06-.25-.25-.91-.38-1.26.3-.03.67-.17,1.08-.38.32-.13,1.07-.51,1.85-1.02h-3.07v-5.57h11.6v5.57h-6.37c-.68.46-1.37.88-2.07,1.24l3.18-.16c.62-.32,1.23-.68,1.81-1.03l1.1.86c-1.83,1.07-3.71,1.94-5.55,2.64l5.63-.22c-.37-.33-.76-.67-1.11-.94l1.05-.72c1.15.81,2.42,2.02,3.04,2.85l-1.1.84c-.21-.29-.48-.59-.78-.94l-3.88.19ZM242.67,84.18h3.6v-1.08h-3.6v1.08ZM242.67,86.36h3.6v-1.1h-3.6v1.1ZM251.43,83.1h-3.72v1.08h3.72v-1.08ZM251.43,85.26h-3.72v1.1h3.72v-1.1ZM249.96,92.74c1.27.59,2.96,1.53,3.85,2.21l-1.15.84c-.81-.67-2.47-1.64-3.77-2.29l1.07-.76Z"/>
    <path class="cls-7" d="M261.11,91.17c-.22-.41-.7-1.1-1.16-1.72v6.56h-1.43v-6.32c-.59,1.4-1.29,2.72-1.97,3.6-.16-.41-.49-1.02-.73-1.37.97-1.11,1.99-3.06,2.59-4.76h-2.18v-1.38h2.29v-2.13c-.68.13-1.37.22-2,.3-.06-.33-.25-.83-.43-1.15,1.7-.24,3.68-.68,4.81-1.16l1.02,1.13c-.57.22-1.24.41-1.96.59v2.42h1.61v-.27h3.74v-.7h-2.93v-.92h2.93v-.68h-3.25v-.96h3.25v-.81h1.48v.81h3.45v.96h-3.45v.68h3.07v.92h-3.07v.7h3.82v.97h-8.94v.68h-1.7v.78c.53.46,1.74,1.72,2.02,2.07l-.86,1.16ZM269.75,93.49h-5.3l1.1.7c-.96.75-2.51,1.51-3.79,1.91-.22-.29-.64-.7-.94-.95,1.24-.35,2.69-1.04,3.45-1.66h-1.69v-6.33h7.16v6.33ZM268.37,88.11h-4.44v.86h4.44v-.86ZM268.37,89.88h-4.44v.88h4.44v-.88ZM268.37,91.66h-4.44v.88h4.44v-.88ZM267.76,93.49c1.05.6,2.28,1.35,3.01,1.85l-1.29.72c-.62-.48-1.73-1.24-2.71-1.85l.99-.72Z"/>
    <path class="cls-7" d="M272.48,82.08h7.5v1.24h-2.12v1.85h1.89v10.62h-1.21v-.88h-4.65v1.1h-1.16v-10.84h1.86v-1.85h-2.12v-1.24ZM278.54,93.74v-3.9h-.83c-.75,0-.97-.22-.97-1.16v-2.28h-.94v1.18c0,.95-.24,2.13-1.26,2.94-.14-.16-.45-.45-.65-.56v3.77h4.65ZM273.9,86.41v3.52c.88-.72,1.02-1.62,1.02-2.36v-1.16h-1.02ZM274.47,91.25h3.5v1.16h-3.5v-1.16ZM276.68,83.32h-.92v1.85h.92v-1.85ZM278.54,86.41h-.92v2.26c0,.22.03.25.21.25h.49c.13,0,.19-.02.22-.03v-2.48ZM284.86,94.49c.64,0,.75-.4.83-2.59.33.25.94.51,1.34.6-.17,2.61-.56,3.36-2.04,3.36h-2.39c-1.54,0-2.02-.43-2.02-2.07v-6.57h4.42v-3.64h-4.47v-1.42h5.9v6.48h-4.39v5.14c0,.6.11.72.76.72h2.05Z"/>
    <path class="cls-7" d="M288.69,94.64c.59-.88,1.19-2.23,1.56-3.25l1.29.54c-.38,1.03-.92,2.43-1.5,3.36l-1.35-.65ZM295.47,90.48h-4.44v-7.62h3.68c.19-.49.41-1.15.51-1.61l1.77.27c-.22.48-.49.94-.7,1.34h4.54v7.62h-4.85c.73.68,1.53,1.61,1.91,2.24l-1.22.73c-.35-.7-1.23-1.75-2.02-2.48l.84-.49ZM297.91,94.41c.8,0,.94-.22,1.02-1.78.33.24.96.46,1.37.54-.21,2.1-.65,2.59-2.29,2.59h-3.34c-2,0-2.51-.41-2.51-1.85v-2.42h1.48v2.39c0,.45.17.53,1.15.53h3.14ZM292.46,85.05h6.88v-1.03h-6.88v1.03ZM292.46,87.17h6.88v-1.03h-6.88v1.03ZM292.46,89.32h6.88v-1.05h-6.88v1.05ZM301.26,91.12c.72.99,1.5,2.32,1.77,3.23l-1.4.62c-.24-.91-.97-2.28-1.67-3.31l1.31-.54Z"/>
    <path class="cls-7" d="M313,87.46v1.93h5.33v1.34h-5.33v3.55h6.1v1.35h-13.66v-1.35h5.98v-3.55h-5.25v-1.34h5.25v-1.93h-3.33v-.83c-.75.4-1.51.73-2.31,1.02-.21-.43-.62-1-.99-1.37,2.96-.91,5.84-2.66,7.35-5l1.38.62c-.14.21-.27.41-.41.6,1.56,1.56,4.23,3.07,6.62,3.79-.33.3-.8.89-1.02,1.29-.78-.29-1.58-.65-2.37-1.1v.97h-3.36ZM308.59,90.88c.6.84,1.24,2,1.5,2.75l-1.29.56c-.22-.75-.84-1.94-1.42-2.83l1.21-.48ZM315.64,86.09c-1.24-.75-2.42-1.62-3.37-2.58-.92,1-2.01,1.86-3.2,2.58h6.57ZM314.21,93.73c.54-.76,1.21-1.97,1.54-2.85l1.43.53c-.6,1-1.3,2.08-1.85,2.8l-1.13-.48Z"/>
    <path class="cls-7" d="M327.62,91.25v4.73h-1.3v-.45h-2.5v.46h-1.26v-4.57c-.24.1-.46.19-.7.29-.13-.33-.49-.92-.73-1.21,1.03-.33,2.05-.84,2.93-1.5-.37-.22-.72-.43-1.05-.62l.84-.89c.37.21.76.43,1.18.67.41-.41.79-.91,1.08-1.42h-2.13c-.46.68-1.03,1.32-1.78,1.86-.14-.3-.51-.78-.75-.97,1.23-.83,1.97-2,2.34-3.09l1.16.22c-.1.29-.22.56-.35.84h2.18l.21-.05.75.54c-.41,1.02-.97,1.93-1.64,2.69.91.54,1.78,1.08,2.36,1.48l-.83.97ZM322.65,85.71h-1.1v-2.74h2.83c-.13-.38-.29-.76-.41-1.1l1.16-.41c.22.45.46,1.05.65,1.51h2.59v2.74h-1.16v-1.54h-4.57v1.54ZM327.35,91.17c-.56-.41-1.34-.94-2.17-1.46-.65.59-1.38,1.08-2.13,1.46h4.3ZM326.31,94.36v-2.04h-2.5v2.04h2.5ZM331.9,94.06c-.92.75-2.28,1.54-3.31,2.05-.14-.3-.45-.8-.64-1.1.97-.45,2.29-1.24,3.01-1.88l.94.92ZM331.28,84.75c.1-.41.17-.91.25-1.35h-2.72v-1.26h6.94v1.26h-2.85c-.14.46-.27.94-.4,1.35h2.8v8.24h-6.08v-8.24h2.05ZM333.91,85.91h-3.34v1.23h3.34v-1.23ZM333.91,88.24h-3.34v1.24h3.34v-1.24ZM333.91,90.58h-3.34v1.26h3.34v-1.26ZM333.29,93.08c.88.54,2.05,1.38,2.64,1.96l-.83,1.02c-.56-.57-1.72-1.46-2.61-2.05l.8-.92Z"/>
    <path class="cls-7" d="M343.53,84.99c0-.78.61-1.34,1.34-1.34s1.34.56,1.34,1.34-.6,1.32-1.34,1.32-1.34-.54-1.34-1.32ZM343.53,92.71c0-.8.61-1.34,1.34-1.34s1.34.54,1.34,1.34-.6,1.31-1.34,1.31-1.34-.54-1.34-1.31Z"/>
    <path class="cls-7" d="M356.42,88.94c.56-.19,1.21-.29,1.89-.29,1.93,0,2.71.8,2.71,2.63v.76c0,1.66-.76,2.9-3.26,2.9-2.74,0-3.28-1.21-3.28-3.04v-3.87c0-2.8,1.5-3.69,4.39-3.69.59,0,1.35.08,1.83.19l-.13,1.62c-.46-.1-1.16-.14-1.5-.14-1.88,0-2.66.32-2.66,1.94v.99ZM356.42,90.66v1.45c0,.88.33,1.16,1.34,1.16s1.32-.35,1.32-1.16v-.78c0-.76-.37-1-1.07-1-.57,0-1.15.14-1.59.33Z"/>
    <path class="cls-7" d="M363.49,92.55h1.97v2.23h-1.97v-2.23Z"/>
    <path class="cls-7" d="M367.29,84.5h6.45v1.64l-3.68,8.64h-2.02l3.66-8.58h-4.41v-1.7Z"/>
    <path class="cls-7" d="M375.82,87.71l-.81-1.53,2.93-1.69h1.75v10.28h-1.94v-8.13l-1.93,1.07Z"/>
    <path class="cls-7" d="M389.88,89.61c-.03.37-.1.72-.16,1.05h6.38v1.26h-6.72c-.75,2.07-2.43,3.41-6.64,4.09-.11-.4-.46-1-.75-1.34,3.49-.48,5-1.37,5.71-2.75h-5.08v-1.26h5.52c.06-.33.13-.67.17-1.05h-6.05v-1.3h6.22v-1.13h-4.81v-1.26h4.81v-1.08h-5.7v-1.3h3.2c-.25-.53-.68-1.18-1.07-1.66l1.29-.51c.54.57,1.08,1.37,1.3,1.93l-.52.24h3.88c.43-.64.97-1.53,1.24-2.17l1.58.43c-.37.59-.8,1.22-1.18,1.73h3.25v1.3h-5.75v1.08h4.98v1.26h-4.98v1.13h6.41v1.3h-6.57ZM395.77,96.1c-1.42-.92-4.27-2.24-6.4-3.07l.65-1.11c2.08.75,4.98,2.01,6.43,2.88l-.68,1.3Z"/>
    <path class="cls-7" d="M410.77,94.36c.59,0,.68-.41.75-2.77.35.27.99.53,1.38.64-.16,2.75-.54,3.53-2.02,3.53h-2.12c-1.58,0-1.99-.49-1.99-2.05v-5.32h-2.72c-.29,3.36-1,6.11-4.74,7.61-.16-.38-.59-.91-.92-1.19,3.33-1.24,3.87-3.61,4.09-6.41h-3.84v-1.43h13.99v1.43h-4.33v5.3c0,.57.09.67.67.67h1.8ZM411.25,84.04h-11.2v-1.43h11.2v1.43Z"/>
  </g>
  <g>
    <path class="cls-7" d="M745.69,346.42h12.8v7.07h-12.8v-7.07ZM713.68,346.42h12.8v7.07h-12.8v-7.07ZM681.67,346.42h12.8v7.07h-12.8v-7.07ZM648.86,346.42h12.8v7.07h-12.8v-7.07ZM616.85,346.42h12.8v7.07h-12.8v-7.07ZM584.04,346.42h13.6v7.07h-13.6v-7.07ZM552.03,346.42h12.8v7.07h-12.8v-7.07ZM520.02,346.42h12.8v7.07h-12.8v-7.07ZM487.2,346.42h13.6v7.07h-13.6v-7.07ZM455.19,346.42h12.8v7.07h-12.8v-7.07ZM423.18,346.42h12.8v7.07h-12.8v-7.07ZM390.37,346.42h12.8v7.07h-12.8v-7.07ZM358.36,346.42h12.8v7.07h-12.8v-7.07ZM326.35,346.42h12.8v7.07h-12.8v-7.07ZM293.54,346.42h12.8v7.07h-12.8v-7.07ZM261.53,346.42h12.8v7.07h-12.8v-7.07ZM229.52,346.42h12.8v7.07h-12.8v-7.07ZM196.71,346.42h12.8v7.07h-12.8v-7.07ZM164.7,346.42h12.8v7.07h-12.8v-7.07ZM131.89,346.42h13.6v7.07h-13.6v-7.07ZM99.88,346.42h12.8v7.07h-12.8v-7.07ZM67.87,346.42h12.8v7.07h-12.8v-7.07ZM35.06,346.42h13.6v7.07h-13.6v-7.07Z"/>
    <path class="cls-4" d="M745.69,322.85h12.8v23.58h-12.8v-23.58ZM713.68,322.85h12.8v23.58h-12.8v-23.58ZM681.67,322.85h12.8v23.58h-12.8v-23.58ZM648.86,322.85h12.8v23.58h-12.8v-23.58ZM616.85,322.85h12.8v23.58h-12.8v-23.58ZM584.04,322.85h13.6v23.58h-13.6v-23.58ZM552.03,322.85h12.8v23.58h-12.8v-23.58ZM520.02,322.85h12.8v23.58h-12.8v-23.58ZM487.2,322.85h13.6v23.58h-13.6v-23.58ZM455.19,322.85h12.8v23.58h-12.8v-23.58ZM423.18,322.85h12.8v23.58h-12.8v-23.58ZM390.37,322.85h12.8v23.58h-12.8v-23.58ZM358.36,322.85h12.8v23.58h-12.8v-23.58ZM326.35,322.85h12.8v23.58h-12.8v-23.58ZM293.54,322.85h12.8v23.58h-12.8v-23.58ZM261.53,322.85h12.8v23.58h-12.8v-23.58ZM229.52,322.85h12.8v23.58h-12.8v-23.58ZM196.71,322.85h12.8v23.58h-12.8v-23.58ZM164.7,322.85h12.8v23.58h-12.8v-23.58ZM131.89,322.85h13.6v23.58h-13.6v-23.58ZM99.88,322.85h12.8v23.58h-12.8v-23.58ZM67.87,322.85h12.8v23.58h-12.8v-23.58Z"/>
    <path class="cls-5" d="M745.69,303.98h12.8v18.86h-12.8v-18.86ZM713.68,303.98h12.8v18.86h-12.8v-18.86ZM681.67,303.98h12.8v18.86h-12.8v-18.86ZM648.86,303.98h12.8v18.86h-12.8v-18.86ZM616.85,303.98h12.8v18.86h-12.8v-18.86ZM584.04,303.98h13.6v18.86h-13.6v-18.86ZM552.03,303.98h12.8v18.86h-12.8v-18.86ZM520.02,303.98h12.8v18.86h-12.8v-18.86ZM487.2,303.98h13.6v18.86h-13.6v-18.86ZM455.19,303.98h12.8v18.86h-12.8v-18.86ZM423.18,303.98h12.8v18.86h-12.8v-18.86ZM390.37,303.98h12.8v18.86h-12.8v-18.86ZM358.36,303.98h12.8v18.86h-12.8v-18.86ZM326.35,303.98h12.8v18.86h-12.8v-18.86ZM293.54,303.98h12.8v18.86h-12.8v-18.86ZM261.53,303.98h12.8v18.86h-12.8v-18.86ZM229.52,303.98h12.8v18.86h-12.8v-18.86ZM196.71,303.98h12.8v18.86h-12.8v-18.86ZM164.7,303.98h12.8v18.86h-12.8v-18.86ZM131.89,303.98h13.6v18.86h-13.6v-18.86ZM99.88,303.98h12.8v18.86h-12.8v-18.86Z"/>
    <path class="cls-1" d="M745.69,287.48h12.8v16.5h-12.8v-16.5ZM713.68,287.48h12.8v16.5h-12.8v-16.5ZM681.67,287.48h12.8v16.5h-12.8v-16.5ZM648.86,287.48h12.8v16.5h-12.8v-16.5ZM616.85,287.48h12.8v16.5h-12.8v-16.5ZM584.04,287.48h13.6v16.5h-13.6v-16.5ZM552.03,287.48h12.8v16.5h-12.8v-16.5ZM520.02,287.48h12.8v16.5h-12.8v-16.5ZM487.2,287.48h13.6v16.5h-13.6v-16.5ZM455.19,287.48h12.8v16.5h-12.8v-16.5ZM423.18,287.48h12.8v16.5h-12.8v-16.5ZM390.37,287.48h12.8v16.5h-12.8v-16.5ZM358.36,287.48h12.8v16.5h-12.8v-16.5ZM326.35,287.48h12.8v16.5h-12.8v-16.5ZM293.54,287.48h12.8v16.5h-12.8v-16.5ZM261.53,287.48h12.8v16.5h-12.8v-16.5ZM229.52,287.48h12.8v16.5h-12.8v-16.5ZM196.71,287.48h12.8v16.5h-12.8v-16.5ZM164.7,287.48h12.8v16.5h-12.8v-16.5ZM131.89,287.48h13.6v16.5h-13.6v-16.5Z"/>
    <path class="cls-4" d="M745.69,272.15h12.8v15.33h-12.8v-15.33ZM713.68,272.15h12.8v15.33h-12.8v-15.33ZM681.67,272.15h12.8v15.33h-12.8v-15.33ZM648.86,272.15h12.8v15.33h-12.8v-15.33ZM616.85,272.15h12.8v15.33h-12.8v-15.33ZM584.04,272.15h13.6v15.33h-13.6v-15.33ZM552.03,272.15h12.8v15.33h-12.8v-15.33ZM520.02,272.15h12.8v15.33h-12.8v-15.33ZM487.2,272.15h13.6v15.33h-13.6v-15.33ZM455.19,272.15h12.8v15.33h-12.8v-15.33ZM423.18,272.15h12.8v15.33h-12.8v-15.33ZM390.37,272.15h12.8v15.33h-12.8v-15.33ZM358.36,272.15h12.8v15.33h-12.8v-15.33ZM326.35,272.15h12.8v15.33h-12.8v-15.33ZM293.54,272.15h12.8v15.33h-12.8v-15.33ZM261.53,272.15h12.8v15.33h-12.8v-15.33ZM229.52,272.15h12.8v15.33h-12.8v-15.33ZM196.71,272.15h12.8v15.33h-12.8v-15.33ZM164.7,272.15h12.8v15.33h-12.8v-15.33Z"/>
    <path class="cls-3" d="M745.69,258.01h12.8v14.15h-12.8v-14.15ZM713.68,258.01h12.8v14.15h-12.8v-14.15ZM681.67,258.01h12.8v14.15h-12.8v-14.15ZM648.86,258.01h12.8v14.15h-12.8v-14.15ZM616.85,258.01h12.8v14.15h-12.8v-14.15ZM584.04,258.01h13.6v14.15h-13.6v-14.15ZM552.03,258.01h12.8v14.15h-12.8v-14.15ZM520.02,258.01h12.8v14.15h-12.8v-14.15ZM487.2,258.01h13.6v14.15h-13.6v-14.15ZM455.19,258.01h12.8v14.15h-12.8v-14.15ZM423.18,258.01h12.8v14.15h-12.8v-14.15ZM390.37,258.01h12.8v14.15h-12.8v-14.15ZM358.36,258.01h12.8v14.15h-12.8v-14.15ZM326.35,258.01h12.8v14.15h-12.8v-14.15ZM293.54,258.01h12.8v14.15h-12.8v-14.15ZM261.53,258.01h12.8v14.15h-12.8v-14.15ZM229.52,258.01h12.8v14.15h-12.8v-14.15ZM196.71,258.01h12.8v14.15h-12.8v-14.15Z"/>
    <path class="cls-7" d="M745.69,242.68h12.8v15.33h-12.8v-15.33ZM713.68,242.68h12.8v15.33h-12.8v-15.33ZM681.67,242.68h12.8v15.33h-12.8v-15.33ZM648.86,242.68h12.8v15.33h-12.8v-15.33ZM616.85,242.68h12.8v15.33h-12.8v-15.33ZM584.04,242.68h13.6v15.33h-13.6v-15.33ZM552.03,242.68h12.8v15.33h-12.8v-15.33ZM520.02,242.68h12.8v15.33h-12.8v-15.33ZM487.2,242.68h13.6v15.33h-13.6v-15.33ZM455.19,242.68h12.8v15.33h-12.8v-15.33ZM423.18,242.68h12.8v15.33h-12.8v-15.33ZM390.37,242.68h12.8v15.33h-12.8v-15.33ZM358.36,242.68h12.8v15.33h-12.8v-15.33ZM326.35,242.68h12.8v15.33h-12.8v-15.33ZM293.54,242.68h12.8v15.33h-12.8v-15.33ZM261.53,242.68h12.8v15.33h-12.8v-15.33ZM229.52,242.68h12.8v15.33h-12.8v-15.33Z"/>
    <path class="cls-6" d="M745.69,227.36h12.8v15.33h-12.8v-15.33ZM713.68,227.36h12.8v15.33h-12.8v-15.33ZM681.67,227.36h12.8v15.33h-12.8v-15.33ZM648.86,227.36h12.8v15.33h-12.8v-15.33ZM616.85,227.36h12.8v15.33h-12.8v-15.33ZM584.04,227.36h13.6v15.33h-13.6v-15.33ZM552.03,227.36h12.8v15.33h-12.8v-15.33ZM520.02,227.36h12.8v15.33h-12.8v-15.33ZM487.2,227.36h13.6v15.33h-13.6v-15.33ZM455.19,227.36h12.8v15.33h-12.8v-15.33ZM423.18,227.36h12.8v15.33h-12.8v-15.33ZM390.37,227.36h12.8v15.33h-12.8v-15.33ZM358.36,227.36h12.8v15.33h-12.8v-15.33ZM326.35,227.36h12.8v15.33h-12.8v-15.33ZM293.54,227.36h12.8v15.33h-12.8v-15.33ZM261.53,227.36h12.8v15.33h-12.8v-15.33Z"/>
    <path class="cls-5" d="M745.69,212.03h12.8v15.33h-12.8v-15.33ZM713.68,212.03h12.8v15.33h-12.8v-15.33ZM681.67,212.03h12.8v15.33h-12.8v-15.33ZM648.86,212.03h12.8v15.33h-12.8v-15.33ZM616.85,212.03h12.8v15.33h-12.8v-15.33ZM584.04,212.03h13.6v15.33h-13.6v-15.33ZM552.03,212.03h12.8v15.33h-12.8v-15.33ZM520.02,212.03h12.8v15.33h-12.8v-15.33ZM487.2,212.03h13.6v15.33h-13.6v-15.33ZM455.19,212.03h12.8v15.33h-12.8v-15.33ZM423.18,212.03h12.8v15.33h-12.8v-15.33ZM390.37,212.03h12.8v15.33h-12.8v-15.33ZM358.36,212.03h12.8v15.33h-12.8v-15.33ZM326.35,212.03h12.8v15.33h-12.8v-15.33ZM293.54,212.03h12.8v15.33h-12.8v-15.33Z"/>
    <path class="cls-1" d="M745.69,197.88h12.8v14.15h-12.8v-14.15ZM713.68,197.88h12.8v14.15h-12.8v-14.15ZM681.67,197.88h12.8v14.15h-12.8v-14.15ZM648.86,197.88h12.8v14.15h-12.8v-14.15ZM616.85,197.88h12.8v14.15h-12.8v-14.15ZM584.04,197.88h13.6v14.15h-13.6v-14.15ZM552.03,197.88h12.8v14.15h-12.8v-14.15ZM520.02,197.88h12.8v14.15h-12.8v-14.15ZM487.2,197.88h13.6v14.15h-13.6v-14.15ZM455.19,197.88h12.8v14.15h-12.8v-14.15ZM423.18,197.88h12.8v14.15h-12.8v-14.15ZM390.37,197.88h12.8v14.15h-12.8v-14.15ZM358.36,197.88h12.8v14.15h-12.8v-14.15ZM326.35,197.88h12.8v14.15h-12.8v-14.15Z"/>
    <path class="cls-4" d="M745.69,186.09h12.8v11.79h-12.8v-11.79ZM713.68,186.09h12.8v11.79h-12.8v-11.79ZM681.67,186.09h12.8v11.79h-12.8v-11.79ZM648.86,186.09h12.8v11.79h-12.8v-11.79ZM616.85,186.09h12.8v11.79h-12.8v-11.79ZM584.04,186.09h13.6v11.79h-13.6v-11.79ZM552.03,186.09h12.8v11.79h-12.8v-11.79ZM520.02,186.09h12.8v11.79h-12.8v-11.79ZM487.2,186.09h13.6v11.79h-13.6v-11.79ZM455.19,186.09h12.8v11.79h-12.8v-11.79ZM423.18,186.09h12.8v11.79h-12.8v-11.79ZM390.37,186.09h12.8v11.79h-12.8v-11.79ZM358.36,186.09h12.8v11.79h-12.8v-11.79Z"/>
    <path class="cls-7" d="M745.69,174.31h12.8v11.79h-12.8v-11.79ZM713.68,174.31h12.8v11.79h-12.8v-11.79ZM681.67,174.31h12.8v11.79h-12.8v-11.79ZM648.86,174.31h12.8v11.79h-12.8v-11.79ZM616.85,174.31h12.8v11.79h-12.8v-11.79ZM584.04,174.31h13.6v11.79h-13.6v-11.79ZM552.03,174.31h12.8v11.79h-12.8v-11.79ZM520.02,174.31h12.8v11.79h-12.8v-11.79ZM487.2,174.31h13.6v11.79h-13.6v-11.79ZM455.19,174.31h12.8v11.79h-12.8v-11.79ZM423.18,174.31h12.8v11.79h-12.8v-11.79ZM390.37,174.31h12.8v11.79h-12.8v-11.79Z"/>
    <path class="cls-1" d="M745.69,162.52h12.8v11.79h-12.8v-11.79ZM713.68,162.52h12.8v11.79h-12.8v-11.79ZM681.67,162.52h12.8v11.79h-12.8v-11.79ZM648.86,162.52h12.8v11.79h-12.8v-11.79ZM616.85,162.52h12.8v11.79h-12.8v-11.79ZM584.04,162.52h13.6v11.79h-13.6v-11.79ZM552.03,162.52h12.8v11.79h-12.8v-11.79ZM520.02,162.52h12.8v11.79h-12.8v-11.79ZM487.2,162.52h13.6v11.79h-13.6v-11.79ZM455.19,162.52h12.8v11.79h-12.8v-11.79ZM423.18,162.52h12.8v11.79h-12.8v-11.79Z"/>
    <path class="cls-3" d="M745.69,151.91h12.8v10.61h-12.8v-10.61ZM713.68,151.91h12.8v10.61h-12.8v-10.61ZM681.67,151.91h12.8v10.61h-12.8v-10.61ZM648.86,151.91h12.8v10.61h-12.8v-10.61ZM616.85,151.91h12.8v10.61h-12.8v-10.61ZM584.04,151.91h13.6v10.61h-13.6v-10.61ZM552.03,151.91h12.8v10.61h-12.8v-10.61ZM520.02,151.91h12.8v10.61h-12.8v-10.61ZM487.2,151.91h13.6v10.61h-13.6v-10.61ZM455.19,151.91h12.8v10.61h-12.8v-10.61Z"/>
    <path class="cls-7" d="M745.69,138.94h12.8v12.97h-12.8v-12.97ZM713.68,138.94h12.8v12.97h-12.8v-12.97ZM681.67,138.94h12.8v12.97h-12.8v-12.97ZM648.86,138.94h12.8v12.97h-12.8v-12.97ZM616.85,138.94h12.8v12.97h-12.8v-12.97ZM584.04,138.94h13.6v12.97h-13.6v-12.97ZM552.03,138.94h12.8v12.97h-12.8v-12.97ZM520.02,138.94h12.8v12.97h-12.8v-12.97ZM487.2,138.94h13.6v12.97h-13.6v-12.97Z"/>
    <path class="cls-4" d="M745.69,128.33h12.8v10.61h-12.8v-10.61ZM713.68,128.33h12.8v10.61h-12.8v-10.61ZM681.67,128.33h12.8v10.61h-12.8v-10.61ZM648.86,128.33h12.8v10.61h-12.8v-10.61ZM616.85,128.33h12.8v10.61h-12.8v-10.61ZM584.04,128.33h13.6v10.61h-13.6v-10.61ZM552.03,128.33h12.8v10.61h-12.8v-10.61ZM520.02,128.33h12.8v10.61h-12.8v-10.61Z"/>
    <path class="cls-6" d="M745.69,116.54h12.8v11.79h-12.8v-11.79ZM713.68,116.54h12.8v11.79h-12.8v-11.79ZM681.67,116.54h12.8v11.79h-12.8v-11.79ZM648.86,116.54h12.8v11.79h-12.8v-11.79ZM616.85,116.54h12.8v11.79h-12.8v-11.79ZM584.04,116.54h13.6v11.79h-13.6v-11.79ZM552.03,116.54h12.8v11.79h-12.8v-11.79Z"/>
    <path class="cls-8" d="M745.69,104.75h12.8v11.79h-12.8v-11.79ZM713.68,104.75h12.8v11.79h-12.8v-11.79ZM681.67,104.75h12.8v11.79h-12.8v-11.79ZM648.86,104.75h12.8v11.79h-12.8v-11.79ZM616.85,104.75h12.8v11.79h-12.8v-11.79ZM584.04,104.75h13.6v11.79h-13.6v-11.79Z"/>
    <path class="cls-1" d="M745.69,92.96h12.8v11.79h-12.8v-11.79ZM713.68,92.96h12.8v11.79h-12.8v-11.79ZM681.67,92.96h12.8v11.79h-12.8v-11.79ZM648.86,92.96h12.8v11.79h-12.8v-11.79ZM616.85,92.96h12.8v11.79h-12.8v-11.79Z"/>
    <path class="cls-6" d="M745.69,82.35h12.8v10.61h-12.8v-10.61ZM713.68,82.35h12.8v10.61h-12.8v-10.61ZM681.67,82.35h12.8v10.61h-12.8v-10.61ZM648.86,82.35h12.8v10.61h-12.8v-10.61Z"/>
    <path class="cls-4" d="M745.69,72.92h12.8v9.43h-12.8v-9.43ZM713.68,72.92h12.8v9.43h-12.8v-9.43ZM681.67,72.92h12.8v9.43h-12.8v-9.43Z"/>
    <path class="cls-1" d="M745.69,62.31h12.8v10.61h-12.8v-10.61ZM713.68,62.31h12.8v10.61h-12.8v-10.61Z"/>
    <rect class="cls-5" x="745.69" y="59.95" width="12.8" height="2.36"/>
    <line class="cls-9" x1="25.45" y1="353.5" x2="768.9" y2="353.5"/>
    <path class="cls-2" d="M7.49,354.19c0,1.59-.84,2.85-3.44,2.85s-3.44-1.26-3.44-2.85v-4.9c0-1.59.84-2.85,3.44-2.85s3.44,1.26,3.44,2.85v4.9ZM2.55,353.99c0,.92.27,1.34,1.5,1.34s1.5-.41,1.5-1.34v-4.52c0-.92-.27-1.34-1.5-1.34s-1.5.41-1.5,1.34v4.52Z"/>
    <path class="cls-2" d="M1.96,308.71l-.81-1.53,2.93-1.69h1.75v10.28h-1.94v-8.13l-1.93,1.07Z"/>
    <path class="cls-2" d="M.91,270.48c1.21-1.32,1.37-1.48,2.47-2.75,1.5-1.73,1.73-1.99,1.73-3.02v-.27c0-.78-.32-1-1.48-1-.7,0-1.7.14-2.5.32l-.27-1.62c.72-.21,1.73-.41,2.88-.41,2.45,0,3.31.84,3.31,2.5v.37c0,1.46-.13,1.8-1.61,3.61-.89,1.1-1.27,1.54-1.89,2.26h3.53v1.7H.91v-1.67Z"/>
    <path class="cls-2" d="M1.14,226.75c.78.16,1.53.24,2.28.24,1.4,0,1.66-.29,1.66-1.11v-.62c0-.78-.35-1.02-1.15-1.02H1.65v-1.73h1.93c1.07,0,1.31-.37,1.31-1.11v-.62c0-.76-.35-.97-1.46-.97-.78,0-1.53.1-2.2.22l-.21-1.64c.7-.17,1.67-.29,2.58-.29,2.5,0,3.23.83,3.23,2.34v.99c0,1.03-.32,1.56-1.15,1.92.91.3,1.34.84,1.34,1.93v.91c0,1.59-.78,2.51-3.53,2.51-.72,0-1.93-.13-2.55-.33l.21-1.61Z"/>
    <path class="cls-2" d="M6.72,182.66v2.26h-1.91v-2.26H0v-1.8l4.12-6.22h2.59v6.37h1.35v1.66h-1.35ZM4.81,181v-4.44l-2.86,4.44h2.86Z"/>
    <path class="cls-2" d="M1.33,131.02h5.67v1.69h-3.72v2.56c.57.02.83.03,1.43.06,1.86.1,2.47,1.03,2.47,2.43v.97c0,1.67-.6,2.72-3.45,2.72-.97,0-1.96-.16-2.71-.38l.24-1.59c.78.18,1.67.27,2.43.27,1.45,0,1.54-.35,1.54-1.19v-.51c0-.75-.24-1.07-1.37-1.11-1.15-.05-1.69-.06-2.53-.08v-5.84Z"/>
    <path class="cls-2" d="M2.76,91.84c.56-.19,1.21-.29,1.89-.29,1.93,0,2.71.8,2.71,2.63v.76c0,1.66-.76,2.9-3.26,2.9-2.74,0-3.28-1.21-3.28-3.04v-3.87c0-2.8,1.5-3.69,4.39-3.69.59,0,1.35.08,1.83.19l-.13,1.62c-.46-.1-1.16-.14-1.5-.14-1.88,0-2.66.32-2.66,1.94v.99ZM2.76,93.55v1.45c0,.88.33,1.16,1.34,1.16s1.32-.35,1.32-1.16v-.78c0-.76-.37-1-1.07-1-.57,0-1.15.14-1.59.33Z"/>
    <path class="cls-2" d="M.79,43.78h6.45v1.64l-3.68,8.64H1.54l3.66-8.58H.79v-1.7Z"/>
    <path class="cls-2" d="M5.93,5.2c1.19.59,1.51,1.21,1.51,2.08v.67c0,1.88-.91,2.64-3.39,2.64s-3.39-.76-3.39-2.64v-.67c0-.88.33-1.5,1.51-2.08-.99-.57-1.26-1.19-1.26-1.97v-.72C.91.97,1.76,0,4.05,0s3.14.97,3.14,2.51v.72c0,.78-.25,1.4-1.26,1.97ZM4.05,6.02c-1.35.53-1.51.81-1.51,1.48v.43c0,.78.37,1.07,1.51,1.07s1.51-.29,1.51-1.07v-.43c0-.67-.16-.95-1.51-1.48ZM4.05,4.47c1.1-.43,1.26-.65,1.26-1.24v-.67c0-.64-.25-.97-1.26-.97s-1.26.33-1.26.97v.67c0,.59.16.81,1.26,1.24Z"/>
    <g>
      <path class="cls-2" d="M22.64,404.29c-.08-1.79-.08-2.01-.2-3.69-.17-2.29-.18-2.63-.91-3.37l-.19-.19c-.55-.55-.93-.48-1.76.34-.5.5-1.1,1.31-1.54,1.99l-1.34-.96c.36-.65.93-1.52,1.74-2.33,1.73-1.73,2.94-1.74,4.11-.57l.26.26c1.04,1.04,1.18,1.36,1.42,3.69.15,1.41.19,1.99.26,2.94l2.5-2.5,1.2,1.21-4.37,4.37-1.18-1.18Z"/>
      <path class="cls-2" d="M32.83,392.66c1.13,1.13,1.42,2.61-.42,4.45-1.83,1.83-3.32,1.54-4.44.42l-3.47-3.47c-1.12-1.12-1.42-2.61.42-4.45,1.83-1.83,3.32-1.54,4.45-.42l3.47,3.47ZM29.21,396.01c.65.65,1.14.75,2-.11.87-.87.76-1.35.11-2l-3.2-3.2c-.65-.65-1.14-.75-2,.11-.87.87-.77,1.35-.11,2l3.2,3.2Z"/>
      <path class="cls-2" d="M39.44,386.06c1.13,1.12,1.42,2.61-.42,4.45-1.83,1.83-3.32,1.54-4.44.42l-3.47-3.47c-1.12-1.12-1.42-2.61.42-4.45,1.83-1.83,3.32-1.54,4.45-.42l3.47,3.47ZM35.81,389.41c.65.65,1.14.75,2-.11.87-.87.77-1.35.11-2l-3.2-3.2c-.65-.65-1.14-.75-2,.11-.87.87-.77,1.35-.11,2l3.2,3.2Z"/>
      <path class="cls-2" d="M41.71,385.23c-.08-1.79-.08-2.01-.2-3.69-.17-2.28-.18-2.63-.91-3.36l-.19-.19c-.55-.55-.93-.48-1.76.34-.5.5-1.1,1.31-1.54,1.99l-1.34-.96c.36-.65.93-1.52,1.74-2.33,1.73-1.73,2.94-1.74,4.11-.57l.26.26c1.04,1.04,1.18,1.36,1.42,3.69.15,1.41.19,1.99.26,2.94l2.5-2.5,1.2,1.2-4.37,4.37-1.18-1.18Z"/>
    </g>
    <g>
      <path class="cls-2" d="M54.98,404.25c-.08-1.79-.08-2.01-.2-3.69-.17-2.28-.18-2.63-.91-3.37l-.19-.19c-.55-.55-.93-.48-1.76.34-.5.5-1.1,1.31-1.54,1.99l-1.34-.96c.36-.65.93-1.52,1.74-2.33,1.73-1.73,2.94-1.74,4.11-.57l.26.26c1.04,1.04,1.18,1.36,1.42,3.69.15,1.41.19,1.99.26,2.94l2.5-2.5,1.2,1.21-4.37,4.37-1.18-1.18Z"/>
      <path class="cls-2" d="M65.18,392.62c1.13,1.12,1.42,2.61-.42,4.44-1.83,1.83-3.32,1.54-4.44.42l-3.47-3.47c-1.12-1.12-1.42-2.61.42-4.45,1.83-1.83,3.32-1.54,4.44-.42l3.47,3.47ZM61.55,395.97c.65.65,1.14.75,2-.11.87-.87.76-1.35.11-2l-3.2-3.2c-.65-.65-1.14-.75-2,.11-.87.87-.77,1.35-.11,2l3.2,3.2Z"/>
      <path class="cls-2" d="M71.78,386.01c1.12,1.13,1.42,2.61-.42,4.45-1.83,1.83-3.32,1.54-4.44.42l-3.47-3.47c-1.12-1.12-1.42-2.61.42-4.45,1.83-1.83,3.32-1.54,4.45-.42l3.47,3.47ZM68.15,389.37c.65.65,1.14.75,2-.11.87-.87.77-1.35.11-2l-3.2-3.2c-.65-.65-1.14-.75-2,.11-.87.87-.77,1.35-.11,2l3.2,3.2Z"/>
      <path class="cls-2" d="M74.14,384.94c.66-.44,1.25-.91,1.78-1.44.99-.99.97-1.37.38-1.96l-.44-.44c-.55-.55-.97-.47-1.53.09l-1.61,1.61-1.23-1.23,1.36-1.36c.75-.75.66-1.18.14-1.71l-.44-.44c-.54-.54-.93-.44-1.72.35-.55.55-1.01,1.15-1.4,1.71l-1.31-1.01c.37-.62.98-1.38,1.62-2.03,1.77-1.77,2.87-1.7,3.94-.63l.7.7c.73.73.88,1.33.55,2.17.86-.43,1.54-.35,2.31.42l.64.64c1.13,1.13,1.23,2.33-.72,4.28-.51.51-1.45,1.27-2.04,1.56l-.99-1.28Z"/>
    </g>
    <g>
      <path class="cls-2" d="M86.46,405.07c-.08-1.79-.08-2.01-.2-3.69-.17-2.28-.18-2.63-.91-3.36l-.19-.19c-.55-.55-.93-.48-1.76.34-.5.5-1.1,1.31-1.54,1.99l-1.34-.96c.36-.65.93-1.52,1.74-2.33,1.73-1.73,2.94-1.74,4.11-.57l.26.26c1.04,1.04,1.18,1.36,1.42,3.69.15,1.41.19,1.99.26,2.94l2.5-2.5,1.2,1.2-4.37,4.37-1.18-1.18Z"/>
      <path class="cls-2" d="M96.65,393.44c1.13,1.13,1.42,2.61-.42,4.45-1.83,1.83-3.32,1.54-4.45.42l-3.47-3.47c-1.12-1.12-1.42-2.61.42-4.45,1.83-1.83,3.32-1.54,4.44-.42l3.47,3.47ZM93.03,396.79c.65.65,1.14.75,2-.11.87-.87.77-1.35.11-2l-3.2-3.2c-.65-.65-1.14-.75-2,.11-.87.87-.76,1.35-.11,2l3.2,3.2Z"/>
      <path class="cls-2" d="M103.25,386.83c1.13,1.13,1.42,2.61-.42,4.45-1.83,1.83-3.32,1.54-4.45.42l-3.47-3.47c-1.12-1.12-1.42-2.61.42-4.45,1.83-1.83,3.32-1.54,4.45-.42l3.47,3.47ZM99.63,390.19c.65.65,1.14.75,2-.11.87-.87.77-1.35.11-2l-3.2-3.2c-.65-.65-1.14-.75-2,.11-.87.87-.76,1.35-.11,2l3.2,3.2Z"/>
      <path class="cls-2" d="M109.63,381.06l1.6,1.6-1.35,1.35-1.6-1.6-3.4,3.4-1.27-1.27-1.49-7.31,1.83-1.83,4.5,4.5.96-.96,1.17,1.17-.96.96ZM107.11,381.24l-3.14-3.14,1.11,5.17,2.03-2.03Z"/>
    </g>
    <g>
      <path class="cls-2" d="M119.46,404.36c-.08-1.79-.08-2.01-.2-3.69-.17-2.29-.18-2.63-.91-3.37l-.19-.19c-.55-.55-.93-.48-1.76.34-.5.5-1.1,1.31-1.54,1.99l-1.34-.96c.36-.65.93-1.52,1.74-2.33,1.73-1.73,2.94-1.74,4.11-.57l.26.26c1.04,1.04,1.18,1.36,1.42,3.69.15,1.41.19,1.99.26,2.94l2.5-2.5,1.2,1.21-4.37,4.37-1.18-1.18Z"/>
      <path class="cls-2" d="M129.65,392.73c1.13,1.13,1.42,2.61-.42,4.45-1.83,1.83-3.32,1.54-4.44.42l-3.47-3.47c-1.12-1.12-1.42-2.61.42-4.45,1.83-1.83,3.32-1.54,4.44-.42l3.47,3.47ZM126.03,396.08c.65.65,1.14.75,2-.11.87-.87.76-1.35.11-2l-3.2-3.2c-.65-.65-1.14-.75-2,.11-.87.87-.77,1.35-.11,2l3.2,3.2Z"/>
      <path class="cls-2" d="M136.26,386.13c1.13,1.13,1.42,2.61-.42,4.45-1.83,1.83-3.32,1.54-4.44.42l-3.47-3.47c-1.12-1.12-1.42-2.61.42-4.45,1.83-1.83,3.32-1.54,4.44-.42l3.47,3.47ZM132.63,389.48c.65.65,1.14.75,2-.11.87-.87.77-1.35.11-2l-3.2-3.2c-.65-.65-1.14-.75-2,.11-.87.87-.76,1.35-.11,2l3.2,3.2Z"/>
      <path class="cls-2" d="M132.8,378.85l4.01-4.01,1.19,1.19-2.63,2.63,1.81,1.81c.42-.39.61-.56,1.06-.97,1.38-1.25,2.48-1.01,3.47-.02l.69.69c1.18,1.18,1.5,2.35-.52,4.37-.69.69-1.5,1.27-2.18,1.64l-.96-1.29c.67-.43,1.37-.99,1.91-1.53,1.02-1.02.84-1.34.25-1.94l-.36-.36c-.53-.53-.92-.58-1.76.18-.84.78-1.24,1.15-1.85,1.73l-4.13-4.13Z"/>
    </g>
    <g>
      <path class="cls-2" d="M151.49,404.63c-.08-1.79-.08-2.01-.2-3.69-.17-2.28-.18-2.63-.91-3.36l-.19-.19c-.55-.55-.93-.48-1.76.34-.5.5-1.1,1.31-1.54,1.99l-1.34-.96c.36-.65.93-1.52,1.74-2.33,1.73-1.73,2.94-1.74,4.11-.57l.26.26c1.04,1.04,1.18,1.36,1.42,3.69.15,1.41.19,1.99.26,2.94l2.5-2.5,1.21,1.2-4.37,4.37-1.18-1.18Z"/>
      <path class="cls-2" d="M161.68,393c1.13,1.12,1.42,2.61-.42,4.45-1.83,1.83-3.32,1.54-4.44.42l-3.47-3.47c-1.12-1.12-1.42-2.61.42-4.45,1.83-1.83,3.32-1.54,4.45-.42l3.47,3.47ZM158.06,396.35c.65.65,1.14.75,2-.11.87-.87.77-1.35.11-2l-3.2-3.2c-.65-.65-1.14-.75-2,.11-.87.87-.76,1.35-.11,2l3.2,3.2Z"/>
      <path class="cls-2" d="M168.28,386.4c1.13,1.12,1.42,2.61-.42,4.44-1.83,1.83-3.32,1.54-4.45.42l-3.47-3.47c-1.12-1.12-1.42-2.61.42-4.45,1.83-1.83,3.32-1.54,4.45-.42l3.47,3.47ZM164.66,389.75c.65.65,1.14.75,2-.11.87-.87.76-1.35.11-2l-3.2-3.2c-.65-.65-1.14-.75-2,.11-.87.87-.76,1.35-.11,2l3.2,3.2Z"/>
      <path class="cls-2" d="M169.11,381.11c.26-.53.65-1.06,1.14-1.54,1.36-1.36,2.48-1.35,3.77-.06l.54.54c1.17,1.17,1.51,2.59-.26,4.35-1.94,1.94-3.17,1.46-4.47.17l-2.73-2.73c-1.98-1.98-1.55-3.67.5-5.72.42-.42,1.01-.9,1.43-1.16l1.06,1.24c-.39.26-.92.72-1.16.96-1.33,1.33-1.65,2.1-.51,3.25l.7.7ZM170.33,382.32l1.02,1.02c.62.62,1.06.59,1.77-.12s.69-1.18.11-1.76l-.55-.55c-.54-.54-.97-.45-1.46.04-.41.41-.71.91-.89,1.36Z"/>
    </g>
    <g>
      <path class="cls-2" d="M184.58,403.83c-.08-1.79-.08-2.01-.2-3.69-.17-2.29-.18-2.63-.91-3.36l-.19-.19c-.55-.55-.93-.48-1.76.34-.5.5-1.1,1.31-1.54,1.99l-1.34-.96c.36-.65.93-1.52,1.74-2.33,1.73-1.73,2.94-1.74,4.11-.57l.26.26c1.04,1.04,1.18,1.36,1.42,3.69.15,1.41.19,1.99.26,2.94l2.5-2.5,1.2,1.21-4.37,4.37-1.18-1.18Z"/>
      <path class="cls-2" d="M194.77,392.2c1.13,1.13,1.42,2.61-.42,4.45-1.83,1.83-3.32,1.54-4.44.42l-3.47-3.47c-1.12-1.12-1.42-2.61.42-4.45,1.83-1.83,3.32-1.54,4.45-.42l3.47,3.47ZM191.15,395.55c.65.65,1.14.75,2-.11.87-.87.76-1.35.11-2l-3.2-3.2c-.65-.65-1.14-.75-2,.11-.87.87-.77,1.35-.11,2l3.2,3.2Z"/>
      <path class="cls-2" d="M201.38,385.6c1.13,1.13,1.42,2.61-.42,4.45-1.83,1.83-3.32,1.54-4.44.42l-3.47-3.47c-1.12-1.12-1.42-2.61.42-4.45,1.83-1.83,3.32-1.54,4.45-.42l3.47,3.47ZM197.75,388.95c.65.65,1.14.75,2-.11.87-.87.77-1.35.11-2l-3.2-3.2c-.65-.65-1.14-.75-2,.11-.87.87-.77,1.35-.11,2l3.2,3.2Z"/>
      <path class="cls-2" d="M197.24,378.99l4.56-4.56,1.16,1.16,3.51,8.71-1.43,1.43-3.48-8.65-3.12,3.12-1.2-1.2Z"/>
    </g>
    <g>
      <path class="cls-2" d="M215.85,404.86c-.08-1.79-.08-2.01-.2-3.69-.17-2.28-.18-2.63-.91-3.36l-.19-.19c-.55-.55-.93-.48-1.76.34-.5.5-1.1,1.31-1.54,1.99l-1.34-.96c.36-.65.93-1.52,1.74-2.33,1.73-1.73,2.94-1.74,4.11-.57l.26.26c1.04,1.04,1.18,1.36,1.42,3.69.15,1.41.19,1.99.26,2.94l2.5-2.5,1.2,1.21-4.37,4.37-1.18-1.18Z"/>
      <path class="cls-2" d="M226.04,393.22c1.13,1.12,1.42,2.61-.42,4.44-1.83,1.83-3.32,1.54-4.44.42l-3.47-3.47c-1.12-1.12-1.42-2.61.42-4.45,1.83-1.83,3.32-1.54,4.45-.42l3.47,3.47ZM222.42,396.58c.65.65,1.14.75,2-.11.87-.87.77-1.35.11-2l-3.2-3.2c-.65-.65-1.14-.75-2,.11-.87.87-.77,1.35-.11,2l3.2,3.2Z"/>
      <path class="cls-2" d="M232.65,386.62c1.13,1.13,1.42,2.61-.42,4.45s-3.32,1.54-4.44.42l-3.47-3.47c-1.12-1.12-1.42-2.61.42-4.45s3.32-1.54,4.45-.42l3.47,3.47ZM229.02,389.97c.65.65,1.14.75,2-.11.87-.87.77-1.35.11-2l-3.2-3.2c-.65-.65-1.14-.75-2,.11-.87.87-.77,1.35-.11,2l3.2,3.2Z"/>
      <path class="cls-2" d="M236.26,379.41c1.26-.43,1.92-.21,2.54.4l.47.47c1.33,1.33,1.23,2.51-.53,4.26-1.76,1.76-2.94,1.86-4.26.53l-.47-.47c-.62-.62-.82-1.29-.41-2.54-1.1.29-1.73.04-2.28-.51l-.51-.51c-1.09-1.09-1.18-2.38.44-4s2.9-1.53,4-.44l.51.51c.55.55.81,1.17.51,2.28ZM234.41,380.22c.47-1.08.43-1.35.01-1.77l-.47-.47c-.45-.45-.87-.51-1.58.2-.71.71-.65,1.12-.2,1.58l.47.47c.42.42.69.46,1.77-.01ZM235.5,381.31c-.58,1.33-.49,1.64-.02,2.12l.3.3c.55.55,1.01.5,1.82-.32.81-.81.87-1.27.31-1.82l-.3-.3c-.47-.47-.79-.56-2.12.02Z"/>
    </g>
    <g>
      <path class="cls-2" d="M248.43,404.58c-.08-1.79-.08-2.01-.2-3.69-.17-2.28-.18-2.63-.91-3.37l-.19-.19c-.55-.55-.93-.48-1.76.34-.5.5-1.1,1.31-1.54,1.99l-1.34-.96c.36-.65.93-1.52,1.74-2.33,1.73-1.73,2.94-1.74,4.11-.57l.26.26c1.03,1.03,1.18,1.36,1.42,3.69.15,1.41.19,1.99.26,2.94l2.5-2.5,1.2,1.21-4.37,4.37-1.18-1.18Z"/>
      <path class="cls-2" d="M258.62,392.94c1.12,1.13,1.42,2.61-.42,4.45-1.83,1.83-3.32,1.54-4.44.42l-3.47-3.47c-1.12-1.12-1.42-2.61.42-4.45,1.83-1.83,3.32-1.54,4.45-.42l3.47,3.47ZM255,396.3c.65.65,1.14.75,2-.11.87-.87.77-1.35.11-2l-3.2-3.2c-.65-.65-1.14-.75-2,.11-.87.87-.77,1.35-.11,2l3.2,3.2Z"/>
      <path class="cls-2" d="M265.23,386.34c1.13,1.13,1.42,2.61-.42,4.45-1.83,1.83-3.32,1.54-4.44.42l-3.47-3.47c-1.12-1.12-1.42-2.61.42-4.44,1.83-1.83,3.32-1.54,4.44-.42l3.47,3.47ZM261.6,389.69c.65.65,1.14.75,2-.11.87-.87.76-1.35.11-2l-3.2-3.2c-.65-.65-1.14-.75-2,.11-.87.87-.77,1.35-.11,2l3.2,3.2Z"/>
      <path class="cls-2" d="M268.81,380.28c-.26.53-.65,1.06-1.14,1.54-1.36,1.36-2.48,1.35-3.77.06l-.54-.54c-1.26-1.26-1.45-2.64.26-4.36,1.94-1.94,3.17-1.46,4.47-.17l2.73,2.73c1.98,1.98,1.55,3.67-.5,5.72-.42.42-1.01.9-1.43,1.16l-1.02-1.27c.39-.26.89-.69,1.13-.92,1.45-1.45,1.54-2.22.51-3.25l-.7-.7ZM267.6,379.06l-1.02-1.02c-.62-.62-1.06-.59-1.77.12s-.69,1.18-.11,1.76l.55.55c.54.54.97.45,1.46-.04.41-.41.71-.91.89-1.36Z"/>
    </g>
    <g>
      <path class="cls-2" d="M282.32,402.98c-.08-1.79-.08-2.01-.2-3.69-.17-2.28-.18-2.63-.91-3.36l-.19-.19c-.55-.55-.93-.48-1.76.34-.5.5-1.1,1.31-1.54,1.99l-1.34-.96c.36-.65.93-1.52,1.74-2.33,1.73-1.73,2.94-1.74,4.11-.57l.26.26c1.04,1.04,1.18,1.36,1.42,3.69.15,1.41.19,1.99.26,2.94l2.5-2.5,1.2,1.2-4.37,4.37-1.18-1.18Z"/>
      <path class="cls-2" d="M292.51,391.35c1.13,1.13,1.42,2.61-.42,4.45-1.83,1.83-3.32,1.54-4.45.42l-3.47-3.47c-1.12-1.12-1.42-2.61.42-4.44,1.83-1.83,3.32-1.54,4.44-.42l3.47,3.47ZM288.89,394.7c.65.65,1.14.75,2-.11.87-.87.77-1.35.11-2l-3.2-3.2c-.65-.65-1.14-.75-2,.11-.87.87-.77,1.35-.11,2l3.2,3.2Z"/>
      <path class="cls-2" d="M291.06,386.61l-1.65-.51.88-3.26,1.24-1.24,7.27,7.27-1.37,1.37-5.75-5.75-.61,2.12Z"/>
      <path class="cls-2" d="M303.66,380.2c1.13,1.13,1.42,2.61-.42,4.45-1.83,1.83-3.32,1.54-4.45.42l-3.47-3.47c-1.12-1.12-1.42-2.61.42-4.45,1.83-1.83,3.32-1.54,4.44-.42l3.47,3.47ZM300.04,383.55c.65.65,1.14.75,2-.11.87-.87.77-1.35.11-2l-3.2-3.2c-.65-.65-1.14-.75-2,.11-.87.87-.76,1.35-.11,2l3.2,3.2Z"/>
    </g>
    <g>
      <path class="cls-2" d="M316.62,400.98c-.08-1.79-.08-2.01-.2-3.69-.17-2.28-.18-2.63-.91-3.36l-.19-.19c-.55-.55-.93-.48-1.76.34-.5.5-1.1,1.31-1.54,1.99l-1.34-.96c.36-.65.93-1.52,1.74-2.33,1.73-1.73,2.94-1.74,4.11-.57l.26.26c1.04,1.04,1.18,1.36,1.42,3.69.15,1.41.19,1.99.26,2.94l2.5-2.5,1.2,1.2-4.37,4.37-1.18-1.18Z"/>
      <path class="cls-2" d="M326.81,389.34c1.13,1.13,1.42,2.61-.42,4.45-1.83,1.83-3.32,1.54-4.45.42l-3.47-3.47c-1.12-1.12-1.42-2.61.42-4.44,1.83-1.83,3.32-1.54,4.44-.42l3.47,3.47ZM323.19,392.7c.65.65,1.14.75,2-.11.87-.87.77-1.35.11-2l-3.2-3.2c-.65-.65-1.14-.75-2,.11-.87.87-.76,1.35-.11,2l3.2,3.2Z"/>
      <path class="cls-2" d="M325.36,384.61l-1.65-.51.88-3.26,1.24-1.24,7.27,7.27-1.37,1.37-5.75-5.75-.61,2.12Z"/>
      <path class="cls-2" d="M329.96,380.01l-1.65-.51.88-3.26,1.24-1.24,7.27,7.27-1.37,1.37-5.75-5.75-.61,2.12Z"/>
    </g>
    <g>
      <path class="cls-2" d="M347.6,402.29c-.08-1.79-.08-2.01-.2-3.69-.17-2.28-.18-2.63-.91-3.36l-.19-.19c-.55-.55-.93-.48-1.76.34-.5.5-1.1,1.31-1.54,1.99l-1.34-.96c.36-.65.93-1.52,1.74-2.33,1.73-1.73,2.94-1.74,4.11-.57l.26.26c1.04,1.04,1.18,1.36,1.42,3.69.15,1.41.19,1.99.26,2.94l2.5-2.5,1.2,1.2-4.37,4.37-1.18-1.18Z"/>
      <path class="cls-2" d="M357.79,390.66c1.13,1.12,1.42,2.61-.42,4.45-1.83,1.83-3.32,1.54-4.45.42l-3.47-3.47c-1.12-1.12-1.42-2.61.42-4.44,1.83-1.83,3.32-1.54,4.44-.42l3.47,3.47ZM354.17,394.01c.65.65,1.14.75,2-.11.87-.87.77-1.35.11-2l-3.2-3.2c-.65-.65-1.14-.75-2,.11-.87.87-.77,1.35-.11,2l3.2,3.2Z"/>
      <path class="cls-2" d="M356.34,385.92l-1.65-.51.88-3.26,1.24-1.24,7.27,7.27-1.37,1.37-5.75-5.75-.61,2.12Z"/>
      <path class="cls-2" d="M364.66,385.23c-.08-1.79-.08-2.01-.2-3.69-.17-2.28-.18-2.63-.91-3.36l-.19-.19c-.55-.55-.93-.48-1.76.34-.5.5-1.1,1.31-1.54,1.99l-1.34-.96c.36-.65.93-1.52,1.74-2.33,1.73-1.73,2.94-1.74,4.11-.57l.26.26c1.04,1.04,1.18,1.36,1.42,3.69.15,1.41.19,1.99.26,2.94l2.5-2.5,1.2,1.2-4.37,4.37-1.18-1.18Z"/>
    </g>
    <g>
      <path class="cls-2" d="M379.99,402.19c-.08-1.79-.08-2.01-.2-3.69-.17-2.28-.18-2.63-.91-3.37l-.19-.19c-.55-.55-.93-.48-1.76.34-.5.5-1.1,1.31-1.54,1.99l-1.34-.96c.36-.65.93-1.52,1.74-2.33,1.73-1.73,2.94-1.74,4.11-.57l.26.26c1.04,1.04,1.18,1.36,1.42,3.69.15,1.41.19,1.99.26,2.94l2.5-2.5,1.2,1.2-4.37,4.37-1.18-1.18Z"/>
      <path class="cls-2" d="M390.19,390.56c1.13,1.13,1.42,2.61-.42,4.45-1.83,1.83-3.32,1.54-4.45.42l-3.47-3.47c-1.12-1.12-1.42-2.61.42-4.45,1.83-1.83,3.32-1.54,4.44-.42l3.47,3.47ZM386.56,393.91c.65.65,1.14.75,2-.11.87-.87.77-1.35.11-2l-3.2-3.2c-.65-.65-1.14-.75-2,.11-.87.87-.76,1.35-.11,2l3.2,3.2Z"/>
      <path class="cls-2" d="M388.73,385.82l-1.65-.51.88-3.26,1.24-1.24,7.27,7.27-1.37,1.37-5.75-5.75-.61,2.12Z"/>
      <path class="cls-2" d="M397.09,384.94c.66-.44,1.25-.91,1.78-1.44.99-.99.97-1.37.38-1.96l-.44-.44c-.55-.55-.97-.47-1.53.09l-1.61,1.61-1.23-1.23,1.36-1.36c.75-.75.67-1.18.14-1.71l-.44-.44c-.54-.54-.93-.44-1.72.35-.55.55-1.01,1.15-1.4,1.71l-1.31-1.01c.37-.62.98-1.38,1.62-2.03,1.77-1.77,2.87-1.7,3.94-.63l.7.7c.73.73.88,1.33.55,2.17.86-.43,1.54-.35,2.31.42l.64.64c1.13,1.12,1.23,2.33-.72,4.28-.51.51-1.45,1.27-2.04,1.56l-.99-1.28Z"/>
    </g>
    <g>
      <path class="cls-2" d="M411.47,403.01c-.08-1.79-.08-2.01-.2-3.69-.17-2.29-.18-2.63-.91-3.37l-.19-.19c-.55-.55-.93-.48-1.76.34-.5.5-1.1,1.31-1.54,1.99l-1.34-.96c.36-.65.93-1.52,1.74-2.33,1.73-1.73,2.94-1.74,4.11-.57l.26.26c1.03,1.03,1.18,1.36,1.42,3.69.15,1.41.19,1.99.26,2.94l2.5-2.5,1.2,1.21-4.37,4.37-1.18-1.18Z"/>
      <path class="cls-2" d="M421.66,391.38c1.13,1.13,1.42,2.61-.42,4.45-1.83,1.83-3.32,1.54-4.44.42l-3.47-3.47c-1.12-1.12-1.42-2.61.42-4.45,1.83-1.83,3.32-1.54,4.45-.42l3.47,3.47ZM418.04,394.73c.65.65,1.14.75,2-.11.87-.87.76-1.35.11-2l-3.2-3.2c-.65-.65-1.14-.75-2,.11-.87.87-.77,1.35-.11,2l3.2,3.2Z"/>
      <path class="cls-2" d="M420.2,386.64l-1.65-.51.88-3.26,1.24-1.24,7.27,7.27-1.37,1.37-5.75-5.75-.61,2.12Z"/>
      <path class="cls-2" d="M432.58,381.06l1.6,1.6-1.35,1.35-1.6-1.6-3.4,3.4-1.27-1.27-1.48-7.32,1.83-1.83,4.5,4.5.96-.96,1.17,1.17-.96.96ZM430.06,381.24l-3.14-3.14,1.11,5.17,2.03-2.03Z"/>
    </g>
    <g>
      <path class="cls-2" d="M444.47,402.3c-.08-1.79-.08-2.01-.2-3.69-.17-2.28-.18-2.63-.91-3.36l-.19-.19c-.55-.55-.93-.48-1.76.34-.5.5-1.1,1.31-1.54,1.99l-1.34-.96c.36-.65.93-1.52,1.74-2.33,1.73-1.73,2.94-1.74,4.11-.57l.26.26c1.03,1.03,1.18,1.36,1.42,3.69.15,1.41.19,1.99.26,2.94l2.5-2.5,1.2,1.21-4.37,4.37-1.18-1.18Z"/>
      <path class="cls-2" d="M454.66,390.67c1.13,1.13,1.42,2.61-.42,4.45-1.83,1.83-3.32,1.54-4.44.42l-3.47-3.47c-1.12-1.12-1.42-2.61.42-4.44,1.83-1.83,3.32-1.54,4.44-.42l3.47,3.47ZM451.04,394.02c.65.65,1.14.75,2-.11.87-.87.76-1.35.11-2l-3.2-3.2c-.65-.65-1.14-.75-2,.11-.87.87-.77,1.35-.11,2l3.2,3.2Z"/>
      <path class="cls-2" d="M453.21,385.93l-1.65-.51.88-3.26,1.24-1.24,7.27,7.27-1.37,1.37-5.75-5.75-.61,2.12Z"/>
      <path class="cls-2" d="M455.75,378.85l4.01-4.01,1.19,1.19-2.63,2.63,1.81,1.81c.42-.39.61-.56,1.06-.97,1.38-1.25,2.48-1.01,3.47-.02l.69.69c1.18,1.18,1.5,2.35-.52,4.37-.69.69-1.5,1.27-2.18,1.64l-.96-1.29c.68-.43,1.37-.99,1.91-1.53,1.02-1.02.84-1.34.25-1.94l-.36-.36c-.53-.53-.92-.58-1.75.18-.84.78-1.24,1.15-1.85,1.73l-4.13-4.13Z"/>
    </g>
    <g>
      <path class="cls-2" d="M476.5,402.57c-.08-1.79-.08-2.01-.2-3.69-.17-2.28-.18-2.63-.91-3.36l-.19-.19c-.55-.55-.93-.48-1.76.34-.5.5-1.1,1.31-1.54,1.99l-1.34-.96c.36-.65.93-1.52,1.74-2.33,1.73-1.73,2.94-1.74,4.11-.57l.26.26c1.04,1.04,1.18,1.36,1.42,3.69.15,1.41.19,1.99.26,2.94l2.5-2.5,1.2,1.2-4.37,4.37-1.18-1.18Z"/>
      <path class="cls-2" d="M486.69,390.94c1.13,1.13,1.42,2.61-.42,4.45-1.83,1.83-3.32,1.54-4.44.42l-3.47-3.47c-1.12-1.12-1.42-2.61.42-4.44,1.83-1.83,3.32-1.54,4.44-.42l3.47,3.47ZM483.07,394.29c.65.65,1.14.75,2-.11.87-.87.77-1.35.11-2l-3.2-3.2c-.65-.65-1.14-.75-2,.11-.87.87-.77,1.35-.11,2l3.2,3.2Z"/>
      <path class="cls-2" d="M485.23,386.2l-1.65-.51.88-3.26,1.24-1.24,7.27,7.27-1.37,1.37-5.75-5.75-.61,2.12Z"/>
      <path class="cls-2" d="M492.06,381.11c.26-.53.65-1.06,1.14-1.54,1.36-1.36,2.48-1.35,3.77-.06l.54.54c1.17,1.17,1.51,2.59-.26,4.36-1.94,1.94-3.17,1.46-4.47.17l-2.73-2.73c-1.98-1.98-1.55-3.67.5-5.72.42-.42,1.01-.9,1.43-1.16l1.06,1.24c-.39.26-.92.72-1.16.96-1.33,1.33-1.65,2.1-.51,3.25l.7.7ZM493.28,382.32l1.02,1.02c.62.62,1.06.59,1.77-.12s.69-1.18.11-1.76l-.55-.55c-.54-.54-.97-.45-1.46.04-.4.4-.71.91-.89,1.36Z"/>
    </g>
    <g>
      <path class="cls-2" d="M509.37,402c-.08-1.79-.08-2.01-.2-3.69-.17-2.28-.18-2.63-.91-3.37l-.19-.19c-.55-.55-.93-.48-1.76.34-.5.5-1.1,1.31-1.54,1.99l-1.34-.96c.36-.65.93-1.52,1.74-2.33,1.73-1.73,2.94-1.74,4.11-.57l.26.26c1.04,1.04,1.18,1.36,1.42,3.69.15,1.41.19,1.99.26,2.94l2.5-2.5,1.2,1.2-4.37,4.37-1.18-1.18Z"/>
      <path class="cls-2" d="M519.56,390.37c1.13,1.13,1.42,2.61-.42,4.45-1.83,1.83-3.32,1.54-4.44.42l-3.47-3.47c-1.12-1.12-1.42-2.61.42-4.45,1.83-1.83,3.32-1.54,4.45-.42l3.47,3.47ZM515.93,393.72c.65.65,1.14.75,2-.11.87-.87.77-1.35.11-2l-3.2-3.2c-.65-.65-1.14-.75-2,.11-.87.87-.76,1.35-.11,2l3.2,3.2Z"/>
      <path class="cls-2" d="M518.1,385.63l-1.65-.51.88-3.26,1.24-1.24,7.27,7.27-1.37,1.37-5.75-5.75-.61,2.12Z"/>
      <path class="cls-2" d="M520.19,378.99l4.56-4.56,1.16,1.16,3.51,8.71-1.43,1.43-3.48-8.65-3.12,3.12-1.2-1.2Z"/>
    </g>
    <g>
      <path class="cls-2" d="M540.86,402.8c-.08-1.79-.08-2.01-.2-3.69-.17-2.28-.18-2.63-.91-3.36l-.19-.19c-.55-.55-.93-.48-1.76.34-.5.5-1.1,1.31-1.54,1.99l-1.34-.96c.36-.65.93-1.52,1.74-2.33,1.73-1.73,2.94-1.74,4.11-.57l.26.26c1.04,1.04,1.18,1.36,1.42,3.69.15,1.41.19,1.99.26,2.94l2.5-2.5,1.2,1.2-4.37,4.37-1.18-1.18Z"/>
      <path class="cls-2" d="M551.06,391.17c1.13,1.13,1.42,2.61-.42,4.45-1.83,1.83-3.32,1.54-4.45.42l-3.47-3.47c-1.12-1.12-1.42-2.61.42-4.44,1.83-1.83,3.32-1.54,4.44-.42l3.47,3.47ZM547.43,394.52c.65.65,1.14.75,2-.11.87-.87.77-1.35.11-2l-3.2-3.2c-.65-.65-1.14-.75-2,.11-.87.87-.77,1.35-.11,2l3.2,3.2Z"/>
      <path class="cls-2" d="M549.6,386.43l-1.65-.51.88-3.26,1.24-1.24,7.27,7.27-1.37,1.37-5.75-5.75-.61,2.12Z"/>
      <path class="cls-2" d="M559.21,379.41c1.26-.43,1.92-.21,2.54.41l.47.47c1.33,1.33,1.23,2.51-.53,4.26-1.76,1.76-2.94,1.86-4.27.53l-.47-.47c-.62-.62-.82-1.29-.41-2.54-1.1.29-1.73.05-2.28-.51l-.51-.51c-1.09-1.09-1.18-2.37.44-4,1.62-1.62,2.9-1.53,3.99-.44l.51.51c.55.55.81,1.17.51,2.28ZM557.37,380.22c.47-1.08.43-1.35.01-1.77l-.47-.47c-.45-.45-.87-.51-1.58.2s-.65,1.12-.2,1.58l.47.47c.42.42.69.46,1.77-.01ZM558.46,381.31c-.58,1.33-.49,1.64-.02,2.12l.3.3c.55.55,1.01.5,1.82-.32.81-.81.87-1.27.31-1.82l-.3-.3c-.47-.47-.79-.56-2.12.02Z"/>
    </g>
    <g>
      <path class="cls-2" d="M573.44,402.52c-.08-1.79-.08-2.01-.2-3.69-.17-2.28-.18-2.63-.91-3.36l-.19-.19c-.55-.55-.93-.48-1.76.34-.5.5-1.1,1.31-1.54,1.99l-1.34-.96c.36-.65.93-1.52,1.74-2.33,1.73-1.73,2.94-1.74,4.11-.57l.26.26c1.04,1.04,1.18,1.36,1.42,3.69.15,1.41.19,1.99.26,2.94l2.5-2.5,1.2,1.2-4.37,4.37-1.18-1.18Z"/>
      <path class="cls-2" d="M583.63,390.88c1.13,1.13,1.42,2.61-.42,4.45-1.83,1.83-3.32,1.54-4.45.42l-3.47-3.47c-1.12-1.12-1.42-2.61.42-4.45,1.83-1.83,3.32-1.54,4.45-.42l3.47,3.47ZM580.01,394.24c.65.65,1.14.75,2-.11.87-.87.77-1.35.11-2l-3.2-3.2c-.65-.65-1.14-.75-2,.11-.87.87-.76,1.35-.11,2l3.2,3.2Z"/>
      <path class="cls-2" d="M582.18,386.15l-1.65-.51.88-3.26,1.24-1.24,7.27,7.27-1.37,1.37-5.75-5.75-.61,2.12Z"/>
      <path class="cls-2" d="M591.76,380.28c-.26.53-.65,1.06-1.14,1.54-1.36,1.36-2.48,1.35-3.77.06l-.54-.54c-1.26-1.26-1.45-2.64.26-4.35,1.94-1.94,3.17-1.46,4.47-.17l2.73,2.73c1.98,1.98,1.55,3.67-.49,5.72-.42.42-1.01.9-1.43,1.16l-1.02-1.27c.39-.26.89-.69,1.13-.92,1.45-1.45,1.54-2.22.51-3.25l-.7-.7ZM590.55,379.06l-1.02-1.02c-.62-.62-1.06-.58-1.77.12s-.69,1.18-.11,1.75l.55.55c.54.54.97.45,1.46-.04.4-.41.71-.91.89-1.36Z"/>
    </g>
    <g>
      <path class="cls-2" d="M603.96,404.29c-.08-1.79-.08-2.01-.2-3.69-.17-2.28-.18-2.63-.91-3.37l-.19-.19c-.55-.55-.93-.48-1.76.34-.5.5-1.1,1.31-1.54,1.99l-1.34-.96c.36-.65.93-1.52,1.74-2.33,1.73-1.73,2.94-1.74,4.11-.57l.26.26c1.04,1.04,1.18,1.36,1.42,3.69.15,1.41.19,1.99.26,2.94l2.5-2.5,1.2,1.2-4.37,4.37-1.18-1.18Z"/>
      <path class="cls-2" d="M614.15,392.66c1.13,1.12,1.42,2.61-.42,4.44-1.83,1.83-3.32,1.54-4.44.42l-3.47-3.47c-1.12-1.12-1.42-2.61.42-4.45,1.83-1.83,3.32-1.54,4.45-.42l3.47,3.47ZM610.53,396.02c.65.65,1.14.75,2-.11.87-.87.76-1.35.11-2l-3.2-3.2c-.65-.65-1.14-.75-2,.11-.87.87-.77,1.35-.11,2l3.2,3.2Z"/>
      <path class="cls-2" d="M616.42,391.83c-.08-1.79-.08-2.01-.2-3.69-.17-2.29-.18-2.63-.91-3.37l-.19-.19c-.55-.55-.93-.48-1.76.34-.5.5-1.1,1.31-1.54,1.99l-1.34-.96c.36-.65.93-1.52,1.74-2.33,1.73-1.73,2.94-1.74,4.11-.57l.26.26c1.04,1.04,1.18,1.36,1.42,3.69.15,1.41.19,1.99.26,2.94l2.5-2.5,1.2,1.21-4.37,4.37-1.18-1.18Z"/>
      <path class="cls-2" d="M626.61,380.2c1.13,1.13,1.42,2.61-.42,4.45-1.83,1.83-3.32,1.54-4.44.42l-3.47-3.47c-1.12-1.12-1.42-2.61.42-4.45,1.83-1.83,3.32-1.54,4.45-.42l3.47,3.47ZM622.99,383.55c.65.65,1.14.75,2-.11.87-.87.77-1.35.11-2l-3.2-3.2c-.65-.65-1.14-.75-2,.11-.87.87-.77,1.35-.11,2l3.2,3.2Z"/>
    </g>
    <g>
      <path class="cls-2" d="M638.25,402.29c-.08-1.79-.08-2.01-.2-3.69-.17-2.28-.18-2.63-.91-3.36l-.19-.19c-.55-.55-.93-.48-1.76.34-.5.5-1.1,1.31-1.54,1.99l-1.34-.96c.36-.65.93-1.52,1.74-2.33,1.73-1.73,2.94-1.74,4.11-.57l.26.26c1.03,1.04,1.18,1.36,1.42,3.69.15,1.41.19,1.99.26,2.94l2.5-2.5,1.2,1.2-4.37,4.37-1.18-1.18Z"/>
      <path class="cls-2" d="M648.45,390.66c1.13,1.12,1.42,2.61-.42,4.45-1.83,1.83-3.32,1.54-4.44.42l-3.47-3.47c-1.12-1.12-1.42-2.61.42-4.45,1.83-1.83,3.32-1.54,4.45-.42l3.47,3.47ZM644.82,394.01c.65.65,1.14.75,2-.11.87-.87.77-1.35.11-2l-3.2-3.2c-.65-.65-1.14-.75-2,.11-.87.87-.77,1.35-.11,2l3.2,3.2Z"/>
      <path class="cls-2" d="M650.72,389.83c-.08-1.79-.08-2.01-.2-3.69-.17-2.28-.18-2.63-.91-3.37l-.19-.19c-.55-.55-.93-.48-1.76.34-.5.5-1.1,1.31-1.54,1.99l-1.34-.96c.36-.65.93-1.52,1.74-2.33,1.73-1.73,2.94-1.74,4.11-.57l.26.26c1.03,1.03,1.18,1.36,1.42,3.69.15,1.41.19,1.99.26,2.94l2.5-2.5,1.2,1.21-4.37,4.37-1.18-1.18Z"/>
      <path class="cls-2" d="M652.91,380.01l-1.65-.5.88-3.26,1.24-1.24,7.27,7.27-1.37,1.37-5.75-5.75-.61,2.12Z"/>
    </g>
    <g>
      <path class="cls-2" d="M669.23,403.61c-.08-1.79-.08-2.01-.2-3.69-.17-2.29-.18-2.63-.91-3.37l-.19-.19c-.55-.55-.93-.48-1.76.34-.5.5-1.1,1.31-1.54,1.99l-1.34-.96c.36-.65.93-1.52,1.74-2.33,1.73-1.73,2.94-1.74,4.11-.57l.26.26c1.03,1.03,1.18,1.36,1.42,3.69.15,1.41.19,1.99.26,2.94l2.5-2.5,1.2,1.21-4.37,4.37-1.18-1.18Z"/>
      <path class="cls-2" d="M679.43,391.97c1.13,1.13,1.42,2.61-.42,4.45-1.83,1.83-3.32,1.54-4.44.42l-3.47-3.47c-1.12-1.12-1.42-2.61.42-4.45,1.83-1.83,3.32-1.54,4.45-.42l3.47,3.47ZM675.8,395.33c.65.65,1.14.75,2-.11.87-.87.77-1.35.11-2l-3.2-3.2c-.65-.65-1.14-.75-2,.11-.87.87-.77,1.35-.11,2l3.2,3.2Z"/>
      <path class="cls-2" d="M681.7,391.14c-.08-1.79-.08-2.01-.2-3.69-.17-2.28-.18-2.63-.91-3.36l-.19-.19c-.55-.55-.93-.48-1.76.34-.5.5-1.1,1.31-1.54,1.99l-1.34-.96c.36-.65.93-1.52,1.74-2.33,1.73-1.73,2.94-1.74,4.11-.57l.26.26c1.03,1.04,1.18,1.36,1.42,3.69.15,1.41.19,1.99.26,2.94l2.5-2.5,1.2,1.2-4.37,4.37-1.18-1.18Z"/>
      <path class="cls-2" d="M687.61,385.23c-.08-1.79-.08-2.01-.2-3.69-.17-2.28-.18-2.63-.91-3.37l-.19-.19c-.55-.55-.93-.48-1.76.34-.5.5-1.1,1.31-1.54,1.99l-1.34-.96c.36-.65.93-1.52,1.74-2.33,1.73-1.73,2.94-1.74,4.11-.57l.26.26c1.03,1.03,1.18,1.36,1.42,3.69.15,1.41.19,1.99.26,2.94l2.5-2.5,1.2,1.21-4.37,4.37-1.18-1.18Z"/>
    </g>
    <g>
      <path class="cls-2" d="M701.63,403.51c-.08-1.79-.08-2.01-.2-3.69-.17-2.28-.18-2.63-.91-3.36l-.19-.19c-.55-.55-.93-.48-1.76.34-.5.5-1.1,1.31-1.54,1.99l-1.34-.96c.36-.65.93-1.52,1.74-2.33,1.73-1.73,2.94-1.74,4.11-.57l.26.26c1.03,1.04,1.18,1.36,1.42,3.69.15,1.41.19,1.99.26,2.94l2.5-2.5,1.21,1.2-4.37,4.37-1.18-1.18Z"/>
      <path class="cls-2" d="M711.82,391.87c1.13,1.13,1.42,2.61-.42,4.45-1.83,1.83-3.32,1.54-4.44.42l-3.47-3.47c-1.12-1.12-1.42-2.61.42-4.44,1.83-1.83,3.32-1.54,4.44-.42l3.47,3.47ZM708.2,395.23c.65.65,1.14.75,2-.11.87-.87.77-1.35.11-2l-3.2-3.2c-.65-.65-1.14-.75-2,.11-.87.87-.77,1.35-.11,2l3.2,3.2Z"/>
      <path class="cls-2" d="M714.09,391.04c-.08-1.79-.08-2.01-.2-3.69-.17-2.28-.18-2.63-.91-3.36l-.19-.19c-.55-.55-.93-.48-1.76.34-.5.5-1.1,1.31-1.54,1.99l-1.34-.96c.36-.65.93-1.52,1.74-2.33,1.73-1.73,2.94-1.74,4.11-.57l.26.26c1.03,1.04,1.18,1.36,1.42,3.69.15,1.41.19,1.99.26,2.94l2.5-2.5,1.2,1.2-4.37,4.37-1.18-1.18Z"/>
      <path class="cls-2" d="M720.04,384.94c.66-.44,1.25-.91,1.78-1.44.99-.99.97-1.37.38-1.96l-.44-.44c-.55-.55-.97-.47-1.53.09l-1.61,1.61-1.23-1.23,1.36-1.36c.75-.75.66-1.18.14-1.71l-.44-.44c-.54-.54-.93-.44-1.72.35-.55.55-1.01,1.15-1.4,1.71l-1.31-1.01c.37-.62.98-1.38,1.62-2.03,1.77-1.77,2.87-1.7,3.94-.63l.7.7c.73.73.88,1.33.55,2.17.86-.43,1.54-.35,2.31.42l.64.64c1.13,1.13,1.23,2.33-.72,4.28-.51.51-1.45,1.27-2.04,1.56l-.99-1.28Z"/>
    </g>
    <g>
      <path class="cls-2" d="M733.33,404.1c-.08-1.79-.08-2.01-.2-3.69-.17-2.28-.18-2.63-.91-3.37l-.19-.19c-.55-.55-.93-.48-1.76.34-.5.5-1.1,1.31-1.54,1.99l-1.34-.96c.36-.65.93-1.52,1.74-2.33,1.73-1.73,2.94-1.74,4.11-.57l.26.26c1.04,1.04,1.18,1.36,1.42,3.69.15,1.41.19,1.99.26,2.94l2.5-2.5,1.2,1.2-4.37,4.37-1.18-1.18Z"/>
      <path class="cls-2" d="M743.52,392.47c1.13,1.13,1.42,2.61-.42,4.45-1.83,1.83-3.32,1.54-4.45.42l-3.47-3.47c-1.12-1.12-1.42-2.61.42-4.45,1.83-1.83,3.32-1.54,4.44-.42l3.47,3.47ZM739.9,395.82c.65.65,1.14.75,2-.11.87-.87.77-1.35.11-2l-3.2-3.2c-.65-.65-1.14-.75-2,.11-.87.87-.77,1.35-.11,2l3.2,3.2Z"/>
      <path class="cls-2" d="M745.79,391.64c-.08-1.79-.08-2.01-.2-3.69-.17-2.28-.18-2.63-.91-3.36l-.19-.19c-.55-.55-.93-.48-1.76.34-.5.5-1.1,1.31-1.54,1.99l-1.34-.96c.36-.65.93-1.52,1.74-2.33,1.73-1.73,2.94-1.74,4.11-.57l.26.26c1.04,1.04,1.18,1.36,1.42,3.69.15,1.41.19,1.99.26,2.94l2.5-2.5,1.2,1.2-4.37,4.37-1.18-1.18Z"/>
      <path class="cls-2" d="M755.54,381.06l1.6,1.6-1.35,1.35-1.6-1.6-3.4,3.4-1.27-1.27-1.49-7.31,1.83-1.83,4.5,4.5.96-.96,1.17,1.17-.96.96ZM753.02,381.24l-3.14-3.14,1.11,5.17,2.03-2.03Z"/>
    </g>
  </g>
</svg>