<?xml version="1.0" encoding="UTF-8"?>
<svg id="Layer_1" data-name="Layer 1" xmlns="http://www.w3.org/2000/svg" viewBox="0 0 775.3 314.74">
  <defs>
    <style>
      .cls-1 {
        fill: #515151;
      }

      .cls-1, .cls-2, .cls-3, .cls-4, .cls-5 {
        stroke-width: 0px;
      }

      .cls-6 {
        fill: none;
        stroke: #bababa;
        stroke-linejoin: round;
        stroke-width: .8px;
      }

      .cls-2 {
        fill: #4d4d4f;
      }

      .cls-3 {
        fill: #a7a9ab;
      }

      .cls-4 {
        fill: #77787b;
      }

      .cls-5 {
        fill: #1e9bd7;
      }
    </style>
  </defs>
  <g>
    <path class="cls-2" d="M114.11,2.5c-.91,1.45-2.23,2.71-3.79,3.74,1.78.89,3.83,1.58,5.97,1.94-.33.35-.76.97-.96,1.37-2.31-.48-4.52-1.32-6.43-2.45-2.12,1.18-4.52,2.02-6.81,2.53-.14-.38-.46-1-.73-1.32,2.05-.41,4.23-1.13,6.19-2.1-.86-.6-1.62-1.29-2.32-2.02-.76.7-1.56,1.32-2.37,1.83-.24-.29-.78-.84-1.11-1.1,1.99-1.08,3.92-2.83,5.03-4.76l1.4.49c-.25.41-.54.84-.84,1.24h5.49l.25-.08,1.03.68ZM104.1,9.17h9.47v5.73h-1.58v-.62h-6.4v.67h-1.5v-5.78ZM105.59,10.5v2.47h6.4v-2.47h-6.4ZM106.18,3.25c.73.8,1.66,1.54,2.72,2.2,1.08-.67,2.05-1.42,2.8-2.26h-5.47l-.05.06Z"/>
    <path class="cls-2" d="M121.32,5.65c-.41,1.05-1.19,2.2-1.99,2.8-.21-.3-.59-.73-.88-.94.76-.46,1.54-1.37,1.96-2.2l.91.33ZM124.55,14.23c-.54-.48-1.5-1.18-2.37-1.77-.49.88-1.37,1.7-2.91,2.36-.14-.32-.51-.81-.76-1.08,2.02-.84,2.69-1.93,2.91-2.99h-2.66v-1.23h2.74v-1.38h1.29v1.38h1.48c-.24-.35-.6-.75-.92-1.08l.83-.54c.41.37.89.91,1.11,1.26l-.51.37h.91v1.23h-2.96c-.02.19-.05.4-.1.57.94.59,2.12,1.37,2.74,1.88l-.81,1.03ZM121.59,4.92h-2.82v-1.19h2.82V.38h1.29v3.34h2.69v1.19h-2.69v2.9h-1.29v-2.9ZM119.91,3.2c-.11-.54-.46-1.32-.84-1.93l1.02-.4c.4.59.78,1.37.91,1.88l-1.08.45ZM123.74,5.4c.41.25,1.75,1.31,2.08,1.61l-.83.95c-.4-.51-1.53-1.59-2.01-2l.75-.56ZM125.43,1.27c-.38.72-.76,1.46-1.08,1.97l-.99-.33c.3-.54.65-1.42.83-1.99l1.24.35ZM129.12,12.81c-.73.81-1.96,1.69-2.98,2.16-.24-.27-.65-.72-.97-.95,1.02-.46,2.13-1.29,2.69-1.96l1.26.75ZM128.18,3.58c.11-.41.21-.89.29-1.31h-2.72v-1.27h7.37v1.27h-3.06c-.16.45-.32.91-.48,1.31h2.98v8.28h-6.25V3.58h1.88ZM131.16,4.71h-3.52v1.27h3.52v-1.27ZM131.16,7.05h-3.52v1.29h3.52v-1.29ZM131.16,9.41h-3.52v1.31h3.52v-1.31ZM130.76,12.1c.89.59,2.05,1.43,2.66,2.04l-1.13.81c-.54-.6-1.7-1.5-2.61-2.12l1.08-.73Z"/>
    <path class="cls-2" d="M140.48.73c-.4,1.05-.91,2.12-1.46,3.14v11.01h-1.43V6.11c-.46.62-.94,1.21-1.43,1.7-.13-.35-.56-1.13-.79-1.5,1.5-1.45,2.91-3.71,3.77-6l1.35.41ZM144.57,12.84c-.92.81-2.44,1.61-3.68,2.07-.25-.27-.81-.78-1.16-1.02,1.26-.37,2.64-.96,3.42-1.58l1.42.53ZM144.38,2.1h-3.71v-.97h3.71V.3h1.5v.83h3.87v.97h-3.87v.67h3.49v.94h-3.49v.72h4.38v1h-10.27v-1h4.39v-.72h-3.33v-.94h3.33v-.67ZM141.18,12.13v-6.02h8.08v6.02h-8.08ZM142.61,7.88h5.17v-.81h-5.17v.81ZM142.61,9.5h5.17v-.83h-5.17v.83ZM142.61,11.16h5.17v-.83h-5.17v.83ZM147.29,12.22c1.08.6,2.34,1.42,3.02,2l-1.34.8c-.64-.6-1.94-1.54-3.01-2.18l1.32-.62Z"/>
    <path class="cls-2" d="M158.07,10.17c-.24-.45-.76-1.19-1.24-1.85v6.56h-1.43v-6.43c-.59,1.45-1.32,2.82-2.04,3.71-.14-.41-.49-1.02-.72-1.37.94-1.08,1.96-2.98,2.56-4.66h-2.26v-1.4h2.45v-2.16c-.73.16-1.46.27-2.15.37-.06-.33-.25-.83-.43-1.15,1.77-.29,3.77-.75,4.97-1.27l1.02,1.13c-.57.22-1.26.43-1.97.62v2.47h1.86v1.4h-1.86v.73c.46.4,1.81,1.78,2.1,2.15l-.86,1.16ZM167.48,13.42v1.19h-9.5v-1.19h4.2v-1.03h-3.31v-1.15h3.31v-.96h-3.17v-5.16h3.17v-.89h-3.76v-1.18h3.76v-.89c-1.1.06-2.18.11-3.2.13-.03-.3-.19-.81-.33-1.1,2.63-.1,5.79-.35,7.61-.72l.88,1.08c-.99.22-2.21.38-3.52.49v1h3.55v1.18h-3.55v.89h3.26v5.16h-3.26v.96h3.31v1.15h-3.31v1.03h3.87ZM160.31,7.24h1.86v-1.07h-1.86v1.07ZM162.18,9.23v-1.07h-1.86v1.07h1.86ZM163.61,6.17v1.07h1.91v-1.07h-1.91ZM165.52,8.16h-1.91v1.07h1.91v-1.07Z"/>
    <path class="cls-2" d="M174.25,10.57h2.71v1.26h-2.71v3.02h-1.37v-3.02h-2.85v-1.26h2.85v-1.53h-2.51v-1.26h1.34c-.11-.51-.4-1.23-.68-1.77l.99-.3h-1.97v-1.26h2.85v-1.37h-2.39v-1.24h2.39V.35h1.37v1.5h2.31v1.24h-2.31v1.37h2.69v1.26h-1.75l1.03.27c-.3.59-.64,1.26-.94,1.8h1.35v1.26h-2.39v1.53ZM172.13,5.71c.33.57.64,1.34.75,1.81l-.76.25h1.88c.35-.64.72-1.46.94-2.07h-2.8ZM184.13,6.67c-.33,1.85-.92,3.58-1.81,5.08.7.78,1.48,1.43,2.37,1.88-.33.25-.76.81-.99,1.18-.81-.46-1.54-1.1-2.2-1.86-.59.78-1.29,1.45-2.08,1.99-.14-.22-.37-.46-.61-.68v.64h-1.35V1.02h6.29v3.01c0,.68-.14,1.07-.68,1.26-.53.22-1.34.22-2.53.22-.06-.38-.25-.92-.45-1.27.91.03,1.75.03,1.97.02.25-.02.32-.06.32-.24v-1.69h-3.57v4.07h4.15l.25-.06.91.33ZM178.82,13.67c.7-.53,1.32-1.16,1.85-1.89-.78-1.19-1.4-2.59-1.85-4.11v6ZM180.02,7.59c.35,1.07.83,2.07,1.4,2.96.51-.92.88-1.93,1.11-2.96h-2.51Z"/>
    <path class="cls-2" d="M191.33,3.98h1.54v10.62h-1.1v-.81h-3.41v1.03h-1.05V3.98h1.48v-1.81h-1.74V.99h6.02v1.18h-1.75v1.81ZM191.78,12.62v-4.03h-.57c-.65,0-.84-.17-.84-1v-2.4h-.62v1.32c0,.91-.16,2.12-.96,2.94-.09-.1-.25-.27-.41-.38v3.55h3.41ZM188.37,5.19v3.6c.56-.7.65-1.56.65-2.29v-1.31h-.65ZM191.27,10.14v1.08h-2.36v-1.08h2.36ZM189.74,3.98h.62v-1.81h-.62v1.81ZM191.78,5.19h-.67v2.39c0,.21.03.22.17.22h.49v-2.61ZM201.06.64v14.28h-1.24v-6.35l-.54.29c-.14-.76-.51-1.8-.88-2.75v8.44h-1.16v-5.94l-.65.3c-.1-.81-.38-1.96-.72-2.96v1.02c0,2.96-.19,5.81-1.69,8.02-.24-.25-.76-.6-1.08-.78,1.11-1.58,1.45-3.49,1.54-5.54l-.78.33c-.1-.94-.48-2.4-.83-3.5l.88-.41c.3.84.57,1.88.76,2.74V.67h1.19v4.68l.64-.3c.29.72.54,1.58.73,2.36V.92h1.16v4.23l.49-.25c.35.7.67,1.53.92,2.31V.64h1.24Z"/>
    <path class="cls-2" d="M217.97,9.01c-.91.72-2.01,1.46-2.96,2.05,1.03.94,2.29,1.67,3.8,2.1-.32.32-.75.89-.95,1.29-3.26-1.1-5.36-3.44-6.59-6.73-.64.68-1.43,1.34-2.28,1.93v3.15l3.64-1.05c.03.4.16.99.25,1.3-4.44,1.37-5.08,1.58-5.49,1.86-.11-.38-.4-1.03-.64-1.34.29-.14.68-.48.68-1.13v-1.83c-.83.46-1.66.84-2.47,1.15-.22-.35-.65-.89-.99-1.19,1.89-.59,3.96-1.7,5.41-2.93h-4.9v-1.27h6.13v-1.19h-4.68v-1.19h4.68v-1.11h-5.47v-1.27h5.47V.32h1.48v1.27h5.67v1.27h-5.67v1.11h5.01v1.19h-5.01v1.19h6.17v1.27h-5.59c.38.92.86,1.77,1.46,2.51.91-.6,1.94-1.4,2.58-2.05l1.23.91Z"/>
    <path class="cls-2" d="M227.11,10.87c-1.99.6-4.11,1.21-5.7,1.67l-.37-1.42c.67-.14,1.5-.37,2.39-.6v-3.56h-1.91v-1.37h1.91v-3.1h-2.07v-1.37h5.46v1.37h-1.96v3.1h1.8v1.37h-1.8v3.17l2.04-.57.21,1.32ZM234.35,13.53c.33,0,.4-.24.45-1.85.29.24.88.46,1.24.56-.13,2.04-.48,2.56-1.51,2.56h-1.38c-1.27,0-1.58-.41-1.58-1.73v-3.36h-1.3c-.29,2.55-1.08,4.31-4.31,5.3-.14-.35-.53-.94-.83-1.21,2.85-.75,3.45-2.1,3.69-4.09h-1.3V.95h7.56v8.75h-2.08v3.34c0,.43.06.48.4.48h.97ZM228.89,3.5h4.71v-1.32h-4.71v1.32ZM228.89,5.98h4.71v-1.34h-4.71v1.34ZM228.89,8.47h4.71v-1.34h-4.71v1.34Z"/>
    <path class="cls-2" d="M241.11,7.61c0-3.23,1.34-5.78,3.15-7.61l1.21.57c-1.74,1.81-2.93,4.11-2.93,7.03s1.19,5.22,2.93,7.03l-1.21.57c-1.81-1.83-3.15-4.38-3.15-7.61Z"/>
    <path class="cls-2" d="M250.08,8.69c-1.91,0-2.48-.94-2.48-2.26v-1.27c0-1.32.57-2.26,2.48-2.26s2.48.94,2.48,2.26v1.27c0,1.32-.57,2.26-2.48,2.26ZM250.08,4.22c-.73,0-.96.25-.96.83v1.5c0,.57.22.83.96.83s.96-.25.96-.83v-1.5c0-.57-.22-.83-.96-.83ZM252.18,13.81l-1.23-.49,4.28-10.42,1.23.49-4.28,10.42ZM257.4,13.81c-1.91,0-2.48-.94-2.48-2.26v-1.27c0-1.32.57-2.26,2.48-2.26s2.48.94,2.48,2.26v1.27c0,1.32-.57,2.26-2.48,2.26ZM257.4,9.34c-.73,0-.96.25-.96.83v1.5c0,.57.22.83.96.83s.96-.25.96-.83v-1.5c0-.57-.22-.83-.96-.83Z"/>
    <path class="cls-2" d="M267.02,7.61c0,3.23-1.34,5.78-3.15,7.61l-1.21-.57c1.74-1.81,2.93-4.11,2.93-7.03s-1.19-5.22-2.93-7.03l1.21-.57c1.81,1.83,3.15,4.38,3.15,7.61Z"/>
  </g>
  <g>
    <path class="cls-2" d="M513.33,2.5c-.91,1.45-2.23,2.71-3.79,3.74,1.78.89,3.83,1.58,5.97,1.94-.33.35-.76.97-.96,1.37-2.31-.48-4.52-1.32-6.43-2.45-2.12,1.18-4.52,2.02-6.81,2.53-.14-.38-.46-1-.73-1.32,2.05-.41,4.23-1.13,6.19-2.1-.86-.6-1.62-1.29-2.32-2.02-.76.7-1.56,1.32-2.37,1.83-.24-.29-.78-.84-1.11-1.1,1.99-1.08,3.92-2.83,5.03-4.76l1.4.49c-.25.41-.54.84-.84,1.24h5.49l.25-.08,1.03.68ZM503.32,9.17h9.47v5.73h-1.58v-.62h-6.4v.67h-1.5v-5.78ZM504.82,10.5v2.47h6.4v-2.47h-6.4ZM505.41,3.25c.73.8,1.66,1.54,2.72,2.2,1.08-.67,2.05-1.42,2.8-2.26h-5.47l-.05.06Z"/>
    <path class="cls-2" d="M520.55,5.65c-.41,1.05-1.19,2.2-1.99,2.8-.21-.3-.59-.73-.88-.94.76-.46,1.54-1.37,1.96-2.2l.91.33ZM523.78,14.23c-.54-.48-1.5-1.18-2.37-1.77-.49.88-1.37,1.7-2.91,2.36-.14-.32-.51-.81-.76-1.08,2.02-.84,2.69-1.93,2.91-2.99h-2.66v-1.23h2.74v-1.38h1.29v1.38h1.48c-.24-.35-.6-.75-.92-1.08l.83-.54c.41.37.89.91,1.11,1.26l-.51.37h.91v1.23h-2.96c-.02.19-.05.4-.1.57.94.59,2.12,1.37,2.74,1.88l-.81,1.03ZM520.82,4.92h-2.82v-1.19h2.82V.38h1.29v3.34h2.69v1.19h-2.69v2.9h-1.29v-2.9ZM519.13,3.2c-.11-.54-.46-1.32-.84-1.93l1.02-.4c.4.59.78,1.37.91,1.88l-1.08.45ZM522.97,5.4c.41.25,1.75,1.31,2.08,1.61l-.83.95c-.4-.51-1.53-1.59-2.01-2l.75-.56ZM524.66,1.27c-.38.72-.76,1.46-1.08,1.97l-.99-.33c.3-.54.65-1.42.83-1.99l1.24.35ZM528.35,12.81c-.73.81-1.96,1.69-2.98,2.16-.24-.27-.65-.72-.97-.95,1.02-.46,2.13-1.29,2.69-1.96l1.26.75ZM527.41,3.58c.11-.41.21-.89.29-1.31h-2.72v-1.27h7.37v1.27h-3.06c-.16.45-.32.91-.48,1.31h2.98v8.28h-6.25V3.58h1.88ZM530.38,4.71h-3.52v1.27h3.52v-1.27ZM530.38,7.05h-3.52v1.29h3.52v-1.29ZM530.38,9.41h-3.52v1.31h3.52v-1.31ZM529.99,12.1c.89.59,2.05,1.43,2.66,2.04l-1.13.81c-.54-.6-1.7-1.5-2.61-2.12l1.08-.73Z"/>
    <path class="cls-2" d="M539.7.73c-.4,1.05-.91,2.12-1.46,3.14v11.01h-1.43V6.11c-.46.62-.94,1.21-1.43,1.7-.13-.35-.56-1.13-.79-1.5,1.5-1.45,2.91-3.71,3.77-6l1.35.41ZM543.79,12.84c-.92.81-2.44,1.61-3.68,2.07-.25-.27-.81-.78-1.16-1.02,1.26-.37,2.64-.96,3.42-1.58l1.42.53ZM543.6,2.1h-3.71v-.97h3.71V.3h1.5v.83h3.87v.97h-3.87v.67h3.49v.94h-3.49v.72h4.38v1h-10.27v-1h4.39v-.72h-3.33v-.94h3.33v-.67ZM540.4,12.13v-6.02h8.08v6.02h-8.08ZM541.84,7.88h5.17v-.81h-5.17v.81ZM541.84,9.5h5.17v-.83h-5.17v.83ZM541.84,11.16h5.17v-.83h-5.17v.83ZM546.51,12.22c1.08.6,2.34,1.42,3.02,2l-1.34.8c-.64-.6-1.94-1.54-3.01-2.18l1.32-.62Z"/>
    <path class="cls-2" d="M557.3,10.17c-.24-.45-.76-1.19-1.24-1.85v6.56h-1.43v-6.43c-.59,1.45-1.32,2.82-2.04,3.71-.14-.41-.49-1.02-.72-1.37.94-1.08,1.96-2.98,2.56-4.66h-2.26v-1.4h2.45v-2.16c-.73.16-1.46.27-2.15.37-.06-.33-.25-.83-.43-1.15,1.77-.29,3.77-.75,4.97-1.27l1.02,1.13c-.57.22-1.26.43-1.97.62v2.47h1.86v1.4h-1.86v.73c.46.4,1.81,1.78,2.1,2.15l-.86,1.16ZM566.7,13.42v1.19h-9.5v-1.19h4.2v-1.03h-3.31v-1.15h3.31v-.96h-3.17v-5.16h3.17v-.89h-3.76v-1.18h3.76v-.89c-1.1.06-2.18.11-3.2.13-.03-.3-.19-.81-.33-1.1,2.63-.1,5.79-.35,7.61-.72l.88,1.08c-.99.22-2.21.38-3.52.49v1h3.55v1.18h-3.55v.89h3.26v5.16h-3.26v.96h3.31v1.15h-3.31v1.03h3.87ZM559.54,7.24h1.86v-1.07h-1.86v1.07ZM561.4,9.23v-1.07h-1.86v1.07h1.86ZM562.84,6.17v1.07h1.91v-1.07h-1.91ZM564.74,8.16h-1.91v1.07h1.91v-1.07Z"/>
    <path class="cls-2" d="M571.9,7.45c-.59-.49-1.88-1.21-2.82-1.67l.83-1.1c.92.41,2.21,1.08,2.85,1.54l-.86,1.23ZM573.17,9.66c-.7,1.66-1.61,3.56-2.42,5.06l-1.3-.89c.75-1.21,1.8-3.26,2.59-5.06l1.13.89ZM572.71,3.28c-.57-.49-1.81-1.27-2.74-1.77l.84-1.07c.89.45,2.15,1.15,2.77,1.64l-.88,1.19ZM582.66,6.76c-.54,2.07-1.42,3.71-2.56,5.03,1.05.83,2.29,1.46,3.72,1.85-.33.3-.76.88-.97,1.27-1.46-.48-2.71-1.19-3.79-2.1-1.05.94-2.29,1.64-3.61,2.13-.19-.35-.64-.97-.94-1.24,1.32-.43,2.51-1.05,3.55-1.89-1.02-1.16-1.81-2.53-2.39-4.09h-.16c-.1,2.34-.51,5.2-1.97,7.18-.27-.24-.89-.6-1.26-.73,1.67-2.21,1.83-5.36,1.83-7.66V2.5h3.74V.3h1.45v2.2h3.09l.25-.05,1.07.27c-.38,1.16-.88,2.45-1.32,3.26l-1.26-.37c.21-.46.45-1.1.67-1.73h-2.5v2.53h2.15l.29-.06.92.41ZM575.53,3.88v2.53h2.32v-2.53h-2.32ZM577.07,7.72c.48,1.16,1.15,2.21,1.97,3.1.76-.86,1.38-1.89,1.81-3.1h-3.79Z"/>
    <path class="cls-2" d="M600.5,3.93s-.02.51-.02.68c-.17,6.57-.32,8.83-.83,9.52-.3.48-.64.6-1.13.68-.48.06-1.21.06-1.96.02-.03-.4-.19-1-.41-1.4.73.06,1.38.06,1.67.06.27,0,.41-.05.57-.25.35-.45.51-2.47.64-7.94h-1.88c-.21,4.23-.92,7.61-3.66,9.71-.22-.33-.72-.86-1.07-1.1.1-.06.19-.14.29-.22-2.29.27-4.58.51-6.29.67l-.19-1.26c.92-.06,2.07-.16,3.33-.27v-1.21h-2.9v-1.08h2.9v-.81h-2.85v-4.79h2.85v-.83h-3.28v-1.1h3.28v-.89c-.97.08-1.94.13-2.83.16-.05-.3-.21-.78-.35-1.07,2.36-.13,5.17-.41,6.83-.78l.7,1.11c-.84.18-1.89.33-2.99.45v1.02h3.21v.92h1.67c.02-1.08.02-2.21.02-3.41h1.42c0,1.18-.02,2.32-.03,3.41h3.29ZM587.93,6.88h1.64v-.97h-1.64v.97ZM589.57,8.75v-.97h-1.64v.97h1.64ZM590.92,12.7c.99-.1,2-.19,3.01-.3,1.3-1.8,1.7-4.2,1.83-7.1h-1.69v-1.19h-3.15v.83h2.96v4.79h-2.96v.81h2.99v1.08h-2.99v1.08ZM592.63,6.88v-.97h-1.7v.97h1.7ZM590.92,7.78v.97h1.7v-.97h-1.7Z"/>
    <path class="cls-2" d="M606.11,6.03c0,2.58-.19,6.35-1.51,8.86-.3-.22-.97-.54-1.34-.67,1.27-2.39,1.4-5.81,1.4-8.2V1.8h6c-.16-.41-.33-.88-.53-1.23l1.48-.35c.27.48.54,1.08.73,1.58h5.38v1.37h-11.62v2.86ZM616.6,9.8c-.7,1.31-1.77,2.29-3.07,3.02,1.31.41,2.82.65,4.42.8-.3.32-.67.91-.86,1.27-1.96-.21-3.74-.64-5.27-1.27-1.61.6-3.42.97-5.33,1.19-.1-.37-.37-.92-.6-1.26,1.53-.13,3.02-.35,4.36-.75-.91-.56-1.67-1.23-2.29-2.02l.62-.24h-1.93v-1.18h8.77l.25-.05.92.48ZM608.84,8.53v-2.55h-2.36v-1.19h2.36v-1.23h1.4v1.23h3.44v-1.23h1.45v1.23h2.44v1.19h-2.44v2.55h-6.29ZM609.46,10.55c.61.67,1.43,1.23,2.44,1.69,1-.45,1.88-1,2.51-1.69h-4.95ZM610.24,5.98v1.4h3.44v-1.4h-3.44Z"/>
    <path class="cls-2" d="M623.23,7.61c0-3.23,1.34-5.78,3.15-7.61l1.21.57c-1.74,1.81-2.93,4.11-2.93,7.03s1.19,5.22,2.93,7.03l-1.21.57c-1.81-1.83-3.15-4.38-3.15-7.61Z"/>
    <path class="cls-2" d="M632.2,8.69c-1.91,0-2.48-.94-2.48-2.26v-1.27c0-1.32.57-2.26,2.48-2.26s2.48.94,2.48,2.26v1.27c0,1.32-.57,2.26-2.48,2.26ZM632.2,4.22c-.73,0-.96.25-.96.83v1.5c0,.57.22.83.96.83s.96-.25.96-.83v-1.5c0-.57-.22-.83-.96-.83ZM634.3,13.81l-1.23-.49,4.28-10.42,1.23.49-4.28,10.42ZM639.52,13.81c-1.91,0-2.48-.94-2.48-2.26v-1.27c0-1.32.57-2.26,2.48-2.26s2.48.94,2.48,2.26v1.27c0,1.32-.57,2.26-2.48,2.26ZM639.52,9.34c-.73,0-.96.25-.96.83v1.5c0,.57.22.83.96.83s.96-.25.96-.83v-1.5c0-.57-.22-.83-.96-.83Z"/>
    <path class="cls-2" d="M649.15,7.61c0,3.23-1.34,5.78-3.15,7.61l-1.21-.57c1.74-1.81,2.93-4.11,2.93-7.03s-1.19-5.22-2.93-7.03l1.21-.57c1.81,1.83,3.15,4.38,3.15,7.61Z"/>
  </g>
  <g>
    <g>
      <path class="cls-2" d="M59.47,264.46l-.81-1.53,2.93-1.69h1.75v10.28h-1.94v-8.13l-1.93,1.07Z"/>
      <path class="cls-2" d="M79.33,269.11h-5.76v3.64h-1.19v-3.64h-7.35v-1.15h2.61v-4.27h4.74v-2.42h-3.87c-.72,1.23-1.56,2.31-2.42,3.14-.22-.19-.72-.59-1.02-.75,1.5-1.31,2.83-3.36,3.58-5.49l1.19.29c-.22.56-.48,1.13-.73,1.67h9.49v1.15h-5.03v2.42h4.66v1.11h-4.66v3.15h5.76v1.15ZM72.37,267.96v-3.15h-3.56v3.15h3.56Z"/>
    </g>
    <g>
      <path class="cls-2" d="M175.95,269.86c1.21-1.32,1.37-1.48,2.47-2.75,1.5-1.73,1.74-1.99,1.74-3.02v-.27c0-.78-.32-1-1.48-1-.7,0-1.7.14-2.5.32l-.27-1.62c.72-.21,1.73-.41,2.88-.41,2.45,0,3.31.84,3.31,2.5v.37c0,1.46-.13,1.8-1.61,3.61-.89,1.1-1.27,1.54-1.89,2.26h3.53v1.7h-6.18v-1.67Z"/>
      <path class="cls-2" d="M197.79,269.11h-5.76v3.64h-1.19v-3.64h-7.35v-1.15h2.61v-4.27h4.74v-2.42h-3.87c-.72,1.23-1.56,2.31-2.42,3.14-.22-.19-.72-.59-1.02-.75,1.5-1.31,2.83-3.36,3.58-5.49l1.19.29c-.22.56-.48,1.13-.73,1.67h9.49v1.15h-5.03v2.42h4.66v1.11h-4.66v3.15h5.76v1.15ZM190.84,267.96v-3.15h-3.57v3.15h3.57Z"/>
    </g>
    <g>
      <path class="cls-2" d="M292.61,269.75c.78.16,1.53.24,2.28.24,1.4,0,1.66-.29,1.66-1.11v-.62c0-.78-.35-1.02-1.15-1.02h-2.28v-1.73h1.93c1.07,0,1.31-.37,1.31-1.11v-.62c0-.76-.35-.97-1.46-.97-.78,0-1.53.1-2.2.22l-.21-1.64c.7-.17,1.67-.29,2.58-.29,2.5,0,3.23.83,3.23,2.34v.99c0,1.03-.32,1.56-1.15,1.93.91.3,1.34.84,1.34,1.93v.91c0,1.59-.78,2.51-3.53,2.51-.72,0-1.93-.13-2.55-.33l.21-1.61Z"/>
      <path class="cls-2" d="M314.16,269.11h-5.76v3.64h-1.19v-3.64h-7.35v-1.15h2.61v-4.27h4.74v-2.42h-3.87c-.72,1.23-1.56,2.31-2.42,3.14-.22-.19-.72-.59-1.02-.75,1.5-1.31,2.83-3.36,3.58-5.49l1.19.29c-.22.56-.48,1.13-.73,1.67h9.49v1.15h-5.03v2.42h4.66v1.11h-4.66v3.15h5.76v1.15ZM307.2,267.96v-3.15h-3.56v3.15h3.56Z"/>
    </g>
    <g>
      <path class="cls-2" d="M447.82,264.46l-.81-1.53,2.93-1.69h1.75v10.28h-1.94v-8.13l-1.93,1.07Z"/>
      <path class="cls-2" d="M467.68,269.11h-5.76v3.64h-1.19v-3.64h-7.35v-1.15h2.61v-4.27h4.74v-2.42h-3.87c-.72,1.23-1.56,2.31-2.42,3.14-.22-.19-.72-.59-1.02-.75,1.5-1.31,2.83-3.36,3.58-5.49l1.19.29c-.22.56-.48,1.13-.73,1.67h9.49v1.15h-5.03v2.42h4.66v1.11h-4.66v3.15h5.76v1.15ZM460.73,267.96v-3.15h-3.56v3.15h3.56Z"/>
    </g>
    <g>
      <path class="cls-2" d="M569.29,269.86c1.21-1.32,1.37-1.48,2.47-2.75,1.5-1.73,1.73-1.99,1.73-3.02v-.27c0-.78-.32-1-1.48-1-.7,0-1.7.14-2.5.32l-.27-1.62c.72-.21,1.73-.41,2.88-.41,2.45,0,3.31.84,3.31,2.5v.37c0,1.46-.13,1.8-1.61,3.61-.89,1.1-1.27,1.54-1.89,2.26h3.53v1.7h-6.18v-1.67Z"/>
      <path class="cls-2" d="M591.14,269.11h-5.76v3.64h-1.19v-3.64h-7.35v-1.15h2.61v-4.27h4.74v-2.42h-3.87c-.72,1.23-1.56,2.31-2.42,3.14-.22-.19-.72-.59-1.02-.75,1.5-1.31,2.83-3.36,3.58-5.49l1.19.29c-.22.56-.48,1.13-.73,1.67h9.49v1.15h-5.03v2.42h4.66v1.11h-4.66v3.15h5.76v1.15ZM584.18,267.96v-3.15h-3.56v3.15h3.56Z"/>
    </g>
    <g>
      <path class="cls-2" d="M692.4,269.75c.78.16,1.53.24,2.28.24,1.4,0,1.66-.29,1.66-1.11v-.62c0-.78-.35-1.02-1.15-1.02h-2.28v-1.73h1.93c1.07,0,1.31-.37,1.31-1.11v-.62c0-.76-.35-.97-1.46-.97-.78,0-1.53.1-2.2.22l-.21-1.64c.7-.17,1.67-.29,2.58-.29,2.5,0,3.23.83,3.23,2.34v.99c0,1.03-.32,1.56-1.15,1.93.91.3,1.34.84,1.34,1.93v.91c0,1.59-.78,2.51-3.53,2.51-.72,0-1.93-.13-2.55-.33l.21-1.61Z"/>
      <path class="cls-2" d="M713.95,269.11h-5.76v3.64h-1.19v-3.64h-7.35v-1.15h2.61v-4.27h4.74v-2.42h-3.87c-.72,1.23-1.56,2.31-2.42,3.14-.22-.19-.72-.59-1.02-.75,1.5-1.31,2.83-3.36,3.58-5.49l1.19.29c-.22.56-.48,1.13-.73,1.67h9.49v1.15h-5.03v2.42h4.66v1.11h-4.66v3.15h5.76v1.15ZM706.99,267.96v-3.15h-3.56v3.15h3.56Z"/>
    </g>
  </g>
  <g>
    <rect class="cls-5" x="258.06" y="124.29" width="25.58" height="39.6"/>
    <rect class="cls-5" x="141.27" y="107.41" width="26.3" height="56.47"/>
    <rect class="cls-5" x="25.2" y="84.04" width="25.58" height="79.84"/>
    <rect class="cls-3" x="290.48" y="163.88" width="25.58" height="33.1"/>
    <rect class="cls-3" x="173.69" y="163.88" width="26.3" height="8.44"/>
    <rect class="cls-3" x="57.62" y="137.92" width="25.58" height="25.96"/>
    <rect class="cls-4" x="322.91" y="163.88" width="25.58" height="47.38"/>
    <rect class="cls-4" x="206.11" y="163.88" width="26.3" height="26.61"/>
    <rect class="cls-4" x="90.04" y="163.23" width="25.58" height=".65"/>
    <line class="cls-6" x1="0" y1="163.88" x2="775.3" y2="163.88"/>
    <g>
      <path class="cls-5" d="M23.04,67.24v-11.5l-2.71,1.46-1.49-2.86,4.54-2.62h3.12v15.5h-3.46Z"/>
      <path class="cls-5" d="M32.35,58c1.54,0,1.97-.43,1.97-1.49v-.98c0-1.01-.43-1.22-1.94-1.22-1.06,0-2.11.12-3.31.34l-.36-2.71c1.37-.29,2.57-.43,3.98-.43,4.01,0,5.09,1.2,5.09,3.6v1.13c0,1.42-.48,2.5-1.61,3.19,1.34.6,1.9,1.44,1.9,2.95v1.22c0,2.35-1.1,3.89-5.47,3.89-1.46,0-2.69-.12-3.94-.53l.36-2.66c1.18.22,2.06.31,3.46.31,1.68,0,2.14-.34,2.14-1.27v-1.1c0-.89-.55-1.27-1.75-1.27h-3.17v-2.95h2.66Z"/>
      <path class="cls-5" d="M40.22,67.24v-3.98h3.46v3.98h-3.46Z"/>
      <path class="cls-5" d="M54.62,63.95v3.29h-3.41v-3.29h-7.06v-3l5.93-9.22h4.54v9.41h1.94v2.81h-1.94ZM51.21,55.17l-3.67,5.98h3.67v-5.98Z"/>
    </g>
    <g>
      <path class="cls-2" d="M67.3,119.81v2.53h-1.34v-2.53h-4.9v-1.32l4.44-6.43h1.8v6.6h1.48v1.15h-1.48ZM65.96,118.66v-5.25l-3.58,5.25h3.58Z"/>
      <path class="cls-2" d="M69.97,120.51h1.37v1.83h-1.37v-1.83Z"/>
      <path class="cls-2" d="M78.16,119.81v2.53h-1.34v-2.53h-4.9v-1.32l4.44-6.43h1.8v6.6h1.48v1.15h-1.48ZM76.82,118.66v-5.25l-3.58,5.25h3.58Z"/>
    </g>
    <g>
      <path class="cls-2" d="M102.25,144.87c0,1.59-.81,2.75-3.28,2.75s-3.28-1.16-3.28-2.75v-5.09c0-1.59.81-2.75,3.28-2.75s3.28,1.16,3.28,2.75v5.09ZM98.97,138.2c-1.46,0-1.94.56-1.94,1.72v4.81c0,1.16.48,1.72,1.94,1.72s1.94-.56,1.94-1.72v-4.81c0-1.16-.48-1.72-1.94-1.72Z"/>
      <path class="cls-2" d="M104.31,145.63h1.37v1.83h-1.37v-1.83Z"/>
      <path class="cls-2" d="M106.27,139.85l-.59-1.07,2.79-1.61h1.19v10.28h-1.34v-8.75l-2.05,1.15Z"/>
    </g>
    <g>
      <path class="cls-5" d="M150.84,79.26v5.86c0,4.34-2.95,5.5-7.37,5.5-.79,0-1.75-.1-2.35-.19l.19-2.83c.46.05,1.08.12,1.68.12,3.12,0,4.39-.58,4.39-2.57v-1.18c-.86.26-1.66.36-2.64.36-2.69,0-4.06-1.15-4.06-4.03v-1.03c0-2.4.94-4.63,5.09-4.63s5.06,2.11,5.06,4.63ZM144.14,79.1v1.06c0,.98.55,1.2,1.18,1.2.79,0,1.49-.17,2.06-.43v-1.82c0-1.1-.36-1.49-1.61-1.49s-1.63.46-1.63,1.49Z"/>
      <path class="cls-5" d="M152.75,90.38v-3.98h3.46v3.98h-3.46Z"/>
      <path class="cls-5" d="M162.76,84.06c-1.73-.07-2.52-.1-3.82-.12v-9.07h8.76v3h-5.3v3.26c.82.02,1.25.05,2.16.1,2.76.17,3.48,1.51,3.48,3.41v1.7c-.02,2.74-1.03,4.27-5.4,4.27-1.08,0-2.95-.19-4.27-.6l.5-2.78c1.2.26,2.59.38,3.74.38,1.63,0,1.97-.46,1.97-1.46v-.65c0-1.08-.29-1.37-1.82-1.44Z"/>
    </g>
    <g>
      <path class="cls-5" d="M256.94,102.92v-5.86c0-4.34,2.95-5.5,7.37-5.5.7,0,1.58.07,2.35.19l-.24,2.83c-.5-.07-1.27-.12-1.63-.12-3.22,0-4.39.58-4.39,2.57v1.18c.86-.26,1.66-.36,2.64-.36,2.69,0,4.06,1.15,4.06,4.03v1.03c0,2.4-.94,4.63-5.09,4.63s-5.06-2.11-5.06-4.63ZM263.63,103.08v-1.06c0-.98-.55-1.2-1.18-1.2-.79,0-1.49.17-2.06.43v1.82c0,1.1.36,1.49,1.61,1.49s1.63-.46,1.63-1.49Z"/>
      <path class="cls-5" d="M269.13,107.31v-3.98h3.46v3.98h-3.46Z"/>
      <path class="cls-5" d="M274.74,102.92v-5.86c0-4.34,2.95-5.5,7.37-5.5.7,0,1.58.07,2.35.19l-.24,2.83c-.5-.07-1.27-.12-1.63-.12-3.22,0-4.39.58-4.39,2.57v1.18c.86-.26,1.66-.36,2.64-.36,2.69,0,4.06,1.15,4.06,4.03v1.03c0,2.4-.94,4.63-5.09,4.63s-5.06-2.11-5.06-4.63ZM281.44,103.08v-1.06c0-.98-.55-1.2-1.18-1.2-.79,0-1.49.17-2.06.43v1.82c0,1.1.36,1.49,1.61,1.49s1.63-.46,1.63-1.49Z"/>
    </g>
    <g>
      <path class="cls-2" d="M173.55,194.16h3.98v1.1h-3.98v-1.1Z"/>
      <path class="cls-2" d="M178.03,191.54l-.59-1.07,2.79-1.61h1.19v10.28h-1.34v-8.75l-2.05,1.15Z"/>
      <path class="cls-2" d="M183.81,197.31h1.37v1.83h-1.37v-1.83Z"/>
      <path class="cls-2" d="M192,196.61v2.53h-1.34v-2.53h-4.9v-1.32l4.44-6.43h1.8v6.6h1.48v1.15h-1.48ZM190.67,195.47v-5.25l-3.58,5.25h3.58Z"/>
    </g>
    <g>
      <path class="cls-2" d="M203.69,212.51h3.98v1.1h-3.98v-1.1Z"/>
      <path class="cls-2" d="M214.9,214.96v2.53h-1.34v-2.53h-4.9v-1.32l4.44-6.43h1.8v6.6h1.48v1.15h-1.48ZM213.56,213.82v-5.25l-3.58,5.25h3.58Z"/>
      <path class="cls-2" d="M217.57,215.66h1.37v1.83h-1.37v-1.83Z"/>
      <path class="cls-2" d="M221.21,207.21h5.41v1.18h-4.07v3.26c.67.02.99.02,1.7.05,1.89.08,2.5,1,2.5,2.39v.92c0,1.69-.73,2.64-3.26,2.64-.8,0-1.86-.1-2.67-.37l.14-1.08c.8.19,1.75.27,2.51.27,1.59,0,1.94-.41,1.94-1.54v-.7c0-.96-.32-1.35-1.64-1.38-1.07-.03-1.77-.03-2.56-.05v-5.59Z"/>
    </g>
    <g>
      <path class="cls-2" d="M288.87,219.05h3.98v1.1h-3.98v-1.1Z"/>
      <path class="cls-2" d="M294.48,213.75h5.41v1.18h-4.07v3.26c.67.02.99.02,1.7.05,1.89.08,2.5,1,2.5,2.39v.92c0,1.69-.73,2.64-3.26,2.64-.8,0-1.86-.1-2.67-.37l.14-1.08c.8.19,1.75.27,2.51.27,1.59,0,1.94-.41,1.94-1.54v-.7c0-.96-.32-1.35-1.64-1.38-1.07-.03-1.77-.03-2.56-.05v-5.59Z"/>
      <path class="cls-2" d="M302.01,222.21h1.37v1.83h-1.37v-1.83Z"/>
      <path class="cls-2" d="M305.65,213.75h5.41v1.18h-4.07v3.26c.67.02.99.02,1.7.05,1.89.08,2.5,1,2.5,2.39v.92c0,1.69-.73,2.64-3.26,2.64-.8,0-1.86-.1-2.67-.37l.14-1.08c.8.19,1.75.27,2.51.27,1.59,0,1.94-.41,1.94-1.54v-.7c0-.96-.32-1.35-1.64-1.38-1.07-.03-1.77-.03-2.56-.05v-5.59Z"/>
    </g>
    <g>
      <path class="cls-2" d="M329.58,233.49h3.98v1.1h-3.98v-1.1Z"/>
      <path class="cls-2" d="M339.81,233.22c1.45.67,1.93,1.34,1.93,2.42v.46c0,1.78-.95,2.53-3.29,2.53s-3.29-.75-3.29-2.53v-.46c0-1.08.46-1.75,1.88-2.42-1.27-.62-1.61-1.27-1.61-2.28v-.41c0-1.45.72-2.5,3.02-2.5s3.02,1.05,3.02,2.5v.41c0,1-.35,1.65-1.65,2.28ZM338.44,233.82c-1.61.65-1.99.96-1.99,1.86v.37c0,1.08.51,1.43,1.99,1.43s1.99-.35,1.99-1.43v-.37c0-.91-.4-1.21-1.99-1.86ZM338.44,232.68c1.37-.56,1.72-.89,1.72-1.7v-.51c0-.83-.4-1.31-1.72-1.31s-1.72.48-1.72,1.31v.51c0,.81.35,1.15,1.72,1.7Z"/>
    </g>
    <rect class="cls-5" x="656.06" y="94.43" width="26.3" height="69.45"/>
    <rect class="cls-5" x="532.82" y="82.74" width="27.02" height="81.14"/>
    <rect class="cls-5" x="410.3" y="112.6" width="27.02" height="51.28"/>
    <rect class="cls-3" x="689.92" y="88.59" width="26.3" height="75.3"/>
    <rect class="cls-3" x="566.68" y="76.25" width="27.02" height="87.63"/>
    <rect class="cls-3" x="444.15" y="91.83" width="27.02" height="72.05"/>
    <rect class="cls-4" x="723.77" y="113.25" width="26.3" height="50.63"/>
    <rect class="cls-4" x="600.53" y="106.76" width="27.02" height="57.12"/>
    <rect class="cls-4" x="478.01" y="113.9" width="27.02" height="49.98"/>
    <g>
      <path class="cls-5" d="M410.26,91.04v-5.86c0-4.34,2.95-5.5,7.37-5.5.7,0,1.58.07,2.35.19l-.24,2.83c-.5-.07-1.27-.12-1.63-.12-3.22,0-4.39.58-4.39,2.57v1.18c.86-.26,1.66-.36,2.64-.36,2.69,0,4.06,1.15,4.06,4.03v1.03c0,2.4-.94,4.63-5.09,4.63s-5.06-2.11-5.06-4.63ZM416.96,91.21v-1.06c0-.98-.55-1.2-1.18-1.2-.79,0-1.49.17-2.06.43v1.82c0,1.1.36,1.49,1.61,1.49s1.63-.46,1.63-1.49Z"/>
      <path class="cls-5" d="M422.45,95.44v-3.98h3.46v3.98h-3.46Z"/>
      <path class="cls-5" d="M431.64,86.19c1.54,0,1.97-.43,1.97-1.49v-.98c0-1.01-.43-1.22-1.94-1.22-1.06,0-2.11.12-3.31.34l-.36-2.71c1.37-.29,2.57-.43,3.98-.43,4.01,0,5.09,1.2,5.09,3.6v1.13c0,1.42-.48,2.5-1.61,3.19,1.34.6,1.9,1.44,1.9,2.95v1.22c0,2.35-1.1,3.89-5.47,3.89-1.46,0-2.69-.12-3.94-.53l.36-2.66c1.18.22,2.06.31,3.46.31,1.68,0,2.14-.34,2.14-1.27v-1.1c0-.89-.55-1.27-1.75-1.27h-3.17v-2.95h2.66Z"/>
    </g>
    <g>
      <path class="cls-2" d="M453.07,70.83c1.45.67,1.93,1.34,1.93,2.42v.46c0,1.78-.95,2.53-3.29,2.53s-3.29-.75-3.29-2.53v-.46c0-1.08.46-1.75,1.88-2.42-1.27-.62-1.61-1.27-1.61-2.28v-.41c0-1.45.72-2.5,3.02-2.5s3.02,1.05,3.02,2.5v.41c0,1-.35,1.65-1.65,2.28ZM451.7,71.43c-1.61.65-1.99.96-1.99,1.86v.37c0,1.08.51,1.43,1.99,1.43s1.99-.35,1.99-1.43v-.37c0-.91-.4-1.21-1.99-1.86ZM451.7,70.29c1.37-.56,1.72-.89,1.72-1.7v-.51c0-.83-.4-1.31-1.72-1.31s-1.72.48-1.72,1.31v.51c0,.81.35,1.15,1.72,1.7Z"/>
      <path class="cls-2" d="M456.98,74.25h1.37v1.83h-1.37v-1.83Z"/>
      <path class="cls-2" d="M465,70.83c1.45.67,1.93,1.34,1.93,2.42v.46c0,1.78-.95,2.53-3.29,2.53s-3.29-.75-3.29-2.53v-.46c0-1.08.46-1.75,1.88-2.42-1.27-.62-1.61-1.27-1.61-2.28v-.41c0-1.45.72-2.5,3.02-2.5s3.02,1.05,3.02,2.5v.41c0,1-.35,1.65-1.65,2.28ZM463.63,71.43c-1.61.65-1.99.96-1.99,1.86v.37c0,1.08.51,1.43,1.99,1.43s1.99-.35,1.99-1.43v-.37c0-.91-.4-1.21-1.99-1.86ZM463.63,70.29c1.37-.56,1.72-.89,1.72-1.7v-.51c0-.83-.4-1.31-1.72-1.31s-1.72.48-1.72,1.31v.51c0,.81.35,1.15,1.72,1.7Z"/>
    </g>
    <g>
      <path class="cls-2" d="M486.01,92.56c.52-.19,1.42-.37,2.12-.37,2.02,0,2.72.84,2.72,2.53v.51c0,1.86-.51,3.01-3.06,3.01-2.29,0-3.1-.96-3.1-2.45v-4.55c0-2.64,1.18-3.6,4.17-3.6.49,0,1.24.06,1.75.19l-.14,1.11c-.38-.08-1.02-.14-1.4-.14-2.47,0-3.06.53-3.06,2.45v1.3ZM486.01,93.79v1.81c0,1.13.57,1.46,1.78,1.46,1.37,0,1.73-.41,1.73-1.46v-.88c0-.97-.37-1.37-1.53-1.37-.7,0-1.46.21-1.99.43Z"/>
      <path class="cls-2" d="M492.68,96.25h1.37v1.83h-1.37v-1.83Z"/>
      <path class="cls-2" d="M494.64,90.48l-.59-1.07,2.79-1.61h1.19v10.28h-1.34v-8.75l-2.05,1.15Z"/>
    </g>
    <g>
      <path class="cls-5" d="M540.36,54.53v5.86c0,4.34-2.95,5.5-7.37,5.5-.79,0-1.75-.1-2.35-.19l.19-2.83c.46.05,1.08.12,1.68.12,3.12,0,4.39-.58,4.39-2.57v-1.18c-.86.26-1.66.36-2.64.36-2.69,0-4.06-1.15-4.06-4.03v-1.03c0-2.4.94-4.63,5.09-4.63s5.06,2.11,5.06,4.63ZM533.66,54.36v1.06c0,.98.55,1.2,1.18,1.2.79,0,1.49-.17,2.06-.43v-1.82c0-1.1-.36-1.49-1.61-1.49s-1.63.46-1.63,1.49Z"/>
      <path class="cls-5" d="M542.28,65.64v-3.98h3.46v3.98h-3.46Z"/>
      <path class="cls-5" d="M557.8,54.53v5.86c0,4.34-2.95,5.5-7.37,5.5-.79,0-1.75-.1-2.35-.19l.19-2.83c.46.05,1.08.12,1.68.12,3.12,0,4.39-.58,4.39-2.57v-1.18c-.86.26-1.66.36-2.64.36-2.69,0-4.06-1.15-4.06-4.03v-1.03c0-2.4.94-4.63,5.09-4.63s5.06,2.11,5.06,4.63ZM551.11,54.36v1.06c0,.98.55,1.2,1.18,1.2.79,0,1.49-.17,2.06-.43v-1.82c0-1.1-.36-1.49-1.61-1.49s-1.63.46-1.63,1.49Z"/>
    </g>
    <g>
      <path class="cls-2" d="M571.07,52.88l-.59-1.07,2.79-1.61h1.19v10.28h-1.34v-8.75l-2.05,1.15Z"/>
      <path class="cls-2" d="M583.16,57.89c0,1.59-.81,2.75-3.28,2.75s-3.28-1.16-3.28-2.75v-5.09c0-1.59.81-2.75,3.28-2.75s3.28,1.16,3.28,2.75v5.09ZM579.88,51.22c-1.46,0-1.94.56-1.94,1.72v4.81c0,1.16.48,1.72,1.94,1.72s1.94-.56,1.94-1.72v-4.81c0-1.16-.48-1.72-1.94-1.72Z"/>
      <path class="cls-2" d="M585.23,58.65h1.37v1.83h-1.37v-1.83Z"/>
      <path class="cls-2" d="M587.87,50.2h6.32v1.13l-4.23,9.15h-1.35l4.22-9.1h-4.95v-1.18Z"/>
    </g>
    <path class="cls-2" d="M610.94,80.76h6.32v1.13l-4.23,9.15h-1.35l4.22-9.1h-4.95v-1.18Z"/>
    <g>
      <path class="cls-5" d="M657.36,69.63c-1.25-.82-1.63-1.61-1.63-2.69v-1.34c0-2.42,1.25-3.82,4.82-3.82s4.82,1.39,4.82,3.82v1.34c0,1.15-.38,1.9-1.63,2.69,1.56.84,2.02,1.66,2.02,2.83v1.22c0,2.93-1.39,4.08-5.21,4.08s-5.21-1.15-5.21-4.08v-1.22c0-1.15.46-1.99,2.02-2.83ZM660.55,74.94c1.44,0,1.87-.38,1.87-1.3v-.79c0-.79-.1-1.08-1.92-1.78-1.82.7-1.82.98-1.82,1.78v.79c0,1.01.43,1.3,1.87,1.3ZM660.6,68.38c1.42-.53,1.44-.77,1.44-1.49v-1.15c0-.77-.26-1.15-1.49-1.15s-1.49.38-1.49,1.15v1.15c0,.72.12.96,1.54,1.49Z"/>
      <path class="cls-5" d="M667.92,77.53v-3.98h3.46v3.98h-3.46Z"/>
      <path class="cls-5" d="M677.93,71.21c-1.73-.07-2.52-.1-3.82-.12v-9.07h8.76v3h-5.3v3.26c.82.02,1.25.05,2.16.1,2.76.17,3.48,1.51,3.48,3.41v1.7c-.02,2.74-1.03,4.27-5.4,4.27-1.08,0-2.95-.19-4.27-.6l.5-2.78c1.2.26,2.59.38,3.74.38,1.63,0,1.97-.46,1.97-1.46v-.65c0-1.08-.29-1.37-1.82-1.44Z"/>
    </g>
    <g>
      <path class="cls-2" d="M699.36,68.16c-.52.19-1.42.37-2.12.37-2.02,0-2.72-.84-2.72-2.53v-.51c0-1.86.56-3.01,3.06-3.01,2.29,0,3.1,1,3.1,2.5v4.5c0,2.64-1.18,3.6-4.17,3.6-.49,0-1.24-.06-1.75-.19l.13-1.11c.38.08,1.03.14,1.42.14,2.47,0,3.06-.53,3.06-2.45v-1.31ZM699.36,66.94v-1.81c0-1.13-.57-1.46-1.78-1.46-1.37,0-1.73.41-1.73,1.46v.88c0,.97.37,1.37,1.53,1.37.7,0,1.46-.21,1.99-.43Z"/>
      <path class="cls-2" d="M702.43,71.09h1.37v1.83h-1.37v-1.83Z"/>
      <path class="cls-2" d="M705.55,71.7c1.18-1.34,1.48-1.69,2.74-3.17,1.62-1.93,1.73-2.34,1.73-3.09v-.46c0-1-.27-1.3-1.88-1.3-.75,0-1.75.17-2.35.35l-.19-1.15c.68-.21,1.73-.4,2.66-.4,2.45,0,3.1.86,3.1,2.48v.35c0,1.26-.22,1.8-1.81,3.69-1.15,1.37-1.31,1.58-2.34,2.74h4.25v1.18h-5.9v-1.23Z"/>
    </g>
    <g>
      <path class="cls-2" d="M729.78,91.88c.52-.19,1.42-.37,2.12-.37,2.02,0,2.72.84,2.72,2.53v.51c0,1.86-.51,3.01-3.06,3.01-2.29,0-3.1-.96-3.1-2.45v-4.55c0-2.64,1.18-3.6,4.17-3.6.49,0,1.24.06,1.75.19l-.14,1.11c-.38-.08-1.02-.14-1.4-.14-2.47,0-3.06.53-3.06,2.45v1.3ZM729.78,93.1v1.81c0,1.13.57,1.46,1.78,1.46,1.37,0,1.73-.41,1.73-1.46v-.88c0-.97-.37-1.37-1.53-1.37-.7,0-1.46.21-1.99.43Z"/>
      <path class="cls-2" d="M736.45,95.57h1.37v1.83h-1.37v-1.83Z"/>
      <path class="cls-2" d="M739.56,96.18c1.18-1.34,1.48-1.69,2.74-3.17,1.62-1.93,1.73-2.34,1.73-3.09v-.46c0-1-.27-1.3-1.88-1.3-.75,0-1.75.17-2.35.35l-.19-1.15c.68-.21,1.73-.4,2.66-.4,2.45,0,3.1.86,3.1,2.48v.35c0,1.26-.22,1.8-1.81,3.69-1.15,1.37-1.31,1.58-2.34,2.74h4.25v1.18h-5.9v-1.23Z"/>
    </g>
  </g>
  <g>
    <g>
      <rect class="cls-5" x="191.27" y="301.59" width="12.84" height="12.84"/>
      <g>
        <path class="cls-1" d="M216.81,312.94h5.61v1.24h-12.49v-1.24h5.43v-2.18h-3.98v-1.2h3.98v-2.01h-3.32v-1.2c-.65.46-1.3.86-1.92,1.18-.19-.36-.55-.83-.86-1.12,1.76-.77,3.79-2.23,5.23-3.73h-2.35v-1.29h4.72c1.32,1.97,3.79,3.89,6.19,4.84-.28.28-.73.86-.93,1.24-.64-.3-1.29-.67-1.91-1.08v1.15h-3.39v2.01h4.03v1.2h-4.03v2.18ZM212.07,306.33h8.04c-1.52-1.02-2.95-2.34-4-3.66-1.07,1.29-2.55,2.6-4.04,3.66Z"/>
        <path class="cls-1" d="M237.18,306.07c-.78,1.04-1.73,2.25-2.5,3.05.65,1.36,1.55,2.38,2.89,3.32-.31.25-.7.68-.84,1.07-1.45-1.09-2.44-2.29-3.14-3.85v3.3c0,.74-.18,1.12-.62,1.35-.46.24-1.15.28-2.29.28-.06-.36-.3-.96-.47-1.32.8.03,1.51.01,1.73.01.24-.01.33-.09.33-.33v-3.02c-1.14,1.14-2.31,2.25-3.29,3.14l-.84-1.2.21-.16c-1.52.5-3.12,1.01-4.37,1.39l-.3-1.32c.52-.13,1.17-.33,1.86-.53v-3.85h-1.58v-1.27h1.58v-2.95h-1.69v-1.27h4.57v1.27h-1.61v2.95h1.39v1.27h-1.39v3.46l1.69-.52.18,1.09c.98-.78,2.32-1.92,3.58-3v-3.72h-3.51v-1.27h3.51v-2.46h1.33v2.46h3.74v1.27h-3.74v.61c.16,1.01.37,1.87.62,2.63.64-.79,1.33-1.75,1.78-2.52l1.2.62ZM229.97,305.53c.62.81,1.29,1.91,1.54,2.63l-1.14.55c-.22-.74-.86-1.87-1.47-2.71l1.07-.47ZM235.89,303.43c-.36-.47-1.1-1.15-1.72-1.61l.77-.71c.64.43,1.41,1.07,1.78,1.51l-.83.81Z"/>
        <path class="cls-1" d="M242.6,301.06h1.36v6.84c0,2.21-.64,5.17-4.17,6.84-.24-.34-.67-.77-.99-1.05,1.69-.67,2.65-1.78,3.18-2.93-1.23.22-2.43.44-3.4.62l-.27-1.36c1.05-.13,2.56-.37,4.11-.59.13-.56.18-1.09.18-1.51v-.24h-3.64v-1.26h3.64v-2.04h-3.85v-1.29h3.85v-2.03ZM251.76,311.07h-4.38v3.48h-1.38v-13.48h1.38v2.04h4.11v1.29h-4.11v2.04h3.8v1.24h-3.8v2.1h4.38v1.29Z"/>
        <path class="cls-1" d="M257.42,308.64c-.47.15-.96.3-1.44.41v3.88c0,.71-.15,1.07-.58,1.26-.43.22-1.08.25-2.1.25-.04-.34-.24-.9-.4-1.24.65.01,1.27.01,1.45.01.21-.01.3-.07.3-.3v-3.48l-1.72.47-.37-1.32c.59-.13,1.3-.31,2.09-.52v-2.93h-1.89v-1.27h1.89v-2.89h1.33v2.89h1.72v1.27h-1.72v2.58l1.26-.34.18,1.26ZM265.27,307.73c-.56,1.81-1.52,3.18-2.72,4.26,1.05.61,2.29,1.07,3.69,1.33-.3.3-.67.89-.87,1.27-1.52-.37-2.86-.95-3.98-1.73-1.24.8-2.66,1.35-4.17,1.73-.12-.38-.43-.96-.68-1.26,1.35-.27,2.63-.71,3.74-1.36-.95-.89-1.69-1.94-2.26-3.15l.37-.13h-.74v-1.29h6.51l.24-.04.89.37ZM260.28,303.14c0,1.38-.41,2.99-2.31,3.98-.16-.27-.65-.81-.89-1.01,1.67-.84,1.91-1.98,1.91-3.02v-1.6h4.87v3.32c0,.42.03.58.27.58h.99c.22,0,.56-.03.77-.09.02.35.06.84.1,1.15-.21.07-.53.09-.86.09h-1.11c-1.2,0-1.47-.49-1.47-1.75v-2.03h-2.28v.37ZM259.33,308.69c.5.96,1.2,1.81,2.07,2.5.83-.68,1.52-1.51,2.04-2.5h-4.11Z"/>
        <path class="cls-1" d="M276.33,303.2c0,.1,0,.22-.03.36.8.81,2.38,1.32,4.34,1.44-.27.28-.61.77-.74,1.12-1.69-.24-3.03-.77-3.97-1.63-.53.68-1.7,1.32-4.25,1.67-.13-.31-.44-.77-.7-1.02h-3.76v-1.08h4.29v.98c3.21-.42,3.55-1.24,3.55-1.88v-.19h-1.23c-.33.53-.7,1.01-1.08,1.38-.22-.19-.73-.55-1.04-.7.77-.67,1.38-1.69,1.7-2.72l1.23.27c-.09.25-.18.49-.28.74h4.62l.19-.06.95.31c-.37.78-.87,1.64-1.29,2.19l-1.08-.38c.19-.27.41-.65.62-1.02h-2.06v.24ZM276.21,312.17c1.52.5,3.17,1.12,4.17,1.61l-1.24.75c-.9-.49-2.46-1.15-3.98-1.67l.86-.7h-4.43l1.23.56c-1.2.73-3.05,1.44-4.53,1.85-.24-.28-.73-.79-1.02-1.04,1.51-.3,3.24-.8,4.26-1.38h-2.38v-5.95h9.65v5.95h-2.59ZM271.17,302.83h-3.63v-1.04h3.63v1.04ZM270.49,307.93h6.94v-.84h-6.94v.84ZM270.49,309.59h6.94v-.83h-6.94v.83ZM270.49,311.29h6.94v-.86h-6.94v.86Z"/>
        <path class="cls-1" d="M283.89,303.15c-.43.65-.93,1.26-1.42,1.7-.21-.24-.65-.73-.95-.95.92-.74,1.76-1.89,2.23-3.05l1.23.35c-.12.27-.24.5-.38.77h3.58v1.17h-2.44c.44.38.92.83,1.2,1.15l-.89.8c-.3-.4-.96-1.05-1.48-1.51l.52-.44h-1.2ZM291.95,309.89h2.86v1.12h-2.86v2.22c0,.7-.18,1.02-.73,1.17-.56.16-1.42.16-2.66.16-.06-.35-.22-.8-.37-1.12.87.04,1.79.03,2.01.02.25-.02.33-.07.33-.28v-2.16h-5.3c.78.62,1.84,1.52,2.37,2.09l-1.04.81c-.49-.58-1.54-1.55-2.35-2.23l.9-.67h-3.32v-1.12h8.73v-.9h1.42v.9ZM295.08,301.98v1.18h-2.99c.44.41.93.93,1.18,1.29l-.95.8c-.27-.44-.87-1.11-1.38-1.58l.62-.5h-1.3c-.35.68-.78,1.29-1.21,1.76l-.04-.04v.43h5.31v1.17h-5.31v1.11h4.46v1.08h-10.39v-1.08h4.51v-1.11h-5.27v-1.17h5.27v-.83h.93c-.18-.15-.37-.28-.5-.37.8-.78,1.47-2.01,1.84-3.24l1.26.3c-.09.28-.18.55-.28.81h4.25Z"/>
        <path class="cls-1" d="M300.88,309.89c-.04-.24-.09-.49-.18-.8-3.29.55-3.8.67-4.1.84-.06-.27-.28-.92-.44-1.26.37-.07.7-.43,1.15-.98.22-.24.64-.75,1.11-1.45-1.38.16-1.7.25-1.92.35-.07-.27-.28-.9-.43-1.24.27-.07.53-.36.83-.8.33-.43,1.3-2.06,1.86-3.63l1.27.52c-.58,1.29-1.35,2.63-2.13,3.71l1.33-.12c.4-.62.77-1.29,1.1-1.95l1.15.73c-.92,1.61-2.06,3.23-3.21,4.53l2.12-.28c-.16-.43-.33-.84-.5-1.21l.98-.34c.46.95.93,2.19,1.08,2.96l-1.07.41ZM297.82,310.69c-.15,1.27-.4,2.67-.71,3.57-.24-.12-.75-.3-1.04-.38.34-.87.53-2.19.65-3.38l1.1.19ZM299.33,310.42c.18.93.34,2.13.38,2.93l-1.04.27c-.01-.81-.16-2.03-.33-2.97l.98-.22ZM309.2,306.07c-.37,2.16-1.08,3.97-2.04,5.42.68.8,1.5,1.44,2.46,1.85-.33.27-.73.79-.93,1.16-.92-.47-1.7-1.12-2.35-1.91-.71.81-1.52,1.48-2.38,2.01-.19-.34-.58-.81-.87-1.07.9-.47,1.73-1.18,2.44-2.09-.61-1.01-1.07-2.15-1.44-3.4-.28,2.61-.84,4.77-2.01,6.45-.21-.22-.86-.68-1.18-.87.28-.37.52-.77.74-1.2l-.99.34c-.12-.64-.41-1.64-.68-2.4l.95-.3c.3.73.61,1.7.74,2.34,1.12-2.32,1.36-5.6,1.39-9.46h-1.36v-1.29h5.12l.21-.06.95.12c-.16,1.24-.41,2.8-.67,4.1h.81l.25-.06.86.31ZM304.36,302.94c-.01,1.01-.06,1.95-.1,2.87h1.72c.19-.92.36-1.98.5-2.87h-2.12ZM305,307.04c.31,1.17.74,2.28,1.32,3.26.58-.96,1.02-2.06,1.32-3.26h-2.63Z"/>
        <path class="cls-1" d="M314.83,301.38c-.37.98-.84,1.97-1.36,2.92v10.24h-1.33v-8.16c-.43.58-.87,1.12-1.33,1.58-.12-.33-.52-1.05-.74-1.39,1.39-1.35,2.71-3.45,3.51-5.58l1.26.38ZM318.64,312.64c-.86.75-2.26,1.5-3.42,1.92-.24-.25-.75-.72-1.08-.95,1.17-.34,2.46-.89,3.18-1.46l1.32.49ZM318.46,302.65h-3.45v-.9h3.45v-.77h1.39v.77h3.6v.9h-3.6v.62h3.24v.87h-3.24v.67h4.07v.93h-9.55v-.93h4.08v-.67h-3.09v-.87h3.09v-.62ZM315.48,311.97v-5.59h7.52v5.59h-7.52ZM316.82,308.02h4.81v-.75h-4.81v.75ZM316.82,309.53h4.81v-.77h-4.81v.77ZM316.82,311.07h4.81v-.77h-4.81v.77ZM321.17,312.06c1.01.56,2.18,1.32,2.81,1.87l-1.24.74c-.59-.56-1.81-1.44-2.8-2.03l1.23-.58Z"/>
      </g>
    </g>
    <g>
      <rect class="cls-3" x="346.45" y="301.59" width="12.84" height="12.84"/>
      <g>
        <path class="cls-1" d="M371.83,308.58c-.03.34-.09.67-.15.98h5.94v1.17h-6.25c-.7,1.92-2.26,3.17-6.17,3.8-.1-.37-.43-.93-.7-1.24,3.24-.44,4.65-1.27,5.31-2.56h-4.72v-1.17h5.14c.06-.31.12-.62.16-.98h-5.62v-1.21h5.79v-1.05h-4.47v-1.17h4.47v-1.01h-5.3v-1.21h2.98c-.24-.49-.64-1.1-.99-1.54l1.2-.47c.5.53,1.01,1.27,1.21,1.79l-.49.22h3.61c.4-.59.9-1.42,1.15-2.01l1.47.4c-.34.55-.74,1.14-1.1,1.61h3.02v1.21h-5.34v1.01h4.63v1.17h-4.63v1.05h5.96v1.21h-6.11ZM377.31,314.62c-1.32-.86-3.97-2.09-5.95-2.86l.61-1.04c1.94.7,4.63,1.87,5.98,2.68l-.64,1.21Z"/>
        <path class="cls-1" d="M391.91,301.63v12.98h-1.36v-.65h-9.68v.65h-1.3v-12.98h12.34ZM390.54,312.71v-9.84h-9.68v9.84h9.68ZM389.45,306.39c-.36,1.35-.9,2.52-1.58,3.51.25.64.58,1.04.96,1.11.18.06.31-.55.4-1.47.22.22.64.52.87.65-.21,1.69-.83,2.26-1.69,1.92-.55-.15-.99-.58-1.35-1.23-.52.56-1.11,1.07-1.76,1.48-.15-.21-.55-.65-.77-.84.4-.24.78-.5,1.14-.8-1.45.24-2.95.52-4.13.73l-.15-1.04c1.08-.15,2.69-.4,4.29-.65l.03.92c.33-.28.62-.59.89-.93-.36-1.12-.58-2.56-.73-4.13h-4.34v-1.02h4.25c-.03-.47-.06-.95-.09-1.42h1.14c.01.47.04.96.07,1.42h2.09c-.3-.34-.93-.75-1.47-1.02l.64-.64c.53.25,1.18.65,1.51.98l-.65.68h.9v1.02h-2.93c.1,1.07.25,2.07.43,2.9.4-.71.7-1.5.92-2.35l1.1.22ZM385.28,306.41v2.84h-3.27v-2.84h3.27ZM384.31,307.19h-1.39v1.27h1.39v-1.27Z"/>
        <path class="cls-1" d="M398.16,308.64c-.47.15-.96.3-1.44.41v3.88c0,.71-.15,1.07-.58,1.26-.43.22-1.08.25-2.1.25-.04-.34-.24-.9-.4-1.24.65.01,1.27.01,1.45.01.21-.01.3-.07.3-.3v-3.48l-1.72.47-.37-1.32c.59-.13,1.3-.31,2.09-.52v-2.93h-1.89v-1.27h1.89v-2.89h1.33v2.89h1.72v1.27h-1.72v2.58l1.26-.34.18,1.26ZM406,307.73c-.56,1.81-1.52,3.18-2.72,4.26,1.05.61,2.29,1.07,3.69,1.33-.3.3-.67.89-.87,1.27-1.52-.37-2.86-.95-3.98-1.73-1.24.8-2.66,1.35-4.17,1.73-.12-.38-.43-.96-.68-1.26,1.35-.27,2.63-.71,3.74-1.36-.95-.89-1.69-1.94-2.26-3.15l.37-.13h-.74v-1.29h6.51l.24-.04.89.37ZM401.02,303.14c0,1.38-.41,2.99-2.31,3.98-.16-.27-.65-.81-.89-1.01,1.67-.84,1.91-1.98,1.91-3.02v-1.6h4.87v3.32c0,.42.03.58.27.58h.99c.22,0,.56-.03.77-.09.01.35.06.84.1,1.15-.21.07-.53.09-.86.09h-1.11c-1.2,0-1.47-.49-1.47-1.75v-2.03h-2.28v.37ZM400.07,308.69c.5.96,1.2,1.81,2.07,2.5.83-.68,1.52-1.51,2.04-2.5h-4.11Z"/>
        <path class="cls-1" d="M417.07,303.2c0,.1,0,.22-.03.36.8.81,2.38,1.32,4.34,1.44-.27.28-.61.77-.74,1.12-1.69-.24-3.03-.77-3.97-1.63-.53.68-1.7,1.32-4.25,1.67-.13-.31-.44-.77-.7-1.02h-3.76v-1.08h4.29v.98c3.21-.42,3.55-1.24,3.55-1.88v-.19h-1.23c-.33.53-.7,1.01-1.08,1.38-.22-.19-.73-.55-1.04-.7.77-.67,1.38-1.69,1.7-2.72l1.23.27c-.09.25-.18.49-.28.74h4.62l.19-.06.95.31c-.37.78-.87,1.64-1.29,2.19l-1.08-.38c.19-.27.41-.65.62-1.02h-2.06v.24ZM416.95,312.17c1.52.5,3.17,1.12,4.17,1.61l-1.24.75c-.9-.49-2.46-1.15-3.98-1.67l.86-.7h-4.43l1.23.56c-1.2.73-3.05,1.44-4.53,1.85-.24-.28-.73-.79-1.02-1.04,1.51-.3,3.24-.8,4.26-1.38h-2.38v-5.95h9.65v5.95h-2.59ZM411.9,302.83h-3.63v-1.04h3.63v1.04ZM411.22,307.93h6.94v-.84h-6.94v.84ZM411.22,309.59h6.94v-.83h-6.94v.83ZM411.22,311.29h6.94v-.86h-6.94v.86Z"/>
        <path class="cls-1" d="M424.62,303.15c-.43.65-.93,1.26-1.42,1.7-.21-.24-.65-.73-.95-.95.92-.74,1.76-1.89,2.23-3.05l1.23.35c-.12.27-.24.5-.38.77h3.58v1.17h-2.44c.44.38.92.83,1.2,1.15l-.89.8c-.3-.4-.96-1.05-1.48-1.51l.52-.44h-1.2ZM432.69,309.89h2.86v1.12h-2.86v2.22c0,.7-.18,1.02-.73,1.17-.56.16-1.42.16-2.66.16-.06-.35-.22-.8-.37-1.12.87.04,1.79.03,2.01.02.25-.02.33-.07.33-.28v-2.16h-5.3c.78.62,1.84,1.52,2.37,2.09l-1.04.81c-.49-.58-1.54-1.55-2.35-2.23l.9-.67h-3.32v-1.12h8.73v-.9h1.42v.9ZM435.81,301.98v1.18h-2.99c.44.41.93.93,1.18,1.29l-.95.8c-.27-.44-.87-1.11-1.38-1.58l.62-.5h-1.3c-.35.68-.78,1.29-1.21,1.76l-.04-.04v.43h5.31v1.17h-5.31v1.11h4.46v1.08h-10.39v-1.08h4.51v-1.11h-5.27v-1.17h5.27v-.83h.93c-.18-.15-.37-.28-.5-.37.8-.78,1.47-2.01,1.84-3.24l1.26.3c-.09.28-.18.55-.28.81h4.25Z"/>
        <path class="cls-1" d="M441.62,309.89c-.04-.24-.09-.49-.18-.8-3.29.55-3.8.67-4.1.84-.06-.27-.28-.92-.44-1.26.37-.07.7-.43,1.15-.98.22-.24.64-.75,1.11-1.45-1.38.16-1.7.25-1.92.35-.07-.27-.28-.9-.43-1.24.27-.07.53-.36.83-.8.33-.43,1.3-2.06,1.86-3.63l1.27.52c-.58,1.29-1.35,2.63-2.13,3.71l1.33-.12c.4-.62.77-1.29,1.1-1.95l1.15.73c-.92,1.61-2.06,3.23-3.21,4.53l2.12-.28c-.16-.43-.33-.84-.5-1.21l.98-.34c.46.95.93,2.19,1.08,2.96l-1.07.41ZM438.55,310.69c-.15,1.27-.4,2.67-.71,3.57-.24-.12-.75-.3-1.04-.38.34-.87.53-2.19.65-3.38l1.1.19ZM440.06,310.42c.18.93.34,2.13.38,2.93l-1.04.27c-.01-.81-.16-2.03-.33-2.97l.98-.22ZM449.94,306.07c-.37,2.16-1.08,3.97-2.04,5.42.68.8,1.5,1.44,2.46,1.85-.33.27-.73.79-.93,1.16-.92-.47-1.7-1.12-2.35-1.91-.71.81-1.52,1.48-2.38,2.01-.19-.34-.58-.81-.87-1.07.9-.47,1.73-1.18,2.44-2.09-.61-1.01-1.07-2.15-1.44-3.4-.28,2.61-.84,4.77-2.01,6.45-.21-.22-.86-.68-1.18-.87.28-.37.52-.77.74-1.2l-.99.34c-.12-.64-.41-1.64-.68-2.4l.95-.3c.3.73.61,1.7.74,2.34,1.12-2.32,1.36-5.6,1.39-9.46h-1.36v-1.29h5.12l.21-.06.95.12c-.16,1.24-.41,2.8-.67,4.1h.81l.25-.06.86.31ZM445.1,302.94c-.01,1.01-.06,1.95-.1,2.87h1.72c.19-.92.36-1.98.5-2.87h-2.12ZM445.73,307.04c.31,1.17.74,2.28,1.32,3.26.58-.96,1.02-2.06,1.32-3.26h-2.63Z"/>
        <path class="cls-1" d="M455.57,301.38c-.37.98-.84,1.97-1.36,2.92v10.24h-1.33v-8.16c-.43.58-.87,1.12-1.33,1.58-.12-.33-.52-1.05-.74-1.39,1.39-1.35,2.71-3.45,3.51-5.58l1.26.38ZM459.37,312.64c-.86.75-2.26,1.5-3.42,1.92-.24-.25-.75-.72-1.08-.95,1.17-.34,2.46-.89,3.18-1.46l1.32.49ZM459.19,302.65h-3.45v-.9h3.45v-.77h1.39v.77h3.6v.9h-3.6v.62h3.24v.87h-3.24v.67h4.07v.93h-9.55v-.93h4.08v-.67h-3.09v-.87h3.09v-.62ZM456.22,311.97v-5.59h7.52v5.59h-7.52ZM457.55,308.02h4.81v-.75h-4.81v.75ZM457.55,309.53h4.81v-.77h-4.81v.77ZM457.55,311.07h4.81v-.77h-4.81v.77ZM461.9,312.06c1.01.56,2.18,1.32,2.81,1.87l-1.24.74c-.59-.56-1.81-1.44-2.8-2.03l1.23-.58Z"/>
      </g>
    </g>
    <g>
      <rect class="cls-4" x="487.01" y="301.59" width="12.84" height="12.84"/>
      <g>
        <path class="cls-1" d="M512.39,308.58c-.03.34-.09.67-.15.98h5.94v1.17h-6.25c-.7,1.92-2.26,3.17-6.17,3.8-.1-.37-.43-.93-.7-1.24,3.24-.44,4.65-1.27,5.31-2.56h-4.72v-1.17h5.14c.06-.31.12-.62.16-.98h-5.62v-1.21h5.79v-1.05h-4.47v-1.17h4.47v-1.01h-5.3v-1.21h2.98c-.24-.49-.64-1.1-.99-1.54l1.2-.47c.5.53,1.01,1.27,1.21,1.79l-.49.22h3.61c.4-.59.9-1.42,1.15-2.01l1.47.4c-.34.55-.74,1.14-1.1,1.61h3.02v1.21h-5.34v1.01h4.63v1.17h-4.63v1.05h5.96v1.21h-6.11ZM517.87,314.62c-1.32-.86-3.97-2.09-5.95-2.86l.61-1.04c1.94.7,4.63,1.87,5.98,2.68l-.64,1.21Z"/>
        <path class="cls-1" d="M532.47,301.63v12.98h-1.36v-.65h-9.68v.65h-1.3v-12.98h12.34ZM531.11,312.71v-9.84h-9.68v9.84h9.68ZM530.01,306.39c-.36,1.35-.9,2.52-1.58,3.51.25.64.58,1.04.96,1.11.18.06.31-.55.4-1.47.22.22.64.52.87.65-.21,1.69-.83,2.26-1.69,1.92-.55-.15-.99-.58-1.35-1.23-.52.56-1.11,1.07-1.76,1.48-.15-.21-.55-.65-.77-.84.4-.24.78-.5,1.14-.8-1.45.24-2.95.52-4.13.73l-.15-1.04c1.08-.15,2.69-.4,4.29-.65l.03.92c.33-.28.62-.59.89-.93-.36-1.12-.58-2.56-.73-4.13h-4.34v-1.02h4.25c-.03-.47-.06-.95-.09-1.42h1.14c.01.47.04.96.07,1.42h2.09c-.3-.34-.93-.75-1.47-1.02l.64-.64c.53.25,1.18.65,1.51.98l-.65.68h.9v1.02h-2.93c.1,1.07.25,2.07.43,2.9.4-.71.7-1.5.92-2.35l1.1.22ZM525.84,306.41v2.84h-3.27v-2.84h3.27ZM524.88,307.19h-1.39v1.27h1.39v-1.27Z"/>
        <path class="cls-1" d="M539.42,301.85c-1.05,2.41-2.72,4.84-4.35,6.33-.24-.28-.86-.86-1.21-1.14,1.61-1.33,3.15-3.49,4.06-5.67l1.51.47ZM543.58,308.76c1.18,1.6,2.58,3.67,3.27,5l-1.39.75c-.21-.43-.46-.9-.78-1.44-7.42.55-8.3.61-8.95.86-.06-.31-.34-1.08-.55-1.48.44-.12.84-.56,1.42-1.24.61-.65,2.49-3.23,3.67-5.7l1.6.65c-1.21,2.16-2.69,4.31-4.17,6.01l6.2-.37c-.55-.86-1.12-1.72-1.64-2.46l1.33-.59ZM543.86,301.35c.68,2.22,2.1,4.38,3.86,5.48-.33.31-.81.93-1.07,1.36-1.67-1.26-3.03-3.33-3.85-5.43h-2.58v-1.41h3.63Z"/>
        <path class="cls-1" d="M552.82,301.38c-.37.98-.84,1.97-1.36,2.92v10.24h-1.33v-8.16c-.43.58-.87,1.12-1.33,1.58-.12-.33-.52-1.05-.74-1.39,1.39-1.35,2.71-3.45,3.51-5.58l1.26.38ZM556.62,312.64c-.86.75-2.26,1.5-3.42,1.92-.24-.25-.75-.72-1.08-.95,1.17-.34,2.46-.89,3.18-1.46l1.32.49ZM556.44,302.65h-3.45v-.9h3.45v-.77h1.39v.77h3.6v.9h-3.6v.62h3.24v.87h-3.24v.67h4.07v.93h-9.55v-.93h4.08v-.67h-3.09v-.87h3.09v-.62ZM553.47,311.97v-5.59h7.52v5.59h-7.52ZM554.8,308.02h4.81v-.75h-4.81v.75ZM554.8,309.53h4.81v-.77h-4.81v.77ZM554.8,311.07h4.81v-.77h-4.81v.77ZM559.15,312.06c1.01.56,2.18,1.32,2.81,1.87l-1.24.74c-.59-.56-1.81-1.44-2.8-2.03l1.23-.58Z"/>
      </g>
    </g>
  </g>
</svg>