<?xml version="1.0" encoding="UTF-8"?>
<svg id="Layer_1" data-name="Layer 1" xmlns="http://www.w3.org/2000/svg" viewBox="0 0 768.28 187.35">
  <defs>
    <style>
      .cls-1 {
        fill: none;
        stroke: #bababa;
        stroke-linejoin: round;
        stroke-width: .8px;
      }

      .cls-2 {
        fill: #4d4d4f;
      }

      .cls-2, .cls-3, .cls-4, .cls-5, .cls-6 {
        stroke-width: 0px;
      }

      .cls-3 {
        fill: #ece166;
      }

      .cls-4 {
        fill: #f4c14d;
      }

      .cls-5 {
        fill: #da7232;
      }

      .cls-6 {
        fill: #1e9bd7;
      }
    </style>
  </defs>
  <g>
    <path class="cls-6" d="M8.9,102.54h5.89v1.69H1.24v-1.69h5.68v-1.93H2.8v-1.64h4.12v-1.81h-3.34v-1.37c-.68.46-1.37.86-2.02,1.19-.27-.46-.73-1.11-1.16-1.53,1.77-.72,3.74-2.04,5.24-3.45h-2.12v-1.75h5.44c1.37,2,3.92,4.01,6.62,5-.4.41-.99,1.19-1.27,1.73-.68-.32-1.35-.7-2.01-1.13v1.31h-3.41v1.81h4.17v1.64h-4.17v1.93ZM11.76,95.49c-1.46-1.03-2.79-2.26-3.82-3.49-1.05,1.23-2.47,2.47-3.92,3.49h7.73Z"/>
    <path class="cls-6" d="M31.57,95.55c-.83,1.08-1.83,2.26-2.63,3.07.68,1.37,1.62,2.39,2.98,3.34-.43.32-.94.92-1.16,1.43-1.34-1.02-2.28-2.1-3.01-3.44v2.53c0,.96-.19,1.45-.75,1.75-.54.32-1.35.4-2.53.4-.08-.51-.4-1.32-.64-1.83.76.03,1.51.03,1.75.02.24,0,.35-.08.35-.32v-2.61c-1.11,1.08-2.26,2.18-3.25,3.07l-.88-1.34c-1.64.53-3.36,1.07-4.73,1.5l-.4-1.8c.56-.14,1.19-.32,1.91-.53v-3.84h-1.59v-1.73h1.59v-2.8h-1.67v-1.77h5.04v1.77h-1.61v2.8h1.37v1.73h-1.37v3.33l1.62-.49.17,1.03c1.03-.76,2.45-1.88,3.77-2.98v-3.8h-3.66v-1.73h3.66v-2.55h1.81v2.55h2.16c-.41-.48-1.1-1.07-1.67-1.5l1.03-.96c.67.41,1.5,1.1,1.91,1.58l-.91.88h1.37v1.73h-3.9v.64c.16.88.35,1.64.57,2.36.59-.76,1.21-1.64,1.61-2.36l1.64.86ZM23.83,94.75c.6.88,1.29,2,1.53,2.8l-1.54.72c-.22-.76-.86-1.97-1.45-2.86l1.46-.65Z"/>
    <path class="cls-6" d="M37.7,89.84h1.88v7.42c0,2.59-.78,5.75-4.63,7.59-.3-.46-.91-1.07-1.35-1.43,1.61-.62,2.61-1.66,3.23-2.75l-3.33.57-.35-1.89c1.13-.13,2.72-.32,4.38-.54.13-.56.18-1.08.18-1.53v-.02h-3.79v-1.72h3.79v-1.89h-3.96v-1.77h3.96v-2.04ZM47.95,100.98h-4.58v3.66h-1.89v-14.8h1.89v2.04h4.3v1.77h-4.3v1.89h3.95v1.72h-3.95v1.96h4.58v1.77Z"/>
    <path class="cls-6" d="M53.32,98.7v3.79c0,.92-.17,1.38-.72,1.66-.53.3-1.29.35-2.4.35-.06-.49-.3-1.24-.54-1.72.64.02,1.29.02,1.5.02.22,0,.3-.08.3-.3v-3.29l-1.61.41-.49-1.81c.6-.13,1.32-.29,2.1-.46v-2.8h-1.89v-1.75h1.89v-3.02h1.86v3.02h1.67v1.75h-1.67v2.34l1.16-.29.24,1.73-1.4.38ZM63.38,97.08c-.57,1.94-1.5,3.45-2.72,4.6,1.07.54,2.31.95,3.68,1.21-.4.43-.92,1.23-1.19,1.75-1.58-.38-2.94-.95-4.11-1.72-1.27.76-2.72,1.32-4.33,1.7-.19-.53-.6-1.31-.92-1.73,1.35-.24,2.59-.65,3.68-1.21-.88-.88-1.61-1.89-2.2-3.07l.59-.21h-.92v-1.77h6.91l.33-.08,1.21.52ZM55.44,96.42c-.22-.35-.91-1.1-1.26-1.35,1.88-.86,2.12-2,2.12-3.1v-1.7h5.62v3.47c0,.46.02.65.25.65h.86c.27,0,.67-.05.89-.11.03.48.08,1.13.14,1.58-.24.1-.64.11-1,.11h-1.07c-1.56,0-1.89-.67-1.89-2.26v-1.69l-2.05.02c0,1.59-.46,3.36-2.61,4.39ZM57.1,98.4c.48.84,1.15,1.59,1.96,2.23.75-.6,1.37-1.37,1.85-2.23h-3.8Z"/>
    <path class="cls-6" d="M75.87,92.59c.86.84,2.55,1.24,4.69,1.35-.38.37-.83,1.05-1.05,1.51-1.78-.22-3.17-.73-4.17-1.61-.6.7-1.93,1.32-4.6,1.62-.13-.3-.38-.7-.64-1.03h-4.22v-1.45h4.81v.97c3.04-.32,3.44-1.03,3.44-1.62v-.24h-.95c-.33.53-.72,1-1.11,1.37-.3-.29-1-.75-1.4-.97.84-.7,1.5-1.75,1.86-2.83l1.65.37c-.08.24-.17.48-.27.7h4.52l.29-.08,1.29.4c-.41.88-.96,1.88-1.46,2.51l-1.46-.54c.18-.25.38-.59.56-.92h-1.77v.49ZM76.3,101.95c1.46.54,3.02,1.18,3.96,1.64l-1.7,1.02c-.91-.53-2.56-1.31-4.14-1.88l.97-.78h-4.49l1.38.64c-1.31.83-3.36,1.62-4.97,2.07-.32-.37-.99-1.07-1.4-1.38,1.53-.29,3.23-.76,4.34-1.32h-2.29v-6.46h10.65v6.46h-2.32ZM70.33,91.92h-4.07v-1.38h4.07v1.38ZM69.8,97.3h6.89v-.68h-6.89v.68ZM69.8,99.05h6.89v-.68h-6.89v.68ZM69.8,100.83h6.89v-.72h-6.89v.72Z"/>
    <path class="cls-6" d="M96.84,90.76v1.61h-2.88c.41.38.81.81,1.03,1.11l-1,.88h2.1v1.61h-5.63v.92h4.66v1.43h-11.35v-1.43h4.71v-.92h-5.59v-1.61h3.95c-.35-.43-.97-1.05-1.5-1.5l.56-.49h-1.13c-.48.67-.99,1.26-1.5,1.72-.27-.33-.89-.99-1.26-1.29.96-.78,1.88-1.99,2.39-3.18l1.67.49c-.1.22-.21.43-.3.65h3.53v1.61h-2.23c.4.33.78.7,1,.99l-1.1,1h1.5v-.78h1.16c-.22-.18-.46-.33-.64-.45.86-.84,1.59-2.18,1.99-3.52l1.72.41c-.08.24-.14.49-.24.73h4.36ZM93.57,99.4h3.01v1.54h-3.01v1.96c0,.91-.21,1.29-.89,1.5-.67.21-1.64.21-2.96.21-.06-.48-.25-1.07-.46-1.53.78.05,1.78.05,2.02.03.24,0,.33-.06.33-.29v-1.88h-4.95c.75.62,1.62,1.4,2.1,1.93l-1.4,1.1c-.51-.62-1.59-1.64-2.42-2.37l.92-.65h-3.47v-1.54h9.21v-.78h1.96v.78ZM93.56,94.36c-.33-.45-.88-1.02-1.29-1.45l.65-.54h-1.21c-.38.72-.81,1.34-1.26,1.83v.16h3.1Z"/>
    <path class="cls-6" d="M100.54,100.45c-.11,1.4-.37,2.91-.7,3.88-.32-.18-1.02-.4-1.42-.49.38-.94.56-2.36.65-3.63l1.46.24ZM98.44,94.37c.32-.1.59-.38.92-.86.32-.43,1.32-2.18,1.89-3.84l1.73.7c-.57,1.29-1.34,2.64-2.15,3.76l1.11-.08c.41-.67.83-1.38,1.15-2.1l1.58,1c-.91,1.62-2.08,3.26-3.31,4.63l1.67-.24c-.14-.38-.29-.75-.45-1.07l1.27-.48c.51,1,1,2.31,1.15,3.17l-1.38.56c-.03-.22-.08-.49-.16-.78-3.37.6-3.96.73-4.31.94-.1-.33-.38-1.21-.6-1.67.43-.11.78-.46,1.29-1.05.21-.22.59-.67,1.03-1.29-1.24.14-1.61.24-1.85.37-.1-.37-.38-1.19-.59-1.67ZM102.19,100.1c.19,1.02.37,2.32.41,3.17l-1.37.35c-.02-.86-.17-2.2-.33-3.2l1.29-.32ZM112.95,95.23c-.4,2.39-1.11,4.39-2.12,5.98.68.75,1.5,1.34,2.44,1.75-.41.35-.97,1.07-1.26,1.58-.89-.46-1.66-1.07-2.31-1.81-.68.76-1.43,1.38-2.28,1.91-.29-.45-.78-1.08-1.19-1.42.86-.48,1.65-1.16,2.34-2.02-.48-.81-.89-1.75-1.24-2.74-.32,2.42-.89,4.47-1.96,6.08-.29-.3-1.18-.94-1.62-1.18.25-.33.48-.72.67-1.11l-1.1.4c-.13-.67-.45-1.75-.73-2.56l1.26-.41c.27.72.56,1.59.73,2.26,1.07-2.44,1.29-5.82,1.3-9.72h-1.32v-1.78h5.41l.27-.08,1.32.18c-.16,1.37-.45,2.98-.72,4.36h.59l.3-.06,1.21.41ZM107.71,92.21c-.02.92-.05,1.81-.08,2.67h1.45c.17-.84.33-1.83.46-2.67h-1.83ZM108.4,96.57c.29,1.08.7,2.12,1.24,3.02.49-.91.89-1.93,1.18-3.02h-2.42Z"/>
    <path class="cls-6" d="M119.69,90.31c-.38.97-.84,1.97-1.37,2.94v11.33h-1.85v-8.45c-.38.49-.76.96-1.16,1.35-.16-.45-.67-1.48-.97-1.94,1.42-1.38,2.79-3.6,3.6-5.79l1.75.56ZM123.97,102.52c-.94.84-2.44,1.64-3.64,2.13-.33-.38-1.05-1-1.5-1.31,1.24-.35,2.56-.92,3.33-1.5l1.81.67ZM123.34,91.7h-3.49v-1.18h3.49v-.78h1.91v.78h3.63v1.18h-3.63v.52h3.29v1.11h-3.29v.54h4.17v1.26h-10.25v-1.26h4.17v-.54h-3.15v-1.11h3.15v-.52ZM126.66,101.8c1.05.6,2.23,1.38,2.86,1.96l-1.7.99c-.6-.62-1.86-1.58-2.91-2.21l1.64-.73h-6.27v-6.14h8.18v6.14h-1.8ZM122.09,97.44h4.46v-.62h-4.46v.62ZM122.09,99.03h4.46v-.64h-4.46v.64ZM122.09,100.63h4.46v-.64h-4.46v.64Z"/>
  </g>
  <g>
    <path class="cls-2" d="M8.53,139.43c-.03.37-.1.72-.16,1.05h6.38v1.26h-6.72c-.75,2.07-2.44,3.41-6.64,4.09-.11-.4-.46-1-.75-1.34,3.49-.48,5-1.37,5.71-2.75H1.29v-1.26h5.52c.06-.33.13-.67.18-1.05H.94v-1.31h6.22v-1.13H2.36v-1.26h4.81v-1.08H1.47v-1.31h3.2c-.25-.52-.68-1.18-1.07-1.66l1.29-.51c.54.57,1.08,1.37,1.31,1.93l-.53.24h3.88c.43-.64.97-1.53,1.24-2.16l1.58.43c-.37.59-.8,1.23-1.18,1.73h3.25v1.31h-5.75v1.08h4.98v1.26h-4.98v1.13h6.41v1.31h-6.57ZM14.42,145.93c-1.42-.92-4.27-2.24-6.4-3.07l.65-1.11c2.08.75,4.98,2.01,6.43,2.88l-.68,1.3Z"/>
    <path class="cls-2" d="M30.9,131.95v13.96h-1.46v-.7h-10.41v.7h-1.4v-13.96h13.27ZM29.44,143.88v-10.58h-10.41v10.58h10.41ZM28.26,137.08c-.38,1.45-.97,2.71-1.7,3.77.27.68.62,1.11,1.03,1.19.19.06.33-.59.43-1.58.24.24.68.56.94.7-.22,1.81-.89,2.44-1.81,2.07-.59-.16-1.07-.62-1.45-1.32-.56.6-1.19,1.15-1.89,1.59-.16-.22-.59-.7-.83-.91.43-.25.84-.54,1.23-.86-1.56.25-3.17.56-4.44.78l-.16-1.11c1.16-.16,2.9-.43,4.62-.7l.03.99c.35-.3.67-.64.96-1-.38-1.21-.62-2.75-.78-4.44h-4.66v-1.1h4.57l-.1-1.53h1.23c.02.51.05,1.03.08,1.53h2.24c-.32-.37-1-.81-1.58-1.1l.68-.68c.57.27,1.27.7,1.62,1.05l-.7.73h.97v1.1h-3.15c.11,1.15.27,2.23.46,3.12.43-.76.75-1.61.99-2.53l1.18.24ZM23.77,137.1v3.06h-3.52v-3.06h3.52ZM22.74,137.94h-1.5v1.37h1.5v-1.37Z"/>
    <path class="cls-2" d="M38.4,139.5c-.51.16-1.03.32-1.54.45v4.17c0,.76-.16,1.15-.62,1.35-.46.24-1.16.27-2.26.27-.05-.37-.25-.97-.43-1.34.7.02,1.37.02,1.56.02.22-.02.32-.08.32-.32v-3.74l-1.85.51-.4-1.42c.64-.14,1.4-.33,2.24-.56v-3.15h-2.04v-1.37h2.04v-3.1h1.43v3.1h1.85v1.37h-1.85v2.77l1.35-.37.19,1.35ZM46.84,138.51c-.6,1.94-1.64,3.42-2.93,4.58,1.13.65,2.47,1.15,3.96,1.43-.32.32-.72.96-.94,1.37-1.64-.4-3.07-1.02-4.28-1.86-1.34.86-2.86,1.45-4.49,1.86-.13-.41-.46-1.03-.73-1.35,1.45-.29,2.83-.76,4.03-1.46-1.02-.96-1.81-2.08-2.44-3.39l.4-.14h-.8v-1.38h7l.25-.05.96.4ZM41.48,133.58c0,1.48-.45,3.21-2.48,4.28-.17-.29-.7-.88-.96-1.08,1.8-.91,2.05-2.13,2.05-3.25v-1.72h5.24v3.56c0,.45.03.62.29.62h1.07c.24,0,.6-.03.83-.1.02.38.06.91.11,1.24-.22.08-.57.1-.92.1h-1.19c-1.29,0-1.58-.52-1.58-1.88v-2.18h-2.45v.4ZM40.46,139.55c.54,1.03,1.29,1.94,2.23,2.69.89-.73,1.64-1.62,2.2-2.69h-4.42Z"/>
    <path class="cls-2" d="M59.52,133.64c0,.11,0,.24-.03.38.86.88,2.56,1.42,4.66,1.54-.29.3-.65.83-.8,1.21-1.81-.25-3.26-.83-4.27-1.75-.57.73-1.83,1.42-4.57,1.8-.14-.33-.48-.83-.75-1.1h-4.04v-1.16h4.62v1.05c3.45-.45,3.82-1.34,3.82-2.02v-.21h-1.32c-.35.57-.75,1.08-1.16,1.48-.24-.21-.78-.59-1.11-.75.83-.72,1.48-1.81,1.83-2.93l1.32.29c-.1.27-.19.53-.3.8h4.97l.21-.06,1.02.33c-.4.84-.94,1.77-1.38,2.36l-1.16-.41c.21-.29.45-.7.67-1.1h-2.21v.25ZM59.39,143.29c1.64.54,3.41,1.21,4.49,1.73l-1.34.81c-.97-.53-2.64-1.24-4.28-1.8l.92-.75h-4.76l1.32.6c-1.29.78-3.28,1.54-4.87,1.99-.25-.3-.78-.84-1.1-1.11,1.62-.32,3.49-.86,4.58-1.48h-2.56v-6.4h10.38v6.4h-2.79ZM53.96,133.24h-3.9v-1.11h3.9v1.11ZM53.23,138.73h7.46v-.91h-7.46v.91ZM53.23,140.52h7.46v-.89h-7.46v.89ZM53.23,142.35h7.46v-.92h-7.46v.92Z"/>
    <path class="cls-2" d="M68.42,133.59c-.46.7-1,1.35-1.53,1.83-.22-.25-.7-.78-1.02-1.02.99-.8,1.89-2.04,2.4-3.28l1.32.38c-.13.29-.25.54-.41.83h3.85v1.26h-2.63c.48.41.99.89,1.29,1.24l-.96.86c-.32-.43-1.03-1.13-1.59-1.62l.56-.48h-1.29ZM77.1,140.83h3.07v1.21h-3.07v2.39c0,.75-.19,1.1-.78,1.26-.6.18-1.53.18-2.86.18-.06-.38-.24-.86-.4-1.21.94.05,1.93.03,2.16.02.27-.02.35-.08.35-.3v-2.32h-5.7c.84.67,1.97,1.64,2.55,2.24l-1.11.88c-.53-.62-1.66-1.67-2.53-2.4l.97-.72h-3.56v-1.21h9.39v-.97h1.53v.97ZM80.45,132.34v1.27h-3.21c.48.45,1,1,1.27,1.38l-1.02.86c-.29-.48-.94-1.19-1.48-1.7l.67-.54h-1.4c-.38.73-.84,1.38-1.3,1.89l-.05-.05v.46h5.71v1.26h-5.71v1.19h4.79v1.16h-11.17v-1.16h4.85v-1.19h-5.67v-1.26h5.67v-.89h1c-.19-.16-.4-.3-.54-.4.86-.84,1.58-2.16,1.97-3.49l1.35.32c-.1.3-.19.59-.3.88h4.57Z"/>
    <path class="cls-2" d="M87.48,140.83c-.05-.25-.1-.52-.19-.86-3.53.59-4.09.72-4.41.91-.06-.29-.3-.99-.48-1.35.4-.08.75-.46,1.24-1.05.24-.25.68-.81,1.19-1.56-1.48.18-1.83.27-2.07.38-.08-.29-.3-.97-.46-1.34.29-.08.57-.38.89-.86.35-.46,1.4-2.21,2.01-3.9l1.37.56c-.62,1.38-1.45,2.83-2.29,3.99l1.43-.13c.43-.67.83-1.38,1.18-2.1l1.24.78c-.99,1.73-2.21,3.47-3.45,4.87l2.28-.3c-.17-.46-.35-.91-.54-1.3l1.05-.37c.49,1.02,1,2.36,1.16,3.18l-1.15.45ZM84.19,141.69c-.16,1.37-.43,2.86-.76,3.84-.25-.13-.81-.32-1.11-.41.37-.94.57-2.36.7-3.63l1.18.21ZM85.81,141.41c.19,1,.37,2.29.41,3.15l-1.11.29c-.02-.88-.18-2.18-.35-3.2l1.05-.24ZM96.42,136.73c-.4,2.32-1.16,4.27-2.2,5.82.73.86,1.61,1.54,2.64,1.99-.35.29-.78.84-1,1.24-.99-.51-1.83-1.21-2.53-2.05-.76.88-1.64,1.59-2.56,2.16-.21-.37-.62-.88-.94-1.15.97-.51,1.86-1.27,2.63-2.24-.65-1.08-1.15-2.31-1.54-3.66-.3,2.8-.91,5.12-2.16,6.94-.22-.24-.92-.73-1.27-.94.3-.4.56-.83.8-1.29l-1.07.37c-.13-.68-.45-1.77-.73-2.58l1.02-.32c.32.78.65,1.83.8,2.51,1.21-2.5,1.46-6.02,1.5-10.17h-1.46v-1.38h5.51l.22-.06,1.02.13c-.17,1.34-.45,3.01-.72,4.41h.88l.27-.06.92.33ZM91.22,133.37c-.02,1.08-.06,2.1-.11,3.09h1.85c.21-.99.38-2.13.54-3.09h-2.28ZM91.9,137.78c.33,1.26.8,2.45,1.42,3.5.62-1.03,1.1-2.21,1.42-3.5h-2.83Z"/>
    <path class="cls-2" d="M103.26,131.68c-.4,1.05-.91,2.12-1.46,3.14v11.01h-1.43v-8.77c-.46.62-.94,1.21-1.43,1.7-.13-.35-.56-1.13-.8-1.5,1.5-1.45,2.91-3.71,3.77-6l1.35.41ZM107.35,143.8c-.92.81-2.44,1.61-3.68,2.07-.25-.27-.81-.78-1.16-1.02,1.26-.37,2.64-.96,3.42-1.58l1.42.53ZM107.16,133.05h-3.71v-.97h3.71v-.83h1.5v.83h3.87v.97h-3.87v.67h3.49v.94h-3.49v.72h4.38v1h-10.27v-1h4.39v-.72h-3.33v-.94h3.33v-.67ZM103.96,143.08v-6.02h8.08v6.02h-8.08ZM105.39,138.83h5.17v-.81h-5.17v.81ZM105.39,140.45h5.17v-.83h-5.17v.83ZM105.39,142.11h5.17v-.83h-5.17v.83ZM110.07,143.17c1.08.6,2.34,1.42,3.02,2l-1.34.8c-.64-.6-1.94-1.54-3.01-2.18l1.32-.62Z"/>
  </g>
  <g>
    <path class="cls-2" d="M8.53,180.81c-.03.37-.1.72-.16,1.05h6.38v1.26h-6.72c-.75,2.07-2.44,3.41-6.64,4.09-.11-.4-.46-1-.75-1.34,3.49-.48,5-1.37,5.71-2.75H1.29v-1.26h5.52c.06-.33.13-.67.18-1.05H.94v-1.31h6.22v-1.13H2.36v-1.26h4.81v-1.08H1.46v-1.31h3.2c-.25-.52-.68-1.18-1.07-1.66l1.29-.51c.54.57,1.08,1.37,1.31,1.93l-.53.24h3.88c.43-.64.97-1.53,1.24-2.16l1.58.43c-.37.59-.8,1.23-1.18,1.73h3.25v1.31h-5.75v1.08h4.98v1.26h-4.98v1.13h6.41v1.31h-6.57ZM14.42,187.3c-1.42-.92-4.27-2.24-6.4-3.07l.65-1.11c2.08.75,4.98,2.01,6.43,2.88l-.68,1.3Z"/>
    <path class="cls-2" d="M30.9,173.33v13.96h-1.46v-.7h-10.41v.7h-1.4v-13.96h13.27ZM29.44,185.25v-10.58h-10.41v10.58h10.41ZM28.26,178.45c-.38,1.45-.97,2.71-1.7,3.77.27.68.62,1.11,1.03,1.19.19.06.33-.59.43-1.58.24.24.68.56.94.7-.22,1.81-.89,2.44-1.81,2.07-.59-.16-1.07-.62-1.45-1.32-.56.6-1.19,1.15-1.89,1.59-.16-.22-.59-.7-.83-.91.43-.25.84-.54,1.23-.86-1.56.25-3.17.56-4.44.78l-.16-1.11c1.16-.16,2.9-.43,4.62-.7l.03.99c.35-.3.67-.64.96-1-.38-1.21-.62-2.75-.78-4.44h-4.66v-1.1h4.57l-.1-1.53h1.23c.02.51.05,1.03.08,1.53h2.24c-.32-.37-1-.81-1.58-1.1l.68-.68c.57.27,1.27.7,1.62,1.05l-.7.73h.97v1.1h-3.15c.11,1.15.27,2.23.46,3.12.43-.76.75-1.61.99-2.53l1.18.24ZM23.77,178.47v3.06h-3.52v-3.06h3.52ZM22.73,179.31h-1.5v1.37h1.5v-1.37Z"/>
    <path class="cls-2" d="M39.15,173.56c-1.13,2.59-2.93,5.2-4.68,6.81-.25-.3-.92-.92-1.3-1.23,1.73-1.43,3.39-3.76,4.36-6.1l1.62.51ZM43.62,181c1.27,1.72,2.77,3.95,3.52,5.38l-1.5.81c-.22-.46-.49-.97-.84-1.54-7.97.59-8.93.65-9.63.92-.06-.33-.37-1.16-.59-1.59.48-.13.91-.6,1.53-1.34.65-.7,2.67-3.47,3.95-6.13l1.72.7c-1.31,2.32-2.9,4.63-4.49,6.46l6.67-.4c-.59-.92-1.21-1.85-1.77-2.64l1.43-.64ZM43.93,173.02c.73,2.39,2.26,4.71,4.15,5.89-.35.33-.88,1-1.15,1.46-1.8-1.35-3.26-3.58-4.14-5.84h-2.77v-1.51h3.9Z"/>
    <path class="cls-2" d="M54.34,173.06c-.4,1.05-.91,2.12-1.46,3.14v11.01h-1.43v-8.77c-.46.62-.94,1.21-1.43,1.7-.13-.35-.56-1.13-.8-1.5,1.5-1.45,2.91-3.71,3.77-6l1.35.41ZM58.43,185.17c-.92.81-2.44,1.61-3.68,2.07-.25-.27-.81-.78-1.16-1.02,1.26-.37,2.64-.96,3.42-1.58l1.42.53ZM58.24,174.42h-3.71v-.97h3.71v-.83h1.5v.83h3.87v.97h-3.87v.67h3.49v.94h-3.49v.72h4.38v1h-10.27v-1h4.39v-.72h-3.33v-.94h3.33v-.67ZM55.04,184.45v-6.02h8.08v6.02h-8.08ZM56.48,180.2h5.17v-.81h-5.17v.81ZM56.48,181.82h5.17v-.83h-5.17v.83ZM56.48,183.48h5.17v-.83h-5.17v.83ZM61.15,184.55c1.08.6,2.34,1.42,3.02,2l-1.34.8c-.64-.6-1.94-1.54-3.01-2.18l1.32-.62Z"/>
  </g>
  <g>
    <path class="cls-2" d="M223.67,11.75c1.21-1.32,1.37-1.48,2.47-2.75,1.5-1.73,1.73-1.99,1.73-3.02v-.27c0-.78-.32-1-1.48-1-.7,0-1.7.14-2.5.32l-.27-1.62c.72-.21,1.73-.41,2.88-.41,2.45,0,3.31.84,3.31,2.5v.37c0,1.46-.13,1.8-1.61,3.61-.89,1.1-1.27,1.54-1.89,2.26h3.53v1.7h-6.18v-1.67Z"/>
    <path class="cls-2" d="M239.1,10.73c0,1.59-.84,2.85-3.44,2.85s-3.44-1.26-3.44-2.85v-4.9c0-1.59.84-2.85,3.44-2.85s3.44,1.26,3.44,2.85v4.9ZM234.17,10.54c0,.92.27,1.34,1.5,1.34s1.5-.41,1.5-1.34v-4.52c0-.92-.27-1.34-1.5-1.34s-1.5.41-1.5,1.34v4.52Z"/>
    <path class="cls-2" d="M248.44,10.73c0,1.59-.84,2.85-3.44,2.85s-3.44-1.26-3.44-2.85v-4.9c0-1.59.84-2.85,3.44-2.85s3.44,1.26,3.44,2.85v4.9ZM243.51,10.54c0,.92.27,1.34,1.5,1.34s1.5-.41,1.5-1.34v-4.52c0-.92-.27-1.34-1.5-1.34s-1.5.41-1.5,1.34v4.52Z"/>
    <path class="cls-2" d="M252.76,7.58c.56-.19,1.21-.29,1.89-.29,1.93,0,2.71.8,2.71,2.63v.76c0,1.66-.76,2.9-3.26,2.9-2.74,0-3.28-1.21-3.28-3.04v-3.87c0-2.8,1.5-3.69,4.39-3.69.59,0,1.35.08,1.83.19l-.13,1.62c-.46-.1-1.16-.14-1.5-.14-1.88,0-2.66.32-2.66,1.94v.99ZM252.76,9.29v1.45c0,.88.33,1.16,1.34,1.16s1.32-.35,1.32-1.16v-.78c0-.76-.37-1-1.07-1-.57,0-1.15.14-1.59.33Z"/>
    <path class="cls-2" d="M273.77,11.16h-5.59v3.52h-1.53v-3.52h-7.24v-1.43h2.56v-4.2h4.68v-2.2h-3.64c-.68,1.18-1.48,2.23-2.29,3.02-.29-.25-.92-.73-1.29-.95,1.46-1.26,2.74-3.28,3.47-5.4l1.5.4c-.19.49-.41,1.02-.62,1.5h9.21v1.43h-4.81v2.2h4.44v1.38h-4.44v2.82h5.59v1.43ZM266.65,9.72v-2.82h-3.2v2.82h3.2Z"/>
    <path class="cls-2" d="M289.47,8.42c-.45,1.48-1.19,2.69-2.13,3.66.84.59,1.81,1.03,2.93,1.29-.32.27-.68.83-.89,1.18-1.15-.33-2.18-.88-3.06-1.54-.91.7-1.93,1.23-3.01,1.62-.16-.35-.48-.86-.78-1.15v1.19h-1.38v-1.46c-1.91.21-3.8.43-5.25.6l-.13-1.31c.43-.03.92-.08,1.45-.13v-5.11h-1.31v-1.19h13.94v1.19h-7.32v6.16c.99-.29,1.94-.76,2.77-1.38-.7-.76-1.27-1.67-1.69-2.67l.38-.11h-.92v-1.16h5.25l.24-.05.91.37ZM279.2,5.44h-1.42V.57h10.27v4.87h-1.48V1.64h-7.37v3.8ZM278.54,7.27v.89h2.61v-.89h-2.61ZM278.54,10.12h2.61v-.89h-2.61v.89ZM278.54,12.25c.83-.08,1.72-.18,2.61-.29v-.76h-2.61v1.05ZM285.86,2.4v.92h-6.05v-.92h6.05ZM279.81,4.09h6.06v.92h-6.06v-.92ZM284.92,9.26c.35.7.8,1.37,1.37,1.94.57-.56,1.05-1.23,1.4-1.94h-2.77Z"/>
    <path class="cls-2" d="M296.67,3.8c-.37.73-.83,1.46-1.32,2.16v8.74h-1.4v-7c-.41.46-.86.88-1.29,1.24-.13-.3-.56-1.03-.81-1.34,1.32-1.03,2.69-2.64,3.52-4.25l1.3.45ZM296.35.56c-.89,1.37-2.29,2.86-3.58,3.84-.16-.3-.54-.81-.78-1.08,1.13-.83,2.39-2.16,3.02-3.25l1.34.49ZM305.15,8.56c-.62,1.5-1.62,2.71-2.85,3.63,1.19.57,2.51.97,3.98,1.23-.3.3-.7.91-.89,1.29-1.66-.33-3.12-.89-4.41-1.64-1.35.78-2.91,1.32-4.5,1.66-.14-.35-.46-.96-.72-1.26,1.38-.25,2.74-.65,3.93-1.24-.52-.4-1-.84-1.46-1.32-.37.37-.75.67-1.13.96-.21-.29-.7-.84-1-1.1.43-.25.86-.59,1.26-.96-.29-.4-.56-.81-.8-1.27l1.21-.4c.16.29.3.54.49.8.49-.54.92-1.15,1.31-1.77-2.02.13-2.45.19-2.79.32-.05-.27-.27-.99-.43-1.37.48-.06,1.02-.33,1.77-.75.33-.18.97-.56,1.75-1.07-2.05.1-2.48.17-2.72.27-.08-.3-.32-1.02-.49-1.42.32-.06.65-.27,1.07-.54.4-.29,1.77-1.34,2.69-2.45l1.46.65c-.88.86-1.86,1.7-2.85,2.37l2.51-.06c.67-.49,1.34-1.05,1.94-1.61l1.35.75c-1.72,1.45-3.58,2.69-5.41,3.69l4.22-.24c-.29-.4-.59-.8-.88-1.13l1.16-.6c.88,1.05,1.97,2.51,2.5,3.44l-1.23.7c-.18-.35-.45-.81-.78-1.29l-3.26.22c-.19.38-.41.78-.67,1.15h3.5l.25-.06.91.43ZM299.63,9.39c-.14.21-.32.4-.49.59.54.57,1.18,1.07,1.86,1.5.89-.57,1.64-1.27,2.18-2.08h-3.55Z"/>
    <path class="cls-2" d="M322.78,6.4v1.62h-14.48v-1.62h14.48Z"/>
    <path class="cls-2" d="M329.68,10.36h-5v-1.48h5v1.48ZM329.27,3.88h-4.25v-1.43h4.25v1.43ZM334.18,6.03v.51c.68,3.23,2.16,5.73,5.01,6.73-.33.3-.8.89-1,1.32-2.21-.96-3.61-2.69-4.49-5.03-.62,1.85-1.94,3.74-4.79,5.17-.21-.37-.75-.92-1.1-1.19,4.41-2.15,4.79-5.35,4.79-7.54v-1.32h1.58v1.35ZM331.54,4.15c-.48,1.27-1.03,2.42-1.67,3.31-.33-.25-1.08-.67-1.5-.86,1.27-1.51,2.16-4.01,2.64-6.54l1.62.3c-.16.8-.37,1.56-.59,2.31h5.32l.3-.08,1.07.6c-.38,1.61-1.08,3.29-1.66,4.42-.3-.16-.89-.46-1.24-.62.33-.72.75-1.8,1.05-2.85h-5.35Z"/>
    <path class="cls-2" d="M255.85,26.87h-3.33v6.88h-1.51v-6.88h-4.5c-.13,2.58-.88,5.12-4.04,6.91-.21-.33-.72-.88-1.05-1.13,2.77-1.53,3.47-3.64,3.61-5.78h-3.47v-1.42h3.5v-3.21c-.95.27-1.93.51-2.85.72-.08-.35-.32-.89-.52-1.21,2.48-.57,5.2-1.46,6.81-2.42l1.08,1.21c-.89.46-1.93.88-3.04,1.26v3.66h4.47v-6.02h1.51v6.02h3.33v1.42Z"/>
    <path class="cls-2" d="M257.73,32.36c.59-.88,1.19-2.23,1.56-3.25l1.29.54c-.38,1.03-.92,2.44-1.5,3.36l-1.35-.65ZM264.51,28.21h-4.44v-7.62h3.68c.19-.49.41-1.15.51-1.61l1.77.27c-.22.48-.49.94-.7,1.34h4.54v7.62h-4.85c.73.68,1.53,1.61,1.91,2.24l-1.23.73c-.35-.7-1.23-1.75-2.02-2.48l.84-.49ZM266.95,32.14c.8,0,.94-.22,1.02-1.78.33.24.96.46,1.37.54-.21,2.1-.65,2.59-2.29,2.59h-3.34c-2.01,0-2.51-.41-2.51-1.85v-2.42h1.48v2.39c0,.45.18.52,1.15.52h3.14ZM261.51,22.78h6.88v-1.03h-6.88v1.03ZM261.51,24.9h6.88v-1.03h-6.88v1.03ZM261.51,27.05h6.88v-1.05h-6.88v1.05ZM270.31,28.85c.72.99,1.5,2.32,1.77,3.23l-1.4.62c-.24-.91-.97-2.28-1.67-3.31l1.31-.54Z"/>
    <path class="cls-2" d="M278.77,22.89c-.37.73-.83,1.46-1.32,2.16v8.74h-1.4v-7c-.41.46-.86.88-1.29,1.24-.13-.3-.56-1.03-.81-1.34,1.32-1.03,2.69-2.64,3.52-4.25l1.3.45ZM278.45,19.65c-.89,1.37-2.29,2.86-3.58,3.84-.16-.3-.54-.81-.78-1.08,1.13-.83,2.39-2.16,3.02-3.25l1.34.49ZM287.25,27.65c-.62,1.5-1.62,2.71-2.85,3.63,1.19.57,2.51.97,3.98,1.23-.3.3-.7.91-.89,1.29-1.66-.33-3.12-.89-4.41-1.64-1.35.78-2.91,1.32-4.5,1.66-.14-.35-.46-.96-.72-1.26,1.38-.25,2.74-.65,3.93-1.24-.52-.4-1-.84-1.46-1.32-.37.37-.75.67-1.13.96-.21-.29-.7-.84-1-1.1.43-.25.86-.59,1.26-.96-.29-.4-.56-.81-.8-1.27l1.21-.4c.16.29.3.54.49.8.49-.54.92-1.15,1.31-1.77-2.02.13-2.45.19-2.79.32-.05-.27-.27-.99-.43-1.37.48-.06,1.02-.33,1.77-.75.33-.18.97-.56,1.75-1.07-2.05.1-2.48.17-2.72.27-.08-.3-.32-1.02-.49-1.42.32-.06.65-.27,1.07-.54.4-.29,1.77-1.34,2.69-2.45l1.46.65c-.88.86-1.86,1.7-2.85,2.37l2.51-.06c.67-.49,1.34-1.05,1.94-1.61l1.35.75c-1.72,1.45-3.58,2.69-5.41,3.69l4.22-.24c-.29-.4-.59-.8-.88-1.13l1.16-.6c.88,1.05,1.97,2.51,2.5,3.44l-1.23.7c-.18-.35-.45-.81-.78-1.29l-3.26.22c-.19.38-.41.78-.67,1.15h3.5l.25-.06.91.43ZM281.73,28.48c-.14.21-.32.4-.49.59.54.57,1.18,1.07,1.86,1.5.89-.57,1.64-1.27,2.18-2.08h-3.55Z"/>
    <path class="cls-2" d="M304.88,25.49v1.62h-14.48v-1.62h14.48Z"/>
    <path class="cls-2" d="M321.09,30.25h-5.59v3.52h-1.53v-3.52h-7.24v-1.43h2.56v-4.2h4.68v-2.2h-3.64c-.68,1.18-1.48,2.23-2.29,3.02-.29-.25-.92-.73-1.29-.95,1.46-1.26,2.74-3.28,3.47-5.4l1.5.4c-.19.49-.41,1.02-.62,1.5h9.21v1.43h-4.81v2.2h4.44v1.38h-4.44v2.82h5.59v1.43ZM313.97,28.81v-2.82h-3.2v2.82h3.2Z"/>
  </g>
  <g>
    <path class="cls-2" d="M426.47,11.75c1.21-1.32,1.37-1.48,2.47-2.75,1.5-1.73,1.73-1.99,1.73-3.02v-.27c0-.78-.32-1-1.48-1-.7,0-1.7.14-2.5.32l-.27-1.62c.72-.21,1.73-.41,2.88-.41,2.45,0,3.31.84,3.31,2.5v.37c0,1.46-.13,1.8-1.61,3.61-.89,1.1-1.27,1.54-1.89,2.26h3.53v1.7h-6.18v-1.67Z"/>
    <path class="cls-2" d="M441.9,10.73c0,1.59-.84,2.85-3.44,2.85s-3.44-1.26-3.44-2.85v-4.9c0-1.59.84-2.85,3.44-2.85s3.44,1.26,3.44,2.85v4.9ZM436.97,10.54c0,.92.27,1.34,1.5,1.34s1.5-.41,1.5-1.34v-4.52c0-.92-.27-1.34-1.5-1.34s-1.5.41-1.5,1.34v4.52Z"/>
    <path class="cls-2" d="M444.22,6.35l-.81-1.53,2.93-1.69h1.75v10.28h-1.94V5.28l-1.93,1.07Z"/>
    <path class="cls-2" d="M455.98,8.18c1.19.59,1.51,1.21,1.51,2.08v.67c0,1.88-.91,2.64-3.39,2.64s-3.39-.76-3.39-2.64v-.67c0-.88.33-1.5,1.51-2.08-.99-.57-1.26-1.19-1.26-1.97v-.72c0-1.54.84-2.51,3.14-2.51s3.14.97,3.14,2.51v.72c0,.78-.25,1.4-1.26,1.97ZM454.1,8.99c-1.35.53-1.51.81-1.51,1.48v.43c0,.78.37,1.07,1.51,1.07s1.51-.29,1.51-1.07v-.43c0-.67-.16-.95-1.51-1.48ZM454.1,7.45c1.1-.43,1.26-.65,1.26-1.24v-.67c0-.64-.25-.97-1.26-.97s-1.26.33-1.26.97v.67c0,.59.16.81,1.26,1.24Z"/>
    <path class="cls-2" d="M473.97,11.16h-5.59v3.52h-1.53v-3.52h-7.24v-1.43h2.56v-4.2h4.68v-2.2h-3.64c-.68,1.18-1.48,2.23-2.29,3.02-.29-.25-.92-.73-1.29-.95,1.46-1.26,2.74-3.28,3.47-5.4l1.5.4c-.19.49-.41,1.02-.62,1.5h9.21v1.43h-4.81v2.2h4.44v1.38h-4.44v2.82h5.59v1.43ZM466.86,9.72v-2.82h-3.2v2.82h3.2Z"/>
    <path class="cls-2" d="M489.67,8.42c-.45,1.48-1.19,2.69-2.13,3.66.84.59,1.81,1.03,2.93,1.29-.32.27-.68.83-.89,1.18-1.15-.33-2.18-.88-3.06-1.54-.91.7-1.93,1.23-3.01,1.62-.16-.35-.48-.86-.78-1.15v1.19h-1.38v-1.46c-1.91.21-3.8.43-5.25.6l-.13-1.31c.43-.03.92-.08,1.45-.13v-5.11h-1.31v-1.19h13.94v1.19h-7.32v6.16c.99-.29,1.94-.76,2.77-1.38-.7-.76-1.27-1.67-1.69-2.67l.38-.11h-.92v-1.16h5.25l.24-.05.91.37ZM479.41,5.44h-1.42V.57h10.27v4.87h-1.48V1.64h-7.37v3.8ZM478.74,7.27v.89h2.61v-.89h-2.61ZM478.74,10.12h2.61v-.89h-2.61v.89ZM478.74,12.25c.83-.08,1.72-.18,2.61-.29v-.76h-2.61v1.05ZM486.06,2.4v.92h-6.05v-.92h6.05ZM480.01,4.09h6.06v.92h-6.06v-.92ZM485.12,9.26c.35.7.8,1.37,1.37,1.94.57-.56,1.05-1.23,1.4-1.94h-2.77Z"/>
    <path class="cls-2" d="M496.88,3.8c-.37.73-.83,1.46-1.32,2.16v8.74h-1.4v-7c-.41.46-.86.88-1.29,1.24-.13-.3-.56-1.03-.81-1.34,1.32-1.03,2.69-2.64,3.52-4.25l1.3.45ZM496.56.56c-.89,1.37-2.29,2.86-3.58,3.84-.16-.3-.54-.81-.78-1.08,1.13-.83,2.39-2.16,3.02-3.25l1.34.49ZM505.36,8.56c-.62,1.5-1.62,2.71-2.85,3.63,1.19.57,2.51.97,3.98,1.23-.3.3-.7.91-.89,1.29-1.66-.33-3.12-.89-4.41-1.64-1.35.78-2.91,1.32-4.5,1.66-.14-.35-.46-.96-.72-1.26,1.38-.25,2.74-.65,3.93-1.24-.52-.4-1-.84-1.46-1.32-.37.37-.75.67-1.13.96-.21-.29-.7-.84-1-1.1.43-.25.86-.59,1.26-.96-.29-.4-.56-.81-.8-1.27l1.21-.4c.16.29.3.54.49.8.49-.54.92-1.15,1.31-1.77-2.02.13-2.45.19-2.79.32-.05-.27-.27-.99-.43-1.37.48-.06,1.02-.33,1.77-.75.33-.18.97-.56,1.75-1.07-2.05.1-2.48.17-2.72.27-.08-.3-.32-1.02-.49-1.42.32-.06.65-.27,1.07-.54.4-.29,1.77-1.34,2.69-2.45l1.46.65c-.88.86-1.86,1.7-2.85,2.37l2.51-.06c.67-.49,1.34-1.05,1.94-1.61l1.35.75c-1.72,1.45-3.58,2.69-5.41,3.69l4.22-.24c-.29-.4-.59-.8-.88-1.13l1.16-.6c.88,1.05,1.97,2.51,2.5,3.44l-1.23.7c-.18-.35-.45-.81-.78-1.29l-3.26.22c-.19.38-.41.78-.67,1.15h3.5l.25-.06.91.43ZM499.84,9.39c-.14.21-.32.4-.49.59.54.57,1.18,1.07,1.86,1.5.89-.57,1.64-1.27,2.18-2.08h-3.55Z"/>
    <path class="cls-2" d="M522.99,6.4v1.62h-14.48v-1.62h14.48Z"/>
    <path class="cls-2" d="M529.89,10.36h-5v-1.48h5v1.48ZM529.47,3.88h-4.25v-1.43h4.25v1.43ZM534.39,6.03v.51c.68,3.23,2.16,5.73,5.01,6.73-.33.3-.8.89-1,1.32-2.21-.96-3.61-2.69-4.49-5.03-.62,1.85-1.94,3.74-4.79,5.17-.21-.37-.75-.92-1.1-1.19,4.41-2.15,4.79-5.35,4.79-7.54v-1.32h1.58v1.35ZM531.75,4.15c-.48,1.27-1.03,2.42-1.67,3.31-.33-.25-1.08-.67-1.5-.86,1.27-1.51,2.16-4.01,2.64-6.54l1.62.3c-.16.8-.37,1.56-.59,2.31h5.32l.3-.08,1.07.6c-.38,1.61-1.08,3.29-1.66,4.42-.3-.16-.89-.46-1.24-.62.33-.72.75-1.8,1.05-2.85h-5.35Z"/>
    <path class="cls-2" d="M457.35,26.87h-3.33v6.88h-1.51v-6.88h-4.5c-.13,2.58-.88,5.12-4.04,6.91-.21-.33-.72-.88-1.05-1.13,2.77-1.53,3.47-3.64,3.61-5.78h-3.47v-1.42h3.5v-3.21c-.95.27-1.93.51-2.85.72-.08-.35-.32-.89-.52-1.21,2.48-.57,5.2-1.46,6.81-2.42l1.08,1.21c-.89.46-1.93.88-3.04,1.26v3.66h4.47v-6.02h1.51v6.02h3.33v1.42Z"/>
    <path class="cls-2" d="M459.24,32.36c.59-.88,1.19-2.23,1.56-3.25l1.29.54c-.38,1.03-.92,2.44-1.5,3.36l-1.35-.65ZM466.02,28.21h-4.44v-7.62h3.68c.19-.49.41-1.15.51-1.61l1.77.27c-.22.48-.49.94-.7,1.34h4.54v7.62h-4.85c.73.68,1.53,1.61,1.91,2.24l-1.23.73c-.35-.7-1.23-1.75-2.02-2.48l.84-.49ZM468.45,32.14c.8,0,.94-.22,1.02-1.78.33.24.96.46,1.37.54-.21,2.1-.65,2.59-2.29,2.59h-3.34c-2.01,0-2.51-.41-2.51-1.85v-2.42h1.48v2.39c0,.45.18.52,1.15.52h3.14ZM463.01,22.78h6.88v-1.03h-6.88v1.03ZM463.01,24.9h6.88v-1.03h-6.88v1.03ZM463.01,27.05h6.88v-1.05h-6.88v1.05ZM471.81,28.85c.72.99,1.5,2.32,1.77,3.23l-1.4.62c-.24-.91-.97-2.28-1.67-3.31l1.31-.54Z"/>
    <path class="cls-2" d="M480.27,22.89c-.37.73-.83,1.46-1.32,2.16v8.74h-1.4v-7c-.41.46-.86.88-1.29,1.24-.13-.3-.56-1.03-.81-1.34,1.32-1.03,2.69-2.64,3.52-4.25l1.3.45ZM479.95,19.65c-.89,1.37-2.29,2.86-3.58,3.84-.16-.3-.54-.81-.78-1.08,1.13-.83,2.39-2.16,3.02-3.25l1.34.49ZM488.75,27.65c-.62,1.5-1.62,2.71-2.85,3.63,1.19.57,2.51.97,3.98,1.23-.3.3-.7.91-.89,1.29-1.66-.33-3.12-.89-4.41-1.64-1.35.78-2.91,1.32-4.5,1.66-.14-.35-.46-.96-.72-1.26,1.38-.25,2.74-.65,3.93-1.24-.52-.4-1-.84-1.46-1.32-.37.37-.75.67-1.13.96-.21-.29-.7-.84-1-1.1.43-.25.86-.59,1.26-.96-.29-.4-.56-.81-.8-1.27l1.21-.4c.16.29.3.54.49.8.49-.54.92-1.15,1.31-1.77-2.02.13-2.45.19-2.79.32-.05-.27-.27-.99-.43-1.37.48-.06,1.02-.33,1.77-.75.33-.18.97-.56,1.75-1.07-2.05.1-2.48.17-2.72.27-.08-.3-.32-1.02-.49-1.42.32-.06.65-.27,1.07-.54.4-.29,1.77-1.34,2.69-2.45l1.46.65c-.88.86-1.86,1.7-2.85,2.37l2.51-.06c.67-.49,1.34-1.05,1.94-1.61l1.35.75c-1.72,1.45-3.58,2.69-5.41,3.69l4.22-.24c-.29-.4-.59-.8-.88-1.13l1.16-.6c.88,1.05,1.97,2.51,2.5,3.44l-1.23.7c-.18-.35-.45-.81-.78-1.29l-3.26.22c-.19.38-.41.78-.67,1.15h3.5l.25-.06.91.43ZM483.23,28.48c-.14.21-.32.4-.49.59.54.57,1.18,1.07,1.86,1.5.89-.57,1.64-1.27,2.18-2.08h-3.55Z"/>
    <path class="cls-2" d="M506.38,25.49v1.62h-14.48v-1.62h14.48Z"/>
    <path class="cls-2" d="M522.59,30.25h-5.59v3.52h-1.53v-3.52h-7.24v-1.43h2.56v-4.2h4.68v-2.2h-3.64c-.68,1.18-1.48,2.23-2.29,3.02-.29-.25-.92-.73-1.29-.95,1.46-1.26,2.74-3.28,3.47-5.4l1.5.4c-.19.49-.41,1.02-.62,1.5h9.21v1.43h-4.81v2.2h4.44v1.38h-4.44v2.82h5.59v1.43ZM515.47,28.81v-2.82h-3.2v2.82h3.2Z"/>
  </g>
  <g>
    <path class="cls-2" d="M669.36,22.13h-6.38v5.41h-1.53v-5.41h-6.3v-1.5h6.3v-5.22h-5.47v-1.45h12.48v1.45h-5.47v5.22h6.38v1.5ZM658.34,16.07c.59,1.1,1.19,2.51,1.4,3.44l-1.42.48c-.21-.91-.75-2.39-1.32-3.5l1.34-.41ZM664.5,19.59c.54-.96,1.21-2.47,1.56-3.58l1.58.43c-.57,1.24-1.27,2.67-1.86,3.56l-1.27-.41Z"/>
    <path class="cls-2" d="M674.6,22.12c.53-.24,1.07-.45,1.59-.68l.35,1.31c-1.66.8-3.42,1.61-4.81,2.23l-.59-1.48c.57-.21,1.29-.48,2.07-.81v-4.6h-1.78v-1.4h1.78v-3.53h1.38v3.53h1.64v1.4h-1.64v4.04ZM685.58,15.4s0,.54-.02.75c-.17,7.32-.37,9.76-1,10.58-.37.54-.8.7-1.4.78-.57.06-1.56.05-2.45,0-.02-.4-.21-1.03-.48-1.45,1.05.1,1.99.1,2.4.1.32,0,.48-.05.67-.25.48-.53.7-3.07.84-9.17h-5.01c-.46.97-.97,1.83-1.5,2.53-.25-.22-.89-.6-1.23-.8,1.13-1.34,2.1-3.45,2.66-5.54l1.4.33c-.22.72-.48,1.45-.75,2.13h5.86ZM678.2,22.2h4.95v1.29h-4.95v-1.29ZM682.78,19v1.29h-3.85v-1.29h3.85Z"/>
  </g>
  <g>
    <path class="cls-6" d="M266.56,103.76v-11.5l-2.71,1.46-1.49-2.86,4.54-2.62h3.12v15.51h-3.46Z"/>
    <path class="cls-6" d="M277.05,100.74h4.92v3.02h-9.7v-2.95c1.73-1.78,2.04-2.06,3.48-3.7,2.35-2.69,2.62-2.83,2.62-4.46v-.43c0-.84-.55-1.13-1.9-1.13-1.15,0-2.93.19-3.96.46l-.46-2.9c1.49-.38,3.19-.62,4.58-.62,3.7,0,5.18,1.15,5.18,3.77v.62c0,2.28-.02,2.71-2.21,5.35-1.15,1.39-1.87,2.23-2.57,2.98Z"/>
    <path class="cls-6" d="M284.13,103.76v-3.98h3.46v3.98h-3.46Z"/>
    <path class="cls-6" d="M293.32,94.52c1.54,0,1.97-.43,1.97-1.49v-.98c0-1.01-.43-1.22-1.94-1.22-1.06,0-2.11.12-3.31.34l-.36-2.71c1.37-.29,2.57-.43,3.98-.43,4.01,0,5.09,1.2,5.09,3.6v1.13c0,1.42-.48,2.5-1.61,3.19,1.34.6,1.9,1.44,1.9,2.95v1.22c0,2.35-1.1,3.89-5.47,3.89-1.46,0-2.69-.12-3.94-.53l.36-2.66c1.18.22,2.06.31,3.46.31,1.68,0,2.14-.34,2.14-1.27v-1.1c0-.89-.55-1.27-1.75-1.27h-3.17v-2.95h2.66Z"/>
  </g>
  <g>
    <path class="cls-2" d="M271.65,176.46h5.67v1.69h-3.72v2.56c.57.02.83.03,1.43.06,1.86.1,2.47,1.03,2.47,2.44v.97c0,1.67-.6,2.72-3.45,2.72-.97,0-1.96-.16-2.71-.38l.24-1.59c.78.18,1.67.27,2.43.27,1.45,0,1.54-.35,1.54-1.19v-.51c0-.75-.24-1.07-1.37-1.11-1.15-.05-1.69-.06-2.53-.08v-5.84Z"/>
    <path class="cls-2" d="M279.96,184.52h1.97v2.23h-1.97v-2.23Z"/>
    <path class="cls-2" d="M289.74,181.51c1.19.59,1.51,1.21,1.51,2.08v.67c0,1.88-.91,2.64-3.39,2.64s-3.39-.76-3.39-2.64v-.67c0-.88.33-1.5,1.51-2.08-.99-.57-1.26-1.19-1.26-1.97v-.72c0-1.54.84-2.51,3.14-2.51s3.14.97,3.14,2.51v.72c0,.78-.25,1.4-1.26,1.97ZM287.87,182.32c-1.35.53-1.51.81-1.51,1.48v.43c0,.78.37,1.07,1.51,1.07s1.51-.29,1.51-1.07v-.43c0-.67-.16-.95-1.51-1.48ZM287.87,180.78c1.1-.43,1.26-.65,1.26-1.24v-.67c0-.64-.25-.97-1.26-.97s-1.26.33-1.26.97v.67c0,.59.16.81,1.26,1.24Z"/>
  </g>
  <g>
    <path class="cls-2" d="M272.27,134.47h6.45v1.64l-3.68,8.64h-2.02l3.66-8.58h-4.41v-1.7Z"/>
    <path class="cls-2" d="M279.19,142.53h1.97v2.23h-1.97v-2.23Z"/>
    <path class="cls-2" d="M283.59,143.08c1.21-1.32,1.37-1.48,2.47-2.75,1.5-1.73,1.73-1.99,1.73-3.02v-.27c0-.78-.32-1-1.48-1-.7,0-1.7.14-2.5.32l-.27-1.62c.72-.21,1.73-.41,2.88-.41,2.45,0,3.31.84,3.31,2.5v.37c0,1.46-.13,1.8-1.61,3.61-.89,1.1-1.27,1.54-1.89,2.26h3.53v1.7h-6.18v-1.67Z"/>
  </g>
  <g>
    <path class="cls-6" d="M470.08,103.76v-11.5l-2.71,1.46-1.49-2.86,4.54-2.62h3.12v15.51h-3.46Z"/>
    <path class="cls-6" d="M480.57,100.74h4.92v3.02h-9.7v-2.95c1.73-1.78,2.04-2.06,3.48-3.7,2.35-2.69,2.62-2.83,2.62-4.46v-.43c0-.84-.55-1.13-1.9-1.13-1.15,0-2.93.19-3.96.46l-.46-2.9c1.49-.38,3.19-.62,4.58-.62,3.7,0,5.18,1.15,5.18,3.77v.62c0,2.28-.02,2.71-2.21,5.35-1.15,1.39-1.87,2.23-2.57,2.98Z"/>
    <path class="cls-6" d="M487.64,103.76v-3.98h3.46v3.98h-3.46Z"/>
    <path class="cls-6" d="M494.58,103.76v-11.5l-2.71,1.46-1.49-2.86,4.54-2.62h3.12v15.51h-3.46Z"/>
  </g>
  <g>
    <path class="cls-2" d="M476.02,137.69l-.81-1.53,2.93-1.69h1.75v10.28h-1.94v-8.13l-1.93,1.07Z"/>
    <path class="cls-2" d="M488.72,142.5v2.26h-1.91v-2.26h-4.81v-1.8l4.12-6.22h2.59v6.37h1.35v1.66h-1.35ZM486.81,140.84v-4.44l-2.86,4.44h2.86Z"/>
  </g>
  <g>
    <path class="cls-2" d="M473.84,176.46h6.45v1.64l-3.68,8.64h-2.02l3.66-8.58h-4.41v-1.7Z"/>
    <path class="cls-2" d="M480.76,184.52h1.97v2.23h-1.97v-2.23Z"/>
    <path class="cls-2" d="M485.33,184.96c.78.16,1.53.24,2.28.24,1.4,0,1.66-.29,1.66-1.11v-.62c0-.78-.35-1.02-1.15-1.02h-2.28v-1.73h1.93c1.07,0,1.31-.37,1.31-1.11v-.62c0-.76-.35-.97-1.46-.97-.78,0-1.53.1-2.2.22l-.21-1.64c.7-.17,1.67-.29,2.58-.29,2.5,0,3.23.83,3.23,2.34v.99c0,1.03-.32,1.56-1.15,1.93.91.3,1.34.84,1.34,1.93v.91c0,1.59-.78,2.51-3.53,2.51-.72,0-1.93-.13-2.55-.33l.21-1.61Z"/>
  </g>
  <g>
    <path class="cls-6" d="M655.45,103.76v-11.5l-2.71,1.46-1.49-2.86,4.54-2.62h3.12v15.51h-3.46Z"/>
    <path class="cls-6" d="M665.94,100.74h4.92v3.02h-9.7v-2.95c1.73-1.78,2.04-2.06,3.48-3.7,2.35-2.69,2.62-2.83,2.62-4.46v-.43c0-.84-.55-1.13-1.9-1.13-1.15,0-2.93.19-3.96.46l-.46-2.9c1.49-.38,3.19-.62,4.58-.62,3.7,0,5.18,1.15,5.18,3.77v.62c0,2.28-.02,2.71-2.21,5.35-1.15,1.39-1.87,2.23-2.57,2.98Z"/>
    <path class="cls-6" d="M673.02,103.76v-3.98h3.46v3.98h-3.46Z"/>
    <path class="cls-6" d="M683.38,100.74h4.92v3.02h-9.7v-2.95c1.73-1.78,2.04-2.06,3.48-3.7,2.35-2.69,2.62-2.83,2.62-4.46v-.43c0-.84-.55-1.13-1.9-1.13-1.15,0-2.93.19-3.96.46l-.46-2.9c1.49-.38,3.19-.62,4.58-.62,3.7,0,5.18,1.15,5.18,3.77v.62c0,2.28-.02,2.71-2.21,5.35-1.15,1.39-1.87,2.23-2.57,2.98Z"/>
  </g>
  <g>
    <path class="cls-2" d="M656.86,137.69l-.81-1.53,2.93-1.69h1.75v10.28h-1.94v-8.13l-1.93,1.07Z"/>
    <path class="cls-2" d="M670.31,142.07c0,1.59-.84,2.85-3.44,2.85s-3.44-1.26-3.44-2.85v-4.9c0-1.59.84-2.85,3.44-2.85s3.44,1.26,3.44,2.85v4.9ZM665.37,141.88c0,.92.27,1.34,1.5,1.34s1.5-.41,1.5-1.34v-4.52c0-.92-.27-1.34-1.5-1.34s-1.5.41-1.5,1.34v4.52Z"/>
    <path class="cls-2" d="M672.93,142.53h1.97v2.23h-1.97v-2.23Z"/>
    <path class="cls-2" d="M679.39,138.91c.56-.19,1.21-.29,1.89-.29,1.93,0,2.71.8,2.71,2.63v.76c0,1.66-.76,2.9-3.26,2.9-2.74,0-3.28-1.21-3.28-3.04v-3.87c0-2.8,1.5-3.69,4.39-3.69.59,0,1.35.08,1.83.19l-.13,1.62c-.46-.1-1.16-.14-1.5-.14-1.88,0-2.66.32-2.66,1.94v.99ZM679.39,140.63v1.45c0,.88.33,1.16,1.34,1.16s1.32-.35,1.32-1.16v-.78c0-.76-.37-1-1.07-1-.57,0-1.15.14-1.59.33Z"/>
  </g>
  <g>
    <path class="cls-2" d="M662.52,180.9c.56-.19,1.21-.29,1.89-.29,1.93,0,2.71.8,2.71,2.63v.76c0,1.66-.76,2.9-3.26,2.9-2.74,0-3.28-1.21-3.28-3.04v-3.87c0-2.8,1.5-3.69,4.39-3.69.59,0,1.35.08,1.83.19l-.13,1.62c-.46-.1-1.16-.14-1.5-.14-1.88,0-2.66.32-2.66,1.94v.99ZM662.52,182.62v1.45c0,.88.33,1.16,1.34,1.16s1.32-.35,1.32-1.16v-.78c0-.76-.37-1-1.07-1-.57,0-1.15.14-1.59.33Z"/>
    <path class="cls-2" d="M669.58,184.52h1.97v2.23h-1.97v-2.23Z"/>
    <path class="cls-2" d="M674.42,176.46h5.67v1.69h-3.72v2.56c.57.02.83.03,1.43.06,1.86.1,2.47,1.03,2.47,2.44v.97c0,1.67-.6,2.72-3.45,2.72-.97,0-1.96-.16-2.71-.38l.24-1.59c.78.18,1.67.27,2.43.27,1.45,0,1.54-.35,1.54-1.19v-.51c0-.75-.24-1.07-1.37-1.11-1.15-.05-1.69-.06-2.53-.08v-5.84Z"/>
  </g>
  <line class="cls-1" y1="57.02" x2="768.28" y2="57.02"/>
  <g>
    <g>
      <polygon class="cls-3" points="637.06 91.64 633.42 95.57 637.41 94.39 640.34 91.3 640.78 87.62 637.06 91.64"/>
      <polygon class="cls-4" points="637.53 88.31 634.48 91.21 633.42 95.58 637.06 91.64 640.78 87.62 637.53 88.31"/>
      <polygon class="cls-3" points="644.95 115.22 645.83 113.57 644.63 111.57 644.95 115.22"/>
      <polygon class="cls-4" points="644.63 111.57 644.95 115.22 643.8 113.91 644.63 111.57"/>
      <polygon class="cls-4" points="642.73 116.41 640.79 118.15 644.62 116.59 642.73 116.41"/>
      <polygon class="cls-5" points="640.79 118.15 643.4 118.04 644.62 116.59 640.79 118.15"/>
      <polygon class="cls-3" points="638.91 96.69 638.68 97.08 635.02 103.05 638.8 100.95 639.71 99.23 640.48 97.77 640.46 96.65 640.45 95.5 640.42 94.22 639.16 96.29 638.91 96.69"/>
      <polygon class="cls-4" points="635.3 98.31 635.02 103.05 638.68 97.08 638.91 96.69 639.15 96.29 640.42 94.22 637.8 95.37 635.3 98.31"/>
      <polygon class="cls-4" points="630.6 99.36 627.34 97.54 623.94 97.6 632.93 103.77 630.6 99.36"/>
      <polygon class="cls-5" points="623.94 97.6 625.2 100.99 627.95 103.17 632.93 103.77 623.94 97.6"/>
      <polygon class="cls-4" points="632.62 106 629.54 105.17 626.53 105.92 635.56 109.28 632.62 106"/>
      <polygon class="cls-5" points="626.53 105.92 628.38 108.71 631.17 109.84 635.56 109.28 626.53 105.92"/>
      <polygon class="cls-3" points="641.06 105.94 641.41 103.34 640.77 100.89 638.23 108.52 641.06 105.94"/>
      <polygon class="cls-4" points="637.46 105.1 638.23 108.52 640.77 100.89 638.86 102.26 637.46 105.1"/>
      <polygon class="cls-3" points="644 110.8 643.58 107.71 642.38 106.38 642.09 112.85 644 110.8"/>
      <polygon class="cls-4" points="640.64 110.98 642.09 112.85 642.38 106.38 640.84 108.34 640.64 110.98"/>
      <polygon class="cls-4" points="635.47 110.75 633.37 110.91 631.21 112.41 638.56 112.51 635.47 110.75"/>
      <polygon class="cls-5" points="631.21 112.41 633.3 114.1 635.67 114.19 638.56 112.51 631.21 112.41"/>
      <polygon class="cls-4" points="639.48 114.13 637.09 114.79 635.87 116.4 642.01 115.18 639.48 114.13"/>
      <polygon class="cls-5" points="635.87 116.4 637.72 117.38 639.86 117.03 642.01 115.18 635.87 116.4"/>
      <polygon class="cls-3" points="633.05 84.54 634.94 81.57 635.03 78.95 633.64 76.9 633.05 84.54"/>
      <polygon class="cls-4" points="632.22 78.61 631.65 81.3 633.05 84.54 633.64 76.9 632.22 78.61"/>
      <polygon class="cls-3" points="633.68 88.38 636.12 87.63 637.24 87.29 639.61 84.36 639.8 81.43 637.08 84.51 633.68 88.38"/>
      <polygon class="cls-4" points="636.79 82.14 634.59 84.51 633.68 88.38 637.08 84.51 639.8 81.43 637.9 81.88 636.79 82.14"/>
      <polygon class="cls-4" points="628.63 82.95 625.73 82.3 631.66 90.01 630.91 85.62 628.63 82.95"/>
      <polygon class="cls-5" points="625.83 85.45 627.6 88.13 631.66 90.01 625.73 82.3 625.83 85.45"/>
      <polygon class="cls-4" points="626.06 89.94 622.78 89.73 631.15 96.72 629.25 92.1 626.06 89.94"/>
      <polygon class="cls-5" points="623.76 93.31 626.25 95.66 631.15 96.72 622.78 89.73 623.76 93.31"/>
      <polygon class="cls-4" points="632.01 96.13 634.06 105.8 639.77 112.87 646.42 117.05 640.2 112.49 634.56 105.43 632.32 96.01 632.91 85.72 632.01 96.13"/>
    </g>
    <g>
      <polygon class="cls-3" points="703.69 91.64 707.33 95.57 703.34 94.39 700.41 91.3 699.97 87.62 703.69 91.64"/>
      <polygon class="cls-4" points="703.22 88.31 706.28 91.21 707.33 95.58 703.69 91.64 699.97 87.62 703.22 88.31"/>
      <polygon class="cls-3" points="695.8 115.22 694.92 113.57 696.12 111.57 695.8 115.22"/>
      <polygon class="cls-4" points="696.12 111.57 695.8 115.22 696.95 113.91 696.12 111.57"/>
      <polygon class="cls-4" points="698.02 116.41 699.96 118.15 696.13 116.59 698.02 116.41"/>
      <polygon class="cls-5" points="699.96 118.15 697.35 118.04 696.13 116.59 699.96 118.15"/>
      <polygon class="cls-3" points="701.84 96.69 702.08 97.08 705.74 103.05 701.96 100.95 701.05 99.23 700.27 97.77 700.29 96.65 700.31 95.5 700.33 94.22 701.6 96.29 701.84 96.69"/>
      <polygon class="cls-4" points="705.45 98.31 705.73 103.05 702.08 97.08 701.84 96.69 701.6 96.29 700.33 94.22 702.95 95.37 705.45 98.31"/>
      <polygon class="cls-4" points="710.15 99.36 713.41 97.54 716.81 97.6 707.82 103.77 710.15 99.36"/>
      <polygon class="cls-5" points="716.81 97.6 715.55 100.99 712.8 103.17 707.82 103.77 716.81 97.6"/>
      <polygon class="cls-4" points="708.13 106 711.21 105.17 714.22 105.92 705.19 109.28 708.13 106"/>
      <polygon class="cls-5" points="714.22 105.92 712.38 108.71 709.58 109.84 705.19 109.28 714.22 105.92"/>
      <polygon class="cls-3" points="699.69 105.94 699.34 103.34 699.98 100.89 702.52 108.52 699.69 105.94"/>
      <polygon class="cls-4" points="703.29 105.1 702.52 108.52 699.98 100.89 701.89 102.26 703.29 105.1"/>
      <polygon class="cls-3" points="696.75 110.8 697.17 107.71 698.37 106.38 698.66 112.85 696.75 110.8"/>
      <polygon class="cls-4" points="700.11 110.98 698.66 112.85 698.37 106.38 699.91 108.34 700.11 110.98"/>
      <polygon class="cls-4" points="705.28 110.75 707.38 110.91 709.54 112.41 702.19 112.51 705.28 110.75"/>
      <polygon class="cls-5" points="709.54 112.41 707.45 114.1 705.08 114.19 702.19 112.51 709.54 112.41"/>
      <polygon class="cls-4" points="701.27 114.13 703.66 114.79 704.88 116.4 698.74 115.18 701.27 114.13"/>
      <polygon class="cls-5" points="704.88 116.4 703.03 117.38 700.89 117.03 698.74 115.18 704.88 116.4"/>
      <polygon class="cls-3" points="707.7 84.54 705.81 81.57 705.72 78.95 707.11 76.9 707.7 84.54"/>
      <polygon class="cls-4" points="708.53 78.61 709.1 81.3 707.7 84.54 707.11 76.9 708.53 78.61"/>
      <polygon class="cls-3" points="707.07 88.38 704.64 87.63 703.52 87.29 701.15 84.36 700.95 81.43 703.67 84.51 707.07 88.38"/>
      <polygon class="cls-4" points="703.96 82.14 706.16 84.51 707.08 88.38 703.67 84.51 700.95 81.43 702.85 81.88 703.96 82.14"/>
      <polygon class="cls-4" points="712.12 82.95 715.02 82.3 709.09 90.01 709.84 85.62 712.12 82.95"/>
      <polygon class="cls-5" points="714.92 85.45 713.15 88.13 709.09 90.01 715.02 82.3 714.92 85.45"/>
      <polygon class="cls-4" points="714.7 89.94 717.97 89.73 709.6 96.72 711.5 92.1 714.7 89.94"/>
      <polygon class="cls-5" points="716.99 93.31 714.5 95.66 709.6 96.72 717.97 89.73 716.99 93.31"/>
      <polygon class="cls-4" points="708.74 96.13 706.69 105.8 700.98 112.87 694.33 117.05 700.55 112.49 706.19 105.43 708.43 96.01 707.84 85.72 708.74 96.13"/>
    </g>
    <g>
      <polygon class="cls-3" points="656.95 77.48 663.21 76.19 670.38 75.65 670.38 62.57 663.89 71.06 652.58 66.23 656.95 77.48"/>
      <polygon class="cls-4" points="666.28 67.92 662.53 65.19 659.52 69.19 663.89 71.06 666.28 67.92"/>
      <polygon class="cls-5" points="674.47 67.92 678.22 65.19 681.23 69.19 676.86 71.06 674.47 67.92"/>
      <polygon class="cls-4" points="683.8 77.48 677.54 76.19 670.38 75.65 670.38 62.57 676.86 71.06 688.17 66.23 683.8 77.48"/>
    </g>
  </g>
</svg>