<?xml version="1.0" encoding="UTF-8"?>
<svg id="Layer_1" data-name="Layer 1" xmlns="http://www.w3.org/2000/svg" viewBox="0 0 768.28 175.78">
  <defs>
    <style>
      .cls-1 {
        fill: none;
        stroke: #bababa;
        stroke-linejoin: round;
        stroke-width: .8px;
      }

      .cls-2 {
        fill: #4d4d4f;
      }

      .cls-2, .cls-3 {
        stroke-width: 0px;
      }

      .cls-3 {
        fill: #1e9bd7;
      }
    </style>
  </defs>
  <path class="cls-3" d="M701.62,132.8h30.45v11.38h-30.45v-11.38ZM606.37,114.59h29.67v29.59h-29.67v-29.59ZM510.34,74.18h30.45v70h-30.45v-70ZM415.09,26.95h29.67v117.23h-29.67V26.95ZM319.84,78.17h29.67v66.01h-29.67v-66.01ZM223.81,133.94h29.67v10.24h-29.67v-10.24ZM128.56,143.61h29.67v.57h-29.67v-.57ZM32.53,118.57h30.45v25.61h-30.45v-25.61Z"/>
  <line class="cls-1" x1="0" y1="144.18" x2="768.28" y2="144.18"/>
  <g>
    <path class="cls-2" d="M35.73,91.78h6.45v1.64l-3.68,8.64h-2.02l3.66-8.58h-4.41v-1.7Z"/>
    <path class="cls-2" d="M42.65,99.83h1.97v2.23h-1.97v-2.23Z"/>
    <path class="cls-2" d="M46.45,91.78h6.45v1.64l-3.68,8.64h-2.02l3.66-8.58h-4.41v-1.7Z"/>
    <path class="cls-2" d="M54.24,91.78h6.45v1.64l-3.68,8.64h-2.02l3.66-8.58h-4.41v-1.7Z"/>
  </g>
  <g>
    <path class="cls-2" d="M134.46,123.84c0,1.59-.84,2.85-3.44,2.85s-3.44-1.26-3.44-2.85v-4.9c0-1.59.84-2.85,3.44-2.85s3.44,1.26,3.44,2.85v4.9ZM129.53,123.65c0,.92.27,1.34,1.5,1.34s1.5-.41,1.5-1.34v-4.52c0-.92-.27-1.34-1.5-1.34s-1.5.41-1.5,1.34v4.52Z"/>
    <path class="cls-2" d="M137.08,124.3h1.97v2.23h-1.97v-2.23Z"/>
    <path class="cls-2" d="M141.49,124.86c1.21-1.32,1.37-1.48,2.47-2.75,1.5-1.73,1.73-1.99,1.73-3.02v-.27c0-.78-.32-1-1.48-1-.7,0-1.7.14-2.5.32l-.27-1.62c.72-.21,1.73-.41,2.88-.41,2.45,0,3.31.84,3.31,2.5v.37c0,1.46-.13,1.8-1.61,3.61-.89,1.1-1.27,1.54-1.89,2.26h3.53v1.7h-6.18v-1.67Z"/>
    <path class="cls-2" d="M149.49,116.25h6.45v1.64l-3.68,8.64h-2.02l3.66-8.58h-4.41v-1.7Z"/>
  </g>
  <g>
    <path class="cls-2" d="M225.75,115.08c.78.16,1.53.24,2.28.24,1.4,0,1.66-.29,1.66-1.11v-.62c0-.78-.35-1.02-1.15-1.02h-2.28v-1.73h1.93c1.07,0,1.31-.37,1.31-1.11v-.62c0-.76-.35-.97-1.46-.97-.78,0-1.53.1-2.2.22l-.21-1.64c.7-.17,1.67-.29,2.58-.29,2.5,0,3.23.83,3.23,2.34v.99c0,1.03-.32,1.56-1.15,1.93.91.3,1.34.84,1.34,1.93v.91c0,1.59-.78,2.51-3.53,2.51-.72,0-1.93-.13-2.55-.33l.21-1.61Z"/>
    <path class="cls-2" d="M234.17,114.63h1.97v2.23h-1.97v-2.23Z"/>
    <path class="cls-2" d="M237.59,109.79l-.81-1.53,2.93-1.69h1.75v10.28h-1.94v-8.13l-1.93,1.07Z"/>
    <path class="cls-2" d="M246.02,111.02c.56-.19,1.21-.29,1.89-.29,1.93,0,2.71.8,2.71,2.63v.76c0,1.66-.76,2.9-3.26,2.9-2.74,0-3.28-1.21-3.28-3.04v-3.87c0-2.8,1.5-3.69,4.39-3.69.59,0,1.35.08,1.83.19l-.13,1.62c-.46-.1-1.16-.14-1.5-.14-1.88,0-2.66.32-2.66,1.94v.99ZM246.02,112.74v1.45c0,.88.33,1.16,1.34,1.16s1.32-.35,1.32-1.16v-.78c0-.76-.37-1-1.07-1-.57,0-1.15.14-1.59.33Z"/>
  </g>
  <g>
    <path class="cls-2" d="M318.29,54.59l-.81-1.53,2.93-1.69h1.75v10.28h-1.94v-8.13l-1.93,1.07Z"/>
    <path class="cls-2" d="M329.22,57.22c-.56.19-1.21.29-1.89.29-1.93,0-2.71-.8-2.71-2.63v-.76c0-1.78.84-2.9,3.26-2.9,2.74,0,3.28,1.21,3.28,3.04v3.87c0,2.8-1.5,3.69-4.39,3.69-.59,0-1.35-.08-1.83-.19l.17-1.62c.46.1,1.11.14,1.45.14,2.05,0,2.66-.48,2.66-1.94v-.99ZM329.22,55.5v-1.45c0-.88-.33-1.16-1.34-1.16s-1.32.35-1.32,1.16v.78c0,.76.37,1,1.07,1,.57,0,1.15-.14,1.59-.33Z"/>
    <path class="cls-2" d="M333.54,59.43h1.97v2.23h-1.97v-2.23Z"/>
    <path class="cls-2" d="M342.5,57.22c-.56.19-1.21.29-1.89.29-1.93,0-2.71-.8-2.71-2.63v-.76c0-1.78.84-2.9,3.26-2.9,2.74,0,3.28,1.21,3.28,3.04v3.87c0,2.8-1.5,3.69-4.39,3.69-.59,0-1.35-.08-1.83-.19l.17-1.62c.46.1,1.11.14,1.45.14,2.05,0,2.66-.48,2.66-1.94v-.99ZM342.5,55.5v-1.45c0-.88-.33-1.16-1.34-1.16s-1.32.35-1.32,1.16v.78c0,.76.37,1,1.07,1,.57,0,1.15-.14,1.59-.33Z"/>
    <path class="cls-2" d="M346.71,59.88c.78.16,1.53.24,2.28.24,1.4,0,1.66-.29,1.66-1.11v-.62c0-.78-.35-1.02-1.15-1.02h-2.28v-1.73h1.93c1.07,0,1.31-.37,1.31-1.11v-.62c0-.76-.35-.97-1.46-.97-.78,0-1.53.1-2.2.22l-.21-1.64c.7-.17,1.67-.29,2.58-.29,2.5,0,3.23.83,3.23,2.34v.99c0,1.03-.32,1.56-1.15,1.93.91.3,1.34.84,1.34,1.93v.91c0,1.59-.78,2.51-3.53,2.51-.72,0-1.93-.13-2.55-.33l.21-1.61Z"/>
  </g>
  <g>
    <path class="cls-2" d="M411.96,8.66c.78.16,1.53.24,2.28.24,1.4,0,1.66-.29,1.66-1.11v-.62c0-.78-.35-1.02-1.15-1.02h-2.28v-1.73h1.93c1.07,0,1.31-.37,1.31-1.11v-.62c0-.76-.35-.97-1.46-.97-.78,0-1.53.1-2.2.22l-.21-1.64c.7-.17,1.67-.29,2.58-.29,2.5,0,3.23.83,3.23,2.34v.99c0,1.03-.32,1.56-1.15,1.93.91.3,1.34.84,1.34,1.93v.91c0,1.59-.78,2.51-3.53,2.51-.72,0-1.93-.13-2.55-.33l.21-1.61Z"/>
    <path class="cls-2" d="M420.37.16h5.67v1.69h-3.72v2.56c.57.02.83.03,1.43.06,1.86.1,2.47,1.03,2.47,2.44v.97c0,1.67-.6,2.72-3.45,2.72-.97,0-1.96-.16-2.71-.38l.24-1.59c.78.18,1.67.27,2.43.27,1.45,0,1.54-.35,1.54-1.19v-.51c0-.75-.24-1.07-1.37-1.11-1.15-.05-1.69-.06-2.53-.08V.16Z"/>
    <path class="cls-2" d="M428.68,8.21h1.97v2.23h-1.97v-2.23Z"/>
    <path class="cls-2" d="M433.24,8.66c.78.16,1.53.24,2.28.24,1.4,0,1.66-.29,1.66-1.11v-.62c0-.78-.35-1.02-1.15-1.02h-2.28v-1.73h1.93c1.07,0,1.31-.37,1.31-1.11v-.62c0-.76-.35-.97-1.46-.97-.78,0-1.53.1-2.2.22l-.21-1.64c.7-.17,1.67-.29,2.58-.29,2.5,0,3.23.83,3.23,2.34v.99c0,1.03-.32,1.56-1.15,1.93.91.3,1.34.84,1.34,1.93v.91c0,1.59-.78,2.51-3.53,2.51-.72,0-1.93-.13-2.55-.33l.21-1.61Z"/>
    <path class="cls-2" d="M446.69,5.2c1.19.59,1.51,1.21,1.51,2.08v.67c0,1.88-.91,2.64-3.39,2.64s-3.39-.76-3.39-2.64v-.67c0-.88.33-1.5,1.51-2.08-.99-.57-1.26-1.19-1.26-1.97v-.72c0-1.54.84-2.51,3.14-2.51s3.14.97,3.14,2.51v.72c0,.78-.25,1.4-1.26,1.97ZM444.81,6.02c-1.35.53-1.51.81-1.51,1.48v.43c0,.78.37,1.07,1.51,1.07s1.51-.29,1.51-1.07v-.43c0-.67-.16-.95-1.51-1.48ZM444.81,4.47c1.1-.43,1.26-.65,1.26-1.24v-.67c0-.64-.25-.97-1.26-.97s-1.26.33-1.26.97v.67c0,.59.16.81,1.26,1.24Z"/>
  </g>
  <g>
    <path class="cls-2" d="M513.45,56c1.21-1.32,1.37-1.48,2.47-2.75,1.5-1.73,1.73-1.99,1.73-3.02v-.27c0-.78-.32-1-1.48-1-.7,0-1.7.14-2.5.32l-.27-1.62c.72-.21,1.73-.41,2.88-.41,2.45,0,3.31.84,3.31,2.5v.37c0,1.46-.13,1.8-1.61,3.61-.89,1.1-1.27,1.54-1.89,2.26h3.53v1.7h-6.18v-1.67Z"/>
    <path class="cls-2" d="M521.94,50.61l-.81-1.53,2.93-1.69h1.75v10.28h-1.94v-8.13l-1.93,1.07Z"/>
    <path class="cls-2" d="M528.67,55.45h1.97v2.23h-1.97v-2.23Z"/>
    <path class="cls-2" d="M532.09,50.61l-.81-1.53,2.93-1.69h1.75v10.28h-1.94v-8.13l-1.93,1.07Z"/>
  </g>
  <g>
    <path class="cls-2" d="M612.01,92.84c1.19.59,1.51,1.21,1.51,2.08v.67c0,1.88-.91,2.64-3.39,2.64s-3.39-.76-3.39-2.64v-.67c0-.88.33-1.5,1.51-2.08-.99-.57-1.26-1.19-1.26-1.97v-.72c0-1.54.84-2.51,3.14-2.51s3.14.97,3.14,2.51v.72c0,.78-.25,1.4-1.26,1.97ZM610.13,93.65c-1.35.53-1.51.81-1.51,1.48v.43c0,.78.37,1.07,1.51,1.07s1.51-.29,1.51-1.07v-.43c0-.67-.16-.95-1.51-1.48ZM610.13,92.11c1.1-.43,1.26-.65,1.26-1.24v-.67c0-.64-.25-.97-1.26-.97s-1.26.33-1.26.97v.67c0,.59.16.81,1.26,1.24Z"/>
    <path class="cls-2" d="M616.06,95.85h1.97v2.23h-1.97v-2.23Z"/>
    <path class="cls-2" d="M625.02,93.64c-.56.19-1.21.29-1.89.29-1.93,0-2.71-.8-2.71-2.63v-.76c0-1.78.84-2.9,3.26-2.9,2.74,0,3.28,1.21,3.28,3.04v3.87c0,2.8-1.5,3.69-4.39,3.69-.59,0-1.35-.08-1.83-.19l.17-1.62c.46.1,1.11.14,1.45.14,2.05,0,2.66-.48,2.66-1.94v-.99ZM625.02,91.92v-1.45c0-.88-.33-1.16-1.34-1.16s-1.32.35-1.32,1.16v.78c0,.76.37,1,1.07,1,.57,0,1.15-.14,1.59-.33Z"/>
    <path class="cls-2" d="M635.47,95.82v2.26h-1.91v-2.26h-4.81v-1.8l4.12-6.22h2.59v6.37h1.35v1.66h-1.35ZM633.56,94.16v-4.44l-2.86,4.44h2.86Z"/>
  </g>
  <g>
    <path class="cls-2" d="M701.87,114.51c.78.16,1.53.24,2.28.24,1.4,0,1.66-.29,1.66-1.11v-.62c0-.78-.35-1.02-1.15-1.02h-2.28v-1.73h1.93c1.07,0,1.31-.37,1.31-1.11v-.62c0-.76-.35-.97-1.46-.97-.78,0-1.53.1-2.2.22l-.21-1.64c.7-.17,1.67-.29,2.58-.29,2.5,0,3.23.83,3.23,2.34v.99c0,1.03-.32,1.56-1.15,1.93.91.3,1.34.84,1.34,1.93v.91c0,1.59-.78,2.51-3.53,2.51-.72,0-1.93-.13-2.55-.33l.21-1.61Z"/>
    <path class="cls-2" d="M710.29,114.06h1.97v2.23h-1.97v-2.23Z"/>
    <path class="cls-2" d="M720.45,114.03v2.26h-1.91v-2.26h-4.81v-1.8l4.12-6.22h2.59v6.37h1.35v1.66h-1.35ZM718.54,112.37v-4.44l-2.86,4.44h2.86Z"/>
    <path class="cls-2" d="M723.95,106.01h5.67v1.69h-3.72v2.56c.57.02.83.03,1.43.06,1.86.1,2.47,1.03,2.47,2.44v.97c0,1.67-.6,2.72-3.45,2.72-.97,0-1.96-.16-2.71-.38l.24-1.59c.78.18,1.67.27,2.43.27,1.45,0,1.54-.35,1.54-1.19v-.51c0-.75-.24-1.07-1.37-1.11-1.15-.05-1.69-.06-2.53-.08v-5.84Z"/>
  </g>
  <g>
    <path class="cls-2" d="M38.82,172.15h-3.93l-.67,2.2h-2.1l3.34-10.6h2.8l3.34,10.6h-2.1l-.68-2.2ZM35.38,170.42h2.93l-1.45-5.01-1.48,5.01Z"/>
    <path class="cls-2" d="M49.65,172.15h-3.93l-.67,2.2h-2.1l3.34-10.6h2.8l3.34,10.6h-2.1l-.68-2.2ZM46.22,170.42h2.93l-1.45-5.01-1.48,5.01Z"/>
    <path class="cls-2" d="M60.49,172.15h-3.93l-.67,2.2h-2.1l3.34-10.6h2.8l3.34,10.6h-2.1l-.68-2.2ZM57.05,170.42h2.93l-1.45-5.01-1.48,5.01Z"/>
  </g>
  <g>
    <path class="cls-2" d="M136.4,172.15h-3.93l-.67,2.2h-2.1l3.34-10.6h2.8l3.34,10.6h-2.1l-.68-2.2ZM132.97,170.42h2.93l-1.45-5.01-1.48,5.01Z"/>
    <path class="cls-2" d="M147.24,172.15h-3.93l-.67,2.2h-2.1l3.34-10.6h2.8l3.34,10.6h-2.1l-.68-2.2ZM143.8,170.42h2.93l-1.45-5.01-1.48,5.01Z"/>
  </g>
  <path class="cls-2" d="M240.82,172.15h-3.93l-.67,2.2h-2.1l3.34-10.6h2.8l3.34,10.6h-2.1l-.68-2.2ZM237.38,170.42h2.93l-1.45-5.01-1.48,5.01Z"/>
  <g>
    <path class="cls-2" d="M321.83,174.35v-10.6h4.17c2.01,0,2.82.83,2.82,2.26v1.1c0,.88-.37,1.37-1.18,1.72.97.21,1.54.92,1.54,1.96v1.13c0,1.5-.97,2.44-2.9,2.44h-4.46ZM326.81,166.26c0-.59-.32-.86-1.05-.86h-1.93v2.79h1.91c.78,0,1.07-.37,1.07-.99v-.94ZM327.18,170.86c0-.72-.32-1.07-1.11-1.07h-2.23v2.9h2.05c.91,0,1.29-.25,1.29-1.03v-.8Z"/>
    <path class="cls-2" d="M331.41,174.35v-10.6h4.17c2.01,0,2.82.83,2.82,2.26v1.1c0,.88-.37,1.37-1.18,1.72.97.21,1.54.92,1.54,1.96v1.13c0,1.5-.97,2.44-2.9,2.44h-4.46ZM336.39,166.26c0-.59-.32-.86-1.05-.86h-1.93v2.79h1.91c.78,0,1.07-.37,1.07-.99v-.94ZM336.75,170.86c0-.72-.32-1.07-1.11-1.07h-2.23v2.9h2.05c.91,0,1.29-.25,1.29-1.03v-.8Z"/>
    <path class="cls-2" d="M340.98,174.35v-10.6h4.17c2.01,0,2.82.83,2.82,2.26v1.1c0,.88-.37,1.37-1.18,1.72.97.21,1.54.92,1.54,1.96v1.13c0,1.5-.97,2.44-2.9,2.44h-4.46ZM345.97,166.26c0-.59-.32-.86-1.05-.86h-1.93v2.79h1.91c.78,0,1.07-.37,1.07-.99v-.94ZM346.33,170.86c0-.72-.32-1.07-1.11-1.07h-2.23v2.9h2.05c.91,0,1.29-.25,1.29-1.03v-.8Z"/>
  </g>
  <g>
    <path class="cls-2" d="M422.86,174.35v-10.6h4.17c2.01,0,2.82.83,2.82,2.26v1.1c0,.88-.37,1.37-1.18,1.72.97.21,1.54.92,1.54,1.96v1.13c0,1.5-.97,2.44-2.9,2.44h-4.46ZM427.84,166.26c0-.59-.32-.86-1.05-.86h-1.93v2.79h1.91c.78,0,1.07-.37,1.07-.99v-.94ZM428.2,170.86c0-.72-.32-1.07-1.11-1.07h-2.23v2.9h2.05c.91,0,1.29-.25,1.29-1.03v-.8Z"/>
    <path class="cls-2" d="M432.43,174.35v-10.6h4.17c2.01,0,2.82.83,2.82,2.26v1.1c0,.88-.37,1.37-1.18,1.72.97.21,1.54.92,1.54,1.96v1.13c0,1.5-.97,2.44-2.9,2.44h-4.46ZM437.41,166.26c0-.59-.32-.86-1.05-.86h-1.93v2.79h1.91c.78,0,1.07-.37,1.07-.99v-.94ZM437.78,170.86c0-.72-.32-1.07-1.11-1.07h-2.23v2.9h2.05c.91,0,1.29-.25,1.29-1.03v-.8Z"/>
  </g>
  <path class="cls-2" d="M525.02,174.35v-10.6h4.17c2.01,0,2.82.83,2.82,2.26v1.1c0,.88-.37,1.37-1.18,1.72.97.21,1.54.92,1.54,1.96v1.13c0,1.5-.97,2.44-2.9,2.44h-4.46ZM530,166.26c0-.59-.32-.86-1.05-.86h-1.93v2.79h1.91c.78,0,1.07-.37,1.07-.99v-.94ZM530.37,170.86c0-.72-.32-1.07-1.11-1.07h-2.23v2.9h2.05c.91,0,1.29-.25,1.29-1.03v-.8Z"/>
  <g>
    <path class="cls-2" d="M577.96,166.66c0-1.94,1.13-3.07,3.77-3.07.99,0,2.01.13,2.88.35l-.22,1.73c-.86-.16-1.86-.27-2.59-.27-1.38,0-1.83.48-1.83,1.61v4.07c0,1.13.45,1.61,1.83,1.61.73,0,1.73-.11,2.59-.27l.22,1.73c-.88.22-1.89.35-2.88.35-2.64,0-3.77-1.13-3.77-3.07v-4.77Z"/>
    <path class="cls-2" d="M586.44,166.66c0-1.94,1.13-3.07,3.77-3.07.99,0,2.01.13,2.88.35l-.22,1.73c-.86-.16-1.86-.27-2.59-.27-1.38,0-1.83.48-1.83,1.61v4.07c0,1.13.45,1.61,1.83,1.61.73,0,1.73-.11,2.59-.27l.22,1.73c-.88.22-1.89.35-2.88.35-2.64,0-3.77-1.13-3.77-3.07v-4.77Z"/>
    <path class="cls-2" d="M594.92,166.66c0-1.94,1.13-3.07,3.77-3.07.99,0,2.01.13,2.88.35l-.22,1.73c-.86-.16-1.86-.27-2.59-.27-1.38,0-1.83.48-1.83,1.61v4.07c0,1.13.45,1.61,1.83,1.61.73,0,1.73-.11,2.59-.27l.22,1.73c-.88.22-1.89.35-2.88.35-2.64,0-3.77-1.13-3.77-3.07v-4.77Z"/>
    <path class="cls-2" d="M608.63,170.58c-.05-.25-.1-.52-.19-.86-3.53.59-4.09.72-4.41.91-.06-.29-.3-.99-.48-1.35.4-.08.75-.46,1.24-1.05.24-.25.68-.81,1.19-1.56-1.48.18-1.83.27-2.07.38-.08-.29-.3-.97-.46-1.34.29-.08.57-.38.89-.86.35-.46,1.4-2.21,2.01-3.9l1.37.56c-.62,1.38-1.45,2.83-2.29,3.99l1.43-.13c.43-.67.83-1.38,1.18-2.1l1.24.78c-.99,1.73-2.21,3.47-3.45,4.87l2.28-.3c-.17-.46-.35-.91-.54-1.3l1.05-.37c.49,1.02,1,2.36,1.16,3.18l-1.15.45ZM605.34,171.44c-.16,1.37-.43,2.86-.76,3.84-.25-.13-.81-.32-1.11-.41.37-.94.57-2.36.7-3.63l1.18.21ZM606.96,171.15c.19,1,.37,2.29.41,3.15l-1.11.29c-.02-.88-.18-2.18-.35-3.2l1.05-.24ZM617.58,166.47c-.4,2.32-1.16,4.27-2.2,5.82.73.86,1.61,1.54,2.64,1.99-.35.29-.78.84-1,1.24-.99-.51-1.83-1.21-2.53-2.05-.76.88-1.64,1.59-2.56,2.16-.21-.37-.62-.88-.94-1.15.97-.51,1.86-1.27,2.63-2.24-.65-1.08-1.15-2.31-1.54-3.66-.3,2.8-.91,5.12-2.16,6.94-.22-.24-.92-.73-1.27-.94.3-.4.56-.83.8-1.29l-1.07.37c-.13-.68-.45-1.77-.73-2.58l1.02-.32c.32.78.65,1.83.8,2.51,1.21-2.5,1.46-6.02,1.5-10.17h-1.46v-1.38h5.51l.22-.06,1.02.13c-.17,1.34-.45,3.01-.72,4.41h.88l.27-.06.92.33ZM612.37,163.11c-.02,1.08-.06,2.1-.11,3.09h1.85c.21-.99.38-2.13.54-3.09h-2.28ZM613.06,167.52c.33,1.26.8,2.45,1.42,3.5.62-1.03,1.1-2.21,1.42-3.5h-2.83Z"/>
    <path class="cls-2" d="M633.53,166.57c-.65,2.53-1.8,4.46-3.33,5.92,1.16.78,2.53,1.38,4.11,1.73-.35.33-.8.99-1.02,1.42-1.69-.48-3.12-1.19-4.33-2.13-1.42,1.03-3.07,1.75-4.87,2.28-.18-.43-.57-1.07-.86-1.38,1.67-.38,3.23-1.03,4.57-1.96-1.24-1.32-2.2-2.93-2.88-4.84h-.45c-.33,2.58-1.29,5.43-3.84,7.75-.22-.38-.75-.99-1.07-1.26,3.26-2.96,3.55-6.91,3.55-9.61v-1.34h-2.67v-1.43h9.87c-.3,1.45-.67,3.18-1,4.49h2.86l.29-.08,1.07.45ZM624.65,164.5c0,.54-.02,1.11-.05,1.7h3.07c.27-.91.53-2.01.76-3.06h-3.79v1.35ZM626.36,167.6c.6,1.5,1.48,2.8,2.61,3.88,1.11-1.05,2.01-2.32,2.58-3.88h-5.19Z"/>
    <path class="cls-2" d="M642.68,171.1c-2.16.99-4.5,1.99-6.27,2.74l-.54-1.54c.6-.22,1.35-.51,2.16-.83l-.3-9.56,1.54-.06.27,9.01c.92-.38,1.86-.78,2.78-1.18l.35,1.43ZM649.47,175.57c-.68-1.07-2.02-2.64-3.29-4.03-1.19,1.77-2.86,3.1-5.17,4.09-.21-.32-.81-1-1.19-1.31,5.28-1.96,6.94-5.79,7.59-12.49l1.62.16c-.37,3.34-.95,6.02-2.02,8.15,1.35,1.4,2.94,3.1,3.71,4.23l-1.24,1.19ZM643.44,167.47c-.41-1.08-1.43-2.74-2.42-3.9l1.35-.65c1.03,1.15,2.04,2.69,2.5,3.79l-1.43.76Z"/>
    <path class="cls-2" d="M660.02,163.65v2.69l.27-.32c1.81.88,4.31,2.29,5.54,3.25l-1.08,1.35c-1.02-.86-3.01-2.1-4.73-3.06v8.01h-1.58v-11.92h-5.9v-1.51h14.05v1.51h-6.57Z"/>
  </g>
  <g>
    <path class="cls-2" d="M707.71,172.42c-1.42.86-3.56,1.75-5.25,2.29-.22-.32-.65-.83-.97-1.13,1.69-.46,3.84-1.37,4.93-2.12l1.29.96ZM715.74,171.33h-14.08v-1.37h2.8v-6.76h-2.34v-1.35h2.34v-1.7h1.46v1.7h5.51v-1.7h1.5v1.7h2.44v1.35h-2.44v6.76h2.82v1.37ZM705.93,163.2v1.34h5.51v-1.34h-5.51ZM705.93,167.23h5.51v-1.43h-5.51v1.43ZM705.93,169.97h5.51v-1.5h-5.51v1.5ZM710.75,171.59c1.81.62,3.84,1.5,5.05,2.12l-1.37.97c-1.08-.64-2.91-1.51-4.73-2.16l1.05-.92Z"/>
    <path class="cls-2" d="M722.55,160.61c-.43,1.18-1,2.34-1.62,3.45v10.65h-1.4v-8.48c-.43.59-.88,1.13-1.32,1.59-.14-.37-.57-1.16-.81-1.5,1.5-1.48,2.91-3.8,3.77-6.13l1.38.41ZM729.81,173.26c.94,0,1.1-.41,1.24-2.24.35.24.92.48,1.32.56-.22,2.26-.67,3.01-2.48,3.01h-3.92c-2.04,0-2.61-.49-2.61-2.45v-4.84l-1.4.54-.59-1.31,1.99-.78v-3.95h1.38v3.41l2.04-.8v-4.23h1.32v3.71l2.39-.94.21-.16,1.11.37-.05.25c-.06,2.28-.24,5.27-.54,7.16l-1.23-.33c.18-1.4.27-3.68.32-5.7l-2.21.88v5.71h-1.32v-5.2l-2.04.81v5.41c0,.92.19,1.11,1.29,1.11h3.77Z"/>
  </g>
</svg>