<svg xmlns="http://www.w3.org/2000/svg" xmlns:xlink="http://www.w3.org/1999/xlink" width="1092.415" height="416.87" viewBox="0 0 1092.415 416.87">
  <defs>
    <clipPath id="clip-path">
      <rect id="Rectangle_3480" data-name="Rectangle 3480" width="1092.415" height="416.87" fill="none"/>
    </clipPath>
  </defs>
  <g id="Group_18549" data-name="Group 18549" transform="translate(51.234 19.551)">
    <g id="Group_17921" data-name="Group 17921" transform="translate(-51.234 -19.551)" clip-path="url(#clip-path)">
      <path id="Path_22740" data-name="Path 22740" d="M351.436,302.5a207.594,207.594,0,0,0,1.126-206.12" transform="translate(36.376 9.976)" fill="none" stroke="#1e9bd7" stroke-miterlimit="10" stroke-width="2"/>
      <path id="Path_22741" data-name="Path 22741" d="M363.252,70.539A206.821,206.821,0,0,0,208.332,1C93.825,1,1,93.826,1,208.332S93.825,415.663,208.332,415.663A206.933,206.933,0,0,0,369.564,338.69" transform="translate(0.104 0.104)" fill="none" stroke="#1e9bd7" stroke-miterlimit="10" stroke-width="2"/>
      <path id="Path_22742" data-name="Path 22742" d="M516.033,3.207a205.18,205.18,0,0,1,79.843,394.131A205.179,205.179,0,0,1,436.189,19.326,203.83,203.83,0,0,1,516.033,3.207m0-2.207C401.526,1,308.7,93.826,308.7,208.332s92.825,207.332,207.332,207.332,207.331-92.825,207.331-207.332S630.539,1,516.033,1" transform="translate(31.953 0.104)" fill="#ffbf27"/>
      <path id="Path_22743" data-name="Path 22743" d="M660.9,346.14A206.822,206.822,0,0,0,815.8,415.663c114.506,0,207.332-92.826,207.332-207.332S930.308,1,815.8,1a206.863,206.863,0,0,0-157.14,72.072" transform="translate(68.177 0.103)" fill="none" stroke="#5949a7" stroke-miterlimit="10" stroke-width="2"/>
      <path id="Path_22744" data-name="Path 22744" d="M637.772,100.048a207.642,207.642,0,0,0,1.987,199.671" transform="translate(63.469 10.356)" fill="none" stroke="#5949a7" stroke-miterlimit="10" stroke-width="2"/>
    </g>
    <g id="Responsible_Investing_" data-name="Responsible Investing " transform="translate(-4159.084 -2589.67)">
      <path id="Path_16406" data-name="Path 16406" d="M4303.756,2716.061c0-1.176-.346-2.883,1.537-4.765s15.288-17.661,17.171-19.544c1.708-1.709,1.683-20.524,1.537-23.057-.139-2.437-.537-15.246-2.437-19.985-2.091-.308-5.5,1.1-7.688,4.613-2.084,3.348-1.731,6.9,0,12.3l-3.386,10.707" transform="translate(43.021 11.74)" fill="none" stroke="#1e9bd7" stroke-linecap="round" stroke-linejoin="round" stroke-width="2"/>
      <path id="Path_16407" data-name="Path 16407" d="M4313.541,2681.351s8.587-8.783,10.125-10.32c6.149-6.15-1.538-13.835-7.686-7.687-1.537,1.538-1.674,1.87-5.948,6.144-1.281,1.282-3.048.609-5.078,2.64-.9.9-5.72,5.607-7.8,7.686s-3.073,6.342-3.073,9.222v12.452" transform="translate(31.696 26.313)" fill="none" stroke="#1e9bd7" stroke-linecap="round" stroke-linejoin="round" stroke-width="2"/>
      <path id="Path_16408" data-name="Path 16408" d="M4322.519,2690.539V2679.67h-30.435v10.869" transform="translate(29.349 48.132)" fill="none" stroke="#1e9bd7" stroke-linecap="round" stroke-linejoin="round" stroke-width="2"/>
      <line id="Line_13666" data-name="Line 13666" x2="4.348" transform="translate(4327.955 2734.323)" fill="none" stroke="#1e9bd7" stroke-linecap="round" stroke-linejoin="round" stroke-width="2"/>
      <path id="Path_16409" data-name="Path 16409" d="M4287.393,2716.061c0-1.176.345-2.883-1.537-4.765s-15.291-17.661-17.173-19.544c-1.708-1.709-1.682-20.524-1.537-23.057.138-2.437.537-15.246,2.437-19.985,2.09-.308,5.5,1.1,7.687,4.613,2.088,3.348,1.732,6.9,0,12.3l3.388,10.707" transform="translate(0 11.74)" fill="none" stroke="#1e9bd7" stroke-linecap="round" stroke-linejoin="round" stroke-width="2"/>
      <path id="Path_16410" data-name="Path 16410" d="M4283.822,2681.351s-8.587-8.783-10.123-10.32c-6.151-6.15,1.536-13.835,7.685-7.687,1.535,1.538,1.673,1.87,5.948,6.144,1.281,1.282,3.047.609,5.079,2.64.9.9,5.717,5.607,7.793,7.686s2.974,6.342,3.076,9.222v12.452" transform="translate(5.109 26.313)" fill="none" stroke="#1e9bd7" stroke-linecap="round" stroke-linejoin="round" stroke-width="2"/>
      <path id="Path_16411" data-name="Path 16411" d="M4274.084,2690.539V2679.67h30.435v10.869" transform="translate(8.218 48.132)" fill="none" stroke="#1e9bd7" stroke-linecap="round" stroke-linejoin="round" stroke-width="2"/>
      <line id="Line_13667" data-name="Line 13667" x1="4.348" transform="translate(4301.866 2734.323)" fill="none" stroke="#1e9bd7" stroke-linecap="round" stroke-linejoin="round" stroke-width="2"/>
      <path id="Path_16412" data-name="Path 16412" d="M4294.561,2686.313c-8.594-3.206-12.818-13.967-11.439-19.7,3.685-15.334,18.268-16.795,24.487-27.945,9.415,6.892,12.979,21.022,8.758,33.715-2.84,8.545-10.872,11.4-15.167,12.335" transform="translate(18.525 0)" fill="none" stroke="#1e9bd7" stroke-linecap="round" stroke-linejoin="round" stroke-width="2"/>
      <path id="Path_16413" data-name="Path 16413" d="M4290.4,2691.007c-6.469-18.706,3.132-32.915,8.581-45.127" transform="translate(24.837 8.466)" fill="none" stroke="#1e9bd7" stroke-linecap="round" stroke-linejoin="round" stroke-width="2"/>
    </g>
    <g id="Research" transform="translate(-1996.143 -217.769)">
      <g id="Group_5751" data-name="Group 5751" transform="translate(2453.503 266.769)">
        <circle id="Ellipse_1940" data-name="Ellipse 1940" cx="31.473" cy="31.473" r="31.473" fill="none" stroke="#ffbf27" stroke-linecap="round" stroke-linejoin="round" stroke-width="2"/>
        <circle id="Ellipse_1941" data-name="Ellipse 1941" cx="23.87" cy="23.87" r="23.87" transform="translate(7.602 7.602)" fill="none" stroke="#ffbf27" stroke-linecap="round" stroke-linejoin="round" stroke-width="2"/>
      </g>
      <g id="Group_5752" data-name="Group 5752" transform="translate(2501.465 326.803)">
        <rect id="Rectangle_1591" data-name="Rectangle 1591" width="7.771" height="32.444" transform="matrix(0.866, -0.5, 0.5, 0.866, 2.366, 11.869)" fill="none" stroke="#ffbf27" stroke-linecap="round" stroke-linejoin="round" stroke-width="2"/>
        <line id="Line_12718" data-name="Line 12718" x2="5.731" y2="9.927" fill="none" stroke="#ffbf27" stroke-linecap="round" stroke-linejoin="round" stroke-width="2"/>
      </g>
    </g>
    <g id="Group_6784" data-name="Group 6784" transform="translate(-858.311 -3027.56)">
      <path id="Path_18474" data-name="Path 18474" d="M1723.634,3132.686l8.234.719,2.23-8.318-7.52-3.5q.152-1.633.151-3.291c0-1.054-.054-2.118-.156-3.183l7.524-3.5-1.115-4.159-1.115-4.159-8.264.729a34.37,34.37,0,0,0-3.235-5.61l4.761-6.79-6.091-6.091-6.77,4.74a34.84,34.84,0,0,0-5.621-3.246l.721-8.232-8.321-2.23-3.5,7.52a34.217,34.217,0,0,0-6.474,0l-3.5-7.521-4.159,1.115-4.159,1.116.728,8.264a34.277,34.277,0,0,0-5.608,3.235l-6.792-4.762-6.091,6.091,4.741,6.77a34.445,34.445,0,0,0-3.245,5.621l-8.234-.721-2.228,8.318,7.52,3.5a34.2,34.2,0,0,0,0,6.474l-7.522,3.5,1.113,4.16,1.115,4.159,8.266-.727a34.174,34.174,0,0,0,3.235,5.608l-4.943,6.792,6.091,6.088,4.073-2.778" transform="translate(0 0)" fill="none" stroke="#5949a7" stroke-linecap="round" stroke-linejoin="round" stroke-width="2"/>
      <path id="Path_18475" data-name="Path 18475" d="M1672.508,3102.747h4.33a5.839,5.839,0,0,1,4.33,2.166h4.33a4.548,4.548,0,0,1,4.33,4.33h4.33a4.548,4.548,0,0,1,4.33,4.331v19.486c0,4.38-4.33,7.909-4.33,10.826v2.165" transform="translate(25.614 30.511)" fill="none" stroke="#5949a7" stroke-linecap="round" stroke-linejoin="round" stroke-width="2"/>
      <path id="Path_18476" data-name="Path 18476" d="M1686.49,3124.059v-25.982a4.33,4.33,0,1,0-8.661,0v30.312l-2.9,2.776-5.657-8.771c-3.464-4.772-8.769-2.094-8.769,0,0,0,6.569,18.8,7.509,20.269,1.514,2.366,7.647,7.69,7.647,9.544v4.33" transform="translate(11.632 20.025)" fill="none" stroke="#5949a7" stroke-linecap="round" stroke-linejoin="round" stroke-width="2"/>
      <line id="Line_15386" data-name="Line 15386" y2="8.661" transform="translate(1706.782 3135.423)" fill="none" stroke="#5949a7" stroke-linecap="round" stroke-linejoin="round" stroke-width="2"/>
      <line id="Line_15387" data-name="Line 15387" y2="6.495" transform="translate(1715.442 3139.753)" fill="none" stroke="#5949a7" stroke-linecap="round" stroke-linejoin="round" stroke-width="2"/>
      <path id="Path_18477" data-name="Path 18477" d="M1667.816,3111.4a12.993,12.993,0,1,1,19,.392" transform="translate(16.292 15.364)" fill="none" stroke="#5949a7" stroke-linecap="round" stroke-linejoin="round" stroke-width="2"/>
    </g>
    <path id="Path_22903" data-name="Path 22903" d="M17.108,18.7c-1.152.18-2.3.378-3.438.576v-2.7h3.1V15.348h-3.1V13.314H12.338v2.034h-3.1v1.224h3.1v2.934c-1.35.2-2.592.4-3.564.54l.216,1.368c2.16-.4,5.256-.918,8.172-1.476Zm2.052-8.172h3.33a19.207,19.207,0,0,1-1.62,5.958,21.434,21.434,0,0,1-1.836-5.616Zm5.976,0V9.264h-5.58a27.772,27.772,0,0,0,.756-3.1L19,5.934a22.58,22.58,0,0,1-2.214,6.678A25.045,25.045,0,0,0,14.66,9.156l-1.008.5c.342.486.7,1.08,1.044,1.638l-3.8.306a23.838,23.838,0,0,0,1.944-3.276h4.122V7.1H8.99V8.328h2.394a15.931,15.931,0,0,1-1.548,2.718c-.288.432-.558.72-.81.774a12.521,12.521,0,0,1,.414,1.242v.018c.4-.18,1.026-.27,5.868-.7.162.306.288.576.4.828l1.08-.594a7.962,7.962,0,0,1-.81,1.26,8.878,8.878,0,0,1,1.008,1.008,14.075,14.075,0,0,0,1.26-2.124,21.076,21.076,0,0,0,1.872,5.04,9.74,9.74,0,0,1-4.14,3.4,4.884,4.884,0,0,1,.792,1.188,11.54,11.54,0,0,0,4.1-3.348A10.017,10.017,0,0,0,24.452,22.3a5.518,5.518,0,0,1,.918-1.116,9.184,9.184,0,0,1-3.726-3.33,19.982,19.982,0,0,0,2.214-7.326Zm9.648-.666V5.97H33.4V9.858H27.566V11.19h5.76a12.128,12.128,0,0,1-6.3,10.206,4.788,4.788,0,0,1,1.026,1.062,13.248,13.248,0,0,0,6.66-11.268H40.85c-.342,6.336-.738,8.874-1.386,9.486a1.032,1.032,0,0,1-.828.27c-.45,0-1.6-.018-2.826-.126a2.928,2.928,0,0,1,.45,1.368,23.267,23.267,0,0,0,2.88.054,1.978,1.978,0,0,0,1.53-.72c.792-.9,1.17-3.582,1.566-10.962.018-.2.036-.7.036-.7ZM58.13,11.5a18.221,18.221,0,0,1-1.728,4,42.506,42.506,0,0,1-.72-4.932h5.562V8.436H59.372l.864-.918A15.059,15.059,0,0,0,57.3,5.592l-1.3,1.278a22.535,22.535,0,0,1,2.3,1.566H55.556c-.036-.882-.054-1.764-.036-2.664H53.27c0,.9.036,1.782.072,2.664H46v5.256c0,2.34-.126,5.472-1.494,7.632a9.37,9.37,0,0,1,1.818,1.458c1.476-2.2,1.854-5.706,1.926-8.334h2.34c-.054,2.268-.126,3.132-.306,3.384a.582.582,0,0,1-.54.216c-.288,0-.9-.018-1.548-.072a4.857,4.857,0,0,1,.594,2,14.163,14.163,0,0,0,2.07-.054A1.691,1.691,0,0,0,52.1,19.2c.414-.522.522-2.124.576-5.9,0-.252.018-.81.018-.81H48.248V10.56h5.22a37.183,37.183,0,0,0,1.242,7.254,13.751,13.751,0,0,1-3.672,2.916,14.11,14.11,0,0,1,1.548,1.764,15.257,15.257,0,0,0,3.042-2.448c.792,1.476,1.782,2.376,3.042,2.376,1.674,0,2.394-.792,2.736-4.122a5.822,5.822,0,0,1-1.818-1.206c-.09,2.25-.306,3.15-.738,3.15-.576,0-1.152-.756-1.674-2.052a20.908,20.908,0,0,0,3.1-6.174Zm9.54,6.678a14.271,14.271,0,0,1,.414,3.672l1.836-.216a14.443,14.443,0,0,0-.522-3.672Zm2.7-.162a16.539,16.539,0,0,1,.882,3.24l1.71-.45a15.582,15.582,0,0,0-.954-3.168ZM74.222,10.6c-.108.486-.216.954-.324,1.368H70.424c.27-.45.5-.9.738-1.368Zm1.188,3.2c-.09.5-.2.972-.306,1.4H68.138c.4-.45.756-.918,1.116-1.4Zm3.618,1.4h-2c.252-.972.486-2.178.684-3.24H75.842c.234-.99.5-2.232.72-3.294H72.026c.306-.792.594-1.6.846-2.412l-2.2-.5a19.886,19.886,0,0,1-.99,2.916h-2.25l1.4-.576a13.073,13.073,0,0,0-1.764-2.34L65.15,6.51a13.112,13.112,0,0,1,1.512,2.16h-3.51V10.6h5.616a15.268,15.268,0,0,1-6.462,6.48,11.9,11.9,0,0,1,1.152,1.872,16.887,16.887,0,0,0,1.746-1.1,7.42,7.42,0,0,1-1.764,3.474l1.656,1.17a9.392,9.392,0,0,0,1.962-4.338l-1.548-.522c.252-.18.5-.4.756-.594H76.76c-.216,2.16-.468,3.132-.774,3.438a.787.787,0,0,1-.648.2,15.651,15.651,0,0,1-1.89-.072,4.784,4.784,0,0,1,.594,1.944,15.021,15.021,0,0,0,2.286-.036,2.063,2.063,0,0,0,1.44-.684c.576-.594.9-2.16,1.206-5.8ZM75.7,19.542a9.544,9.544,0,0,0-1.152-2.376l-1.476.5a10.977,10.977,0,0,1,1.062,2.43Zm9.486-2.88h7.848v1.044H85.184ZM89.45,8.58a13.894,13.894,0,0,1-1.008,1.3H84.878a13.325,13.325,0,0,0,1.188-1.3Zm3.582,3.978H85.184V11.532h7.848Zm0,2.556H85.184V14.106h7.848Zm2.232,4.266v-9.5H91a16.9,16.9,0,0,0,1.458-2.07L90.98,6.852l-.342.09H87.29c.162-.252.324-.486.468-.738l-2.322-.432a13.005,13.005,0,0,1-4.77,4.734,7.072,7.072,0,0,1,1.584,1.53c.288-.2.558-.378.81-.576v7.92h2.7a20.923,20.923,0,0,1-4.968,1.6,18.215,18.215,0,0,1,1.674,1.656,23.458,23.458,0,0,0,5.562-2.43l-1.836-.828h5.616l-1.584,1.026a34.907,34.907,0,0,1,4.518,2.16l2.412-1.08c-1.17-.594-3.15-1.44-4.9-2.106Zm19.8-8.64h-6.948v-.666h5.4v-1.3h-5.4V8.13h6.21v-1.4h-6.21V5.754h-2.2v.972H99.962v1.4h5.958v.648h-5.13v1.3h5.13v.666H98.936v1.476h16.128Zm-11.9,7.146h7.812v.756h-7.812Zm0-1.908h7.812v.72h-7.812Zm0-1.908h7.812v.72h-7.812Zm9.99,5.814V12.846H101.1v7.038h2.358A24.219,24.219,0,0,1,98.81,21.09a13.831,13.831,0,0,1,1.548,1.53,23,23,0,0,0,5.616-2.142l-1.314-.594h4.77l-1.44.792a32.621,32.621,0,0,1,4.608,1.89l2.574-.954c-1.134-.486-2.97-1.17-4.662-1.728Zm20.16-4.59v-2.07h-4.5V8.832a29.806,29.806,0,0,0,4.068-1.026l-1.566-1.8A47.369,47.369,0,0,1,122.3,7.914c.234-.486.432-.954.63-1.44l-2.124-.666a18.734,18.734,0,0,1-4.5,6.93,16.736,16.736,0,0,1,1.26,2.25,16.773,16.773,0,0,0,1.458-1.656v9.216h2.142V10.128a20.439,20.439,0,0,0,1.116-2.16,8.356,8.356,0,0,1,.612,1.782c1.206-.144,2.484-.306,3.744-.522v4H121.76v2.07h4.878V19.9H122.48v2.052h10.656V19.9h-4.32V15.294Zm4,3.528V15.294h2.862v3.528Zm2.862-5.382h-2.862V10.524h2.862ZM145.9,8.526c.27-.756.5-1.512.7-2.286l-2.052-.468a18.618,18.618,0,0,1-2.43,5.8V8.652h-2.79c.306-.774.63-1.674.936-2.574l-2.34-.324a19.3,19.3,0,0,1-.522,2.9h-2.034V22.026h1.944V20.712h4.806V12.306a13.368,13.368,0,0,1,1.386,1.008,15.528,15.528,0,0,0,1.584-2.844h3.852c-.2,6.354-.432,9.054-.954,9.63a.96.96,0,0,1-.792.306c-.468,0-1.53,0-2.682-.108a5.044,5.044,0,0,1,.7,2.088,20.177,20.177,0,0,0,2.826-.036,2.4,2.4,0,0,0,1.728-.99c.738-.954.936-3.816,1.17-11.862.018-.252.018-.972.018-.972Zm2.07,8.208a43.444,43.444,0,0,0-2.646-4l-1.674.954a38.516,38.516,0,0,1,2.5,4.158Zm14.274-.18h4.806V14.628h-4.806V10.92h-2.268v9.234h-2.52V13.872H155.33v6.282h-1.944V22.08h15.3V20.154h-6.444ZM160.694,5.592c-1.8,2.7-5.094,4.842-8.316,6.1a7.99,7.99,0,0,1,1.458,1.818,22.981,22.981,0,0,0,7.164-5,20.526,20.526,0,0,0,7.308,5,5.3,5.3,0,0,1,1.35-1.854,17.741,17.741,0,0,1-7.416-4.608c.126-.162.252-.342.378-.5Zm20.52,4.842c-.2.486-.414,1.008-.63,1.44h-3.366l.306-.054a9.671,9.671,0,0,0-.612-1.386Zm5.814,8.028V16.7h-7v-.792h5.4V14.358h-5.4v-.81h6.246V11.874h-3.528c.27-.432.558-.918.846-1.44h3.384V8.688h-2.34c.414-.63.9-1.44,1.4-2.268l-2.25-.54a14.5,14.5,0,0,1-1.134,2.61l.648.2h-1.6V5.754h-2.016V8.688h-1.332V5.754h-2V8.688h-1.638l.882-.324a13.62,13.62,0,0,0-1.368-2.538l-1.836.63a16.135,16.135,0,0,1,1.116,2.232H171.1v1.746h3.762l-.216.036a8.088,8.088,0,0,1,.612,1.4h-3.42v1.674h6.084v.81h-5.184v1.548h5.184V16.7h-6.876v1.764h5.166a18.911,18.911,0,0,1-5.688,2.106,9.984,9.984,0,0,1,1.368,1.782,17.075,17.075,0,0,0,6.03-2.916v3.132h2.106v-3.24a15.365,15.365,0,0,0,6.048,3.042,10.068,10.068,0,0,1,1.44-1.944,16.081,16.081,0,0,1-5.706-1.962Zm3.8,4.464a4.288,4.288,0,0,0,3.114-4.086c0-1.26-.54-2.07-1.53-2.07a1.265,1.265,0,0,0-1.368,1.3,1.237,1.237,0,0,0,1.35,1.278,1.746,1.746,0,0,0,.306-.018,3.13,3.13,0,0,1-2.268,2.646Zm28.782-13.77H210.3V7.7h9.306Zm0,2.43H210.3V10.128h9.306Zm1.332-4.914H208.988v5.94H220.94ZM215.81,18.21h5.94V17.022h-5.94v-2h7.11V13.818h-15.8v1.206h7.38v5.418a4.763,4.763,0,0,1-3.4-2.862,17.513,17.513,0,0,0,.468-1.8l-1.35-.18a8.4,8.4,0,0,1-3.492,5.85,7.176,7.176,0,0,1,.99.954,9.271,9.271,0,0,0,2.808-3.384c1.458,2.43,3.744,3.006,7.362,3.006h4.9a4.686,4.686,0,0,1,.468-1.278c-.918.018-4.644.018-5.31.018a19.47,19.47,0,0,1-2.124-.108ZM236.06,6.834a18.427,18.427,0,0,1,3.186,2.16l.828-.918a17.17,17.17,0,0,0-3.222-2.052Zm2.556,4.86a17.825,17.825,0,0,1-2.3,4.86,32.467,32.467,0,0,1-.99-6.246h5.724V8.994h-5.814c-.054-.972-.072-1.98-.072-3.024h-1.386c.018,1.026.036,2.034.108,3.024h-7.506v5.022c0,2.322-.162,5.4-1.638,7.6a5.325,5.325,0,0,1,1.116.9c1.62-2.34,1.89-5.958,1.89-8.478V13.89h3.276c-.072,3.1-.162,4.23-.414,4.5-.108.162-.288.2-.54.2-.306,0-1.08-.018-1.908-.09a2.782,2.782,0,0,1,.378,1.26,20.769,20.769,0,0,0,2.142,0,1.392,1.392,0,0,0,1.08-.522c.378-.468.486-1.98.576-6.012v-.576h-4.59v-2.34h6.21a35.393,35.393,0,0,0,1.314,7.578,14.364,14.364,0,0,1-4.14,3.33,7.534,7.534,0,0,1,.972,1.062,16.093,16.093,0,0,0,3.708-2.988c.828,1.854,1.908,2.952,3.294,2.952,1.368,0,1.854-.882,2.106-3.942a3.164,3.164,0,0,1-1.152-.72c-.126,2.394-.342,3.33-.846,3.33-.918,0-1.746-1.026-2.412-2.79a20.3,20.3,0,0,0,3.168-6.084ZM33.812,47.87c-.954.252-1.944.522-2.88.774V41.336h2.61V40.058H26.99v1.278h2.628V49c-1.1.27-2.088.522-2.88.7l.342,1.368c1.89-.522,4.464-1.242,6.894-1.962Zm4.194-5.85q.054-1.836.054-3.78H36.728q0,1.971-.054,3.78H33.668v1.3H36.62c-.27,4.356-1.26,7.992-5.076,10.026A3.822,3.822,0,0,1,32.5,54.4c4.1-2.3,5.148-6.318,5.436-11.088h3.6c-.27,6.372-.558,8.784-1.062,9.36a.9.9,0,0,1-.756.27c-.4,0-1.422,0-2.52-.108a3.106,3.106,0,0,1,.414,1.314,19.163,19.163,0,0,0,2.646.036,1.783,1.783,0,0,0,1.386-.7c.684-.828.918-3.4,1.206-10.782.018-.18.018-.684.018-.684Zm13.428,3.546-2.5.7V42.83h2.484V41.552H48.932V37.97H47.618v3.582H44.936V42.83h2.682v3.834c-1.062.27-2.052.54-2.844.738l.4,1.35c.738-.216,1.566-.468,2.448-.72v4.554c0,.27-.108.36-.36.36-.216,0-.99,0-1.854-.018a4.981,4.981,0,0,1,.432,1.26,6.2,6.2,0,0,0,2.448-.252c.468-.216.648-.558.648-1.332V47.618c.882-.252,1.782-.54,2.664-.81Zm9.792-6.1h-9.72v1.314h5.13V52.406c0,.342-.144.45-.486.468-.378.018-1.692.018-3.006-.036a6.434,6.434,0,0,1,.558,1.44,11.526,11.526,0,0,0,3.456-.27c.648-.216.882-.666.882-1.584V40.778h3.186Zm11.466,1.908v2.286H67.526v1.17H78.992v-1.17H74.006V41.372h4.212V40.2H74.006V37.97H72.692V40.2H70.478c.234-.558.468-1.152.648-1.728l-1.242-.288a11.3,11.3,0,0,1-2.376,4.41,7.534,7.534,0,0,1,1.116.648,10.609,10.609,0,0,0,1.26-1.872ZM70.208,47.4h6.084v2.79H70.208Zm7.4,3.906V46.286H68.948v5.022ZM67.058,41.48A18.189,18.189,0,0,0,64.3,38.672l-.99.7a17.8,17.8,0,0,1,2.7,2.9Zm-.5,3.312H62.918v1.26h2.34v5.364A8.593,8.593,0,0,0,62.9,53.072l.846,1.17c.882-1.008,1.782-1.872,2.376-1.872.36,0,.882.468,1.548.864a9.651,9.651,0,0,0,4.734.81c1.872,0,5.022-.09,6.588-.18a4.7,4.7,0,0,1,.4-1.386,65.907,65.907,0,0,1-6.948.36,9.707,9.707,0,0,1-4.554-.72c-.63-.36-.972-.684-1.332-.828Zm30.4-1.818h-7.29v-1.08h5.652v-.9H89.666V40.04h6.39v-.972h-6.39V37.934h-1.35v1.134h-6.21v.972h6.21v.954H82.934v.9h5.382v1.08H81.1v.99H96.956ZM84.59,49.76h9.018v1.152H84.59Zm0-2h9.018V48.9H84.59Zm0-1.98h9.018v1.134H84.59Zm10.35,6.012V44.9H83.294v6.894Zm-8.6.09a23.561,23.561,0,0,1-5.31,1.548,8.36,8.36,0,0,1,.972.99,24.945,24.945,0,0,0,5.544-2Zm4.1.7a45.758,45.758,0,0,1,5.022,1.782l1.53-.666a53.247,53.247,0,0,0-5.418-1.782Zm12.888-14.634a19.971,19.971,0,0,1-4.878,7.29,5.975,5.975,0,0,1,.828,1.332,18.842,18.842,0,0,0,2.124-2.43V54.386h1.314V42.164a27.957,27.957,0,0,0,1.908-3.816Zm11.88,8.928v-1.3h-5.076V40.6a40.255,40.255,0,0,0,4.356-1.1l-.99-1.116a52.7,52.7,0,0,1-9.414,1.944,5.372,5.372,0,0,1,.414,1.134c1.368-.162,2.862-.378,4.3-.63v4.752h-5.31v1.3h5.31v5.526h-4.626v1.3h10.764v-1.3h-4.806V46.88Zm10.566-7.038h3.132v2.88c0,1.332.27,1.854,1.53,1.854h1.512a3.8,3.8,0,0,0,.972-.09,11.387,11.387,0,0,1-.108-1.152,4.765,4.765,0,0,1-.9.09h-1.386c-.288,0-.342-.18-.342-.684V38.582h-5.67v1.98a4.01,4.01,0,0,1-2.322,3.852,5.7,5.7,0,0,1,.882.99,5.192,5.192,0,0,0,2.7-4.806ZM122.5,47.06l-.18-1.224-1.674.486v-3.51h2.232v-1.26h-2.232v-3.6H119.33v3.6h-2.448v1.26h2.448v3.87c-1.008.288-1.926.54-2.664.72l.4,1.3,2.268-.666v4.644c0,.252-.09.342-.342.342-.216,0-.99.018-1.854-.018a5.917,5.917,0,0,1,.414,1.242,6.457,6.457,0,0,0,2.43-.252c.468-.2.666-.558.666-1.314V47.618Zm7.632.036a9.821,9.821,0,0,1-2.808,3.438,10.471,10.471,0,0,1-2.736-3.438Zm.936-1.314-.252.054h-8.046V47.1h.7l-.18.072a12.638,12.638,0,0,0,2.934,4.122,15.653,15.653,0,0,1-4.86,1.908,4.24,4.24,0,0,1,.666,1.224,16.84,16.84,0,0,0,5.274-2.268,14.178,14.178,0,0,0,5.04,2.25,4.8,4.8,0,0,1,.846-1.224,14.662,14.662,0,0,1-4.77-1.854,11.262,11.262,0,0,0,3.51-5.148Zm17.874-5.508a7.88,7.88,0,0,1-1.08,1.368l1.062.4a12.845,12.845,0,0,0,1.8-2.556l-.9-.27-.216.054H143.45c.216-.378.432-.756.612-1.134l-1.206-.2a7.855,7.855,0,0,1-2.718,3.24,3.33,3.33,0,0,1,1.008.648,9.249,9.249,0,0,0,1.584-1.548Zm-10.35,9.09h9.018v1.26H138.59Zm0-2.088h9.018V48.5H138.59Zm0-2.088h9.018v1.224H138.59Zm-1.3,6.318H148.94V44.288H137.294Zm7.524-11.142c-.468,1.566-2.34,2.574-4.59,2.988a4.233,4.233,0,0,1,.576.936,7.791,7.791,0,0,0,4.482-2.394,9.461,9.461,0,0,0,4.68,2.592,3.929,3.929,0,0,1,.756-.972,8.417,8.417,0,0,1-4.9-2.466,3.034,3.034,0,0,0,.216-.5Zm-4.68-.63a23.055,23.055,0,0,0-3.762-1.386l-.594.918a24.053,24.053,0,0,1,3.762,1.494Zm-.2,1.8c-1.872.576-3.762,1.152-5.04,1.512l.5,1.152c1.368-.432,3.06-1.044,4.68-1.6Zm.36,10.1a22.387,22.387,0,0,1-5.274,1.728A8.522,8.522,0,0,1,136,54.368a25.493,25.493,0,0,0,5.508-2.2Zm4.392.7a36.247,36.247,0,0,1,5.022,2l1.188-.774a47.151,47.151,0,0,0-5.292-1.944Zm13.932-6.552h-3.78V42.02h3.78Zm-3.78,5.508V46.97h3.78v4.32ZM156.356,37.9a22.217,22.217,0,0,1-.72,2.916H153.62v13.1h1.224V52.5h5V40.814H156.86c.306-.774.63-1.764.936-2.646ZM168.65,40.76h-5.382a25.286,25.286,0,0,0,.774-2.592l-1.278-.306A18.264,18.264,0,0,1,160.01,44.4a9.838,9.838,0,0,1,1.1.756A15.156,15.156,0,0,0,162.8,42h4.572c-.234,7.164-.5,9.9-1.1,10.53-.18.234-.378.27-.738.27-.414,0-1.494,0-2.664-.108a3.1,3.1,0,0,1,.45,1.314,18.97,18.97,0,0,0,2.664.018,1.79,1.79,0,0,0,1.422-.72c.72-.882.954-3.654,1.242-11.862Zm-2.844,8.1a35.216,35.216,0,0,0-2.826-4.068l-1.044.612a32.025,32.025,0,0,1,2.736,4.158Zm9.108-8.352a10.017,10.017,0,0,1,.882,2.142l1.188-.4a9.44,9.44,0,0,0-.738-1.746h2.88V39.482h-4.608c.2-.432.4-.882.576-1.332l-1.242-.288a10.659,10.659,0,0,1-2.952,4.392,8.31,8.31,0,0,1,1.116.666,11.514,11.514,0,0,0,1.908-2.412Zm3.33,6.408V48.59h-4.32c.09-.522.18-1.116.27-1.674Zm1.314-2.79h4.716v1.656h-4.716Zm0,4.464V46.916h6.03V42.992H172.43v1.134h5.814v1.656H173.06c-.144,1.278-.4,2.88-.63,3.96h4.752a15.3,15.3,0,0,1-5.85,3.6A4.859,4.859,0,0,1,172.2,54.4a16.5,16.5,0,0,0,6.048-4.158v4.14h1.314V49.742h5.184a5.532,5.532,0,0,1-.612,2.574.967.967,0,0,1-.648.144,20.285,20.285,0,0,1-2.034-.09,3,3,0,0,1,.36,1.242c.918.036,1.8.036,2.268,0a1.414,1.414,0,0,0,1.116-.45c.468-.432.7-1.53.954-4.014.018-.2.036-.558.036-.558Zm2.016-9.108c.162-.45.324-.882.468-1.332l-1.278-.288a9.936,9.936,0,0,1-2.394,4.248,8.3,8.3,0,0,1,1.17.684,9.757,9.757,0,0,0,1.548-2.286h1.224a11,11,0,0,1,1.386,2.16l1.17-.468a8.852,8.852,0,0,0-1.1-1.692h3.222V39.482Zm7.29,5.778v1.458h16.344V45.26Zm33.93-.576V43.406H215.9V41.12h5.256V39.86H215.9V37.97h-1.386v5.436h-3.348V39.338h-1.332v4.068h-2.7v1.278h7.254v5.67h1.3a23.251,23.251,0,0,1-8.694,2.682,4.02,4.02,0,0,1,.684,1.242c6.858-1.044,11.376-3.438,13.734-8.082l-1.26-.576a11.176,11.176,0,0,1-4.374,4.68V44.684Zm-11.52.774a13.031,13.031,0,0,1-3.618,3.87,6.671,6.671,0,0,1,1.008,1.008,17.247,17.247,0,0,0,3.888-4.446Z" transform="translate(31 180.449)" fill="#262626"/>
    <path id="Path_22902" data-name="Path 22902" d="M14.5,18.7c-1.152.18-2.3.378-3.438.576v-2.7h3.1V15.348h-3.1V13.314H9.734v2.034h-3.1v1.224h3.1v2.934c-1.35.2-2.592.4-3.564.54l.216,1.368c2.16-.4,5.256-.918,8.172-1.476Zm2.052-8.172h3.33a19.207,19.207,0,0,1-1.62,5.958,21.434,21.434,0,0,1-1.836-5.616Zm5.976,0V9.264h-5.58a27.772,27.772,0,0,0,.756-3.1l-1.314-.234a22.58,22.58,0,0,1-2.214,6.678,25.045,25.045,0,0,0-2.124-3.456l-1.008.5c.342.486.7,1.08,1.044,1.638l-3.8.306a23.838,23.838,0,0,0,1.944-3.276H14.36V7.1H6.386V8.328H8.78a15.931,15.931,0,0,1-1.548,2.718c-.288.432-.558.72-.81.774a12.521,12.521,0,0,1,.414,1.242v.018c.4-.18,1.026-.27,5.868-.7.162.306.288.576.4.828l1.08-.594a7.962,7.962,0,0,1-.81,1.26,8.878,8.878,0,0,1,1.008,1.008,14.075,14.075,0,0,0,1.26-2.124A21.076,21.076,0,0,0,17.51,17.8a9.74,9.74,0,0,1-4.14,3.4,4.884,4.884,0,0,1,.792,1.188,11.54,11.54,0,0,0,4.1-3.348A10.017,10.017,0,0,0,21.848,22.3a5.518,5.518,0,0,1,.918-1.116,9.184,9.184,0,0,1-3.726-3.33,19.982,19.982,0,0,0,2.214-7.326Zm9.648-.666V5.97H30.794V9.858H24.962V11.19h5.76a12.128,12.128,0,0,1-6.3,10.206,4.788,4.788,0,0,1,1.026,1.062,13.248,13.248,0,0,0,6.66-11.268h6.138c-.342,6.336-.738,8.874-1.386,9.486a1.032,1.032,0,0,1-.828.27c-.45,0-1.6-.018-2.826-.126a2.928,2.928,0,0,1,.45,1.368,23.267,23.267,0,0,0,2.88.054,1.978,1.978,0,0,0,1.53-.72c.792-.9,1.17-3.582,1.566-10.962.018-.2.036-.7.036-.7ZM47.21,8.382a11.412,11.412,0,0,0-1.548-2.5l-1.17.45A10.5,10.5,0,0,1,45.95,8.886ZM45.392,12.63c.036-.792.054-1.638.072-2.484H49.6V8.9H42.368v1.242H44.15c-.054,4.878-.216,8.874-2.142,11.2a3.464,3.464,0,0,1,1.008.972c1.62-1.944,2.142-4.9,2.34-8.46h2.3c-.18,4.662-.378,6.372-.72,6.768a.51.51,0,0,1-.522.234c-.252,0-.756,0-1.386-.054a3.054,3.054,0,0,1,.342,1.224,9.494,9.494,0,0,0,1.638-.018,1.228,1.228,0,0,0,1.026-.558c.5-.648.7-2.574.918-8.208.018-.18.018-.612.018-.612ZM50.864,18.8a25.522,25.522,0,0,1,4.86,3.168l.9-1.17A27.49,27.49,0,0,0,51.71,17.8Zm5.112-3.582a22.75,22.75,0,0,0-3.15-2.358l-.864.864a25.464,25.464,0,0,1,3.1,2.484ZM53.528,5.844a11.023,11.023,0,0,1-4.5,6.408,5.085,5.085,0,0,1,.936,1.062,11.69,11.69,0,0,0,3.888-4.788,13.791,13.791,0,0,0,4,4.68,5.261,5.261,0,0,1,.99-1.1,12.422,12.422,0,0,1-4.41-4.9,9.091,9.091,0,0,0,.324-.99Zm8.748,4.1h1.6v1.134h-1.6Zm4.59,0v1.134H65.354V9.948Zm-1.512,2.808v-.63h.54Zm8.352-3.582a6.9,6.9,0,0,1-1.188,2.286A9.385,9.385,0,0,1,71.06,9.174ZM63.878,15.06h1.476V12.972a11.707,11.707,0,0,1,2.178,1.476l.7-.954a10.5,10.5,0,0,0-2.142-1.368h2.16V10.362a7.639,7.639,0,0,1,1.062,1.116,11.212,11.212,0,0,0,.936-1.08,11.367,11.367,0,0,0,1.332,2.052,9.317,9.317,0,0,1-3.294,1.674,6.525,6.525,0,0,1,.954,1.206,10.332,10.332,0,0,0,3.33-1.872,9.118,9.118,0,0,0,3.186,1.908,6.8,6.8,0,0,1,.936-1.3,9.253,9.253,0,0,1-3.114-1.6,9.079,9.079,0,0,0,1.71-3.294h1.17V7.824H71.69a12.384,12.384,0,0,0,.54-1.566L70.736,5.9a9.037,9.037,0,0,1-2.484,4.374V8.9h-2.9V8.13H68.63V6.906H65.354V5.9H63.878V6.906H60.494V8.13h3.384V8.9H60.962v3.222h2.376a9.242,9.242,0,0,1-3.186,2.088,5.925,5.925,0,0,1,.954,1.062,9.792,9.792,0,0,0,2.772-2.052Zm5.31,4.266h4.9V18.048h-4.9V16.9H75.38V15.51H61.448V16.9h6.084V20.55H64.706V17.706H63.122V20.55H60.3v1.4H76.514v-1.4H69.188Zm20.9-2.394v2.844H82.958V16.932Zm-9.324,5.616h2.2v-.792h7.128v.72h2.286V15.042H80.762Zm2.826-11.016a22.4,22.4,0,0,0,2.97-2.574,22.7,22.7,0,0,0,3.132,2.574Zm2.97-5.868c-1.89,2.808-5.292,4.986-8.6,6.3a8.722,8.722,0,0,1,1.566,1.962,24.326,24.326,0,0,0,2.412-1.314v.882h9v-1.17c.846.486,1.728.918,2.592,1.332A6.475,6.475,0,0,1,95,11.694a20.181,20.181,0,0,1-7.128-4.248c.2-.252.4-.522.594-.792ZM97.034,21h8.37V18.768H99.7V15.2h4.68V12.972H99.7V9.894h5.508V7.662H97.034Zm15.048.252c3.078,0,4.9-1.854,4.9-4.032A3.68,3.68,0,0,0,114.3,13.6l-1.746-.738c-1.134-.45-2.07-.792-2.07-1.746,0-.882.738-1.4,1.908-1.4a4.249,4.249,0,0,1,2.826,1.1l1.35-1.674a5.911,5.911,0,0,0-4.176-1.71c-2.7,0-4.608,1.674-4.608,3.852a3.859,3.859,0,0,0,2.7,3.582l1.782.756c1.188.5,2,.81,2,1.8,0,.936-.738,1.53-2.124,1.53a5.241,5.241,0,0,1-3.384-1.476l-1.53,1.836A7.1,7.1,0,0,0,112.082,21.252Zm12.978,0a6.272,6.272,0,0,0,4.32-1.6V13.638h-4.734v2.178H127v2.628a2.667,2.667,0,0,1-1.656.5c-2.628,0-3.96-1.746-3.96-4.644,0-2.862,1.548-4.59,3.762-4.59a3.57,3.57,0,0,1,2.628,1.116l1.4-1.692a5.6,5.6,0,0,0-4.122-1.71c-3.546,0-6.39,2.574-6.39,6.966C118.67,18.84,121.442,21.252,125.06,21.252Zm19.368-8.028V11.3h-3.78c.054-.756.09-1.53.108-2.358h-2.088c-.018.846-.036,1.62-.09,2.358h-3.816v1.926h3.6a5.734,5.734,0,0,1-3.744,4.734,6.251,6.251,0,0,1,1.278,1.71,6.955,6.955,0,0,0,3.852-3.816,28.944,28.944,0,0,1,3.348,3.564L144.59,18.1a26.079,26.079,0,0,0-4.266-4.1c.054-.252.09-.5.126-.774ZM133.916,20.01V8.274h11.34V20.01Zm-1.98-13.662V22.566h1.98v-.81h11.34v.81h2.088V6.348Zm33.858,7.182H158.81V12.162a26.82,26.82,0,0,0,5.76-4.248l-1.62-1.242-.5.108H151.232V8.9h8.82a22.457,22.457,0,0,1-3.474,2.124v2.5H149.45v2.142h7.128v4.284c0,.306-.126.4-.522.414-.378.018-1.782.018-3.042-.054a8.622,8.622,0,0,1,.918,2.214,10.793,10.793,0,0,0,3.762-.378c.846-.342,1.116-.936,1.116-2.142V15.672h6.984Zm18.09,2.934h-1.566c.144-2.7.234-6.714.234-9.918H178.52V8.382h2.07c-.018.522-.018,1.026-.018,1.548H178.7v1.764h1.818c-.018.522-.036,1.044-.054,1.548h-1.89v1.764h1.818c-.036.522-.054.99-.09,1.458H177.98V10.578h-2.718V9.21h2.826V7.464h-2.826V5.916h-1.818v6.318h2.718v4.23h-1.044v-3.42h-1.692v3.42h-2.52l-.054-1.512H172.8V13.206h-2l-.054-1.548h2V9.912H170.69l-.054-1.6c.81-.216,1.656-.45,2.412-.72l-.918-1.746a27.976,27.976,0,0,1-3.438,1.332L169,16.464h-1.62v1.98h4.914a23.275,23.275,0,0,1-4.86,2.5,15.54,15.54,0,0,1,1.206,1.6,35.044,35.044,0,0,0,5.544-2.862l-1.512-1.242h5.346l-.954,1.242a42.491,42.491,0,0,1,4.914,2.808l1.422-1.638a49.284,49.284,0,0,0-4.59-2.412h5.076Zm13.914.99c-2,2.016-6.048,3.006-10.35,3.42a6.451,6.451,0,0,1,.954,1.71c4.608-.612,8.748-1.8,11.124-4.3Zm-1.962-1.782c-1.6,1.278-4.734,2.2-7.488,2.646a7.239,7.239,0,0,1,1.062,1.512,19.352,19.352,0,0,0,8.028-3.366Zm5.94-2.592a10.528,10.528,0,0,0-1.764-2.79l-1.476.576q.27.351.54.756l-1.512.072a10.4,10.4,0,0,0,.864-1.332l-1.89-.738a7.153,7.153,0,0,1-.864,1.764,1.2,1.2,0,0,1-.612.468,4.577,4.577,0,0,1-.5-.522c.108-.18.216-.36.324-.558l-1.962-.558a6.73,6.73,0,0,1-1.206,1.656c-.216-.45-.468-.918-.684-1.332l-1.53.432a5.649,5.649,0,0,1,.4.738l-1.278.054a10.318,10.318,0,0,0,1.026-1.4L187.97,9.7c.756-.2,2.088-.2,9.594-.486.27.27.486.522.666.72l1.71-.828a26.616,26.616,0,0,0-3.69-3.132l-1.62.756a15.62,15.62,0,0,1,1.332,1.026l-4.716.108a20.847,20.847,0,0,0,2.16-1.314l-1.872-.918a15.031,15.031,0,0,1-3.1,1.944A3.846,3.846,0,0,1,187.25,8c.18.468.45,1.224.558,1.62l-.054-.018a7.415,7.415,0,0,1-1.08,1.854,1.3,1.3,0,0,1-.666.468,14.968,14.968,0,0,1,.684,1.674,15.117,15.117,0,0,1,3.492-.414,15.923,15.923,0,0,1-5.04,2.25,9.2,9.2,0,0,1,1.152,1.71,18.862,18.862,0,0,0,2.484-1.008,7.16,7.16,0,0,1,1.008,1.17,19.358,19.358,0,0,0,5.652-2.52l-1.494-.774a17.518,17.518,0,0,1-4.554,1.854,13.92,13.92,0,0,0,4.05-3.1A17.906,17.906,0,0,0,200.966,17a7.789,7.789,0,0,1,1.35-1.638,19.081,19.081,0,0,1-5.292-2.07c.612-.072,1.494-.144,2.88-.234.108.252.216.486.288.7Zm18.108,3.384h-1.566c.144-2.7.234-6.714.234-9.918H214.52V8.382h2.07c-.018.522-.018,1.026-.018,1.548H214.7v1.764h1.818c-.018.522-.036,1.044-.054,1.548h-1.89v1.764h1.818c-.036.522-.054.99-.09,1.458H213.98V10.578h-2.718V9.21h2.826V7.464h-2.826V5.916h-1.818v6.318h2.718v4.23h-1.044v-3.42h-1.692v3.42h-2.52l-.054-1.512H208.8V13.206h-2l-.054-1.548h2V9.912H206.69l-.054-1.6c.81-.216,1.656-.45,2.412-.72l-.918-1.746a27.976,27.976,0,0,1-3.438,1.332L205,16.464h-1.62v1.98h4.914a23.275,23.275,0,0,1-4.86,2.5,15.54,15.54,0,0,1,1.206,1.6,35.044,35.044,0,0,0,5.544-2.862l-1.512-1.242h5.346l-.954,1.242a42.491,42.491,0,0,1,4.914,2.808l1.422-1.638a49.284,49.284,0,0,0-4.59-2.412h5.076ZM22.226,43.586H17.888v-.738h3.42V41.516h-3.42v-.684h3.978V39.41H19.922c.27-.36.576-.774.846-1.188L18.9,37.754a8.247,8.247,0,0,1-.81,1.656H15.872a8.475,8.475,0,0,0-1.026-1.656l-1.512.54a7.7,7.7,0,0,1,.684,1.116H12.056v1.422h3.78v.684h-3.2v1.332h3.2v.738H11.5v1.53H22.244ZM11.5,40.76H8.474l1.314-.54a12.412,12.412,0,0,0-1.026-2.394l-1.53.558a12.2,12.2,0,0,1,.9,2.376H5.63v1.674H11.5ZM9.482,49.814v2.124H7.7V49.814Zm1.53-1.638H6.188v6.156H7.7v-.756h3.312ZM6.26,47.294h4.788v-1.6H6.26Zm0-2.43h4.788v-1.62H6.26Zm9.306,3.006V46.844A14.949,14.949,0,0,0,17.1,46.5c.018.486.036.918.072,1.368Zm4.572,1.764a6.081,6.081,0,0,1-.846,1.116,11.235,11.235,0,0,1-.234-1.332h3.15V47.87H20.93l1.17-.828a7.944,7.944,0,0,0-1.836-1.656l-1.224.846a8.3,8.3,0,0,1,1.71,1.638H18.9c-.036-.72-.054-1.53-.054-2.376H17.06c0,.324.018.666.036,1.008L16,45.242A24.1,24.1,0,0,1,11.624,46a5.3,5.3,0,0,1,.414,1.242c.54-.036,1.1-.072,1.674-.144v.774h-2.25v1.548h2.25v.864c-.882.09-1.674.162-2.358.216l.2,1.638c.666-.072,1.386-.162,2.16-.252V52.8c0,.2-.072.252-.288.27-.2,0-.882,0-1.494-.018a6.032,6.032,0,0,1,.522,1.512,6.673,6.673,0,0,0,2.394-.252c.558-.252.72-.63.72-1.458V51.65l1.476-.18-.036-1.512-1.44.144v-.684h1.746a15.2,15.2,0,0,0,.54,2.592,11.923,11.923,0,0,1-2.25,1.224A5.773,5.773,0,0,1,16.61,54.35a12.161,12.161,0,0,0,1.836-.99,2.476,2.476,0,0,0,2.142,1.278c1.1,0,1.674-.63,1.926-2.358a4.354,4.354,0,0,1-1.224-.738c-.054.972-.234,1.44-.5,1.44a1.163,1.163,0,0,1-.936-.684,8.464,8.464,0,0,0,1.728-1.962Zm15.552-.7v2.844H28.562V48.932Zm-9.324,5.616h2.2v-.792H35.69v.72h2.286V47.042H26.366Zm2.826-11.016a22.4,22.4,0,0,0,2.97-2.574,22.7,22.7,0,0,0,3.132,2.574Zm2.97-5.868c-1.89,2.808-5.292,4.986-8.6,6.3a8.722,8.722,0,0,1,1.566,1.962,24.326,24.326,0,0,0,2.412-1.314v.882h9v-1.17c.846.486,1.728.918,2.592,1.332A6.475,6.475,0,0,1,40.6,43.694a20.181,20.181,0,0,1-7.128-4.248c.2-.252.4-.522.594-.792Zm22.446,3.492H45.3V39.7h9.306Zm0,2.43H45.3V42.128h9.306Zm1.332-4.914H43.988v5.94H55.94ZM50.81,50.21h5.94V49.022H50.81v-2h7.11V45.818h-15.8v1.206H49.5v5.418a4.763,4.763,0,0,1-3.4-2.862,17.517,17.517,0,0,0,.468-1.8l-1.35-.18a8.4,8.4,0,0,1-3.492,5.85,7.175,7.175,0,0,1,.99.954,9.271,9.271,0,0,0,2.808-3.384c1.458,2.43,3.744,3.006,7.362,3.006h4.9a4.686,4.686,0,0,1,.468-1.278c-.918.018-4.644.018-5.31.018a19.47,19.47,0,0,1-2.124-.108Zm11.25,0V47.276h1.854v2.646Zm1.854-10.278v2.52H62.06v-2.52ZM62.06,43.586h1.854V46.16H62.06ZM65.8,49.6l-.738.126V39.932h.774V38.708h-5.9v1.224h1.008v10.44c-.45.072-.828.126-1.206.18l.27,1.26c1.134-.2,2.484-.432,3.906-.666v3.24h1.152V50.93l.828-.144Zm3.438-.072V49.6H67.694V46.79H66.578v3.96h2.538a4.074,4.074,0,0,1-2.592,2.844,4.131,4.131,0,0,1,.738.936,5.112,5.112,0,0,0,3.132-4.986V46.79H69.242Zm-.144-5.85c.126.36.27.774.4,1.17l-2.358.252a29.475,29.475,0,0,0,3.2-4.428l-.954-.5a15.679,15.679,0,0,1-.918,1.584l-1.386.054a18.234,18.234,0,0,0,2-3.258l-1.008-.468a12.657,12.657,0,0,1-1.656,3.006c-.27.36-.468.594-.72.63a10.036,10.036,0,0,1,.342,1.242,5.864,5.864,0,0,1,1.818-.27c-.558.756-1.026,1.35-1.26,1.6-.4.486-.72.81-1.044.864a7.782,7.782,0,0,1,.324,1.224c.252-.162.738-.252,3.87-.63.09.36.18.684.234.936l.9-.288a26.8,26.8,0,0,0-.936-2.934Zm5.148,5.886H72.752v-2.79H71.564v7.65h1.188v-3.69h1.494v.738h1.116V47.006H74.246Zm.126-6.084c.162.4.342.81.486,1.26l-2.286.252a26.979,26.979,0,0,0,2.754-4.32l-.954-.5c-.216.486-.486.99-.738,1.458l-1.422.072a16.384,16.384,0,0,0,1.854-3.1l-.936-.45a14.452,14.452,0,0,1-1.6,2.952,1.408,1.408,0,0,1-.72.594,6.627,6.627,0,0,1,.324,1.152,6.944,6.944,0,0,1,1.962-.288,15.78,15.78,0,0,1-1.17,1.674c-.36.5-.684.81-.972.864a8.91,8.91,0,0,1,.306,1.188c.288-.162.756-.252,3.924-.684.126.36.234.7.324.972l.828-.414c-.234-.738-.738-2.016-1.17-2.988Zm17.694-.54V44H89.132V42.938Zm-2.934,3.006V44.9h2.934v1.044Zm-3.906,0V44.9h2.7v1.044Zm2.7-3.006V44h-2.7V42.938Zm0-.972h-3.87V48.05h1.17V46.844h2.7V48h1.206V46.844h2.934V48.05h1.206V41.966h-4.14V40.958H94.19V39.914H92.858l.45-.576a13.652,13.652,0,0,0-2.52-1.332l-.63.738a21.292,21.292,0,0,1,2.106,1.17H89.132v-1.98H87.926v1.98H83.084v1.044h4.842ZM83.39,43.91V42.686H81.284V37.952H80.006v4.734H77.774V43.91h2.232V54.35h1.278V43.91Zm1.1,6.966a11.854,11.854,0,0,1,2.3,2.394l.972-.756a11.992,11.992,0,0,0-2.358-2.3ZM94.28,48.95H91.526v-1.4H90.248v1.4H82.562v1.134h7.686v2.88c0,.216-.054.27-.306.288s-1.1.018-2.034-.018a3.769,3.769,0,0,1,.4,1.116,9.081,9.081,0,0,0,2.556-.18c.54-.18.666-.522.666-1.188v-2.9H94.28Zm17.676-5.976h-7.29v-1.08h5.652v-.9h-5.652V40.04h6.39v-.972h-6.39V37.934h-1.35v1.134h-6.21v.972h6.21v.954H97.934v.9h5.382v1.08H96.1v.99h15.858ZM99.59,49.76h9.018v1.152H99.59Zm0-2h9.018V48.9H99.59Zm0-1.98h9.018v1.134H99.59Zm10.35,6.012V44.9H98.294v6.894Zm-8.6.09a23.561,23.561,0,0,1-5.31,1.548,8.36,8.36,0,0,1,.972.99,24.945,24.945,0,0,0,5.544-2Zm4.1.7a45.758,45.758,0,0,1,5.022,1.782l1.53-.666a53.247,53.247,0,0,0-5.418-1.782Zm12.888-14.634a19.971,19.971,0,0,1-4.878,7.29,5.975,5.975,0,0,1,.828,1.332,18.842,18.842,0,0,0,2.124-2.43V54.386h1.314V42.164a27.957,27.957,0,0,0,1.908-3.816Zm11.88,8.928v-1.3h-5.076V40.6a40.255,40.255,0,0,0,4.356-1.1l-.99-1.116a52.7,52.7,0,0,1-9.414,1.944,5.372,5.372,0,0,1,.414,1.134c1.368-.162,2.862-.378,4.3-.63v4.752h-5.31v1.3h5.31v5.526h-4.626v1.3h10.764v-1.3h-4.806V46.88Zm10.566-7.038h3.132v2.88c0,1.332.27,1.854,1.53,1.854h1.512a3.8,3.8,0,0,0,.972-.09,11.387,11.387,0,0,1-.108-1.152,4.765,4.765,0,0,1-.9.09h-1.386c-.288,0-.342-.18-.342-.684V38.582h-5.67v1.98a4.01,4.01,0,0,1-2.322,3.852,5.7,5.7,0,0,1,.882.99,5.192,5.192,0,0,0,2.7-4.806ZM137.5,47.06l-.18-1.224-1.674.486v-3.51h2.232v-1.26h-2.232v-3.6H134.33v3.6h-2.448v1.26h2.448v3.87c-1.008.288-1.926.54-2.664.72l.4,1.3,2.268-.666v4.644c0,.252-.09.342-.342.342-.216,0-.99.018-1.854-.018a5.917,5.917,0,0,1,.414,1.242,6.457,6.457,0,0,0,2.43-.252c.468-.2.666-.558.666-1.314V47.618Zm7.632.036a9.821,9.821,0,0,1-2.808,3.438,10.471,10.471,0,0,1-2.736-3.438Zm.936-1.314-.252.054h-8.046V47.1h.7l-.18.072a12.638,12.638,0,0,0,2.934,4.122,15.653,15.653,0,0,1-4.86,1.908,4.239,4.239,0,0,1,.666,1.224,16.84,16.84,0,0,0,5.274-2.268,14.178,14.178,0,0,0,5.04,2.25,4.8,4.8,0,0,1,.846-1.224,14.662,14.662,0,0,1-4.77-1.854,11.262,11.262,0,0,0,3.51-5.148Zm17.874-5.508a7.88,7.88,0,0,1-1.08,1.368l1.062.4a12.845,12.845,0,0,0,1.8-2.556l-.9-.27-.216.054H158.45c.216-.378.432-.756.612-1.134l-1.206-.2a7.855,7.855,0,0,1-2.718,3.24,3.33,3.33,0,0,1,1.008.648,9.249,9.249,0,0,0,1.584-1.548Zm-10.35,9.09h9.018v1.26H153.59Zm0-2.088h9.018V48.5H153.59Zm0-2.088h9.018v1.224H153.59Zm-1.3,6.318H163.94V44.288H152.294Zm7.524-11.142c-.468,1.566-2.34,2.574-4.59,2.988a4.233,4.233,0,0,1,.576.936,7.791,7.791,0,0,0,4.482-2.394,9.461,9.461,0,0,0,4.68,2.592,3.929,3.929,0,0,1,.756-.972,8.417,8.417,0,0,1-4.9-2.466,3.034,3.034,0,0,0,.216-.5Zm-4.68-.63a23.055,23.055,0,0,0-3.762-1.386l-.594.918a24.053,24.053,0,0,1,3.762,1.494Zm-.2,1.8c-1.872.576-3.762,1.152-5.04,1.512l.5,1.152c1.368-.432,3.06-1.044,4.68-1.6Zm.36,10.1a22.387,22.387,0,0,1-5.274,1.728A8.522,8.522,0,0,1,151,54.368a25.493,25.493,0,0,0,5.508-2.2Zm4.392.7a36.247,36.247,0,0,1,5.022,2l1.188-.774a47.151,47.151,0,0,0-5.292-1.944Zm13.446-1.872a20.751,20.751,0,0,1-5,2.88,12.034,12.034,0,0,1,.792,1.008,28.627,28.627,0,0,0,5.364-3.078Zm4.59.864a41.254,41.254,0,0,1,5.094,2.97l.882-1.008a43.618,43.618,0,0,0-5.238-2.88Zm4.662-2.394c.162-2.664.252-6.912.27-10.08h-3.816v1.17h2.592c0,.72-.018,1.476-.036,2.25h-2.394v1.152h2.376c-.036.756-.054,1.494-.09,2.214h-2.376v1.134h2.34c-.036.774-.09,1.53-.126,2.16h-3.024V42.974h-.54v-.018h-2.34V41.03h2.97V39.878h-2.97V38.06h-1.17v5.994h2.88v4.878H175.19v-3.96h-1.116v3.96h-3.15l-.072-2.214h2.322V45.566H170.8l-.072-2.2H173.1V42.218H170.69l-.072-2.106c.918-.288,1.908-.63,2.736-.972l-.648-1.1a29.534,29.534,0,0,1-3.33,1.386l.342,9.5H167.9v1.242h16.218V48.932Zm8.37,1.98h-2.43V45.6h2.43Zm-4.788-10.764h2.25a16.932,16.932,0,0,1-2.574,6.948,8.461,8.461,0,0,1,.612,1.422,10.436,10.436,0,0,0,.936-1.44v6.48h1.134v-1.44h3.618v-7.7h-3.582a33.579,33.579,0,0,0,1.116-4.266h2.79V38.924h-6.3ZM196,45.35V40.184h2.916V45.35Zm6.21,0h-2.016V40.184h1.674v-1.26h-8.622v1.26h1.476V45.35h-1.98v1.278H194.7c-.054,2.412-.45,5.13-2.286,7.056a4.83,4.83,0,0,1,1.008.774c2.034-2.106,2.5-5.094,2.556-7.83h2.934v7.74h1.278v-7.74h2.016Zm3.564-4.284h12.42v1.728h1.368V39.878h-6.534a17.434,17.434,0,0,0-1.062-2.07l-1.386.36a15.086,15.086,0,0,1,.846,1.71h-6.966v3.006h1.314Zm7.434,1.368a30.22,30.22,0,0,1,5.148,2.97l.918-.828a32.68,32.68,0,0,0-5.184-2.862Zm-7.452,2.97a22.128,22.128,0,0,0,5.256-3.06l-1.062-.63a19.7,19.7,0,0,1-5.058,2.718Zm11.07,7.4c-.5,0-.576-.09-.576-.594V46.556h-4.914V44.9H210v1.656H205.16V47.8h4.824c-.18,1.854-1.206,4.014-5.922,5.472a4.806,4.806,0,0,1,.918,1.1c5.166-1.638,6.192-4.266,6.336-6.57H214.9v4.428c0,1.458.378,1.854,1.728,1.854h1.908c1.242,0,1.6-.684,1.728-3.384a4.348,4.348,0,0,1-1.242-.576c-.054,2.322-.126,2.682-.63,2.682ZM66.974,77.638a27.863,27.863,0,0,0-3.15-3.87l-1.008.594c.432.486.936,1.044,1.386,1.6l-5.634.342c.684-.81,1.53-1.926,2.214-2.826h6.174V72.274H62.2a12.414,12.414,0,0,0-.954-2.322l-1.206.288c.288.63.594,1.4.81,2.034H55.742V73.48H59.27c-.738.972-1.764,2.232-2.106,2.556a2.8,2.8,0,0,1-1.206.522,8.583,8.583,0,0,1,.36,1.26c.522-.216,1.35-.27,8.73-.756a14.668,14.668,0,0,1,.864,1.3ZM55.418,72.364a15.98,15.98,0,0,0-3.06-2.2l-.774.936a16.17,16.17,0,0,1,3.042,2.322Zm-.63,4.536a16.022,16.022,0,0,0-3.294-1.854l-.7.99a15.588,15.588,0,0,1,3.258,1.98Zm-.144,2.574a56.885,56.885,0,0,1-3.4,5.76l1.116.9c1.044-1.656,2.3-3.888,3.258-5.778Zm2.556.846a5.617,5.617,0,0,1-2.412,5.13,4.357,4.357,0,0,1,.936.882c2.412-1.728,2.7-4.014,2.7-5.994V78.484H57.2Zm3.168,5.274h1.206V78.5H60.368ZM65.192,85a.544.544,0,0,1-.288-.09c-.09-.072-.09-.27-.09-.612V78.484H63.572v5.67c0,1.1.09,1.386.342,1.6a1.58,1.58,0,0,0,.99.306h.882a1.778,1.778,0,0,0,.846-.18,1.09,1.09,0,0,0,.486-.7,12.658,12.658,0,0,0,.162-2.052,3.111,3.111,0,0,1-.936-.5c-.018.864-.036,1.512-.054,1.818-.054.252-.108.414-.2.468a.591.591,0,0,1-.378.09Zm17.766-9.846h-5.4V71.86h5.4Zm1.314-4.464H76.334v5.616h7.938ZM75.614,79.8c-.36-.414-1.89-2-2.448-2.466v-1.1h2.25v-1.26h-2.25V71.932a14.923,14.923,0,0,0,2.286-.72L74.516,70.2a26.359,26.359,0,0,1-5.688,1.44,5.039,5.039,0,0,1,.414,1.044c.828-.126,1.746-.27,2.628-.45v2.736H68.936v1.26H71.69a18.588,18.588,0,0,1-3.1,5.634,6.192,6.192,0,0,1,.666,1.224,19.121,19.121,0,0,0,2.61-4.716v7.956h1.3v-7.7A20.615,20.615,0,0,1,74.8,80.86Zm5.292,4.9V82.372h3.582V81.2H80.906V79.06h3.978V77.872H75.668V79.06h3.906V81.2H76.082v1.17h3.492v2.322H74.858V85.9H85.28V84.694Zm11.718-6.912h-3.78V74.02h3.78Zm-3.78,5.508V78.97h3.78v4.32ZM90.356,69.9a22.218,22.218,0,0,1-.72,2.916H87.62v13.1h1.224V84.5h5V72.814H90.86c.306-.774.63-1.764.936-2.646ZM102.65,72.76H97.268a25.283,25.283,0,0,0,.774-2.592l-1.278-.306A18.264,18.264,0,0,1,94.01,76.4a9.838,9.838,0,0,1,1.1.756A15.157,15.157,0,0,0,96.8,74h4.572c-.234,7.164-.5,9.9-1.1,10.53-.18.234-.378.27-.738.27-.414,0-1.494,0-2.664-.108a3.1,3.1,0,0,1,.45,1.314,18.972,18.972,0,0,0,2.664.018,1.79,1.79,0,0,0,1.422-.72c.72-.882.954-3.654,1.242-11.862Zm-2.844,8.1a35.217,35.217,0,0,0-2.826-4.068l-1.044.612a32.024,32.024,0,0,1,2.736,4.158Zm18.288-5.724a10,10,0,0,1-1.062,1.674l-3.06.18c.648-.99,1.512-2.358,2.124-3.366h5.076V72.382H117.14l.18-.072a9.606,9.606,0,0,0-1.044-2.448l-1.242.378a12.656,12.656,0,0,1,.9,2.142h-4.7v1.242h3.42a29.071,29.071,0,0,1-1.962,3.024,2.224,2.224,0,0,1-1.152.522,7.731,7.731,0,0,1,.36,1.26A20.929,20.929,0,0,1,115.988,78a17.023,17.023,0,0,1-4.806,3.384,4.918,4.918,0,0,1,.756,1.008,17.168,17.168,0,0,0,7.416-6.8Zm-7.2,3.4c-.306-.5-1.62-2.52-2.106-3.186v-.7h2.034V73.39h-2.034V69.934H107.51V73.39h-2.394v1.26h2.322a20.116,20.116,0,0,1-2.79,6.786,5.018,5.018,0,0,1,.7,1.3,18.262,18.262,0,0,0,2.16-4.95v8.586h1.278V76.99c.486.882,1.044,1.926,1.3,2.484Zm8.514-.2c-1.548,3.024-4.95,5.6-9.126,6.948a6.512,6.512,0,0,1,.792,1.1,19.625,19.625,0,0,0,5.94-3.222,35.3,35.3,0,0,1,3.258,3.024l1.008-.9a34.78,34.78,0,0,0-3.33-2.934,15.041,15.041,0,0,0,2.826-3.528Zm8.784-6.894a33.766,33.766,0,0,1,4.77,4.086l.954-.99a32.887,32.887,0,0,0-4.842-3.978Zm7.47,4.842A32.407,32.407,0,0,1,138,83.074l1.314-.522A32.312,32.312,0,0,0,136.9,75.8Zm-11.178-.018a28.25,28.25,0,0,1-1.62,6.75l1.332.558a36.22,36.22,0,0,0,1.584-7.056Zm2.862-1.35v8.856c0,1.782.54,2.268,2.484,2.268h3.618c2,0,2.412-.99,2.61-4.392a4.248,4.248,0,0,1-1.26-.594c-.144,3.1-.306,3.726-1.422,3.726h-3.438c-1.026,0-1.242-.162-1.242-.99V74.92Zm27.882-1.53H153.41V71.554h1.818Zm-2.772,0H150.71V71.554h1.746Zm-2.7,0h-1.71V71.554h1.71Zm6.624-2.808h-9.45v3.78h9.45Zm.612,4.68H146.174v1.1h10.818Zm-11.484,6.5-1.674.522V77.566H145.4V76.378h-1.566v-4H145.6V71.176h-4.806v1.206h1.854v4h-1.674v1.188h1.674v5.058c-.774.234-1.476.432-2.07.576l.27,1.224c1.386-.414,3.132-.972,4.806-1.494Zm3.1-3.4h5.976V80.05H148.6Zm7.272,2.934a21.2,21.2,0,0,1-2.25,1.494,7.552,7.552,0,0,1-1.062-1.746h3.294V77.35H147.38v3.69h2.682a14.705,14.705,0,0,1-4.626,2.142,3.75,3.75,0,0,1,.774.918,15.767,15.767,0,0,0,1.944-.792v.9a1.132,1.132,0,0,1-.594,1.116,3.847,3.847,0,0,1,.468.99c.306-.18.81-.342,4.248-1.224a4.544,4.544,0,0,1,0-.99l-3.006.684v-2.07a13.664,13.664,0,0,0,2.2-1.566,8.088,8.088,0,0,0,5.094,5.058,3.712,3.712,0,0,1,.81-1.026,7.267,7.267,0,0,1-3.078-1.71,24.387,24.387,0,0,0,2.5-1.386Zm6.516-8.8a10.439,10.439,0,0,1,1.116,2.34l1.116-.486a10.724,10.724,0,0,0-.9-1.854h3.114V71.428h-4.752c.2-.414.36-.81.522-1.242l-1.242-.306a11.642,11.642,0,0,1-2.628,4.176,8.044,8.044,0,0,1,1.08.72,13.261,13.261,0,0,0,1.71-2.286Zm3.114,3.672v1.494h-4.194V76.162Zm-4.194,4V78.646h4.194v1.512Zm2.358,1.818c.324.45.7.954,1.044,1.458l-3.4.774V81.22h5.454V75.1h-6.7v8.334a1.771,1.771,0,0,1-.756,1.476,4.937,4.937,0,0,1,.7,1.026c.342-.234.936-.4,5.364-1.494a15,15,0,0,1,.882,1.476l1.116-.612a31.838,31.838,0,0,0-2.664-3.816ZM174.38,75.1h-6.138V86.368h1.26V76.324h3.6v6.354c0,.252-.09.342-.378.342-.27.018-1.242.018-2.322-.018a4.189,4.189,0,0,1,.432,1.26,9.279,9.279,0,0,0,2.862-.234c.54-.216.684-.594.684-1.332Zm-4.662-3.672a10.922,10.922,0,0,0,.558-1.242L169,69.88a9.364,9.364,0,0,1-2.934,4.1,5.453,5.453,0,0,1,1.1.774,11.2,11.2,0,0,0,1.944-2.286h1.1a16.239,16.239,0,0,1,1.476,2.358l1.134-.45a13.981,13.981,0,0,0-1.206-1.908h3.438V71.428Z" transform="translate(381 180.449)" fill="#262626"/>
    <path id="Path_22904" data-name="Path 22904" d="M19.148,15.888V14.142h7.47v1.476l-.306.27Zm7.47-7v1.566h-7.47V8.886Zm-7.47,2.592h7.47v1.638h-7.47Zm10.548.738a18.642,18.642,0,0,1-1.782,2.2V7.7H22.928c.288-.486.576-1.044.846-1.566L22.262,5.9a14.122,14.122,0,0,1-.738,1.8h-3.69v8.19H15.476v1.17h9.306a31.384,31.384,0,0,1-9.954,4.356,5.343,5.343,0,0,1,.81,1.116,33.19,33.19,0,0,0,10.98-5.346v3.294c0,.342-.126.468-.5.5-.4,0-1.746.018-3.168-.036a5.736,5.736,0,0,1,.468,1.35,14.248,14.248,0,0,0,3.636-.252c.648-.234.864-.648.864-1.566V16.1a19.846,19.846,0,0,0,2.934-3.33Zm9.036-3.834A12.167,12.167,0,0,0,36.9,5.988l-1.152.486a11.8,11.8,0,0,1,1.764,2.484ZM34.9,22.26A9.715,9.715,0,0,0,37,17.994l-1.116-.36a8.4,8.4,0,0,1-2.034,3.906Zm3.258-4.23a12.669,12.669,0,0,1,.486,3.6l1.17-.162a14.076,14.076,0,0,0-.54-3.582Zm2.646-.162a13.678,13.678,0,0,1,.99,3.15l1.116-.306a13.635,13.635,0,0,0-1.062-3.078Zm3.888-7.65c-.144.72-.306,1.44-.468,2.016h-4.41a21.851,21.851,0,0,0,1.1-2.016Zm-7.272,5.238A19.958,19.958,0,0,0,39.056,13.4H46.04c-.144.72-.306,1.458-.45,2.052Zm9.414,0c.216-.936.468-2.178.684-3.222H45.464c.234-.936.486-2.178.684-3.24h-4.68a29.049,29.049,0,0,0,1.026-2.718l-1.332-.342a28.417,28.417,0,0,1-1.116,3.06H33.53v1.224h5.922a17.832,17.832,0,0,1-6.84,7.452,7.481,7.481,0,0,1,.738,1.116,16.627,16.627,0,0,0,2.9-2.16H47.354c-.288,2.862-.594,4.05-.954,4.428a.97.97,0,0,1-.684.18,17.964,17.964,0,0,1-2.106-.108,3.152,3.152,0,0,1,.4,1.224,19.106,19.106,0,0,0,2.25.018,1.682,1.682,0,0,0,1.224-.486c.558-.594.9-2.088,1.224-5.85a5.535,5.535,0,0,0,.054-.576ZM45.77,19.614A10.241,10.241,0,0,0,44.4,17.238l-.936.36a10.507,10.507,0,0,1,1.314,2.43ZM60.242,8.346a9.917,9.917,0,0,1-1.314,1.692H54.266A15.375,15.375,0,0,0,55.85,8.346ZM63.7,12.774H54.554V11.136H63.7Zm0,2.7H54.554V13.8H63.7Zm0,2.718H54.554V16.5H63.7ZM53.24,19.272H65.066V10.038H60.494a12.834,12.834,0,0,0,1.6-2.232l-.9-.594-.2.054h-4.32c.234-.342.45-.684.666-1.026l-1.458-.288a14.5,14.5,0,0,1-4.932,4.986,4.458,4.458,0,0,1,.99.936c.45-.306.882-.612,1.3-.936Zm3.006.252A19.813,19.813,0,0,1,51.1,21.36a9.327,9.327,0,0,1,1.008,1.08,25.773,25.773,0,0,0,5.418-2.34Zm4.356.756A39.26,39.26,0,0,1,65.516,22.4l1.4-.738a49.023,49.023,0,0,0-5.274-2.124Zm24.354-9.306h-7.29V9.894h5.652v-.9H77.666V8.04h6.39V7.068h-6.39V5.934h-1.35V7.068h-6.21V8.04h6.21v.954H70.934v.9h5.382v1.08H69.1v.99H84.956ZM72.59,17.76h9.018v1.152H72.59Zm0-2h9.018V16.9H72.59Zm0-1.98h9.018v1.134H72.59Zm10.35,6.012V12.9H71.294v6.894Zm-8.6.09a23.561,23.561,0,0,1-5.31,1.548,8.36,8.36,0,0,1,.972.99,24.945,24.945,0,0,0,5.544-2Zm4.1.7a45.758,45.758,0,0,1,5.022,1.782l1.53-.666a53.246,53.246,0,0,0-5.418-1.782ZM91.328,5.952a19.971,19.971,0,0,1-4.878,7.29,5.975,5.975,0,0,1,.828,1.332,18.842,18.842,0,0,0,2.124-2.43V22.386h1.314V10.164a27.957,27.957,0,0,0,1.908-3.816Zm11.88,8.928v-1.3H98.132V8.6a40.256,40.256,0,0,0,4.356-1.1l-.99-1.116a52.7,52.7,0,0,1-9.414,1.944A5.372,5.372,0,0,1,92.5,9.462c1.368-.162,2.862-.378,4.3-.63v4.752H91.49v1.3H96.8v5.526H92.174v1.3h10.764v-1.3H98.132V14.88Zm7.416-1.1h-3.78V10.02h3.78Zm-3.78,5.508V14.97h3.78v4.32ZM108.356,5.9a22.217,22.217,0,0,1-.72,2.916H105.62v13.1h1.224V20.5h5V8.814H108.86c.306-.774.63-1.764.936-2.646ZM120.65,8.76h-5.382a25.284,25.284,0,0,0,.774-2.592l-1.278-.306A18.264,18.264,0,0,1,112.01,12.4a9.837,9.837,0,0,1,1.1.756A15.157,15.157,0,0,0,114.8,10h4.572c-.234,7.164-.5,9.9-1.1,10.53-.18.234-.378.27-.738.27-.414,0-1.494,0-2.664-.108a3.1,3.1,0,0,1,.45,1.314,18.97,18.97,0,0,0,2.664.018,1.79,1.79,0,0,0,1.422-.72c.72-.882.954-3.654,1.242-11.862Zm-2.844,8.1a35.217,35.217,0,0,0-2.826-4.068l-1.044.612a32.024,32.024,0,0,1,2.736,4.158Zm14.04-.7h5.2V14.952h-5.2V10.83H130.46v9.792h-3.384V13.98h-1.314v6.642h-2.268v1.224h15.228V20.622h-6.876Zm-.882-10.386a18.324,18.324,0,0,1-8.3,6.534,5.689,5.689,0,0,1,.918,1.116,21.164,21.164,0,0,0,7.452-5.562,21.793,21.793,0,0,0,7.524,5.58,4.12,4.12,0,0,1,.864-1.134,20.3,20.3,0,0,1-7.668-5.382c.144-.2.288-.378.414-.576Zm20.718,4.5a16.458,16.458,0,0,1-.918,1.872l.18.054h-4.23l.576-.126a7.626,7.626,0,0,0-.9-1.8Zm5.166,7.83V16.968H149.63V15.636h5.634V14.61H149.63V13.3h6.516V12.2H152.06c.36-.54.756-1.242,1.116-1.926h3.6V9.12h-2.79a25.17,25.17,0,0,0,1.584-2.592l-1.368-.36A20.42,20.42,0,0,1,152.834,8.9l.666.216h-2.178V5.934h-1.26V9.12H147.92V5.934h-1.242V9.12h-2.214l.918-.342a12.407,12.407,0,0,0-1.53-2.646l-1.134.378a14.031,14.031,0,0,1,1.422,2.61h-2.862v1.152h4.392l-.63.126a7.558,7.558,0,0,1,.882,1.8H142v1.1h6.318V14.61H142.9v1.026h5.418v1.332h-7.11V18.1h5.886a17.348,17.348,0,0,1-6.354,2.844,5.733,5.733,0,0,1,.864,1.134,18.089,18.089,0,0,0,6.714-3.546v3.834h1.314V18.444a16.993,16.993,0,0,0,6.768,3.69,4.813,4.813,0,0,1,.9-1.188,16.469,16.469,0,0,1-6.426-2.844Zm7.29.36a20.752,20.752,0,0,1-5,2.88,12.033,12.033,0,0,1,.792,1.008,28.627,28.627,0,0,0,5.364-3.078Zm4.59.864a41.254,41.254,0,0,1,5.094,2.97l.882-1.008a43.618,43.618,0,0,0-5.238-2.88Zm4.662-2.394c.162-2.664.252-6.912.27-10.08h-3.816v1.17h2.592c0,.72-.018,1.476-.036,2.25h-2.394v1.152h2.376c-.036.756-.054,1.494-.09,2.214h-2.376v1.134h2.34c-.036.774-.09,1.53-.126,2.16h-3.024V10.974h-.54v-.018h-2.34V9.03h2.97V7.878h-2.97V6.06h-1.17v5.994h2.88v4.878H166.19v-3.96h-1.116v3.96h-3.15l-.072-2.214h2.322V13.566H161.8l-.072-2.2H164.1V10.218H161.69l-.072-2.106c.918-.288,1.908-.63,2.736-.972l-.648-1.1a29.534,29.534,0,0,1-3.33,1.386l.342,9.5H158.9v1.242h16.218V16.932Zm12.384-9.09h3.132v2.88c0,1.332.27,1.854,1.53,1.854h1.512a3.8,3.8,0,0,0,.972-.09,11.387,11.387,0,0,1-.108-1.152,4.765,4.765,0,0,1-.9.09h-1.386c-.288,0-.342-.18-.342-.684V6.582h-5.67v1.98a4.01,4.01,0,0,1-2.322,3.852,5.7,5.7,0,0,1,.882.99,5.192,5.192,0,0,0,2.7-4.806ZM182.5,15.06l-.18-1.224-1.674.486v-3.51h2.232V9.552h-2.232v-3.6H179.33v3.6h-2.448v1.26h2.448v3.87c-1.008.288-1.926.54-2.664.72l.4,1.3,2.268-.666v4.644c0,.252-.09.342-.342.342-.216,0-.99.018-1.854-.018a5.917,5.917,0,0,1,.414,1.242,6.457,6.457,0,0,0,2.43-.252c.468-.2.666-.558.666-1.314V15.618Zm7.632.036a9.821,9.821,0,0,1-2.808,3.438,10.471,10.471,0,0,1-2.736-3.438Zm.936-1.314-.252.054h-8.046V15.1h.7l-.18.072a12.638,12.638,0,0,0,2.934,4.122,15.653,15.653,0,0,1-4.86,1.908,4.24,4.24,0,0,1,.666,1.224,16.84,16.84,0,0,0,5.274-2.268,14.178,14.178,0,0,0,5.04,2.25,4.8,4.8,0,0,1,.846-1.224,14.662,14.662,0,0,1-4.77-1.854,11.262,11.262,0,0,0,3.51-5.148ZM208.94,8.274a7.88,7.88,0,0,1-1.08,1.368l1.062.4a12.845,12.845,0,0,0,1.8-2.556l-.9-.27-.216.054H203.45c.216-.378.432-.756.612-1.134l-1.206-.2a7.855,7.855,0,0,1-2.718,3.24,3.33,3.33,0,0,1,1.008.648,9.249,9.249,0,0,0,1.584-1.548Zm-10.35,9.09h9.018v1.26H198.59Zm0-2.088h9.018V16.5H198.59Zm0-2.088h9.018v1.224H198.59Zm-1.3,6.318H208.94V12.288H197.294Zm7.524-11.142c-.468,1.566-2.34,2.574-4.59,2.988a4.233,4.233,0,0,1,.576.936,7.791,7.791,0,0,0,4.482-2.394,9.461,9.461,0,0,0,4.68,2.592,3.929,3.929,0,0,1,.756-.972,8.417,8.417,0,0,1-4.9-2.466,3.034,3.034,0,0,0,.216-.5Zm-4.68-.63a23.055,23.055,0,0,0-3.762-1.386l-.594.918a24.054,24.054,0,0,1,3.762,1.494Zm-.2,1.8c-1.872.576-3.762,1.152-5.04,1.512l.5,1.152c1.368-.432,3.06-1.044,4.68-1.6Zm.36,10.1a22.387,22.387,0,0,1-5.274,1.728A8.522,8.522,0,0,1,196,22.368a25.493,25.493,0,0,0,5.508-2.2Zm4.392.7a36.248,36.248,0,0,1,5.022,2l1.188-.774a47.15,47.15,0,0,0-5.292-1.944ZM13.514,43.694v-2.3h4a28.457,28.457,0,0,1-2.736,2.3Zm4.878,5.994H11.1V47.906h7.29ZM11.1,52.622V50.75h7.29v1.872ZM21.956,44.9V43.694H16.772a27.3,27.3,0,0,0,4.374-4.518l-1.134-.612A21.082,21.082,0,0,1,17.96,40.94V40.2H13.514v-2.25H12.2V40.2H7.61V41.39H12.2v2.3H6.044V44.9h7a35.519,35.519,0,0,1-7.4,3.564,7.8,7.8,0,0,1,.846,1.1c1.1-.414,2.214-.9,3.294-1.422v6.228H11.1v-.576h7.29v.5H19.76V46.772H12.326c.99-.576,1.962-1.206,2.9-1.872Zm3.87,10.026A4.288,4.288,0,0,0,28.94,50.84c0-1.26-.54-2.07-1.53-2.07a1.265,1.265,0,0,0-1.368,1.3,1.237,1.237,0,0,0,1.35,1.278,1.746,1.746,0,0,0,.306-.018,3.13,3.13,0,0,1-2.268,2.646Zm31.7-13.518a19,19,0,0,0-2.862-2.988l-1.026.7a17.79,17.79,0,0,1,2.808,3.06Zm-1.6,3.924a15.525,15.525,0,0,1-2.358,3.276,31.341,31.341,0,0,1-.738-4.1h5.148V43.226H52.682c-.144-1.6-.216-3.33-.216-5.13H51.1c.018,1.764.09,3.492.252,5.13H47.228V40.094a24.6,24.6,0,0,0,3.006-.828l-.954-1.1a41.091,41.091,0,0,1-7.11,1.62A4.756,4.756,0,0,1,42.6,40.9c1.062-.144,2.2-.324,3.312-.54v2.862H42.062V44.5h3.852v3.15c-1.566.324-3.024.63-4.1.81l.378,1.35c1.08-.234,2.376-.54,3.726-.828V52.64c0,.324-.108.414-.432.414-.306.018-1.368.036-2.52-.018a6.209,6.209,0,0,1,.5,1.35,9.867,9.867,0,0,0,2.988-.252c.558-.216.774-.612.774-1.476v-4c1.1-.252,2.214-.5,3.312-.774l-.09-1.206c-1.062.234-2.16.468-3.222.7V44.5h4.23a33.624,33.624,0,0,0,1.008,5.22A17.769,17.769,0,0,1,48.2,52.64a4.977,4.977,0,0,1,.918,1.062,18.694,18.694,0,0,0,3.8-2.646c.828,2.106,1.908,3.366,3.33,3.366,1.35,0,1.818-.864,2.07-3.834a3.286,3.286,0,0,1-1.134-.72c-.108,2.3-.324,3.222-.81,3.222-.9,0-1.71-1.152-2.394-3.042a18.144,18.144,0,0,0,3.132-4.23Zm7.308-7.29A21.619,21.619,0,0,1,59.4,45.35a9.676,9.676,0,0,1,.7,1.35,18.333,18.333,0,0,0,1.692-2.412v10.08h1.278V41.894a31.011,31.011,0,0,0,1.4-3.51Zm5.256,2v1.638h-2.5V40.04Zm-2.5,4.392V42.686h2.5v1.746Zm3.564-5.454H64.742V54.332h1.242V45.476h3.564Zm2.178,5.454V42.686h2.646v1.746Zm2.646-4.392v1.638H71.726V40.04Zm1.26-1.062h-5v6.5h3.744V52.6c0,.36-.126.468-.468.486s-1.584.018-2.862-.018a7.223,7.223,0,0,1,.45,1.278,12.246,12.246,0,0,0,3.348-.234c.594-.216.792-.63.792-1.494Zm8.8,6.588-2.5.7V42.83h2.484V41.552H81.932V37.97H80.618v3.582H77.936V42.83h2.682v3.834c-1.062.27-2.052.54-2.844.738l.4,1.35c.738-.216,1.566-.468,2.448-.72v4.554c0,.27-.108.36-.36.36-.216,0-.99,0-1.854-.018a4.982,4.982,0,0,1,.432,1.26,6.2,6.2,0,0,0,2.448-.252c.468-.216.648-.558.648-1.332V47.618c.882-.252,1.782-.54,2.664-.81Zm9.792-6.1h-9.72v1.314h5.13V52.406c0,.342-.144.45-.486.468-.378.018-1.692.018-3.006-.036a6.433,6.433,0,0,1,.558,1.44,11.526,11.526,0,0,0,3.456-.27c.648-.216.882-.666.882-1.584V40.778h3.186Zm11.466,1.908v2.286h-5.166v1.17h11.466v-1.17h-4.986V41.372h4.212V40.2h-4.212V37.97h-1.314V40.2h-2.214c.234-.558.468-1.152.648-1.728l-1.242-.288a11.3,11.3,0,0,1-2.376,4.41,7.534,7.534,0,0,1,1.116.648,10.609,10.609,0,0,0,1.26-1.872Zm-2.484,6.03h6.084v2.79h-6.084Zm7.4,3.906V46.286h-8.658v5.022ZM100.058,41.48A18.189,18.189,0,0,0,97.3,38.672l-.99.7a17.8,17.8,0,0,1,2.7,2.9Zm-.5,3.312H95.918v1.26h2.34v5.364A8.593,8.593,0,0,0,95.9,53.072l.846,1.17c.882-1.008,1.782-1.872,2.376-1.872.36,0,.882.468,1.548.864a9.651,9.651,0,0,0,4.734.81c1.872,0,5.022-.09,6.588-.18a4.7,4.7,0,0,1,.4-1.386,65.907,65.907,0,0,1-6.948.36,9.707,9.707,0,0,1-4.554-.72c-.63-.36-.972-.684-1.332-.828Zm25.146-7.02V49.418h1.332v-10.4h4.356V37.772Zm11.43,9.81h7.92V49.2h-7.92Zm7.92-7.668v1.53h-7.92v-1.53Zm0,5.094v1.548h-7.92V45.008Zm0-1.026h-7.92V42.47h7.92Zm4,5.22h-2.664V38.8h-10.53V49.2H131.99v1.224h16.056ZM136.922,50.57a19.388,19.388,0,0,1-5.13,2.826,12.491,12.491,0,0,1,.972.99,24.574,24.574,0,0,0,5.418-3.006Zm4.968.864a42.287,42.287,0,0,1,5.292,2.952l1.062-1.008a50.811,50.811,0,0,0-5.508-2.862Zm19.422-11.142a31.876,31.876,0,0,0-6.624-2.322l-.648,1.1a31.423,31.423,0,0,1,6.588,2.466Zm-6.156,4.752-.234.054h-4.86v1.278h4.284a10.962,10.962,0,0,1-4.644,5.868,5.558,5.558,0,0,1,1.044,1.008,12.841,12.841,0,0,0,5.292-7.812Zm9.306-2.124A32.837,32.837,0,0,1,160.3,46.7a18.192,18.192,0,0,1-1.548-3.744V41.624H152.4v1.3h4.95v9.72c0,.288-.108.378-.432.4-.288.018-1.35.018-2.448-.036a4.61,4.61,0,0,1,.486,1.332,10.245,10.245,0,0,0,3.024-.234c.576-.216.774-.63.774-1.44V46.286a12.92,12.92,0,0,0,6.606,6.93,5.387,5.387,0,0,1,.918-1.17,11.221,11.221,0,0,1-5.346-4.356,47.327,47.327,0,0,0,4.734-3.906Zm13.752-2.088H174.38v.9h8.82v-.9h-3.672V39.86h4.392v-.936h-4.392v-.972h-1.314v.972h-4.59v.936h4.59Zm-3.33,2.538h2.034v1.476h-2.034Zm7.7,1.476h-1.71V43.37h1.71Zm-4.626,0V43.37h1.872v1.476Zm-4.212.918h10.026V42.47H173.75Zm.036,2.826a21.453,21.453,0,0,0-1.008-3.8l-.954.234c.2.54.36,1.17.522,1.782l-2.592.324a33.745,33.745,0,0,0,3.762-5.868l-1.062-.63a23.858,23.858,0,0,1-1.26,2.43l-1.764.144a28.159,28.159,0,0,0,2.556-4.806l-1.152-.486a22.809,22.809,0,0,1-2.178,4.572c-.342.54-.63.936-.918,1.008.126.306.324.882.4,1.116a9.307,9.307,0,0,1,2.394-.4,21.15,21.15,0,0,1-1.44,2.07c-.5.684-.882,1.134-1.242,1.206a7.48,7.48,0,0,1,.4,1.17c.306-.18.864-.288,4.356-.828a9.821,9.821,0,0,1,.18,1.044Zm-5.22.846a19.213,19.213,0,0,1-.9,4.446c.288.09.81.252,1.044.36a26.777,26.777,0,0,0,.936-4.626Zm1.692.09a32.656,32.656,0,0,1,.432,4.158l1.026-.18a41.371,41.371,0,0,0-.486-4.14Zm1.62-.324a29.865,29.865,0,0,1,.918,3.366l.936-.306a25.793,25.793,0,0,0-.99-3.33Zm3.654.99h6.408v.828h-6.408Zm0-1.422h6.408v.774h-6.408Zm0-1.4h6.408v.756h-6.408ZM183.2,51.83V46.556h-8.874V51.83h2.79a36.425,36.425,0,0,1-3.852,1.674,5.728,5.728,0,0,1,.558.954c1.224-.486,2.934-1.188,4.3-1.818l-.954-.81h3.078l-.45.792c1.332.54,2.826,1.242,3.78,1.71l.558-.972c-.918-.414-2.322-1.044-3.654-1.53Zm6.966-8.784h2.574v-1.26h-2.574V37.934h-1.26v3.852H185.99v1.26h2.754a19.2,19.2,0,0,1-3.15,6.768,7.447,7.447,0,0,1,.7,1.224,18.823,18.823,0,0,0,2.61-5.292v8.6h1.26V46.16A29.481,29.481,0,0,1,192,48.77l.828-1.1c-.378-.486-2.034-2.394-2.664-3.042Zm4.644,8.874V48.806h5.454V51.92Zm5.454-11.664v3.006H194.81V40.256Zm-5.454,4.23h5.454v3.1H194.81ZM193.532,39V54.242h1.278v-1.08h5.454v1.026h1.314V39ZM205.9,41.93h4.014v1.278H205.9Zm4.014-2.25v1.35H205.9V39.68Zm.234,7.632c.126.216.252.468.378.72l-1.818.144a21.633,21.633,0,0,0,2.718-2.484l-.792-.522a9.49,9.49,0,0,1-.792.936l-1.332.054a9.714,9.714,0,0,0,1.4-1.638L209.3,44.2h1.872v-5.49H204.62V54.386H205.9V44.2h3.1a8.693,8.693,0,0,1-1.278,1.638,1.156,1.156,0,0,1-.594.324,7.826,7.826,0,0,1,.306.918,6.493,6.493,0,0,1,1.674-.216,9.547,9.547,0,0,1-1.08.936,2.093,2.093,0,0,1-.972.5,4.034,4.034,0,0,1,.27.882,20.771,20.771,0,0,1,3.546-.45c.072.216.162.414.216.558H210.4v1.584a2.414,2.414,0,0,1-.018.36h-1.692V49.562h-.918v2.52h2.394a3.049,3.049,0,0,1-2,1.386,3.38,3.38,0,0,1,.648.792c2.232-.792,2.556-2.016,2.556-3.366v-1.6h-.18l.648-.252a15.121,15.121,0,0,0-.972-1.962Zm6.066,5.328V49.58h-.954v1.656H213.53V49.292h-1.008v4.824h1.008V52.082h1.728v.558Zm-2.16-9.432V41.93h4.14v1.278Zm4.14-3.528v1.35h-4.14V39.68Zm1.3-.972h-6.714V44.2h1.116a8.866,8.866,0,0,1-1.3,1.656,1.035,1.035,0,0,1-.594.324,5.648,5.648,0,0,1,.324.918,5.166,5.166,0,0,1,1.692-.234c-.5.45-.9.81-1.1.954a2.164,2.164,0,0,1-.954.486,8.112,8.112,0,0,1,.27.9c.234-.126.684-.18,3.51-.468a5.862,5.862,0,0,1,.288.612l.72-.324a16.345,16.345,0,0,0-1.044-1.944l-.684.234c.126.216.252.468.378.72l-1.8.144a18.5,18.5,0,0,0,2.718-2.5l-.774-.5c-.252.324-.5.63-.792.936l-1.332.072a12.829,12.829,0,0,0,1.4-1.638l-.666-.342h4.032v8.5c0,.234-.072.324-.306.324-.234.018-.99.018-1.782-.018a6,6,0,0,1,.414,1.332,5.859,5.859,0,0,0,2.34-.27c.486-.216.63-.63.63-1.368ZM11.615,83.74V80.788h9.414V83.74Zm9.414-7.182V79.51H11.615V76.558Zm0-4.194V75.28H11.615V72.364ZM10.3,71.068v15.21h1.314V85.054h9.414v1.224h1.386V71.068Zm27.936,2.016H36.581V71.842h1.656Zm2.754,3.258H39.227V74.128h1.764Zm-7.02-2.214h1.62v2.214h-1.62Zm4.266,0v2.214H36.563V74.128Zm-2.754-1.044H32.837v4.284h9.324V73.084H39.317V71.842h3.312V70.726H32.279v1.116h3.2Zm6.228,6.39V78.448H33.305v1.026Zm-9.432-.018c-.306-.486-1.638-2.484-2.142-3.15V75.064h2.016V73.822H30.137V69.934H28.913v3.888h-2.52v1.242h2.376a19.538,19.538,0,0,1-2.736,6.75,7.467,7.467,0,0,1,.684,1.152,18.8,18.8,0,0,0,2.2-5.022V86.35h1.224V77.89c.522.882,1.152,1.98,1.4,2.556Zm1.98,2.826a10.447,10.447,0,0,1-2.736,2.664,4.431,4.431,0,0,1,.828.81,11.885,11.885,0,0,0,2.934-2.916Zm8.37-.414v-1.08H32.189v1.08h4.554v3.168c0,.18-.054.252-.27.252H34.709a4.012,4.012,0,0,1,.4,1.1,7.387,7.387,0,0,0,2.322-.2c.45-.18.558-.522.558-1.134V81.868Zm-3.348,1.08a22.138,22.138,0,0,1,2.484,2.826l.99-.72a19.229,19.229,0,0,0-2.538-2.718Zm10.746-5.166h-3.78V74.02h3.78Zm-3.78,5.508V78.97h3.78v4.32ZM47.759,69.9a22.218,22.218,0,0,1-.72,2.916H45.023v13.1h1.224V84.5h5V72.814H48.263c.306-.774.63-1.764.936-2.646ZM60.053,72.76H54.671a25.283,25.283,0,0,0,.774-2.592l-1.278-.306A18.264,18.264,0,0,1,51.413,76.4a9.838,9.838,0,0,1,1.1.756A15.156,15.156,0,0,0,54.2,74h4.572c-.234,7.164-.5,9.9-1.1,10.53-.18.234-.378.27-.738.27-.414,0-1.494,0-2.664-.108a3.1,3.1,0,0,1,.45,1.314,18.972,18.972,0,0,0,2.664.018,1.79,1.79,0,0,0,1.422-.72c.72-.882.954-3.654,1.242-11.862Zm-2.844,8.1a35.217,35.217,0,0,0-2.826-4.068l-1.044.612a32.026,32.026,0,0,1,2.736,4.158Zm13.968-9.018h3.132v2.88c0,1.332.27,1.854,1.53,1.854h1.512a3.8,3.8,0,0,0,.972-.09,11.387,11.387,0,0,1-.108-1.152,4.766,4.766,0,0,1-.9.09H75.929c-.288,0-.342-.18-.342-.684V70.582h-5.67v1.98A4.01,4.01,0,0,1,67.6,76.414a5.7,5.7,0,0,1,.882.99,5.192,5.192,0,0,0,2.7-4.806ZM67.9,79.06l-.18-1.224-1.674.486v-3.51h2.232v-1.26H66.047v-3.6H64.733v3.6H62.285v1.26h2.448v3.87c-1.008.288-1.926.54-2.664.72l.4,1.3,2.268-.666v4.644c0,.252-.09.342-.342.342-.216,0-.99.018-1.854-.018a5.917,5.917,0,0,1,.414,1.242,6.457,6.457,0,0,0,2.43-.252c.468-.2.666-.558.666-1.314V79.618Zm7.632.036a9.821,9.821,0,0,1-2.808,3.438A10.471,10.471,0,0,1,69.989,79.1Zm.936-1.314-.252.054H68.171V79.1h.7l-.18.072a12.638,12.638,0,0,0,2.934,4.122,15.653,15.653,0,0,1-4.86,1.908,4.24,4.24,0,0,1,.666,1.224,16.84,16.84,0,0,0,5.274-2.268,14.178,14.178,0,0,0,5.04,2.25,4.8,4.8,0,0,1,.846-1.224,14.662,14.662,0,0,1-4.77-1.854,11.263,11.263,0,0,0,3.51-5.148Zm17.874-5.508a7.88,7.88,0,0,1-1.08,1.368l1.062.4a12.845,12.845,0,0,0,1.8-2.556l-.9-.27-.216.054H88.853c.216-.378.432-.756.612-1.134l-1.206-.2a7.855,7.855,0,0,1-2.718,3.24,3.33,3.33,0,0,1,1.008.648,9.249,9.249,0,0,0,1.584-1.548Zm-10.35,9.09h9.018v1.26H83.993Zm0-2.088h9.018V80.5H83.993Zm0-2.088h9.018v1.224H83.993Zm-1.3,6.318H94.343V76.288H82.7Zm7.524-11.142c-.468,1.566-2.34,2.574-4.59,2.988a4.232,4.232,0,0,1,.576.936,7.791,7.791,0,0,0,4.482-2.394,9.461,9.461,0,0,0,4.68,2.592,3.928,3.928,0,0,1,.756-.972,8.417,8.417,0,0,1-4.9-2.466,3.034,3.034,0,0,0,.216-.5Zm-4.68-.63a23.055,23.055,0,0,0-3.762-1.386l-.594.918a24.054,24.054,0,0,1,3.762,1.494Zm-.2,1.8c-1.872.576-3.762,1.152-5.04,1.512l.5,1.152c1.368-.432,3.06-1.044,4.68-1.6Zm.36,10.1a22.388,22.388,0,0,1-5.274,1.728,8.522,8.522,0,0,1,.972,1.008,25.492,25.492,0,0,0,5.508-2.2Zm4.392.7a36.247,36.247,0,0,1,5.022,2l1.188-.774a47.149,47.149,0,0,0-5.292-1.944Zm15.156-3.906a25.965,25.965,0,0,0-1.206-3.726l-1.026.306c.18.5.4,1.08.576,1.674l-3.186.414a35.237,35.237,0,0,0,4.266-5.742l-1.152-.7c-.414.792-.918,1.6-1.4,2.358l-2.106.18a28.287,28.287,0,0,0,2.934-4.788l-1.224-.522a24.072,24.072,0,0,1-2.52,4.554c-.4.558-.72.918-1.026.99a8.5,8.5,0,0,1,.4,1.206,11.213,11.213,0,0,1,2.718-.468,19.409,19.409,0,0,1-1.638,2.07,3.643,3.643,0,0,1-1.368,1.188,11.366,11.366,0,0,1,.414,1.26c.36-.2.936-.324,5.2-.972.108.414.18.792.234,1.08Zm-6.21,1.026a20.019,20.019,0,0,1-.864,4.122,8.082,8.082,0,0,1,1.1.414,26.733,26.733,0,0,0,.9-4.356Zm2.124.144a31.6,31.6,0,0,1,.45,3.87l1.134-.216a35.663,35.663,0,0,0-.522-3.852Zm2-.342a22.15,22.15,0,0,1,.882,3.1l1.062-.36a18.958,18.958,0,0,0-.954-3.06Zm4.3.018h4.644v3.51h-4.644Zm4.644-9.2v3.348h-4.644V72.076Zm0,7.992h-4.644V76.63h4.644Zm1.278,4.716V70.852h-7.164V84.784h-1.584v1.224h9.954V84.784Zm15.282-4.41V84.1h-8.352V80.374Zm-9.7,5.976h1.35V85.342h8.352v.936h1.386V79.186H118.967Zm1.422-10.566a20.039,20.039,0,0,0,4.122-3.546,20.777,20.777,0,0,0,4.374,3.546Zm4.3-5.886a18.662,18.662,0,0,1-8.514,6.5,5.333,5.333,0,0,1,.972,1.17,25.271,25.271,0,0,0,2.754-1.458v.918h9.018V75.8a28.213,28.213,0,0,0,2.916,1.6,4.047,4.047,0,0,1,.918-1.206,21.178,21.178,0,0,1-7.47-4.914c.2-.27.4-.522.576-.81Zm12.924,18.738,1.656-.7a17.989,17.989,0,0,1,0-17.226l-1.656-.7a17.517,17.517,0,0,0,0,18.63ZM141.845,85h2.664V80.266h1.782c2.862,0,5.148-1.368,5.148-4.41,0-3.15-2.268-4.194-5.22-4.194h-4.374Zm2.664-6.84V73.786h1.512c1.836,0,2.808.522,2.808,2.07,0,1.53-.882,2.3-2.718,2.3ZM157.4,85.252c2.52,0,4.842-1.944,4.842-5.292s-2.322-5.292-4.842-5.292-4.842,1.944-4.842,5.292S154.877,85.252,157.4,85.252Zm0-2.16c-1.368,0-2.142-1.224-2.142-3.132,0-1.89.774-3.132,2.142-3.132s2.142,1.242,2.142,3.132C159.539,81.868,158.765,83.092,157.4,83.092ZM164.453,85H167.1V78.988c.558-1.458,1.512-1.98,2.3-1.98a3.367,3.367,0,0,1,1.062.162l.45-2.286a2.851,2.851,0,0,0-1.188-.216,3.492,3.492,0,0,0-2.862,2.034h-.054l-.2-1.782h-2.16Zm11.538.252a6.514,6.514,0,0,0,2.124-.378l-.432-1.926a2.945,2.945,0,0,1-.99.216c-.9,0-1.368-.54-1.368-1.692V77.008h2.484V74.92h-2.484V72.2h-2.2l-.306,2.718-1.566.126v1.962h1.422v4.464C172.679,83.722,173.6,85.252,175.991,85.252Zm4.32-.252h2.646V77.008h1.89V74.92h-1.89v-.864c0-1.116.432-1.584,1.224-1.584a2.87,2.87,0,0,1,1.062.216l.486-1.962a5.751,5.751,0,0,0-1.908-.342c-2.538,0-3.51,1.62-3.51,3.726v.828l-1.35.108v1.962h1.35Zm10.242.252c2.52,0,4.842-1.944,4.842-5.292s-2.322-5.292-4.842-5.292-4.842,1.944-4.842,5.292S188.033,85.252,190.553,85.252Zm0-2.16c-1.368,0-2.142-1.224-2.142-3.132,0-1.89.774-3.132,2.142-3.132S192.7,78.07,192.7,79.96C192.7,81.868,191.921,83.092,190.553,83.092Zm9.54,2.16a3.533,3.533,0,0,0,1.368-.234l-.324-1.962a1.491,1.491,0,0,1-.36.036c-.252,0-.522-.2-.522-.81V70.636h-2.646V82.174C197.609,84.046,198.257,85.252,200.093,85.252ZM203.279,85h2.646V74.92h-2.646Zm1.332-11.7a1.452,1.452,0,1,0-1.548-1.458A1.418,1.418,0,0,0,204.611,73.3Zm8.352,11.952c2.52,0,4.842-1.944,4.842-5.292s-2.322-5.292-4.842-5.292-4.842,1.944-4.842,5.292S210.443,85.252,212.963,85.252Zm0-2.16c-1.368,0-2.142-1.224-2.142-3.132,0-1.89.774-3.132,2.142-3.132S215.1,78.07,215.1,79.96C215.1,81.868,214.331,83.092,212.963,83.092ZM8.879,117H11.9l1.026-4.392c.216-.936.36-1.872.558-2.934h.09c.2,1.062.36,1.98.576,2.934L15.215,117h3.114l2.484-10.08H18.365l-1.1,4.968c-.18.99-.324,1.944-.5,2.952h-.09c-.216-1.008-.4-1.962-.63-2.952l-1.26-4.968h-2.34l-1.224,4.968c-.252.972-.432,1.944-.63,2.952h-.072c-.18-1.008-.306-1.962-.5-2.952l-1.1-4.968H6.269Zm13.86,0h2.646V106.92H22.739Zm1.332-11.7a1.451,1.451,0,1,0,0-2.9,1.452,1.452,0,1,0,0,2.9Zm7.83,11.952a6.514,6.514,0,0,0,2.124-.378l-.432-1.926a2.945,2.945,0,0,1-.99.216c-.9,0-1.368-.54-1.368-1.692v-4.464h2.484V106.92H31.235V104.2h-2.2l-.306,2.718-1.566.126v1.962h1.422v4.464C28.589,115.722,29.507,117.252,31.9,117.252Zm3.87-.252h2.646v-6.93a2.833,2.833,0,0,1,2.088-1.134c.99,0,1.422.54,1.422,2.106V117h2.646v-6.282c0-2.538-.936-4.05-3.114-4.05a4.587,4.587,0,0,0-3.168,1.476l.126-1.89v-3.618H35.771Zm15.822,0h2.664v-4.734h1.782c2.862,0,5.148-1.368,5.148-4.41,0-3.15-2.268-4.194-5.22-4.194H51.593Zm2.664-6.84v-4.374h1.512c1.836,0,2.808.522,2.808,2.07,0,1.53-.882,2.3-2.718,2.3Zm12.132,7.092a4.044,4.044,0,0,0,3.2-1.692h.072l.2,1.44h2.16V106.92H69.377v6.8a2.429,2.429,0,0,1-2.052,1.26c-.972,0-1.4-.558-1.4-2.106V106.92H63.275v6.3C63.275,115.74,64.211,117.252,66.389,117.252Zm8.46-.252h2.646v-6.012c.558-1.458,1.512-1.98,2.3-1.98a3.367,3.367,0,0,1,1.062.162l.45-2.286a2.851,2.851,0,0,0-1.188-.216,3.492,3.492,0,0,0-2.862,2.034h-.054l-.2-1.782h-2.16Zm7.848,3.87h2.646v-3.06l-.09-1.656a3.747,3.747,0,0,0,2.5,1.1c2.214,0,4.284-2,4.284-5.454,0-3.1-1.476-5.13-3.96-5.13a4.785,4.785,0,0,0-2.97,1.3h-.054l-.2-1.044H82.7Zm4.464-5.8a2.746,2.746,0,0,1-1.818-.756V109.89a2.776,2.776,0,0,1,1.98-1.044c1.386,0,2,1.062,2,2.988C89.321,114.03,88.385,115.074,87.161,115.074Zm11.34,2.178c2.52,0,4.842-1.944,4.842-5.292s-2.322-5.292-4.842-5.292-4.842,1.944-4.842,5.292S95.981,117.252,98.5,117.252Zm0-2.16c-1.368,0-2.142-1.224-2.142-3.132,0-1.89.774-3.132,2.142-3.132s2.142,1.242,2.142,3.132C100.643,113.868,99.869,115.092,98.5,115.092Zm9.846,2.16c2.628,0,4.014-1.422,4.014-3.186,0-1.872-1.476-2.538-2.808-3.042-1.062-.4-2-.666-2-1.4,0-.576.432-.972,1.35-.972a3.752,3.752,0,0,1,2.16.864l1.188-1.6a5.587,5.587,0,0,0-3.42-1.242c-2.3,0-3.762,1.278-3.762,3.078,0,1.692,1.422,2.466,2.7,2.952,1.062.414,2.106.756,2.106,1.512,0,.63-.45,1.062-1.458,1.062a4.376,4.376,0,0,1-2.7-1.1l-1.206,1.656A6.394,6.394,0,0,0,108.347,117.252Zm10.422,0a6.346,6.346,0,0,0,3.51-1.116l-.9-1.62a4.155,4.155,0,0,1-2.268.7,2.649,2.649,0,0,1-2.79-2.52h6.21a4.974,4.974,0,0,0,.126-1.224c0-2.772-1.44-4.806-4.212-4.806-2.394,0-4.7,2.034-4.7,5.292C113.747,115.29,115.943,117.252,118.769,117.252Zm-2.484-6.318a2.269,2.269,0,0,1,2.2-2.214c1.3,0,1.908.864,1.908,2.214Zm9.7,9.7a17.418,17.418,0,0,0,0-18.63l-1.638.7a17.989,17.989,0,0,1,0,17.226Zm10.53-2.088V106.9h-1.332v10.4h-4.356v1.242Zm14.526.378a4.288,4.288,0,0,0,3.114-4.086c0-1.26-.54-2.07-1.53-2.07a1.265,1.265,0,0,0-1.368,1.3,1.237,1.237,0,0,0,1.35,1.278,1.746,1.746,0,0,0,.306-.018,3.13,3.13,0,0,1-2.268,2.646ZM168.971,104.6h12.492v1.764h1.278V103.5h-6.66a8.047,8.047,0,0,0-1.062-1.692l-1.134.36a10.829,10.829,0,0,1,.792,1.332h-6.93v2.862h1.224Zm1.89,9.666h8.784v.846h-8.784Zm0-1.6h8.784v.828h-8.784Zm0-1.566h8.784v.81h-8.784Zm10.116,4.806v-5.6H169.565v5.6H173a20.078,20.078,0,0,1-5.472,1.566,6.521,6.521,0,0,1,.72.936,21.3,21.3,0,0,0,5.886-1.8l-1.062-.7h3.96l-.666.774c2.088.558,4.194,1.26,5.472,1.746l.882-.864c-1.368-.486-3.528-1.134-5.6-1.656Zm-5.346-7.146c.036-.27.072-.558.108-.882h3.348l-.072.882Zm-4.392-.882h3.366c-.036.324-.072.594-.108.882h-3.366Zm3.492-1.638-.054.828h-3.348l.108-.828Zm4.41.828h-3.348l.072-.828h3.348Zm1.278-.108.126-1.512H170.339l-.2,1.512h-2.988v1.026h2.862l-.216,1.566h10.386l.144-1.566h3.006v-1.026Zm11,5.526-2.484.7V109.17h2.214v-1.242h-2.214v-3.834h2.376V102.87h-6.138v1.224h2.484v3.834h-2.268v1.242h2.268v4.356c-1.062.306-2.034.558-2.826.756l.36,1.278c1.746-.522,4.14-1.224,6.39-1.89Zm1.98-2.88h5.832v1.836H193.4Zm0-2.88h5.832v1.8H193.4Zm0-2.862h5.832v1.8H193.4Zm5.22,13.23c-.45,0-.522-.072-.522-.522v-4h2.448v-9.846h-8.406v9.846h1.6c-.288,2.322-1.1,3.942-4.266,4.806a4,4,0,0,1,.756,1.1c3.492-1.08,4.464-3.042,4.824-5.9h1.764v4c0,1.3.324,1.674,1.6,1.674h1.746c1.08,0,1.422-.558,1.512-2.754a3.174,3.174,0,0,1-1.116-.522c-.054,1.854-.126,2.124-.54,2.124Zm13.212-6.8H214.3l-.432.378a13.705,13.705,0,0,1,1.368.558l-3.4.054Zm-5.544-.9V108.27h4.248v1.116Zm0-3.06h4.248v1.08h-4.248Zm9.918,0v1.08h-4.374v-1.08Zm0,3.06h-4.374V108.27H216.2Zm3.132,3.888h-4.284v-1.152l1.782-.054a12.146,12.146,0,0,1,1.026.72l.792-.756a14.708,14.708,0,0,0-3.222-1.746h2.088v-4.878h-5.688V104.4h6.786v-1.08h-6.786v-1.35h-1.3v1.35h-6.894v1.08h6.894v1.008h-5.508v4.878h5.508v.99c-2.574.036-4.932.054-6.714.054l.054,1.044c2.592-.036,6.192-.108,9.882-.216v1.116H203.117v1.1h3.726l-.882.756a15.525,15.525,0,0,1,2.97,2.34l.954-.882a15.005,15.005,0,0,0-2.952-2.214h6.822v2.538c0,.234-.09.306-.36.324-.288.018-1.3.018-2.394-.018a4.081,4.081,0,0,1,.432,1.152,10.423,10.423,0,0,0,2.9-.2c.576-.18.72-.54.72-1.224v-2.574h4.284Zm-177.786,23.5A14.488,14.488,0,0,0,40,133.862l-1.206.432a15.736,15.736,0,0,1,1.476,2.988Zm-6.714-.756a23.662,23.662,0,0,0-3.4-1.872l-.738.972a22.464,22.464,0,0,1,3.366,2Zm-1.026,4.86a26.647,26.647,0,0,0-3.33-1.818l-.738.99a21.752,21.752,0,0,1,3.312,1.962Zm-.126,2.628a51.981,51.981,0,0,1-3.4,5.76l1.116.918c1.044-1.674,2.3-3.906,3.258-5.8Zm7.362,5.04v-4.626H45.1v-1.278h-4.05v-4.014h4.7v-1.278h-10.8v1.278h4.716v4.014h-4v1.278h4v4.626H34.4v1.278H46.157V148.55Zm11.7-12.168a11.412,11.412,0,0,0-1.548-2.5l-1.17.45a10.5,10.5,0,0,1,1.458,2.556Zm-1.818,4.248c.036-.792.054-1.638.072-2.484h4.14V136.9H47.9v1.242h1.782c-.054,4.878-.216,8.874-2.142,11.2a3.464,3.464,0,0,1,1.008.972c1.62-1.944,2.142-4.9,2.34-8.46h2.3c-.18,4.662-.378,6.372-.72,6.768a.51.51,0,0,1-.522.234c-.252,0-.756,0-1.386-.054a3.054,3.054,0,0,1,.342,1.224,9.494,9.494,0,0,0,1.638-.018,1.228,1.228,0,0,0,1.026-.558c.5-.648.7-2.574.918-8.208.018-.18.018-.612.018-.612ZM56.4,146.8a25.523,25.523,0,0,1,4.86,3.168l.9-1.17a27.49,27.49,0,0,0-4.914-3.006Zm5.112-3.582a22.75,22.75,0,0,0-3.15-2.358l-.864.864a25.464,25.464,0,0,1,3.1,2.484Zm-2.448-9.378a11.023,11.023,0,0,1-4.5,6.408,5.085,5.085,0,0,1,.936,1.062,11.69,11.69,0,0,0,3.888-4.788,13.791,13.791,0,0,0,4,4.68,5.261,5.261,0,0,1,.99-1.1,12.422,12.422,0,0,1-4.41-4.9,9.092,9.092,0,0,0,.324-.99ZM66.731,149h7.812v-1.422H68.4v-4.806h5V141.35h-5v-4.14h5.94v-1.422H66.731Zm14.256.234c2.754,0,4.482-1.656,4.482-3.744,0-1.962-1.188-2.862-2.718-3.528l-1.89-.81c-1.026-.432-2.178-.918-2.178-2.2,0-1.188.972-1.944,2.466-1.944a4.274,4.274,0,0,1,3.006,1.242l.882-1.062a5.411,5.411,0,0,0-3.888-1.638c-2.394,0-4.158,1.476-4.158,3.51,0,1.926,1.458,2.862,2.682,3.384l1.908.828c1.242.558,2.2.99,2.2,2.34,0,1.3-1.044,2.16-2.772,2.16a5.111,5.111,0,0,1-3.636-1.638l-1.008,1.134A6.305,6.305,0,0,0,80.987,149.234Zm12.258,0a5.666,5.666,0,0,0,4.086-1.53V142.16h-4.32v1.386H95.8V147a3.619,3.619,0,0,1-2.376.774c-2.844,0-4.41-2.088-4.41-5.418,0-3.294,1.728-5.346,4.374-5.346a3.7,3.7,0,0,1,2.862,1.26l.9-1.08a5.022,5.022,0,0,0-3.8-1.638c-3.492,0-6.048,2.592-6.048,6.858C87.305,146.7,89.789,149.234,93.245,149.234Zm12.042-7.452h-3.78V138.02h3.78Zm-3.78,5.508v-4.32h3.78v4.32Zm1.512-13.392a22.217,22.217,0,0,1-.72,2.916h-2.016v13.1h1.224V148.5h5V136.814h-2.988c.306-.774.63-1.764.936-2.646Zm12.294,2.862h-5.382a25.285,25.285,0,0,0,.774-2.592l-1.278-.306a18.264,18.264,0,0,1-2.754,6.534,9.839,9.839,0,0,1,1.1.756,15.157,15.157,0,0,0,1.692-3.15h4.572c-.234,7.164-.5,9.9-1.1,10.53-.18.234-.378.27-.738.27-.414,0-1.494,0-2.664-.108a3.1,3.1,0,0,1,.45,1.314,18.969,18.969,0,0,0,2.664.018,1.79,1.79,0,0,0,1.422-.72c.72-.882.954-3.654,1.242-11.862Zm-2.844,8.1a35.219,35.219,0,0,0-2.826-4.068l-1.044.612a32.024,32.024,0,0,1,2.736,4.158Zm10.8-6.84h-3.726v-2.268h3.726Zm0,3.348h-3.726v-2.286h3.726Zm0,3.4h-3.726v-2.34h3.726Zm1.3-10.134h-6.282V145.85h6.282Zm-5.04,11.61a8.688,8.688,0,0,1-2.2,3.348,8.36,8.36,0,0,1,1.08.792,11.7,11.7,0,0,0,2.394-3.816Zm2.538.5a17.092,17.092,0,0,1,1.89,2.952l1.134-.594a14.548,14.548,0,0,0-1.962-2.862Zm11.844-8.55h-2.3v-4.194h-1.314V138.2h-5.166v1.242h4.68a16.716,16.716,0,0,1-5.076,7.11,5.394,5.394,0,0,1,.918.99,18.218,18.218,0,0,0,4.644-6.372v7.524c0,.306-.108.4-.4.4-.27.018-1.152.018-2.16,0a4.5,4.5,0,0,1,.468,1.3,7.781,7.781,0,0,0,2.7-.27c.5-.234.7-.63.7-1.422v-9.252h2.3Zm13.122,5.778c.108-.576.18-1.17.252-1.782h-1.3c-.054.612-.144,1.206-.252,1.782h-3.078v1.134h2.808a6.252,6.252,0,0,1-4.23,4.248,3.432,3.432,0,0,1,.774.99,7.26,7.26,0,0,0,4.752-5.238h3.114c-.288,2.52-.558,3.582-.9,3.906a.783.783,0,0,1-.612.18c-.306,0-1.008-.018-1.782-.09a3.886,3.886,0,0,1,.36,1.26,19.028,19.028,0,0,0,2,.018,1.547,1.547,0,0,0,1.116-.5c.522-.522.864-1.908,1.188-5.328a5.536,5.536,0,0,0,.054-.576Zm2.664-7a7.465,7.465,0,0,1-2.07,2.484,8.42,8.42,0,0,1-2.322-2.484Zm.882-1.206-.216.054h-4.338a9.175,9.175,0,0,0,.828-1.548l-1.224-.342a10.713,10.713,0,0,1-3.456,4.392,8.194,8.194,0,0,1,1.08.756,12.456,12.456,0,0,0,1.314-1.278,10.06,10.06,0,0,0,2.07,2.3,13.482,13.482,0,0,1-3.834,1.548c.126-.414.216-.828.324-1.206l-.81-.288-.2.072h-2.538l.594-.4c-.126-.18-.306-.4-.5-.63a16.259,16.259,0,0,0,3.24-3.87l-.864-.558-.234.054h-6.066V136h5.238a15.715,15.715,0,0,1-2.07,2.43c-.4-.36-.81-.72-1.224-1.026l-.954.612a13.4,13.4,0,0,1,2.2,2.214h-3.366v1.188h2.7a13.8,13.8,0,0,1-2.88,4.824,7.364,7.364,0,0,1,.684,1.224,14.1,14.1,0,0,0,2.628-4.41v5.616c0,.2-.072.252-.288.27s-.936.018-1.71-.018a4.981,4.981,0,0,1,.432,1.26,5.8,5.8,0,0,0,2.232-.234c.468-.234.612-.576.612-1.26v-7.272H141.7a20.9,20.9,0,0,1-.972,2.9l.918.45a17.115,17.115,0,0,0,1.08-2.862,4.492,4.492,0,0,1,.486.792,14.081,14.081,0,0,0,4.392-1.872,12.816,12.816,0,0,0,3.87,1.746,4.99,4.99,0,0,1,.792-1.044,12.707,12.707,0,0,1-3.672-1.44,9.457,9.457,0,0,0,2.7-3.906Zm6.3,11.97v-2.952h9.414v2.952Zm9.414-7.182v2.952h-9.414v-2.952Zm0-4.194v2.916h-9.414v-2.916Zm-10.728-1.3v15.21h1.314v-1.224h9.414v1.224h1.386v-15.21Zm27.936,2.016h-1.656v-1.242H183.5Zm2.754,3.258h-1.764v-2.214h1.764Zm-7.02-2.214h1.62v2.214h-1.62Zm4.266,0v2.214h-1.674v-2.214Zm-2.754-1.044H178.1v4.284h9.324v-4.284h-2.844v-1.242h3.312v-1.116h-10.35v1.116h3.2Zm6.228,6.39v-1.026h-8.406v1.026Zm-9.432-.018c-.306-.486-1.638-2.484-2.142-3.15v-1.242h2.016v-1.242H175.4v-3.888h-1.224v3.888h-2.52v1.242h2.376a19.538,19.538,0,0,1-2.736,6.75,7.467,7.467,0,0,1,.684,1.152,18.794,18.794,0,0,0,2.2-5.022v8.406H175.4v-8.46c.522.882,1.152,1.98,1.4,2.556Zm1.98,2.826a10.448,10.448,0,0,1-2.736,2.664,4.43,4.43,0,0,1,.828.81,11.885,11.885,0,0,0,2.934-2.916Zm8.37-.414v-1.08h-10.44v1.08H182v3.168c0,.18-.054.252-.27.252h-1.764a4.012,4.012,0,0,1,.4,1.1,7.387,7.387,0,0,0,2.322-.2c.45-.18.558-.522.558-1.134v-3.186Zm-3.348,1.08a22.139,22.139,0,0,1,2.484,2.826l.99-.72a19.229,19.229,0,0,0-2.538-2.718Zm6.894-6.426,1.422-1.71,1.422,1.71.792-.576-1.152-1.872,1.962-.81-.306-.918-2.052.486-.18-2.16h-.972l-.18,2.178-2.052-.5-.306.918,1.944.81-1.134,1.872Z" transform="translate(723 180.449)" fill="#262626"/>
  </g>
</svg>
