<?xml version="1.0" encoding="utf-8"?>
<!-- Generator: Adobe Illustrator 25.3.1, SVG Export Plug-In . SVG Version: 6.00 Build 0)  -->
<svg version="1.1" id="圖層_1" xmlns="http://www.w3.org/2000/svg" xmlns:xlink="http://www.w3.org/1999/xlink" x="0px" y="0px"
	 viewBox="0 0 72 72" style="enable-background:new 0 0 72 72;" xml:space="preserve">
<style type="text/css">
	.st0{fill:#1E9BD7;}
	.st1{fill:none;stroke:#1E9BD7;stroke-width:1.5;}
</style>
<desc>Created with Sketch.</desc>
<g id="trade" transform="translate(10.000000, 22.000000)">
	<path id="Shape" class="st0" d="M41,19c-0.1-0.8-0.4-1.5-0.9-2l-10-10c-0.2-0.2-0.4-0.2-0.6-0.2S29.1,6.9,28.9,7l-0.8,0.8
		c-1.3,1.3-3.3,1.5-4.8,0.5L26.6,5c1.3-1.3,3.3-1.5,4.9-0.5l4.3,2.9c0.2,0.1,0.5,0.2,0.7,0.1l15-4.2l-0.4-1.6l-14.6,4l-4-2.6
		c-2-1.3-4.7-1.2-6.5,0.3c-1.3-1.1-3.1-1.3-4.6-0.5l-5.1,2.8L1.5,1L1,2.6l15,5c0.2,0.1,0.5,0.1,0.7-0.1l5.4-3
		c0.8-0.4,1.8-0.4,2.5,0.2l-3.1,3.1c-0.2,0.2-0.2,0.4-0.2,0.6s0.1,0.4,0.2,0.6c2.2,2.2,5.7,2.2,7.8,0l0.2-0.2l9.4,9.4
		c0.6,0.6,0.6,1.6,0,2.1c-0.6,0.6-1.6,0.6-2.2,0l-0.8-0.8l-3.3-3.3l-0.8-0.8l-1.2,1.2l0.8,0.8l3.3,3.3c0.6,0.6,0.6,1.6,0,2.1
		c-0.6,0.6-1.6,0.6-2.2,0L30,20.3l-1.2,1.2l2.5,2.5c0.6,0.6,0.6,1.5,0,2.1s-1.5,0.6-2.1,0.1c0.1-0.9-0.2-1.8-0.9-2.5
		c-0.6-0.7-1.5-1-2.5-1v-0.1c0-0.8-0.3-1.7-0.9-2.2c-0.6-0.6-1.4-0.9-2.3-0.9h-0.1v-0.1c0-1.3-0.8-2.4-2-2.9s-2.6-0.2-3.5,0.7
		l-2.5,2.5c-0.2,0.2-0.3,0.3-0.4,0.5l-12.9-4L1,17.5l12.9,4c0,0.1,0,0.1,0,0.2c0,0.8,0.3,1.7,0.9,2.2c0.6,0.6,1.4,0.9,2.3,0.9h0.1
		v0.1c0,1,0.5,2,1.3,2.6s1.9,0.8,2.9,0.4c0.2,1.2,1,2.1,2.2,2.5s2.4,0.1,3.2-0.8l1.7-1.7c0.1-0.1,0.2-0.2,0.3-0.3
		c1,0.6,2.2,0.6,3.2,0s1.6-1.6,1.6-2.8v-0.1h0.1c1.6,0,2.9-1.1,3.1-2.7c1.4,0.5,3-0.1,3.8-1.4l0,0l10.8-3.3l-0.5-1.6L41,19z
		 M17.1,23.2c-0.6,0-1.2-0.4-1.4-0.9c-0.2-0.6-0.1-1.2,0.3-1.7l2.5-2.5c0.6-0.6,1.6-0.6,2.2,0s0.6,1.6,0,2.1l-2.5,2.5
		C17.9,23.1,17.5,23.2,17.1,23.2z M19.3,26.1c-0.6-0.6-0.6-1.6,0-2.1l2.5-2.5c0.6-0.6,1.6-0.6,2.2,0s0.6,1.6,0,2.1l-1.7,1.7
		l-0.8,0.8C20.9,26.7,19.9,26.7,19.3,26.1L19.3,26.1z M27.3,26.9l-1.7,1.7c-0.6,0.6-1.6,0.6-2.2,0s-0.6-1.6,0-2.1l1.7-1.7
		c0.6-0.6,1.6-0.6,2.2,0S27.9,26.3,27.3,26.9L27.3,26.9z"/>
</g>
<circle id="Oval-Copy-3" class="st1" cx="36" cy="36" r="35"/>
</svg>
