<?xml version="1.0" encoding="utf-8"?>
<!-- Generator: Adobe Illustrator 25.3.1, SVG Export Plug-In . SVG Version: 6.00 Build 0)  -->
<svg version="1.1" id="圖層_1" xmlns="http://www.w3.org/2000/svg" xmlns:xlink="http://www.w3.org/1999/xlink" x="0px" y="0px"
	 viewBox="0 0 72 72" style="enable-background:new 0 0 72 72;" xml:space="preserve">
<style type="text/css">
	.st0{fill:#1E9BD7;}
	.st1{fill:none;stroke:#1E9BD7;stroke-width:1.5;}
</style>
<desc>Created with Sketch.</desc>
<g id="Group-8" transform="translate(15.000000, 18.000000)">
	<g id="conversation">
		<g id="Shape">
			<path class="st0" d="M34.7,1H6.9C3.7,1,1,3.7,1,7v17.3c0,3.3,2.7,6,5.9,6h1.8l-1.2,5.9c0,0.3,0,0.5,0.3,0.7
				c0.3,0.1,0.5,0.1,0.8,0L21,30.3h13.7c3.3,0,5.9-2.7,5.9-6V7C40.6,3.7,37.9,1,34.7,1z M39.3,24.3c0,2.6-2.1,4.7-4.6,4.7H20.8
				c-0.1,0-0.2,0-0.3,0.1l-11.3,6l1-5.3c0-0.2,0-0.4-0.1-0.6C10,29.1,9.8,29,9.6,29H6.9c-2.6,0-4.6-2.1-4.6-4.7V7
				c0-2.6,2.1-4.7,4.6-4.7h27.7c2.6,0,4.6,2.1,4.6,4.7L39.3,24.3L39.3,24.3z"/>
			<path class="st0" d="M8.3,37.2c-0.2,0-0.4-0.1-0.5-0.2c-0.3-0.2-0.4-0.6-0.3-0.9l1.1-5.6H6.9c-3.4,0-6.2-2.8-6.2-6.3V7
				c0-3.4,2.8-6.2,6.2-6.3h27.7c3.4,0,6.2,2.8,6.2,6.3v17.3c0,3.4-2.8,6.2-6.2,6.3H21L8.7,37.1C8.6,37.2,8.4,37.2,8.3,37.2z
				 M6.9,1.2C3.8,1.3,1.3,3.8,1.2,7v17.3c0,3.2,2.6,5.7,5.7,5.8H9l-1.2,6.2c0,0.2,0,0.3,0.2,0.4c0.1,0.1,0.3,0.1,0.4,0L21,30.1h13.7
				c3.1,0,5.7-2.6,5.7-5.8V7c0-3.2-2.6-5.7-5.7-5.8C34.7,1.2,6.9,1.2,6.9,1.2z M8.8,35.6l1.1-5.8c0-0.1,0-0.3-0.1-0.3
				c-0.1-0.1-0.2-0.2-0.3-0.2H6.9c-2.7,0-4.9-2.2-4.9-4.9V7c0-2.7,2.2-4.9,4.9-4.9h27.7c2.7,0,4.9,2.2,4.9,4.9v17.3
				c0,2.7-2.2,4.9-4.9,4.9H20.8c-0.1,0-0.1,0-0.2,0L8.8,35.6z M6.9,2.6c-2.4,0-4.4,2-4.4,4.4v17.3c0,2.4,2,4.4,4.4,4.4h2.6
				c0.3,0,0.5,0.1,0.7,0.3c0.2,0.2,0.2,0.5,0.2,0.8l-0.9,4.8l10.8-5.8c0.1-0.1,0.3-0.1,0.4-0.1h13.9c2.4,0,4.4-2,4.4-4.4V7
				c0-2.4-2-4.4-4.4-4.4H6.9z"/>
		</g>
	</g>
	<g id="Line-8">
		<rect x="8.6" y="10.5" class="st0" width="23.5" height="1.8"/>
	</g>
	<g id="Line-8-Copy">
		<rect x="8.6" y="18.6" class="st0" width="23.5" height="1.8"/>
	</g>
</g>
<circle id="Oval-Copy-2" class="st1" cx="36" cy="36" r="35"/>
</svg>
